<?xml version="1.0" encoding="utf-8" standalone="no"?>
<!DOCTYPE svg PUBLIC "-//W3C//DTD SVG 1.1//EN"
  "http://www.w3.org/Graphics/SVG/1.1/DTD/svg11.dtd">
<!-- Created with matplotlib (http://matplotlib.org/) -->
<svg height="396pt" version="1.1" viewBox="0 0 576 396" width="576pt" xmlns="http://www.w3.org/2000/svg" xmlns:xlink="http://www.w3.org/1999/xlink">
 <defs>
  <style type="text/css">
*{stroke-linecap:butt;stroke-linejoin:round;stroke-miterlimit:100000;}
  </style>
 </defs>
 <g id="figure_1">
  <g id="patch_1">
   <path d="M 0 396 
L 576 396 
L 576 0 
L 0 0 
z
" style="fill:#ffffff;"/>
  </g>
  <g id="axes_1">
   <g id="patch_2">
    <path d="M 72 346.5 
L 518.4 346.5 
L 518.4 39.6 
L 72 39.6 
z
" style="fill:#eaeaf2;"/>
   </g>
   <g id="matplotlib.axis_1">
    <g id="xtick_1">
     <g id="line2d_1">
      <path clip-path="url(#p0d491eee40)" d="M 518.4 346.5 
L 518.4 39.6 
" style="fill:none;stroke:#ffffff;stroke-linecap:round;"/>
     </g>
     <g id="line2d_2"/>
     <g id="line2d_3"/>
     <g id="text_1">
      <!-- 500 -->
      <defs>
       <path d="M 4.15625 35.296875 
Q 4.15625 48 6.765625 55.734375 
Q 9.375 63.484375 14.515625 67.671875 
Q 19.671875 71.875 27.484375 71.875 
Q 33.25 71.875 37.59375 69.546875 
Q 41.9375 67.234375 44.765625 62.859375 
Q 47.609375 58.5 49.21875 52.21875 
Q 50.828125 45.953125 50.828125 35.296875 
Q 50.828125 22.703125 48.234375 14.96875 
Q 45.65625 7.234375 40.5 3 
Q 35.359375 -1.21875 27.484375 -1.21875 
Q 17.140625 -1.21875 11.234375 6.203125 
Q 4.15625 15.140625 4.15625 35.296875 
M 13.1875 35.296875 
Q 13.1875 17.671875 17.3125 11.828125 
Q 21.4375 6 27.484375 6 
Q 33.546875 6 37.671875 11.859375 
Q 41.796875 17.71875 41.796875 35.296875 
Q 41.796875 52.984375 37.671875 58.78125 
Q 33.546875 64.59375 27.390625 64.59375 
Q 21.34375 64.59375 17.71875 59.46875 
Q 13.1875 52.9375 13.1875 35.296875 
" id="ArialMT-30"/>
       <path d="M 4.15625 18.75 
L 13.375 19.53125 
Q 14.40625 12.796875 18.140625 9.390625 
Q 21.875 6 27.15625 6 
Q 33.5 6 37.890625 10.78125 
Q 42.28125 15.578125 42.28125 23.484375 
Q 42.28125 31 38.0625 35.34375 
Q 33.84375 39.703125 27 39.703125 
Q 22.75 39.703125 19.328125 37.765625 
Q 15.921875 35.84375 13.96875 32.765625 
L 5.71875 33.84375 
L 12.640625 70.609375 
L 48.25 70.609375 
L 48.25 62.203125 
L 19.671875 62.203125 
L 15.828125 42.96875 
Q 22.265625 47.46875 29.34375 47.46875 
Q 38.71875 47.46875 45.15625 40.96875 
Q 51.609375 34.46875 51.609375 24.265625 
Q 51.609375 14.546875 45.953125 7.46875 
Q 39.0625 -1.21875 27.15625 -1.21875 
Q 17.390625 -1.21875 11.203125 4.25 
Q 5.03125 9.71875 4.15625 18.75 
" id="ArialMT-35"/>
      </defs>
      <g style="fill:#262626;" transform="translate(510.05859375 360.6578125)scale(0.1 -0.1)">
       <use xlink:href="#ArialMT-35"/>
       <use x="55.615234375" xlink:href="#ArialMT-30"/>
       <use x="111.23046875" xlink:href="#ArialMT-30"/>
      </g>
     </g>
    </g>
    <g id="xtick_2">
     <g id="line2d_4">
      <path clip-path="url(#p0d491eee40)" d="M 454.628571 346.5 
L 454.628571 39.6 
" style="fill:none;stroke:#ffffff;stroke-linecap:round;"/>
     </g>
     <g id="line2d_5"/>
     <g id="line2d_6"/>
     <g id="text_2">
      <!-- 1000 -->
      <defs>
       <path d="M 37.25 0 
L 28.46875 0 
L 28.46875 56 
Q 25.296875 52.984375 20.140625 49.953125 
Q 14.984375 46.921875 10.890625 45.40625 
L 10.890625 53.90625 
Q 18.265625 57.375 23.78125 62.296875 
Q 29.296875 67.234375 31.59375 71.875 
L 37.25 71.875 
z
" id="ArialMT-31"/>
      </defs>
      <g style="fill:#262626;" transform="translate(443.506696429 360.6578125)scale(0.1 -0.1)">
       <use xlink:href="#ArialMT-31"/>
       <use x="55.615234375" xlink:href="#ArialMT-30"/>
       <use x="111.23046875" xlink:href="#ArialMT-30"/>
       <use x="166.845703125" xlink:href="#ArialMT-30"/>
      </g>
     </g>
    </g>
    <g id="xtick_3">
     <g id="line2d_7">
      <path clip-path="url(#p0d491eee40)" d="M 390.857143 346.5 
L 390.857143 39.6 
" style="fill:none;stroke:#ffffff;stroke-linecap:round;"/>
     </g>
     <g id="line2d_8"/>
     <g id="line2d_9"/>
     <g id="text_3">
      <!-- 1500 -->
      <g style="fill:#262626;" transform="translate(379.735267857 360.6578125)scale(0.1 -0.1)">
       <use xlink:href="#ArialMT-31"/>
       <use x="55.615234375" xlink:href="#ArialMT-35"/>
       <use x="111.23046875" xlink:href="#ArialMT-30"/>
       <use x="166.845703125" xlink:href="#ArialMT-30"/>
      </g>
     </g>
    </g>
    <g id="xtick_4">
     <g id="line2d_10">
      <path clip-path="url(#p0d491eee40)" d="M 327.085714 346.5 
L 327.085714 39.6 
" style="fill:none;stroke:#ffffff;stroke-linecap:round;"/>
     </g>
     <g id="line2d_11"/>
     <g id="line2d_12"/>
     <g id="text_4">
      <!-- 2000 -->
      <defs>
       <path d="M 50.34375 8.453125 
L 50.34375 0 
L 3.03125 0 
Q 2.9375 3.171875 4.046875 6.109375 
Q 5.859375 10.9375 9.828125 15.625 
Q 13.8125 20.3125 21.34375 26.46875 
Q 33.015625 36.03125 37.109375 41.625 
Q 41.21875 47.21875 41.21875 52.203125 
Q 41.21875 57.421875 37.46875 61 
Q 33.734375 64.59375 27.734375 64.59375 
Q 21.390625 64.59375 17.578125 60.78125 
Q 13.765625 56.984375 13.71875 50.25 
L 4.6875 51.171875 
Q 5.609375 61.28125 11.65625 66.578125 
Q 17.71875 71.875 27.9375 71.875 
Q 38.234375 71.875 44.234375 66.15625 
Q 50.25 60.453125 50.25 52 
Q 50.25 47.703125 48.484375 43.546875 
Q 46.734375 39.40625 42.65625 34.8125 
Q 38.578125 30.21875 29.109375 22.21875 
Q 21.1875 15.578125 18.9375 13.203125 
Q 16.703125 10.84375 15.234375 8.453125 
z
" id="ArialMT-32"/>
      </defs>
      <g style="fill:#262626;" transform="translate(315.963839286 360.6578125)scale(0.1 -0.1)">
       <use xlink:href="#ArialMT-32"/>
       <use x="55.615234375" xlink:href="#ArialMT-30"/>
       <use x="111.23046875" xlink:href="#ArialMT-30"/>
       <use x="166.845703125" xlink:href="#ArialMT-30"/>
      </g>
     </g>
    </g>
    <g id="xtick_5">
     <g id="line2d_13">
      <path clip-path="url(#p0d491eee40)" d="M 263.314286 346.5 
L 263.314286 39.6 
" style="fill:none;stroke:#ffffff;stroke-linecap:round;"/>
     </g>
     <g id="line2d_14"/>
     <g id="line2d_15"/>
     <g id="text_5">
      <!-- 2500 -->
      <g style="fill:#262626;" transform="translate(252.192410714 360.6578125)scale(0.1 -0.1)">
       <use xlink:href="#ArialMT-32"/>
       <use x="55.615234375" xlink:href="#ArialMT-35"/>
       <use x="111.23046875" xlink:href="#ArialMT-30"/>
       <use x="166.845703125" xlink:href="#ArialMT-30"/>
      </g>
     </g>
    </g>
    <g id="xtick_6">
     <g id="line2d_16">
      <path clip-path="url(#p0d491eee40)" d="M 199.542857 346.5 
L 199.542857 39.6 
" style="fill:none;stroke:#ffffff;stroke-linecap:round;"/>
     </g>
     <g id="line2d_17"/>
     <g id="line2d_18"/>
     <g id="text_6">
      <!-- 3000 -->
      <defs>
       <path d="M 4.203125 18.890625 
L 12.984375 20.0625 
Q 14.5 12.59375 18.140625 9.296875 
Q 21.78125 6 27 6 
Q 33.203125 6 37.46875 10.296875 
Q 41.75 14.59375 41.75 20.953125 
Q 41.75 27 37.796875 30.921875 
Q 33.84375 34.859375 27.734375 34.859375 
Q 25.25 34.859375 21.53125 33.890625 
L 22.515625 41.609375 
Q 23.390625 41.5 23.921875 41.5 
Q 29.546875 41.5 34.03125 44.421875 
Q 38.53125 47.359375 38.53125 53.46875 
Q 38.53125 58.296875 35.25 61.46875 
Q 31.984375 64.65625 26.8125 64.65625 
Q 21.6875 64.65625 18.265625 61.421875 
Q 14.84375 58.203125 13.875 51.765625 
L 5.078125 53.328125 
Q 6.6875 62.15625 12.390625 67.015625 
Q 18.109375 71.875 26.609375 71.875 
Q 32.46875 71.875 37.390625 69.359375 
Q 42.328125 66.84375 44.9375 62.5 
Q 47.5625 58.15625 47.5625 53.265625 
Q 47.5625 48.640625 45.0625 44.828125 
Q 42.578125 41.015625 37.703125 38.765625 
Q 44.046875 37.3125 47.5625 32.6875 
Q 51.078125 28.078125 51.078125 21.140625 
Q 51.078125 11.765625 44.234375 5.25 
Q 37.40625 -1.265625 26.953125 -1.265625 
Q 17.53125 -1.265625 11.296875 4.34375 
Q 5.078125 9.96875 4.203125 18.890625 
" id="ArialMT-33"/>
      </defs>
      <g style="fill:#262626;" transform="translate(188.420982143 360.6578125)scale(0.1 -0.1)">
       <use xlink:href="#ArialMT-33"/>
       <use x="55.615234375" xlink:href="#ArialMT-30"/>
       <use x="111.23046875" xlink:href="#ArialMT-30"/>
       <use x="166.845703125" xlink:href="#ArialMT-30"/>
      </g>
     </g>
    </g>
    <g id="xtick_7">
     <g id="line2d_19">
      <path clip-path="url(#p0d491eee40)" d="M 135.771429 346.5 
L 135.771429 39.6 
" style="fill:none;stroke:#ffffff;stroke-linecap:round;"/>
     </g>
     <g id="line2d_20"/>
     <g id="line2d_21"/>
     <g id="text_7">
      <!-- 3500 -->
      <g style="fill:#262626;" transform="translate(124.649553571 360.6578125)scale(0.1 -0.1)">
       <use xlink:href="#ArialMT-33"/>
       <use x="55.615234375" xlink:href="#ArialMT-35"/>
       <use x="111.23046875" xlink:href="#ArialMT-30"/>
       <use x="166.845703125" xlink:href="#ArialMT-30"/>
      </g>
     </g>
    </g>
    <g id="xtick_8">
     <g id="line2d_22">
      <path clip-path="url(#p0d491eee40)" d="M 72 346.5 
L 72 39.6 
" style="fill:none;stroke:#ffffff;stroke-linecap:round;"/>
     </g>
     <g id="line2d_23"/>
     <g id="line2d_24"/>
     <g id="text_8">
      <!-- 4000 -->
      <defs>
       <path d="M 32.328125 0 
L 32.328125 17.140625 
L 1.265625 17.140625 
L 1.265625 25.203125 
L 33.9375 71.578125 
L 41.109375 71.578125 
L 41.109375 25.203125 
L 50.78125 25.203125 
L 50.78125 17.140625 
L 41.109375 17.140625 
L 41.109375 0 
z
M 32.328125 25.203125 
L 32.328125 57.46875 
L 9.90625 25.203125 
z
" id="ArialMT-34"/>
      </defs>
      <g style="fill:#262626;" transform="translate(60.878125 360.6578125)scale(0.1 -0.1)">
       <use xlink:href="#ArialMT-34"/>
       <use x="55.615234375" xlink:href="#ArialMT-30"/>
       <use x="111.23046875" xlink:href="#ArialMT-30"/>
       <use x="166.845703125" xlink:href="#ArialMT-30"/>
      </g>
     </g>
    </g>
    <g id="text_9">
     <!-- cm^-1 -->
     <defs>
      <path d="M 40.4375 19 
L 49.078125 17.875 
Q 47.65625 8.9375 41.8125 3.875 
Q 35.984375 -1.171875 27.484375 -1.171875 
Q 16.84375 -1.171875 10.375 5.78125 
Q 3.90625 12.75 3.90625 25.734375 
Q 3.90625 34.125 6.6875 40.421875 
Q 9.46875 46.734375 15.15625 49.875 
Q 20.84375 53.03125 27.546875 53.03125 
Q 35.984375 53.03125 41.359375 48.75 
Q 46.734375 44.484375 48.25 36.625 
L 39.703125 35.296875 
Q 38.484375 40.53125 35.375 43.15625 
Q 32.28125 45.796875 27.875 45.796875 
Q 21.234375 45.796875 17.078125 41.03125 
Q 12.9375 36.28125 12.9375 25.984375 
Q 12.9375 15.53125 16.9375 10.796875 
Q 20.953125 6.0625 27.390625 6.0625 
Q 32.5625 6.0625 36.03125 9.234375 
Q 39.5 12.40625 40.4375 19 
" id="ArialMT-63"/>
      <path d="M 11.671875 33.6875 
L 2.640625 33.6875 
L 19.875 72.796875 
L 26.953125 72.796875 
L 44.28125 33.6875 
L 35.453125 33.6875 
L 23.390625 62.84375 
z
" id="ArialMT-5e"/>
      <path d="M 3.171875 21.484375 
L 3.171875 30.328125 
L 30.171875 30.328125 
L 30.171875 21.484375 
z
" id="ArialMT-2d"/>
      <path d="M 6.59375 0 
L 6.59375 51.859375 
L 14.453125 51.859375 
L 14.453125 44.578125 
Q 16.890625 48.390625 20.9375 50.703125 
Q 25 53.03125 30.171875 53.03125 
Q 35.9375 53.03125 39.625 50.640625 
Q 43.3125 48.25 44.828125 43.953125 
Q 50.984375 53.03125 60.84375 53.03125 
Q 68.5625 53.03125 72.703125 48.75 
Q 76.859375 44.484375 76.859375 35.59375 
L 76.859375 0 
L 68.109375 0 
L 68.109375 32.671875 
Q 68.109375 37.9375 67.25 40.25 
Q 66.40625 42.578125 64.15625 43.984375 
Q 61.921875 45.40625 58.890625 45.40625 
Q 53.421875 45.40625 49.796875 41.765625 
Q 46.1875 38.140625 46.1875 30.125 
L 46.1875 0 
L 37.40625 0 
L 37.40625 33.6875 
Q 37.40625 39.546875 35.25 42.46875 
Q 33.109375 45.40625 28.21875 45.40625 
Q 24.515625 45.40625 21.359375 43.453125 
Q 18.21875 41.5 16.796875 37.734375 
Q 15.375 33.984375 15.375 26.90625 
L 15.375 0 
z
" id="ArialMT-6d"/>
     </defs>
     <g style="fill:#262626;" transform="translate(280.398125 375.51890625)scale(0.11 -0.11)">
      <use xlink:href="#ArialMT-63"/>
      <use x="50.0" xlink:href="#ArialMT-6d"/>
      <use x="133.30078125" xlink:href="#ArialMT-5e"/>
      <use x="180.224609375" xlink:href="#ArialMT-2d"/>
      <use x="213.525390625" xlink:href="#ArialMT-31"/>
     </g>
    </g>
   </g>
   <g id="matplotlib.axis_2">
    <g id="ytick_1">
     <g id="line2d_25">
      <path clip-path="url(#p0d491eee40)" d="M 72 346.5 
L 518.4 346.5 
" style="fill:none;stroke:#ffffff;stroke-linecap:round;"/>
     </g>
     <g id="line2d_26"/>
     <g id="line2d_27"/>
     <g id="text_10">
      <!-- 0.0 -->
      <defs>
       <path d="M 9.078125 0 
L 9.078125 10.015625 
L 19.09375 10.015625 
L 19.09375 0 
z
" id="ArialMT-2e"/>
      </defs>
      <g style="fill:#262626;" transform="translate(51.1 349.08515625)scale(0.1 -0.1)">
       <use xlink:href="#ArialMT-30"/>
       <use x="55.615234375" xlink:href="#ArialMT-2e"/>
       <use x="83.3984375" xlink:href="#ArialMT-30"/>
      </g>
     </g>
    </g>
    <g id="ytick_2">
     <g id="line2d_28">
      <path clip-path="url(#p0d491eee40)" d="M 72 285.12 
L 518.4 285.12 
" style="fill:none;stroke:#ffffff;stroke-linecap:round;"/>
     </g>
     <g id="line2d_29"/>
     <g id="line2d_30"/>
     <g id="text_11">
      <!-- 0.2 -->
      <g style="fill:#262626;" transform="translate(51.1 287.70515625)scale(0.1 -0.1)">
       <use xlink:href="#ArialMT-30"/>
       <use x="55.615234375" xlink:href="#ArialMT-2e"/>
       <use x="83.3984375" xlink:href="#ArialMT-32"/>
      </g>
     </g>
    </g>
    <g id="ytick_3">
     <g id="line2d_31">
      <path clip-path="url(#p0d491eee40)" d="M 72 223.74 
L 518.4 223.74 
" style="fill:none;stroke:#ffffff;stroke-linecap:round;"/>
     </g>
     <g id="line2d_32"/>
     <g id="line2d_33"/>
     <g id="text_12">
      <!-- 0.4 -->
      <g style="fill:#262626;" transform="translate(51.1 226.32515625)scale(0.1 -0.1)">
       <use xlink:href="#ArialMT-30"/>
       <use x="55.615234375" xlink:href="#ArialMT-2e"/>
       <use x="83.3984375" xlink:href="#ArialMT-34"/>
      </g>
     </g>
    </g>
    <g id="ytick_4">
     <g id="line2d_34">
      <path clip-path="url(#p0d491eee40)" d="M 72 162.36 
L 518.4 162.36 
" style="fill:none;stroke:#ffffff;stroke-linecap:round;"/>
     </g>
     <g id="line2d_35"/>
     <g id="line2d_36"/>
     <g id="text_13">
      <!-- 0.6 -->
      <defs>
       <path d="M 49.75 54.046875 
L 41.015625 53.375 
Q 39.84375 58.546875 37.703125 60.890625 
Q 34.125 64.65625 28.90625 64.65625 
Q 24.703125 64.65625 21.53125 62.3125 
Q 17.390625 59.28125 14.984375 53.46875 
Q 12.59375 47.65625 12.5 36.921875 
Q 15.671875 41.75 20.265625 44.09375 
Q 24.859375 46.4375 29.890625 46.4375 
Q 38.671875 46.4375 44.84375 39.96875 
Q 51.03125 33.5 51.03125 23.25 
Q 51.03125 16.5 48.125 10.71875 
Q 45.21875 4.9375 40.140625 1.859375 
Q 35.0625 -1.21875 28.609375 -1.21875 
Q 17.625 -1.21875 10.6875 6.859375 
Q 3.765625 14.9375 3.765625 33.5 
Q 3.765625 54.25 11.421875 63.671875 
Q 18.109375 71.875 29.4375 71.875 
Q 37.890625 71.875 43.28125 67.140625 
Q 48.6875 62.40625 49.75 54.046875 
M 13.875 23.1875 
Q 13.875 18.65625 15.796875 14.5 
Q 17.71875 10.359375 21.1875 8.171875 
Q 24.65625 6 28.46875 6 
Q 34.03125 6 38.03125 10.484375 
Q 42.046875 14.984375 42.046875 22.703125 
Q 42.046875 30.125 38.078125 34.390625 
Q 34.125 38.671875 28.125 38.671875 
Q 22.171875 38.671875 18.015625 34.390625 
Q 13.875 30.125 13.875 23.1875 
" id="ArialMT-36"/>
      </defs>
      <g style="fill:#262626;" transform="translate(51.1 164.94515625)scale(0.1 -0.1)">
       <use xlink:href="#ArialMT-30"/>
       <use x="55.615234375" xlink:href="#ArialMT-2e"/>
       <use x="83.3984375" xlink:href="#ArialMT-36"/>
      </g>
     </g>
    </g>
    <g id="ytick_5">
     <g id="line2d_37">
      <path clip-path="url(#p0d491eee40)" d="M 72 100.98 
L 518.4 100.98 
" style="fill:none;stroke:#ffffff;stroke-linecap:round;"/>
     </g>
     <g id="line2d_38"/>
     <g id="line2d_39"/>
     <g id="text_14">
      <!-- 0.8 -->
      <defs>
       <path d="M 17.671875 38.8125 
Q 12.203125 40.828125 9.5625 44.53125 
Q 6.9375 48.25 6.9375 53.421875 
Q 6.9375 61.234375 12.546875 66.546875 
Q 18.171875 71.875 27.484375 71.875 
Q 36.859375 71.875 42.578125 66.421875 
Q 48.296875 60.984375 48.296875 53.171875 
Q 48.296875 48.1875 45.671875 44.5 
Q 43.0625 40.828125 37.75 38.8125 
Q 44.34375 36.671875 47.78125 31.875 
Q 51.21875 27.09375 51.21875 20.453125 
Q 51.21875 11.28125 44.71875 5.03125 
Q 38.234375 -1.21875 27.640625 -1.21875 
Q 17.046875 -1.21875 10.546875 5.046875 
Q 4.046875 11.328125 4.046875 20.703125 
Q 4.046875 27.6875 7.59375 32.390625 
Q 11.140625 37.109375 17.671875 38.8125 
M 15.921875 53.71875 
Q 15.921875 48.640625 19.1875 45.40625 
Q 22.46875 42.1875 27.6875 42.1875 
Q 32.765625 42.1875 36.015625 45.375 
Q 39.265625 48.578125 39.265625 53.21875 
Q 39.265625 58.0625 35.90625 61.359375 
Q 32.5625 64.65625 27.59375 64.65625 
Q 22.5625 64.65625 19.234375 61.421875 
Q 15.921875 58.203125 15.921875 53.71875 
M 13.09375 20.65625 
Q 13.09375 16.890625 14.875 13.375 
Q 16.65625 9.859375 20.171875 7.921875 
Q 23.6875 6 27.734375 6 
Q 34.03125 6 38.125 10.046875 
Q 42.234375 14.109375 42.234375 20.359375 
Q 42.234375 26.703125 38.015625 30.859375 
Q 33.796875 35.015625 27.4375 35.015625 
Q 21.234375 35.015625 17.15625 30.90625 
Q 13.09375 26.8125 13.09375 20.65625 
" id="ArialMT-38"/>
      </defs>
      <g style="fill:#262626;" transform="translate(51.1 103.56515625)scale(0.1 -0.1)">
       <use xlink:href="#ArialMT-30"/>
       <use x="55.615234375" xlink:href="#ArialMT-2e"/>
       <use x="83.3984375" xlink:href="#ArialMT-38"/>
      </g>
     </g>
    </g>
    <g id="ytick_6">
     <g id="line2d_40">
      <path clip-path="url(#p0d491eee40)" d="M 72 39.6 
L 518.4 39.6 
" style="fill:none;stroke:#ffffff;stroke-linecap:round;"/>
     </g>
     <g id="line2d_41"/>
     <g id="line2d_42"/>
     <g id="text_15">
      <!-- 1.0 -->
      <g style="fill:#262626;" transform="translate(51.1 42.18515625)scale(0.1 -0.1)">
       <use xlink:href="#ArialMT-31"/>
       <use x="55.615234375" xlink:href="#ArialMT-2e"/>
       <use x="83.3984375" xlink:href="#ArialMT-30"/>
      </g>
     </g>
    </g>
    <g id="text_16">
     <!-- absorbance -->
     <defs>
      <path d="M 14.703125 0 
L 6.546875 0 
L 6.546875 71.578125 
L 15.328125 71.578125 
L 15.328125 46.046875 
Q 20.90625 53.03125 29.546875 53.03125 
Q 34.328125 53.03125 38.59375 51.09375 
Q 42.875 49.171875 45.625 45.671875 
Q 48.390625 42.1875 49.953125 37.25 
Q 51.515625 32.328125 51.515625 26.703125 
Q 51.515625 13.375 44.921875 6.09375 
Q 38.328125 -1.171875 29.109375 -1.171875 
Q 19.921875 -1.171875 14.703125 6.5 
z
M 14.59375 26.3125 
Q 14.59375 17 17.140625 12.84375 
Q 21.296875 6.0625 28.375 6.0625 
Q 34.125 6.0625 38.328125 11.0625 
Q 42.53125 16.0625 42.53125 25.984375 
Q 42.53125 36.140625 38.5 40.96875 
Q 34.46875 45.796875 28.765625 45.796875 
Q 23 45.796875 18.796875 40.796875 
Q 14.59375 35.796875 14.59375 26.3125 
" id="ArialMT-62"/>
      <path d="M 40.4375 6.390625 
Q 35.546875 2.25 31.03125 0.53125 
Q 26.515625 -1.171875 21.34375 -1.171875 
Q 12.796875 -1.171875 8.203125 3 
Q 3.609375 7.171875 3.609375 13.671875 
Q 3.609375 17.484375 5.34375 20.625 
Q 7.078125 23.78125 9.890625 25.6875 
Q 12.703125 27.59375 16.21875 28.5625 
Q 18.796875 29.25 24.03125 29.890625 
Q 34.671875 31.15625 39.703125 32.90625 
Q 39.75 34.71875 39.75 35.203125 
Q 39.75 40.578125 37.25 42.78125 
Q 33.890625 45.75 27.25 45.75 
Q 21.046875 45.75 18.09375 43.578125 
Q 15.140625 41.40625 13.71875 35.890625 
L 5.125 37.0625 
Q 6.296875 42.578125 8.984375 45.96875 
Q 11.671875 49.359375 16.75 51.1875 
Q 21.828125 53.03125 28.515625 53.03125 
Q 35.15625 53.03125 39.296875 51.46875 
Q 43.453125 49.90625 45.40625 47.53125 
Q 47.359375 45.171875 48.140625 41.546875 
Q 48.578125 39.3125 48.578125 33.453125 
L 48.578125 21.734375 
Q 48.578125 9.46875 49.140625 6.21875 
Q 49.703125 2.984375 51.375 0 
L 42.1875 0 
Q 40.828125 2.734375 40.4375 6.390625 
M 39.703125 26.03125 
Q 34.90625 24.078125 25.34375 22.703125 
Q 19.921875 21.921875 17.671875 20.9375 
Q 15.4375 19.96875 14.203125 18.09375 
Q 12.984375 16.21875 12.984375 13.921875 
Q 12.984375 10.40625 15.640625 8.0625 
Q 18.3125 5.71875 23.4375 5.71875 
Q 28.515625 5.71875 32.46875 7.9375 
Q 36.421875 10.15625 38.28125 14.015625 
Q 39.703125 17 39.703125 22.796875 
z
" id="ArialMT-61"/>
      <path d="M 42.09375 16.703125 
L 51.171875 15.578125 
Q 49.03125 7.625 43.21875 3.21875 
Q 37.40625 -1.171875 28.375 -1.171875 
Q 17 -1.171875 10.328125 5.828125 
Q 3.65625 12.84375 3.65625 25.484375 
Q 3.65625 38.578125 10.390625 45.796875 
Q 17.140625 53.03125 27.875 53.03125 
Q 38.28125 53.03125 44.875 45.953125 
Q 51.46875 38.875 51.46875 26.03125 
Q 51.46875 25.25 51.421875 23.6875 
L 12.75 23.6875 
Q 13.234375 15.140625 17.578125 10.59375 
Q 21.921875 6.0625 28.421875 6.0625 
Q 33.25 6.0625 36.671875 8.59375 
Q 40.09375 11.140625 42.09375 16.703125 
M 13.234375 30.90625 
L 42.1875 30.90625 
Q 41.609375 37.453125 38.875 40.71875 
Q 34.671875 45.796875 27.984375 45.796875 
Q 21.921875 45.796875 17.796875 41.75 
Q 13.671875 37.703125 13.234375 30.90625 
" id="ArialMT-65"/>
      <path d="M 6.5 0 
L 6.5 51.859375 
L 14.40625 51.859375 
L 14.40625 44 
Q 17.4375 49.515625 20 51.265625 
Q 22.5625 53.03125 25.640625 53.03125 
Q 30.078125 53.03125 34.671875 50.203125 
L 31.640625 42.046875 
Q 28.421875 43.953125 25.203125 43.953125 
Q 22.3125 43.953125 20.015625 42.21875 
Q 17.71875 40.484375 16.75 37.40625 
Q 15.28125 32.71875 15.28125 27.15625 
L 15.28125 0 
z
" id="ArialMT-72"/>
      <path d="M 3.078125 15.484375 
L 11.765625 16.84375 
Q 12.5 11.625 15.84375 8.84375 
Q 19.1875 6.0625 25.203125 6.0625 
Q 31.25 6.0625 34.171875 8.515625 
Q 37.109375 10.984375 37.109375 14.3125 
Q 37.109375 17.28125 34.515625 19 
Q 32.71875 20.171875 25.53125 21.96875 
Q 15.875 24.421875 12.140625 26.203125 
Q 8.40625 27.984375 6.46875 31.125 
Q 4.546875 34.28125 4.546875 38.09375 
Q 4.546875 41.546875 6.125 44.5 
Q 7.71875 47.46875 10.453125 49.421875 
Q 12.5 50.921875 16.03125 51.96875 
Q 19.578125 53.03125 23.640625 53.03125 
Q 29.734375 53.03125 34.34375 51.265625 
Q 38.96875 49.515625 41.15625 46.5 
Q 43.359375 43.5 44.1875 38.484375 
L 35.59375 37.3125 
Q 35.015625 41.3125 32.203125 43.546875 
Q 29.390625 45.796875 24.265625 45.796875 
Q 18.21875 45.796875 15.625 43.796875 
Q 13.03125 41.796875 13.03125 39.109375 
Q 13.03125 37.40625 14.109375 36.03125 
Q 15.1875 34.625 17.484375 33.6875 
Q 18.796875 33.203125 25.25 31.453125 
Q 34.578125 28.953125 38.25 27.359375 
Q 41.9375 25.78125 44.03125 22.75 
Q 46.140625 19.734375 46.140625 15.234375 
Q 46.140625 10.84375 43.578125 6.953125 
Q 41.015625 3.078125 36.171875 0.953125 
Q 31.34375 -1.171875 25.25 -1.171875 
Q 15.140625 -1.171875 9.84375 3.03125 
Q 4.546875 7.234375 3.078125 15.484375 
" id="ArialMT-73"/>
      <path d="M 3.328125 25.921875 
Q 3.328125 40.328125 11.328125 47.265625 
Q 18.015625 53.03125 27.640625 53.03125 
Q 38.328125 53.03125 45.109375 46.015625 
Q 51.90625 39.015625 51.90625 26.65625 
Q 51.90625 16.65625 48.90625 10.90625 
Q 45.90625 5.171875 40.15625 2 
Q 34.421875 -1.171875 27.640625 -1.171875 
Q 16.75 -1.171875 10.03125 5.8125 
Q 3.328125 12.796875 3.328125 25.921875 
M 12.359375 25.921875 
Q 12.359375 15.96875 16.703125 11.015625 
Q 21.046875 6.0625 27.640625 6.0625 
Q 34.1875 6.0625 38.53125 11.03125 
Q 42.875 16.015625 42.875 26.21875 
Q 42.875 35.84375 38.5 40.796875 
Q 34.125 45.75 27.640625 45.75 
Q 21.046875 45.75 16.703125 40.8125 
Q 12.359375 35.890625 12.359375 25.921875 
" id="ArialMT-6f"/>
      <path d="M 6.59375 0 
L 6.59375 51.859375 
L 14.5 51.859375 
L 14.5 44.484375 
Q 20.21875 53.03125 31 53.03125 
Q 35.6875 53.03125 39.625 51.34375 
Q 43.5625 49.65625 45.515625 46.921875 
Q 47.46875 44.1875 48.25 40.4375 
Q 48.734375 37.984375 48.734375 31.890625 
L 48.734375 0 
L 39.9375 0 
L 39.9375 31.546875 
Q 39.9375 36.921875 38.90625 39.578125 
Q 37.890625 42.234375 35.28125 43.8125 
Q 32.671875 45.40625 29.15625 45.40625 
Q 23.53125 45.40625 19.453125 41.84375 
Q 15.375 38.28125 15.375 28.328125 
L 15.375 0 
z
" id="ArialMT-6e"/>
     </defs>
     <g style="fill:#262626;" transform="translate(43.91375 221.7909375)rotate(-90.0)scale(0.11 -0.11)">
      <use xlink:href="#ArialMT-61"/>
      <use x="55.615234375" xlink:href="#ArialMT-62"/>
      <use x="111.23046875" xlink:href="#ArialMT-73"/>
      <use x="161.23046875" xlink:href="#ArialMT-6f"/>
      <use x="216.845703125" xlink:href="#ArialMT-72"/>
      <use x="250.146484375" xlink:href="#ArialMT-62"/>
      <use x="305.76171875" xlink:href="#ArialMT-61"/>
      <use x="361.376953125" xlink:href="#ArialMT-6e"/>
      <use x="416.9921875" xlink:href="#ArialMT-63"/>
      <use x="466.9921875" xlink:href="#ArialMT-65"/>
     </g>
    </g>
   </g>
   <g id="line2d_43">
    <path clip-path="url(#p0d491eee40)" d="M 505.666121 338.175064 
L 504.68149 342.473827 
L 503.698135 339.694593 
L 502.713504 326.503651 
L 501.730149 311.714379 
L 500.869234 302.424405 
L 499.147406 270.600771 
L 498.286491 258.762711 
L 497.425577 236.046423 
L 495.702473 215.726198 
L 494.841559 215.399428 
L 493.980645 222.538704 
L 493.11973 222.971675 
L 492.258816 213.90266 
L 491.397902 183.511883 
L 490.536987 139.891582 
L 489.676073 175.438597 
L 488.815159 260.192667 
L 487.954245 324.212116 
L 487.09333 341.182578 
L 486.108699 343.159415 
L 485.125344 343.710276 
L 484.140713 343.43446 
L 483.157358 342.030546 
L 482.172727 337.46479 
L 481.189371 336.448896 
L 480.204741 343.425739 
L 479.221385 344.356715 
L 478.114313 344.681548 
L 477.007241 341.630751 
L 476.02261 335.847134 
L 475.039255 327.325219 
L 474.054624 328.220814 
L 473.071269 334.394865 
L 472.086638 326.563707 
L 471.225723 308.470946 
L 470.364809 331.515939 
L 469.381454 345.421688 
L 468.150665 343.405176 
L 467.16731 339.995163 
L 466.182679 343.798849 
L 465.199323 339.981905 
L 464.214693 328.202865 
L 463.231337 321.828518 
L 462.246706 336.881182 
L 461.263351 339.527613 
L 460.27872 335.209839 
L 459.295365 327.7514 
L 458.310734 327.109466 
L 457.327378 331.02943 
L 456.342747 329.372063 
L 455.359392 324.11612 
L 454.374761 312.451093 
L 452.652933 264.219017 
L 451.792018 289.778862 
L 450.931104 300.133382 
L 450.07019 291.99951 
L 449.209275 290.356212 
L 448.348361 291.612107 
L 447.487447 286.727748 
L 446.626533 276.010777 
L 445.765618 260.475954 
L 444.04379 213.485568 
L 443.182875 200.231995 
L 442.321961 198.598345 
L 441.461047 212.468684 
L 440.598857 222.922052 
L 439.737943 222.487891 
L 438.877029 232.09157 
L 437.1552 266.326308 
L 436.294286 280.865235 
L 435.433371 291.654102 
L 434.572457 295.441679 
L 433.711543 287.282876 
L 432.850629 268.453797 
L 431.989714 260.362331 
L 431.1288 260.785816 
L 430.267886 240.490285 
L 429.406971 232.795456 
L 428.546057 243.346632 
L 427.685143 234.786021 
L 425.962039 186.021724 
L 425.101125 152.675715 
L 424.24021 128.811877 
L 423.379296 128.062037 
L 422.518382 133.618243 
L 421.657467 135.28514 
L 420.796553 143.27618 
L 419.935639 162.747194 
L 418.21381 227.29809 
L 417.352896 247.958159 
L 416.491982 262.45688 
L 415.631067 273.44252 
L 414.770153 281.908992 
L 413.909239 286.070216 
L 413.047049 279.423026 
L 412.186135 253.162916 
L 411.325221 247.679543 
L 410.464306 266.924403 
L 409.603392 269.565683 
L 408.742478 260.124649 
L 407.881563 248.86329 
L 407.020649 252.438221 
L 406.159735 259.521902 
L 405.298821 262.95437 
L 404.437906 261.638648 
L 403.576992 245.000273 
L 402.716078 221.295666 
L 401.855163 225.409726 
L 400.994249 254.762848 
L 400.133335 255.941581 
L 399.271145 245.107774 
L 398.410231 241.018736 
L 397.549317 234.521938 
L 396.688402 222.694884 
L 395.827488 215.913783 
L 394.966574 220.217317 
L 394.105659 231.203887 
L 393.244745 254.507447 
L 392.383831 249.555973 
L 391.522917 226.75184 
L 390.662002 193.650275 
L 389.801088 170.034922 
L 388.940174 141.422915 
L 388.079259 102.710061 
L 387.218345 83.467654 
L 386.357431 92.928111 
L 385.495241 132.739632 
L 382.912498 214.948934 
L 382.051584 233.795264 
L 381.19067 247.504987 
L 380.329755 255.67114 
L 379.468841 250.594147 
L 378.607927 231.997359 
L 377.747013 198.448922 
L 376.886098 155.097082 
L 376.025184 102.484846 
L 375.16427 62.619472 
L 374.425797 39.6 
L 373.687323 50.716942 
L 372.950126 83.496139 
L 371.228297 178.682156 
L 370.367383 208.518971 
L 369.506469 232.262909 
L 368.645554 249.626467 
L 367.783365 258.148744 
L 366.92245 264.446412 
L 366.061536 253.168252 
L 364.339707 197.489196 
L 363.478793 208.536631 
L 362.617879 239.792689 
L 361.756965 265.744042 
L 360.89605 297.541951 
L 360.035136 321.133403 
L 359.174222 336.767365 
L 358.189591 342.4789 
L 357.206235 343.874588 
L 356.221605 343.984452 
L 355.238249 344.650878 
L 354.131177 343.672405 
L 353.146546 343.599437 
L 351.17856 344.032145 
L 349.210574 342.491881 
L 348.227218 343.423918 
L 347.242587 342.901226 
L 346.259232 344.142458 
L 345.15216 343.728277 
L 344.168805 342.924395 
L 343.184174 343.661313 
L 342.200818 343.373184 
L 341.216187 342.858938 
L 340.232832 342.912388 
L 338.264846 341.732713 
L 337.280215 341.582182 
L 336.296859 341.625704 
L 335.312229 340.4559 
L 334.328873 339.855775 
L 333.344242 340.152617 
L 332.360887 339.796147 
L 331.376256 340.012464 
L 330.392901 338.169969 
L 329.40827 337.994305 
L 328.424914 338.160445 
L 327.440283 339.809112 
L 326.456928 339.573587 
L 324.488942 338.869882 
L 323.504311 338.68842 
L 322.520955 337.440691 
L 321.536325 336.770744 
L 320.552969 337.417861 
L 319.568338 337.476199 
L 318.584983 336.956986 
L 317.600352 336.764285 
L 316.616997 336.8676 
L 315.632366 337.592376 
L 314.64901 336.718726 
L 313.664379 336.861743 
L 312.681024 337.162333 
L 311.696393 338.411621 
L 310.713038 340.097381 
L 309.728407 339.076585 
L 308.745051 338.815658 
L 307.760421 340.186499 
L 306.777065 334.051545 
L 305.792434 335.557378 
L 304.809079 336.292619 
L 303.824448 335.47784 
L 302.841093 335.850012 
L 301.856462 335.598063 
L 300.873106 335.551145 
L 298.90512 336.062739 
L 297.920489 335.548556 
L 296.937134 335.347411 
L 295.952503 334.881504 
L 294.969147 334.064908 
L 293.984517 332.831515 
L 293.001161 332.189185 
L 292.01653 332.193399 
L 291.033175 330.693735 
L 290.048544 325.567504 
L 289.065189 318.826492 
L 288.202999 307.597226 
L 287.342085 294.648727 
L 286.48117 274.455768 
L 285.620256 258.342938 
L 284.759342 250.260495 
L 283.898427 245.530569 
L 283.037513 266.007955 
L 282.176599 232.971729 
L 281.315685 210.724402 
L 280.45477 242.970437 
L 279.593856 289.419815 
L 278.732942 322.082076 
L 277.872027 336.952825 
L 276.887397 338.266613 
L 275.904041 338.006096 
L 274.91941 337.879131 
L 272.951424 337.354977 
L 271.968069 337.251841 
L 270.000082 336.400718 
L 267.047465 336.177796 
L 266.06411 335.987375 
L 265.079479 335.588846 
L 264.096123 335.488354 
L 263.111493 335.192411 
L 262.128137 335.036207 
L 261.143506 334.674333 
L 260.160151 334.488605 
L 259.17552 334.103233 
L 258.192165 334.004037 
L 252.288206 332.537577 
L 250.320219 332.565252 
L 248.352233 332.515909 
L 246.384247 332.625357 
L 244.416261 332.606147 
L 242.448274 333.332968 
L 241.463643 333.296706 
L 239.495657 332.507524 
L 238.512302 332.299568 
L 236.544315 331.421553 
L 234.576329 330.022199 
L 232.608343 328.406191 
L 231.623712 328.057016 
L 228.67237 326.154327 
L 226.704384 324.345818 
L 224.736398 321.46525 
L 223.751767 319.722869 
L 221.907497 315.806157 
L 221.046583 313.093273 
L 220.185669 306.655751 
L 219.323479 292.917354 
L 218.462565 277.058241 
L 217.60165 272.384565 
L 216.740736 276.169268 
L 215.879822 280.818817 
L 215.018907 288.711916 
L 214.157993 292.555395 
L 213.297079 289.355318 
L 211.57525 271.591247 
L 210.714336 262.926431 
L 208.992507 241.231804 
L 208.131593 240.482909 
L 207.270679 252.399239 
L 205.547575 281.149153 
L 203.825746 297.430702 
L 202.964832 305.364548 
L 202.103918 311.149804 
L 201.243003 315.001767 
L 200.382089 316.9136 
L 199.521175 317.007613 
L 198.660261 316.827746 
L 197.799346 316.265529 
L 196.938432 315.031848 
L 196.077518 313.322119 
L 195.216603 311.031947 
L 194.355689 308.253874 
L 193.494775 304.291073 
L 192.633861 301.121723 
L 191.771671 299.43934 
L 190.910757 298.939658 
L 190.049842 298.879786 
L 189.188928 299.55054 
L 187.467099 301.945506 
L 185.745271 305.311319 
L 184.884357 306.452936 
L 184.023442 306.496882 
L 183.162528 306.023584 
L 182.301614 305.359993 
L 180.579785 302.777593 
L 178.857957 298.183905 
L 177.134853 292.173232 
L 175.413024 287.004077 
L 174.55211 284.669829 
L 173.691195 282.881658 
L 171.969367 278.492703 
L 170.247538 272.031934 
L 169.386624 267.236006 
L 168.52571 261.77177 
L 166.803881 248.276465 
L 165.082053 234.0006 
L 162.498034 208.692656 
L 161.63712 207.298936 
L 160.776206 216.100509 
L 159.054377 248.349594 
L 158.193463 260.927195 
L 157.332549 269.99937 
L 156.471634 276.9259 
L 155.61072 282.127841 
L 154.749806 286.116661 
L 153.027977 291.925126 
L 151.306149 295.311774 
L 150.443959 296.682756 
L 148.72213 298.847462 
L 147.861216 299.575173 
L 147.000302 299.998933 
L 146.139387 300.170337 
L 145.278473 301.391744 
L 143.556645 303.102585 
L 141.834816 305.723351 
L 140.973902 306.68244 
L 140.112987 308.025722 
L 138.391159 309.36743 
L 137.530245 310.774037 
L 136.668055 311.502623 
L 135.807141 312.014357 
L 134.946226 313.769811 
L 134.085312 315.200067 
L 133.224398 315.630127 
L 132.363483 317.125693 
L 131.502569 318.99686 
L 130.519214 319.772583 
L 129.534583 321.939456 
L 128.551227 323.234545 
L 127.566597 323.700797 
L 126.583241 327.006723 
L 125.59861 327.049644 
L 124.615255 326.649297 
L 123.630624 327.197655 
L 121.662638 330.690455 
L 119.694651 330.295159 
L 118.711296 334.997407 
L 117.726665 335.861207 
L 116.74331 337.700524 
L 115.758679 340.749617 
L 114.775323 339.981309 
L 113.790693 338.798135 
L 112.807337 340.711722 
L 111.822706 337.863615 
L 110.839351 338.443635 
L 109.85472 337.629303 
L 108.871365 339.90835 
L 107.886734 336.161283 
L 106.903378 334.011666 
L 105.918747 335.927979 
L 104.935392 338.983532 
L 103.950761 340.473024 
L 102.967406 342.549666 
L 101.982775 342.626106 
L 100.999419 343.826273 
L 100.014789 343.681365 
L 99.031433 343.934988 
L 98.046802 342.020694 
L 97.063447 343.044744 
L 96.078816 342.600733 
L 95.095461 341.492419 
L 94.11083 343.007471 
L 93.127474 341.14901 
L 92.142843 343.015313 
L 91.159488 341.654754 
L 90.174857 342.555399 
L 89.191502 341.836349 
L 88.206871 343.304204 
L 87.223515 342.791388 
L 86.238885 342.998052 
L 85.255529 342.022961 
L 84.270898 343.166499 
L 83.287543 343.629528 
L 81.319557 343.083439 
L 80.334926 343.911742 
L 79.35157 343.437201 
L 78.366939 343.835581 
L 77.383584 344.112722 
L 76.276512 343.977786 
L 75.16944 344.004209 
L 74.062368 344.21664 
L 72.955296 344.091534 
L 72.955296 344.091534 
" style="fill:none;stroke:#4c72b0;stroke-linecap:round;stroke-width:1.75;"/>
   </g>
   <g id="line2d_44">
    <path clip-path="url(#p0d491eee40)" d="M 505.666121 337.087032 
L 504.68149 341.580015 
L 503.698135 339.001705 
L 501.730149 315.466091 
L 500.869234 306.319758 
L 499.147406 277.344542 
L 498.286491 267.553978 
L 497.425577 247.654914 
L 495.702473 232.849383 
L 494.841559 233.407179 
L 493.980645 241.472397 
L 493.11973 246.801075 
L 492.258816 246.040686 
L 491.397902 231.780997 
L 490.536987 206.256981 
L 489.676073 225.627745 
L 488.815159 281.079842 
L 487.954245 323.637522 
L 487.09333 334.998699 
L 485.125344 338.37377 
L 484.140713 339.166224 
L 483.157358 338.8602 
L 482.172727 336.530646 
L 481.189371 336.418165 
L 480.204741 341.375886 
L 478.236754 343.924037 
L 477.253399 343.066408 
L 476.268768 340.15161 
L 475.285413 336.223751 
L 474.300782 336.073528 
L 473.317426 340.737143 
L 472.332795 338.637514 
L 471.34944 327.05855 
L 470.364809 339.197623 
L 469.381454 345.966895 
L 468.150665 343.763955 
L 467.16731 339.608517 
L 466.182679 342.293628 
L 465.199323 338.632255 
L 464.214693 328.70814 
L 463.231337 323.026904 
L 462.246706 335.951693 
L 461.263351 338.82308 
L 460.27872 336.339508 
L 459.295365 332.062737 
L 458.310734 331.931954 
L 457.327378 333.704863 
L 456.342747 331.00134 
L 455.359392 325.803074 
L 454.374761 315.92792 
L 453.513847 298.329342 
L 452.652933 287.522463 
L 451.792018 303.289789 
L 450.931104 305.552151 
L 450.07019 297.076968 
L 449.209275 295.072559 
L 448.348361 295.549413 
L 447.487447 291.341503 
L 446.626533 283.457802 
L 445.765618 274.201136 
L 444.904704 260.432142 
L 444.04379 249.645637 
L 443.182875 243.933767 
L 442.321961 244.361681 
L 441.461047 253.195921 
L 440.598857 259.245418 
L 439.737943 258.96546 
L 438.877029 265.127419 
L 438.016114 275.257972 
L 435.433371 296.277611 
L 434.572457 298.053034 
L 433.711543 290.376183 
L 432.850629 274.202311 
L 431.989714 265.920919 
L 431.1288 265.641814 
L 430.267886 248.329936 
L 429.406971 240.563528 
L 428.546057 249.013052 
L 427.685143 243.089243 
L 425.962039 209.303932 
L 425.101125 190.105988 
L 424.24021 178.549456 
L 423.379296 181.025383 
L 422.518382 186.23703 
L 421.657467 187.334899 
L 420.796553 190.70368 
L 419.935639 201.656025 
L 418.21381 246.993083 
L 417.352896 260.754754 
L 416.491982 269.939839 
L 415.631067 277.158969 
L 414.770153 283.284843 
L 413.909239 286.380228 
L 413.047049 281.794515 
L 412.186135 264.32274 
L 411.325221 261.51667 
L 410.464306 272.153048 
L 409.603392 271.457966 
L 408.742478 262.862896 
L 407.881563 252.715587 
L 407.020649 254.626698 
L 406.159735 259.566004 
L 405.298821 262.377662 
L 404.437906 262.777306 
L 403.576992 252.72137 
L 402.716078 235.181084 
L 401.855163 232.747081 
L 400.994249 254.960038 
L 400.133335 255.68389 
L 399.271145 245.565736 
L 398.410231 241.54169 
L 397.549317 236.523575 
L 396.688402 227.522383 
L 395.827488 221.912243 
L 394.966574 227.940034 
L 394.105659 237.387084 
L 393.244745 255.962584 
L 392.383831 248.474099 
L 391.522917 225.676769 
L 389.801088 168.922217 
L 388.940174 141.411952 
L 388.079259 105.211388 
L 387.218345 85.251024 
L 386.357431 92.721269 
L 385.495241 129.001996 
L 383.773413 182.88253 
L 382.912498 210.159023 
L 382.051584 229.657128 
L 381.19067 243.919071 
L 380.329755 251.004818 
L 379.468841 245.58054 
L 378.607927 227.037342 
L 377.747013 193.98119 
L 376.886098 150.764884 
L 376.025184 98.45432 
L 375.16427 60.389246 
L 374.425797 39.6 
L 373.687323 49.836182 
L 372.950126 80.487917 
L 371.228297 174.459801 
L 370.367383 206.125962 
L 369.506469 233.108845 
L 368.645554 253.836407 
L 367.783365 266.914714 
L 366.92245 278.093373 
L 366.061536 277.897265 
L 365.200622 267.851614 
L 364.339707 254.519903 
L 363.478793 259.910063 
L 362.617879 278.379389 
L 361.756965 294.201349 
L 360.89605 313.652912 
L 360.035136 329.178185 
L 359.050505 339.036377 
L 358.06715 341.923262 
L 355.114533 343.230939 
L 354.131177 342.578956 
L 353.146546 342.442498 
L 351.17856 342.548484 
L 349.210574 341.495826 
L 348.227218 342.098579 
L 347.242587 341.746479 
L 346.259232 342.516509 
L 345.274601 342.070187 
L 344.291246 341.459639 
L 343.306615 341.954741 
L 341.338629 341.217243 
L 340.355273 341.148463 
L 339.370642 340.844903 
L 338.387287 340.676657 
L 337.402656 340.256735 
L 336.419301 340.454208 
L 334.451314 338.843861 
L 333.466683 339.079663 
L 332.483328 339.035964 
L 331.498697 338.513097 
L 330.515342 337.417737 
L 329.530711 336.706997 
L 328.547355 337.163495 
L 327.562725 338.328737 
L 326.579369 338.181386 
L 323.626752 337.204529 
L 322.643397 336.176127 
L 321.658766 335.66366 
L 320.67541 336.016742 
L 319.690779 336.647487 
L 318.707424 336.146514 
L 317.722793 335.888352 
L 316.739438 335.914856 
L 315.754807 336.402497 
L 314.771451 335.627513 
L 313.786821 335.552225 
L 312.803465 335.856837 
L 311.818834 336.949412 
L 310.835479 338.358082 
L 309.850848 337.535475 
L 308.867493 337.410158 
L 307.882862 338.279172 
L 306.899506 333.694165 
L 305.914875 333.968256 
L 304.93152 334.949983 
L 303.946889 334.221493 
L 302.963534 334.319404 
L 301.978903 334.726436 
L 300.995547 334.738758 
L 300.010917 334.987237 
L 299.027561 335.099839 
L 298.04293 334.658488 
L 297.059575 334.558809 
L 296.074944 334.280733 
L 295.091589 333.545001 
L 294.106958 332.357415 
L 293.123602 331.554518 
L 292.138971 331.680566 
L 291.155616 330.864971 
L 290.170985 326.010278 
L 289.18763 319.709367 
L 288.326715 310.229229 
L 287.465801 297.703362 
L 285.743973 262.809792 
L 284.883058 253.752446 
L 284.022144 247.674535 
L 283.16123 266.535579 
L 282.29904 243.273206 
L 281.438126 214.446029 
L 280.577211 239.826619 
L 279.716297 284.859745 
L 278.855383 318.318467 
L 277.994469 335.035417 
L 277.011113 337.124121 
L 274.058496 336.289921 
L 272.09051 335.942855 
L 271.107154 335.634569 
L 270.122523 335.2063 
L 267.171182 335.110731 
L 264.218565 334.349711 
L 263.235209 334.232312 
L 262.250578 333.921134 
L 257.33125 332.913365 
L 251.427291 331.615293 
L 250.442661 331.448569 
L 244.538702 331.372764 
L 243.555346 331.536477 
L 242.570715 331.878076 
L 241.58736 331.755766 
L 239.619374 331.0268 
L 237.651387 330.362877 
L 235.683401 329.280867 
L 233.715415 327.809767 
L 232.730784 327.069095 
L 231.747429 326.627945 
L 227.811456 323.861101 
L 226.826825 322.916044 
L 225.84347 321.704528 
L 223.875483 318.726798 
L 222.029938 315.110271 
L 221.169024 312.795926 
L 220.30811 307.713267 
L 219.447195 296.016786 
L 218.586281 280.998503 
L 217.725367 274.573079 
L 216.864453 276.995685 
L 216.003538 280.751452 
L 215.142624 287.595546 
L 214.28171 291.999099 
L 213.41952 289.886651 
L 212.558606 282.824531 
L 210.836777 266.008267 
L 209.114949 245.232409 
L 208.254034 242.709852 
L 207.39312 252.328137 
L 205.671291 278.376907 
L 204.810377 286.680652 
L 202.227634 306.935159 
L 201.36672 310.616001 
L 200.505806 312.874709 
L 199.643616 313.379085 
L 198.782702 313.305275 
L 197.921787 312.884242 
L 197.060873 311.621451 
L 196.199959 309.953463 
L 195.339045 307.996935 
L 194.47813 305.393654 
L 192.756302 298.666117 
L 191.895387 296.668511 
L 191.034473 295.860703 
L 190.173559 295.703947 
L 189.312645 296.170371 
L 188.45173 297.169216 
L 187.590816 298.34583 
L 185.867712 301.486241 
L 185.006798 302.482001 
L 184.145883 302.371225 
L 183.284969 302.034576 
L 182.424055 301.180465 
L 180.702226 298.3434 
L 178.980398 293.466636 
L 176.397655 284.681275 
L 174.675826 279.703229 
L 172.953998 275.548111 
L 172.091808 273.276733 
L 171.230894 270.43586 
L 170.369979 267.037696 
L 169.509065 262.651674 
L 168.648151 257.443191 
L 166.926322 244.822379 
L 164.343579 223.966599 
L 163.482665 215.932045 
L 162.621751 208.945524 
L 161.760837 206.969589 
L 160.899922 213.863796 
L 158.315904 254.819593 
L 157.45499 263.445125 
L 156.594075 270.254629 
L 155.733161 275.277071 
L 154.872247 279.379285 
L 153.150418 285.037069 
L 152.289504 287.098082 
L 151.42859 288.792659 
L 149.706761 291.415142 
L 148.845847 292.475863 
L 146.263104 294.744786 
L 144.54 296.980924 
L 143.679086 297.889976 
L 140.235429 302.583273 
L 139.374514 303.487064 
L 138.5136 304.177023 
L 137.652686 305.566704 
L 136.791771 306.69056 
L 135.930857 307.574488 
L 134.209029 310.698272 
L 133.348114 311.579685 
L 132.4872 313.129456 
L 131.626286 314.991966 
L 130.764096 316.226347 
L 129.903182 317.774425 
L 129.042267 319.748457 
L 128.058912 320.518455 
L 127.074281 323.047833 
L 126.090926 324.577124 
L 125.106295 324.431967 
L 124.122939 324.678045 
L 123.138309 326.343085 
L 122.154953 328.509694 
L 121.170322 329.192241 
L 120.186967 328.561616 
L 119.202336 331.4164 
L 118.218981 334.898584 
L 117.23435 335.00349 
L 116.250994 337.863823 
L 115.266363 338.999328 
L 114.283008 338.058957 
L 113.298377 338.739171 
L 112.315022 338.027155 
L 111.330391 337.149442 
L 110.347035 336.835509 
L 109.362405 337.079939 
L 108.379049 338.212765 
L 107.394418 333.6182 
L 106.411063 334.043177 
L 105.426432 337.87306 
L 104.443077 338.887619 
L 103.458446 341.237554 
L 101.490459 342.162204 
L 100.507104 342.224935 
L 99.522473 342.472237 
L 98.539118 341.989657 
L 97.554487 341.298221 
L 96.571131 342.227373 
L 95.586501 341.05196 
L 94.603145 341.65597 
L 93.618514 341.180132 
L 92.635159 341.172625 
L 91.650528 341.548211 
L 90.667173 341.636683 
L 89.682542 341.356664 
L 88.699186 341.536997 
L 87.714555 341.945143 
L 86.7312 341.786687 
L 85.746569 342.019368 
L 84.763214 341.316854 
L 83.778583 342.595377 
L 82.795227 342.124728 
L 80.827241 342.145176 
L 79.84261 342.402973 
L 78.859255 342.420862 
L 77.874624 342.573536 
L 75.906638 342.430509 
L 74.923282 342.650564 
L 72.955296 342.642176 
L 72.955296 342.642176 
" style="fill:none;stroke:#55a868;stroke-linecap:round;stroke-width:1.75;"/>
   </g>
   <g id="patch_3">
    <path d="M 72 39.6 
L 518.4 39.6 
" style="fill:none;"/>
   </g>
   <g id="patch_4">
    <path d="M 518.4 346.5 
L 518.4 39.6 
" style="fill:none;"/>
   </g>
   <g id="patch_5">
    <path d="M 72 346.5 
L 518.4 346.5 
" style="fill:none;"/>
   </g>
   <g id="patch_6">
    <path d="M 72 346.5 
L 72 39.6 
" style="fill:none;"/>
   </g>
   <g id="text_17">
    <!-- Dunlop Felt -->
    <defs>
     <path d="M 25.78125 7.859375 
L 27.046875 0.09375 
Q 23.34375 -0.6875 20.40625 -0.6875 
Q 15.625 -0.6875 12.984375 0.828125 
Q 10.359375 2.34375 9.28125 4.8125 
Q 8.203125 7.28125 8.203125 15.1875 
L 8.203125 45.015625 
L 1.765625 45.015625 
L 1.765625 51.859375 
L 8.203125 51.859375 
L 8.203125 64.703125 
L 16.9375 69.96875 
L 16.9375 51.859375 
L 25.78125 51.859375 
L 25.78125 45.015625 
L 16.9375 45.015625 
L 16.9375 14.703125 
Q 16.9375 10.9375 17.40625 9.859375 
Q 17.875 8.796875 18.921875 8.15625 
Q 19.96875 7.515625 21.921875 7.515625 
Q 23.390625 7.515625 25.78125 7.859375 
" id="ArialMT-74"/>
     <path d="M 40.578125 0 
L 40.578125 7.625 
Q 34.515625 -1.171875 24.125 -1.171875 
Q 19.53125 -1.171875 15.546875 0.578125 
Q 11.578125 2.34375 9.640625 5 
Q 7.71875 7.671875 6.9375 11.53125 
Q 6.390625 14.109375 6.390625 19.734375 
L 6.390625 51.859375 
L 15.1875 51.859375 
L 15.1875 23.09375 
Q 15.1875 16.21875 15.71875 13.8125 
Q 16.546875 10.359375 19.234375 8.375 
Q 21.921875 6.390625 25.875 6.390625 
Q 29.828125 6.390625 33.296875 8.421875 
Q 36.765625 10.453125 38.203125 13.9375 
Q 39.65625 17.4375 39.65625 24.078125 
L 39.65625 51.859375 
L 48.4375 51.859375 
L 48.4375 0 
z
" id="ArialMT-75"/>
     <path d="M 6.59375 -19.875 
L 6.59375 51.859375 
L 14.59375 51.859375 
L 14.59375 45.125 
Q 17.4375 49.078125 21 51.046875 
Q 24.5625 53.03125 29.640625 53.03125 
Q 36.28125 53.03125 41.359375 49.609375 
Q 46.4375 46.1875 49.015625 39.953125 
Q 51.609375 33.734375 51.609375 26.3125 
Q 51.609375 18.359375 48.75 11.984375 
Q 45.90625 5.609375 40.453125 2.21875 
Q 35.015625 -1.171875 29 -1.171875 
Q 24.609375 -1.171875 21.109375 0.6875 
Q 17.625 2.546875 15.375 5.375 
L 15.375 -19.875 
z
M 14.546875 25.640625 
Q 14.546875 15.625 18.59375 10.84375 
Q 22.65625 6.0625 28.421875 6.0625 
Q 34.28125 6.0625 38.453125 11.015625 
Q 42.625 15.96875 42.625 26.375 
Q 42.625 36.28125 38.546875 41.203125 
Q 34.46875 46.140625 28.8125 46.140625 
Q 23.1875 46.140625 18.859375 40.890625 
Q 14.546875 35.640625 14.546875 25.640625 
" id="ArialMT-70"/>
     <path d="M 7.71875 0 
L 7.71875 71.578125 
L 32.375 71.578125 
Q 40.71875 71.578125 45.125 70.5625 
Q 51.265625 69.140625 55.609375 65.4375 
Q 61.28125 60.640625 64.078125 53.1875 
Q 66.890625 45.75 66.890625 36.1875 
Q 66.890625 28.03125 64.984375 21.734375 
Q 63.09375 15.4375 60.109375 11.296875 
Q 57.125 7.171875 53.578125 4.796875 
Q 50.046875 2.4375 45.046875 1.21875 
Q 40.046875 0 33.546875 0 
z
M 17.1875 8.453125 
L 32.46875 8.453125 
Q 39.546875 8.453125 43.578125 9.765625 
Q 47.609375 11.078125 50 13.484375 
Q 53.375 16.84375 55.25 22.53125 
Q 57.125 28.21875 57.125 36.328125 
Q 57.125 47.5625 53.4375 53.59375 
Q 49.75 59.625 44.484375 61.671875 
Q 40.671875 63.140625 32.234375 63.140625 
L 17.1875 63.140625 
z
" id="ArialMT-44"/>
     <path d="M 8.203125 0 
L 8.203125 71.578125 
L 56.5 71.578125 
L 56.5 63.140625 
L 17.671875 63.140625 
L 17.671875 40.96875 
L 51.265625 40.96875 
L 51.265625 32.515625 
L 17.671875 32.515625 
L 17.671875 0 
z
" id="ArialMT-46"/>
     <path d="M 6.390625 0 
L 6.390625 71.578125 
L 15.1875 71.578125 
L 15.1875 0 
z
" id="ArialMT-6c"/>
     <path id="ArialMT-20"/>
    </defs>
    <g style="fill:#262626;" transform="translate(264.519375 34.6)scale(0.12 -0.12)">
     <use xlink:href="#ArialMT-44"/>
     <use x="72.216796875" xlink:href="#ArialMT-75"/>
     <use x="127.83203125" xlink:href="#ArialMT-6e"/>
     <use x="183.447265625" xlink:href="#ArialMT-6c"/>
     <use x="205.6640625" xlink:href="#ArialMT-6f"/>
     <use x="261.279296875" xlink:href="#ArialMT-70"/>
     <use x="316.89453125" xlink:href="#ArialMT-20"/>
     <use x="344.677734375" xlink:href="#ArialMT-46"/>
     <use x="405.76171875" xlink:href="#ArialMT-65"/>
     <use x="461.376953125" xlink:href="#ArialMT-6c"/>
     <use x="483.59375" xlink:href="#ArialMT-74"/>
    </g>
   </g>
   <g id="legend_1">
    <g id="line2d_45">
     <path d="M 398.026562 52.379687 
L 418.026562 52.379687 
" style="fill:none;stroke:#4c72b0;stroke-linecap:round;stroke-width:1.75;"/>
    </g>
    <g id="line2d_46"/>
    <g id="text_18">
     <!-- Dunlop_AllSurface -->
     <defs>
      <path d="M -0.140625 0 
L 27.34375 71.578125 
L 37.546875 71.578125 
L 66.84375 0 
L 56.0625 0 
L 47.703125 21.6875 
L 17.78125 21.6875 
L 9.90625 0 
z
M 20.515625 29.390625 
L 44.78125 29.390625 
L 37.3125 49.21875 
Q 33.890625 58.25 32.234375 64.0625 
Q 30.859375 57.171875 28.375 50.390625 
z
" id="ArialMT-41"/>
      <path d="M 4.5 23 
L 13.421875 23.78125 
Q 14.0625 18.40625 16.375 14.96875 
Q 18.703125 11.53125 23.578125 9.40625 
Q 28.46875 7.28125 34.578125 7.28125 
Q 39.984375 7.28125 44.140625 8.890625 
Q 48.296875 10.5 50.3125 13.296875 
Q 52.34375 16.109375 52.34375 19.4375 
Q 52.34375 22.796875 50.390625 25.3125 
Q 48.4375 27.828125 43.953125 29.546875 
Q 41.0625 30.671875 31.203125 33.03125 
Q 21.34375 35.40625 17.390625 37.5 
Q 12.25 40.1875 9.734375 44.15625 
Q 7.234375 48.140625 7.234375 53.078125 
Q 7.234375 58.5 10.296875 63.203125 
Q 13.375 67.921875 19.28125 70.359375 
Q 25.203125 72.796875 32.421875 72.796875 
Q 40.375 72.796875 46.453125 70.234375 
Q 52.546875 67.671875 55.8125 62.6875 
Q 59.078125 57.71875 59.328125 51.421875 
L 50.25 50.734375 
Q 49.515625 57.515625 45.28125 60.984375 
Q 41.0625 64.453125 32.8125 64.453125 
Q 24.21875 64.453125 20.28125 61.296875 
Q 16.359375 58.15625 16.359375 53.71875 
Q 16.359375 49.859375 19.140625 47.359375 
Q 21.875 44.875 33.421875 42.265625 
Q 44.96875 39.65625 49.265625 37.703125 
Q 55.515625 34.8125 58.484375 30.390625 
Q 61.46875 25.984375 61.46875 20.21875 
Q 61.46875 14.5 58.203125 9.4375 
Q 54.9375 4.390625 48.796875 1.578125 
Q 42.671875 -1.21875 35.015625 -1.21875 
Q 25.296875 -1.21875 18.71875 1.609375 
Q 12.15625 4.4375 8.421875 10.125 
Q 4.6875 15.828125 4.5 23 
" id="ArialMT-53"/>
      <path d="M -1.515625 -19.875 
L -1.515625 -13.53125 
L 56.734375 -13.53125 
L 56.734375 -19.875 
z
" id="ArialMT-5f"/>
      <path d="M 8.6875 0 
L 8.6875 45.015625 
L 0.921875 45.015625 
L 0.921875 51.859375 
L 8.6875 51.859375 
L 8.6875 57.375 
Q 8.6875 62.59375 9.625 65.140625 
Q 10.890625 68.5625 14.078125 70.671875 
Q 17.28125 72.796875 23.046875 72.796875 
Q 26.765625 72.796875 31.25 71.921875 
L 29.9375 64.265625 
Q 27.203125 64.75 24.75 64.75 
Q 20.75 64.75 19.09375 63.03125 
Q 17.4375 61.328125 17.4375 56.640625 
L 17.4375 51.859375 
L 27.546875 51.859375 
L 27.546875 45.015625 
L 17.4375 45.015625 
L 17.4375 0 
z
" id="ArialMT-66"/>
     </defs>
     <g style="fill:#262626;" transform="translate(426.0265625 55.8796875)scale(0.1 -0.1)">
      <use xlink:href="#ArialMT-44"/>
      <use x="72.216796875" xlink:href="#ArialMT-75"/>
      <use x="127.83203125" xlink:href="#ArialMT-6e"/>
      <use x="183.447265625" xlink:href="#ArialMT-6c"/>
      <use x="205.6640625" xlink:href="#ArialMT-6f"/>
      <use x="261.279296875" xlink:href="#ArialMT-70"/>
      <use x="316.89453125" xlink:href="#ArialMT-5f"/>
      <use x="372.509765625" xlink:href="#ArialMT-41"/>
      <use x="439.208984375" xlink:href="#ArialMT-6c"/>
      <use x="461.42578125" xlink:href="#ArialMT-6c"/>
      <use x="483.642578125" xlink:href="#ArialMT-53"/>
      <use x="550.341796875" xlink:href="#ArialMT-75"/>
      <use x="605.95703125" xlink:href="#ArialMT-72"/>
      <use x="639.2578125" xlink:href="#ArialMT-66"/>
      <use x="667.041015625" xlink:href="#ArialMT-61"/>
      <use x="722.65625" xlink:href="#ArialMT-63"/>
      <use x="772.65625" xlink:href="#ArialMT-65"/>
     </g>
    </g>
    <g id="line2d_47">
     <path d="M 398.026562 66.646875 
L 418.026562 66.646875 
" style="fill:none;stroke:#55a868;stroke-linecap:round;stroke-width:1.75;"/>
    </g>
    <g id="line2d_48"/>
    <g id="text_19">
     <!-- Dunlop_HardCourt -->
     <defs>
      <path d="M 8.015625 0 
L 8.015625 71.578125 
L 17.484375 71.578125 
L 17.484375 42.1875 
L 54.6875 42.1875 
L 54.6875 71.578125 
L 64.15625 71.578125 
L 64.15625 0 
L 54.6875 0 
L 54.6875 33.734375 
L 17.484375 33.734375 
L 17.484375 0 
z
" id="ArialMT-48"/>
      <path d="M 58.796875 25.09375 
L 68.265625 22.703125 
Q 65.28125 11.03125 57.546875 4.90625 
Q 49.8125 -1.21875 38.625 -1.21875 
Q 27.046875 -1.21875 19.796875 3.484375 
Q 12.546875 8.203125 8.765625 17.140625 
Q 4.984375 26.078125 4.984375 36.328125 
Q 4.984375 47.515625 9.25 55.828125 
Q 13.53125 64.15625 21.40625 68.46875 
Q 29.296875 72.796875 38.765625 72.796875 
Q 49.515625 72.796875 56.828125 67.328125 
Q 64.15625 61.859375 67.046875 51.953125 
L 57.71875 49.75 
Q 55.21875 57.5625 50.484375 61.125 
Q 45.75 64.703125 38.578125 64.703125 
Q 30.328125 64.703125 24.78125 60.734375 
Q 19.234375 56.78125 16.984375 50.109375 
Q 14.75 43.453125 14.75 36.375 
Q 14.75 27.25 17.40625 20.4375 
Q 20.0625 13.625 25.671875 10.25 
Q 31.296875 6.890625 37.84375 6.890625 
Q 45.796875 6.890625 51.3125 11.46875 
Q 56.84375 16.0625 58.796875 25.09375 
" id="ArialMT-43"/>
      <path d="M 40.234375 0 
L 40.234375 6.546875 
Q 35.296875 -1.171875 25.734375 -1.171875 
Q 19.53125 -1.171875 14.328125 2.25 
Q 9.125 5.671875 6.265625 11.796875 
Q 3.421875 17.921875 3.421875 25.875 
Q 3.421875 33.640625 6 39.96875 
Q 8.59375 46.296875 13.765625 49.65625 
Q 18.953125 53.03125 25.34375 53.03125 
Q 30.03125 53.03125 33.6875 51.046875 
Q 37.359375 49.078125 39.65625 45.90625 
L 39.65625 71.578125 
L 48.390625 71.578125 
L 48.390625 0 
z
M 12.453125 25.875 
Q 12.453125 15.921875 16.640625 10.984375 
Q 20.84375 6.0625 26.5625 6.0625 
Q 32.328125 6.0625 36.34375 10.765625 
Q 40.375 15.484375 40.375 25.140625 
Q 40.375 35.796875 36.265625 40.765625 
Q 32.171875 45.75 26.171875 45.75 
Q 20.3125 45.75 16.375 40.96875 
Q 12.453125 36.1875 12.453125 25.875 
" id="ArialMT-64"/>
     </defs>
     <g style="fill:#262626;" transform="translate(426.0265625 70.146875)scale(0.1 -0.1)">
      <use xlink:href="#ArialMT-44"/>
      <use x="72.216796875" xlink:href="#ArialMT-75"/>
      <use x="127.83203125" xlink:href="#ArialMT-6e"/>
      <use x="183.447265625" xlink:href="#ArialMT-6c"/>
      <use x="205.6640625" xlink:href="#ArialMT-6f"/>
      <use x="261.279296875" xlink:href="#ArialMT-70"/>
      <use x="316.89453125" xlink:href="#ArialMT-5f"/>
      <use x="372.509765625" xlink:href="#ArialMT-48"/>
      <use x="444.7265625" xlink:href="#ArialMT-61"/>
      <use x="500.341796875" xlink:href="#ArialMT-72"/>
      <use x="533.642578125" xlink:href="#ArialMT-64"/>
      <use x="589.2578125" xlink:href="#ArialMT-43"/>
      <use x="661.474609375" xlink:href="#ArialMT-6f"/>
      <use x="717.08984375" xlink:href="#ArialMT-75"/>
      <use x="772.705078125" xlink:href="#ArialMT-72"/>
      <use x="806.005859375" xlink:href="#ArialMT-74"/>
     </g>
    </g>
   </g>
  </g>
 </g>
 <defs>
  <clipPath id="p0d491eee40">
   <rect height="306.9" width="446.4" x="72.0" y="39.6"/>
  </clipPath>
 </defs>
</svg>
