<?xml version="1.0" encoding="utf-8" standalone="no"?>
<!DOCTYPE svg PUBLIC "-//W3C//DTD SVG 1.1//EN"
  "http://www.w3.org/Graphics/SVG/1.1/DTD/svg11.dtd">
<!-- Created with matplotlib (http://matplotlib.org/) -->
<svg height="396pt" version="1.1" viewBox="0 0 576 396" width="576pt" xmlns="http://www.w3.org/2000/svg" xmlns:xlink="http://www.w3.org/1999/xlink">
 <defs>
  <style type="text/css">
*{stroke-linecap:butt;stroke-linejoin:round;stroke-miterlimit:100000;}
  </style>
 </defs>
 <g id="figure_1">
  <g id="patch_1">
   <path d="M 0 396 
L 576 396 
L 576 0 
L 0 0 
z
" style="fill:#ffffff;"/>
  </g>
  <g id="axes_1">
   <g id="patch_2">
    <path d="M 72 346.5 
L 518.4 346.5 
L 518.4 39.6 
L 72 39.6 
z
" style="fill:#eaeaf2;"/>
   </g>
   <g id="matplotlib.axis_1">
    <g id="xtick_1">
     <g id="line2d_1">
      <path clip-path="url(#p7669609133)" d="M 518.4 346.5 
L 518.4 39.6 
" style="fill:none;stroke:#ffffff;stroke-linecap:round;"/>
     </g>
     <g id="line2d_2"/>
     <g id="line2d_3"/>
     <g id="text_1">
      <!-- 500 -->
      <defs>
       <path d="M 4.15625 35.296875 
Q 4.15625 48 6.765625 55.734375 
Q 9.375 63.484375 14.515625 67.671875 
Q 19.671875 71.875 27.484375 71.875 
Q 33.25 71.875 37.59375 69.546875 
Q 41.9375 67.234375 44.765625 62.859375 
Q 47.609375 58.5 49.21875 52.21875 
Q 50.828125 45.953125 50.828125 35.296875 
Q 50.828125 22.703125 48.234375 14.96875 
Q 45.65625 7.234375 40.5 3 
Q 35.359375 -1.21875 27.484375 -1.21875 
Q 17.140625 -1.21875 11.234375 6.203125 
Q 4.15625 15.140625 4.15625 35.296875 
M 13.1875 35.296875 
Q 13.1875 17.671875 17.3125 11.828125 
Q 21.4375 6 27.484375 6 
Q 33.546875 6 37.671875 11.859375 
Q 41.796875 17.71875 41.796875 35.296875 
Q 41.796875 52.984375 37.671875 58.78125 
Q 33.546875 64.59375 27.390625 64.59375 
Q 21.34375 64.59375 17.71875 59.46875 
Q 13.1875 52.9375 13.1875 35.296875 
" id="ArialMT-30"/>
       <path d="M 4.15625 18.75 
L 13.375 19.53125 
Q 14.40625 12.796875 18.140625 9.390625 
Q 21.875 6 27.15625 6 
Q 33.5 6 37.890625 10.78125 
Q 42.28125 15.578125 42.28125 23.484375 
Q 42.28125 31 38.0625 35.34375 
Q 33.84375 39.703125 27 39.703125 
Q 22.75 39.703125 19.328125 37.765625 
Q 15.921875 35.84375 13.96875 32.765625 
L 5.71875 33.84375 
L 12.640625 70.609375 
L 48.25 70.609375 
L 48.25 62.203125 
L 19.671875 62.203125 
L 15.828125 42.96875 
Q 22.265625 47.46875 29.34375 47.46875 
Q 38.71875 47.46875 45.15625 40.96875 
Q 51.609375 34.46875 51.609375 24.265625 
Q 51.609375 14.546875 45.953125 7.46875 
Q 39.0625 -1.21875 27.15625 -1.21875 
Q 17.390625 -1.21875 11.203125 4.25 
Q 5.03125 9.71875 4.15625 18.75 
" id="ArialMT-35"/>
      </defs>
      <g style="fill:#262626;" transform="translate(510.05859375 360.6578125)scale(0.1 -0.1)">
       <use xlink:href="#ArialMT-35"/>
       <use x="55.615234375" xlink:href="#ArialMT-30"/>
       <use x="111.23046875" xlink:href="#ArialMT-30"/>
      </g>
     </g>
    </g>
    <g id="xtick_2">
     <g id="line2d_4">
      <path clip-path="url(#p7669609133)" d="M 454.628571 346.5 
L 454.628571 39.6 
" style="fill:none;stroke:#ffffff;stroke-linecap:round;"/>
     </g>
     <g id="line2d_5"/>
     <g id="line2d_6"/>
     <g id="text_2">
      <!-- 1000 -->
      <defs>
       <path d="M 37.25 0 
L 28.46875 0 
L 28.46875 56 
Q 25.296875 52.984375 20.140625 49.953125 
Q 14.984375 46.921875 10.890625 45.40625 
L 10.890625 53.90625 
Q 18.265625 57.375 23.78125 62.296875 
Q 29.296875 67.234375 31.59375 71.875 
L 37.25 71.875 
z
" id="ArialMT-31"/>
      </defs>
      <g style="fill:#262626;" transform="translate(443.506696429 360.6578125)scale(0.1 -0.1)">
       <use xlink:href="#ArialMT-31"/>
       <use x="55.615234375" xlink:href="#ArialMT-30"/>
       <use x="111.23046875" xlink:href="#ArialMT-30"/>
       <use x="166.845703125" xlink:href="#ArialMT-30"/>
      </g>
     </g>
    </g>
    <g id="xtick_3">
     <g id="line2d_7">
      <path clip-path="url(#p7669609133)" d="M 390.857143 346.5 
L 390.857143 39.6 
" style="fill:none;stroke:#ffffff;stroke-linecap:round;"/>
     </g>
     <g id="line2d_8"/>
     <g id="line2d_9"/>
     <g id="text_3">
      <!-- 1500 -->
      <g style="fill:#262626;" transform="translate(379.735267857 360.6578125)scale(0.1 -0.1)">
       <use xlink:href="#ArialMT-31"/>
       <use x="55.615234375" xlink:href="#ArialMT-35"/>
       <use x="111.23046875" xlink:href="#ArialMT-30"/>
       <use x="166.845703125" xlink:href="#ArialMT-30"/>
      </g>
     </g>
    </g>
    <g id="xtick_4">
     <g id="line2d_10">
      <path clip-path="url(#p7669609133)" d="M 327.085714 346.5 
L 327.085714 39.6 
" style="fill:none;stroke:#ffffff;stroke-linecap:round;"/>
     </g>
     <g id="line2d_11"/>
     <g id="line2d_12"/>
     <g id="text_4">
      <!-- 2000 -->
      <defs>
       <path d="M 50.34375 8.453125 
L 50.34375 0 
L 3.03125 0 
Q 2.9375 3.171875 4.046875 6.109375 
Q 5.859375 10.9375 9.828125 15.625 
Q 13.8125 20.3125 21.34375 26.46875 
Q 33.015625 36.03125 37.109375 41.625 
Q 41.21875 47.21875 41.21875 52.203125 
Q 41.21875 57.421875 37.46875 61 
Q 33.734375 64.59375 27.734375 64.59375 
Q 21.390625 64.59375 17.578125 60.78125 
Q 13.765625 56.984375 13.71875 50.25 
L 4.6875 51.171875 
Q 5.609375 61.28125 11.65625 66.578125 
Q 17.71875 71.875 27.9375 71.875 
Q 38.234375 71.875 44.234375 66.15625 
Q 50.25 60.453125 50.25 52 
Q 50.25 47.703125 48.484375 43.546875 
Q 46.734375 39.40625 42.65625 34.8125 
Q 38.578125 30.21875 29.109375 22.21875 
Q 21.1875 15.578125 18.9375 13.203125 
Q 16.703125 10.84375 15.234375 8.453125 
z
" id="ArialMT-32"/>
      </defs>
      <g style="fill:#262626;" transform="translate(315.963839286 360.6578125)scale(0.1 -0.1)">
       <use xlink:href="#ArialMT-32"/>
       <use x="55.615234375" xlink:href="#ArialMT-30"/>
       <use x="111.23046875" xlink:href="#ArialMT-30"/>
       <use x="166.845703125" xlink:href="#ArialMT-30"/>
      </g>
     </g>
    </g>
    <g id="xtick_5">
     <g id="line2d_13">
      <path clip-path="url(#p7669609133)" d="M 263.314286 346.5 
L 263.314286 39.6 
" style="fill:none;stroke:#ffffff;stroke-linecap:round;"/>
     </g>
     <g id="line2d_14"/>
     <g id="line2d_15"/>
     <g id="text_5">
      <!-- 2500 -->
      <g style="fill:#262626;" transform="translate(252.192410714 360.6578125)scale(0.1 -0.1)">
       <use xlink:href="#ArialMT-32"/>
       <use x="55.615234375" xlink:href="#ArialMT-35"/>
       <use x="111.23046875" xlink:href="#ArialMT-30"/>
       <use x="166.845703125" xlink:href="#ArialMT-30"/>
      </g>
     </g>
    </g>
    <g id="xtick_6">
     <g id="line2d_16">
      <path clip-path="url(#p7669609133)" d="M 199.542857 346.5 
L 199.542857 39.6 
" style="fill:none;stroke:#ffffff;stroke-linecap:round;"/>
     </g>
     <g id="line2d_17"/>
     <g id="line2d_18"/>
     <g id="text_6">
      <!-- 3000 -->
      <defs>
       <path d="M 4.203125 18.890625 
L 12.984375 20.0625 
Q 14.5 12.59375 18.140625 9.296875 
Q 21.78125 6 27 6 
Q 33.203125 6 37.46875 10.296875 
Q 41.75 14.59375 41.75 20.953125 
Q 41.75 27 37.796875 30.921875 
Q 33.84375 34.859375 27.734375 34.859375 
Q 25.25 34.859375 21.53125 33.890625 
L 22.515625 41.609375 
Q 23.390625 41.5 23.921875 41.5 
Q 29.546875 41.5 34.03125 44.421875 
Q 38.53125 47.359375 38.53125 53.46875 
Q 38.53125 58.296875 35.25 61.46875 
Q 31.984375 64.65625 26.8125 64.65625 
Q 21.6875 64.65625 18.265625 61.421875 
Q 14.84375 58.203125 13.875 51.765625 
L 5.078125 53.328125 
Q 6.6875 62.15625 12.390625 67.015625 
Q 18.109375 71.875 26.609375 71.875 
Q 32.46875 71.875 37.390625 69.359375 
Q 42.328125 66.84375 44.9375 62.5 
Q 47.5625 58.15625 47.5625 53.265625 
Q 47.5625 48.640625 45.0625 44.828125 
Q 42.578125 41.015625 37.703125 38.765625 
Q 44.046875 37.3125 47.5625 32.6875 
Q 51.078125 28.078125 51.078125 21.140625 
Q 51.078125 11.765625 44.234375 5.25 
Q 37.40625 -1.265625 26.953125 -1.265625 
Q 17.53125 -1.265625 11.296875 4.34375 
Q 5.078125 9.96875 4.203125 18.890625 
" id="ArialMT-33"/>
      </defs>
      <g style="fill:#262626;" transform="translate(188.420982143 360.6578125)scale(0.1 -0.1)">
       <use xlink:href="#ArialMT-33"/>
       <use x="55.615234375" xlink:href="#ArialMT-30"/>
       <use x="111.23046875" xlink:href="#ArialMT-30"/>
       <use x="166.845703125" xlink:href="#ArialMT-30"/>
      </g>
     </g>
    </g>
    <g id="xtick_7">
     <g id="line2d_19">
      <path clip-path="url(#p7669609133)" d="M 135.771429 346.5 
L 135.771429 39.6 
" style="fill:none;stroke:#ffffff;stroke-linecap:round;"/>
     </g>
     <g id="line2d_20"/>
     <g id="line2d_21"/>
     <g id="text_7">
      <!-- 3500 -->
      <g style="fill:#262626;" transform="translate(124.649553571 360.6578125)scale(0.1 -0.1)">
       <use xlink:href="#ArialMT-33"/>
       <use x="55.615234375" xlink:href="#ArialMT-35"/>
       <use x="111.23046875" xlink:href="#ArialMT-30"/>
       <use x="166.845703125" xlink:href="#ArialMT-30"/>
      </g>
     </g>
    </g>
    <g id="xtick_8">
     <g id="line2d_22">
      <path clip-path="url(#p7669609133)" d="M 72 346.5 
L 72 39.6 
" style="fill:none;stroke:#ffffff;stroke-linecap:round;"/>
     </g>
     <g id="line2d_23"/>
     <g id="line2d_24"/>
     <g id="text_8">
      <!-- 4000 -->
      <defs>
       <path d="M 32.328125 0 
L 32.328125 17.140625 
L 1.265625 17.140625 
L 1.265625 25.203125 
L 33.9375 71.578125 
L 41.109375 71.578125 
L 41.109375 25.203125 
L 50.78125 25.203125 
L 50.78125 17.140625 
L 41.109375 17.140625 
L 41.109375 0 
z
M 32.328125 25.203125 
L 32.328125 57.46875 
L 9.90625 25.203125 
z
" id="ArialMT-34"/>
      </defs>
      <g style="fill:#262626;" transform="translate(60.878125 360.6578125)scale(0.1 -0.1)">
       <use xlink:href="#ArialMT-34"/>
       <use x="55.615234375" xlink:href="#ArialMT-30"/>
       <use x="111.23046875" xlink:href="#ArialMT-30"/>
       <use x="166.845703125" xlink:href="#ArialMT-30"/>
      </g>
     </g>
    </g>
    <g id="text_9">
     <!-- cm^-1 -->
     <defs>
      <path d="M 40.4375 19 
L 49.078125 17.875 
Q 47.65625 8.9375 41.8125 3.875 
Q 35.984375 -1.171875 27.484375 -1.171875 
Q 16.84375 -1.171875 10.375 5.78125 
Q 3.90625 12.75 3.90625 25.734375 
Q 3.90625 34.125 6.6875 40.421875 
Q 9.46875 46.734375 15.15625 49.875 
Q 20.84375 53.03125 27.546875 53.03125 
Q 35.984375 53.03125 41.359375 48.75 
Q 46.734375 44.484375 48.25 36.625 
L 39.703125 35.296875 
Q 38.484375 40.53125 35.375 43.15625 
Q 32.28125 45.796875 27.875 45.796875 
Q 21.234375 45.796875 17.078125 41.03125 
Q 12.9375 36.28125 12.9375 25.984375 
Q 12.9375 15.53125 16.9375 10.796875 
Q 20.953125 6.0625 27.390625 6.0625 
Q 32.5625 6.0625 36.03125 9.234375 
Q 39.5 12.40625 40.4375 19 
" id="ArialMT-63"/>
      <path d="M 11.671875 33.6875 
L 2.640625 33.6875 
L 19.875 72.796875 
L 26.953125 72.796875 
L 44.28125 33.6875 
L 35.453125 33.6875 
L 23.390625 62.84375 
z
" id="ArialMT-5e"/>
      <path d="M 3.171875 21.484375 
L 3.171875 30.328125 
L 30.171875 30.328125 
L 30.171875 21.484375 
z
" id="ArialMT-2d"/>
      <path d="M 6.59375 0 
L 6.59375 51.859375 
L 14.453125 51.859375 
L 14.453125 44.578125 
Q 16.890625 48.390625 20.9375 50.703125 
Q 25 53.03125 30.171875 53.03125 
Q 35.9375 53.03125 39.625 50.640625 
Q 43.3125 48.25 44.828125 43.953125 
Q 50.984375 53.03125 60.84375 53.03125 
Q 68.5625 53.03125 72.703125 48.75 
Q 76.859375 44.484375 76.859375 35.59375 
L 76.859375 0 
L 68.109375 0 
L 68.109375 32.671875 
Q 68.109375 37.9375 67.25 40.25 
Q 66.40625 42.578125 64.15625 43.984375 
Q 61.921875 45.40625 58.890625 45.40625 
Q 53.421875 45.40625 49.796875 41.765625 
Q 46.1875 38.140625 46.1875 30.125 
L 46.1875 0 
L 37.40625 0 
L 37.40625 33.6875 
Q 37.40625 39.546875 35.25 42.46875 
Q 33.109375 45.40625 28.21875 45.40625 
Q 24.515625 45.40625 21.359375 43.453125 
Q 18.21875 41.5 16.796875 37.734375 
Q 15.375 33.984375 15.375 26.90625 
L 15.375 0 
z
" id="ArialMT-6d"/>
     </defs>
     <g style="fill:#262626;" transform="translate(280.398125 375.51890625)scale(0.11 -0.11)">
      <use xlink:href="#ArialMT-63"/>
      <use x="50.0" xlink:href="#ArialMT-6d"/>
      <use x="133.30078125" xlink:href="#ArialMT-5e"/>
      <use x="180.224609375" xlink:href="#ArialMT-2d"/>
      <use x="213.525390625" xlink:href="#ArialMT-31"/>
     </g>
    </g>
   </g>
   <g id="matplotlib.axis_2">
    <g id="ytick_1">
     <g id="line2d_25">
      <path clip-path="url(#p7669609133)" d="M 72 346.5 
L 518.4 346.5 
" style="fill:none;stroke:#ffffff;stroke-linecap:round;"/>
     </g>
     <g id="line2d_26"/>
     <g id="line2d_27"/>
     <g id="text_10">
      <!-- 0.0 -->
      <defs>
       <path d="M 9.078125 0 
L 9.078125 10.015625 
L 19.09375 10.015625 
L 19.09375 0 
z
" id="ArialMT-2e"/>
      </defs>
      <g style="fill:#262626;" transform="translate(51.1 349.08515625)scale(0.1 -0.1)">
       <use xlink:href="#ArialMT-30"/>
       <use x="55.615234375" xlink:href="#ArialMT-2e"/>
       <use x="83.3984375" xlink:href="#ArialMT-30"/>
      </g>
     </g>
    </g>
    <g id="ytick_2">
     <g id="line2d_28">
      <path clip-path="url(#p7669609133)" d="M 72 285.12 
L 518.4 285.12 
" style="fill:none;stroke:#ffffff;stroke-linecap:round;"/>
     </g>
     <g id="line2d_29"/>
     <g id="line2d_30"/>
     <g id="text_11">
      <!-- 0.2 -->
      <g style="fill:#262626;" transform="translate(51.1 287.70515625)scale(0.1 -0.1)">
       <use xlink:href="#ArialMT-30"/>
       <use x="55.615234375" xlink:href="#ArialMT-2e"/>
       <use x="83.3984375" xlink:href="#ArialMT-32"/>
      </g>
     </g>
    </g>
    <g id="ytick_3">
     <g id="line2d_31">
      <path clip-path="url(#p7669609133)" d="M 72 223.74 
L 518.4 223.74 
" style="fill:none;stroke:#ffffff;stroke-linecap:round;"/>
     </g>
     <g id="line2d_32"/>
     <g id="line2d_33"/>
     <g id="text_12">
      <!-- 0.4 -->
      <g style="fill:#262626;" transform="translate(51.1 226.32515625)scale(0.1 -0.1)">
       <use xlink:href="#ArialMT-30"/>
       <use x="55.615234375" xlink:href="#ArialMT-2e"/>
       <use x="83.3984375" xlink:href="#ArialMT-34"/>
      </g>
     </g>
    </g>
    <g id="ytick_4">
     <g id="line2d_34">
      <path clip-path="url(#p7669609133)" d="M 72 162.36 
L 518.4 162.36 
" style="fill:none;stroke:#ffffff;stroke-linecap:round;"/>
     </g>
     <g id="line2d_35"/>
     <g id="line2d_36"/>
     <g id="text_13">
      <!-- 0.6 -->
      <defs>
       <path d="M 49.75 54.046875 
L 41.015625 53.375 
Q 39.84375 58.546875 37.703125 60.890625 
Q 34.125 64.65625 28.90625 64.65625 
Q 24.703125 64.65625 21.53125 62.3125 
Q 17.390625 59.28125 14.984375 53.46875 
Q 12.59375 47.65625 12.5 36.921875 
Q 15.671875 41.75 20.265625 44.09375 
Q 24.859375 46.4375 29.890625 46.4375 
Q 38.671875 46.4375 44.84375 39.96875 
Q 51.03125 33.5 51.03125 23.25 
Q 51.03125 16.5 48.125 10.71875 
Q 45.21875 4.9375 40.140625 1.859375 
Q 35.0625 -1.21875 28.609375 -1.21875 
Q 17.625 -1.21875 10.6875 6.859375 
Q 3.765625 14.9375 3.765625 33.5 
Q 3.765625 54.25 11.421875 63.671875 
Q 18.109375 71.875 29.4375 71.875 
Q 37.890625 71.875 43.28125 67.140625 
Q 48.6875 62.40625 49.75 54.046875 
M 13.875 23.1875 
Q 13.875 18.65625 15.796875 14.5 
Q 17.71875 10.359375 21.1875 8.171875 
Q 24.65625 6 28.46875 6 
Q 34.03125 6 38.03125 10.484375 
Q 42.046875 14.984375 42.046875 22.703125 
Q 42.046875 30.125 38.078125 34.390625 
Q 34.125 38.671875 28.125 38.671875 
Q 22.171875 38.671875 18.015625 34.390625 
Q 13.875 30.125 13.875 23.1875 
" id="ArialMT-36"/>
      </defs>
      <g style="fill:#262626;" transform="translate(51.1 164.94515625)scale(0.1 -0.1)">
       <use xlink:href="#ArialMT-30"/>
       <use x="55.615234375" xlink:href="#ArialMT-2e"/>
       <use x="83.3984375" xlink:href="#ArialMT-36"/>
      </g>
     </g>
    </g>
    <g id="ytick_5">
     <g id="line2d_37">
      <path clip-path="url(#p7669609133)" d="M 72 100.98 
L 518.4 100.98 
" style="fill:none;stroke:#ffffff;stroke-linecap:round;"/>
     </g>
     <g id="line2d_38"/>
     <g id="line2d_39"/>
     <g id="text_14">
      <!-- 0.8 -->
      <defs>
       <path d="M 17.671875 38.8125 
Q 12.203125 40.828125 9.5625 44.53125 
Q 6.9375 48.25 6.9375 53.421875 
Q 6.9375 61.234375 12.546875 66.546875 
Q 18.171875 71.875 27.484375 71.875 
Q 36.859375 71.875 42.578125 66.421875 
Q 48.296875 60.984375 48.296875 53.171875 
Q 48.296875 48.1875 45.671875 44.5 
Q 43.0625 40.828125 37.75 38.8125 
Q 44.34375 36.671875 47.78125 31.875 
Q 51.21875 27.09375 51.21875 20.453125 
Q 51.21875 11.28125 44.71875 5.03125 
Q 38.234375 -1.21875 27.640625 -1.21875 
Q 17.046875 -1.21875 10.546875 5.046875 
Q 4.046875 11.328125 4.046875 20.703125 
Q 4.046875 27.6875 7.59375 32.390625 
Q 11.140625 37.109375 17.671875 38.8125 
M 15.921875 53.71875 
Q 15.921875 48.640625 19.1875 45.40625 
Q 22.46875 42.1875 27.6875 42.1875 
Q 32.765625 42.1875 36.015625 45.375 
Q 39.265625 48.578125 39.265625 53.21875 
Q 39.265625 58.0625 35.90625 61.359375 
Q 32.5625 64.65625 27.59375 64.65625 
Q 22.5625 64.65625 19.234375 61.421875 
Q 15.921875 58.203125 15.921875 53.71875 
M 13.09375 20.65625 
Q 13.09375 16.890625 14.875 13.375 
Q 16.65625 9.859375 20.171875 7.921875 
Q 23.6875 6 27.734375 6 
Q 34.03125 6 38.125 10.046875 
Q 42.234375 14.109375 42.234375 20.359375 
Q 42.234375 26.703125 38.015625 30.859375 
Q 33.796875 35.015625 27.4375 35.015625 
Q 21.234375 35.015625 17.15625 30.90625 
Q 13.09375 26.8125 13.09375 20.65625 
" id="ArialMT-38"/>
      </defs>
      <g style="fill:#262626;" transform="translate(51.1 103.56515625)scale(0.1 -0.1)">
       <use xlink:href="#ArialMT-30"/>
       <use x="55.615234375" xlink:href="#ArialMT-2e"/>
       <use x="83.3984375" xlink:href="#ArialMT-38"/>
      </g>
     </g>
    </g>
    <g id="ytick_6">
     <g id="line2d_40">
      <path clip-path="url(#p7669609133)" d="M 72 39.6 
L 518.4 39.6 
" style="fill:none;stroke:#ffffff;stroke-linecap:round;"/>
     </g>
     <g id="line2d_41"/>
     <g id="line2d_42"/>
     <g id="text_15">
      <!-- 1.0 -->
      <g style="fill:#262626;" transform="translate(51.1 42.18515625)scale(0.1 -0.1)">
       <use xlink:href="#ArialMT-31"/>
       <use x="55.615234375" xlink:href="#ArialMT-2e"/>
       <use x="83.3984375" xlink:href="#ArialMT-30"/>
      </g>
     </g>
    </g>
    <g id="text_16">
     <!-- absorbance -->
     <defs>
      <path d="M 14.703125 0 
L 6.546875 0 
L 6.546875 71.578125 
L 15.328125 71.578125 
L 15.328125 46.046875 
Q 20.90625 53.03125 29.546875 53.03125 
Q 34.328125 53.03125 38.59375 51.09375 
Q 42.875 49.171875 45.625 45.671875 
Q 48.390625 42.1875 49.953125 37.25 
Q 51.515625 32.328125 51.515625 26.703125 
Q 51.515625 13.375 44.921875 6.09375 
Q 38.328125 -1.171875 29.109375 -1.171875 
Q 19.921875 -1.171875 14.703125 6.5 
z
M 14.59375 26.3125 
Q 14.59375 17 17.140625 12.84375 
Q 21.296875 6.0625 28.375 6.0625 
Q 34.125 6.0625 38.328125 11.0625 
Q 42.53125 16.0625 42.53125 25.984375 
Q 42.53125 36.140625 38.5 40.96875 
Q 34.46875 45.796875 28.765625 45.796875 
Q 23 45.796875 18.796875 40.796875 
Q 14.59375 35.796875 14.59375 26.3125 
" id="ArialMT-62"/>
      <path d="M 40.4375 6.390625 
Q 35.546875 2.25 31.03125 0.53125 
Q 26.515625 -1.171875 21.34375 -1.171875 
Q 12.796875 -1.171875 8.203125 3 
Q 3.609375 7.171875 3.609375 13.671875 
Q 3.609375 17.484375 5.34375 20.625 
Q 7.078125 23.78125 9.890625 25.6875 
Q 12.703125 27.59375 16.21875 28.5625 
Q 18.796875 29.25 24.03125 29.890625 
Q 34.671875 31.15625 39.703125 32.90625 
Q 39.75 34.71875 39.75 35.203125 
Q 39.75 40.578125 37.25 42.78125 
Q 33.890625 45.75 27.25 45.75 
Q 21.046875 45.75 18.09375 43.578125 
Q 15.140625 41.40625 13.71875 35.890625 
L 5.125 37.0625 
Q 6.296875 42.578125 8.984375 45.96875 
Q 11.671875 49.359375 16.75 51.1875 
Q 21.828125 53.03125 28.515625 53.03125 
Q 35.15625 53.03125 39.296875 51.46875 
Q 43.453125 49.90625 45.40625 47.53125 
Q 47.359375 45.171875 48.140625 41.546875 
Q 48.578125 39.3125 48.578125 33.453125 
L 48.578125 21.734375 
Q 48.578125 9.46875 49.140625 6.21875 
Q 49.703125 2.984375 51.375 0 
L 42.1875 0 
Q 40.828125 2.734375 40.4375 6.390625 
M 39.703125 26.03125 
Q 34.90625 24.078125 25.34375 22.703125 
Q 19.921875 21.921875 17.671875 20.9375 
Q 15.4375 19.96875 14.203125 18.09375 
Q 12.984375 16.21875 12.984375 13.921875 
Q 12.984375 10.40625 15.640625 8.0625 
Q 18.3125 5.71875 23.4375 5.71875 
Q 28.515625 5.71875 32.46875 7.9375 
Q 36.421875 10.15625 38.28125 14.015625 
Q 39.703125 17 39.703125 22.796875 
z
" id="ArialMT-61"/>
      <path d="M 42.09375 16.703125 
L 51.171875 15.578125 
Q 49.03125 7.625 43.21875 3.21875 
Q 37.40625 -1.171875 28.375 -1.171875 
Q 17 -1.171875 10.328125 5.828125 
Q 3.65625 12.84375 3.65625 25.484375 
Q 3.65625 38.578125 10.390625 45.796875 
Q 17.140625 53.03125 27.875 53.03125 
Q 38.28125 53.03125 44.875 45.953125 
Q 51.46875 38.875 51.46875 26.03125 
Q 51.46875 25.25 51.421875 23.6875 
L 12.75 23.6875 
Q 13.234375 15.140625 17.578125 10.59375 
Q 21.921875 6.0625 28.421875 6.0625 
Q 33.25 6.0625 36.671875 8.59375 
Q 40.09375 11.140625 42.09375 16.703125 
M 13.234375 30.90625 
L 42.1875 30.90625 
Q 41.609375 37.453125 38.875 40.71875 
Q 34.671875 45.796875 27.984375 45.796875 
Q 21.921875 45.796875 17.796875 41.75 
Q 13.671875 37.703125 13.234375 30.90625 
" id="ArialMT-65"/>
      <path d="M 6.5 0 
L 6.5 51.859375 
L 14.40625 51.859375 
L 14.40625 44 
Q 17.4375 49.515625 20 51.265625 
Q 22.5625 53.03125 25.640625 53.03125 
Q 30.078125 53.03125 34.671875 50.203125 
L 31.640625 42.046875 
Q 28.421875 43.953125 25.203125 43.953125 
Q 22.3125 43.953125 20.015625 42.21875 
Q 17.71875 40.484375 16.75 37.40625 
Q 15.28125 32.71875 15.28125 27.15625 
L 15.28125 0 
z
" id="ArialMT-72"/>
      <path d="M 3.078125 15.484375 
L 11.765625 16.84375 
Q 12.5 11.625 15.84375 8.84375 
Q 19.1875 6.0625 25.203125 6.0625 
Q 31.25 6.0625 34.171875 8.515625 
Q 37.109375 10.984375 37.109375 14.3125 
Q 37.109375 17.28125 34.515625 19 
Q 32.71875 20.171875 25.53125 21.96875 
Q 15.875 24.421875 12.140625 26.203125 
Q 8.40625 27.984375 6.46875 31.125 
Q 4.546875 34.28125 4.546875 38.09375 
Q 4.546875 41.546875 6.125 44.5 
Q 7.71875 47.46875 10.453125 49.421875 
Q 12.5 50.921875 16.03125 51.96875 
Q 19.578125 53.03125 23.640625 53.03125 
Q 29.734375 53.03125 34.34375 51.265625 
Q 38.96875 49.515625 41.15625 46.5 
Q 43.359375 43.5 44.1875 38.484375 
L 35.59375 37.3125 
Q 35.015625 41.3125 32.203125 43.546875 
Q 29.390625 45.796875 24.265625 45.796875 
Q 18.21875 45.796875 15.625 43.796875 
Q 13.03125 41.796875 13.03125 39.109375 
Q 13.03125 37.40625 14.109375 36.03125 
Q 15.1875 34.625 17.484375 33.6875 
Q 18.796875 33.203125 25.25 31.453125 
Q 34.578125 28.953125 38.25 27.359375 
Q 41.9375 25.78125 44.03125 22.75 
Q 46.140625 19.734375 46.140625 15.234375 
Q 46.140625 10.84375 43.578125 6.953125 
Q 41.015625 3.078125 36.171875 0.953125 
Q 31.34375 -1.171875 25.25 -1.171875 
Q 15.140625 -1.171875 9.84375 3.03125 
Q 4.546875 7.234375 3.078125 15.484375 
" id="ArialMT-73"/>
      <path d="M 3.328125 25.921875 
Q 3.328125 40.328125 11.328125 47.265625 
Q 18.015625 53.03125 27.640625 53.03125 
Q 38.328125 53.03125 45.109375 46.015625 
Q 51.90625 39.015625 51.90625 26.65625 
Q 51.90625 16.65625 48.90625 10.90625 
Q 45.90625 5.171875 40.15625 2 
Q 34.421875 -1.171875 27.640625 -1.171875 
Q 16.75 -1.171875 10.03125 5.8125 
Q 3.328125 12.796875 3.328125 25.921875 
M 12.359375 25.921875 
Q 12.359375 15.96875 16.703125 11.015625 
Q 21.046875 6.0625 27.640625 6.0625 
Q 34.1875 6.0625 38.53125 11.03125 
Q 42.875 16.015625 42.875 26.21875 
Q 42.875 35.84375 38.5 40.796875 
Q 34.125 45.75 27.640625 45.75 
Q 21.046875 45.75 16.703125 40.8125 
Q 12.359375 35.890625 12.359375 25.921875 
" id="ArialMT-6f"/>
      <path d="M 6.59375 0 
L 6.59375 51.859375 
L 14.5 51.859375 
L 14.5 44.484375 
Q 20.21875 53.03125 31 53.03125 
Q 35.6875 53.03125 39.625 51.34375 
Q 43.5625 49.65625 45.515625 46.921875 
Q 47.46875 44.1875 48.25 40.4375 
Q 48.734375 37.984375 48.734375 31.890625 
L 48.734375 0 
L 39.9375 0 
L 39.9375 31.546875 
Q 39.9375 36.921875 38.90625 39.578125 
Q 37.890625 42.234375 35.28125 43.8125 
Q 32.671875 45.40625 29.15625 45.40625 
Q 23.53125 45.40625 19.453125 41.84375 
Q 15.375 38.28125 15.375 28.328125 
L 15.375 0 
z
" id="ArialMT-6e"/>
     </defs>
     <g style="fill:#262626;" transform="translate(43.91375 221.7909375)rotate(-90.0)scale(0.11 -0.11)">
      <use xlink:href="#ArialMT-61"/>
      <use x="55.615234375" xlink:href="#ArialMT-62"/>
      <use x="111.23046875" xlink:href="#ArialMT-73"/>
      <use x="161.23046875" xlink:href="#ArialMT-6f"/>
      <use x="216.845703125" xlink:href="#ArialMT-72"/>
      <use x="250.146484375" xlink:href="#ArialMT-62"/>
      <use x="305.76171875" xlink:href="#ArialMT-61"/>
      <use x="361.376953125" xlink:href="#ArialMT-6e"/>
      <use x="416.9921875" xlink:href="#ArialMT-63"/>
      <use x="466.9921875" xlink:href="#ArialMT-65"/>
     </g>
    </g>
   </g>
   <g id="line2d_43">
    <path clip-path="url(#p7669609133)" d="M 505.666121 337.204976 
L 504.68149 341.641662 
L 503.698135 339.095658 
L 501.730149 315.854944 
L 500.869234 306.823214 
L 499.147406 278.211056 
L 498.286491 268.543167 
L 497.425577 248.893438 
L 495.702473 234.273419 
L 494.841559 234.824225 
L 493.980645 242.788387 
L 493.11973 248.050297 
L 492.258816 247.299436 
L 491.397902 233.218419 
L 490.536987 208.014218 
L 489.676073 227.142267 
L 488.815159 281.899553 
L 487.954245 323.923988 
L 487.09333 335.14281 
L 485.125344 338.475592 
L 484.140713 339.258116 
L 483.157358 338.955926 
L 482.172727 336.655561 
L 481.189371 336.54449 
L 480.204741 341.440091 
L 478.236754 343.956314 
L 477.253399 343.109431 
L 476.268768 340.231155 
L 475.285413 336.352512 
L 474.300782 336.204171 
L 473.317426 340.809351 
L 472.332795 338.73603 
L 471.34944 327.302151 
L 470.364809 339.289122 
L 469.381454 345.973574 
L 468.150665 343.798238 
L 467.16731 339.694867 
L 466.182679 342.346333 
L 465.199323 338.730838 
L 464.214693 328.931071 
L 463.231337 323.321021 
L 462.246706 336.083862 
L 461.263351 338.919271 
L 460.27872 336.466818 
L 459.295365 332.243635 
L 458.310734 332.114491 
L 457.327378 333.865185 
L 456.342747 331.195537 
L 455.359392 326.062405 
L 454.374761 316.310986 
L 453.513847 298.932918 
L 452.652933 288.261448 
L 451.792018 303.83121 
L 450.931104 306.065225 
L 450.07019 297.696236 
L 449.209275 295.716941 
L 448.348361 296.187821 
L 447.487447 292.032636 
L 446.626533 284.247717 
L 445.765618 275.107036 
L 444.904704 261.510567 
L 444.04379 250.859217 
L 443.182875 245.218917 
L 442.321961 245.641468 
L 441.461047 254.365016 
L 440.598857 260.338713 
L 439.737943 260.062263 
L 438.877029 266.147013 
L 438.016114 276.15063 
L 435.433371 296.906894 
L 434.572457 298.660072 
L 433.711543 291.079411 
L 432.850629 275.108197 
L 431.989714 266.930571 
L 431.1288 266.654963 
L 430.267886 249.560001 
L 429.406971 241.890906 
L 428.546057 250.234558 
L 427.685143 244.384974 
L 425.962039 211.022991 
L 425.101125 192.065596 
L 424.24021 180.653866 
L 423.379296 183.09877 
L 422.518382 188.245116 
L 421.657467 189.329229 
L 420.796553 192.655799 
L 419.935639 203.470912 
L 418.21381 248.239899 
L 417.352896 261.829137 
L 416.491982 270.899133 
L 415.631067 278.027809 
L 414.770153 284.076925 
L 413.909239 287.133525 
L 413.047049 282.605271 
L 412.186135 265.352416 
L 411.325221 262.581506 
L 410.464306 273.084611 
L 409.603392 272.398238 
L 408.742478 263.910864 
L 407.881563 253.8907 
L 407.020649 255.777865 
L 406.159735 260.655282 
L 405.298821 263.43171 
L 404.437906 263.826347 
L 403.576992 253.896411 
L 402.716078 236.575904 
L 401.855163 234.172399 
L 400.994249 256.107029 
L 400.133335 256.821811 
L 399.271145 246.830436 
L 398.410231 242.856812 
L 397.549317 237.901573 
L 396.688402 229.013165 
L 395.827488 223.47332 
L 394.966574 229.425584 
L 394.105659 238.754262 
L 393.244745 257.097012 
L 392.383831 249.702358 
L 391.522917 227.190678 
L 389.801088 171.147257 
L 388.940174 143.981694 
L 388.079259 108.23472 
L 387.218345 88.524459 
L 386.357431 95.901102 
L 385.495241 131.727233 
L 383.773413 184.932648 
L 382.912498 211.867367 
L 382.051584 231.121163 
L 381.19067 245.204404 
L 380.329755 252.201367 
L 379.468841 246.845055 
L 378.607927 228.534202 
L 377.747013 195.892242 
L 376.886098 153.217434 
L 376.025184 101.562319 
L 375.16427 63.974198 
L 374.425797 43.44544 
L 373.687323 53.553363 
L 372.950126 83.821033 
L 371.228297 176.615455 
L 370.367383 207.884841 
L 369.506469 234.52963 
L 368.645554 254.997477 
L 367.783365 267.911913 
L 366.92245 278.950504 
L 366.061536 278.756853 
L 365.200622 268.837074 
L 364.339707 255.672408 
L 363.478793 260.99503 
L 362.617879 279.232936 
L 361.756965 294.856648 
L 360.89605 314.064484 
L 360.035136 329.395226 
L 359.050505 339.129896 
L 358.06715 341.980608 
L 355.114533 343.2719 
L 354.131177 342.628087 
L 353.146546 342.493338 
L 351.17856 342.597996 
L 349.210574 341.558528 
L 348.227218 342.153728 
L 347.242587 341.80604 
L 346.259232 342.566422 
L 345.274601 342.125692 
L 344.291246 341.522794 
L 343.306615 342.011693 
L 341.338629 341.283436 
L 340.355273 341.215517 
L 339.370642 340.915761 
L 338.387287 340.749623 
L 337.402656 340.334963 
L 336.419301 340.529961 
L 334.451314 338.939792 
L 333.466683 339.172639 
L 332.483328 339.129488 
L 331.498697 338.613172 
L 330.515342 337.531537 
L 329.530711 336.829703 
L 328.547355 337.28048 
L 327.562725 338.431122 
L 326.579369 338.285618 
L 323.626752 337.321001 
L 322.643397 336.305485 
L 321.658766 335.799438 
L 320.67541 336.148097 
L 319.690779 336.770939 
L 318.707424 336.276243 
L 317.722793 336.021315 
L 316.739438 336.047487 
L 315.754807 336.529018 
L 314.771451 335.763744 
L 313.786821 335.6894 
L 312.803465 335.990195 
L 311.818834 337.069081 
L 310.835479 338.4601 
L 309.850848 337.6478 
L 308.867493 337.524053 
L 307.882862 338.382178 
L 306.899506 333.854621 
L 305.914875 334.125278 
L 304.93152 335.094704 
L 303.946889 334.375342 
L 302.963534 334.472026 
L 301.978903 334.873959 
L 300.995547 334.886126 
L 300.010917 335.131491 
L 299.027561 335.242682 
L 298.04293 334.806861 
L 297.059575 334.708432 
L 296.074944 334.43384 
L 295.091589 333.707327 
L 294.106958 332.534621 
L 293.123602 331.741784 
L 292.138971 331.866253 
L 291.155616 331.060877 
L 290.170985 326.267013 
L 289.18763 320.045052 
L 288.326715 310.683699 
L 287.465801 298.314782 
L 285.743973 263.858426 
L 284.883058 254.914568 
L 284.022144 248.912812 
L 283.16123 267.537529 
L 282.29904 244.566631 
L 281.438126 216.100657 
L 280.577211 241.16323 
L 279.716297 285.632094 
L 278.855383 318.67158 
L 277.994469 335.179068 
L 277.011113 337.2416 
L 274.058496 336.417853 
L 272.09051 336.075135 
L 271.107154 335.770712 
L 270.122523 335.34781 
L 267.171182 335.253438 
L 264.218565 334.501954 
L 263.235209 334.386025 
L 262.250578 334.078747 
L 257.33125 333.083604 
L 251.427291 331.801798 
L 250.442661 331.637162 
L 244.538702 331.562307 
L 243.555346 331.723969 
L 242.570715 332.061288 
L 241.58736 331.940511 
L 239.619374 331.220678 
L 237.651387 330.565075 
L 235.683401 329.496622 
L 233.715415 328.043955 
L 232.730784 327.312563 
L 231.747429 326.876941 
L 227.811456 324.144765 
L 226.826825 323.211549 
L 225.84347 322.015214 
L 223.875483 319.074794 
L 222.029938 315.503583 
L 221.169024 313.218236 
L 220.30811 308.199262 
L 219.447195 296.649338 
L 218.586281 281.819233 
L 217.725367 275.474319 
L 216.864453 277.866571 
L 216.003538 281.575278 
L 215.142624 288.333616 
L 214.28171 292.681992 
L 213.41952 290.596013 
L 212.558606 283.622381 
L 210.836777 267.016824 
L 209.114949 246.501286 
L 208.254034 244.010337 
L 207.39312 253.508105 
L 205.671291 279.230485 
L 204.810377 287.430185 
L 202.227634 307.430904 
L 201.36672 311.065626 
L 200.505806 313.296032 
L 199.643616 313.794088 
L 198.782702 313.721203 
L 197.921787 313.305446 
L 197.060873 312.058477 
L 196.199959 310.411389 
L 195.339045 308.479376 
L 194.47813 305.908714 
L 192.756302 299.265473 
L 191.895387 297.292897 
L 191.034473 296.495211 
L 190.173559 296.340419 
L 189.312645 296.800998 
L 188.45173 297.787328 
L 187.590816 298.949199 
L 185.867712 302.050261 
L 185.006798 303.033544 
L 184.145883 302.924156 
L 183.284969 302.591725 
L 182.424055 301.748316 
L 180.702226 298.9468 
L 178.980398 294.131141 
L 176.397655 285.455861 
L 174.675826 280.540189 
L 172.953998 276.437134 
L 172.091808 274.194216 
L 171.230894 271.38894 
L 170.369979 268.033354 
L 169.509065 263.702289 
L 168.648151 258.559068 
L 166.926322 246.096394 
L 164.343579 225.501935 
L 163.482665 217.568055 
L 162.621751 210.669074 
L 161.760837 208.717897 
L 160.899922 215.52572 
L 158.315904 255.968343 
L 157.45499 264.485798 
L 156.594075 271.209979 
L 155.733161 276.16949 
L 154.872247 280.220304 
L 153.150418 285.807196 
L 152.289504 287.842384 
L 151.42859 289.515729 
L 149.706761 292.105352 
L 148.845847 293.152783 
L 146.263104 295.393276 
L 144.54 297.601396 
L 143.679086 298.499057 
L 140.235429 303.133547 
L 139.374514 304.026013 
L 138.5136 304.707327 
L 137.652686 306.079596 
L 136.791771 307.18937 
L 135.930857 308.062223 
L 134.209029 311.146866 
L 133.348114 312.017235 
L 132.4872 313.547587 
L 131.626286 315.38676 
L 130.764096 316.605674 
L 129.903182 318.134355 
L 129.042267 320.083653 
L 128.058912 320.844003 
L 127.074281 323.341687 
L 126.090926 324.851816 
L 125.106295 324.708479 
L 124.122939 324.951473 
L 123.138309 326.59565 
L 122.154953 328.735111 
L 121.170322 329.409106 
L 120.186967 328.786383 
L 119.202336 331.605397 
L 118.218981 335.043949 
L 117.23435 335.147541 
L 116.250994 337.972034 
L 115.266363 339.093311 
L 114.283008 338.164723 
L 113.298377 338.836414 
L 112.315022 338.133319 
L 111.330391 337.266604 
L 110.347035 336.956604 
L 109.362405 337.197972 
L 108.379049 338.316603 
L 107.394418 333.779608 
L 106.411063 334.199261 
L 105.426432 337.981155 
L 104.443077 338.983002 
L 103.458446 341.303492 
L 101.490459 342.216557 
L 100.507104 342.278501 
L 99.522473 342.522705 
L 98.539118 342.046172 
L 97.554487 341.363399 
L 96.571131 342.280909 
L 95.586501 341.120224 
L 94.603145 341.716665 
L 93.618514 341.24679 
L 92.635159 341.239377 
L 91.650528 341.610256 
L 90.667173 341.69762 
L 89.682542 341.42111 
L 88.699186 341.599183 
L 87.714555 342.002216 
L 86.7312 341.845745 
L 85.746569 342.07551 
L 84.763214 341.381799 
L 83.778583 342.644302 
L 82.795227 342.17955 
L 80.827241 342.199741 
L 79.84261 342.454308 
L 78.859255 342.471973 
L 77.874624 342.622735 
L 75.906638 342.481499 
L 74.923282 342.698798 
L 72.955296 342.690514 
L 72.955296 342.690514 
" style="fill:none;stroke:#4c72b0;stroke-linecap:round;stroke-width:1.75;"/>
   </g>
   <g id="line2d_44">
    <path clip-path="url(#p7669609133)" d="M 505.666121 336.517767 
L 504.68149 343.790393 
L 503.698135 338.169081 
L 502.713504 330.162873 
L 501.730149 320.950436 
L 500.869234 310.561313 
L 500.00832 293.532322 
L 499.147406 279.029032 
L 498.286491 271.550317 
L 497.425577 247.884733 
L 496.564663 243.154093 
L 495.702473 237.670272 
L 494.841559 241.672451 
L 493.11973 278.527811 
L 492.258816 291.652295 
L 491.397902 298.341289 
L 490.536987 297.729512 
L 489.676073 300.837385 
L 487.954245 327.921074 
L 486.969614 332.386639 
L 485.986258 335.113386 
L 485.001627 338.375047 
L 484.018272 340.976112 
L 483.033641 342.681785 
L 481.065655 343.555603 
L 478.975227 345.88902 
L 477.868155 346.323028 
L 476.638642 345.786715 
L 475.53157 345.512719 
L 474.424498 345.65973 
L 473.317426 345.984698 
L 472.210354 345.657704 
L 471.103282 344.76412 
L 469.99621 344.077913 
L 468.889138 343.183379 
L 467.905783 340.321086 
L 466.921152 336.814036 
L 465.937797 338.225354 
L 464.953166 333.28819 
L 463.96981 323.242729 
L 463.108896 321.714815 
L 462.246706 337.349962 
L 461.263351 342.962743 
L 460.27872 344.298161 
L 459.172923 344.235163 
L 458.065851 342.59475 
L 456.097865 337.429268 
L 455.113234 334.395856 
L 454.129879 330.396482 
L 453.145248 327.317397 
L 452.161893 322.604324 
L 451.177262 320.202959 
L 450.193906 317.423131 
L 449.332992 316.144694 
L 448.470802 316.949924 
L 447.609888 315.020864 
L 446.748974 313.543157 
L 445.888059 314.153823 
L 445.027145 313.618942 
L 444.166231 312.483633 
L 442.444402 312.140035 
L 441.583488 311.417057 
L 440.722574 310.323985 
L 439.000745 306.070006 
L 438.139831 301.662233 
L 437.278917 294.112667 
L 436.418002 292.60207 
L 435.557088 294.854815 
L 434.694898 296.590415 
L 433.833984 291.794228 
L 432.97307 280.738829 
L 432.112155 271.229586 
L 431.251241 273.122175 
L 430.390327 263.789493 
L 429.529413 255.912987 
L 428.668498 271.672471 
L 427.807584 276.284747 
L 426.085755 265.925663 
L 425.224841 262.319964 
L 424.363927 259.469634 
L 422.642098 258.331084 
L 421.781184 254.739831 
L 420.918994 247.163094 
L 420.05808 243.568243 
L 419.197166 256.104508 
L 418.336251 270.82376 
L 417.475337 276.71796 
L 416.614423 277.845764 
L 415.753509 279.770776 
L 414.892594 282.715641 
L 414.03168 284.553477 
L 413.170766 283.821181 
L 412.309851 281.564266 
L 410.588023 274.706243 
L 409.727109 269.006208 
L 408.00528 254.468535 
L 407.14309 255.184578 
L 406.282176 261.907301 
L 404.560347 268.537393 
L 403.699433 268.854152 
L 402.838519 259.019515 
L 401.977605 236.848102 
L 401.11669 248.956511 
L 400.255776 253.187466 
L 399.394862 245.377663 
L 398.533947 243.566089 
L 397.673033 240.414088 
L 396.812119 230.858654 
L 395.951205 223.031447 
L 395.09029 229.722846 
L 394.229376 235.352834 
L 393.367186 255.752727 
L 392.506272 249.765787 
L 391.645358 231.85439 
L 390.784443 209.576885 
L 389.923529 177.72485 
L 389.062615 152.341137 
L 388.201701 116.443267 
L 387.340786 90.673303 
L 386.479872 90.355696 
L 384.758043 153.374434 
L 383.897129 179.75188 
L 383.036215 212.247984 
L 382.175301 233.881672 
L 381.314386 249.868248 
L 380.453472 256.790775 
L 379.591282 251.053867 
L 378.730368 233.766417 
L 377.869454 202.098634 
L 377.008539 160.658532 
L 376.147625 108.680311 
L 375.286711 67.695182 
L 374.549513 44.598396 
L 373.81104 51.163472 
L 373.072567 86.644893 
L 372.211653 133.452989 
L 371.350738 186.620043 
L 370.489824 223.513441 
L 369.62891 254.395289 
L 368.767995 279.987064 
L 367.046167 312.462907 
L 365.200622 334.138419 
L 364.217266 339.119412 
L 363.232635 341.152215 
L 362.24928 342.373012 
L 361.264649 340.490706 
L 360.281294 340.958086 
L 359.296663 342.130773 
L 358.313307 344.688951 
L 357.206235 344.980013 
L 356.221605 344.595385 
L 355.238249 345.416754 
L 354.131177 344.509327 
L 353.024105 344.675054 
L 350.809961 345.379469 
L 349.702889 343.930164 
L 348.719534 344.417207 
L 347.612462 343.429267 
L 346.627831 343.983336 
L 345.644475 343.893503 
L 344.659845 342.71461 
L 343.676489 343.261879 
L 341.708503 342.860379 
L 340.723872 342.651189 
L 339.740517 342.763188 
L 337.77253 342.119659 
L 336.787899 342.469046 
L 335.804544 342.231966 
L 334.819913 341.100793 
L 333.836558 342.128238 
L 332.851927 342.030563 
L 331.868571 342.225124 
L 330.883941 341.16563 
L 329.900585 340.835916 
L 328.915954 339.826711 
L 327.932599 340.410777 
L 326.947968 340.72001 
L 324.979982 340.701689 
L 323.011995 339.475737 
L 322.02864 339.600723 
L 321.044009 338.907173 
L 320.060654 339.510366 
L 319.076023 339.000095 
L 318.092667 339.145669 
L 317.108037 338.819868 
L 316.124681 339.000645 
L 314.156695 338.7358 
L 313.172064 338.780852 
L 312.188709 339.210721 
L 311.204078 340.118119 
L 309.236091 340.117663 
L 307.268105 339.500361 
L 306.28475 337.133496 
L 305.300119 338.650234 
L 304.316763 338.537054 
L 303.332133 338.148523 
L 302.348777 338.326308 
L 301.364146 337.827605 
L 299.39616 338.867925 
L 298.412805 338.658394 
L 297.428174 337.996919 
L 296.444818 337.532849 
L 295.460187 336.393807 
L 293.492201 333.370642 
L 292.508846 333.054301 
L 291.524215 333.764513 
L 290.540859 327.785643 
L 289.556229 317.788175 
L 288.695314 305.839407 
L 286.973486 264.591607 
L 286.112571 232.854276 
L 285.251657 211.893492 
L 284.390743 200.498746 
L 282.668914 220.10793 
L 281.808 154.361692 
L 280.947086 160.352342 
L 279.225257 289.218514 
L 278.363067 328.053124 
L 277.502153 339.296139 
L 276.518798 339.660479 
L 275.534167 339.190216 
L 273.566181 338.75749 
L 271.598194 338.588046 
L 270.614839 338.039182 
L 269.630208 337.753845 
L 268.646853 337.849501 
L 266.678866 337.712262 
L 265.694235 337.569147 
L 264.71088 337.299186 
L 262.742894 337.057138 
L 261.758263 336.745457 
L 260.774907 336.758409 
L 259.790277 336.51536 
L 258.806921 336.036533 
L 257.82229 336.113734 
L 256.838935 335.884995 
L 255.854304 335.498056 
L 254.870949 335.512078 
L 253.886318 335.302575 
L 252.902962 334.881449 
L 251.918331 334.781494 
L 250.934976 334.457186 
L 245.031017 334.520184 
L 244.046386 334.4419 
L 243.063031 334.791355 
L 242.0784 334.729633 
L 240.110414 334.088377 
L 239.127058 333.707406 
L 238.142427 333.493873 
L 237.159072 333.072955 
L 235.191086 331.963679 
L 233.223099 330.509122 
L 230.270482 328.822187 
L 228.302496 327.652994 
L 227.319141 326.83119 
L 226.33451 325.73292 
L 224.366523 322.917064 
L 223.383168 321.117675 
L 221.415182 316.670434 
L 220.554267 312.861178 
L 219.693353 302.85498 
L 218.832439 287.123394 
L 217.971525 277.712668 
L 217.11061 280.422812 
L 216.249696 284.700492 
L 214.526592 298.08223 
L 213.665678 297.794391 
L 212.804763 291.83939 
L 211.082935 275.28801 
L 209.361106 253.516079 
L 208.500192 248.88218 
L 207.639278 257.351662 
L 205.917449 286.965528 
L 205.056535 297.350525 
L 203.334706 312.156557 
L 202.473792 317.315089 
L 201.611602 320.806675 
L 200.628247 322.605875 
L 199.643616 322.64532 
L 198.660261 321.807346 
L 197.67563 320.554012 
L 195.83136 316.721881 
L 194.970446 314.291797 
L 194.109531 311.316853 
L 193.248617 307.78068 
L 192.387703 305.130897 
L 191.526789 303.962763 
L 190.665874 303.36241 
L 189.803685 303.55577 
L 188.94277 304.315402 
L 188.081856 305.301193 
L 186.360027 308.662214 
L 185.499113 310.241411 
L 184.638199 311.085719 
L 183.777285 311.005927 
L 182.91637 310.475352 
L 182.055456 309.564262 
L 181.194542 308.270448 
L 180.333627 306.621898 
L 179.472713 304.476504 
L 177.750885 298.832385 
L 176.88997 295.827786 
L 175.166866 291.087122 
L 174.305952 288.923896 
L 173.445038 287.173667 
L 171.723209 282.551409 
L 170.862295 279.464774 
L 170.001381 275.676467 
L 168.279552 264.822679 
L 165.696809 243.993842 
L 164.835895 236.821387 
L 162.251877 213.354941 
L 161.390962 214.734453 
L 160.530048 226.511261 
L 158.808219 259.447428 
L 157.947305 270.897265 
L 157.086391 279.506488 
L 156.225477 285.784883 
L 155.364562 290.452784 
L 154.503648 294.118641 
L 152.781819 299.484136 
L 151.920905 301.409488 
L 150.199077 304.05934 
L 148.475973 306.234753 
L 146.754144 308.192623 
L 145.89323 308.725677 
L 145.032315 309.982718 
L 144.171401 310.780868 
L 143.310487 311.272265 
L 142.449573 312.73689 
L 141.588658 313.320918 
L 140.727744 314.060095 
L 139.86683 314.95089 
L 139.005915 315.113731 
L 135.562258 318.776867 
L 134.577627 320.553191 
L 133.594272 321.386154 
L 132.609641 322.383942 
L 131.626286 324.384894 
L 130.641655 325.168672 
L 129.658299 327.02403 
L 128.673669 328.289018 
L 127.690313 327.744722 
L 126.705682 330.940094 
L 125.722327 330.927746 
L 124.737696 329.385776 
L 123.754341 329.019323 
L 122.76971 331.099718 
L 121.786354 333.668146 
L 120.801723 332.647397 
L 119.818368 331.138973 
L 118.833737 336.699167 
L 117.850382 339.106903 
L 116.865751 339.409934 
L 115.882395 343.026705 
L 114.897765 342.109943 
L 113.914409 340.267444 
L 112.929778 341.928206 
L 111.946423 338.174543 
L 110.961792 337.805378 
L 109.978437 336.625898 
L 108.993806 339.330414 
L 108.01045 335.808392 
L 107.025819 331.491166 
L 106.042464 334.245688 
L 105.057833 339.702605 
L 104.074478 340.66451 
L 103.089847 343.849349 
L 102.106491 344.361364 
L 100.999419 345.16648 
L 99.892347 345.149993 
L 98.785275 345.02106 
L 97.800645 343.173821 
L 96.817289 344.656544 
L 95.710217 342.518884 
L 94.725586 343.118675 
L 93.742231 343.411728 
L 92.7576 342.319464 
L 91.774245 343.703055 
L 90.789614 343.176506 
L 89.806258 343.086393 
L 88.821627 343.165822 
L 87.838272 344.103253 
L 86.853641 343.600912 
L 85.870286 344.354572 
L 84.885655 342.860217 
L 83.902299 345.194659 
L 82.795227 344.443883 
L 81.688155 344.416987 
L 80.581083 344.832659 
L 78.366939 345.024911 
L 77.259867 345.130038 
L 76.152795 344.992116 
L 73.938651 345.440917 
L 72.831579 345.381276 
L 72.831579 345.381276 
" style="fill:none;stroke:#55a868;stroke-linecap:round;stroke-width:1.75;"/>
   </g>
   <g id="line2d_45">
    <path clip-path="url(#p7669609133)" d="M 505.666121 336.653383 
L 504.68149 343.537432 
L 503.698135 338.977688 
L 502.713504 328.86098 
L 501.730149 315.356476 
L 500.869234 307.414115 
L 499.147406 276.491502 
L 498.286491 263.973709 
L 497.425577 240.806212 
L 495.702473 222.425203 
L 494.841559 225.13033 
L 493.11973 260.279683 
L 492.258816 270.094562 
L 491.397902 270.204604 
L 490.536987 261.440456 
L 489.676073 269.424882 
L 487.954245 327.941639 
L 486.969614 333.926641 
L 484.018272 340.777334 
L 483.033641 341.859095 
L 482.050286 341.832498 
L 481.065655 341.574416 
L 480.082299 343.981044 
L 479.097669 345.466716 
L 477.990597 346.36504 
L 476.638642 345.366628 
L 475.53157 344.034155 
L 474.546939 343.213392 
L 473.563584 344.694223 
L 472.456512 344.679955 
L 471.471881 340.607743 
L 470.488526 343.027494 
L 469.503895 344.495036 
L 468.396823 341.821927 
L 467.413467 335.498569 
L 466.428837 337.228603 
L 465.445481 335.085176 
L 464.46085 324.18554 
L 463.477495 309.458169 
L 462.616581 328.044047 
L 461.63195 340.541466 
L 460.648594 342.300912 
L 459.663963 341.461411 
L 457.695977 339.089588 
L 455.727991 332.932565 
L 454.744635 328.133964 
L 453.760005 320.975396 
L 452.89909 316.304628 
L 452.038176 318.663351 
L 451.177262 318.598003 
L 450.316347 313.486577 
L 449.455433 313.032514 
L 448.594519 314.837474 
L 447.733605 313.348375 
L 446.87269 310.619025 
L 446.011776 310.565904 
L 445.150862 307.833907 
L 443.429033 298.388063 
L 442.566843 296.386746 
L 441.705929 297.426161 
L 440.845015 299.035336 
L 439.984101 297.980833 
L 439.123186 296.340302 
L 438.262272 295.053666 
L 437.401358 289.039965 
L 436.540443 291.339753 
L 435.679529 297.262968 
L 434.818615 302.191418 
L 433.957701 297.330193 
L 432.235872 268.497937 
L 431.374958 270.392906 
L 430.514043 258.101789 
L 429.653129 242.598347 
L 428.790939 267.384212 
L 427.930025 277.828283 
L 427.069111 272.542459 
L 426.208197 263.683067 
L 425.347282 256.775384 
L 424.486368 248.169544 
L 422.764539 240.179134 
L 421.903625 232.769299 
L 421.042711 222.19851 
L 420.181797 218.334888 
L 419.320882 238.093924 
L 418.459968 264.070745 
L 417.599054 276.431736 
L 415.015035 288.550804 
L 414.154121 290.982841 
L 413.293207 289.347084 
L 412.432293 283.54169 
L 411.571378 276.603279 
L 410.710464 276.188456 
L 409.84955 270.446514 
L 408.127721 251.960149 
L 407.266807 253.201934 
L 406.405893 266.497752 
L 405.544978 273.128664 
L 404.684064 277.743053 
L 403.82315 276.197578 
L 402.962235 261.670625 
L 402.101321 233.919884 
L 401.239131 247.523518 
L 400.378217 258.799742 
L 399.517303 251.509566 
L 398.656389 251.338755 
L 397.795474 249.367751 
L 396.93456 236.33634 
L 396.073646 220.071459 
L 395.212731 226.358114 
L 394.351817 228.964848 
L 393.490903 261.678384 
L 392.629989 265.794253 
L 391.769074 252.116906 
L 390.90816 229.99179 
L 389.186331 165.068541 
L 388.325417 114.430781 
L 387.463227 76.692559 
L 386.602313 75.786863 
L 384.880485 151.7689 
L 384.01957 176.86693 
L 383.158656 212.626342 
L 382.297742 235.981014 
L 381.436827 254.617841 
L 380.575913 266.02162 
L 379.714999 264.077121 
L 378.854085 249.745624 
L 377.99317 220.662473 
L 377.132256 180.474818 
L 375.410427 77.638219 
L 374.549513 46.069224 
L 373.81104 52.94872 
L 372.211653 151.780297 
L 371.350738 210.539914 
L 370.489824 249.730446 
L 369.62891 280.989222 
L 368.767995 304.227025 
L 367.046167 325.296014 
L 366.061536 324.211138 
L 365.078181 321.393981 
L 364.09355 317.895369 
L 363.232635 320.918246 
L 362.371721 327.315415 
L 361.388366 330.24706 
L 360.403735 336.236199 
L 358.435749 344.008309 
L 357.328677 344.760011 
L 356.345321 343.75979 
L 355.36069 344.867622 
L 354.253618 344.162127 
L 353.270263 344.062119 
L 352.163191 344.681406 
L 351.056119 345.018203 
L 349.949047 343.67688 
L 348.965691 343.342651 
L 347.981061 343.783078 
L 346.997705 342.95281 
L 346.013074 344.129869 
L 345.029719 343.015605 
L 344.045088 342.371987 
L 343.061733 343.254853 
L 342.077102 342.737723 
L 341.093746 342.479645 
L 340.109115 342.625837 
L 339.12576 342.154721 
L 337.157774 341.763192 
L 336.173143 341.999883 
L 335.189787 340.836613 
L 332.23717 341.831474 
L 330.269184 340.381635 
L 328.301198 339.397642 
L 327.317842 340.498151 
L 326.333211 341.407939 
L 325.349856 340.26048 
L 324.365225 340.69265 
L 323.38187 339.807617 
L 322.397239 339.479499 
L 321.413883 338.749422 
L 320.429253 339.913644 
L 319.445897 338.933148 
L 318.461266 338.730568 
L 316.49328 338.673748 
L 315.509925 339.057275 
L 314.525294 338.937233 
L 313.541938 338.692114 
L 312.557307 339.135273 
L 311.573952 340.226328 
L 310.589321 340.586067 
L 308.621335 340.030696 
L 307.637979 339.96888 
L 306.653349 337.315851 
L 305.669993 339.449445 
L 304.685362 338.399373 
L 303.702007 338.866271 
L 301.734021 338.275759 
L 300.74939 338.304501 
L 299.766034 338.500337 
L 298.781403 339.08754 
L 297.798048 338.129812 
L 296.813417 337.907625 
L 295.830062 337.410575 
L 293.862075 335.35854 
L 292.877445 335.043084 
L 291.894089 335.194709 
L 290.909458 333.32831 
L 289.926103 327.122752 
L 288.941472 319.959979 
L 287.219643 294.877438 
L 286.358729 274.087679 
L 285.497815 259.242176 
L 284.636901 251.263145 
L 283.775986 248.69531 
L 282.915072 267.223868 
L 282.054158 228.788694 
L 281.193243 214.47205 
L 280.331054 251.590608 
L 279.470139 296.520739 
L 278.609225 326.980036 
L 277.748311 339.133034 
L 276.764955 340.070616 
L 275.780325 339.71307 
L 274.796969 339.80914 
L 273.812338 339.24493 
L 272.828983 339.399939 
L 271.844352 339.196989 
L 270.860997 338.640525 
L 269.876366 338.35629 
L 267.908379 338.666781 
L 266.925024 338.462329 
L 263.972407 338.151178 
L 262.989051 337.904114 
L 262.004421 337.51773 
L 261.021065 337.452882 
L 259.053079 336.894003 
L 258.068448 336.819712 
L 257.085093 336.472075 
L 256.100462 336.308062 
L 255.117106 336.297318 
L 254.132475 336.148572 
L 252.164489 335.614269 
L 248.228517 335.578986 
L 245.277175 335.775412 
L 244.292544 335.56338 
L 242.324558 335.987833 
L 241.341202 335.893496 
L 240.356571 335.43019 
L 238.388585 334.868474 
L 237.40523 334.63137 
L 234.452613 332.723065 
L 232.484626 331.183482 
L 231.501271 330.907152 
L 228.548654 329.261855 
L 226.580667 327.346542 
L 224.612681 324.163085 
L 223.629326 322.11538 
L 221.661339 316.943271 
L 220.800425 313.284948 
L 219.939511 303.296981 
L 218.217682 267.187673 
L 217.355493 267.340014 
L 215.633664 282.243128 
L 214.77275 292.604374 
L 213.911835 295.230987 
L 213.050921 289.167281 
L 210.468178 256.965438 
L 209.607264 242.600203 
L 208.74635 232.158132 
L 207.885435 238.01199 
L 207.024521 255.972668 
L 206.163607 278.378736 
L 205.302693 296.405132 
L 204.441778 307.130032 
L 203.579589 315.792336 
L 202.718674 322.720912 
L 201.735319 326.827466 
L 200.750688 329.033514 
L 199.767333 329.059754 
L 198.782702 328.408971 
L 197.799346 327.538684 
L 196.814715 325.77265 
L 195.83136 323.395486 
L 194.846729 320.720208 
L 193.002459 312.656571 
L 192.141545 309.918823 
L 191.280631 309.076799 
L 190.419717 308.716794 
L 189.558802 308.944584 
L 188.697888 309.800359 
L 187.835698 311.133646 
L 186.974784 313.23972 
L 186.11387 315.670879 
L 185.252955 317.431631 
L 184.392041 318.383529 
L 183.408686 318.469628 
L 182.424055 318.133032 
L 181.563141 317.13644 
L 180.702226 316.375461 
L 179.841312 314.651894 
L 178.980398 312.406187 
L 177.258569 306.52165 
L 175.536741 301.851475 
L 174.675826 299.586499 
L 173.814912 297.939709 
L 172.091808 293.616325 
L 171.230894 290.407883 
L 170.369979 286.448743 
L 169.509065 281.060394 
L 168.648151 274.780678 
L 166.926322 259.264203 
L 165.204494 241.481584 
L 164.343579 230.475957 
L 162.621751 205.597412 
L 161.760837 200.824131 
L 160.899922 210.015066 
L 159.178094 253.540007 
L 158.315904 270.671282 
L 157.45499 282.607645 
L 156.594075 291.3412 
L 155.733161 297.408954 
L 154.872247 302.443842 
L 154.011333 305.598622 
L 153.150418 308.193228 
L 152.289504 310.347294 
L 151.42859 311.908457 
L 150.567675 312.986705 
L 148.845847 314.582791 
L 147.984933 315.122032 
L 147.124018 315.841477 
L 146.263104 316.103757 
L 145.40219 317.173805 
L 144.54 317.581407 
L 143.679086 317.806503 
L 142.818171 318.441428 
L 141.957257 319.616059 
L 140.973902 319.930132 
L 139.989271 320.708882 
L 139.005915 320.822519 
L 138.021285 321.470845 
L 137.037929 322.423836 
L 136.053298 322.652245 
L 134.085312 325.647789 
L 133.101957 325.654999 
L 131.13397 328.996115 
L 130.149339 329.016613 
L 129.165984 331.522024 
L 128.181353 330.842546 
L 126.213367 334.591346 
L 125.230011 332.892591 
L 124.245381 332.331532 
L 123.262025 333.598099 
L 121.294039 335.14785 
L 120.309408 334.257084 
L 119.326053 335.88558 
L 118.341422 339.919999 
L 117.358066 338.190197 
L 116.373435 341.422482 
L 115.39008 343.038296 
L 114.405449 340.063485 
L 113.422094 340.571081 
L 112.437463 340.521776 
L 111.454107 339.087774 
L 110.469477 339.244698 
L 109.486121 337.571496 
L 108.50149 340.585254 
L 107.518135 334.737485 
L 106.533504 333.578878 
L 105.550149 337.403931 
L 104.565518 337.951459 
L 103.582162 341.580332 
L 102.597531 343.301605 
L 101.614176 344.132294 
L 100.629545 344.52799 
L 99.522473 344.677745 
L 98.415401 343.322449 
L 97.432046 342.294937 
L 96.447415 343.846883 
L 95.464059 340.77982 
L 94.479429 342.775964 
L 93.496073 341.567399 
L 92.511442 341.884021 
L 91.528087 341.548083 
L 90.543456 342.691328 
L 89.560101 341.866079 
L 88.57547 342.499671 
L 87.592114 343.337079 
L 86.607483 342.920477 
L 85.624128 343.28829 
L 84.639497 342.070024 
L 83.656142 344.731028 
L 82.54907 343.625712 
L 81.565714 343.556384 
L 80.581083 344.31481 
L 79.597728 344.113936 
L 78.490656 344.619894 
L 77.383584 344.829654 
L 76.276512 344.678059 
L 74.062368 345.134301 
L 72.955296 345.111823 
L 72.955296 345.111823 
" style="fill:none;stroke:#c44e52;stroke-linecap:round;stroke-width:1.75;"/>
   </g>
   <g id="patch_3">
    <path d="M 72 39.6 
L 518.4 39.6 
" style="fill:none;"/>
   </g>
   <g id="patch_4">
    <path d="M 518.4 346.5 
L 518.4 39.6 
" style="fill:none;"/>
   </g>
   <g id="patch_5">
    <path d="M 72 346.5 
L 518.4 346.5 
" style="fill:none;"/>
   </g>
   <g id="patch_6">
    <path d="M 72 346.5 
L 72 39.6 
" style="fill:none;"/>
   </g>
   <g id="text_17">
    <!-- Extra Duty Felt -->
    <defs>
     <path d="M 0.734375 0 
L 19.671875 26.953125 
L 2.15625 51.859375 
L 13.140625 51.859375 
L 21.09375 39.703125 
Q 23.34375 36.234375 24.703125 33.890625 
Q 26.859375 37.109375 28.65625 39.59375 
L 37.40625 51.859375 
L 47.90625 51.859375 
L 29.984375 27.4375 
L 49.265625 0 
L 38.484375 0 
L 27.828125 16.109375 
L 25 20.453125 
L 11.375 0 
z
" id="ArialMT-78"/>
     <path d="M 6.203125 -19.96875 
L 5.21875 -11.71875 
Q 8.109375 -12.5 10.25 -12.5 
Q 13.1875 -12.5 14.9375 -11.515625 
Q 16.703125 -10.546875 17.828125 -8.796875 
Q 18.65625 -7.46875 20.515625 -2.25 
Q 20.75 -1.515625 21.296875 -0.09375 
L 1.609375 51.859375 
L 11.078125 51.859375 
L 21.875 21.828125 
Q 23.96875 16.109375 25.640625 9.8125 
Q 27.15625 15.875 29.25 21.625 
L 40.328125 51.859375 
L 49.125 51.859375 
L 29.390625 -0.875 
Q 26.21875 -9.421875 24.46875 -12.640625 
Q 22.125 -17 19.09375 -19.015625 
Q 16.0625 -21.046875 11.859375 -21.046875 
Q 9.328125 -21.046875 6.203125 -19.96875 
" id="ArialMT-79"/>
     <path d="M 25.78125 7.859375 
L 27.046875 0.09375 
Q 23.34375 -0.6875 20.40625 -0.6875 
Q 15.625 -0.6875 12.984375 0.828125 
Q 10.359375 2.34375 9.28125 4.8125 
Q 8.203125 7.28125 8.203125 15.1875 
L 8.203125 45.015625 
L 1.765625 45.015625 
L 1.765625 51.859375 
L 8.203125 51.859375 
L 8.203125 64.703125 
L 16.9375 69.96875 
L 16.9375 51.859375 
L 25.78125 51.859375 
L 25.78125 45.015625 
L 16.9375 45.015625 
L 16.9375 14.703125 
Q 16.9375 10.9375 17.40625 9.859375 
Q 17.875 8.796875 18.921875 8.15625 
Q 19.96875 7.515625 21.921875 7.515625 
Q 23.390625 7.515625 25.78125 7.859375 
" id="ArialMT-74"/>
     <path d="M 40.578125 0 
L 40.578125 7.625 
Q 34.515625 -1.171875 24.125 -1.171875 
Q 19.53125 -1.171875 15.546875 0.578125 
Q 11.578125 2.34375 9.640625 5 
Q 7.71875 7.671875 6.9375 11.53125 
Q 6.390625 14.109375 6.390625 19.734375 
L 6.390625 51.859375 
L 15.1875 51.859375 
L 15.1875 23.09375 
Q 15.1875 16.21875 15.71875 13.8125 
Q 16.546875 10.359375 19.234375 8.375 
Q 21.921875 6.390625 25.875 6.390625 
Q 29.828125 6.390625 33.296875 8.421875 
Q 36.765625 10.453125 38.203125 13.9375 
Q 39.65625 17.4375 39.65625 24.078125 
L 39.65625 51.859375 
L 48.4375 51.859375 
L 48.4375 0 
z
" id="ArialMT-75"/>
     <path d="M 7.90625 0 
L 7.90625 71.578125 
L 59.671875 71.578125 
L 59.671875 63.140625 
L 17.390625 63.140625 
L 17.390625 41.21875 
L 56.984375 41.21875 
L 56.984375 32.8125 
L 17.390625 32.8125 
L 17.390625 8.453125 
L 61.328125 8.453125 
L 61.328125 0 
z
" id="ArialMT-45"/>
     <path d="M 7.71875 0 
L 7.71875 71.578125 
L 32.375 71.578125 
Q 40.71875 71.578125 45.125 70.5625 
Q 51.265625 69.140625 55.609375 65.4375 
Q 61.28125 60.640625 64.078125 53.1875 
Q 66.890625 45.75 66.890625 36.1875 
Q 66.890625 28.03125 64.984375 21.734375 
Q 63.09375 15.4375 60.109375 11.296875 
Q 57.125 7.171875 53.578125 4.796875 
Q 50.046875 2.4375 45.046875 1.21875 
Q 40.046875 0 33.546875 0 
z
M 17.1875 8.453125 
L 32.46875 8.453125 
Q 39.546875 8.453125 43.578125 9.765625 
Q 47.609375 11.078125 50 13.484375 
Q 53.375 16.84375 55.25 22.53125 
Q 57.125 28.21875 57.125 36.328125 
Q 57.125 47.5625 53.4375 53.59375 
Q 49.75 59.625 44.484375 61.671875 
Q 40.671875 63.140625 32.234375 63.140625 
L 17.1875 63.140625 
z
" id="ArialMT-44"/>
     <path d="M 8.203125 0 
L 8.203125 71.578125 
L 56.5 71.578125 
L 56.5 63.140625 
L 17.671875 63.140625 
L 17.671875 40.96875 
L 51.265625 40.96875 
L 51.265625 32.515625 
L 17.671875 32.515625 
L 17.671875 0 
z
" id="ArialMT-46"/>
     <path d="M 6.390625 0 
L 6.390625 71.578125 
L 15.1875 71.578125 
L 15.1875 0 
z
" id="ArialMT-6c"/>
     <path id="ArialMT-20"/>
    </defs>
    <g style="fill:#262626;" transform="translate(255.525 34.6)scale(0.12 -0.12)">
     <use xlink:href="#ArialMT-45"/>
     <use x="66.69921875" xlink:href="#ArialMT-78"/>
     <use x="116.69921875" xlink:href="#ArialMT-74"/>
     <use x="144.482421875" xlink:href="#ArialMT-72"/>
     <use x="177.783203125" xlink:href="#ArialMT-61"/>
     <use x="233.3984375" xlink:href="#ArialMT-20"/>
     <use x="261.181640625" xlink:href="#ArialMT-44"/>
     <use x="333.3984375" xlink:href="#ArialMT-75"/>
     <use x="389.013671875" xlink:href="#ArialMT-74"/>
     <use x="416.796875" xlink:href="#ArialMT-79"/>
     <use x="466.796875" xlink:href="#ArialMT-20"/>
     <use x="494.580078125" xlink:href="#ArialMT-46"/>
     <use x="555.6640625" xlink:href="#ArialMT-65"/>
     <use x="611.279296875" xlink:href="#ArialMT-6c"/>
     <use x="633.49609375" xlink:href="#ArialMT-74"/>
    </g>
   </g>
   <g id="legend_1">
    <g id="line2d_46">
     <path d="M 398.026562 52.379687 
L 418.026562 52.379687 
" style="fill:none;stroke:#4c72b0;stroke-linecap:round;stroke-width:1.75;"/>
    </g>
    <g id="line2d_47"/>
    <g id="text_18">
     <!-- Dunlop_HardCourt -->
     <defs>
      <path d="M -1.515625 -19.875 
L -1.515625 -13.53125 
L 56.734375 -13.53125 
L 56.734375 -19.875 
z
" id="ArialMT-5f"/>
      <path d="M 58.796875 25.09375 
L 68.265625 22.703125 
Q 65.28125 11.03125 57.546875 4.90625 
Q 49.8125 -1.21875 38.625 -1.21875 
Q 27.046875 -1.21875 19.796875 3.484375 
Q 12.546875 8.203125 8.765625 17.140625 
Q 4.984375 26.078125 4.984375 36.328125 
Q 4.984375 47.515625 9.25 55.828125 
Q 13.53125 64.15625 21.40625 68.46875 
Q 29.296875 72.796875 38.765625 72.796875 
Q 49.515625 72.796875 56.828125 67.328125 
Q 64.15625 61.859375 67.046875 51.953125 
L 57.71875 49.75 
Q 55.21875 57.5625 50.484375 61.125 
Q 45.75 64.703125 38.578125 64.703125 
Q 30.328125 64.703125 24.78125 60.734375 
Q 19.234375 56.78125 16.984375 50.109375 
Q 14.75 43.453125 14.75 36.375 
Q 14.75 27.25 17.40625 20.4375 
Q 20.0625 13.625 25.671875 10.25 
Q 31.296875 6.890625 37.84375 6.890625 
Q 45.796875 6.890625 51.3125 11.46875 
Q 56.84375 16.0625 58.796875 25.09375 
" id="ArialMT-43"/>
      <path d="M 40.234375 0 
L 40.234375 6.546875 
Q 35.296875 -1.171875 25.734375 -1.171875 
Q 19.53125 -1.171875 14.328125 2.25 
Q 9.125 5.671875 6.265625 11.796875 
Q 3.421875 17.921875 3.421875 25.875 
Q 3.421875 33.640625 6 39.96875 
Q 8.59375 46.296875 13.765625 49.65625 
Q 18.953125 53.03125 25.34375 53.03125 
Q 30.03125 53.03125 33.6875 51.046875 
Q 37.359375 49.078125 39.65625 45.90625 
L 39.65625 71.578125 
L 48.390625 71.578125 
L 48.390625 0 
z
M 12.453125 25.875 
Q 12.453125 15.921875 16.640625 10.984375 
Q 20.84375 6.0625 26.5625 6.0625 
Q 32.328125 6.0625 36.34375 10.765625 
Q 40.375 15.484375 40.375 25.140625 
Q 40.375 35.796875 36.265625 40.765625 
Q 32.171875 45.75 26.171875 45.75 
Q 20.3125 45.75 16.375 40.96875 
Q 12.453125 36.1875 12.453125 25.875 
" id="ArialMT-64"/>
      <path d="M 6.59375 -19.875 
L 6.59375 51.859375 
L 14.59375 51.859375 
L 14.59375 45.125 
Q 17.4375 49.078125 21 51.046875 
Q 24.5625 53.03125 29.640625 53.03125 
Q 36.28125 53.03125 41.359375 49.609375 
Q 46.4375 46.1875 49.015625 39.953125 
Q 51.609375 33.734375 51.609375 26.3125 
Q 51.609375 18.359375 48.75 11.984375 
Q 45.90625 5.609375 40.453125 2.21875 
Q 35.015625 -1.171875 29 -1.171875 
Q 24.609375 -1.171875 21.109375 0.6875 
Q 17.625 2.546875 15.375 5.375 
L 15.375 -19.875 
z
M 14.546875 25.640625 
Q 14.546875 15.625 18.59375 10.84375 
Q 22.65625 6.0625 28.421875 6.0625 
Q 34.28125 6.0625 38.453125 11.015625 
Q 42.625 15.96875 42.625 26.375 
Q 42.625 36.28125 38.546875 41.203125 
Q 34.46875 46.140625 28.8125 46.140625 
Q 23.1875 46.140625 18.859375 40.890625 
Q 14.546875 35.640625 14.546875 25.640625 
" id="ArialMT-70"/>
      <path d="M 8.015625 0 
L 8.015625 71.578125 
L 17.484375 71.578125 
L 17.484375 42.1875 
L 54.6875 42.1875 
L 54.6875 71.578125 
L 64.15625 71.578125 
L 64.15625 0 
L 54.6875 0 
L 54.6875 33.734375 
L 17.484375 33.734375 
L 17.484375 0 
z
" id="ArialMT-48"/>
     </defs>
     <g style="fill:#262626;" transform="translate(426.0265625 55.8796875)scale(0.1 -0.1)">
      <use xlink:href="#ArialMT-44"/>
      <use x="72.216796875" xlink:href="#ArialMT-75"/>
      <use x="127.83203125" xlink:href="#ArialMT-6e"/>
      <use x="183.447265625" xlink:href="#ArialMT-6c"/>
      <use x="205.6640625" xlink:href="#ArialMT-6f"/>
      <use x="261.279296875" xlink:href="#ArialMT-70"/>
      <use x="316.89453125" xlink:href="#ArialMT-5f"/>
      <use x="372.509765625" xlink:href="#ArialMT-48"/>
      <use x="444.7265625" xlink:href="#ArialMT-61"/>
      <use x="500.341796875" xlink:href="#ArialMT-72"/>
      <use x="533.642578125" xlink:href="#ArialMT-64"/>
      <use x="589.2578125" xlink:href="#ArialMT-43"/>
      <use x="661.474609375" xlink:href="#ArialMT-6f"/>
      <use x="717.08984375" xlink:href="#ArialMT-75"/>
      <use x="772.705078125" xlink:href="#ArialMT-72"/>
      <use x="806.005859375" xlink:href="#ArialMT-74"/>
     </g>
    </g>
    <g id="line2d_48">
     <path d="M 398.026562 66.525 
L 418.026562 66.525 
" style="fill:none;stroke:#55a868;stroke-linecap:round;stroke-width:1.75;"/>
    </g>
    <g id="line2d_49"/>
    <g id="text_19">
     <!-- Penn_ExtraDuty -->
     <defs>
      <path d="M 7.71875 0 
L 7.71875 71.578125 
L 34.71875 71.578125 
Q 41.84375 71.578125 45.609375 70.90625 
Q 50.875 70.015625 54.4375 67.546875 
Q 58.015625 65.09375 60.1875 60.640625 
Q 62.359375 56.203125 62.359375 50.875 
Q 62.359375 41.75 56.546875 35.421875 
Q 50.734375 29.109375 35.546875 29.109375 
L 17.1875 29.109375 
L 17.1875 0 
z
M 17.1875 37.546875 
L 35.6875 37.546875 
Q 44.875 37.546875 48.734375 40.96875 
Q 52.59375 44.390625 52.59375 50.59375 
Q 52.59375 55.078125 50.3125 58.265625 
Q 48.046875 61.46875 44.34375 62.5 
Q 41.9375 63.140625 35.5 63.140625 
L 17.1875 63.140625 
z
" id="ArialMT-50"/>
     </defs>
     <g style="fill:#262626;" transform="translate(426.0265625 70.025)scale(0.1 -0.1)">
      <use xlink:href="#ArialMT-50"/>
      <use x="66.69921875" xlink:href="#ArialMT-65"/>
      <use x="122.314453125" xlink:href="#ArialMT-6e"/>
      <use x="177.9296875" xlink:href="#ArialMT-6e"/>
      <use x="233.544921875" xlink:href="#ArialMT-5f"/>
      <use x="289.16015625" xlink:href="#ArialMT-45"/>
      <use x="355.859375" xlink:href="#ArialMT-78"/>
      <use x="405.859375" xlink:href="#ArialMT-74"/>
      <use x="433.642578125" xlink:href="#ArialMT-72"/>
      <use x="466.943359375" xlink:href="#ArialMT-61"/>
      <use x="522.55859375" xlink:href="#ArialMT-44"/>
      <use x="594.775390625" xlink:href="#ArialMT-75"/>
      <use x="650.390625" xlink:href="#ArialMT-74"/>
      <use x="678.173828125" xlink:href="#ArialMT-79"/>
     </g>
    </g>
    <g id="line2d_50">
     <path d="M 398.026562 80.7875 
L 418.026562 80.7875 
" style="fill:none;stroke:#c44e52;stroke-linecap:round;stroke-width:1.75;"/>
    </g>
    <g id="line2d_51"/>
    <g id="text_20">
     <!-- Wilson_ExtraDuty -->
     <defs>
      <path d="M 6.640625 61.46875 
L 6.640625 71.578125 
L 15.4375 71.578125 
L 15.4375 61.46875 
z
M 6.640625 0 
L 6.640625 51.859375 
L 15.4375 51.859375 
L 15.4375 0 
z
" id="ArialMT-69"/>
      <path d="M 20.21875 0 
L 1.21875 71.578125 
L 10.9375 71.578125 
L 21.828125 24.65625 
Q 23.578125 17.28125 24.859375 10.015625 
Q 27.59375 21.484375 28.078125 23.25 
L 41.703125 71.578125 
L 53.125 71.578125 
L 63.375 35.359375 
Q 67.234375 21.875 68.953125 10.015625 
Q 70.3125 16.796875 72.515625 25.59375 
L 83.734375 71.578125 
L 93.265625 71.578125 
L 73.640625 0 
L 64.5 0 
L 49.421875 54.546875 
Q 47.515625 61.375 47.171875 62.9375 
Q 46.046875 58.015625 45.0625 54.546875 
L 29.890625 0 
z
" id="ArialMT-57"/>
     </defs>
     <g style="fill:#262626;" transform="translate(426.0265625 84.2875)scale(0.1 -0.1)">
      <use xlink:href="#ArialMT-57"/>
      <use x="94.384765625" xlink:href="#ArialMT-69"/>
      <use x="116.6015625" xlink:href="#ArialMT-6c"/>
      <use x="138.818359375" xlink:href="#ArialMT-73"/>
      <use x="188.818359375" xlink:href="#ArialMT-6f"/>
      <use x="244.43359375" xlink:href="#ArialMT-6e"/>
      <use x="300.048828125" xlink:href="#ArialMT-5f"/>
      <use x="355.6640625" xlink:href="#ArialMT-45"/>
      <use x="422.36328125" xlink:href="#ArialMT-78"/>
      <use x="472.36328125" xlink:href="#ArialMT-74"/>
      <use x="500.146484375" xlink:href="#ArialMT-72"/>
      <use x="533.447265625" xlink:href="#ArialMT-61"/>
      <use x="589.0625" xlink:href="#ArialMT-44"/>
      <use x="661.279296875" xlink:href="#ArialMT-75"/>
      <use x="716.89453125" xlink:href="#ArialMT-74"/>
      <use x="744.677734375" xlink:href="#ArialMT-79"/>
     </g>
    </g>
   </g>
  </g>
 </g>
 <defs>
  <clipPath id="p7669609133">
   <rect height="306.9" width="446.4" x="72.0" y="39.6"/>
  </clipPath>
 </defs>
</svg>
