<?xml version="1.0" encoding="utf-8" standalone="no"?>
<!DOCTYPE svg PUBLIC "-//W3C//DTD SVG 1.1//EN"
  "http://www.w3.org/Graphics/SVG/1.1/DTD/svg11.dtd">
<!-- Created with matplotlib (http://matplotlib.org/) -->
<svg height="396pt" version="1.1" viewBox="0 0 576 396" width="576pt" xmlns="http://www.w3.org/2000/svg" xmlns:xlink="http://www.w3.org/1999/xlink">
 <defs>
  <style type="text/css">
*{stroke-linecap:butt;stroke-linejoin:round;stroke-miterlimit:100000;}
  </style>
 </defs>
 <g id="figure_1">
  <g id="patch_1">
   <path d="M 0 396 
L 576 396 
L 576 0 
L 0 0 
z
" style="fill:#ffffff;"/>
  </g>
  <g id="axes_1">
   <g id="patch_2">
    <path d="M 72 346.5 
L 518.4 346.5 
L 518.4 39.6 
L 72 39.6 
z
" style="fill:#eaeaf2;"/>
   </g>
   <g id="matplotlib.axis_1">
    <g id="xtick_1">
     <g id="line2d_1">
      <path clip-path="url(#p6d33182e42)" d="M 518.4 346.5 
L 518.4 39.6 
" style="fill:none;stroke:#ffffff;stroke-linecap:round;"/>
     </g>
     <g id="line2d_2"/>
     <g id="line2d_3"/>
     <g id="text_1">
      <!-- 500 -->
      <defs>
       <path d="M 4.15625 35.296875 
Q 4.15625 48 6.765625 55.734375 
Q 9.375 63.484375 14.515625 67.671875 
Q 19.671875 71.875 27.484375 71.875 
Q 33.25 71.875 37.59375 69.546875 
Q 41.9375 67.234375 44.765625 62.859375 
Q 47.609375 58.5 49.21875 52.21875 
Q 50.828125 45.953125 50.828125 35.296875 
Q 50.828125 22.703125 48.234375 14.96875 
Q 45.65625 7.234375 40.5 3 
Q 35.359375 -1.21875 27.484375 -1.21875 
Q 17.140625 -1.21875 11.234375 6.203125 
Q 4.15625 15.140625 4.15625 35.296875 
M 13.1875 35.296875 
Q 13.1875 17.671875 17.3125 11.828125 
Q 21.4375 6 27.484375 6 
Q 33.546875 6 37.671875 11.859375 
Q 41.796875 17.71875 41.796875 35.296875 
Q 41.796875 52.984375 37.671875 58.78125 
Q 33.546875 64.59375 27.390625 64.59375 
Q 21.34375 64.59375 17.71875 59.46875 
Q 13.1875 52.9375 13.1875 35.296875 
" id="ArialMT-30"/>
       <path d="M 4.15625 18.75 
L 13.375 19.53125 
Q 14.40625 12.796875 18.140625 9.390625 
Q 21.875 6 27.15625 6 
Q 33.5 6 37.890625 10.78125 
Q 42.28125 15.578125 42.28125 23.484375 
Q 42.28125 31 38.0625 35.34375 
Q 33.84375 39.703125 27 39.703125 
Q 22.75 39.703125 19.328125 37.765625 
Q 15.921875 35.84375 13.96875 32.765625 
L 5.71875 33.84375 
L 12.640625 70.609375 
L 48.25 70.609375 
L 48.25 62.203125 
L 19.671875 62.203125 
L 15.828125 42.96875 
Q 22.265625 47.46875 29.34375 47.46875 
Q 38.71875 47.46875 45.15625 40.96875 
Q 51.609375 34.46875 51.609375 24.265625 
Q 51.609375 14.546875 45.953125 7.46875 
Q 39.0625 -1.21875 27.15625 -1.21875 
Q 17.390625 -1.21875 11.203125 4.25 
Q 5.03125 9.71875 4.15625 18.75 
" id="ArialMT-35"/>
      </defs>
      <g style="fill:#262626;" transform="translate(510.05859375 360.6578125)scale(0.1 -0.1)">
       <use xlink:href="#ArialMT-35"/>
       <use x="55.615234375" xlink:href="#ArialMT-30"/>
       <use x="111.23046875" xlink:href="#ArialMT-30"/>
      </g>
     </g>
    </g>
    <g id="xtick_2">
     <g id="line2d_4">
      <path clip-path="url(#p6d33182e42)" d="M 454.628571 346.5 
L 454.628571 39.6 
" style="fill:none;stroke:#ffffff;stroke-linecap:round;"/>
     </g>
     <g id="line2d_5"/>
     <g id="line2d_6"/>
     <g id="text_2">
      <!-- 1000 -->
      <defs>
       <path d="M 37.25 0 
L 28.46875 0 
L 28.46875 56 
Q 25.296875 52.984375 20.140625 49.953125 
Q 14.984375 46.921875 10.890625 45.40625 
L 10.890625 53.90625 
Q 18.265625 57.375 23.78125 62.296875 
Q 29.296875 67.234375 31.59375 71.875 
L 37.25 71.875 
z
" id="ArialMT-31"/>
      </defs>
      <g style="fill:#262626;" transform="translate(443.506696429 360.6578125)scale(0.1 -0.1)">
       <use xlink:href="#ArialMT-31"/>
       <use x="55.615234375" xlink:href="#ArialMT-30"/>
       <use x="111.23046875" xlink:href="#ArialMT-30"/>
       <use x="166.845703125" xlink:href="#ArialMT-30"/>
      </g>
     </g>
    </g>
    <g id="xtick_3">
     <g id="line2d_7">
      <path clip-path="url(#p6d33182e42)" d="M 390.857143 346.5 
L 390.857143 39.6 
" style="fill:none;stroke:#ffffff;stroke-linecap:round;"/>
     </g>
     <g id="line2d_8"/>
     <g id="line2d_9"/>
     <g id="text_3">
      <!-- 1500 -->
      <g style="fill:#262626;" transform="translate(379.735267857 360.6578125)scale(0.1 -0.1)">
       <use xlink:href="#ArialMT-31"/>
       <use x="55.615234375" xlink:href="#ArialMT-35"/>
       <use x="111.23046875" xlink:href="#ArialMT-30"/>
       <use x="166.845703125" xlink:href="#ArialMT-30"/>
      </g>
     </g>
    </g>
    <g id="xtick_4">
     <g id="line2d_10">
      <path clip-path="url(#p6d33182e42)" d="M 327.085714 346.5 
L 327.085714 39.6 
" style="fill:none;stroke:#ffffff;stroke-linecap:round;"/>
     </g>
     <g id="line2d_11"/>
     <g id="line2d_12"/>
     <g id="text_4">
      <!-- 2000 -->
      <defs>
       <path d="M 50.34375 8.453125 
L 50.34375 0 
L 3.03125 0 
Q 2.9375 3.171875 4.046875 6.109375 
Q 5.859375 10.9375 9.828125 15.625 
Q 13.8125 20.3125 21.34375 26.46875 
Q 33.015625 36.03125 37.109375 41.625 
Q 41.21875 47.21875 41.21875 52.203125 
Q 41.21875 57.421875 37.46875 61 
Q 33.734375 64.59375 27.734375 64.59375 
Q 21.390625 64.59375 17.578125 60.78125 
Q 13.765625 56.984375 13.71875 50.25 
L 4.6875 51.171875 
Q 5.609375 61.28125 11.65625 66.578125 
Q 17.71875 71.875 27.9375 71.875 
Q 38.234375 71.875 44.234375 66.15625 
Q 50.25 60.453125 50.25 52 
Q 50.25 47.703125 48.484375 43.546875 
Q 46.734375 39.40625 42.65625 34.8125 
Q 38.578125 30.21875 29.109375 22.21875 
Q 21.1875 15.578125 18.9375 13.203125 
Q 16.703125 10.84375 15.234375 8.453125 
z
" id="ArialMT-32"/>
      </defs>
      <g style="fill:#262626;" transform="translate(315.963839286 360.6578125)scale(0.1 -0.1)">
       <use xlink:href="#ArialMT-32"/>
       <use x="55.615234375" xlink:href="#ArialMT-30"/>
       <use x="111.23046875" xlink:href="#ArialMT-30"/>
       <use x="166.845703125" xlink:href="#ArialMT-30"/>
      </g>
     </g>
    </g>
    <g id="xtick_5">
     <g id="line2d_13">
      <path clip-path="url(#p6d33182e42)" d="M 263.314286 346.5 
L 263.314286 39.6 
" style="fill:none;stroke:#ffffff;stroke-linecap:round;"/>
     </g>
     <g id="line2d_14"/>
     <g id="line2d_15"/>
     <g id="text_5">
      <!-- 2500 -->
      <g style="fill:#262626;" transform="translate(252.192410714 360.6578125)scale(0.1 -0.1)">
       <use xlink:href="#ArialMT-32"/>
       <use x="55.615234375" xlink:href="#ArialMT-35"/>
       <use x="111.23046875" xlink:href="#ArialMT-30"/>
       <use x="166.845703125" xlink:href="#ArialMT-30"/>
      </g>
     </g>
    </g>
    <g id="xtick_6">
     <g id="line2d_16">
      <path clip-path="url(#p6d33182e42)" d="M 199.542857 346.5 
L 199.542857 39.6 
" style="fill:none;stroke:#ffffff;stroke-linecap:round;"/>
     </g>
     <g id="line2d_17"/>
     <g id="line2d_18"/>
     <g id="text_6">
      <!-- 3000 -->
      <defs>
       <path d="M 4.203125 18.890625 
L 12.984375 20.0625 
Q 14.5 12.59375 18.140625 9.296875 
Q 21.78125 6 27 6 
Q 33.203125 6 37.46875 10.296875 
Q 41.75 14.59375 41.75 20.953125 
Q 41.75 27 37.796875 30.921875 
Q 33.84375 34.859375 27.734375 34.859375 
Q 25.25 34.859375 21.53125 33.890625 
L 22.515625 41.609375 
Q 23.390625 41.5 23.921875 41.5 
Q 29.546875 41.5 34.03125 44.421875 
Q 38.53125 47.359375 38.53125 53.46875 
Q 38.53125 58.296875 35.25 61.46875 
Q 31.984375 64.65625 26.8125 64.65625 
Q 21.6875 64.65625 18.265625 61.421875 
Q 14.84375 58.203125 13.875 51.765625 
L 5.078125 53.328125 
Q 6.6875 62.15625 12.390625 67.015625 
Q 18.109375 71.875 26.609375 71.875 
Q 32.46875 71.875 37.390625 69.359375 
Q 42.328125 66.84375 44.9375 62.5 
Q 47.5625 58.15625 47.5625 53.265625 
Q 47.5625 48.640625 45.0625 44.828125 
Q 42.578125 41.015625 37.703125 38.765625 
Q 44.046875 37.3125 47.5625 32.6875 
Q 51.078125 28.078125 51.078125 21.140625 
Q 51.078125 11.765625 44.234375 5.25 
Q 37.40625 -1.265625 26.953125 -1.265625 
Q 17.53125 -1.265625 11.296875 4.34375 
Q 5.078125 9.96875 4.203125 18.890625 
" id="ArialMT-33"/>
      </defs>
      <g style="fill:#262626;" transform="translate(188.420982143 360.6578125)scale(0.1 -0.1)">
       <use xlink:href="#ArialMT-33"/>
       <use x="55.615234375" xlink:href="#ArialMT-30"/>
       <use x="111.23046875" xlink:href="#ArialMT-30"/>
       <use x="166.845703125" xlink:href="#ArialMT-30"/>
      </g>
     </g>
    </g>
    <g id="xtick_7">
     <g id="line2d_19">
      <path clip-path="url(#p6d33182e42)" d="M 135.771429 346.5 
L 135.771429 39.6 
" style="fill:none;stroke:#ffffff;stroke-linecap:round;"/>
     </g>
     <g id="line2d_20"/>
     <g id="line2d_21"/>
     <g id="text_7">
      <!-- 3500 -->
      <g style="fill:#262626;" transform="translate(124.649553571 360.6578125)scale(0.1 -0.1)">
       <use xlink:href="#ArialMT-33"/>
       <use x="55.615234375" xlink:href="#ArialMT-35"/>
       <use x="111.23046875" xlink:href="#ArialMT-30"/>
       <use x="166.845703125" xlink:href="#ArialMT-30"/>
      </g>
     </g>
    </g>
    <g id="xtick_8">
     <g id="line2d_22">
      <path clip-path="url(#p6d33182e42)" d="M 72 346.5 
L 72 39.6 
" style="fill:none;stroke:#ffffff;stroke-linecap:round;"/>
     </g>
     <g id="line2d_23"/>
     <g id="line2d_24"/>
     <g id="text_8">
      <!-- 4000 -->
      <defs>
       <path d="M 32.328125 0 
L 32.328125 17.140625 
L 1.265625 17.140625 
L 1.265625 25.203125 
L 33.9375 71.578125 
L 41.109375 71.578125 
L 41.109375 25.203125 
L 50.78125 25.203125 
L 50.78125 17.140625 
L 41.109375 17.140625 
L 41.109375 0 
z
M 32.328125 25.203125 
L 32.328125 57.46875 
L 9.90625 25.203125 
z
" id="ArialMT-34"/>
      </defs>
      <g style="fill:#262626;" transform="translate(60.878125 360.6578125)scale(0.1 -0.1)">
       <use xlink:href="#ArialMT-34"/>
       <use x="55.615234375" xlink:href="#ArialMT-30"/>
       <use x="111.23046875" xlink:href="#ArialMT-30"/>
       <use x="166.845703125" xlink:href="#ArialMT-30"/>
      </g>
     </g>
    </g>
    <g id="text_9">
     <!-- cm^-1 -->
     <defs>
      <path d="M 40.4375 19 
L 49.078125 17.875 
Q 47.65625 8.9375 41.8125 3.875 
Q 35.984375 -1.171875 27.484375 -1.171875 
Q 16.84375 -1.171875 10.375 5.78125 
Q 3.90625 12.75 3.90625 25.734375 
Q 3.90625 34.125 6.6875 40.421875 
Q 9.46875 46.734375 15.15625 49.875 
Q 20.84375 53.03125 27.546875 53.03125 
Q 35.984375 53.03125 41.359375 48.75 
Q 46.734375 44.484375 48.25 36.625 
L 39.703125 35.296875 
Q 38.484375 40.53125 35.375 43.15625 
Q 32.28125 45.796875 27.875 45.796875 
Q 21.234375 45.796875 17.078125 41.03125 
Q 12.9375 36.28125 12.9375 25.984375 
Q 12.9375 15.53125 16.9375 10.796875 
Q 20.953125 6.0625 27.390625 6.0625 
Q 32.5625 6.0625 36.03125 9.234375 
Q 39.5 12.40625 40.4375 19 
" id="ArialMT-63"/>
      <path d="M 11.671875 33.6875 
L 2.640625 33.6875 
L 19.875 72.796875 
L 26.953125 72.796875 
L 44.28125 33.6875 
L 35.453125 33.6875 
L 23.390625 62.84375 
z
" id="ArialMT-5e"/>
      <path d="M 3.171875 21.484375 
L 3.171875 30.328125 
L 30.171875 30.328125 
L 30.171875 21.484375 
z
" id="ArialMT-2d"/>
      <path d="M 6.59375 0 
L 6.59375 51.859375 
L 14.453125 51.859375 
L 14.453125 44.578125 
Q 16.890625 48.390625 20.9375 50.703125 
Q 25 53.03125 30.171875 53.03125 
Q 35.9375 53.03125 39.625 50.640625 
Q 43.3125 48.25 44.828125 43.953125 
Q 50.984375 53.03125 60.84375 53.03125 
Q 68.5625 53.03125 72.703125 48.75 
Q 76.859375 44.484375 76.859375 35.59375 
L 76.859375 0 
L 68.109375 0 
L 68.109375 32.671875 
Q 68.109375 37.9375 67.25 40.25 
Q 66.40625 42.578125 64.15625 43.984375 
Q 61.921875 45.40625 58.890625 45.40625 
Q 53.421875 45.40625 49.796875 41.765625 
Q 46.1875 38.140625 46.1875 30.125 
L 46.1875 0 
L 37.40625 0 
L 37.40625 33.6875 
Q 37.40625 39.546875 35.25 42.46875 
Q 33.109375 45.40625 28.21875 45.40625 
Q 24.515625 45.40625 21.359375 43.453125 
Q 18.21875 41.5 16.796875 37.734375 
Q 15.375 33.984375 15.375 26.90625 
L 15.375 0 
z
" id="ArialMT-6d"/>
     </defs>
     <g style="fill:#262626;" transform="translate(280.398125 375.51890625)scale(0.11 -0.11)">
      <use xlink:href="#ArialMT-63"/>
      <use x="50.0" xlink:href="#ArialMT-6d"/>
      <use x="133.30078125" xlink:href="#ArialMT-5e"/>
      <use x="180.224609375" xlink:href="#ArialMT-2d"/>
      <use x="213.525390625" xlink:href="#ArialMT-31"/>
     </g>
    </g>
   </g>
   <g id="matplotlib.axis_2">
    <g id="ytick_1">
     <g id="line2d_25">
      <path clip-path="url(#p6d33182e42)" d="M 72 346.5 
L 518.4 346.5 
" style="fill:none;stroke:#ffffff;stroke-linecap:round;"/>
     </g>
     <g id="line2d_26"/>
     <g id="line2d_27"/>
     <g id="text_10">
      <!-- 0.0 -->
      <defs>
       <path d="M 9.078125 0 
L 9.078125 10.015625 
L 19.09375 10.015625 
L 19.09375 0 
z
" id="ArialMT-2e"/>
      </defs>
      <g style="fill:#262626;" transform="translate(51.1 349.08515625)scale(0.1 -0.1)">
       <use xlink:href="#ArialMT-30"/>
       <use x="55.615234375" xlink:href="#ArialMT-2e"/>
       <use x="83.3984375" xlink:href="#ArialMT-30"/>
      </g>
     </g>
    </g>
    <g id="ytick_2">
     <g id="line2d_28">
      <path clip-path="url(#p6d33182e42)" d="M 72 285.12 
L 518.4 285.12 
" style="fill:none;stroke:#ffffff;stroke-linecap:round;"/>
     </g>
     <g id="line2d_29"/>
     <g id="line2d_30"/>
     <g id="text_11">
      <!-- 0.2 -->
      <g style="fill:#262626;" transform="translate(51.1 287.70515625)scale(0.1 -0.1)">
       <use xlink:href="#ArialMT-30"/>
       <use x="55.615234375" xlink:href="#ArialMT-2e"/>
       <use x="83.3984375" xlink:href="#ArialMT-32"/>
      </g>
     </g>
    </g>
    <g id="ytick_3">
     <g id="line2d_31">
      <path clip-path="url(#p6d33182e42)" d="M 72 223.74 
L 518.4 223.74 
" style="fill:none;stroke:#ffffff;stroke-linecap:round;"/>
     </g>
     <g id="line2d_32"/>
     <g id="line2d_33"/>
     <g id="text_12">
      <!-- 0.4 -->
      <g style="fill:#262626;" transform="translate(51.1 226.32515625)scale(0.1 -0.1)">
       <use xlink:href="#ArialMT-30"/>
       <use x="55.615234375" xlink:href="#ArialMT-2e"/>
       <use x="83.3984375" xlink:href="#ArialMT-34"/>
      </g>
     </g>
    </g>
    <g id="ytick_4">
     <g id="line2d_34">
      <path clip-path="url(#p6d33182e42)" d="M 72 162.36 
L 518.4 162.36 
" style="fill:none;stroke:#ffffff;stroke-linecap:round;"/>
     </g>
     <g id="line2d_35"/>
     <g id="line2d_36"/>
     <g id="text_13">
      <!-- 0.6 -->
      <defs>
       <path d="M 49.75 54.046875 
L 41.015625 53.375 
Q 39.84375 58.546875 37.703125 60.890625 
Q 34.125 64.65625 28.90625 64.65625 
Q 24.703125 64.65625 21.53125 62.3125 
Q 17.390625 59.28125 14.984375 53.46875 
Q 12.59375 47.65625 12.5 36.921875 
Q 15.671875 41.75 20.265625 44.09375 
Q 24.859375 46.4375 29.890625 46.4375 
Q 38.671875 46.4375 44.84375 39.96875 
Q 51.03125 33.5 51.03125 23.25 
Q 51.03125 16.5 48.125 10.71875 
Q 45.21875 4.9375 40.140625 1.859375 
Q 35.0625 -1.21875 28.609375 -1.21875 
Q 17.625 -1.21875 10.6875 6.859375 
Q 3.765625 14.9375 3.765625 33.5 
Q 3.765625 54.25 11.421875 63.671875 
Q 18.109375 71.875 29.4375 71.875 
Q 37.890625 71.875 43.28125 67.140625 
Q 48.6875 62.40625 49.75 54.046875 
M 13.875 23.1875 
Q 13.875 18.65625 15.796875 14.5 
Q 17.71875 10.359375 21.1875 8.171875 
Q 24.65625 6 28.46875 6 
Q 34.03125 6 38.03125 10.484375 
Q 42.046875 14.984375 42.046875 22.703125 
Q 42.046875 30.125 38.078125 34.390625 
Q 34.125 38.671875 28.125 38.671875 
Q 22.171875 38.671875 18.015625 34.390625 
Q 13.875 30.125 13.875 23.1875 
" id="ArialMT-36"/>
      </defs>
      <g style="fill:#262626;" transform="translate(51.1 164.94515625)scale(0.1 -0.1)">
       <use xlink:href="#ArialMT-30"/>
       <use x="55.615234375" xlink:href="#ArialMT-2e"/>
       <use x="83.3984375" xlink:href="#ArialMT-36"/>
      </g>
     </g>
    </g>
    <g id="ytick_5">
     <g id="line2d_37">
      <path clip-path="url(#p6d33182e42)" d="M 72 100.98 
L 518.4 100.98 
" style="fill:none;stroke:#ffffff;stroke-linecap:round;"/>
     </g>
     <g id="line2d_38"/>
     <g id="line2d_39"/>
     <g id="text_14">
      <!-- 0.8 -->
      <defs>
       <path d="M 17.671875 38.8125 
Q 12.203125 40.828125 9.5625 44.53125 
Q 6.9375 48.25 6.9375 53.421875 
Q 6.9375 61.234375 12.546875 66.546875 
Q 18.171875 71.875 27.484375 71.875 
Q 36.859375 71.875 42.578125 66.421875 
Q 48.296875 60.984375 48.296875 53.171875 
Q 48.296875 48.1875 45.671875 44.5 
Q 43.0625 40.828125 37.75 38.8125 
Q 44.34375 36.671875 47.78125 31.875 
Q 51.21875 27.09375 51.21875 20.453125 
Q 51.21875 11.28125 44.71875 5.03125 
Q 38.234375 -1.21875 27.640625 -1.21875 
Q 17.046875 -1.21875 10.546875 5.046875 
Q 4.046875 11.328125 4.046875 20.703125 
Q 4.046875 27.6875 7.59375 32.390625 
Q 11.140625 37.109375 17.671875 38.8125 
M 15.921875 53.71875 
Q 15.921875 48.640625 19.1875 45.40625 
Q 22.46875 42.1875 27.6875 42.1875 
Q 32.765625 42.1875 36.015625 45.375 
Q 39.265625 48.578125 39.265625 53.21875 
Q 39.265625 58.0625 35.90625 61.359375 
Q 32.5625 64.65625 27.59375 64.65625 
Q 22.5625 64.65625 19.234375 61.421875 
Q 15.921875 58.203125 15.921875 53.71875 
M 13.09375 20.65625 
Q 13.09375 16.890625 14.875 13.375 
Q 16.65625 9.859375 20.171875 7.921875 
Q 23.6875 6 27.734375 6 
Q 34.03125 6 38.125 10.046875 
Q 42.234375 14.109375 42.234375 20.359375 
Q 42.234375 26.703125 38.015625 30.859375 
Q 33.796875 35.015625 27.4375 35.015625 
Q 21.234375 35.015625 17.15625 30.90625 
Q 13.09375 26.8125 13.09375 20.65625 
" id="ArialMT-38"/>
      </defs>
      <g style="fill:#262626;" transform="translate(51.1 103.56515625)scale(0.1 -0.1)">
       <use xlink:href="#ArialMT-30"/>
       <use x="55.615234375" xlink:href="#ArialMT-2e"/>
       <use x="83.3984375" xlink:href="#ArialMT-38"/>
      </g>
     </g>
    </g>
    <g id="ytick_6">
     <g id="line2d_40">
      <path clip-path="url(#p6d33182e42)" d="M 72 39.6 
L 518.4 39.6 
" style="fill:none;stroke:#ffffff;stroke-linecap:round;"/>
     </g>
     <g id="line2d_41"/>
     <g id="line2d_42"/>
     <g id="text_15">
      <!-- 1.0 -->
      <g style="fill:#262626;" transform="translate(51.1 42.18515625)scale(0.1 -0.1)">
       <use xlink:href="#ArialMT-31"/>
       <use x="55.615234375" xlink:href="#ArialMT-2e"/>
       <use x="83.3984375" xlink:href="#ArialMT-30"/>
      </g>
     </g>
    </g>
    <g id="text_16">
     <!-- absorbance -->
     <defs>
      <path d="M 14.703125 0 
L 6.546875 0 
L 6.546875 71.578125 
L 15.328125 71.578125 
L 15.328125 46.046875 
Q 20.90625 53.03125 29.546875 53.03125 
Q 34.328125 53.03125 38.59375 51.09375 
Q 42.875 49.171875 45.625 45.671875 
Q 48.390625 42.1875 49.953125 37.25 
Q 51.515625 32.328125 51.515625 26.703125 
Q 51.515625 13.375 44.921875 6.09375 
Q 38.328125 -1.171875 29.109375 -1.171875 
Q 19.921875 -1.171875 14.703125 6.5 
z
M 14.59375 26.3125 
Q 14.59375 17 17.140625 12.84375 
Q 21.296875 6.0625 28.375 6.0625 
Q 34.125 6.0625 38.328125 11.0625 
Q 42.53125 16.0625 42.53125 25.984375 
Q 42.53125 36.140625 38.5 40.96875 
Q 34.46875 45.796875 28.765625 45.796875 
Q 23 45.796875 18.796875 40.796875 
Q 14.59375 35.796875 14.59375 26.3125 
" id="ArialMT-62"/>
      <path d="M 40.4375 6.390625 
Q 35.546875 2.25 31.03125 0.53125 
Q 26.515625 -1.171875 21.34375 -1.171875 
Q 12.796875 -1.171875 8.203125 3 
Q 3.609375 7.171875 3.609375 13.671875 
Q 3.609375 17.484375 5.34375 20.625 
Q 7.078125 23.78125 9.890625 25.6875 
Q 12.703125 27.59375 16.21875 28.5625 
Q 18.796875 29.25 24.03125 29.890625 
Q 34.671875 31.15625 39.703125 32.90625 
Q 39.75 34.71875 39.75 35.203125 
Q 39.75 40.578125 37.25 42.78125 
Q 33.890625 45.75 27.25 45.75 
Q 21.046875 45.75 18.09375 43.578125 
Q 15.140625 41.40625 13.71875 35.890625 
L 5.125 37.0625 
Q 6.296875 42.578125 8.984375 45.96875 
Q 11.671875 49.359375 16.75 51.1875 
Q 21.828125 53.03125 28.515625 53.03125 
Q 35.15625 53.03125 39.296875 51.46875 
Q 43.453125 49.90625 45.40625 47.53125 
Q 47.359375 45.171875 48.140625 41.546875 
Q 48.578125 39.3125 48.578125 33.453125 
L 48.578125 21.734375 
Q 48.578125 9.46875 49.140625 6.21875 
Q 49.703125 2.984375 51.375 0 
L 42.1875 0 
Q 40.828125 2.734375 40.4375 6.390625 
M 39.703125 26.03125 
Q 34.90625 24.078125 25.34375 22.703125 
Q 19.921875 21.921875 17.671875 20.9375 
Q 15.4375 19.96875 14.203125 18.09375 
Q 12.984375 16.21875 12.984375 13.921875 
Q 12.984375 10.40625 15.640625 8.0625 
Q 18.3125 5.71875 23.4375 5.71875 
Q 28.515625 5.71875 32.46875 7.9375 
Q 36.421875 10.15625 38.28125 14.015625 
Q 39.703125 17 39.703125 22.796875 
z
" id="ArialMT-61"/>
      <path d="M 42.09375 16.703125 
L 51.171875 15.578125 
Q 49.03125 7.625 43.21875 3.21875 
Q 37.40625 -1.171875 28.375 -1.171875 
Q 17 -1.171875 10.328125 5.828125 
Q 3.65625 12.84375 3.65625 25.484375 
Q 3.65625 38.578125 10.390625 45.796875 
Q 17.140625 53.03125 27.875 53.03125 
Q 38.28125 53.03125 44.875 45.953125 
Q 51.46875 38.875 51.46875 26.03125 
Q 51.46875 25.25 51.421875 23.6875 
L 12.75 23.6875 
Q 13.234375 15.140625 17.578125 10.59375 
Q 21.921875 6.0625 28.421875 6.0625 
Q 33.25 6.0625 36.671875 8.59375 
Q 40.09375 11.140625 42.09375 16.703125 
M 13.234375 30.90625 
L 42.1875 30.90625 
Q 41.609375 37.453125 38.875 40.71875 
Q 34.671875 45.796875 27.984375 45.796875 
Q 21.921875 45.796875 17.796875 41.75 
Q 13.671875 37.703125 13.234375 30.90625 
" id="ArialMT-65"/>
      <path d="M 6.5 0 
L 6.5 51.859375 
L 14.40625 51.859375 
L 14.40625 44 
Q 17.4375 49.515625 20 51.265625 
Q 22.5625 53.03125 25.640625 53.03125 
Q 30.078125 53.03125 34.671875 50.203125 
L 31.640625 42.046875 
Q 28.421875 43.953125 25.203125 43.953125 
Q 22.3125 43.953125 20.015625 42.21875 
Q 17.71875 40.484375 16.75 37.40625 
Q 15.28125 32.71875 15.28125 27.15625 
L 15.28125 0 
z
" id="ArialMT-72"/>
      <path d="M 3.078125 15.484375 
L 11.765625 16.84375 
Q 12.5 11.625 15.84375 8.84375 
Q 19.1875 6.0625 25.203125 6.0625 
Q 31.25 6.0625 34.171875 8.515625 
Q 37.109375 10.984375 37.109375 14.3125 
Q 37.109375 17.28125 34.515625 19 
Q 32.71875 20.171875 25.53125 21.96875 
Q 15.875 24.421875 12.140625 26.203125 
Q 8.40625 27.984375 6.46875 31.125 
Q 4.546875 34.28125 4.546875 38.09375 
Q 4.546875 41.546875 6.125 44.5 
Q 7.71875 47.46875 10.453125 49.421875 
Q 12.5 50.921875 16.03125 51.96875 
Q 19.578125 53.03125 23.640625 53.03125 
Q 29.734375 53.03125 34.34375 51.265625 
Q 38.96875 49.515625 41.15625 46.5 
Q 43.359375 43.5 44.1875 38.484375 
L 35.59375 37.3125 
Q 35.015625 41.3125 32.203125 43.546875 
Q 29.390625 45.796875 24.265625 45.796875 
Q 18.21875 45.796875 15.625 43.796875 
Q 13.03125 41.796875 13.03125 39.109375 
Q 13.03125 37.40625 14.109375 36.03125 
Q 15.1875 34.625 17.484375 33.6875 
Q 18.796875 33.203125 25.25 31.453125 
Q 34.578125 28.953125 38.25 27.359375 
Q 41.9375 25.78125 44.03125 22.75 
Q 46.140625 19.734375 46.140625 15.234375 
Q 46.140625 10.84375 43.578125 6.953125 
Q 41.015625 3.078125 36.171875 0.953125 
Q 31.34375 -1.171875 25.25 -1.171875 
Q 15.140625 -1.171875 9.84375 3.03125 
Q 4.546875 7.234375 3.078125 15.484375 
" id="ArialMT-73"/>
      <path d="M 3.328125 25.921875 
Q 3.328125 40.328125 11.328125 47.265625 
Q 18.015625 53.03125 27.640625 53.03125 
Q 38.328125 53.03125 45.109375 46.015625 
Q 51.90625 39.015625 51.90625 26.65625 
Q 51.90625 16.65625 48.90625 10.90625 
Q 45.90625 5.171875 40.15625 2 
Q 34.421875 -1.171875 27.640625 -1.171875 
Q 16.75 -1.171875 10.03125 5.8125 
Q 3.328125 12.796875 3.328125 25.921875 
M 12.359375 25.921875 
Q 12.359375 15.96875 16.703125 11.015625 
Q 21.046875 6.0625 27.640625 6.0625 
Q 34.1875 6.0625 38.53125 11.03125 
Q 42.875 16.015625 42.875 26.21875 
Q 42.875 35.84375 38.5 40.796875 
Q 34.125 45.75 27.640625 45.75 
Q 21.046875 45.75 16.703125 40.8125 
Q 12.359375 35.890625 12.359375 25.921875 
" id="ArialMT-6f"/>
      <path d="M 6.59375 0 
L 6.59375 51.859375 
L 14.5 51.859375 
L 14.5 44.484375 
Q 20.21875 53.03125 31 53.03125 
Q 35.6875 53.03125 39.625 51.34375 
Q 43.5625 49.65625 45.515625 46.921875 
Q 47.46875 44.1875 48.25 40.4375 
Q 48.734375 37.984375 48.734375 31.890625 
L 48.734375 0 
L 39.9375 0 
L 39.9375 31.546875 
Q 39.9375 36.921875 38.90625 39.578125 
Q 37.890625 42.234375 35.28125 43.8125 
Q 32.671875 45.40625 29.15625 45.40625 
Q 23.53125 45.40625 19.453125 41.84375 
Q 15.375 38.28125 15.375 28.328125 
L 15.375 0 
z
" id="ArialMT-6e"/>
     </defs>
     <g style="fill:#262626;" transform="translate(43.91375 221.7909375)rotate(-90.0)scale(0.11 -0.11)">
      <use xlink:href="#ArialMT-61"/>
      <use x="55.615234375" xlink:href="#ArialMT-62"/>
      <use x="111.23046875" xlink:href="#ArialMT-73"/>
      <use x="161.23046875" xlink:href="#ArialMT-6f"/>
      <use x="216.845703125" xlink:href="#ArialMT-72"/>
      <use x="250.146484375" xlink:href="#ArialMT-62"/>
      <use x="305.76171875" xlink:href="#ArialMT-61"/>
      <use x="361.376953125" xlink:href="#ArialMT-6e"/>
      <use x="416.9921875" xlink:href="#ArialMT-63"/>
      <use x="466.9921875" xlink:href="#ArialMT-65"/>
     </g>
    </g>
   </g>
   <g id="line2d_43">
    <path clip-path="url(#p6d33182e42)" d="M 505.666121 336.352497 
L 504.68149 343.745532 
L 503.698135 338.031151 
L 502.713504 329.89239 
L 501.730149 320.527428 
L 500.869234 309.966299 
L 500.00832 292.655369 
L 499.147406 277.911958 
L 498.286491 270.309423 
L 497.425577 246.252022 
L 496.564663 241.443059 
L 495.702473 235.868446 
L 494.841559 239.936887 
L 493.11973 277.402438 
L 492.258816 290.744216 
L 491.397902 297.543955 
L 490.536987 296.92205 
L 489.676073 300.081377 
L 487.954245 327.613475 
L 486.969614 332.152973 
L 485.986258 334.924865 
L 485.001627 338.240527 
L 484.018272 340.884657 
L 483.033641 342.618569 
L 481.065655 343.506854 
L 478.975227 345.878904 
L 477.868155 346.320098 
L 476.638642 345.774906 
L 475.53157 345.496373 
L 474.424498 345.645818 
L 473.317426 345.976167 
L 472.210354 345.643759 
L 471.103282 344.73538 
L 469.99621 344.037812 
L 468.889138 343.128468 
L 467.905783 340.218785 
L 466.921152 336.653671 
L 465.937797 338.088356 
L 464.953166 333.069451 
L 463.96981 322.857673 
L 463.108896 321.304462 
L 462.246706 337.19847 
L 461.263351 342.904179 
L 460.27872 344.261706 
L 459.172923 344.197666 
L 458.065851 342.530093 
L 456.097865 337.279089 
L 455.113234 334.195455 
L 454.129879 330.129866 
L 453.145248 326.999803 
L 452.161893 322.208699 
L 451.177262 319.767575 
L 450.193906 316.941724 
L 449.332992 315.642121 
L 448.470802 316.460682 
L 447.609888 314.499683 
L 446.748974 312.997511 
L 445.888059 313.618287 
L 445.027145 313.074551 
L 444.166231 311.920445 
L 442.444402 311.571158 
L 441.583488 310.836211 
L 440.722574 309.725041 
L 439.000745 305.400632 
L 438.139831 300.919882 
L 437.278917 293.245323 
L 436.418002 291.709715 
L 435.557088 293.999758 
L 434.694898 295.764093 
L 433.833984 290.888498 
L 432.97307 279.650063 
L 432.112155 269.983381 
L 431.251241 271.907304 
L 430.390327 262.420106 
L 429.529413 254.413194 
L 428.668498 270.433599 
L 427.807584 275.122237 
L 426.085755 264.591644 
L 425.224841 260.926248 
L 424.363927 258.028726 
L 422.642098 256.871326 
L 421.781184 253.220615 
L 420.918994 245.518435 
L 420.05808 241.864066 
L 419.197166 254.607887 
L 418.336251 269.570836 
L 417.475337 275.562623 
L 416.614423 276.709099 
L 415.753509 278.665982 
L 414.892594 281.659603 
L 414.03168 283.527868 
L 413.170766 282.783447 
L 412.309851 280.489165 
L 410.588023 273.517598 
L 409.727109 267.723192 
L 408.00528 252.944828 
L 407.14309 253.672726 
L 406.282176 260.506753 
L 404.560347 267.246615 
L 403.699433 267.568619 
L 402.838519 257.571156 
L 401.977605 235.032665 
L 401.11669 247.341544 
L 400.255776 251.642549 
L 399.394862 243.703444 
L 398.533947 241.861877 
L 397.673033 238.65769 
L 396.812119 228.944052 
L 395.951205 220.987255 
L 395.09029 227.78944 
L 394.229376 233.51264 
L 393.367186 254.250282 
L 392.506272 248.16422 
L 391.645358 229.956275 
L 390.784443 207.309935 
L 389.923529 174.930546 
L 389.062615 149.12657 
L 388.201701 112.634361 
L 387.340786 86.437741 
L 386.479872 86.114875 
L 384.758043 150.176975 
L 383.897129 176.991136 
L 383.036215 210.025258 
L 382.175301 232.017121 
L 381.314386 248.268377 
L 380.453472 255.305515 
L 379.591282 249.473625 
L 378.730368 231.899957 
L 377.869454 199.707871 
L 377.008539 157.581671 
L 376.147625 104.74288 
L 375.286711 63.079186 
L 374.549513 39.6 
L 373.81104 46.27377 
L 373.072567 82.342634 
L 372.211653 129.925704 
L 371.350738 183.973011 
L 370.489824 221.47723 
L 369.62891 252.870369 
L 368.767995 278.885851 
L 367.046167 311.899376 
L 365.200622 333.933756 
L 364.217266 338.997216 
L 363.232635 341.063675 
L 362.24928 342.304684 
L 361.264649 340.391214 
L 360.281294 340.866332 
L 359.296663 342.058435 
L 358.313307 344.658967 
L 357.206235 344.954847 
L 356.221605 344.563851 
L 355.238249 345.39882 
L 354.131177 344.476368 
L 353.024105 344.644839 
L 350.809961 345.360917 
L 349.702889 343.887616 
L 348.719534 344.382724 
L 347.612462 343.378427 
L 346.627831 343.941669 
L 345.644475 343.850348 
L 344.659845 342.651938 
L 343.676489 343.208268 
L 341.708503 342.80012 
L 340.723872 342.587467 
L 339.740517 342.70132 
L 337.77253 342.047136 
L 336.787899 342.402308 
L 335.804544 342.161303 
L 334.819913 341.011401 
L 333.836558 342.055858 
L 332.851927 341.956566 
L 331.868571 342.154348 
L 330.883941 341.077312 
L 329.900585 340.742139 
L 328.915954 339.716226 
L 327.932599 340.309961 
L 326.947968 340.624314 
L 324.979982 340.60569 
L 323.011995 339.359441 
L 322.02864 339.486496 
L 321.044009 338.781463 
L 320.060654 339.394643 
L 319.076023 338.875924 
L 318.092667 339.023908 
L 317.108037 338.692713 
L 316.124681 338.876482 
L 314.156695 338.607253 
L 313.172064 338.653051 
L 312.188709 339.090037 
L 311.204078 340.012458 
L 309.236091 340.011995 
L 307.268105 339.384473 
L 306.28475 336.978421 
L 305.300119 338.520271 
L 304.316763 338.405216 
L 303.332133 338.010253 
L 302.348777 338.190982 
L 301.364146 337.684022 
L 299.39616 338.741565 
L 298.412805 338.528566 
L 297.428174 337.856139 
L 296.444818 337.384386 
L 295.460187 336.226485 
L 293.492201 333.153268 
L 292.508846 332.831689 
L 291.524215 333.553659 
L 290.540859 327.475802 
L 289.556229 317.312811 
L 288.695314 305.166215 
L 286.973486 263.235501 
L 286.112571 230.972715 
L 285.251657 209.664896 
L 284.390743 198.081495 
L 282.668914 218.015335 
L 281.808 151.180579 
L 280.947086 157.270412 
L 279.225257 288.27014 
L 278.363067 327.74771 
L 277.502153 339.176869 
L 276.518798 339.547241 
L 275.534167 339.069192 
L 273.566181 338.629302 
L 271.598194 338.457052 
L 270.614839 337.899101 
L 269.630208 337.609041 
L 268.646853 337.70628 
L 266.678866 337.566769 
L 265.694235 337.421284 
L 264.71088 337.146854 
L 262.742894 336.900798 
L 261.758263 336.583958 
L 260.774907 336.597124 
L 259.790277 336.35005 
L 258.806921 335.863296 
L 257.82229 335.941775 
L 256.838935 335.709249 
L 255.854304 335.315904 
L 254.870949 335.330158 
L 253.886318 335.117186 
L 252.902962 334.689088 
L 251.918331 334.587478 
L 250.934976 334.257801 
L 245.031017 334.321842 
L 244.046386 334.242262 
L 243.063031 334.597502 
L 242.0784 334.534758 
L 240.110414 333.882886 
L 239.127058 333.495607 
L 238.142427 333.278538 
L 237.159072 332.850651 
L 235.191086 331.723011 
L 233.223099 330.244371 
L 230.270482 328.529506 
L 228.302496 327.340956 
L 227.319141 326.505546 
L 226.33451 325.389093 
L 224.366523 322.526617 
L 223.383168 320.697435 
L 221.415182 316.176565 
L 220.554267 312.304241 
L 219.693353 302.132377 
L 218.832439 286.140333 
L 217.971525 276.5738 
L 217.11061 279.328813 
L 216.249696 283.677316 
L 214.526592 297.280607 
L 213.665678 296.988002 
L 212.804763 290.934409 
L 211.082935 274.108998 
L 209.361106 251.976603 
L 208.500192 247.265983 
L 207.639278 255.875689 
L 205.917449 285.979853 
L 205.056535 296.536788 
L 203.334706 311.587955 
L 202.473792 316.831893 
L 201.611602 320.381286 
L 200.628247 322.210275 
L 199.643616 322.250373 
L 198.660261 321.398525 
L 197.67563 320.12444 
L 195.83136 316.228863 
L 194.970446 313.758546 
L 194.109531 310.734347 
L 193.248617 307.139628 
L 192.387703 304.445974 
L 191.526789 303.258501 
L 190.665874 302.648207 
L 189.803685 302.844769 
L 188.94277 303.616978 
L 188.081856 304.61909 
L 186.360027 308.035758 
L 185.499113 309.6411 
L 184.638199 310.499387 
L 183.777285 310.418274 
L 182.91637 309.878914 
L 182.055456 308.95274 
L 181.194542 307.637506 
L 180.333627 305.961661 
L 179.472713 303.780747 
L 177.750885 298.043182 
L 176.88997 294.988838 
L 175.166866 290.169686 
L 174.305952 287.970644 
L 173.445038 286.191438 
L 171.723209 281.492652 
L 170.862295 278.354914 
L 170.001381 274.503886 
L 168.279552 263.470399 
L 165.696809 242.296712 
L 164.835895 235.005507 
L 162.251877 211.150542 
L 161.390962 212.552893 
L 160.530048 224.524682 
L 158.808219 258.006153 
L 157.947305 269.645558 
L 157.086391 278.397318 
L 156.225477 284.779661 
L 155.364562 289.524845 
L 154.503648 293.251396 
L 152.781819 298.705723 
L 151.920905 300.662952 
L 150.199077 303.356677 
L 148.475973 305.568107 
L 146.754144 307.558392 
L 145.89323 308.100271 
L 145.032315 309.378124 
L 144.171401 310.189489 
L 143.310487 310.689022 
L 142.449573 312.177896 
L 141.588658 312.771592 
L 140.727744 313.523007 
L 139.86683 314.428551 
L 139.005915 314.594089 
L 135.562258 318.317873 
L 134.577627 320.123606 
L 133.594272 320.97036 
L 132.609641 321.984668 
L 131.626286 324.018748 
L 130.641655 324.815503 
L 129.658299 326.701578 
L 128.673669 327.987511 
L 127.690313 327.434202 
L 126.705682 330.682479 
L 125.722327 330.669926 
L 124.737696 329.102427 
L 123.754341 328.729907 
L 122.76971 330.844745 
L 121.786354 333.455697 
L 120.801723 332.418048 
L 119.818368 330.88465 
L 118.833737 336.536901 
L 117.850382 338.9845 
L 116.865751 339.292548 
L 115.882395 342.9692 
L 114.897765 342.037259 
L 113.914409 340.164255 
L 112.929778 341.852513 
L 111.946423 338.036703 
L 110.961792 337.661427 
L 109.978437 336.462419 
L 108.993806 339.211712 
L 108.01045 335.631378 
L 107.025819 331.242675 
L 106.042464 334.042801 
L 105.057833 339.590065 
L 104.074478 340.567895 
L 103.089847 343.805464 
L 102.106491 344.325956 
L 100.999419 345.144402 
L 99.892347 345.127641 
L 98.785275 344.996574 
L 97.800645 343.118751 
L 96.817289 344.626023 
L 95.710217 342.452971 
L 94.725586 343.062693 
L 93.742231 343.360597 
L 92.7576 342.250249 
L 91.774245 343.656748 
L 90.789614 343.121481 
L 89.806258 343.029876 
L 88.821627 343.11062 
L 87.838272 344.063571 
L 86.853641 343.552913 
L 85.870286 344.319051 
L 84.885655 342.799955 
L 83.902299 345.173047 
L 82.795227 344.409842 
L 81.688155 344.3825 
L 80.581083 344.805054 
L 78.366939 345.000488 
L 77.259867 345.107357 
L 76.152795 344.967151 
L 73.938651 345.423382 
L 72.831579 345.362754 
L 72.831579 345.362754 
" style="fill:none;stroke:#4c72b0;stroke-linecap:round;stroke-width:1.75;"/>
   </g>
   <g id="patch_3">
    <path d="M 72 39.6 
L 518.4 39.6 
" style="fill:none;"/>
   </g>
   <g id="patch_4">
    <path d="M 518.4 346.5 
L 518.4 39.6 
" style="fill:none;"/>
   </g>
   <g id="patch_5">
    <path d="M 72 346.5 
L 518.4 346.5 
" style="fill:none;"/>
   </g>
   <g id="patch_6">
    <path d="M 72 346.5 
L 72 39.6 
" style="fill:none;"/>
   </g>
   <g id="text_17">
    <!-- Penn_ExtraDuty Felt -->
    <defs>
     <path d="M 0.734375 0 
L 19.671875 26.953125 
L 2.15625 51.859375 
L 13.140625 51.859375 
L 21.09375 39.703125 
Q 23.34375 36.234375 24.703125 33.890625 
Q 26.859375 37.109375 28.65625 39.59375 
L 37.40625 51.859375 
L 47.90625 51.859375 
L 29.984375 27.4375 
L 49.265625 0 
L 38.484375 0 
L 27.828125 16.109375 
L 25 20.453125 
L 11.375 0 
z
" id="ArialMT-78"/>
     <path d="M 6.203125 -19.96875 
L 5.21875 -11.71875 
Q 8.109375 -12.5 10.25 -12.5 
Q 13.1875 -12.5 14.9375 -11.515625 
Q 16.703125 -10.546875 17.828125 -8.796875 
Q 18.65625 -7.46875 20.515625 -2.25 
Q 20.75 -1.515625 21.296875 -0.09375 
L 1.609375 51.859375 
L 11.078125 51.859375 
L 21.875 21.828125 
Q 23.96875 16.109375 25.640625 9.8125 
Q 27.15625 15.875 29.25 21.625 
L 40.328125 51.859375 
L 49.125 51.859375 
L 29.390625 -0.875 
Q 26.21875 -9.421875 24.46875 -12.640625 
Q 22.125 -17 19.09375 -19.015625 
Q 16.0625 -21.046875 11.859375 -21.046875 
Q 9.328125 -21.046875 6.203125 -19.96875 
" id="ArialMT-79"/>
     <path d="M 25.78125 7.859375 
L 27.046875 0.09375 
Q 23.34375 -0.6875 20.40625 -0.6875 
Q 15.625 -0.6875 12.984375 0.828125 
Q 10.359375 2.34375 9.28125 4.8125 
Q 8.203125 7.28125 8.203125 15.1875 
L 8.203125 45.015625 
L 1.765625 45.015625 
L 1.765625 51.859375 
L 8.203125 51.859375 
L 8.203125 64.703125 
L 16.9375 69.96875 
L 16.9375 51.859375 
L 25.78125 51.859375 
L 25.78125 45.015625 
L 16.9375 45.015625 
L 16.9375 14.703125 
Q 16.9375 10.9375 17.40625 9.859375 
Q 17.875 8.796875 18.921875 8.15625 
Q 19.96875 7.515625 21.921875 7.515625 
Q 23.390625 7.515625 25.78125 7.859375 
" id="ArialMT-74"/>
     <path d="M 40.578125 0 
L 40.578125 7.625 
Q 34.515625 -1.171875 24.125 -1.171875 
Q 19.53125 -1.171875 15.546875 0.578125 
Q 11.578125 2.34375 9.640625 5 
Q 7.71875 7.671875 6.9375 11.53125 
Q 6.390625 14.109375 6.390625 19.734375 
L 6.390625 51.859375 
L 15.1875 51.859375 
L 15.1875 23.09375 
Q 15.1875 16.21875 15.71875 13.8125 
Q 16.546875 10.359375 19.234375 8.375 
Q 21.921875 6.390625 25.875 6.390625 
Q 29.828125 6.390625 33.296875 8.421875 
Q 36.765625 10.453125 38.203125 13.9375 
Q 39.65625 17.4375 39.65625 24.078125 
L 39.65625 51.859375 
L 48.4375 51.859375 
L 48.4375 0 
z
" id="ArialMT-75"/>
     <path d="M 7.71875 0 
L 7.71875 71.578125 
L 34.71875 71.578125 
Q 41.84375 71.578125 45.609375 70.90625 
Q 50.875 70.015625 54.4375 67.546875 
Q 58.015625 65.09375 60.1875 60.640625 
Q 62.359375 56.203125 62.359375 50.875 
Q 62.359375 41.75 56.546875 35.421875 
Q 50.734375 29.109375 35.546875 29.109375 
L 17.1875 29.109375 
L 17.1875 0 
z
M 17.1875 37.546875 
L 35.6875 37.546875 
Q 44.875 37.546875 48.734375 40.96875 
Q 52.59375 44.390625 52.59375 50.59375 
Q 52.59375 55.078125 50.3125 58.265625 
Q 48.046875 61.46875 44.34375 62.5 
Q 41.9375 63.140625 35.5 63.140625 
L 17.1875 63.140625 
z
" id="ArialMT-50"/>
     <path d="M 7.90625 0 
L 7.90625 71.578125 
L 59.671875 71.578125 
L 59.671875 63.140625 
L 17.390625 63.140625 
L 17.390625 41.21875 
L 56.984375 41.21875 
L 56.984375 32.8125 
L 17.390625 32.8125 
L 17.390625 8.453125 
L 61.328125 8.453125 
L 61.328125 0 
z
" id="ArialMT-45"/>
     <path d="M 7.71875 0 
L 7.71875 71.578125 
L 32.375 71.578125 
Q 40.71875 71.578125 45.125 70.5625 
Q 51.265625 69.140625 55.609375 65.4375 
Q 61.28125 60.640625 64.078125 53.1875 
Q 66.890625 45.75 66.890625 36.1875 
Q 66.890625 28.03125 64.984375 21.734375 
Q 63.09375 15.4375 60.109375 11.296875 
Q 57.125 7.171875 53.578125 4.796875 
Q 50.046875 2.4375 45.046875 1.21875 
Q 40.046875 0 33.546875 0 
z
M 17.1875 8.453125 
L 32.46875 8.453125 
Q 39.546875 8.453125 43.578125 9.765625 
Q 47.609375 11.078125 50 13.484375 
Q 53.375 16.84375 55.25 22.53125 
Q 57.125 28.21875 57.125 36.328125 
Q 57.125 47.5625 53.4375 53.59375 
Q 49.75 59.625 44.484375 61.671875 
Q 40.671875 63.140625 32.234375 63.140625 
L 17.1875 63.140625 
z
" id="ArialMT-44"/>
     <path d="M 8.203125 0 
L 8.203125 71.578125 
L 56.5 71.578125 
L 56.5 63.140625 
L 17.671875 63.140625 
L 17.671875 40.96875 
L 51.265625 40.96875 
L 51.265625 32.515625 
L 17.671875 32.515625 
L 17.671875 0 
z
" id="ArialMT-46"/>
     <path d="M 6.390625 0 
L 6.390625 71.578125 
L 15.1875 71.578125 
L 15.1875 0 
z
" id="ArialMT-6c"/>
     <path d="M -1.515625 -19.875 
L -1.515625 -13.53125 
L 56.734375 -13.53125 
L 56.734375 -19.875 
z
" id="ArialMT-5f"/>
     <path id="ArialMT-20"/>
    </defs>
    <g style="fill:#262626;" transform="translate(239.8434375 34.6)scale(0.12 -0.12)">
     <use xlink:href="#ArialMT-50"/>
     <use x="66.69921875" xlink:href="#ArialMT-65"/>
     <use x="122.314453125" xlink:href="#ArialMT-6e"/>
     <use x="177.9296875" xlink:href="#ArialMT-6e"/>
     <use x="233.544921875" xlink:href="#ArialMT-5f"/>
     <use x="289.16015625" xlink:href="#ArialMT-45"/>
     <use x="355.859375" xlink:href="#ArialMT-78"/>
     <use x="405.859375" xlink:href="#ArialMT-74"/>
     <use x="433.642578125" xlink:href="#ArialMT-72"/>
     <use x="466.943359375" xlink:href="#ArialMT-61"/>
     <use x="522.55859375" xlink:href="#ArialMT-44"/>
     <use x="594.775390625" xlink:href="#ArialMT-75"/>
     <use x="650.390625" xlink:href="#ArialMT-74"/>
     <use x="678.173828125" xlink:href="#ArialMT-79"/>
     <use x="728.173828125" xlink:href="#ArialMT-20"/>
     <use x="755.95703125" xlink:href="#ArialMT-46"/>
     <use x="817.041015625" xlink:href="#ArialMT-65"/>
     <use x="872.65625" xlink:href="#ArialMT-6c"/>
     <use x="894.873046875" xlink:href="#ArialMT-74"/>
    </g>
   </g>
   <g id="legend_1">
    <g id="line2d_44">
     <path d="M 408.585938 52.257812 
L 428.585938 52.257812 
" style="fill:none;stroke:#4c72b0;stroke-linecap:round;stroke-width:1.75;"/>
    </g>
    <g id="line2d_45"/>
    <g id="text_18">
     <!-- Penn_ExtraDuty -->
     <g style="fill:#262626;" transform="translate(436.5859375 55.7578125)scale(0.1 -0.1)">
      <use xlink:href="#ArialMT-50"/>
      <use x="66.69921875" xlink:href="#ArialMT-65"/>
      <use x="122.314453125" xlink:href="#ArialMT-6e"/>
      <use x="177.9296875" xlink:href="#ArialMT-6e"/>
      <use x="233.544921875" xlink:href="#ArialMT-5f"/>
      <use x="289.16015625" xlink:href="#ArialMT-45"/>
      <use x="355.859375" xlink:href="#ArialMT-78"/>
      <use x="405.859375" xlink:href="#ArialMT-74"/>
      <use x="433.642578125" xlink:href="#ArialMT-72"/>
      <use x="466.943359375" xlink:href="#ArialMT-61"/>
      <use x="522.55859375" xlink:href="#ArialMT-44"/>
      <use x="594.775390625" xlink:href="#ArialMT-75"/>
      <use x="650.390625" xlink:href="#ArialMT-74"/>
      <use x="678.173828125" xlink:href="#ArialMT-79"/>
     </g>
    </g>
   </g>
  </g>
 </g>
 <defs>
  <clipPath id="p6d33182e42">
   <rect height="306.9" width="446.4" x="72.0" y="39.6"/>
  </clipPath>
 </defs>
</svg>
