<?xml version="1.0" encoding="utf-8" standalone="no"?>
<!DOCTYPE svg PUBLIC "-//W3C//DTD SVG 1.1//EN"
  "http://www.w3.org/Graphics/SVG/1.1/DTD/svg11.dtd">
<!-- Created with matplotlib (http://matplotlib.org/) -->
<svg height="396pt" version="1.1" viewBox="0 0 576 396" width="576pt" xmlns="http://www.w3.org/2000/svg" xmlns:xlink="http://www.w3.org/1999/xlink">
 <defs>
  <style type="text/css">
*{stroke-linecap:butt;stroke-linejoin:round;stroke-miterlimit:100000;}
  </style>
 </defs>
 <g id="figure_1">
  <g id="patch_1">
   <path d="M 0 396 
L 576 396 
L 576 0 
L 0 0 
z
" style="fill:#ffffff;"/>
  </g>
  <g id="axes_1">
   <g id="patch_2">
    <path d="M 72 346.5 
L 518.4 346.5 
L 518.4 39.6 
L 72 39.6 
z
" style="fill:#eaeaf2;"/>
   </g>
   <g id="matplotlib.axis_1">
    <g id="xtick_1">
     <g id="line2d_1">
      <path clip-path="url(#p98efa1d86b)" d="M 518.4 346.5 
L 518.4 39.6 
" style="fill:none;stroke:#ffffff;stroke-linecap:round;"/>
     </g>
     <g id="line2d_2"/>
     <g id="line2d_3"/>
     <g id="text_1">
      <!-- 500 -->
      <defs>
       <path d="M 4.15625 35.296875 
Q 4.15625 48 6.765625 55.734375 
Q 9.375 63.484375 14.515625 67.671875 
Q 19.671875 71.875 27.484375 71.875 
Q 33.25 71.875 37.59375 69.546875 
Q 41.9375 67.234375 44.765625 62.859375 
Q 47.609375 58.5 49.21875 52.21875 
Q 50.828125 45.953125 50.828125 35.296875 
Q 50.828125 22.703125 48.234375 14.96875 
Q 45.65625 7.234375 40.5 3 
Q 35.359375 -1.21875 27.484375 -1.21875 
Q 17.140625 -1.21875 11.234375 6.203125 
Q 4.15625 15.140625 4.15625 35.296875 
M 13.1875 35.296875 
Q 13.1875 17.671875 17.3125 11.828125 
Q 21.4375 6 27.484375 6 
Q 33.546875 6 37.671875 11.859375 
Q 41.796875 17.71875 41.796875 35.296875 
Q 41.796875 52.984375 37.671875 58.78125 
Q 33.546875 64.59375 27.390625 64.59375 
Q 21.34375 64.59375 17.71875 59.46875 
Q 13.1875 52.9375 13.1875 35.296875 
" id="ArialMT-30"/>
       <path d="M 4.15625 18.75 
L 13.375 19.53125 
Q 14.40625 12.796875 18.140625 9.390625 
Q 21.875 6 27.15625 6 
Q 33.5 6 37.890625 10.78125 
Q 42.28125 15.578125 42.28125 23.484375 
Q 42.28125 31 38.0625 35.34375 
Q 33.84375 39.703125 27 39.703125 
Q 22.75 39.703125 19.328125 37.765625 
Q 15.921875 35.84375 13.96875 32.765625 
L 5.71875 33.84375 
L 12.640625 70.609375 
L 48.25 70.609375 
L 48.25 62.203125 
L 19.671875 62.203125 
L 15.828125 42.96875 
Q 22.265625 47.46875 29.34375 47.46875 
Q 38.71875 47.46875 45.15625 40.96875 
Q 51.609375 34.46875 51.609375 24.265625 
Q 51.609375 14.546875 45.953125 7.46875 
Q 39.0625 -1.21875 27.15625 -1.21875 
Q 17.390625 -1.21875 11.203125 4.25 
Q 5.03125 9.71875 4.15625 18.75 
" id="ArialMT-35"/>
      </defs>
      <g style="fill:#262626;" transform="translate(510.05859375 360.6578125)scale(0.1 -0.1)">
       <use xlink:href="#ArialMT-35"/>
       <use x="55.615234375" xlink:href="#ArialMT-30"/>
       <use x="111.23046875" xlink:href="#ArialMT-30"/>
      </g>
     </g>
    </g>
    <g id="xtick_2">
     <g id="line2d_4">
      <path clip-path="url(#p98efa1d86b)" d="M 454.628571 346.5 
L 454.628571 39.6 
" style="fill:none;stroke:#ffffff;stroke-linecap:round;"/>
     </g>
     <g id="line2d_5"/>
     <g id="line2d_6"/>
     <g id="text_2">
      <!-- 1000 -->
      <defs>
       <path d="M 37.25 0 
L 28.46875 0 
L 28.46875 56 
Q 25.296875 52.984375 20.140625 49.953125 
Q 14.984375 46.921875 10.890625 45.40625 
L 10.890625 53.90625 
Q 18.265625 57.375 23.78125 62.296875 
Q 29.296875 67.234375 31.59375 71.875 
L 37.25 71.875 
z
" id="ArialMT-31"/>
      </defs>
      <g style="fill:#262626;" transform="translate(443.506696429 360.6578125)scale(0.1 -0.1)">
       <use xlink:href="#ArialMT-31"/>
       <use x="55.615234375" xlink:href="#ArialMT-30"/>
       <use x="111.23046875" xlink:href="#ArialMT-30"/>
       <use x="166.845703125" xlink:href="#ArialMT-30"/>
      </g>
     </g>
    </g>
    <g id="xtick_3">
     <g id="line2d_7">
      <path clip-path="url(#p98efa1d86b)" d="M 390.857143 346.5 
L 390.857143 39.6 
" style="fill:none;stroke:#ffffff;stroke-linecap:round;"/>
     </g>
     <g id="line2d_8"/>
     <g id="line2d_9"/>
     <g id="text_3">
      <!-- 1500 -->
      <g style="fill:#262626;" transform="translate(379.735267857 360.6578125)scale(0.1 -0.1)">
       <use xlink:href="#ArialMT-31"/>
       <use x="55.615234375" xlink:href="#ArialMT-35"/>
       <use x="111.23046875" xlink:href="#ArialMT-30"/>
       <use x="166.845703125" xlink:href="#ArialMT-30"/>
      </g>
     </g>
    </g>
    <g id="xtick_4">
     <g id="line2d_10">
      <path clip-path="url(#p98efa1d86b)" d="M 327.085714 346.5 
L 327.085714 39.6 
" style="fill:none;stroke:#ffffff;stroke-linecap:round;"/>
     </g>
     <g id="line2d_11"/>
     <g id="line2d_12"/>
     <g id="text_4">
      <!-- 2000 -->
      <defs>
       <path d="M 50.34375 8.453125 
L 50.34375 0 
L 3.03125 0 
Q 2.9375 3.171875 4.046875 6.109375 
Q 5.859375 10.9375 9.828125 15.625 
Q 13.8125 20.3125 21.34375 26.46875 
Q 33.015625 36.03125 37.109375 41.625 
Q 41.21875 47.21875 41.21875 52.203125 
Q 41.21875 57.421875 37.46875 61 
Q 33.734375 64.59375 27.734375 64.59375 
Q 21.390625 64.59375 17.578125 60.78125 
Q 13.765625 56.984375 13.71875 50.25 
L 4.6875 51.171875 
Q 5.609375 61.28125 11.65625 66.578125 
Q 17.71875 71.875 27.9375 71.875 
Q 38.234375 71.875 44.234375 66.15625 
Q 50.25 60.453125 50.25 52 
Q 50.25 47.703125 48.484375 43.546875 
Q 46.734375 39.40625 42.65625 34.8125 
Q 38.578125 30.21875 29.109375 22.21875 
Q 21.1875 15.578125 18.9375 13.203125 
Q 16.703125 10.84375 15.234375 8.453125 
z
" id="ArialMT-32"/>
      </defs>
      <g style="fill:#262626;" transform="translate(315.963839286 360.6578125)scale(0.1 -0.1)">
       <use xlink:href="#ArialMT-32"/>
       <use x="55.615234375" xlink:href="#ArialMT-30"/>
       <use x="111.23046875" xlink:href="#ArialMT-30"/>
       <use x="166.845703125" xlink:href="#ArialMT-30"/>
      </g>
     </g>
    </g>
    <g id="xtick_5">
     <g id="line2d_13">
      <path clip-path="url(#p98efa1d86b)" d="M 263.314286 346.5 
L 263.314286 39.6 
" style="fill:none;stroke:#ffffff;stroke-linecap:round;"/>
     </g>
     <g id="line2d_14"/>
     <g id="line2d_15"/>
     <g id="text_5">
      <!-- 2500 -->
      <g style="fill:#262626;" transform="translate(252.192410714 360.6578125)scale(0.1 -0.1)">
       <use xlink:href="#ArialMT-32"/>
       <use x="55.615234375" xlink:href="#ArialMT-35"/>
       <use x="111.23046875" xlink:href="#ArialMT-30"/>
       <use x="166.845703125" xlink:href="#ArialMT-30"/>
      </g>
     </g>
    </g>
    <g id="xtick_6">
     <g id="line2d_16">
      <path clip-path="url(#p98efa1d86b)" d="M 199.542857 346.5 
L 199.542857 39.6 
" style="fill:none;stroke:#ffffff;stroke-linecap:round;"/>
     </g>
     <g id="line2d_17"/>
     <g id="line2d_18"/>
     <g id="text_6">
      <!-- 3000 -->
      <defs>
       <path d="M 4.203125 18.890625 
L 12.984375 20.0625 
Q 14.5 12.59375 18.140625 9.296875 
Q 21.78125 6 27 6 
Q 33.203125 6 37.46875 10.296875 
Q 41.75 14.59375 41.75 20.953125 
Q 41.75 27 37.796875 30.921875 
Q 33.84375 34.859375 27.734375 34.859375 
Q 25.25 34.859375 21.53125 33.890625 
L 22.515625 41.609375 
Q 23.390625 41.5 23.921875 41.5 
Q 29.546875 41.5 34.03125 44.421875 
Q 38.53125 47.359375 38.53125 53.46875 
Q 38.53125 58.296875 35.25 61.46875 
Q 31.984375 64.65625 26.8125 64.65625 
Q 21.6875 64.65625 18.265625 61.421875 
Q 14.84375 58.203125 13.875 51.765625 
L 5.078125 53.328125 
Q 6.6875 62.15625 12.390625 67.015625 
Q 18.109375 71.875 26.609375 71.875 
Q 32.46875 71.875 37.390625 69.359375 
Q 42.328125 66.84375 44.9375 62.5 
Q 47.5625 58.15625 47.5625 53.265625 
Q 47.5625 48.640625 45.0625 44.828125 
Q 42.578125 41.015625 37.703125 38.765625 
Q 44.046875 37.3125 47.5625 32.6875 
Q 51.078125 28.078125 51.078125 21.140625 
Q 51.078125 11.765625 44.234375 5.25 
Q 37.40625 -1.265625 26.953125 -1.265625 
Q 17.53125 -1.265625 11.296875 4.34375 
Q 5.078125 9.96875 4.203125 18.890625 
" id="ArialMT-33"/>
      </defs>
      <g style="fill:#262626;" transform="translate(188.420982143 360.6578125)scale(0.1 -0.1)">
       <use xlink:href="#ArialMT-33"/>
       <use x="55.615234375" xlink:href="#ArialMT-30"/>
       <use x="111.23046875" xlink:href="#ArialMT-30"/>
       <use x="166.845703125" xlink:href="#ArialMT-30"/>
      </g>
     </g>
    </g>
    <g id="xtick_7">
     <g id="line2d_19">
      <path clip-path="url(#p98efa1d86b)" d="M 135.771429 346.5 
L 135.771429 39.6 
" style="fill:none;stroke:#ffffff;stroke-linecap:round;"/>
     </g>
     <g id="line2d_20"/>
     <g id="line2d_21"/>
     <g id="text_7">
      <!-- 3500 -->
      <g style="fill:#262626;" transform="translate(124.649553571 360.6578125)scale(0.1 -0.1)">
       <use xlink:href="#ArialMT-33"/>
       <use x="55.615234375" xlink:href="#ArialMT-35"/>
       <use x="111.23046875" xlink:href="#ArialMT-30"/>
       <use x="166.845703125" xlink:href="#ArialMT-30"/>
      </g>
     </g>
    </g>
    <g id="xtick_8">
     <g id="line2d_22">
      <path clip-path="url(#p98efa1d86b)" d="M 72 346.5 
L 72 39.6 
" style="fill:none;stroke:#ffffff;stroke-linecap:round;"/>
     </g>
     <g id="line2d_23"/>
     <g id="line2d_24"/>
     <g id="text_8">
      <!-- 4000 -->
      <defs>
       <path d="M 32.328125 0 
L 32.328125 17.140625 
L 1.265625 17.140625 
L 1.265625 25.203125 
L 33.9375 71.578125 
L 41.109375 71.578125 
L 41.109375 25.203125 
L 50.78125 25.203125 
L 50.78125 17.140625 
L 41.109375 17.140625 
L 41.109375 0 
z
M 32.328125 25.203125 
L 32.328125 57.46875 
L 9.90625 25.203125 
z
" id="ArialMT-34"/>
      </defs>
      <g style="fill:#262626;" transform="translate(60.878125 360.6578125)scale(0.1 -0.1)">
       <use xlink:href="#ArialMT-34"/>
       <use x="55.615234375" xlink:href="#ArialMT-30"/>
       <use x="111.23046875" xlink:href="#ArialMT-30"/>
       <use x="166.845703125" xlink:href="#ArialMT-30"/>
      </g>
     </g>
    </g>
    <g id="text_9">
     <!-- cm^-1 -->
     <defs>
      <path d="M 40.4375 19 
L 49.078125 17.875 
Q 47.65625 8.9375 41.8125 3.875 
Q 35.984375 -1.171875 27.484375 -1.171875 
Q 16.84375 -1.171875 10.375 5.78125 
Q 3.90625 12.75 3.90625 25.734375 
Q 3.90625 34.125 6.6875 40.421875 
Q 9.46875 46.734375 15.15625 49.875 
Q 20.84375 53.03125 27.546875 53.03125 
Q 35.984375 53.03125 41.359375 48.75 
Q 46.734375 44.484375 48.25 36.625 
L 39.703125 35.296875 
Q 38.484375 40.53125 35.375 43.15625 
Q 32.28125 45.796875 27.875 45.796875 
Q 21.234375 45.796875 17.078125 41.03125 
Q 12.9375 36.28125 12.9375 25.984375 
Q 12.9375 15.53125 16.9375 10.796875 
Q 20.953125 6.0625 27.390625 6.0625 
Q 32.5625 6.0625 36.03125 9.234375 
Q 39.5 12.40625 40.4375 19 
" id="ArialMT-63"/>
      <path d="M 11.671875 33.6875 
L 2.640625 33.6875 
L 19.875 72.796875 
L 26.953125 72.796875 
L 44.28125 33.6875 
L 35.453125 33.6875 
L 23.390625 62.84375 
z
" id="ArialMT-5e"/>
      <path d="M 3.171875 21.484375 
L 3.171875 30.328125 
L 30.171875 30.328125 
L 30.171875 21.484375 
z
" id="ArialMT-2d"/>
      <path d="M 6.59375 0 
L 6.59375 51.859375 
L 14.453125 51.859375 
L 14.453125 44.578125 
Q 16.890625 48.390625 20.9375 50.703125 
Q 25 53.03125 30.171875 53.03125 
Q 35.9375 53.03125 39.625 50.640625 
Q 43.3125 48.25 44.828125 43.953125 
Q 50.984375 53.03125 60.84375 53.03125 
Q 68.5625 53.03125 72.703125 48.75 
Q 76.859375 44.484375 76.859375 35.59375 
L 76.859375 0 
L 68.109375 0 
L 68.109375 32.671875 
Q 68.109375 37.9375 67.25 40.25 
Q 66.40625 42.578125 64.15625 43.984375 
Q 61.921875 45.40625 58.890625 45.40625 
Q 53.421875 45.40625 49.796875 41.765625 
Q 46.1875 38.140625 46.1875 30.125 
L 46.1875 0 
L 37.40625 0 
L 37.40625 33.6875 
Q 37.40625 39.546875 35.25 42.46875 
Q 33.109375 45.40625 28.21875 45.40625 
Q 24.515625 45.40625 21.359375 43.453125 
Q 18.21875 41.5 16.796875 37.734375 
Q 15.375 33.984375 15.375 26.90625 
L 15.375 0 
z
" id="ArialMT-6d"/>
     </defs>
     <g style="fill:#262626;" transform="translate(280.398125 375.51890625)scale(0.11 -0.11)">
      <use xlink:href="#ArialMT-63"/>
      <use x="50.0" xlink:href="#ArialMT-6d"/>
      <use x="133.30078125" xlink:href="#ArialMT-5e"/>
      <use x="180.224609375" xlink:href="#ArialMT-2d"/>
      <use x="213.525390625" xlink:href="#ArialMT-31"/>
     </g>
    </g>
   </g>
   <g id="matplotlib.axis_2">
    <g id="ytick_1">
     <g id="line2d_25">
      <path clip-path="url(#p98efa1d86b)" d="M 72 346.5 
L 518.4 346.5 
" style="fill:none;stroke:#ffffff;stroke-linecap:round;"/>
     </g>
     <g id="line2d_26"/>
     <g id="line2d_27"/>
     <g id="text_10">
      <!-- 0.0 -->
      <defs>
       <path d="M 9.078125 0 
L 9.078125 10.015625 
L 19.09375 10.015625 
L 19.09375 0 
z
" id="ArialMT-2e"/>
      </defs>
      <g style="fill:#262626;" transform="translate(51.1 349.08515625)scale(0.1 -0.1)">
       <use xlink:href="#ArialMT-30"/>
       <use x="55.615234375" xlink:href="#ArialMT-2e"/>
       <use x="83.3984375" xlink:href="#ArialMT-30"/>
      </g>
     </g>
    </g>
    <g id="ytick_2">
     <g id="line2d_28">
      <path clip-path="url(#p98efa1d86b)" d="M 72 285.12 
L 518.4 285.12 
" style="fill:none;stroke:#ffffff;stroke-linecap:round;"/>
     </g>
     <g id="line2d_29"/>
     <g id="line2d_30"/>
     <g id="text_11">
      <!-- 0.2 -->
      <g style="fill:#262626;" transform="translate(51.1 287.70515625)scale(0.1 -0.1)">
       <use xlink:href="#ArialMT-30"/>
       <use x="55.615234375" xlink:href="#ArialMT-2e"/>
       <use x="83.3984375" xlink:href="#ArialMT-32"/>
      </g>
     </g>
    </g>
    <g id="ytick_3">
     <g id="line2d_31">
      <path clip-path="url(#p98efa1d86b)" d="M 72 223.74 
L 518.4 223.74 
" style="fill:none;stroke:#ffffff;stroke-linecap:round;"/>
     </g>
     <g id="line2d_32"/>
     <g id="line2d_33"/>
     <g id="text_12">
      <!-- 0.4 -->
      <g style="fill:#262626;" transform="translate(51.1 226.32515625)scale(0.1 -0.1)">
       <use xlink:href="#ArialMT-30"/>
       <use x="55.615234375" xlink:href="#ArialMT-2e"/>
       <use x="83.3984375" xlink:href="#ArialMT-34"/>
      </g>
     </g>
    </g>
    <g id="ytick_4">
     <g id="line2d_34">
      <path clip-path="url(#p98efa1d86b)" d="M 72 162.36 
L 518.4 162.36 
" style="fill:none;stroke:#ffffff;stroke-linecap:round;"/>
     </g>
     <g id="line2d_35"/>
     <g id="line2d_36"/>
     <g id="text_13">
      <!-- 0.6 -->
      <defs>
       <path d="M 49.75 54.046875 
L 41.015625 53.375 
Q 39.84375 58.546875 37.703125 60.890625 
Q 34.125 64.65625 28.90625 64.65625 
Q 24.703125 64.65625 21.53125 62.3125 
Q 17.390625 59.28125 14.984375 53.46875 
Q 12.59375 47.65625 12.5 36.921875 
Q 15.671875 41.75 20.265625 44.09375 
Q 24.859375 46.4375 29.890625 46.4375 
Q 38.671875 46.4375 44.84375 39.96875 
Q 51.03125 33.5 51.03125 23.25 
Q 51.03125 16.5 48.125 10.71875 
Q 45.21875 4.9375 40.140625 1.859375 
Q 35.0625 -1.21875 28.609375 -1.21875 
Q 17.625 -1.21875 10.6875 6.859375 
Q 3.765625 14.9375 3.765625 33.5 
Q 3.765625 54.25 11.421875 63.671875 
Q 18.109375 71.875 29.4375 71.875 
Q 37.890625 71.875 43.28125 67.140625 
Q 48.6875 62.40625 49.75 54.046875 
M 13.875 23.1875 
Q 13.875 18.65625 15.796875 14.5 
Q 17.71875 10.359375 21.1875 8.171875 
Q 24.65625 6 28.46875 6 
Q 34.03125 6 38.03125 10.484375 
Q 42.046875 14.984375 42.046875 22.703125 
Q 42.046875 30.125 38.078125 34.390625 
Q 34.125 38.671875 28.125 38.671875 
Q 22.171875 38.671875 18.015625 34.390625 
Q 13.875 30.125 13.875 23.1875 
" id="ArialMT-36"/>
      </defs>
      <g style="fill:#262626;" transform="translate(51.1 164.94515625)scale(0.1 -0.1)">
       <use xlink:href="#ArialMT-30"/>
       <use x="55.615234375" xlink:href="#ArialMT-2e"/>
       <use x="83.3984375" xlink:href="#ArialMT-36"/>
      </g>
     </g>
    </g>
    <g id="ytick_5">
     <g id="line2d_37">
      <path clip-path="url(#p98efa1d86b)" d="M 72 100.98 
L 518.4 100.98 
" style="fill:none;stroke:#ffffff;stroke-linecap:round;"/>
     </g>
     <g id="line2d_38"/>
     <g id="line2d_39"/>
     <g id="text_14">
      <!-- 0.8 -->
      <defs>
       <path d="M 17.671875 38.8125 
Q 12.203125 40.828125 9.5625 44.53125 
Q 6.9375 48.25 6.9375 53.421875 
Q 6.9375 61.234375 12.546875 66.546875 
Q 18.171875 71.875 27.484375 71.875 
Q 36.859375 71.875 42.578125 66.421875 
Q 48.296875 60.984375 48.296875 53.171875 
Q 48.296875 48.1875 45.671875 44.5 
Q 43.0625 40.828125 37.75 38.8125 
Q 44.34375 36.671875 47.78125 31.875 
Q 51.21875 27.09375 51.21875 20.453125 
Q 51.21875 11.28125 44.71875 5.03125 
Q 38.234375 -1.21875 27.640625 -1.21875 
Q 17.046875 -1.21875 10.546875 5.046875 
Q 4.046875 11.328125 4.046875 20.703125 
Q 4.046875 27.6875 7.59375 32.390625 
Q 11.140625 37.109375 17.671875 38.8125 
M 15.921875 53.71875 
Q 15.921875 48.640625 19.1875 45.40625 
Q 22.46875 42.1875 27.6875 42.1875 
Q 32.765625 42.1875 36.015625 45.375 
Q 39.265625 48.578125 39.265625 53.21875 
Q 39.265625 58.0625 35.90625 61.359375 
Q 32.5625 64.65625 27.59375 64.65625 
Q 22.5625 64.65625 19.234375 61.421875 
Q 15.921875 58.203125 15.921875 53.71875 
M 13.09375 20.65625 
Q 13.09375 16.890625 14.875 13.375 
Q 16.65625 9.859375 20.171875 7.921875 
Q 23.6875 6 27.734375 6 
Q 34.03125 6 38.125 10.046875 
Q 42.234375 14.109375 42.234375 20.359375 
Q 42.234375 26.703125 38.015625 30.859375 
Q 33.796875 35.015625 27.4375 35.015625 
Q 21.234375 35.015625 17.15625 30.90625 
Q 13.09375 26.8125 13.09375 20.65625 
" id="ArialMT-38"/>
      </defs>
      <g style="fill:#262626;" transform="translate(51.1 103.56515625)scale(0.1 -0.1)">
       <use xlink:href="#ArialMT-30"/>
       <use x="55.615234375" xlink:href="#ArialMT-2e"/>
       <use x="83.3984375" xlink:href="#ArialMT-38"/>
      </g>
     </g>
    </g>
    <g id="ytick_6">
     <g id="line2d_40">
      <path clip-path="url(#p98efa1d86b)" d="M 72 39.6 
L 518.4 39.6 
" style="fill:none;stroke:#ffffff;stroke-linecap:round;"/>
     </g>
     <g id="line2d_41"/>
     <g id="line2d_42"/>
     <g id="text_15">
      <!-- 1.0 -->
      <g style="fill:#262626;" transform="translate(51.1 42.18515625)scale(0.1 -0.1)">
       <use xlink:href="#ArialMT-31"/>
       <use x="55.615234375" xlink:href="#ArialMT-2e"/>
       <use x="83.3984375" xlink:href="#ArialMT-30"/>
      </g>
     </g>
    </g>
    <g id="text_16">
     <!-- absorbance -->
     <defs>
      <path d="M 14.703125 0 
L 6.546875 0 
L 6.546875 71.578125 
L 15.328125 71.578125 
L 15.328125 46.046875 
Q 20.90625 53.03125 29.546875 53.03125 
Q 34.328125 53.03125 38.59375 51.09375 
Q 42.875 49.171875 45.625 45.671875 
Q 48.390625 42.1875 49.953125 37.25 
Q 51.515625 32.328125 51.515625 26.703125 
Q 51.515625 13.375 44.921875 6.09375 
Q 38.328125 -1.171875 29.109375 -1.171875 
Q 19.921875 -1.171875 14.703125 6.5 
z
M 14.59375 26.3125 
Q 14.59375 17 17.140625 12.84375 
Q 21.296875 6.0625 28.375 6.0625 
Q 34.125 6.0625 38.328125 11.0625 
Q 42.53125 16.0625 42.53125 25.984375 
Q 42.53125 36.140625 38.5 40.96875 
Q 34.46875 45.796875 28.765625 45.796875 
Q 23 45.796875 18.796875 40.796875 
Q 14.59375 35.796875 14.59375 26.3125 
" id="ArialMT-62"/>
      <path d="M 40.4375 6.390625 
Q 35.546875 2.25 31.03125 0.53125 
Q 26.515625 -1.171875 21.34375 -1.171875 
Q 12.796875 -1.171875 8.203125 3 
Q 3.609375 7.171875 3.609375 13.671875 
Q 3.609375 17.484375 5.34375 20.625 
Q 7.078125 23.78125 9.890625 25.6875 
Q 12.703125 27.59375 16.21875 28.5625 
Q 18.796875 29.25 24.03125 29.890625 
Q 34.671875 31.15625 39.703125 32.90625 
Q 39.75 34.71875 39.75 35.203125 
Q 39.75 40.578125 37.25 42.78125 
Q 33.890625 45.75 27.25 45.75 
Q 21.046875 45.75 18.09375 43.578125 
Q 15.140625 41.40625 13.71875 35.890625 
L 5.125 37.0625 
Q 6.296875 42.578125 8.984375 45.96875 
Q 11.671875 49.359375 16.75 51.1875 
Q 21.828125 53.03125 28.515625 53.03125 
Q 35.15625 53.03125 39.296875 51.46875 
Q 43.453125 49.90625 45.40625 47.53125 
Q 47.359375 45.171875 48.140625 41.546875 
Q 48.578125 39.3125 48.578125 33.453125 
L 48.578125 21.734375 
Q 48.578125 9.46875 49.140625 6.21875 
Q 49.703125 2.984375 51.375 0 
L 42.1875 0 
Q 40.828125 2.734375 40.4375 6.390625 
M 39.703125 26.03125 
Q 34.90625 24.078125 25.34375 22.703125 
Q 19.921875 21.921875 17.671875 20.9375 
Q 15.4375 19.96875 14.203125 18.09375 
Q 12.984375 16.21875 12.984375 13.921875 
Q 12.984375 10.40625 15.640625 8.0625 
Q 18.3125 5.71875 23.4375 5.71875 
Q 28.515625 5.71875 32.46875 7.9375 
Q 36.421875 10.15625 38.28125 14.015625 
Q 39.703125 17 39.703125 22.796875 
z
" id="ArialMT-61"/>
      <path d="M 42.09375 16.703125 
L 51.171875 15.578125 
Q 49.03125 7.625 43.21875 3.21875 
Q 37.40625 -1.171875 28.375 -1.171875 
Q 17 -1.171875 10.328125 5.828125 
Q 3.65625 12.84375 3.65625 25.484375 
Q 3.65625 38.578125 10.390625 45.796875 
Q 17.140625 53.03125 27.875 53.03125 
Q 38.28125 53.03125 44.875 45.953125 
Q 51.46875 38.875 51.46875 26.03125 
Q 51.46875 25.25 51.421875 23.6875 
L 12.75 23.6875 
Q 13.234375 15.140625 17.578125 10.59375 
Q 21.921875 6.0625 28.421875 6.0625 
Q 33.25 6.0625 36.671875 8.59375 
Q 40.09375 11.140625 42.09375 16.703125 
M 13.234375 30.90625 
L 42.1875 30.90625 
Q 41.609375 37.453125 38.875 40.71875 
Q 34.671875 45.796875 27.984375 45.796875 
Q 21.921875 45.796875 17.796875 41.75 
Q 13.671875 37.703125 13.234375 30.90625 
" id="ArialMT-65"/>
      <path d="M 6.5 0 
L 6.5 51.859375 
L 14.40625 51.859375 
L 14.40625 44 
Q 17.4375 49.515625 20 51.265625 
Q 22.5625 53.03125 25.640625 53.03125 
Q 30.078125 53.03125 34.671875 50.203125 
L 31.640625 42.046875 
Q 28.421875 43.953125 25.203125 43.953125 
Q 22.3125 43.953125 20.015625 42.21875 
Q 17.71875 40.484375 16.75 37.40625 
Q 15.28125 32.71875 15.28125 27.15625 
L 15.28125 0 
z
" id="ArialMT-72"/>
      <path d="M 3.078125 15.484375 
L 11.765625 16.84375 
Q 12.5 11.625 15.84375 8.84375 
Q 19.1875 6.0625 25.203125 6.0625 
Q 31.25 6.0625 34.171875 8.515625 
Q 37.109375 10.984375 37.109375 14.3125 
Q 37.109375 17.28125 34.515625 19 
Q 32.71875 20.171875 25.53125 21.96875 
Q 15.875 24.421875 12.140625 26.203125 
Q 8.40625 27.984375 6.46875 31.125 
Q 4.546875 34.28125 4.546875 38.09375 
Q 4.546875 41.546875 6.125 44.5 
Q 7.71875 47.46875 10.453125 49.421875 
Q 12.5 50.921875 16.03125 51.96875 
Q 19.578125 53.03125 23.640625 53.03125 
Q 29.734375 53.03125 34.34375 51.265625 
Q 38.96875 49.515625 41.15625 46.5 
Q 43.359375 43.5 44.1875 38.484375 
L 35.59375 37.3125 
Q 35.015625 41.3125 32.203125 43.546875 
Q 29.390625 45.796875 24.265625 45.796875 
Q 18.21875 45.796875 15.625 43.796875 
Q 13.03125 41.796875 13.03125 39.109375 
Q 13.03125 37.40625 14.109375 36.03125 
Q 15.1875 34.625 17.484375 33.6875 
Q 18.796875 33.203125 25.25 31.453125 
Q 34.578125 28.953125 38.25 27.359375 
Q 41.9375 25.78125 44.03125 22.75 
Q 46.140625 19.734375 46.140625 15.234375 
Q 46.140625 10.84375 43.578125 6.953125 
Q 41.015625 3.078125 36.171875 0.953125 
Q 31.34375 -1.171875 25.25 -1.171875 
Q 15.140625 -1.171875 9.84375 3.03125 
Q 4.546875 7.234375 3.078125 15.484375 
" id="ArialMT-73"/>
      <path d="M 3.328125 25.921875 
Q 3.328125 40.328125 11.328125 47.265625 
Q 18.015625 53.03125 27.640625 53.03125 
Q 38.328125 53.03125 45.109375 46.015625 
Q 51.90625 39.015625 51.90625 26.65625 
Q 51.90625 16.65625 48.90625 10.90625 
Q 45.90625 5.171875 40.15625 2 
Q 34.421875 -1.171875 27.640625 -1.171875 
Q 16.75 -1.171875 10.03125 5.8125 
Q 3.328125 12.796875 3.328125 25.921875 
M 12.359375 25.921875 
Q 12.359375 15.96875 16.703125 11.015625 
Q 21.046875 6.0625 27.640625 6.0625 
Q 34.1875 6.0625 38.53125 11.03125 
Q 42.875 16.015625 42.875 26.21875 
Q 42.875 35.84375 38.5 40.796875 
Q 34.125 45.75 27.640625 45.75 
Q 21.046875 45.75 16.703125 40.8125 
Q 12.359375 35.890625 12.359375 25.921875 
" id="ArialMT-6f"/>
      <path d="M 6.59375 0 
L 6.59375 51.859375 
L 14.5 51.859375 
L 14.5 44.484375 
Q 20.21875 53.03125 31 53.03125 
Q 35.6875 53.03125 39.625 51.34375 
Q 43.5625 49.65625 45.515625 46.921875 
Q 47.46875 44.1875 48.25 40.4375 
Q 48.734375 37.984375 48.734375 31.890625 
L 48.734375 0 
L 39.9375 0 
L 39.9375 31.546875 
Q 39.9375 36.921875 38.90625 39.578125 
Q 37.890625 42.234375 35.28125 43.8125 
Q 32.671875 45.40625 29.15625 45.40625 
Q 23.53125 45.40625 19.453125 41.84375 
Q 15.375 38.28125 15.375 28.328125 
L 15.375 0 
z
" id="ArialMT-6e"/>
     </defs>
     <g style="fill:#262626;" transform="translate(43.91375 221.7909375)rotate(-90.0)scale(0.11 -0.11)">
      <use xlink:href="#ArialMT-61"/>
      <use x="55.615234375" xlink:href="#ArialMT-62"/>
      <use x="111.23046875" xlink:href="#ArialMT-73"/>
      <use x="161.23046875" xlink:href="#ArialMT-6f"/>
      <use x="216.845703125" xlink:href="#ArialMT-72"/>
      <use x="250.146484375" xlink:href="#ArialMT-62"/>
      <use x="305.76171875" xlink:href="#ArialMT-61"/>
      <use x="361.376953125" xlink:href="#ArialMT-6e"/>
      <use x="416.9921875" xlink:href="#ArialMT-63"/>
      <use x="466.9921875" xlink:href="#ArialMT-65"/>
     </g>
    </g>
   </g>
   <g id="line2d_43">
    <path clip-path="url(#p98efa1d86b)" d="M 505.666121 340.531645 
L 504.68149 344.987966 
L 503.574418 341.628274 
L 502.591063 331.307163 
L 501.606432 323.442694 
L 500.623077 313.251343 
L 498.901248 291.48887 
L 498.040334 282.194879 
L 497.179419 266.79809 
L 496.318505 262.136673 
L 495.457591 258.314331 
L 494.596677 262.448206 
L 492.873573 284.804144 
L 492.012658 291.942344 
L 491.151744 293.785973 
L 490.29083 293.062457 
L 489.429915 298.356155 
L 488.569001 314.759026 
L 487.708087 326.462318 
L 486.724731 330.351219 
L 484.756745 336.618061 
L 483.772114 339.258625 
L 482.788759 341.061986 
L 481.804128 341.937412 
L 480.820773 342.586288 
L 479.836142 344.629864 
L 478.72907 346.146609 
L 477.499557 346.237006 
L 476.268768 345.619662 
L 475.161696 345.555891 
L 472.948827 345.924484 
L 471.841755 345.224028 
L 470.734683 344.946131 
L 469.627611 345.251795 
L 468.520539 344.09714 
L 467.535909 339.684424 
L 466.552553 339.505475 
L 465.567922 338.65679 
L 464.584567 331.953169 
L 463.599936 322.261715 
L 462.616581 332.790572 
L 461.63195 341.708211 
L 460.648594 343.907922 
L 459.663963 344.468939 
L 458.556891 344.019661 
L 457.573536 342.467245 
L 455.60555 337.644822 
L 454.620919 333.91813 
L 453.637563 329.435384 
L 452.652933 327.759095 
L 451.669577 324.887142 
L 450.684946 319.811919 
L 449.701591 317.407597 
L 448.840677 317.19676 
L 447.979762 315.80146 
L 447.118848 313.558993 
L 446.257934 312.836221 
L 445.397019 312.699958 
L 442.813001 310.862639 
L 441.952087 310.439032 
L 441.091173 310.236033 
L 440.230258 309.331197 
L 439.369344 307.22289 
L 438.50843 304.617549 
L 437.647515 298.593163 
L 436.786601 295.574407 
L 435.925687 296.649924 
L 435.064773 300.10463 
L 434.203858 298.583211 
L 433.342944 289.895101 
L 432.48203 277.221279 
L 431.621115 274.817332 
L 430.758926 270.844471 
L 429.898011 256.789227 
L 428.176183 278.350443 
L 427.315269 276.67108 
L 426.454354 269.463766 
L 424.732526 260.042357 
L 423.871611 258.260905 
L 423.010697 257.057678 
L 422.149783 254.12741 
L 420.427954 241.028222 
L 419.56704 247.248025 
L 418.706126 264.881408 
L 417.845211 275.294301 
L 416.983022 278.563097 
L 416.122107 280.443604 
L 415.261193 283.797242 
L 414.400279 286.578309 
L 413.539365 286.998063 
L 412.67845 285.398556 
L 411.817536 281.999117 
L 410.956622 279.354517 
L 410.095707 274.676188 
L 409.234793 267.957449 
L 408.373879 259.418765 
L 407.512965 255.452034 
L 406.65205 261.62356 
L 404.930222 270.919421 
L 404.069307 273.166398 
L 403.207118 267.676917 
L 402.346203 248.257533 
L 401.485289 244.995828 
L 400.624375 257.493506 
L 398.902546 247.195082 
L 398.041632 245.80617 
L 397.180718 239.903516 
L 396.319803 228.793167 
L 395.458889 229.596047 
L 394.597975 235.652976 
L 393.737061 251.642107 
L 392.876146 259.756843 
L 392.015232 245.536357 
L 391.154318 222.517419 
L 389.431214 162.892052 
L 387.709385 91.927496 
L 386.848471 82.267258 
L 385.987557 105.146371 
L 385.126642 141.140417 
L 384.265728 167.33426 
L 383.404814 202.859692 
L 381.682985 244.980979 
L 380.822071 257.202222 
L 379.961157 257.632855 
L 379.100242 246.95555 
L 378.239328 223.227674 
L 377.378414 185.38298 
L 375.65531 84.098827 
L 374.794395 49.120251 
L 374.057198 39.6 
L 373.318725 72.059156 
L 372.45781 117.05071 
L 371.596896 169.721091 
L 370.735982 210.431092 
L 369.875067 244.045847 
L 369.014153 271.471554 
L 367.292325 306.263552 
L 365.570496 325.303834 
L 364.585865 330.957472 
L 363.60251 333.266139 
L 362.617879 336.463288 
L 361.634523 337.097744 
L 360.649893 338.929344 
L 359.666537 340.993838 
L 358.681906 344.048886 
L 357.698551 345.291703 
L 356.591479 345.419776 
L 355.484407 345.751304 
L 354.377335 345.444193 
L 353.270263 345.304606 
L 351.056119 345.444021 
L 349.949047 344.834122 
L 348.841975 345.019624 
L 347.734903 344.820823 
L 346.627831 345.031956 
L 345.520759 344.889191 
L 344.413687 344.44896 
L 343.306615 344.680419 
L 342.200818 344.446419 
L 341.093746 344.335289 
L 339.986674 344.42595 
L 338.879602 344.167502 
L 337.77253 344.084874 
L 336.665458 344.358167 
L 334.451314 343.749591 
L 333.466683 344.143984 
L 332.360887 343.949859 
L 331.253815 343.375633 
L 330.269184 341.594877 
L 329.285829 341.561711 
L 328.301198 341.941788 
L 327.317842 342.909056 
L 324.365225 342.12539 
L 322.397239 340.910545 
L 321.413883 340.290825 
L 320.429253 341.0815 
L 319.445897 341.02686 
L 318.461266 340.774528 
L 317.477911 340.720841 
L 316.49328 340.946546 
L 315.509925 341.343586 
L 314.525294 340.752878 
L 313.541938 340.694544 
L 312.557307 341.15278 
L 311.573952 342.240519 
L 310.589321 343.142732 
L 309.605966 342.498333 
L 308.621335 342.449342 
L 307.637979 343.023274 
L 306.653349 338.227267 
L 305.669993 339.767868 
L 304.685362 340.030364 
L 303.702007 339.371758 
L 302.717376 339.581113 
L 301.734021 339.933553 
L 300.74939 339.783842 
L 298.781403 339.9919 
L 297.798048 339.767603 
L 295.830062 339.634728 
L 292.877445 338.019302 
L 291.894089 338.004338 
L 290.909458 336.827914 
L 289.926103 334.243674 
L 288.941472 330.425889 
L 286.973486 315.744994 
L 286.112571 305.148751 
L 285.251657 299.898199 
L 284.390743 296.168269 
L 282.668914 302.51948 
L 281.808 280.969329 
L 280.947086 283.016563 
L 279.225257 326.284513 
L 278.240626 338.96842 
L 277.257271 341.248888 
L 276.27264 341.137076 
L 275.289285 340.792289 
L 271.353312 339.85544 
L 270.368681 339.53999 
L 269.385326 339.353568 
L 268.400695 339.392074 
L 263.481367 338.584276 
L 262.496736 338.344013 
L 260.52875 338.026238 
L 256.592777 337.078053 
L 250.688818 335.632348 
L 249.705463 335.510342 
L 248.720832 335.506463 
L 245.76949 335.244326 
L 244.784859 335.157651 
L 243.801504 335.219521 
L 242.816873 335.550404 
L 241.833518 335.553488 
L 237.897545 334.307872 
L 236.912914 333.983495 
L 234.944928 332.790134 
L 232.976942 331.389677 
L 231.008955 330.34801 
L 229.040969 329.20645 
L 227.072983 327.697728 
L 226.089627 326.585156 
L 224.121641 323.731859 
L 222.153655 319.660734 
L 221.169024 317.21054 
L 220.30811 311.753515 
L 219.447195 299.280238 
L 218.586281 283.697685 
L 217.725367 277.960625 
L 216.864453 281.254475 
L 216.003538 285.66218 
L 215.142624 292.804895 
L 214.28171 297.246199 
L 213.41952 294.956742 
L 212.558606 287.840873 
L 210.836777 269.473714 
L 209.975863 257.452639 
L 209.114949 247.435419 
L 208.254034 246.19682 
L 207.39312 257.408145 
L 205.671291 285.891384 
L 204.810377 295.720661 
L 203.088549 310.555881 
L 202.227634 315.609024 
L 201.36672 318.984289 
L 200.382089 320.713422 
L 199.398734 320.713593 
L 198.414103 320.200611 
L 197.430747 318.931425 
L 196.446117 317.199744 
L 195.585202 315.301524 
L 194.724288 313.012103 
L 193.002459 307.158271 
L 192.141545 304.820325 
L 191.280631 303.835444 
L 190.419717 303.278356 
L 189.558802 303.58411 
L 188.697888 304.339871 
L 187.835698 305.35214 
L 186.11387 308.606018 
L 185.252955 309.709736 
L 184.392041 310.07044 
L 183.531127 309.814454 
L 182.670213 309.190807 
L 181.809298 308.175212 
L 180.948384 306.745018 
L 180.08747 304.981093 
L 179.226555 302.621689 
L 175.782898 292.008079 
L 174.921984 289.681391 
L 172.337966 283.57404 
L 171.477051 280.926297 
L 170.616137 277.678141 
L 169.755223 273.509027 
L 168.033394 262.453561 
L 165.450651 241.958056 
L 162.867909 219.099157 
L 162.006994 215.662431 
L 161.14608 220.142733 
L 160.28389 232.720914 
L 159.422976 247.789055 
L 158.562062 260.736589 
L 157.701147 270.367337 
L 156.840233 277.79415 
L 155.979319 283.423782 
L 155.118405 287.840699 
L 154.25749 291.178414 
L 153.396576 294.006596 
L 152.535662 296.316367 
L 151.674747 298.122357 
L 150.813833 299.637761 
L 149.092005 301.989611 
L 143.925243 307.710893 
L 143.064329 308.518656 
L 142.203415 309.647933 
L 140.481586 311.287131 
L 139.620672 312.152407 
L 138.759758 312.815212 
L 137.037929 314.901488 
L 136.177015 315.752255 
L 135.316101 316.851253 
L 134.455186 318.451443 
L 133.470555 319.740997 
L 132.4872 321.240518 
L 131.502569 323.061506 
L 130.519214 324.263742 
L 129.534583 326.169767 
L 128.551227 327.630993 
L 127.566597 328.70641 
L 126.583241 330.717864 
L 125.59861 331.479605 
L 124.615255 331.945176 
L 123.630624 332.869751 
L 121.662638 335.815612 
L 119.694651 336.723705 
L 118.711296 339.447371 
L 116.74331 341.469028 
L 115.758679 342.937728 
L 114.775323 342.877817 
L 113.790693 342.701845 
L 112.807337 343.516297 
L 111.822706 342.493031 
L 110.839351 342.656353 
L 109.85472 342.322058 
L 108.871365 343.393903 
L 107.886734 341.701527 
L 106.903378 340.6823 
L 105.918747 341.814947 
L 104.935392 343.284252 
L 103.950761 343.796188 
L 102.967406 344.857985 
L 99.64619 345.402419 
L 98.539118 345.023393 
L 97.432046 344.786324 
L 96.324974 345.087644 
L 95.217902 344.460932 
L 94.11083 344.916436 
L 93.003758 344.292424 
L 91.896686 344.962586 
L 89.682542 344.643833 
L 88.57547 344.88672 
L 86.362601 345.002887 
L 85.255529 344.61391 
L 84.148457 345.275371 
L 83.041385 345.150636 
L 81.934313 345.149805 
L 79.720169 345.308489 
L 74.184809 345.567581 
L 73.077737 345.50144 
L 73.077737 345.50144 
" style="fill:none;stroke:#4c72b0;stroke-linecap:round;stroke-width:1.75;"/>
   </g>
   <g id="line2d_44">
    <path clip-path="url(#p98efa1d86b)" d="M 505.666121 336.352497 
L 504.68149 343.745532 
L 503.698135 338.031151 
L 502.713504 329.89239 
L 501.730149 320.527428 
L 500.869234 309.966299 
L 500.00832 292.655369 
L 499.147406 277.911958 
L 498.286491 270.309423 
L 497.425577 246.252022 
L 496.564663 241.443059 
L 495.702473 235.868446 
L 494.841559 239.936887 
L 493.11973 277.402438 
L 492.258816 290.744216 
L 491.397902 297.543955 
L 490.536987 296.92205 
L 489.676073 300.081377 
L 487.954245 327.613475 
L 486.969614 332.152973 
L 485.986258 334.924865 
L 485.001627 338.240527 
L 484.018272 340.884657 
L 483.033641 342.618569 
L 481.065655 343.506854 
L 478.975227 345.878904 
L 477.868155 346.320098 
L 476.638642 345.774906 
L 475.53157 345.496373 
L 474.424498 345.645818 
L 473.317426 345.976167 
L 472.210354 345.643759 
L 471.103282 344.73538 
L 469.99621 344.037812 
L 468.889138 343.128468 
L 467.905783 340.218785 
L 466.921152 336.653671 
L 465.937797 338.088356 
L 464.953166 333.069451 
L 463.96981 322.857673 
L 463.108896 321.304462 
L 462.246706 337.19847 
L 461.263351 342.904179 
L 460.27872 344.261706 
L 459.172923 344.197666 
L 458.065851 342.530093 
L 456.097865 337.279089 
L 455.113234 334.195455 
L 454.129879 330.129866 
L 453.145248 326.999803 
L 452.161893 322.208699 
L 451.177262 319.767575 
L 450.193906 316.941724 
L 449.332992 315.642121 
L 448.470802 316.460682 
L 447.609888 314.499683 
L 446.748974 312.997511 
L 445.888059 313.618287 
L 445.027145 313.074551 
L 444.166231 311.920445 
L 442.444402 311.571158 
L 441.583488 310.836211 
L 440.722574 309.725041 
L 439.000745 305.400632 
L 438.139831 300.919882 
L 437.278917 293.245323 
L 436.418002 291.709715 
L 435.557088 293.999758 
L 434.694898 295.764093 
L 433.833984 290.888498 
L 432.97307 279.650063 
L 432.112155 269.983381 
L 431.251241 271.907304 
L 430.390327 262.420106 
L 429.529413 254.413194 
L 428.668498 270.433599 
L 427.807584 275.122237 
L 426.085755 264.591644 
L 425.224841 260.926248 
L 424.363927 258.028726 
L 422.642098 256.871326 
L 421.781184 253.220615 
L 420.918994 245.518435 
L 420.05808 241.864066 
L 419.197166 254.607887 
L 418.336251 269.570836 
L 417.475337 275.562623 
L 416.614423 276.709099 
L 415.753509 278.665982 
L 414.892594 281.659603 
L 414.03168 283.527868 
L 413.170766 282.783447 
L 412.309851 280.489165 
L 410.588023 273.517598 
L 409.727109 267.723192 
L 408.00528 252.944828 
L 407.14309 253.672726 
L 406.282176 260.506753 
L 404.560347 267.246615 
L 403.699433 267.568619 
L 402.838519 257.571156 
L 401.977605 235.032665 
L 401.11669 247.341544 
L 400.255776 251.642549 
L 399.394862 243.703444 
L 398.533947 241.861877 
L 397.673033 238.65769 
L 396.812119 228.944052 
L 395.951205 220.987255 
L 395.09029 227.78944 
L 394.229376 233.51264 
L 393.367186 254.250282 
L 392.506272 248.16422 
L 391.645358 229.956275 
L 390.784443 207.309935 
L 389.923529 174.930546 
L 389.062615 149.12657 
L 388.201701 112.634361 
L 387.340786 86.437741 
L 386.479872 86.114875 
L 384.758043 150.176975 
L 383.897129 176.991136 
L 383.036215 210.025258 
L 382.175301 232.017121 
L 381.314386 248.268377 
L 380.453472 255.305515 
L 379.591282 249.473625 
L 378.730368 231.899957 
L 377.869454 199.707871 
L 377.008539 157.581671 
L 376.147625 104.74288 
L 375.286711 63.079186 
L 374.549513 39.6 
L 373.81104 46.27377 
L 373.072567 82.342634 
L 372.211653 129.925704 
L 371.350738 183.973011 
L 370.489824 221.47723 
L 369.62891 252.870369 
L 368.767995 278.885851 
L 367.046167 311.899376 
L 365.200622 333.933756 
L 364.217266 338.997216 
L 363.232635 341.063675 
L 362.24928 342.304684 
L 361.264649 340.391214 
L 360.281294 340.866332 
L 359.296663 342.058435 
L 358.313307 344.658967 
L 357.206235 344.954847 
L 356.221605 344.563851 
L 355.238249 345.39882 
L 354.131177 344.476368 
L 353.024105 344.644839 
L 350.809961 345.360917 
L 349.702889 343.887616 
L 348.719534 344.382724 
L 347.612462 343.378427 
L 346.627831 343.941669 
L 345.644475 343.850348 
L 344.659845 342.651938 
L 343.676489 343.208268 
L 341.708503 342.80012 
L 340.723872 342.587467 
L 339.740517 342.70132 
L 337.77253 342.047136 
L 336.787899 342.402308 
L 335.804544 342.161303 
L 334.819913 341.011401 
L 333.836558 342.055858 
L 332.851927 341.956566 
L 331.868571 342.154348 
L 330.883941 341.077312 
L 329.900585 340.742139 
L 328.915954 339.716226 
L 327.932599 340.309961 
L 326.947968 340.624314 
L 324.979982 340.60569 
L 323.011995 339.359441 
L 322.02864 339.486496 
L 321.044009 338.781463 
L 320.060654 339.394643 
L 319.076023 338.875924 
L 318.092667 339.023908 
L 317.108037 338.692713 
L 316.124681 338.876482 
L 314.156695 338.607253 
L 313.172064 338.653051 
L 312.188709 339.090037 
L 311.204078 340.012458 
L 309.236091 340.011995 
L 307.268105 339.384473 
L 306.28475 336.978421 
L 305.300119 338.520271 
L 304.316763 338.405216 
L 303.332133 338.010253 
L 302.348777 338.190982 
L 301.364146 337.684022 
L 299.39616 338.741565 
L 298.412805 338.528566 
L 297.428174 337.856139 
L 296.444818 337.384386 
L 295.460187 336.226485 
L 293.492201 333.153268 
L 292.508846 332.831689 
L 291.524215 333.553659 
L 290.540859 327.475802 
L 289.556229 317.312811 
L 288.695314 305.166215 
L 286.973486 263.235501 
L 286.112571 230.972715 
L 285.251657 209.664896 
L 284.390743 198.081495 
L 282.668914 218.015335 
L 281.808 151.180579 
L 280.947086 157.270412 
L 279.225257 288.27014 
L 278.363067 327.74771 
L 277.502153 339.176869 
L 276.518798 339.547241 
L 275.534167 339.069192 
L 273.566181 338.629302 
L 271.598194 338.457052 
L 270.614839 337.899101 
L 269.630208 337.609041 
L 268.646853 337.70628 
L 266.678866 337.566769 
L 265.694235 337.421284 
L 264.71088 337.146854 
L 262.742894 336.900798 
L 261.758263 336.583958 
L 260.774907 336.597124 
L 259.790277 336.35005 
L 258.806921 335.863296 
L 257.82229 335.941775 
L 256.838935 335.709249 
L 255.854304 335.315904 
L 254.870949 335.330158 
L 253.886318 335.117186 
L 252.902962 334.689088 
L 251.918331 334.587478 
L 250.934976 334.257801 
L 245.031017 334.321842 
L 244.046386 334.242262 
L 243.063031 334.597502 
L 242.0784 334.534758 
L 240.110414 333.882886 
L 239.127058 333.495607 
L 238.142427 333.278538 
L 237.159072 332.850651 
L 235.191086 331.723011 
L 233.223099 330.244371 
L 230.270482 328.529506 
L 228.302496 327.340956 
L 227.319141 326.505546 
L 226.33451 325.389093 
L 224.366523 322.526617 
L 223.383168 320.697435 
L 221.415182 316.176565 
L 220.554267 312.304241 
L 219.693353 302.132377 
L 218.832439 286.140333 
L 217.971525 276.5738 
L 217.11061 279.328813 
L 216.249696 283.677316 
L 214.526592 297.280607 
L 213.665678 296.988002 
L 212.804763 290.934409 
L 211.082935 274.108998 
L 209.361106 251.976603 
L 208.500192 247.265983 
L 207.639278 255.875689 
L 205.917449 285.979853 
L 205.056535 296.536788 
L 203.334706 311.587955 
L 202.473792 316.831893 
L 201.611602 320.381286 
L 200.628247 322.210275 
L 199.643616 322.250373 
L 198.660261 321.398525 
L 197.67563 320.12444 
L 195.83136 316.228863 
L 194.970446 313.758546 
L 194.109531 310.734347 
L 193.248617 307.139628 
L 192.387703 304.445974 
L 191.526789 303.258501 
L 190.665874 302.648207 
L 189.803685 302.844769 
L 188.94277 303.616978 
L 188.081856 304.61909 
L 186.360027 308.035758 
L 185.499113 309.6411 
L 184.638199 310.499387 
L 183.777285 310.418274 
L 182.91637 309.878914 
L 182.055456 308.95274 
L 181.194542 307.637506 
L 180.333627 305.961661 
L 179.472713 303.780747 
L 177.750885 298.043182 
L 176.88997 294.988838 
L 175.166866 290.169686 
L 174.305952 287.970644 
L 173.445038 286.191438 
L 171.723209 281.492652 
L 170.862295 278.354914 
L 170.001381 274.503886 
L 168.279552 263.470399 
L 165.696809 242.296712 
L 164.835895 235.005507 
L 162.251877 211.150542 
L 161.390962 212.552893 
L 160.530048 224.524682 
L 158.808219 258.006153 
L 157.947305 269.645558 
L 157.086391 278.397318 
L 156.225477 284.779661 
L 155.364562 289.524845 
L 154.503648 293.251396 
L 152.781819 298.705723 
L 151.920905 300.662952 
L 150.199077 303.356677 
L 148.475973 305.568107 
L 146.754144 307.558392 
L 145.89323 308.100271 
L 145.032315 309.378124 
L 144.171401 310.189489 
L 143.310487 310.689022 
L 142.449573 312.177896 
L 141.588658 312.771592 
L 140.727744 313.523007 
L 139.86683 314.428551 
L 139.005915 314.594089 
L 135.562258 318.317873 
L 134.577627 320.123606 
L 133.594272 320.97036 
L 132.609641 321.984668 
L 131.626286 324.018748 
L 130.641655 324.815503 
L 129.658299 326.701578 
L 128.673669 327.987511 
L 127.690313 327.434202 
L 126.705682 330.682479 
L 125.722327 330.669926 
L 124.737696 329.102427 
L 123.754341 328.729907 
L 122.76971 330.844745 
L 121.786354 333.455697 
L 120.801723 332.418048 
L 119.818368 330.88465 
L 118.833737 336.536901 
L 117.850382 338.9845 
L 116.865751 339.292548 
L 115.882395 342.9692 
L 114.897765 342.037259 
L 113.914409 340.164255 
L 112.929778 341.852513 
L 111.946423 338.036703 
L 110.961792 337.661427 
L 109.978437 336.462419 
L 108.993806 339.211712 
L 108.01045 335.631378 
L 107.025819 331.242675 
L 106.042464 334.042801 
L 105.057833 339.590065 
L 104.074478 340.567895 
L 103.089847 343.805464 
L 102.106491 344.325956 
L 100.999419 345.144402 
L 99.892347 345.127641 
L 98.785275 344.996574 
L 97.800645 343.118751 
L 96.817289 344.626023 
L 95.710217 342.452971 
L 94.725586 343.062693 
L 93.742231 343.360597 
L 92.7576 342.250249 
L 91.774245 343.656748 
L 90.789614 343.121481 
L 89.806258 343.029876 
L 88.821627 343.11062 
L 87.838272 344.063571 
L 86.853641 343.552913 
L 85.870286 344.319051 
L 84.885655 342.799955 
L 83.902299 345.173047 
L 82.795227 344.409842 
L 81.688155 344.3825 
L 80.581083 344.805054 
L 78.366939 345.000488 
L 77.259867 345.107357 
L 76.152795 344.967151 
L 73.938651 345.423382 
L 72.831579 345.362754 
L 72.831579 345.362754 
" style="fill:none;stroke:#55a868;stroke-linecap:round;stroke-width:1.75;"/>
   </g>
   <g id="line2d_45">
    <path clip-path="url(#p98efa1d86b)" d="M 505.666121 343.633086 
L 504.68149 345.314732 
L 503.451977 342.841561 
L 502.468622 329.784847 
L 501.483991 321.395772 
L 500.500635 310.789422 
L 499.638446 299.158238 
L 498.777531 290.247503 
L 497.916617 283.328871 
L 497.055703 268.41668 
L 496.194789 266.822627 
L 495.333874 264.194582 
L 494.47296 270.386364 
L 492.751131 294.767934 
L 491.890217 303.198433 
L 491.029303 306.967319 
L 490.168389 308.547275 
L 489.307474 313.115822 
L 488.44656 324.959873 
L 487.461929 331.207144 
L 486.478574 333.68155 
L 485.493943 337.128277 
L 484.510587 339.638685 
L 482.542601 342.302799 
L 481.55797 342.426105 
L 480.574615 342.999708 
L 479.589984 344.151413 
L 478.482912 345.860935 
L 477.37584 344.584287 
L 476.268768 344.135086 
L 475.161696 344.685135 
L 474.054624 344.911105 
L 472.948827 345.25144 
L 471.841755 344.689714 
L 470.734683 344.46678 
L 469.627611 344.518379 
L 468.520539 343.836051 
L 467.535909 340.952117 
L 466.552553 341.046838 
L 465.567922 339.909133 
L 464.584567 334.596533 
L 463.599936 326.754569 
L 462.616581 336.172098 
L 461.63195 343.239519 
L 460.648594 344.802865 
L 459.541522 344.5059 
L 458.43445 343.080778 
L 457.449819 340.893015 
L 456.466464 338.358013 
L 455.481833 335.475194 
L 453.513847 327.186387 
L 449.824032 307.526745 
L 448.963118 308.783568 
L 448.102203 309.68678 
L 446.380375 305.873908 
L 444.658546 304.819433 
L 443.797632 305.578832 
L 442.936718 306.604008 
L 442.075803 306.797264 
L 441.214889 306.255612 
L 440.353975 304.915763 
L 439.493061 302.872439 
L 438.630871 301.603113 
L 436.909042 293.404375 
L 436.048128 291.637472 
L 435.187214 291.433965 
L 434.326299 288.912006 
L 433.465385 281.620461 
L 432.604471 271.943798 
L 431.743557 269.17844 
L 430.882642 267.454425 
L 430.021728 255.362919 
L 429.160814 259.375779 
L 428.299899 267.960134 
L 427.438985 265.847908 
L 426.578071 258.53736 
L 425.717157 254.072911 
L 424.854967 250.198998 
L 423.994053 249.821377 
L 423.133138 251.647945 
L 422.272224 252.869092 
L 421.41131 250.502183 
L 420.550395 246.20706 
L 419.689481 249.074623 
L 418.828567 261.82979 
L 417.967653 270.44221 
L 417.106738 272.755581 
L 416.245824 273.474638 
L 414.523995 277.794453 
L 413.663081 279.214642 
L 412.802167 278.406553 
L 411.941253 275.505217 
L 411.079063 273.764472 
L 410.218149 270.589279 
L 409.357234 265.573334 
L 408.49632 258.125211 
L 407.635406 252.61939 
L 406.774491 254.611806 
L 405.913577 255.607588 
L 404.191749 259.091051 
L 403.330834 257.754757 
L 402.46992 246.195676 
L 401.609006 240.073432 
L 400.748091 251.181186 
L 399.887177 246.272049 
L 399.026263 237.91496 
L 398.165349 234.360648 
L 397.303159 229.694319 
L 396.442245 223.911422 
L 395.58133 224.833785 
L 394.720416 228.914748 
L 393.859502 241.802252 
L 392.998587 245.856406 
L 392.137673 227.727794 
L 390.415845 172.995895 
L 389.55493 143.765247 
L 387.833102 93.309774 
L 386.972187 83.815985 
L 386.111273 97.390905 
L 385.250359 131.789871 
L 384.389445 157.771745 
L 383.527255 190.587909 
L 382.666341 214.512098 
L 381.805426 232.928121 
L 380.944512 244.695982 
L 380.083598 244.585638 
L 379.222683 232.73415 
L 378.361769 209.077982 
L 377.500855 171.677752 
L 375.779026 77.561216 
L 374.918112 48.025266 
L 374.179639 39.6 
L 373.442441 63.393656 
L 372.581527 95.940988 
L 370.858423 180.54344 
L 369.997509 213.614208 
L 369.136594 242.381266 
L 367.414766 284.474738 
L 365.692937 316.807216 
L 364.832023 330.45514 
L 362.864037 339.71449 
L 361.879406 339.651562 
L 360.89605 340.429567 
L 359.911419 340.893042 
L 358.928064 343.286601 
L 357.943433 344.290997 
L 356.837637 343.660651 
L 355.853006 344.433548 
L 354.745934 344.435969 
L 353.762578 343.507221 
L 351.794592 344.14115 
L 350.68752 344.436012 
L 349.702889 343.001477 
L 348.719534 343.534458 
L 347.734903 343.058595 
L 345.766917 343.376928 
L 344.783561 342.571343 
L 343.79893 342.527409 
L 342.815575 342.675536 
L 340.847589 342.126458 
L 339.862958 342.347064 
L 338.879602 341.86744 
L 337.894971 341.518262 
L 335.926985 341.997446 
L 334.94363 341.144639 
L 332.975643 341.405769 
L 331.991013 340.713459 
L 331.007657 340.180101 
L 330.023026 338.249106 
L 329.039671 338.42856 
L 328.05504 338.859727 
L 327.071685 339.644884 
L 325.103698 338.996523 
L 324.119067 338.788274 
L 323.135712 337.684736 
L 322.151081 337.459146 
L 321.167726 336.473198 
L 320.183095 338.044308 
L 319.199739 337.835935 
L 318.215109 337.351355 
L 317.231753 337.351216 
L 315.263767 338.150009 
L 314.279136 337.471388 
L 313.295781 337.573073 
L 312.31115 338.305172 
L 311.327794 339.703933 
L 310.343163 339.943158 
L 309.359808 339.471183 
L 308.375177 339.60265 
L 307.391822 338.401404 
L 306.407191 334.844337 
L 305.423835 336.801786 
L 304.439205 337.02065 
L 303.455849 336.530348 
L 302.471218 336.728189 
L 301.487863 336.587676 
L 300.503232 336.810088 
L 299.519877 336.808769 
L 298.535246 337.27941 
L 296.567259 336.653398 
L 295.583904 336.421357 
L 294.599273 335.868379 
L 293.615918 334.972225 
L 292.631287 334.462673 
L 291.647931 334.267235 
L 290.663301 332.209198 
L 289.679945 327.74185 
L 288.695314 322.218129 
L 286.973486 302.861917 
L 286.112571 288.263585 
L 285.251657 280.40529 
L 284.390743 275.784825 
L 283.529829 279.506764 
L 282.668914 284.397352 
L 281.808 254.258985 
L 280.947086 256.977741 
L 279.225257 315.983448 
L 278.363067 334.367257 
L 277.379712 338.933466 
L 276.395081 338.769408 
L 275.411726 338.426433 
L 274.427095 338.308684 
L 273.443739 337.852826 
L 272.459109 337.82452 
L 270.491122 336.935721 
L 269.507767 336.741177 
L 268.523136 336.849827 
L 266.55515 336.550708 
L 265.571794 336.475097 
L 264.587163 336.038141 
L 263.603808 335.959468 
L 257.699849 334.745109 
L 256.715218 334.2849 
L 255.731863 334.228687 
L 253.763877 333.783467 
L 252.779246 333.355463 
L 250.811259 332.733474 
L 248.843273 332.621169 
L 247.859918 332.384641 
L 246.875287 332.368066 
L 245.891931 332.466971 
L 244.907301 332.338982 
L 243.923945 332.482011 
L 242.939314 332.840784 
L 241.955959 332.986209 
L 239.987973 332.221772 
L 237.035355 331.235129 
L 231.131397 327.210637 
L 228.180055 325.276812 
L 227.195424 324.4083 
L 226.212069 323.366471 
L 224.244082 320.911656 
L 221.415182 315.964492 
L 220.554267 312.987552 
L 219.693353 305.471127 
L 218.832439 293.812863 
L 217.971525 286.413577 
L 217.11061 286.772345 
L 216.249696 288.370042 
L 215.387506 292.499798 
L 214.526592 297.558436 
L 213.665678 297.634418 
L 212.804763 293.236402 
L 211.082935 280.05471 
L 209.361106 262.923216 
L 208.500192 258.460764 
L 207.639278 263.915561 
L 205.917449 284.362289 
L 205.056535 291.444245 
L 202.473792 307.978688 
L 201.611602 311.270849 
L 200.750688 313.598748 
L 199.889774 314.209811 
L 199.028859 313.620342 
L 198.167945 312.88206 
L 197.307031 311.179718 
L 194.724288 304.350808 
L 193.002459 298.427848 
L 192.141545 296.081438 
L 191.280631 295.346 
L 190.419717 295.043152 
L 189.558802 295.537801 
L 187.835698 297.131481 
L 186.11387 299.849845 
L 185.252955 300.50977 
L 184.392041 300.538565 
L 183.531127 299.847417 
L 182.670213 298.705595 
L 181.809298 297.317387 
L 180.948384 295.550633 
L 180.08747 293.313883 
L 179.226555 290.634784 
L 176.643813 281.160699 
L 174.921984 275.539611 
L 172.337966 268.665817 
L 170.616137 262.706677 
L 169.755223 258.965055 
L 168.033394 248.8216 
L 165.450651 230.944669 
L 162.867909 213.006991 
L 162.006994 210.164354 
L 161.14608 214.848184 
L 160.28389 226.399142 
L 159.422976 239.906005 
L 158.562062 251.097569 
L 157.701147 259.226508 
L 156.840233 265.658878 
L 155.979319 270.435591 
L 155.118405 274.29664 
L 153.396576 279.901618 
L 152.535662 282.290056 
L 151.674747 284.194135 
L 148.23109 289.708018 
L 147.370176 290.937231 
L 146.507986 291.912039 
L 144.786158 294.950253 
L 143.064329 296.867656 
L 142.203415 298.648372 
L 141.342501 299.340953 
L 140.481586 300.610859 
L 138.759758 302.405976 
L 137.037929 305.287118 
L 136.177015 306.117564 
L 135.316101 307.547859 
L 134.455186 309.473025 
L 133.594272 310.680441 
L 132.732082 311.548018 
L 131.871168 313.877127 
L 131.010254 315.616425 
L 130.149339 316.51513 
L 129.288425 319.223982 
L 128.30507 320.357429 
L 127.320439 321.983168 
L 126.337083 324.884071 
L 125.352453 325.016202 
L 124.369097 325.860784 
L 123.384466 327.337302 
L 122.401111 329.233069 
L 121.41648 330.754601 
L 120.433125 331.341565 
L 119.448494 332.626785 
L 118.465138 336.776489 
L 117.480507 336.372276 
L 116.497152 339.478725 
L 115.512521 341.638815 
L 114.529166 340.109482 
L 113.544535 340.30346 
L 112.561179 341.340324 
L 111.576549 339.845873 
L 110.593193 340.423706 
L 109.608562 339.567032 
L 108.625207 341.550637 
L 107.640576 337.798565 
L 106.657221 336.869832 
L 105.67259 339.035863 
L 104.689234 340.079785 
L 102.721248 343.439208 
L 101.736617 343.752707 
L 100.753262 344.305369 
L 99.64619 344.381084 
L 98.539118 343.762609 
L 97.554487 342.619078 
L 96.571131 344.049842 
L 95.586501 342.088222 
L 94.603145 342.967402 
L 92.635159 342.387149 
L 91.650528 342.917766 
L 90.667173 342.963674 
L 89.682542 342.632632 
L 88.699186 342.717032 
L 87.714555 343.322076 
L 86.7312 343.012475 
L 85.746569 343.529664 
L 84.763214 342.41652 
L 83.778583 344.423363 
L 82.671511 343.587553 
L 81.688155 343.467263 
L 80.703525 343.887861 
L 76.398953 344.373405 
L 75.291881 344.235378 
L 74.184809 344.536701 
L 73.077737 344.461832 
L 73.077737 344.461832 
" style="fill:none;stroke:#c44e52;stroke-linecap:round;stroke-width:1.75;"/>
   </g>
   <g id="patch_3">
    <path d="M 72 39.6 
L 518.4 39.6 
" style="fill:none;"/>
   </g>
   <g id="patch_4">
    <path d="M 518.4 346.5 
L 518.4 39.6 
" style="fill:none;"/>
   </g>
   <g id="patch_5">
    <path d="M 72 346.5 
L 518.4 346.5 
" style="fill:none;"/>
   </g>
   <g id="patch_6">
    <path d="M 72 346.5 
L 72 39.6 
" style="fill:none;"/>
   </g>
   <g id="text_17">
    <!-- Penn Felt -->
    <defs>
     <path d="M 6.390625 0 
L 6.390625 71.578125 
L 15.1875 71.578125 
L 15.1875 0 
z
" id="ArialMT-6c"/>
     <path d="M 25.78125 7.859375 
L 27.046875 0.09375 
Q 23.34375 -0.6875 20.40625 -0.6875 
Q 15.625 -0.6875 12.984375 0.828125 
Q 10.359375 2.34375 9.28125 4.8125 
Q 8.203125 7.28125 8.203125 15.1875 
L 8.203125 45.015625 
L 1.765625 45.015625 
L 1.765625 51.859375 
L 8.203125 51.859375 
L 8.203125 64.703125 
L 16.9375 69.96875 
L 16.9375 51.859375 
L 25.78125 51.859375 
L 25.78125 45.015625 
L 16.9375 45.015625 
L 16.9375 14.703125 
Q 16.9375 10.9375 17.40625 9.859375 
Q 17.875 8.796875 18.921875 8.15625 
Q 19.96875 7.515625 21.921875 7.515625 
Q 23.390625 7.515625 25.78125 7.859375 
" id="ArialMT-74"/>
     <path d="M 7.71875 0 
L 7.71875 71.578125 
L 34.71875 71.578125 
Q 41.84375 71.578125 45.609375 70.90625 
Q 50.875 70.015625 54.4375 67.546875 
Q 58.015625 65.09375 60.1875 60.640625 
Q 62.359375 56.203125 62.359375 50.875 
Q 62.359375 41.75 56.546875 35.421875 
Q 50.734375 29.109375 35.546875 29.109375 
L 17.1875 29.109375 
L 17.1875 0 
z
M 17.1875 37.546875 
L 35.6875 37.546875 
Q 44.875 37.546875 48.734375 40.96875 
Q 52.59375 44.390625 52.59375 50.59375 
Q 52.59375 55.078125 50.3125 58.265625 
Q 48.046875 61.46875 44.34375 62.5 
Q 41.9375 63.140625 35.5 63.140625 
L 17.1875 63.140625 
z
" id="ArialMT-50"/>
     <path d="M 8.203125 0 
L 8.203125 71.578125 
L 56.5 71.578125 
L 56.5 63.140625 
L 17.671875 63.140625 
L 17.671875 40.96875 
L 51.265625 40.96875 
L 51.265625 32.515625 
L 17.671875 32.515625 
L 17.671875 0 
z
" id="ArialMT-46"/>
     <path id="ArialMT-20"/>
    </defs>
    <g style="fill:#262626;" transform="translate(269.52 34.6)scale(0.12 -0.12)">
     <use xlink:href="#ArialMT-50"/>
     <use x="66.69921875" xlink:href="#ArialMT-65"/>
     <use x="122.314453125" xlink:href="#ArialMT-6e"/>
     <use x="177.9296875" xlink:href="#ArialMT-6e"/>
     <use x="233.544921875" xlink:href="#ArialMT-20"/>
     <use x="261.328125" xlink:href="#ArialMT-46"/>
     <use x="322.412109375" xlink:href="#ArialMT-65"/>
     <use x="378.02734375" xlink:href="#ArialMT-6c"/>
     <use x="400.244140625" xlink:href="#ArialMT-74"/>
    </g>
   </g>
   <g id="legend_1">
    <g id="line2d_46">
     <path d="M 396.907812 52.257812 
L 416.907812 52.257812 
" style="fill:none;stroke:#4c72b0;stroke-linecap:round;stroke-width:1.75;"/>
    </g>
    <g id="line2d_47"/>
    <g id="text_18">
     <!-- Penn_ATP -->
     <defs>
      <path d="M -0.140625 0 
L 27.34375 71.578125 
L 37.546875 71.578125 
L 66.84375 0 
L 56.0625 0 
L 47.703125 21.6875 
L 17.78125 21.6875 
L 9.90625 0 
z
M 20.515625 29.390625 
L 44.78125 29.390625 
L 37.3125 49.21875 
Q 33.890625 58.25 32.234375 64.0625 
Q 30.859375 57.171875 28.375 50.390625 
z
" id="ArialMT-41"/>
      <path d="M -1.515625 -19.875 
L -1.515625 -13.53125 
L 56.734375 -13.53125 
L 56.734375 -19.875 
z
" id="ArialMT-5f"/>
      <path d="M 25.921875 0 
L 25.921875 63.140625 
L 2.34375 63.140625 
L 2.34375 71.578125 
L 59.078125 71.578125 
L 59.078125 63.140625 
L 35.40625 63.140625 
L 35.40625 0 
z
" id="ArialMT-54"/>
     </defs>
     <g style="fill:#262626;" transform="translate(424.9078125 55.7578125)scale(0.1 -0.1)">
      <use xlink:href="#ArialMT-50"/>
      <use x="66.69921875" xlink:href="#ArialMT-65"/>
      <use x="122.314453125" xlink:href="#ArialMT-6e"/>
      <use x="177.9296875" xlink:href="#ArialMT-6e"/>
      <use x="233.544921875" xlink:href="#ArialMT-5f"/>
      <use x="289.16015625" xlink:href="#ArialMT-41"/>
      <use x="355.75" xlink:href="#ArialMT-54"/>
      <use x="416.833984375" xlink:href="#ArialMT-50"/>
     </g>
    </g>
    <g id="line2d_48">
     <path d="M 396.907812 66.403125 
L 416.907812 66.403125 
" style="fill:none;stroke:#55a868;stroke-linecap:round;stroke-width:1.75;"/>
    </g>
    <g id="line2d_49"/>
    <g id="text_19">
     <!-- Penn_ExtraDuty -->
     <defs>
      <path d="M 0.734375 0 
L 19.671875 26.953125 
L 2.15625 51.859375 
L 13.140625 51.859375 
L 21.09375 39.703125 
Q 23.34375 36.234375 24.703125 33.890625 
Q 26.859375 37.109375 28.65625 39.59375 
L 37.40625 51.859375 
L 47.90625 51.859375 
L 29.984375 27.4375 
L 49.265625 0 
L 38.484375 0 
L 27.828125 16.109375 
L 25 20.453125 
L 11.375 0 
z
" id="ArialMT-78"/>
      <path d="M 6.203125 -19.96875 
L 5.21875 -11.71875 
Q 8.109375 -12.5 10.25 -12.5 
Q 13.1875 -12.5 14.9375 -11.515625 
Q 16.703125 -10.546875 17.828125 -8.796875 
Q 18.65625 -7.46875 20.515625 -2.25 
Q 20.75 -1.515625 21.296875 -0.09375 
L 1.609375 51.859375 
L 11.078125 51.859375 
L 21.875 21.828125 
Q 23.96875 16.109375 25.640625 9.8125 
Q 27.15625 15.875 29.25 21.625 
L 40.328125 51.859375 
L 49.125 51.859375 
L 29.390625 -0.875 
Q 26.21875 -9.421875 24.46875 -12.640625 
Q 22.125 -17 19.09375 -19.015625 
Q 16.0625 -21.046875 11.859375 -21.046875 
Q 9.328125 -21.046875 6.203125 -19.96875 
" id="ArialMT-79"/>
      <path d="M 7.90625 0 
L 7.90625 71.578125 
L 59.671875 71.578125 
L 59.671875 63.140625 
L 17.390625 63.140625 
L 17.390625 41.21875 
L 56.984375 41.21875 
L 56.984375 32.8125 
L 17.390625 32.8125 
L 17.390625 8.453125 
L 61.328125 8.453125 
L 61.328125 0 
z
" id="ArialMT-45"/>
      <path d="M 7.71875 0 
L 7.71875 71.578125 
L 32.375 71.578125 
Q 40.71875 71.578125 45.125 70.5625 
Q 51.265625 69.140625 55.609375 65.4375 
Q 61.28125 60.640625 64.078125 53.1875 
Q 66.890625 45.75 66.890625 36.1875 
Q 66.890625 28.03125 64.984375 21.734375 
Q 63.09375 15.4375 60.109375 11.296875 
Q 57.125 7.171875 53.578125 4.796875 
Q 50.046875 2.4375 45.046875 1.21875 
Q 40.046875 0 33.546875 0 
z
M 17.1875 8.453125 
L 32.46875 8.453125 
Q 39.546875 8.453125 43.578125 9.765625 
Q 47.609375 11.078125 50 13.484375 
Q 53.375 16.84375 55.25 22.53125 
Q 57.125 28.21875 57.125 36.328125 
Q 57.125 47.5625 53.4375 53.59375 
Q 49.75 59.625 44.484375 61.671875 
Q 40.671875 63.140625 32.234375 63.140625 
L 17.1875 63.140625 
z
" id="ArialMT-44"/>
      <path d="M 40.578125 0 
L 40.578125 7.625 
Q 34.515625 -1.171875 24.125 -1.171875 
Q 19.53125 -1.171875 15.546875 0.578125 
Q 11.578125 2.34375 9.640625 5 
Q 7.71875 7.671875 6.9375 11.53125 
Q 6.390625 14.109375 6.390625 19.734375 
L 6.390625 51.859375 
L 15.1875 51.859375 
L 15.1875 23.09375 
Q 15.1875 16.21875 15.71875 13.8125 
Q 16.546875 10.359375 19.234375 8.375 
Q 21.921875 6.390625 25.875 6.390625 
Q 29.828125 6.390625 33.296875 8.421875 
Q 36.765625 10.453125 38.203125 13.9375 
Q 39.65625 17.4375 39.65625 24.078125 
L 39.65625 51.859375 
L 48.4375 51.859375 
L 48.4375 0 
z
" id="ArialMT-75"/>
     </defs>
     <g style="fill:#262626;" transform="translate(424.9078125 69.903125)scale(0.1 -0.1)">
      <use xlink:href="#ArialMT-50"/>
      <use x="66.69921875" xlink:href="#ArialMT-65"/>
      <use x="122.314453125" xlink:href="#ArialMT-6e"/>
      <use x="177.9296875" xlink:href="#ArialMT-6e"/>
      <use x="233.544921875" xlink:href="#ArialMT-5f"/>
      <use x="289.16015625" xlink:href="#ArialMT-45"/>
      <use x="355.859375" xlink:href="#ArialMT-78"/>
      <use x="405.859375" xlink:href="#ArialMT-74"/>
      <use x="433.642578125" xlink:href="#ArialMT-72"/>
      <use x="466.943359375" xlink:href="#ArialMT-61"/>
      <use x="522.55859375" xlink:href="#ArialMT-44"/>
      <use x="594.775390625" xlink:href="#ArialMT-75"/>
      <use x="650.390625" xlink:href="#ArialMT-74"/>
      <use x="678.173828125" xlink:href="#ArialMT-79"/>
     </g>
    </g>
    <g id="line2d_50">
     <path d="M 396.907812 80.665625 
L 416.907812 80.665625 
" style="fill:none;stroke:#c44e52;stroke-linecap:round;stroke-width:1.75;"/>
    </g>
    <g id="line2d_51"/>
    <g id="text_20">
     <!-- Penn_RegularDuty -->
     <defs>
      <path d="M 7.859375 0 
L 7.859375 71.578125 
L 39.59375 71.578125 
Q 49.171875 71.578125 54.140625 69.640625 
Q 59.125 67.71875 62.109375 62.828125 
Q 65.09375 57.953125 65.09375 52.046875 
Q 65.09375 44.4375 60.15625 39.203125 
Q 55.21875 33.984375 44.921875 32.5625 
Q 48.6875 30.765625 50.640625 29 
Q 54.78125 25.203125 58.5 19.484375 
L 70.953125 0 
L 59.03125 0 
L 49.5625 14.890625 
Q 45.40625 21.34375 42.71875 24.75 
Q 40.046875 28.171875 37.921875 29.53125 
Q 35.796875 30.90625 33.59375 31.453125 
Q 31.984375 31.78125 28.328125 31.78125 
L 17.328125 31.78125 
L 17.328125 0 
z
M 17.328125 39.984375 
L 37.703125 39.984375 
Q 44.1875 39.984375 47.84375 41.328125 
Q 51.515625 42.671875 53.421875 45.625 
Q 55.328125 48.578125 55.328125 52.046875 
Q 55.328125 57.125 51.640625 60.390625 
Q 47.953125 63.671875 39.984375 63.671875 
L 17.328125 63.671875 
z
" id="ArialMT-52"/>
      <path d="M 4.984375 -4.296875 
L 13.53125 -5.5625 
Q 14.0625 -9.515625 16.5 -11.328125 
Q 19.78125 -13.765625 25.4375 -13.765625 
Q 31.546875 -13.765625 34.859375 -11.328125 
Q 38.1875 -8.890625 39.359375 -4.5 
Q 40.046875 -1.8125 39.984375 6.78125 
Q 34.234375 0 25.640625 0 
Q 14.9375 0 9.078125 7.71875 
Q 3.21875 15.4375 3.21875 26.21875 
Q 3.21875 33.640625 5.90625 39.90625 
Q 8.59375 46.1875 13.6875 49.609375 
Q 18.796875 53.03125 25.6875 53.03125 
Q 34.859375 53.03125 40.828125 45.609375 
L 40.828125 51.859375 
L 48.921875 51.859375 
L 48.921875 7.03125 
Q 48.921875 -5.078125 46.453125 -10.125 
Q 44 -15.1875 38.640625 -18.109375 
Q 33.296875 -21.046875 25.484375 -21.046875 
Q 16.21875 -21.046875 10.5 -16.875 
Q 4.78125 -12.703125 4.984375 -4.296875 
M 12.25 26.859375 
Q 12.25 16.65625 16.296875 11.96875 
Q 20.359375 7.28125 26.46875 7.28125 
Q 32.515625 7.28125 36.609375 11.9375 
Q 40.71875 16.609375 40.71875 26.5625 
Q 40.71875 36.078125 36.5 40.90625 
Q 32.28125 45.75 26.3125 45.75 
Q 20.453125 45.75 16.34375 40.984375 
Q 12.25 36.234375 12.25 26.859375 
" id="ArialMT-67"/>
     </defs>
     <g style="fill:#262626;" transform="translate(424.9078125 84.165625)scale(0.1 -0.1)">
      <use xlink:href="#ArialMT-50"/>
      <use x="66.69921875" xlink:href="#ArialMT-65"/>
      <use x="122.314453125" xlink:href="#ArialMT-6e"/>
      <use x="177.9296875" xlink:href="#ArialMT-6e"/>
      <use x="233.544921875" xlink:href="#ArialMT-5f"/>
      <use x="289.16015625" xlink:href="#ArialMT-52"/>
      <use x="361.376953125" xlink:href="#ArialMT-65"/>
      <use x="416.9921875" xlink:href="#ArialMT-67"/>
      <use x="472.607421875" xlink:href="#ArialMT-75"/>
      <use x="528.22265625" xlink:href="#ArialMT-6c"/>
      <use x="550.439453125" xlink:href="#ArialMT-61"/>
      <use x="606.0546875" xlink:href="#ArialMT-72"/>
      <use x="639.35546875" xlink:href="#ArialMT-44"/>
      <use x="711.572265625" xlink:href="#ArialMT-75"/>
      <use x="767.1875" xlink:href="#ArialMT-74"/>
      <use x="794.970703125" xlink:href="#ArialMT-79"/>
     </g>
    </g>
   </g>
  </g>
 </g>
 <defs>
  <clipPath id="p98efa1d86b">
   <rect height="306.9" width="446.4" x="72.0" y="39.6"/>
  </clipPath>
 </defs>
</svg>
