<?xml version="1.0" encoding="utf-8" standalone="no"?>
<!DOCTYPE svg PUBLIC "-//W3C//DTD SVG 1.1//EN"
  "http://www.w3.org/Graphics/SVG/1.1/DTD/svg11.dtd">
<!-- Created with matplotlib (http://matplotlib.org/) -->
<svg height="396pt" version="1.1" viewBox="0 0 576 396" width="576pt" xmlns="http://www.w3.org/2000/svg" xmlns:xlink="http://www.w3.org/1999/xlink">
 <defs>
  <style type="text/css">
*{stroke-linecap:butt;stroke-linejoin:round;stroke-miterlimit:100000;}
  </style>
 </defs>
 <g id="figure_1">
  <g id="patch_1">
   <path d="M 0 396 
L 576 396 
L 576 0 
L 0 0 
z
" style="fill:#ffffff;"/>
  </g>
  <g id="axes_1">
   <g id="patch_2">
    <path d="M 72 346.5 
L 518.4 346.5 
L 518.4 39.6 
L 72 39.6 
z
" style="fill:#eaeaf2;"/>
   </g>
   <g id="matplotlib.axis_1">
    <g id="xtick_1">
     <g id="line2d_1">
      <path clip-path="url(#p9682dc909c)" d="M 518.4 346.5 
L 518.4 39.6 
" style="fill:none;stroke:#ffffff;stroke-linecap:round;"/>
     </g>
     <g id="line2d_2"/>
     <g id="line2d_3"/>
     <g id="text_1">
      <!-- 500 -->
      <defs>
       <path d="M 4.15625 35.296875 
Q 4.15625 48 6.765625 55.734375 
Q 9.375 63.484375 14.515625 67.671875 
Q 19.671875 71.875 27.484375 71.875 
Q 33.25 71.875 37.59375 69.546875 
Q 41.9375 67.234375 44.765625 62.859375 
Q 47.609375 58.5 49.21875 52.21875 
Q 50.828125 45.953125 50.828125 35.296875 
Q 50.828125 22.703125 48.234375 14.96875 
Q 45.65625 7.234375 40.5 3 
Q 35.359375 -1.21875 27.484375 -1.21875 
Q 17.140625 -1.21875 11.234375 6.203125 
Q 4.15625 15.140625 4.15625 35.296875 
M 13.1875 35.296875 
Q 13.1875 17.671875 17.3125 11.828125 
Q 21.4375 6 27.484375 6 
Q 33.546875 6 37.671875 11.859375 
Q 41.796875 17.71875 41.796875 35.296875 
Q 41.796875 52.984375 37.671875 58.78125 
Q 33.546875 64.59375 27.390625 64.59375 
Q 21.34375 64.59375 17.71875 59.46875 
Q 13.1875 52.9375 13.1875 35.296875 
" id="ArialMT-30"/>
       <path d="M 4.15625 18.75 
L 13.375 19.53125 
Q 14.40625 12.796875 18.140625 9.390625 
Q 21.875 6 27.15625 6 
Q 33.5 6 37.890625 10.78125 
Q 42.28125 15.578125 42.28125 23.484375 
Q 42.28125 31 38.0625 35.34375 
Q 33.84375 39.703125 27 39.703125 
Q 22.75 39.703125 19.328125 37.765625 
Q 15.921875 35.84375 13.96875 32.765625 
L 5.71875 33.84375 
L 12.640625 70.609375 
L 48.25 70.609375 
L 48.25 62.203125 
L 19.671875 62.203125 
L 15.828125 42.96875 
Q 22.265625 47.46875 29.34375 47.46875 
Q 38.71875 47.46875 45.15625 40.96875 
Q 51.609375 34.46875 51.609375 24.265625 
Q 51.609375 14.546875 45.953125 7.46875 
Q 39.0625 -1.21875 27.15625 -1.21875 
Q 17.390625 -1.21875 11.203125 4.25 
Q 5.03125 9.71875 4.15625 18.75 
" id="ArialMT-35"/>
      </defs>
      <g style="fill:#262626;" transform="translate(510.05859375 360.6578125)scale(0.1 -0.1)">
       <use xlink:href="#ArialMT-35"/>
       <use x="55.615234375" xlink:href="#ArialMT-30"/>
       <use x="111.23046875" xlink:href="#ArialMT-30"/>
      </g>
     </g>
    </g>
    <g id="xtick_2">
     <g id="line2d_4">
      <path clip-path="url(#p9682dc909c)" d="M 454.628571 346.5 
L 454.628571 39.6 
" style="fill:none;stroke:#ffffff;stroke-linecap:round;"/>
     </g>
     <g id="line2d_5"/>
     <g id="line2d_6"/>
     <g id="text_2">
      <!-- 1000 -->
      <defs>
       <path d="M 37.25 0 
L 28.46875 0 
L 28.46875 56 
Q 25.296875 52.984375 20.140625 49.953125 
Q 14.984375 46.921875 10.890625 45.40625 
L 10.890625 53.90625 
Q 18.265625 57.375 23.78125 62.296875 
Q 29.296875 67.234375 31.59375 71.875 
L 37.25 71.875 
z
" id="ArialMT-31"/>
      </defs>
      <g style="fill:#262626;" transform="translate(443.506696429 360.6578125)scale(0.1 -0.1)">
       <use xlink:href="#ArialMT-31"/>
       <use x="55.615234375" xlink:href="#ArialMT-30"/>
       <use x="111.23046875" xlink:href="#ArialMT-30"/>
       <use x="166.845703125" xlink:href="#ArialMT-30"/>
      </g>
     </g>
    </g>
    <g id="xtick_3">
     <g id="line2d_7">
      <path clip-path="url(#p9682dc909c)" d="M 390.857143 346.5 
L 390.857143 39.6 
" style="fill:none;stroke:#ffffff;stroke-linecap:round;"/>
     </g>
     <g id="line2d_8"/>
     <g id="line2d_9"/>
     <g id="text_3">
      <!-- 1500 -->
      <g style="fill:#262626;" transform="translate(379.735267857 360.6578125)scale(0.1 -0.1)">
       <use xlink:href="#ArialMT-31"/>
       <use x="55.615234375" xlink:href="#ArialMT-35"/>
       <use x="111.23046875" xlink:href="#ArialMT-30"/>
       <use x="166.845703125" xlink:href="#ArialMT-30"/>
      </g>
     </g>
    </g>
    <g id="xtick_4">
     <g id="line2d_10">
      <path clip-path="url(#p9682dc909c)" d="M 327.085714 346.5 
L 327.085714 39.6 
" style="fill:none;stroke:#ffffff;stroke-linecap:round;"/>
     </g>
     <g id="line2d_11"/>
     <g id="line2d_12"/>
     <g id="text_4">
      <!-- 2000 -->
      <defs>
       <path d="M 50.34375 8.453125 
L 50.34375 0 
L 3.03125 0 
Q 2.9375 3.171875 4.046875 6.109375 
Q 5.859375 10.9375 9.828125 15.625 
Q 13.8125 20.3125 21.34375 26.46875 
Q 33.015625 36.03125 37.109375 41.625 
Q 41.21875 47.21875 41.21875 52.203125 
Q 41.21875 57.421875 37.46875 61 
Q 33.734375 64.59375 27.734375 64.59375 
Q 21.390625 64.59375 17.578125 60.78125 
Q 13.765625 56.984375 13.71875 50.25 
L 4.6875 51.171875 
Q 5.609375 61.28125 11.65625 66.578125 
Q 17.71875 71.875 27.9375 71.875 
Q 38.234375 71.875 44.234375 66.15625 
Q 50.25 60.453125 50.25 52 
Q 50.25 47.703125 48.484375 43.546875 
Q 46.734375 39.40625 42.65625 34.8125 
Q 38.578125 30.21875 29.109375 22.21875 
Q 21.1875 15.578125 18.9375 13.203125 
Q 16.703125 10.84375 15.234375 8.453125 
z
" id="ArialMT-32"/>
      </defs>
      <g style="fill:#262626;" transform="translate(315.963839286 360.6578125)scale(0.1 -0.1)">
       <use xlink:href="#ArialMT-32"/>
       <use x="55.615234375" xlink:href="#ArialMT-30"/>
       <use x="111.23046875" xlink:href="#ArialMT-30"/>
       <use x="166.845703125" xlink:href="#ArialMT-30"/>
      </g>
     </g>
    </g>
    <g id="xtick_5">
     <g id="line2d_13">
      <path clip-path="url(#p9682dc909c)" d="M 263.314286 346.5 
L 263.314286 39.6 
" style="fill:none;stroke:#ffffff;stroke-linecap:round;"/>
     </g>
     <g id="line2d_14"/>
     <g id="line2d_15"/>
     <g id="text_5">
      <!-- 2500 -->
      <g style="fill:#262626;" transform="translate(252.192410714 360.6578125)scale(0.1 -0.1)">
       <use xlink:href="#ArialMT-32"/>
       <use x="55.615234375" xlink:href="#ArialMT-35"/>
       <use x="111.23046875" xlink:href="#ArialMT-30"/>
       <use x="166.845703125" xlink:href="#ArialMT-30"/>
      </g>
     </g>
    </g>
    <g id="xtick_6">
     <g id="line2d_16">
      <path clip-path="url(#p9682dc909c)" d="M 199.542857 346.5 
L 199.542857 39.6 
" style="fill:none;stroke:#ffffff;stroke-linecap:round;"/>
     </g>
     <g id="line2d_17"/>
     <g id="line2d_18"/>
     <g id="text_6">
      <!-- 3000 -->
      <defs>
       <path d="M 4.203125 18.890625 
L 12.984375 20.0625 
Q 14.5 12.59375 18.140625 9.296875 
Q 21.78125 6 27 6 
Q 33.203125 6 37.46875 10.296875 
Q 41.75 14.59375 41.75 20.953125 
Q 41.75 27 37.796875 30.921875 
Q 33.84375 34.859375 27.734375 34.859375 
Q 25.25 34.859375 21.53125 33.890625 
L 22.515625 41.609375 
Q 23.390625 41.5 23.921875 41.5 
Q 29.546875 41.5 34.03125 44.421875 
Q 38.53125 47.359375 38.53125 53.46875 
Q 38.53125 58.296875 35.25 61.46875 
Q 31.984375 64.65625 26.8125 64.65625 
Q 21.6875 64.65625 18.265625 61.421875 
Q 14.84375 58.203125 13.875 51.765625 
L 5.078125 53.328125 
Q 6.6875 62.15625 12.390625 67.015625 
Q 18.109375 71.875 26.609375 71.875 
Q 32.46875 71.875 37.390625 69.359375 
Q 42.328125 66.84375 44.9375 62.5 
Q 47.5625 58.15625 47.5625 53.265625 
Q 47.5625 48.640625 45.0625 44.828125 
Q 42.578125 41.015625 37.703125 38.765625 
Q 44.046875 37.3125 47.5625 32.6875 
Q 51.078125 28.078125 51.078125 21.140625 
Q 51.078125 11.765625 44.234375 5.25 
Q 37.40625 -1.265625 26.953125 -1.265625 
Q 17.53125 -1.265625 11.296875 4.34375 
Q 5.078125 9.96875 4.203125 18.890625 
" id="ArialMT-33"/>
      </defs>
      <g style="fill:#262626;" transform="translate(188.420982143 360.6578125)scale(0.1 -0.1)">
       <use xlink:href="#ArialMT-33"/>
       <use x="55.615234375" xlink:href="#ArialMT-30"/>
       <use x="111.23046875" xlink:href="#ArialMT-30"/>
       <use x="166.845703125" xlink:href="#ArialMT-30"/>
      </g>
     </g>
    </g>
    <g id="xtick_7">
     <g id="line2d_19">
      <path clip-path="url(#p9682dc909c)" d="M 135.771429 346.5 
L 135.771429 39.6 
" style="fill:none;stroke:#ffffff;stroke-linecap:round;"/>
     </g>
     <g id="line2d_20"/>
     <g id="line2d_21"/>
     <g id="text_7">
      <!-- 3500 -->
      <g style="fill:#262626;" transform="translate(124.649553571 360.6578125)scale(0.1 -0.1)">
       <use xlink:href="#ArialMT-33"/>
       <use x="55.615234375" xlink:href="#ArialMT-35"/>
       <use x="111.23046875" xlink:href="#ArialMT-30"/>
       <use x="166.845703125" xlink:href="#ArialMT-30"/>
      </g>
     </g>
    </g>
    <g id="xtick_8">
     <g id="line2d_22">
      <path clip-path="url(#p9682dc909c)" d="M 72 346.5 
L 72 39.6 
" style="fill:none;stroke:#ffffff;stroke-linecap:round;"/>
     </g>
     <g id="line2d_23"/>
     <g id="line2d_24"/>
     <g id="text_8">
      <!-- 4000 -->
      <defs>
       <path d="M 32.328125 0 
L 32.328125 17.140625 
L 1.265625 17.140625 
L 1.265625 25.203125 
L 33.9375 71.578125 
L 41.109375 71.578125 
L 41.109375 25.203125 
L 50.78125 25.203125 
L 50.78125 17.140625 
L 41.109375 17.140625 
L 41.109375 0 
z
M 32.328125 25.203125 
L 32.328125 57.46875 
L 9.90625 25.203125 
z
" id="ArialMT-34"/>
      </defs>
      <g style="fill:#262626;" transform="translate(60.878125 360.6578125)scale(0.1 -0.1)">
       <use xlink:href="#ArialMT-34"/>
       <use x="55.615234375" xlink:href="#ArialMT-30"/>
       <use x="111.23046875" xlink:href="#ArialMT-30"/>
       <use x="166.845703125" xlink:href="#ArialMT-30"/>
      </g>
     </g>
    </g>
    <g id="text_9">
     <!-- cm^-1 -->
     <defs>
      <path d="M 40.4375 19 
L 49.078125 17.875 
Q 47.65625 8.9375 41.8125 3.875 
Q 35.984375 -1.171875 27.484375 -1.171875 
Q 16.84375 -1.171875 10.375 5.78125 
Q 3.90625 12.75 3.90625 25.734375 
Q 3.90625 34.125 6.6875 40.421875 
Q 9.46875 46.734375 15.15625 49.875 
Q 20.84375 53.03125 27.546875 53.03125 
Q 35.984375 53.03125 41.359375 48.75 
Q 46.734375 44.484375 48.25 36.625 
L 39.703125 35.296875 
Q 38.484375 40.53125 35.375 43.15625 
Q 32.28125 45.796875 27.875 45.796875 
Q 21.234375 45.796875 17.078125 41.03125 
Q 12.9375 36.28125 12.9375 25.984375 
Q 12.9375 15.53125 16.9375 10.796875 
Q 20.953125 6.0625 27.390625 6.0625 
Q 32.5625 6.0625 36.03125 9.234375 
Q 39.5 12.40625 40.4375 19 
" id="ArialMT-63"/>
      <path d="M 11.671875 33.6875 
L 2.640625 33.6875 
L 19.875 72.796875 
L 26.953125 72.796875 
L 44.28125 33.6875 
L 35.453125 33.6875 
L 23.390625 62.84375 
z
" id="ArialMT-5e"/>
      <path d="M 3.171875 21.484375 
L 3.171875 30.328125 
L 30.171875 30.328125 
L 30.171875 21.484375 
z
" id="ArialMT-2d"/>
      <path d="M 6.59375 0 
L 6.59375 51.859375 
L 14.453125 51.859375 
L 14.453125 44.578125 
Q 16.890625 48.390625 20.9375 50.703125 
Q 25 53.03125 30.171875 53.03125 
Q 35.9375 53.03125 39.625 50.640625 
Q 43.3125 48.25 44.828125 43.953125 
Q 50.984375 53.03125 60.84375 53.03125 
Q 68.5625 53.03125 72.703125 48.75 
Q 76.859375 44.484375 76.859375 35.59375 
L 76.859375 0 
L 68.109375 0 
L 68.109375 32.671875 
Q 68.109375 37.9375 67.25 40.25 
Q 66.40625 42.578125 64.15625 43.984375 
Q 61.921875 45.40625 58.890625 45.40625 
Q 53.421875 45.40625 49.796875 41.765625 
Q 46.1875 38.140625 46.1875 30.125 
L 46.1875 0 
L 37.40625 0 
L 37.40625 33.6875 
Q 37.40625 39.546875 35.25 42.46875 
Q 33.109375 45.40625 28.21875 45.40625 
Q 24.515625 45.40625 21.359375 43.453125 
Q 18.21875 41.5 16.796875 37.734375 
Q 15.375 33.984375 15.375 26.90625 
L 15.375 0 
z
" id="ArialMT-6d"/>
     </defs>
     <g style="fill:#262626;" transform="translate(280.398125 375.51890625)scale(0.11 -0.11)">
      <use xlink:href="#ArialMT-63"/>
      <use x="50.0" xlink:href="#ArialMT-6d"/>
      <use x="133.30078125" xlink:href="#ArialMT-5e"/>
      <use x="180.224609375" xlink:href="#ArialMT-2d"/>
      <use x="213.525390625" xlink:href="#ArialMT-31"/>
     </g>
    </g>
   </g>
   <g id="matplotlib.axis_2">
    <g id="ytick_1">
     <g id="line2d_25">
      <path clip-path="url(#p9682dc909c)" d="M 72 346.5 
L 518.4 346.5 
" style="fill:none;stroke:#ffffff;stroke-linecap:round;"/>
     </g>
     <g id="line2d_26"/>
     <g id="line2d_27"/>
     <g id="text_10">
      <!-- 0.0 -->
      <defs>
       <path d="M 9.078125 0 
L 9.078125 10.015625 
L 19.09375 10.015625 
L 19.09375 0 
z
" id="ArialMT-2e"/>
      </defs>
      <g style="fill:#262626;" transform="translate(51.1 349.08515625)scale(0.1 -0.1)">
       <use xlink:href="#ArialMT-30"/>
       <use x="55.615234375" xlink:href="#ArialMT-2e"/>
       <use x="83.3984375" xlink:href="#ArialMT-30"/>
      </g>
     </g>
    </g>
    <g id="ytick_2">
     <g id="line2d_28">
      <path clip-path="url(#p9682dc909c)" d="M 72 285.12 
L 518.4 285.12 
" style="fill:none;stroke:#ffffff;stroke-linecap:round;"/>
     </g>
     <g id="line2d_29"/>
     <g id="line2d_30"/>
     <g id="text_11">
      <!-- 0.2 -->
      <g style="fill:#262626;" transform="translate(51.1 287.70515625)scale(0.1 -0.1)">
       <use xlink:href="#ArialMT-30"/>
       <use x="55.615234375" xlink:href="#ArialMT-2e"/>
       <use x="83.3984375" xlink:href="#ArialMT-32"/>
      </g>
     </g>
    </g>
    <g id="ytick_3">
     <g id="line2d_31">
      <path clip-path="url(#p9682dc909c)" d="M 72 223.74 
L 518.4 223.74 
" style="fill:none;stroke:#ffffff;stroke-linecap:round;"/>
     </g>
     <g id="line2d_32"/>
     <g id="line2d_33"/>
     <g id="text_12">
      <!-- 0.4 -->
      <g style="fill:#262626;" transform="translate(51.1 226.32515625)scale(0.1 -0.1)">
       <use xlink:href="#ArialMT-30"/>
       <use x="55.615234375" xlink:href="#ArialMT-2e"/>
       <use x="83.3984375" xlink:href="#ArialMT-34"/>
      </g>
     </g>
    </g>
    <g id="ytick_4">
     <g id="line2d_34">
      <path clip-path="url(#p9682dc909c)" d="M 72 162.36 
L 518.4 162.36 
" style="fill:none;stroke:#ffffff;stroke-linecap:round;"/>
     </g>
     <g id="line2d_35"/>
     <g id="line2d_36"/>
     <g id="text_13">
      <!-- 0.6 -->
      <defs>
       <path d="M 49.75 54.046875 
L 41.015625 53.375 
Q 39.84375 58.546875 37.703125 60.890625 
Q 34.125 64.65625 28.90625 64.65625 
Q 24.703125 64.65625 21.53125 62.3125 
Q 17.390625 59.28125 14.984375 53.46875 
Q 12.59375 47.65625 12.5 36.921875 
Q 15.671875 41.75 20.265625 44.09375 
Q 24.859375 46.4375 29.890625 46.4375 
Q 38.671875 46.4375 44.84375 39.96875 
Q 51.03125 33.5 51.03125 23.25 
Q 51.03125 16.5 48.125 10.71875 
Q 45.21875 4.9375 40.140625 1.859375 
Q 35.0625 -1.21875 28.609375 -1.21875 
Q 17.625 -1.21875 10.6875 6.859375 
Q 3.765625 14.9375 3.765625 33.5 
Q 3.765625 54.25 11.421875 63.671875 
Q 18.109375 71.875 29.4375 71.875 
Q 37.890625 71.875 43.28125 67.140625 
Q 48.6875 62.40625 49.75 54.046875 
M 13.875 23.1875 
Q 13.875 18.65625 15.796875 14.5 
Q 17.71875 10.359375 21.1875 8.171875 
Q 24.65625 6 28.46875 6 
Q 34.03125 6 38.03125 10.484375 
Q 42.046875 14.984375 42.046875 22.703125 
Q 42.046875 30.125 38.078125 34.390625 
Q 34.125 38.671875 28.125 38.671875 
Q 22.171875 38.671875 18.015625 34.390625 
Q 13.875 30.125 13.875 23.1875 
" id="ArialMT-36"/>
      </defs>
      <g style="fill:#262626;" transform="translate(51.1 164.94515625)scale(0.1 -0.1)">
       <use xlink:href="#ArialMT-30"/>
       <use x="55.615234375" xlink:href="#ArialMT-2e"/>
       <use x="83.3984375" xlink:href="#ArialMT-36"/>
      </g>
     </g>
    </g>
    <g id="ytick_5">
     <g id="line2d_37">
      <path clip-path="url(#p9682dc909c)" d="M 72 100.98 
L 518.4 100.98 
" style="fill:none;stroke:#ffffff;stroke-linecap:round;"/>
     </g>
     <g id="line2d_38"/>
     <g id="line2d_39"/>
     <g id="text_14">
      <!-- 0.8 -->
      <defs>
       <path d="M 17.671875 38.8125 
Q 12.203125 40.828125 9.5625 44.53125 
Q 6.9375 48.25 6.9375 53.421875 
Q 6.9375 61.234375 12.546875 66.546875 
Q 18.171875 71.875 27.484375 71.875 
Q 36.859375 71.875 42.578125 66.421875 
Q 48.296875 60.984375 48.296875 53.171875 
Q 48.296875 48.1875 45.671875 44.5 
Q 43.0625 40.828125 37.75 38.8125 
Q 44.34375 36.671875 47.78125 31.875 
Q 51.21875 27.09375 51.21875 20.453125 
Q 51.21875 11.28125 44.71875 5.03125 
Q 38.234375 -1.21875 27.640625 -1.21875 
Q 17.046875 -1.21875 10.546875 5.046875 
Q 4.046875 11.328125 4.046875 20.703125 
Q 4.046875 27.6875 7.59375 32.390625 
Q 11.140625 37.109375 17.671875 38.8125 
M 15.921875 53.71875 
Q 15.921875 48.640625 19.1875 45.40625 
Q 22.46875 42.1875 27.6875 42.1875 
Q 32.765625 42.1875 36.015625 45.375 
Q 39.265625 48.578125 39.265625 53.21875 
Q 39.265625 58.0625 35.90625 61.359375 
Q 32.5625 64.65625 27.59375 64.65625 
Q 22.5625 64.65625 19.234375 61.421875 
Q 15.921875 58.203125 15.921875 53.71875 
M 13.09375 20.65625 
Q 13.09375 16.890625 14.875 13.375 
Q 16.65625 9.859375 20.171875 7.921875 
Q 23.6875 6 27.734375 6 
Q 34.03125 6 38.125 10.046875 
Q 42.234375 14.109375 42.234375 20.359375 
Q 42.234375 26.703125 38.015625 30.859375 
Q 33.796875 35.015625 27.4375 35.015625 
Q 21.234375 35.015625 17.15625 30.90625 
Q 13.09375 26.8125 13.09375 20.65625 
" id="ArialMT-38"/>
      </defs>
      <g style="fill:#262626;" transform="translate(51.1 103.56515625)scale(0.1 -0.1)">
       <use xlink:href="#ArialMT-30"/>
       <use x="55.615234375" xlink:href="#ArialMT-2e"/>
       <use x="83.3984375" xlink:href="#ArialMT-38"/>
      </g>
     </g>
    </g>
    <g id="ytick_6">
     <g id="line2d_40">
      <path clip-path="url(#p9682dc909c)" d="M 72 39.6 
L 518.4 39.6 
" style="fill:none;stroke:#ffffff;stroke-linecap:round;"/>
     </g>
     <g id="line2d_41"/>
     <g id="line2d_42"/>
     <g id="text_15">
      <!-- 1.0 -->
      <g style="fill:#262626;" transform="translate(51.1 42.18515625)scale(0.1 -0.1)">
       <use xlink:href="#ArialMT-31"/>
       <use x="55.615234375" xlink:href="#ArialMT-2e"/>
       <use x="83.3984375" xlink:href="#ArialMT-30"/>
      </g>
     </g>
    </g>
    <g id="text_16">
     <!-- absorbance -->
     <defs>
      <path d="M 14.703125 0 
L 6.546875 0 
L 6.546875 71.578125 
L 15.328125 71.578125 
L 15.328125 46.046875 
Q 20.90625 53.03125 29.546875 53.03125 
Q 34.328125 53.03125 38.59375 51.09375 
Q 42.875 49.171875 45.625 45.671875 
Q 48.390625 42.1875 49.953125 37.25 
Q 51.515625 32.328125 51.515625 26.703125 
Q 51.515625 13.375 44.921875 6.09375 
Q 38.328125 -1.171875 29.109375 -1.171875 
Q 19.921875 -1.171875 14.703125 6.5 
z
M 14.59375 26.3125 
Q 14.59375 17 17.140625 12.84375 
Q 21.296875 6.0625 28.375 6.0625 
Q 34.125 6.0625 38.328125 11.0625 
Q 42.53125 16.0625 42.53125 25.984375 
Q 42.53125 36.140625 38.5 40.96875 
Q 34.46875 45.796875 28.765625 45.796875 
Q 23 45.796875 18.796875 40.796875 
Q 14.59375 35.796875 14.59375 26.3125 
" id="ArialMT-62"/>
      <path d="M 40.4375 6.390625 
Q 35.546875 2.25 31.03125 0.53125 
Q 26.515625 -1.171875 21.34375 -1.171875 
Q 12.796875 -1.171875 8.203125 3 
Q 3.609375 7.171875 3.609375 13.671875 
Q 3.609375 17.484375 5.34375 20.625 
Q 7.078125 23.78125 9.890625 25.6875 
Q 12.703125 27.59375 16.21875 28.5625 
Q 18.796875 29.25 24.03125 29.890625 
Q 34.671875 31.15625 39.703125 32.90625 
Q 39.75 34.71875 39.75 35.203125 
Q 39.75 40.578125 37.25 42.78125 
Q 33.890625 45.75 27.25 45.75 
Q 21.046875 45.75 18.09375 43.578125 
Q 15.140625 41.40625 13.71875 35.890625 
L 5.125 37.0625 
Q 6.296875 42.578125 8.984375 45.96875 
Q 11.671875 49.359375 16.75 51.1875 
Q 21.828125 53.03125 28.515625 53.03125 
Q 35.15625 53.03125 39.296875 51.46875 
Q 43.453125 49.90625 45.40625 47.53125 
Q 47.359375 45.171875 48.140625 41.546875 
Q 48.578125 39.3125 48.578125 33.453125 
L 48.578125 21.734375 
Q 48.578125 9.46875 49.140625 6.21875 
Q 49.703125 2.984375 51.375 0 
L 42.1875 0 
Q 40.828125 2.734375 40.4375 6.390625 
M 39.703125 26.03125 
Q 34.90625 24.078125 25.34375 22.703125 
Q 19.921875 21.921875 17.671875 20.9375 
Q 15.4375 19.96875 14.203125 18.09375 
Q 12.984375 16.21875 12.984375 13.921875 
Q 12.984375 10.40625 15.640625 8.0625 
Q 18.3125 5.71875 23.4375 5.71875 
Q 28.515625 5.71875 32.46875 7.9375 
Q 36.421875 10.15625 38.28125 14.015625 
Q 39.703125 17 39.703125 22.796875 
z
" id="ArialMT-61"/>
      <path d="M 42.09375 16.703125 
L 51.171875 15.578125 
Q 49.03125 7.625 43.21875 3.21875 
Q 37.40625 -1.171875 28.375 -1.171875 
Q 17 -1.171875 10.328125 5.828125 
Q 3.65625 12.84375 3.65625 25.484375 
Q 3.65625 38.578125 10.390625 45.796875 
Q 17.140625 53.03125 27.875 53.03125 
Q 38.28125 53.03125 44.875 45.953125 
Q 51.46875 38.875 51.46875 26.03125 
Q 51.46875 25.25 51.421875 23.6875 
L 12.75 23.6875 
Q 13.234375 15.140625 17.578125 10.59375 
Q 21.921875 6.0625 28.421875 6.0625 
Q 33.25 6.0625 36.671875 8.59375 
Q 40.09375 11.140625 42.09375 16.703125 
M 13.234375 30.90625 
L 42.1875 30.90625 
Q 41.609375 37.453125 38.875 40.71875 
Q 34.671875 45.796875 27.984375 45.796875 
Q 21.921875 45.796875 17.796875 41.75 
Q 13.671875 37.703125 13.234375 30.90625 
" id="ArialMT-65"/>
      <path d="M 6.5 0 
L 6.5 51.859375 
L 14.40625 51.859375 
L 14.40625 44 
Q 17.4375 49.515625 20 51.265625 
Q 22.5625 53.03125 25.640625 53.03125 
Q 30.078125 53.03125 34.671875 50.203125 
L 31.640625 42.046875 
Q 28.421875 43.953125 25.203125 43.953125 
Q 22.3125 43.953125 20.015625 42.21875 
Q 17.71875 40.484375 16.75 37.40625 
Q 15.28125 32.71875 15.28125 27.15625 
L 15.28125 0 
z
" id="ArialMT-72"/>
      <path d="M 3.078125 15.484375 
L 11.765625 16.84375 
Q 12.5 11.625 15.84375 8.84375 
Q 19.1875 6.0625 25.203125 6.0625 
Q 31.25 6.0625 34.171875 8.515625 
Q 37.109375 10.984375 37.109375 14.3125 
Q 37.109375 17.28125 34.515625 19 
Q 32.71875 20.171875 25.53125 21.96875 
Q 15.875 24.421875 12.140625 26.203125 
Q 8.40625 27.984375 6.46875 31.125 
Q 4.546875 34.28125 4.546875 38.09375 
Q 4.546875 41.546875 6.125 44.5 
Q 7.71875 47.46875 10.453125 49.421875 
Q 12.5 50.921875 16.03125 51.96875 
Q 19.578125 53.03125 23.640625 53.03125 
Q 29.734375 53.03125 34.34375 51.265625 
Q 38.96875 49.515625 41.15625 46.5 
Q 43.359375 43.5 44.1875 38.484375 
L 35.59375 37.3125 
Q 35.015625 41.3125 32.203125 43.546875 
Q 29.390625 45.796875 24.265625 45.796875 
Q 18.21875 45.796875 15.625 43.796875 
Q 13.03125 41.796875 13.03125 39.109375 
Q 13.03125 37.40625 14.109375 36.03125 
Q 15.1875 34.625 17.484375 33.6875 
Q 18.796875 33.203125 25.25 31.453125 
Q 34.578125 28.953125 38.25 27.359375 
Q 41.9375 25.78125 44.03125 22.75 
Q 46.140625 19.734375 46.140625 15.234375 
Q 46.140625 10.84375 43.578125 6.953125 
Q 41.015625 3.078125 36.171875 0.953125 
Q 31.34375 -1.171875 25.25 -1.171875 
Q 15.140625 -1.171875 9.84375 3.03125 
Q 4.546875 7.234375 3.078125 15.484375 
" id="ArialMT-73"/>
      <path d="M 3.328125 25.921875 
Q 3.328125 40.328125 11.328125 47.265625 
Q 18.015625 53.03125 27.640625 53.03125 
Q 38.328125 53.03125 45.109375 46.015625 
Q 51.90625 39.015625 51.90625 26.65625 
Q 51.90625 16.65625 48.90625 10.90625 
Q 45.90625 5.171875 40.15625 2 
Q 34.421875 -1.171875 27.640625 -1.171875 
Q 16.75 -1.171875 10.03125 5.8125 
Q 3.328125 12.796875 3.328125 25.921875 
M 12.359375 25.921875 
Q 12.359375 15.96875 16.703125 11.015625 
Q 21.046875 6.0625 27.640625 6.0625 
Q 34.1875 6.0625 38.53125 11.03125 
Q 42.875 16.015625 42.875 26.21875 
Q 42.875 35.84375 38.5 40.796875 
Q 34.125 45.75 27.640625 45.75 
Q 21.046875 45.75 16.703125 40.8125 
Q 12.359375 35.890625 12.359375 25.921875 
" id="ArialMT-6f"/>
      <path d="M 6.59375 0 
L 6.59375 51.859375 
L 14.5 51.859375 
L 14.5 44.484375 
Q 20.21875 53.03125 31 53.03125 
Q 35.6875 53.03125 39.625 51.34375 
Q 43.5625 49.65625 45.515625 46.921875 
Q 47.46875 44.1875 48.25 40.4375 
Q 48.734375 37.984375 48.734375 31.890625 
L 48.734375 0 
L 39.9375 0 
L 39.9375 31.546875 
Q 39.9375 36.921875 38.90625 39.578125 
Q 37.890625 42.234375 35.28125 43.8125 
Q 32.671875 45.40625 29.15625 45.40625 
Q 23.53125 45.40625 19.453125 41.84375 
Q 15.375 38.28125 15.375 28.328125 
L 15.375 0 
z
" id="ArialMT-6e"/>
     </defs>
     <g style="fill:#262626;" transform="translate(43.91375 221.7909375)rotate(-90.0)scale(0.11 -0.11)">
      <use xlink:href="#ArialMT-61"/>
      <use x="55.615234375" xlink:href="#ArialMT-62"/>
      <use x="111.23046875" xlink:href="#ArialMT-73"/>
      <use x="161.23046875" xlink:href="#ArialMT-6f"/>
      <use x="216.845703125" xlink:href="#ArialMT-72"/>
      <use x="250.146484375" xlink:href="#ArialMT-62"/>
      <use x="305.76171875" xlink:href="#ArialMT-61"/>
      <use x="361.376953125" xlink:href="#ArialMT-6e"/>
      <use x="416.9921875" xlink:href="#ArialMT-63"/>
      <use x="466.9921875" xlink:href="#ArialMT-65"/>
     </g>
    </g>
   </g>
   <g id="line2d_43">
    <path clip-path="url(#p9682dc909c)" d="M 505.666121 340.611179 
L 504.68149 345.008115 
L 503.574418 341.693194 
L 502.591063 331.509622 
L 501.606432 323.749955 
L 500.623077 313.694413 
L 498.901248 292.221946 
L 498.040334 283.051806 
L 497.179419 267.860195 
L 496.318505 263.260896 
L 495.457591 259.48949 
L 494.596677 263.568277 
L 492.873573 285.626301 
L 492.012658 292.669377 
L 491.151744 294.488438 
L 490.29083 293.774564 
L 489.429915 298.997718 
L 488.569001 315.182005 
L 487.708087 326.72934 
L 486.724731 330.566417 
L 484.756745 336.749747 
L 483.772114 339.355124 
L 482.788759 341.134452 
L 481.804128 341.998213 
L 480.820773 342.638442 
L 479.836142 344.654785 
L 478.72907 346.151318 
L 477.499557 346.24051 
L 476.268768 345.631394 
L 475.161696 345.568472 
L 472.948827 345.932153 
L 471.841755 345.241032 
L 470.734683 344.966838 
L 469.627611 345.268428 
L 468.520539 344.129161 
L 467.535909 339.775248 
L 466.552553 339.598683 
L 465.567922 338.761308 
L 464.584567 332.14702 
L 463.599936 322.584714 
L 462.616581 332.973263 
L 461.63195 341.772067 
L 460.648594 343.942464 
L 459.663963 344.496004 
L 458.556891 344.052714 
L 457.573536 342.520986 
L 455.60555 337.762826 
L 454.620919 334.085796 
L 453.637563 329.662787 
L 452.652933 328.008836 
L 451.669577 325.175154 
L 450.684946 320.167564 
L 449.701591 317.795281 
L 448.840677 317.587254 
L 447.979762 316.210548 
L 447.118848 313.997964 
L 446.257934 313.284823 
L 445.397019 313.150376 
L 442.813001 311.337542 
L 441.952087 310.919579 
L 441.091173 310.719286 
L 440.230258 309.826507 
L 439.369344 307.746296 
L 438.50843 305.175673 
L 437.647515 299.231568 
L 436.786601 296.253039 
L 435.925687 297.314224 
L 435.064773 300.722893 
L 434.203858 299.221748 
L 433.342944 290.649416 
L 432.48203 278.144484 
L 431.621115 275.772572 
L 430.758926 271.852653 
L 429.898011 257.98471 
L 428.176183 279.258602 
L 427.315269 277.601618 
L 426.454354 270.490348 
L 424.732526 261.194488 
L 423.871611 259.436776 
L 423.010697 258.249583 
L 422.149783 255.358364 
L 420.427954 242.433735 
L 419.56704 248.570653 
L 418.706126 265.969054 
L 417.845211 276.243185 
L 416.983022 279.468421 
L 416.122107 281.323869 
L 415.261193 284.632817 
L 414.400279 287.376823 
L 413.539365 287.790984 
L 412.67845 286.212791 
L 411.817536 282.858653 
L 410.956622 280.249295 
L 410.095707 275.63331 
L 409.234793 269.004104 
L 408.373879 260.579207 
L 407.512965 256.665335 
L 406.65205 262.75462 
L 404.930222 271.926605 
L 404.069307 274.143639 
L 403.207118 268.727311 
L 402.346203 249.566708 
L 401.485289 246.348469 
L 400.624375 258.679604 
L 398.902546 248.518416 
L 398.041632 247.148013 
L 397.180718 241.324017 
L 396.319803 230.361724 
L 395.458889 231.153905 
L 394.597975 237.130119 
L 393.737061 252.906179 
L 392.876146 260.912779 
L 392.015232 246.881794 
L 391.154318 224.169606 
L 389.431214 165.338805 
L 387.709385 95.31992 
L 386.848471 85.788414 
L 385.987557 108.362641 
L 385.126642 143.877031 
L 384.265728 169.721816 
L 383.404814 204.773837 
L 381.682985 246.333818 
L 380.822071 258.392201 
L 379.961157 258.817095 
L 379.100242 248.282076 
L 378.239328 224.870397 
L 377.378414 187.530019 
L 375.65531 87.595576 
L 374.794395 53.083123 
L 374.057198 43.689738 
L 373.318725 75.716344 
L 372.45781 120.108343 
L 371.596896 172.07684 
L 370.735982 212.244341 
L 369.875067 245.411148 
L 369.014153 272.471381 
L 367.292325 306.799741 
L 365.570496 325.586293 
L 364.585865 331.164591 
L 363.60251 333.442493 
L 362.617879 336.597037 
L 361.634523 337.223038 
L 359.666537 341.067213 
L 358.681906 344.081549 
L 357.698551 345.307804 
L 356.591479 345.434171 
L 355.484407 345.761281 
L 354.377335 345.458263 
L 353.270263 345.320536 
L 351.056119 345.458093 
L 349.949047 344.856321 
L 348.841975 345.039351 
L 347.734903 344.8432 
L 346.627831 345.051519 
L 345.520759 344.910657 
L 344.413687 344.476292 
L 343.306615 344.704667 
L 342.200818 344.473785 
L 341.093746 344.364136 
L 339.986674 344.453589 
L 338.879602 344.198585 
L 337.77253 344.117058 
L 336.665458 344.386709 
L 334.451314 343.786242 
L 333.466683 344.17538 
L 332.360887 343.983842 
L 331.253815 343.417268 
L 330.269184 341.660242 
L 329.285829 341.627518 
L 328.301198 342.00253 
L 327.317842 342.956908 
L 324.365225 342.183686 
L 322.397239 340.985029 
L 321.413883 340.373569 
L 320.429253 341.153707 
L 319.445897 341.099795 
L 318.461266 340.850825 
L 317.477911 340.797854 
L 316.49328 341.020552 
L 315.509925 341.4123 
L 314.525294 340.829464 
L 313.541938 340.771907 
L 312.557307 341.224037 
L 311.573952 342.297281 
L 310.589321 343.187471 
L 309.605966 342.551659 
L 308.621335 342.503321 
L 307.637979 343.069605 
L 306.653349 338.337509 
L 305.669993 339.857581 
L 304.685362 340.116578 
L 303.702007 339.466749 
L 302.717376 339.673314 
L 301.734021 340.021057 
L 300.74939 339.873341 
L 298.781403 340.078627 
L 297.798048 339.857319 
L 295.830062 339.726215 
L 292.877445 338.132315 
L 291.894089 338.117551 
L 290.909458 336.956804 
L 289.926103 334.407001 
L 288.941472 330.640092 
L 286.973486 316.154834 
L 286.112571 305.699796 
L 285.251657 300.519212 
L 284.390743 296.838987 
L 282.668914 303.105563 
L 281.808 281.842589 
L 280.947086 283.862541 
L 279.225257 326.553904 
L 278.240626 339.068785 
L 277.257271 341.318864 
L 276.27264 341.208542 
L 275.289285 340.868349 
L 271.353312 339.943986 
L 270.368681 339.632739 
L 269.385326 339.448801 
L 268.400695 339.486794 
L 263.481367 338.689761 
L 262.496736 338.452699 
L 260.52875 338.139159 
L 256.592777 337.20361 
L 250.688818 335.77717 
L 249.705463 335.65679 
L 247.737477 335.538943 
L 243.801504 335.369844 
L 242.816873 335.696318 
L 241.833518 335.69936 
L 236.912914 334.15029 
L 234.944928 332.972831 
L 232.976942 331.591036 
L 231.008955 330.563251 
L 229.040969 329.436903 
L 227.072983 327.948286 
L 226.089627 326.850541 
L 224.121641 324.035267 
L 222.153655 320.018393 
L 221.169024 317.60085 
L 220.30811 312.216546 
L 219.447195 299.909487 
L 218.586281 284.534586 
L 217.725367 278.873978 
L 216.864453 282.123934 
L 216.003538 286.472902 
L 215.142624 293.520434 
L 214.28171 297.902553 
L 213.41952 295.643605 
L 212.558606 288.622563 
L 210.836777 270.500164 
L 209.975863 258.639281 
L 209.114949 248.75555 
L 208.254034 247.533456 
L 207.39312 258.59538 
L 205.671291 286.699052 
L 204.810377 296.397344 
L 203.088549 311.034871 
L 202.227634 316.020676 
L 201.36672 319.350962 
L 200.382089 321.057053 
L 199.398734 321.057222 
L 198.414103 320.551076 
L 197.430747 319.298803 
L 196.446117 317.590198 
L 195.585202 315.717274 
L 194.724288 313.458362 
L 193.002459 307.682537 
L 192.141545 305.375747 
L 191.280631 304.40399 
L 190.419717 303.854326 
L 189.558802 304.156005 
L 188.697888 304.901696 
L 187.835698 305.900475 
L 186.11387 309.110992 
L 185.252955 310.200002 
L 184.392041 310.555899 
L 183.531127 310.303324 
L 182.670213 309.687988 
L 181.809298 308.685927 
L 180.948384 307.274791 
L 180.08747 305.534372 
L 179.226555 303.20641 
L 175.782898 292.734237 
L 174.921984 290.438554 
L 172.337966 284.412589 
L 171.477051 281.800129 
L 170.616137 278.595258 
L 169.755223 274.481702 
L 168.033394 263.573561 
L 165.450651 243.351178 
L 162.867909 220.796896 
L 162.006994 217.405967 
L 161.14608 221.826565 
L 160.28389 234.23713 
L 159.422976 249.104474 
L 158.562062 261.879469 
L 157.701147 271.381878 
L 156.840233 278.709721 
L 155.979319 284.264333 
L 155.118405 288.62239 
L 154.25749 291.915627 
L 153.396576 294.706121 
L 152.535662 296.985112 
L 151.674747 298.767036 
L 150.813833 300.262246 
L 149.092005 302.582755 
L 143.925243 308.227795 
L 143.064329 309.024794 
L 142.203415 310.139022 
L 140.481586 311.756376 
L 139.620672 312.610122 
L 138.759758 313.264094 
L 137.037929 315.322568 
L 136.177015 316.161999 
L 135.316101 317.246351 
L 134.455186 318.825217 
L 133.470555 320.097586 
L 132.4872 321.577125 
L 131.502569 323.373847 
L 130.519214 324.560062 
L 129.534583 326.440687 
L 128.551227 327.882441 
L 127.566597 328.943527 
L 126.583241 330.928176 
L 125.59861 331.679766 
L 124.615255 332.139133 
L 123.630624 333.051387 
L 121.662638 335.957992 
L 119.694651 336.853984 
L 118.711296 339.541354 
L 116.74331 341.536071 
L 115.758679 342.985199 
L 114.775323 342.926086 
L 113.790693 342.752459 
L 112.807337 343.556058 
L 111.822706 342.546427 
L 110.839351 342.707574 
L 109.85472 342.377733 
L 108.871365 343.435295 
L 107.886734 341.765471 
L 106.903378 340.759827 
L 105.918747 341.87738 
L 104.935392 343.327105 
L 103.950761 343.832219 
L 102.967406 344.879867 
L 99.64619 345.417045 
L 98.539118 345.04307 
L 97.432046 344.809161 
L 96.324974 345.106465 
L 95.217902 344.488105 
L 94.11083 344.937538 
L 93.003758 344.321842 
L 91.896686 344.983073 
L 89.682542 344.668568 
L 88.57547 344.908218 
L 86.362601 345.022837 
L 85.255529 344.639044 
L 84.148457 345.291691 
L 83.041385 345.168617 
L 81.934313 345.167798 
L 79.720169 345.324367 
L 74.184809 345.580006 
L 73.077737 345.514746 
L 73.077737 345.514746 
" style="fill:none;stroke:#4c72b0;stroke-linecap:round;stroke-width:1.75;"/>
   </g>
   <g id="line2d_44">
    <path clip-path="url(#p9682dc909c)" d="M 505.666121 336.517767 
L 504.68149 343.790393 
L 503.698135 338.169081 
L 502.713504 330.162873 
L 501.730149 320.950436 
L 500.869234 310.561313 
L 500.00832 293.532322 
L 499.147406 279.029032 
L 498.286491 271.550317 
L 497.425577 247.884733 
L 496.564663 243.154093 
L 495.702473 237.670272 
L 494.841559 241.672451 
L 493.11973 278.527811 
L 492.258816 291.652295 
L 491.397902 298.341289 
L 490.536987 297.729512 
L 489.676073 300.837385 
L 487.954245 327.921074 
L 486.969614 332.386639 
L 485.986258 335.113386 
L 485.001627 338.375047 
L 484.018272 340.976112 
L 483.033641 342.681785 
L 481.065655 343.555603 
L 478.975227 345.88902 
L 477.868155 346.323028 
L 476.638642 345.786715 
L 475.53157 345.512719 
L 474.424498 345.65973 
L 473.317426 345.984698 
L 472.210354 345.657704 
L 471.103282 344.76412 
L 469.99621 344.077913 
L 468.889138 343.183379 
L 467.905783 340.321086 
L 466.921152 336.814036 
L 465.937797 338.225354 
L 464.953166 333.28819 
L 463.96981 323.242729 
L 463.108896 321.714815 
L 462.246706 337.349962 
L 461.263351 342.962743 
L 460.27872 344.298161 
L 459.172923 344.235163 
L 458.065851 342.59475 
L 456.097865 337.429268 
L 455.113234 334.395856 
L 454.129879 330.396482 
L 453.145248 327.317397 
L 452.161893 322.604324 
L 451.177262 320.202959 
L 450.193906 317.423131 
L 449.332992 316.144694 
L 448.470802 316.949924 
L 447.609888 315.020864 
L 446.748974 313.543157 
L 445.888059 314.153823 
L 445.027145 313.618942 
L 444.166231 312.483633 
L 442.444402 312.140035 
L 441.583488 311.417057 
L 440.722574 310.323985 
L 439.000745 306.070006 
L 438.139831 301.662233 
L 437.278917 294.112667 
L 436.418002 292.60207 
L 435.557088 294.854815 
L 434.694898 296.590415 
L 433.833984 291.794228 
L 432.97307 280.738829 
L 432.112155 271.229586 
L 431.251241 273.122175 
L 430.390327 263.789493 
L 429.529413 255.912987 
L 428.668498 271.672471 
L 427.807584 276.284747 
L 426.085755 265.925663 
L 425.224841 262.319964 
L 424.363927 259.469634 
L 422.642098 258.331084 
L 421.781184 254.739831 
L 420.918994 247.163094 
L 420.05808 243.568243 
L 419.197166 256.104508 
L 418.336251 270.82376 
L 417.475337 276.71796 
L 416.614423 277.845764 
L 415.753509 279.770776 
L 414.892594 282.715641 
L 414.03168 284.553477 
L 413.170766 283.821181 
L 412.309851 281.564266 
L 410.588023 274.706243 
L 409.727109 269.006208 
L 408.00528 254.468535 
L 407.14309 255.184578 
L 406.282176 261.907301 
L 404.560347 268.537393 
L 403.699433 268.854152 
L 402.838519 259.019515 
L 401.977605 236.848102 
L 401.11669 248.956511 
L 400.255776 253.187466 
L 399.394862 245.377663 
L 398.533947 243.566089 
L 397.673033 240.414088 
L 396.812119 230.858654 
L 395.951205 223.031447 
L 395.09029 229.722846 
L 394.229376 235.352834 
L 393.367186 255.752727 
L 392.506272 249.765787 
L 391.645358 231.85439 
L 390.784443 209.576885 
L 389.923529 177.72485 
L 389.062615 152.341137 
L 388.201701 116.443267 
L 387.340786 90.673303 
L 386.479872 90.355696 
L 384.758043 153.374434 
L 383.897129 179.75188 
L 383.036215 212.247984 
L 382.175301 233.881672 
L 381.314386 249.868248 
L 380.453472 256.790775 
L 379.591282 251.053867 
L 378.730368 233.766417 
L 377.869454 202.098634 
L 377.008539 160.658532 
L 376.147625 108.680311 
L 375.286711 67.695182 
L 374.549513 44.598396 
L 373.81104 51.163472 
L 373.072567 86.644893 
L 372.211653 133.452989 
L 371.350738 186.620043 
L 370.489824 223.513441 
L 369.62891 254.395289 
L 368.767995 279.987064 
L 367.046167 312.462907 
L 365.200622 334.138419 
L 364.217266 339.119412 
L 363.232635 341.152215 
L 362.24928 342.373012 
L 361.264649 340.490706 
L 360.281294 340.958086 
L 359.296663 342.130773 
L 358.313307 344.688951 
L 357.206235 344.980013 
L 356.221605 344.595385 
L 355.238249 345.416754 
L 354.131177 344.509327 
L 353.024105 344.675054 
L 350.809961 345.379469 
L 349.702889 343.930164 
L 348.719534 344.417207 
L 347.612462 343.429267 
L 346.627831 343.983336 
L 345.644475 343.893503 
L 344.659845 342.71461 
L 343.676489 343.261879 
L 341.708503 342.860379 
L 340.723872 342.651189 
L 339.740517 342.763188 
L 337.77253 342.119659 
L 336.787899 342.469046 
L 335.804544 342.231966 
L 334.819913 341.100793 
L 333.836558 342.128238 
L 332.851927 342.030563 
L 331.868571 342.225124 
L 330.883941 341.16563 
L 329.900585 340.835916 
L 328.915954 339.826711 
L 327.932599 340.410777 
L 326.947968 340.72001 
L 324.979982 340.701689 
L 323.011995 339.475737 
L 322.02864 339.600723 
L 321.044009 338.907173 
L 320.060654 339.510366 
L 319.076023 339.000095 
L 318.092667 339.145669 
L 317.108037 338.819868 
L 316.124681 339.000645 
L 314.156695 338.7358 
L 313.172064 338.780852 
L 312.188709 339.210721 
L 311.204078 340.118119 
L 309.236091 340.117663 
L 307.268105 339.500361 
L 306.28475 337.133496 
L 305.300119 338.650234 
L 304.316763 338.537054 
L 303.332133 338.148523 
L 302.348777 338.326308 
L 301.364146 337.827605 
L 299.39616 338.867925 
L 298.412805 338.658394 
L 297.428174 337.996919 
L 296.444818 337.532849 
L 295.460187 336.393807 
L 293.492201 333.370642 
L 292.508846 333.054301 
L 291.524215 333.764513 
L 290.540859 327.785643 
L 289.556229 317.788175 
L 288.695314 305.839407 
L 286.973486 264.591607 
L 286.112571 232.854276 
L 285.251657 211.893492 
L 284.390743 200.498746 
L 282.668914 220.10793 
L 281.808 154.361692 
L 280.947086 160.352342 
L 279.225257 289.218514 
L 278.363067 328.053124 
L 277.502153 339.296139 
L 276.518798 339.660479 
L 275.534167 339.190216 
L 273.566181 338.75749 
L 271.598194 338.588046 
L 270.614839 338.039182 
L 269.630208 337.753845 
L 268.646853 337.849501 
L 266.678866 337.712262 
L 265.694235 337.569147 
L 264.71088 337.299186 
L 262.742894 337.057138 
L 261.758263 336.745457 
L 260.774907 336.758409 
L 259.790277 336.51536 
L 258.806921 336.036533 
L 257.82229 336.113734 
L 256.838935 335.884995 
L 255.854304 335.498056 
L 254.870949 335.512078 
L 253.886318 335.302575 
L 252.902962 334.881449 
L 251.918331 334.781494 
L 250.934976 334.457186 
L 245.031017 334.520184 
L 244.046386 334.4419 
L 243.063031 334.791355 
L 242.0784 334.729633 
L 240.110414 334.088377 
L 239.127058 333.707406 
L 238.142427 333.493873 
L 237.159072 333.072955 
L 235.191086 331.963679 
L 233.223099 330.509122 
L 230.270482 328.822187 
L 228.302496 327.652994 
L 227.319141 326.83119 
L 226.33451 325.73292 
L 224.366523 322.917064 
L 223.383168 321.117675 
L 221.415182 316.670434 
L 220.554267 312.861178 
L 219.693353 302.85498 
L 218.832439 287.123394 
L 217.971525 277.712668 
L 217.11061 280.422812 
L 216.249696 284.700492 
L 214.526592 298.08223 
L 213.665678 297.794391 
L 212.804763 291.83939 
L 211.082935 275.28801 
L 209.361106 253.516079 
L 208.500192 248.88218 
L 207.639278 257.351662 
L 205.917449 286.965528 
L 205.056535 297.350525 
L 203.334706 312.156557 
L 202.473792 317.315089 
L 201.611602 320.806675 
L 200.628247 322.605875 
L 199.643616 322.64532 
L 198.660261 321.807346 
L 197.67563 320.554012 
L 195.83136 316.721881 
L 194.970446 314.291797 
L 194.109531 311.316853 
L 193.248617 307.78068 
L 192.387703 305.130897 
L 191.526789 303.962763 
L 190.665874 303.36241 
L 189.803685 303.55577 
L 188.94277 304.315402 
L 188.081856 305.301193 
L 186.360027 308.662214 
L 185.499113 310.241411 
L 184.638199 311.085719 
L 183.777285 311.005927 
L 182.91637 310.475352 
L 182.055456 309.564262 
L 181.194542 308.270448 
L 180.333627 306.621898 
L 179.472713 304.476504 
L 177.750885 298.832385 
L 176.88997 295.827786 
L 175.166866 291.087122 
L 174.305952 288.923896 
L 173.445038 287.173667 
L 171.723209 282.551409 
L 170.862295 279.464774 
L 170.001381 275.676467 
L 168.279552 264.822679 
L 165.696809 243.993842 
L 164.835895 236.821387 
L 162.251877 213.354941 
L 161.390962 214.734453 
L 160.530048 226.511261 
L 158.808219 259.447428 
L 157.947305 270.897265 
L 157.086391 279.506488 
L 156.225477 285.784883 
L 155.364562 290.452784 
L 154.503648 294.118641 
L 152.781819 299.484136 
L 151.920905 301.409488 
L 150.199077 304.05934 
L 148.475973 306.234753 
L 146.754144 308.192623 
L 145.89323 308.725677 
L 145.032315 309.982718 
L 144.171401 310.780868 
L 143.310487 311.272265 
L 142.449573 312.73689 
L 141.588658 313.320918 
L 140.727744 314.060095 
L 139.86683 314.95089 
L 139.005915 315.113731 
L 135.562258 318.776867 
L 134.577627 320.553191 
L 133.594272 321.386154 
L 132.609641 322.383942 
L 131.626286 324.384894 
L 130.641655 325.168672 
L 129.658299 327.02403 
L 128.673669 328.289018 
L 127.690313 327.744722 
L 126.705682 330.940094 
L 125.722327 330.927746 
L 124.737696 329.385776 
L 123.754341 329.019323 
L 122.76971 331.099718 
L 121.786354 333.668146 
L 120.801723 332.647397 
L 119.818368 331.138973 
L 118.833737 336.699167 
L 117.850382 339.106903 
L 116.865751 339.409934 
L 115.882395 343.026705 
L 114.897765 342.109943 
L 113.914409 340.267444 
L 112.929778 341.928206 
L 111.946423 338.174543 
L 110.961792 337.805378 
L 109.978437 336.625898 
L 108.993806 339.330414 
L 108.01045 335.808392 
L 107.025819 331.491166 
L 106.042464 334.245688 
L 105.057833 339.702605 
L 104.074478 340.66451 
L 103.089847 343.849349 
L 102.106491 344.361364 
L 100.999419 345.16648 
L 99.892347 345.149993 
L 98.785275 345.02106 
L 97.800645 343.173821 
L 96.817289 344.656544 
L 95.710217 342.518884 
L 94.725586 343.118675 
L 93.742231 343.411728 
L 92.7576 342.319464 
L 91.774245 343.703055 
L 90.789614 343.176506 
L 89.806258 343.086393 
L 88.821627 343.165822 
L 87.838272 344.103253 
L 86.853641 343.600912 
L 85.870286 344.354572 
L 84.885655 342.860217 
L 83.902299 345.194659 
L 82.795227 344.443883 
L 81.688155 344.416987 
L 80.581083 344.832659 
L 78.366939 345.024911 
L 77.259867 345.130038 
L 76.152795 344.992116 
L 73.938651 345.440917 
L 72.831579 345.381276 
L 72.831579 345.381276 
" style="fill:none;stroke:#55a868;stroke-linecap:round;stroke-width:1.75;"/>
   </g>
   <g id="line2d_45">
    <path clip-path="url(#p9682dc909c)" d="M 505.666121 343.647835 
L 504.68149 345.320829 
L 503.451977 342.860382 
L 502.468622 329.870839 
L 501.483991 321.524923 
L 500.500635 310.973137 
L 499.638446 299.401791 
L 498.777531 290.536898 
L 497.916617 283.653859 
L 497.055703 268.818386 
L 496.194789 267.232533 
L 495.333874 264.618008 
L 494.47296 270.777936 
L 492.751131 295.034073 
L 491.890217 303.421201 
L 491.029303 307.170698 
L 490.168389 308.742525 
L 489.307474 313.287569 
L 488.44656 325.070688 
L 487.461929 331.285819 
L 486.478574 333.747495 
L 485.493943 337.176491 
L 484.510587 339.673984 
L 482.542601 342.324392 
L 481.55797 342.447063 
L 480.574615 343.017715 
L 479.589984 344.163496 
L 478.482912 345.864223 
L 477.37584 344.594143 
L 476.268768 344.147253 
L 475.161696 344.694472 
L 474.054624 344.919279 
L 472.948827 345.257864 
L 471.841755 344.699027 
L 470.734683 344.47724 
L 469.627611 344.528573 
L 468.520539 343.849756 
L 467.535909 340.980659 
L 466.552553 341.074892 
L 465.567922 339.943041 
L 464.584567 334.657771 
L 463.599936 326.856151 
L 462.616581 336.22523 
L 461.63195 343.256293 
L 460.648594 344.811596 
L 459.541522 344.516159 
L 458.43445 343.098368 
L 457.449819 340.921861 
L 456.466464 338.3999 
L 455.481833 335.531912 
L 453.513847 327.285748 
L 449.824032 307.727245 
L 448.963118 308.977603 
L 448.102203 309.876168 
L 446.380375 306.082912 
L 444.658546 305.033862 
L 443.797632 305.789354 
L 442.936718 306.809255 
L 442.075803 307.001518 
L 441.214889 306.462652 
L 440.353975 305.129696 
L 439.493061 303.096884 
L 438.630871 301.834089 
L 436.909042 293.677529 
L 436.048128 291.919716 
L 435.187214 291.717256 
L 434.326299 289.208272 
L 433.465385 281.954239 
L 432.604471 272.327357 
L 431.743557 269.576227 
L 430.882642 267.86108 
L 430.021728 255.83178 
L 429.160814 259.823995 
L 428.299899 268.364188 
L 427.438985 266.262828 
L 426.578071 258.98989 
L 425.717157 254.548409 
L 424.854967 250.694425 
L 423.994053 250.318747 
L 423.133138 252.135918 
L 422.272224 253.350783 
L 421.41131 250.99605 
L 420.550395 246.723024 
L 419.689481 249.575835 
L 418.828567 262.265382 
L 417.967653 270.833495 
L 417.106738 273.134964 
L 416.245824 273.850322 
L 414.523995 278.147914 
L 413.663081 279.560796 
L 412.802167 278.756864 
L 411.941253 275.870455 
L 411.079063 274.138665 
L 410.218149 270.979807 
L 409.357234 265.989666 
L 408.49632 258.579862 
L 407.635406 253.102366 
L 406.774491 255.084532 
L 405.913577 256.07519 
L 404.191749 259.540732 
L 403.330834 258.211313 
L 402.46992 246.711699 
L 401.609006 240.62095 
L 400.748091 251.67156 
L 399.887177 246.787679 
L 399.026263 238.473584 
L 398.165349 234.937556 
L 397.303159 230.295234 
L 396.442245 224.542088 
L 395.58133 225.459705 
L 394.720416 229.519674 
L 393.859502 242.340877 
L 392.998587 246.374174 
L 392.137673 228.338826 
L 390.415845 173.888499 
L 389.55493 144.80823 
L 387.833102 94.612329 
L 386.972187 85.167381 
L 386.111273 98.672464 
L 385.250359 132.894462 
L 384.389445 158.742671 
L 383.527255 191.39001 
L 382.666341 215.191119 
L 381.805426 233.5124 
L 380.944512 245.21972 
L 380.083598 245.109943 
L 379.222683 233.319426 
L 378.361769 209.784959 
L 377.500855 172.577137 
L 375.779026 78.944791 
L 374.918112 49.560791 
L 374.179639 41.178869 
L 373.442441 64.850117 
L 372.581527 97.230006 
L 370.858423 181.397215 
L 369.997509 214.297849 
L 369.136594 242.916913 
L 367.414766 284.793831 
L 365.692937 316.959973 
L 364.832023 330.537684 
L 362.864037 339.749399 
L 361.879406 339.686795 
L 360.89605 340.460797 
L 359.911419 340.921887 
L 358.928064 343.303133 
L 357.943433 344.302362 
L 356.837637 343.675259 
L 355.853006 344.444179 
L 354.745934 344.446588 
L 353.762578 343.522618 
L 351.794592 344.153285 
L 350.68752 344.44663 
L 349.702889 343.019476 
L 348.719534 343.549715 
L 347.734903 343.076299 
L 345.766917 343.392995 
L 344.783561 342.591555 
L 343.79893 342.547846 
L 342.815575 342.695212 
L 340.847589 342.148958 
L 339.862958 342.368429 
L 338.879602 341.891272 
L 337.894971 341.543891 
L 335.926985 342.02061 
L 334.94363 341.17219 
L 332.975643 341.431977 
L 331.991013 340.743228 
L 331.007657 340.212614 
L 330.023026 338.291554 
L 329.039671 338.470084 
L 328.05504 338.899033 
L 327.071685 339.680151 
L 325.103698 339.035125 
L 324.119067 338.827947 
L 323.135712 337.730087 
L 322.151081 337.505658 
L 321.167726 336.524782 
L 320.183095 338.087809 
L 319.199739 337.880508 
L 318.215109 337.398421 
L 317.231753 337.398283 
L 315.263767 338.192966 
L 314.279136 337.517837 
L 313.295781 337.618998 
L 312.31115 338.347331 
L 311.327794 339.738896 
L 310.343163 339.976891 
L 309.359808 339.507343 
L 308.375177 339.638134 
L 307.391822 338.443068 
L 306.407191 334.9043 
L 305.423835 336.85168 
L 304.439205 337.069418 
L 303.455849 336.581637 
L 302.471218 336.778461 
L 301.487863 336.638671 
L 300.503232 336.859939 
L 299.519877 336.858626 
L 298.535246 337.326846 
L 296.567259 336.704055 
L 295.583904 336.473207 
L 294.599273 335.923074 
L 293.615918 335.031531 
L 292.631287 334.5246 
L 291.647931 334.330168 
L 290.663301 332.282718 
L 289.679945 327.838353 
L 288.695314 322.343049 
L 286.973486 303.086416 
L 286.112571 288.563187 
L 285.251657 280.745319 
L 284.390743 276.148625 
L 283.529829 279.851415 
L 282.668914 284.716843 
L 281.808 254.733525 
L 280.947086 257.438295 
L 279.225257 316.140442 
L 278.363067 334.429675 
L 277.379712 338.972393 
L 276.395081 338.809179 
L 275.411726 338.467968 
L 274.427095 338.350825 
L 273.443739 337.897312 
L 272.459109 337.869151 
L 270.491122 336.984926 
L 269.507767 336.791382 
L 268.523136 336.899473 
L 266.55515 336.601892 
L 265.571794 336.526671 
L 264.587163 336.091962 
L 263.603808 336.013694 
L 257.699849 334.805583 
L 256.715218 334.347741 
L 255.731863 334.291818 
L 253.763877 333.848888 
L 252.779246 333.423086 
L 250.811259 332.804297 
L 248.843273 332.69257 
L 247.859918 332.457259 
L 246.875287 332.440769 
L 245.891931 332.539165 
L 244.907301 332.411835 
L 243.923945 332.554128 
L 242.939314 332.911055 
L 241.955959 333.055732 
L 239.987973 332.295228 
L 237.035355 331.31366 
L 231.131397 327.309872 
L 228.180055 325.385996 
L 227.195424 324.521953 
L 226.212069 323.485483 
L 224.244082 321.043297 
L 221.415182 316.121584 
L 220.554267 313.159959 
L 219.693353 305.682203 
L 218.832439 294.083916 
L 217.971525 286.722696 
L 217.11061 287.079618 
L 216.249696 288.669096 
L 215.387506 292.777606 
L 214.526592 297.81022 
L 213.665678 297.885811 
L 212.804763 293.51042 
L 211.082935 280.396542 
L 209.361106 263.353182 
L 208.500192 258.913688 
L 207.639278 264.340422 
L 205.917449 284.681961 
L 205.056535 291.727483 
L 202.473792 308.176863 
L 201.611602 311.452088 
L 200.750688 313.768011 
L 199.889774 314.37593 
L 199.028859 313.789494 
L 198.167945 313.05501 
L 197.307031 311.361426 
L 194.724288 304.567647 
L 193.002459 298.675159 
L 192.141545 296.340819 
L 191.280631 295.609165 
L 190.419717 295.307875 
L 189.558802 295.79998 
L 187.835698 297.385461 
L 186.11387 300.08984 
L 185.252955 300.74637 
L 184.392041 300.775017 
L 183.531127 300.087425 
L 182.670213 298.951477 
L 181.809298 297.570411 
L 180.948384 295.812745 
L 180.08747 293.587503 
L 179.226555 290.922186 
L 176.643813 281.496842 
L 174.921984 275.904672 
L 172.337966 269.066241 
L 170.616137 263.137758 
L 169.755223 259.415384 
L 168.033394 249.324114 
L 165.450651 231.539151 
L 162.867909 213.693755 
L 162.006994 210.865742 
L 161.14608 215.525476 
L 160.28389 227.01701 
L 159.422976 240.454385 
L 158.562062 251.588373 
L 157.701147 259.675493 
L 156.840233 266.074771 
L 155.979319 270.826909 
L 155.118405 274.668095 
L 153.396576 280.244238 
L 152.535662 282.620388 
L 151.674747 284.514672 
L 148.23109 290.000189 
L 147.370176 291.223078 
L 146.507986 292.19287 
L 144.786158 295.215455 
L 143.064329 297.122993 
L 142.203415 298.894548 
L 141.342501 299.583566 
L 140.481586 300.846939 
L 138.759758 302.632821 
L 137.037929 305.499141 
L 136.177015 306.325314 
L 135.316101 307.748251 
L 134.455186 309.663513 
L 133.594272 310.864717 
L 132.732082 311.727831 
L 131.871168 314.044958 
L 131.010254 315.775308 
L 130.149339 316.669389 
L 129.288425 319.364305 
L 128.30507 320.491921 
L 127.320439 322.109297 
L 126.337083 324.995275 
L 125.352453 325.126727 
L 124.369097 325.966964 
L 123.384466 327.435886 
L 122.401111 329.3219 
L 121.41648 330.835604 
L 120.433125 331.419549 
L 119.448494 332.698156 
L 118.465138 336.826512 
L 117.480507 336.424379 
L 116.497152 339.514846 
L 115.512521 341.663824 
L 114.529166 340.142358 
L 113.544535 340.335338 
L 112.561179 341.366868 
L 111.576549 339.880106 
L 110.593193 340.454966 
L 109.608562 339.602699 
L 108.625207 341.576099 
L 107.640576 337.84333 
L 106.657221 336.919376 
L 105.67259 339.074263 
L 104.689234 340.112815 
L 102.721248 343.454954 
L 101.736617 343.76684 
L 100.753262 344.316659 
L 99.64619 344.391984 
L 98.539118 343.776692 
L 97.554487 342.639043 
L 96.571131 344.062447 
L 95.586501 342.110918 
L 94.603145 342.985576 
L 92.635159 342.408308 
L 91.650528 342.936195 
L 90.667173 342.981867 
L 89.682542 342.652528 
L 88.699186 342.736494 
L 87.714555 343.338425 
L 86.7312 343.030417 
L 85.746569 343.544945 
L 84.763214 342.437528 
L 83.778583 344.434047 
L 82.671511 343.602536 
L 81.688155 343.482866 
L 80.703525 343.901299 
L 76.398953 344.384345 
L 75.291881 344.247029 
L 74.184809 344.546801 
L 73.077737 344.472318 
L 73.077737 344.472318 
" style="fill:none;stroke:#c44e52;stroke-linecap:round;stroke-width:1.75;"/>
   </g>
   <g id="patch_3">
    <path d="M 72 39.6 
L 518.4 39.6 
" style="fill:none;"/>
   </g>
   <g id="patch_4">
    <path d="M 518.4 346.5 
L 518.4 39.6 
" style="fill:none;"/>
   </g>
   <g id="patch_5">
    <path d="M 72 346.5 
L 518.4 346.5 
" style="fill:none;"/>
   </g>
   <g id="patch_6">
    <path d="M 72 346.5 
L 72 39.6 
" style="fill:none;"/>
   </g>
   <g id="text_17">
    <!-- Penn Felt -->
    <defs>
     <path d="M 6.390625 0 
L 6.390625 71.578125 
L 15.1875 71.578125 
L 15.1875 0 
z
" id="ArialMT-6c"/>
     <path d="M 25.78125 7.859375 
L 27.046875 0.09375 
Q 23.34375 -0.6875 20.40625 -0.6875 
Q 15.625 -0.6875 12.984375 0.828125 
Q 10.359375 2.34375 9.28125 4.8125 
Q 8.203125 7.28125 8.203125 15.1875 
L 8.203125 45.015625 
L 1.765625 45.015625 
L 1.765625 51.859375 
L 8.203125 51.859375 
L 8.203125 64.703125 
L 16.9375 69.96875 
L 16.9375 51.859375 
L 25.78125 51.859375 
L 25.78125 45.015625 
L 16.9375 45.015625 
L 16.9375 14.703125 
Q 16.9375 10.9375 17.40625 9.859375 
Q 17.875 8.796875 18.921875 8.15625 
Q 19.96875 7.515625 21.921875 7.515625 
Q 23.390625 7.515625 25.78125 7.859375 
" id="ArialMT-74"/>
     <path d="M 7.71875 0 
L 7.71875 71.578125 
L 34.71875 71.578125 
Q 41.84375 71.578125 45.609375 70.90625 
Q 50.875 70.015625 54.4375 67.546875 
Q 58.015625 65.09375 60.1875 60.640625 
Q 62.359375 56.203125 62.359375 50.875 
Q 62.359375 41.75 56.546875 35.421875 
Q 50.734375 29.109375 35.546875 29.109375 
L 17.1875 29.109375 
L 17.1875 0 
z
M 17.1875 37.546875 
L 35.6875 37.546875 
Q 44.875 37.546875 48.734375 40.96875 
Q 52.59375 44.390625 52.59375 50.59375 
Q 52.59375 55.078125 50.3125 58.265625 
Q 48.046875 61.46875 44.34375 62.5 
Q 41.9375 63.140625 35.5 63.140625 
L 17.1875 63.140625 
z
" id="ArialMT-50"/>
     <path d="M 8.203125 0 
L 8.203125 71.578125 
L 56.5 71.578125 
L 56.5 63.140625 
L 17.671875 63.140625 
L 17.671875 40.96875 
L 51.265625 40.96875 
L 51.265625 32.515625 
L 17.671875 32.515625 
L 17.671875 0 
z
" id="ArialMT-46"/>
     <path id="ArialMT-20"/>
    </defs>
    <g style="fill:#262626;" transform="translate(269.52 34.6)scale(0.12 -0.12)">
     <use xlink:href="#ArialMT-50"/>
     <use x="66.69921875" xlink:href="#ArialMT-65"/>
     <use x="122.314453125" xlink:href="#ArialMT-6e"/>
     <use x="177.9296875" xlink:href="#ArialMT-6e"/>
     <use x="233.544921875" xlink:href="#ArialMT-20"/>
     <use x="261.328125" xlink:href="#ArialMT-46"/>
     <use x="322.412109375" xlink:href="#ArialMT-65"/>
     <use x="378.02734375" xlink:href="#ArialMT-6c"/>
     <use x="400.244140625" xlink:href="#ArialMT-74"/>
    </g>
   </g>
   <g id="legend_1">
    <g id="line2d_46">
     <path d="M 396.907812 52.257812 
L 416.907812 52.257812 
" style="fill:none;stroke:#4c72b0;stroke-linecap:round;stroke-width:1.75;"/>
    </g>
    <g id="line2d_47"/>
    <g id="text_18">
     <!-- Penn_ATP -->
     <defs>
      <path d="M -0.140625 0 
L 27.34375 71.578125 
L 37.546875 71.578125 
L 66.84375 0 
L 56.0625 0 
L 47.703125 21.6875 
L 17.78125 21.6875 
L 9.90625 0 
z
M 20.515625 29.390625 
L 44.78125 29.390625 
L 37.3125 49.21875 
Q 33.890625 58.25 32.234375 64.0625 
Q 30.859375 57.171875 28.375 50.390625 
z
" id="ArialMT-41"/>
      <path d="M -1.515625 -19.875 
L -1.515625 -13.53125 
L 56.734375 -13.53125 
L 56.734375 -19.875 
z
" id="ArialMT-5f"/>
      <path d="M 25.921875 0 
L 25.921875 63.140625 
L 2.34375 63.140625 
L 2.34375 71.578125 
L 59.078125 71.578125 
L 59.078125 63.140625 
L 35.40625 63.140625 
L 35.40625 0 
z
" id="ArialMT-54"/>
     </defs>
     <g style="fill:#262626;" transform="translate(424.9078125 55.7578125)scale(0.1 -0.1)">
      <use xlink:href="#ArialMT-50"/>
      <use x="66.69921875" xlink:href="#ArialMT-65"/>
      <use x="122.314453125" xlink:href="#ArialMT-6e"/>
      <use x="177.9296875" xlink:href="#ArialMT-6e"/>
      <use x="233.544921875" xlink:href="#ArialMT-5f"/>
      <use x="289.16015625" xlink:href="#ArialMT-41"/>
      <use x="355.75" xlink:href="#ArialMT-54"/>
      <use x="416.833984375" xlink:href="#ArialMT-50"/>
     </g>
    </g>
    <g id="line2d_48">
     <path d="M 396.907812 66.403125 
L 416.907812 66.403125 
" style="fill:none;stroke:#55a868;stroke-linecap:round;stroke-width:1.75;"/>
    </g>
    <g id="line2d_49"/>
    <g id="text_19">
     <!-- Penn_ExtraDuty -->
     <defs>
      <path d="M 0.734375 0 
L 19.671875 26.953125 
L 2.15625 51.859375 
L 13.140625 51.859375 
L 21.09375 39.703125 
Q 23.34375 36.234375 24.703125 33.890625 
Q 26.859375 37.109375 28.65625 39.59375 
L 37.40625 51.859375 
L 47.90625 51.859375 
L 29.984375 27.4375 
L 49.265625 0 
L 38.484375 0 
L 27.828125 16.109375 
L 25 20.453125 
L 11.375 0 
z
" id="ArialMT-78"/>
      <path d="M 6.203125 -19.96875 
L 5.21875 -11.71875 
Q 8.109375 -12.5 10.25 -12.5 
Q 13.1875 -12.5 14.9375 -11.515625 
Q 16.703125 -10.546875 17.828125 -8.796875 
Q 18.65625 -7.46875 20.515625 -2.25 
Q 20.75 -1.515625 21.296875 -0.09375 
L 1.609375 51.859375 
L 11.078125 51.859375 
L 21.875 21.828125 
Q 23.96875 16.109375 25.640625 9.8125 
Q 27.15625 15.875 29.25 21.625 
L 40.328125 51.859375 
L 49.125 51.859375 
L 29.390625 -0.875 
Q 26.21875 -9.421875 24.46875 -12.640625 
Q 22.125 -17 19.09375 -19.015625 
Q 16.0625 -21.046875 11.859375 -21.046875 
Q 9.328125 -21.046875 6.203125 -19.96875 
" id="ArialMT-79"/>
      <path d="M 7.90625 0 
L 7.90625 71.578125 
L 59.671875 71.578125 
L 59.671875 63.140625 
L 17.390625 63.140625 
L 17.390625 41.21875 
L 56.984375 41.21875 
L 56.984375 32.8125 
L 17.390625 32.8125 
L 17.390625 8.453125 
L 61.328125 8.453125 
L 61.328125 0 
z
" id="ArialMT-45"/>
      <path d="M 7.71875 0 
L 7.71875 71.578125 
L 32.375 71.578125 
Q 40.71875 71.578125 45.125 70.5625 
Q 51.265625 69.140625 55.609375 65.4375 
Q 61.28125 60.640625 64.078125 53.1875 
Q 66.890625 45.75 66.890625 36.1875 
Q 66.890625 28.03125 64.984375 21.734375 
Q 63.09375 15.4375 60.109375 11.296875 
Q 57.125 7.171875 53.578125 4.796875 
Q 50.046875 2.4375 45.046875 1.21875 
Q 40.046875 0 33.546875 0 
z
M 17.1875 8.453125 
L 32.46875 8.453125 
Q 39.546875 8.453125 43.578125 9.765625 
Q 47.609375 11.078125 50 13.484375 
Q 53.375 16.84375 55.25 22.53125 
Q 57.125 28.21875 57.125 36.328125 
Q 57.125 47.5625 53.4375 53.59375 
Q 49.75 59.625 44.484375 61.671875 
Q 40.671875 63.140625 32.234375 63.140625 
L 17.1875 63.140625 
z
" id="ArialMT-44"/>
      <path d="M 40.578125 0 
L 40.578125 7.625 
Q 34.515625 -1.171875 24.125 -1.171875 
Q 19.53125 -1.171875 15.546875 0.578125 
Q 11.578125 2.34375 9.640625 5 
Q 7.71875 7.671875 6.9375 11.53125 
Q 6.390625 14.109375 6.390625 19.734375 
L 6.390625 51.859375 
L 15.1875 51.859375 
L 15.1875 23.09375 
Q 15.1875 16.21875 15.71875 13.8125 
Q 16.546875 10.359375 19.234375 8.375 
Q 21.921875 6.390625 25.875 6.390625 
Q 29.828125 6.390625 33.296875 8.421875 
Q 36.765625 10.453125 38.203125 13.9375 
Q 39.65625 17.4375 39.65625 24.078125 
L 39.65625 51.859375 
L 48.4375 51.859375 
L 48.4375 0 
z
" id="ArialMT-75"/>
     </defs>
     <g style="fill:#262626;" transform="translate(424.9078125 69.903125)scale(0.1 -0.1)">
      <use xlink:href="#ArialMT-50"/>
      <use x="66.69921875" xlink:href="#ArialMT-65"/>
      <use x="122.314453125" xlink:href="#ArialMT-6e"/>
      <use x="177.9296875" xlink:href="#ArialMT-6e"/>
      <use x="233.544921875" xlink:href="#ArialMT-5f"/>
      <use x="289.16015625" xlink:href="#ArialMT-45"/>
      <use x="355.859375" xlink:href="#ArialMT-78"/>
      <use x="405.859375" xlink:href="#ArialMT-74"/>
      <use x="433.642578125" xlink:href="#ArialMT-72"/>
      <use x="466.943359375" xlink:href="#ArialMT-61"/>
      <use x="522.55859375" xlink:href="#ArialMT-44"/>
      <use x="594.775390625" xlink:href="#ArialMT-75"/>
      <use x="650.390625" xlink:href="#ArialMT-74"/>
      <use x="678.173828125" xlink:href="#ArialMT-79"/>
     </g>
    </g>
    <g id="line2d_50">
     <path d="M 396.907812 80.665625 
L 416.907812 80.665625 
" style="fill:none;stroke:#c44e52;stroke-linecap:round;stroke-width:1.75;"/>
    </g>
    <g id="line2d_51"/>
    <g id="text_20">
     <!-- Penn_RegularDuty -->
     <defs>
      <path d="M 7.859375 0 
L 7.859375 71.578125 
L 39.59375 71.578125 
Q 49.171875 71.578125 54.140625 69.640625 
Q 59.125 67.71875 62.109375 62.828125 
Q 65.09375 57.953125 65.09375 52.046875 
Q 65.09375 44.4375 60.15625 39.203125 
Q 55.21875 33.984375 44.921875 32.5625 
Q 48.6875 30.765625 50.640625 29 
Q 54.78125 25.203125 58.5 19.484375 
L 70.953125 0 
L 59.03125 0 
L 49.5625 14.890625 
Q 45.40625 21.34375 42.71875 24.75 
Q 40.046875 28.171875 37.921875 29.53125 
Q 35.796875 30.90625 33.59375 31.453125 
Q 31.984375 31.78125 28.328125 31.78125 
L 17.328125 31.78125 
L 17.328125 0 
z
M 17.328125 39.984375 
L 37.703125 39.984375 
Q 44.1875 39.984375 47.84375 41.328125 
Q 51.515625 42.671875 53.421875 45.625 
Q 55.328125 48.578125 55.328125 52.046875 
Q 55.328125 57.125 51.640625 60.390625 
Q 47.953125 63.671875 39.984375 63.671875 
L 17.328125 63.671875 
z
" id="ArialMT-52"/>
      <path d="M 4.984375 -4.296875 
L 13.53125 -5.5625 
Q 14.0625 -9.515625 16.5 -11.328125 
Q 19.78125 -13.765625 25.4375 -13.765625 
Q 31.546875 -13.765625 34.859375 -11.328125 
Q 38.1875 -8.890625 39.359375 -4.5 
Q 40.046875 -1.8125 39.984375 6.78125 
Q 34.234375 0 25.640625 0 
Q 14.9375 0 9.078125 7.71875 
Q 3.21875 15.4375 3.21875 26.21875 
Q 3.21875 33.640625 5.90625 39.90625 
Q 8.59375 46.1875 13.6875 49.609375 
Q 18.796875 53.03125 25.6875 53.03125 
Q 34.859375 53.03125 40.828125 45.609375 
L 40.828125 51.859375 
L 48.921875 51.859375 
L 48.921875 7.03125 
Q 48.921875 -5.078125 46.453125 -10.125 
Q 44 -15.1875 38.640625 -18.109375 
Q 33.296875 -21.046875 25.484375 -21.046875 
Q 16.21875 -21.046875 10.5 -16.875 
Q 4.78125 -12.703125 4.984375 -4.296875 
M 12.25 26.859375 
Q 12.25 16.65625 16.296875 11.96875 
Q 20.359375 7.28125 26.46875 7.28125 
Q 32.515625 7.28125 36.609375 11.9375 
Q 40.71875 16.609375 40.71875 26.5625 
Q 40.71875 36.078125 36.5 40.90625 
Q 32.28125 45.75 26.3125 45.75 
Q 20.453125 45.75 16.34375 40.984375 
Q 12.25 36.234375 12.25 26.859375 
" id="ArialMT-67"/>
     </defs>
     <g style="fill:#262626;" transform="translate(424.9078125 84.165625)scale(0.1 -0.1)">
      <use xlink:href="#ArialMT-50"/>
      <use x="66.69921875" xlink:href="#ArialMT-65"/>
      <use x="122.314453125" xlink:href="#ArialMT-6e"/>
      <use x="177.9296875" xlink:href="#ArialMT-6e"/>
      <use x="233.544921875" xlink:href="#ArialMT-5f"/>
      <use x="289.16015625" xlink:href="#ArialMT-52"/>
      <use x="361.376953125" xlink:href="#ArialMT-65"/>
      <use x="416.9921875" xlink:href="#ArialMT-67"/>
      <use x="472.607421875" xlink:href="#ArialMT-75"/>
      <use x="528.22265625" xlink:href="#ArialMT-6c"/>
      <use x="550.439453125" xlink:href="#ArialMT-61"/>
      <use x="606.0546875" xlink:href="#ArialMT-72"/>
      <use x="639.35546875" xlink:href="#ArialMT-44"/>
      <use x="711.572265625" xlink:href="#ArialMT-75"/>
      <use x="767.1875" xlink:href="#ArialMT-74"/>
      <use x="794.970703125" xlink:href="#ArialMT-79"/>
     </g>
    </g>
   </g>
  </g>
 </g>
 <defs>
  <clipPath id="p9682dc909c">
   <rect height="306.9" width="446.4" x="72.0" y="39.6"/>
  </clipPath>
 </defs>
</svg>
