<?xml version="1.0" encoding="utf-8" standalone="no"?>
<!DOCTYPE svg PUBLIC "-//W3C//DTD SVG 1.1//EN"
  "http://www.w3.org/Graphics/SVG/1.1/DTD/svg11.dtd">
<!-- Created with matplotlib (http://matplotlib.org/) -->
<svg height="396pt" version="1.1" viewBox="0 0 576 396" width="576pt" xmlns="http://www.w3.org/2000/svg" xmlns:xlink="http://www.w3.org/1999/xlink">
 <defs>
  <style type="text/css">
*{stroke-linecap:butt;stroke-linejoin:round;stroke-miterlimit:100000;}
  </style>
 </defs>
 <g id="figure_1">
  <g id="patch_1">
   <path d="M 0 396 
L 576 396 
L 576 0 
L 0 0 
z
" style="fill:#ffffff;"/>
  </g>
  <g id="axes_1">
   <g id="patch_2">
    <path d="M 72 346.5 
L 518.4 346.5 
L 518.4 39.6 
L 72 39.6 
z
" style="fill:#eaeaf2;"/>
   </g>
   <g id="matplotlib.axis_1">
    <g id="xtick_1">
     <g id="line2d_1">
      <path clip-path="url(#p9d4b7129ca)" d="M 518.4 346.5 
L 518.4 39.6 
" style="fill:none;stroke:#ffffff;stroke-linecap:round;"/>
     </g>
     <g id="line2d_2"/>
     <g id="line2d_3"/>
     <g id="text_1">
      <!-- 500 -->
      <defs>
       <path d="M 4.15625 35.296875 
Q 4.15625 48 6.765625 55.734375 
Q 9.375 63.484375 14.515625 67.671875 
Q 19.671875 71.875 27.484375 71.875 
Q 33.25 71.875 37.59375 69.546875 
Q 41.9375 67.234375 44.765625 62.859375 
Q 47.609375 58.5 49.21875 52.21875 
Q 50.828125 45.953125 50.828125 35.296875 
Q 50.828125 22.703125 48.234375 14.96875 
Q 45.65625 7.234375 40.5 3 
Q 35.359375 -1.21875 27.484375 -1.21875 
Q 17.140625 -1.21875 11.234375 6.203125 
Q 4.15625 15.140625 4.15625 35.296875 
M 13.1875 35.296875 
Q 13.1875 17.671875 17.3125 11.828125 
Q 21.4375 6 27.484375 6 
Q 33.546875 6 37.671875 11.859375 
Q 41.796875 17.71875 41.796875 35.296875 
Q 41.796875 52.984375 37.671875 58.78125 
Q 33.546875 64.59375 27.390625 64.59375 
Q 21.34375 64.59375 17.71875 59.46875 
Q 13.1875 52.9375 13.1875 35.296875 
" id="ArialMT-30"/>
       <path d="M 4.15625 18.75 
L 13.375 19.53125 
Q 14.40625 12.796875 18.140625 9.390625 
Q 21.875 6 27.15625 6 
Q 33.5 6 37.890625 10.78125 
Q 42.28125 15.578125 42.28125 23.484375 
Q 42.28125 31 38.0625 35.34375 
Q 33.84375 39.703125 27 39.703125 
Q 22.75 39.703125 19.328125 37.765625 
Q 15.921875 35.84375 13.96875 32.765625 
L 5.71875 33.84375 
L 12.640625 70.609375 
L 48.25 70.609375 
L 48.25 62.203125 
L 19.671875 62.203125 
L 15.828125 42.96875 
Q 22.265625 47.46875 29.34375 47.46875 
Q 38.71875 47.46875 45.15625 40.96875 
Q 51.609375 34.46875 51.609375 24.265625 
Q 51.609375 14.546875 45.953125 7.46875 
Q 39.0625 -1.21875 27.15625 -1.21875 
Q 17.390625 -1.21875 11.203125 4.25 
Q 5.03125 9.71875 4.15625 18.75 
" id="ArialMT-35"/>
      </defs>
      <g style="fill:#262626;" transform="translate(510.05859375 360.6578125)scale(0.1 -0.1)">
       <use xlink:href="#ArialMT-35"/>
       <use x="55.615234375" xlink:href="#ArialMT-30"/>
       <use x="111.23046875" xlink:href="#ArialMT-30"/>
      </g>
     </g>
    </g>
    <g id="xtick_2">
     <g id="line2d_4">
      <path clip-path="url(#p9d4b7129ca)" d="M 454.628571 346.5 
L 454.628571 39.6 
" style="fill:none;stroke:#ffffff;stroke-linecap:round;"/>
     </g>
     <g id="line2d_5"/>
     <g id="line2d_6"/>
     <g id="text_2">
      <!-- 1000 -->
      <defs>
       <path d="M 37.25 0 
L 28.46875 0 
L 28.46875 56 
Q 25.296875 52.984375 20.140625 49.953125 
Q 14.984375 46.921875 10.890625 45.40625 
L 10.890625 53.90625 
Q 18.265625 57.375 23.78125 62.296875 
Q 29.296875 67.234375 31.59375 71.875 
L 37.25 71.875 
z
" id="ArialMT-31"/>
      </defs>
      <g style="fill:#262626;" transform="translate(443.506696429 360.6578125)scale(0.1 -0.1)">
       <use xlink:href="#ArialMT-31"/>
       <use x="55.615234375" xlink:href="#ArialMT-30"/>
       <use x="111.23046875" xlink:href="#ArialMT-30"/>
       <use x="166.845703125" xlink:href="#ArialMT-30"/>
      </g>
     </g>
    </g>
    <g id="xtick_3">
     <g id="line2d_7">
      <path clip-path="url(#p9d4b7129ca)" d="M 390.857143 346.5 
L 390.857143 39.6 
" style="fill:none;stroke:#ffffff;stroke-linecap:round;"/>
     </g>
     <g id="line2d_8"/>
     <g id="line2d_9"/>
     <g id="text_3">
      <!-- 1500 -->
      <g style="fill:#262626;" transform="translate(379.735267857 360.6578125)scale(0.1 -0.1)">
       <use xlink:href="#ArialMT-31"/>
       <use x="55.615234375" xlink:href="#ArialMT-35"/>
       <use x="111.23046875" xlink:href="#ArialMT-30"/>
       <use x="166.845703125" xlink:href="#ArialMT-30"/>
      </g>
     </g>
    </g>
    <g id="xtick_4">
     <g id="line2d_10">
      <path clip-path="url(#p9d4b7129ca)" d="M 327.085714 346.5 
L 327.085714 39.6 
" style="fill:none;stroke:#ffffff;stroke-linecap:round;"/>
     </g>
     <g id="line2d_11"/>
     <g id="line2d_12"/>
     <g id="text_4">
      <!-- 2000 -->
      <defs>
       <path d="M 50.34375 8.453125 
L 50.34375 0 
L 3.03125 0 
Q 2.9375 3.171875 4.046875 6.109375 
Q 5.859375 10.9375 9.828125 15.625 
Q 13.8125 20.3125 21.34375 26.46875 
Q 33.015625 36.03125 37.109375 41.625 
Q 41.21875 47.21875 41.21875 52.203125 
Q 41.21875 57.421875 37.46875 61 
Q 33.734375 64.59375 27.734375 64.59375 
Q 21.390625 64.59375 17.578125 60.78125 
Q 13.765625 56.984375 13.71875 50.25 
L 4.6875 51.171875 
Q 5.609375 61.28125 11.65625 66.578125 
Q 17.71875 71.875 27.9375 71.875 
Q 38.234375 71.875 44.234375 66.15625 
Q 50.25 60.453125 50.25 52 
Q 50.25 47.703125 48.484375 43.546875 
Q 46.734375 39.40625 42.65625 34.8125 
Q 38.578125 30.21875 29.109375 22.21875 
Q 21.1875 15.578125 18.9375 13.203125 
Q 16.703125 10.84375 15.234375 8.453125 
z
" id="ArialMT-32"/>
      </defs>
      <g style="fill:#262626;" transform="translate(315.963839286 360.6578125)scale(0.1 -0.1)">
       <use xlink:href="#ArialMT-32"/>
       <use x="55.615234375" xlink:href="#ArialMT-30"/>
       <use x="111.23046875" xlink:href="#ArialMT-30"/>
       <use x="166.845703125" xlink:href="#ArialMT-30"/>
      </g>
     </g>
    </g>
    <g id="xtick_5">
     <g id="line2d_13">
      <path clip-path="url(#p9d4b7129ca)" d="M 263.314286 346.5 
L 263.314286 39.6 
" style="fill:none;stroke:#ffffff;stroke-linecap:round;"/>
     </g>
     <g id="line2d_14"/>
     <g id="line2d_15"/>
     <g id="text_5">
      <!-- 2500 -->
      <g style="fill:#262626;" transform="translate(252.192410714 360.6578125)scale(0.1 -0.1)">
       <use xlink:href="#ArialMT-32"/>
       <use x="55.615234375" xlink:href="#ArialMT-35"/>
       <use x="111.23046875" xlink:href="#ArialMT-30"/>
       <use x="166.845703125" xlink:href="#ArialMT-30"/>
      </g>
     </g>
    </g>
    <g id="xtick_6">
     <g id="line2d_16">
      <path clip-path="url(#p9d4b7129ca)" d="M 199.542857 346.5 
L 199.542857 39.6 
" style="fill:none;stroke:#ffffff;stroke-linecap:round;"/>
     </g>
     <g id="line2d_17"/>
     <g id="line2d_18"/>
     <g id="text_6">
      <!-- 3000 -->
      <defs>
       <path d="M 4.203125 18.890625 
L 12.984375 20.0625 
Q 14.5 12.59375 18.140625 9.296875 
Q 21.78125 6 27 6 
Q 33.203125 6 37.46875 10.296875 
Q 41.75 14.59375 41.75 20.953125 
Q 41.75 27 37.796875 30.921875 
Q 33.84375 34.859375 27.734375 34.859375 
Q 25.25 34.859375 21.53125 33.890625 
L 22.515625 41.609375 
Q 23.390625 41.5 23.921875 41.5 
Q 29.546875 41.5 34.03125 44.421875 
Q 38.53125 47.359375 38.53125 53.46875 
Q 38.53125 58.296875 35.25 61.46875 
Q 31.984375 64.65625 26.8125 64.65625 
Q 21.6875 64.65625 18.265625 61.421875 
Q 14.84375 58.203125 13.875 51.765625 
L 5.078125 53.328125 
Q 6.6875 62.15625 12.390625 67.015625 
Q 18.109375 71.875 26.609375 71.875 
Q 32.46875 71.875 37.390625 69.359375 
Q 42.328125 66.84375 44.9375 62.5 
Q 47.5625 58.15625 47.5625 53.265625 
Q 47.5625 48.640625 45.0625 44.828125 
Q 42.578125 41.015625 37.703125 38.765625 
Q 44.046875 37.3125 47.5625 32.6875 
Q 51.078125 28.078125 51.078125 21.140625 
Q 51.078125 11.765625 44.234375 5.25 
Q 37.40625 -1.265625 26.953125 -1.265625 
Q 17.53125 -1.265625 11.296875 4.34375 
Q 5.078125 9.96875 4.203125 18.890625 
" id="ArialMT-33"/>
      </defs>
      <g style="fill:#262626;" transform="translate(188.420982143 360.6578125)scale(0.1 -0.1)">
       <use xlink:href="#ArialMT-33"/>
       <use x="55.615234375" xlink:href="#ArialMT-30"/>
       <use x="111.23046875" xlink:href="#ArialMT-30"/>
       <use x="166.845703125" xlink:href="#ArialMT-30"/>
      </g>
     </g>
    </g>
    <g id="xtick_7">
     <g id="line2d_19">
      <path clip-path="url(#p9d4b7129ca)" d="M 135.771429 346.5 
L 135.771429 39.6 
" style="fill:none;stroke:#ffffff;stroke-linecap:round;"/>
     </g>
     <g id="line2d_20"/>
     <g id="line2d_21"/>
     <g id="text_7">
      <!-- 3500 -->
      <g style="fill:#262626;" transform="translate(124.649553571 360.6578125)scale(0.1 -0.1)">
       <use xlink:href="#ArialMT-33"/>
       <use x="55.615234375" xlink:href="#ArialMT-35"/>
       <use x="111.23046875" xlink:href="#ArialMT-30"/>
       <use x="166.845703125" xlink:href="#ArialMT-30"/>
      </g>
     </g>
    </g>
    <g id="xtick_8">
     <g id="line2d_22">
      <path clip-path="url(#p9d4b7129ca)" d="M 72 346.5 
L 72 39.6 
" style="fill:none;stroke:#ffffff;stroke-linecap:round;"/>
     </g>
     <g id="line2d_23"/>
     <g id="line2d_24"/>
     <g id="text_8">
      <!-- 4000 -->
      <defs>
       <path d="M 32.328125 0 
L 32.328125 17.140625 
L 1.265625 17.140625 
L 1.265625 25.203125 
L 33.9375 71.578125 
L 41.109375 71.578125 
L 41.109375 25.203125 
L 50.78125 25.203125 
L 50.78125 17.140625 
L 41.109375 17.140625 
L 41.109375 0 
z
M 32.328125 25.203125 
L 32.328125 57.46875 
L 9.90625 25.203125 
z
" id="ArialMT-34"/>
      </defs>
      <g style="fill:#262626;" transform="translate(60.878125 360.6578125)scale(0.1 -0.1)">
       <use xlink:href="#ArialMT-34"/>
       <use x="55.615234375" xlink:href="#ArialMT-30"/>
       <use x="111.23046875" xlink:href="#ArialMT-30"/>
       <use x="166.845703125" xlink:href="#ArialMT-30"/>
      </g>
     </g>
    </g>
    <g id="text_9">
     <!-- cm^-1 -->
     <defs>
      <path d="M 40.4375 19 
L 49.078125 17.875 
Q 47.65625 8.9375 41.8125 3.875 
Q 35.984375 -1.171875 27.484375 -1.171875 
Q 16.84375 -1.171875 10.375 5.78125 
Q 3.90625 12.75 3.90625 25.734375 
Q 3.90625 34.125 6.6875 40.421875 
Q 9.46875 46.734375 15.15625 49.875 
Q 20.84375 53.03125 27.546875 53.03125 
Q 35.984375 53.03125 41.359375 48.75 
Q 46.734375 44.484375 48.25 36.625 
L 39.703125 35.296875 
Q 38.484375 40.53125 35.375 43.15625 
Q 32.28125 45.796875 27.875 45.796875 
Q 21.234375 45.796875 17.078125 41.03125 
Q 12.9375 36.28125 12.9375 25.984375 
Q 12.9375 15.53125 16.9375 10.796875 
Q 20.953125 6.0625 27.390625 6.0625 
Q 32.5625 6.0625 36.03125 9.234375 
Q 39.5 12.40625 40.4375 19 
" id="ArialMT-63"/>
      <path d="M 11.671875 33.6875 
L 2.640625 33.6875 
L 19.875 72.796875 
L 26.953125 72.796875 
L 44.28125 33.6875 
L 35.453125 33.6875 
L 23.390625 62.84375 
z
" id="ArialMT-5e"/>
      <path d="M 3.171875 21.484375 
L 3.171875 30.328125 
L 30.171875 30.328125 
L 30.171875 21.484375 
z
" id="ArialMT-2d"/>
      <path d="M 6.59375 0 
L 6.59375 51.859375 
L 14.453125 51.859375 
L 14.453125 44.578125 
Q 16.890625 48.390625 20.9375 50.703125 
Q 25 53.03125 30.171875 53.03125 
Q 35.9375 53.03125 39.625 50.640625 
Q 43.3125 48.25 44.828125 43.953125 
Q 50.984375 53.03125 60.84375 53.03125 
Q 68.5625 53.03125 72.703125 48.75 
Q 76.859375 44.484375 76.859375 35.59375 
L 76.859375 0 
L 68.109375 0 
L 68.109375 32.671875 
Q 68.109375 37.9375 67.25 40.25 
Q 66.40625 42.578125 64.15625 43.984375 
Q 61.921875 45.40625 58.890625 45.40625 
Q 53.421875 45.40625 49.796875 41.765625 
Q 46.1875 38.140625 46.1875 30.125 
L 46.1875 0 
L 37.40625 0 
L 37.40625 33.6875 
Q 37.40625 39.546875 35.25 42.46875 
Q 33.109375 45.40625 28.21875 45.40625 
Q 24.515625 45.40625 21.359375 43.453125 
Q 18.21875 41.5 16.796875 37.734375 
Q 15.375 33.984375 15.375 26.90625 
L 15.375 0 
z
" id="ArialMT-6d"/>
     </defs>
     <g style="fill:#262626;" transform="translate(280.398125 375.51890625)scale(0.11 -0.11)">
      <use xlink:href="#ArialMT-63"/>
      <use x="50.0" xlink:href="#ArialMT-6d"/>
      <use x="133.30078125" xlink:href="#ArialMT-5e"/>
      <use x="180.224609375" xlink:href="#ArialMT-2d"/>
      <use x="213.525390625" xlink:href="#ArialMT-31"/>
     </g>
    </g>
   </g>
   <g id="matplotlib.axis_2">
    <g id="ytick_1">
     <g id="line2d_25">
      <path clip-path="url(#p9d4b7129ca)" d="M 72 346.5 
L 518.4 346.5 
" style="fill:none;stroke:#ffffff;stroke-linecap:round;"/>
     </g>
     <g id="line2d_26"/>
     <g id="line2d_27"/>
     <g id="text_10">
      <!-- 0.0 -->
      <defs>
       <path d="M 9.078125 0 
L 9.078125 10.015625 
L 19.09375 10.015625 
L 19.09375 0 
z
" id="ArialMT-2e"/>
      </defs>
      <g style="fill:#262626;" transform="translate(51.1 349.08515625)scale(0.1 -0.1)">
       <use xlink:href="#ArialMT-30"/>
       <use x="55.615234375" xlink:href="#ArialMT-2e"/>
       <use x="83.3984375" xlink:href="#ArialMT-30"/>
      </g>
     </g>
    </g>
    <g id="ytick_2">
     <g id="line2d_28">
      <path clip-path="url(#p9d4b7129ca)" d="M 72 285.12 
L 518.4 285.12 
" style="fill:none;stroke:#ffffff;stroke-linecap:round;"/>
     </g>
     <g id="line2d_29"/>
     <g id="line2d_30"/>
     <g id="text_11">
      <!-- 0.2 -->
      <g style="fill:#262626;" transform="translate(51.1 287.70515625)scale(0.1 -0.1)">
       <use xlink:href="#ArialMT-30"/>
       <use x="55.615234375" xlink:href="#ArialMT-2e"/>
       <use x="83.3984375" xlink:href="#ArialMT-32"/>
      </g>
     </g>
    </g>
    <g id="ytick_3">
     <g id="line2d_31">
      <path clip-path="url(#p9d4b7129ca)" d="M 72 223.74 
L 518.4 223.74 
" style="fill:none;stroke:#ffffff;stroke-linecap:round;"/>
     </g>
     <g id="line2d_32"/>
     <g id="line2d_33"/>
     <g id="text_12">
      <!-- 0.4 -->
      <g style="fill:#262626;" transform="translate(51.1 226.32515625)scale(0.1 -0.1)">
       <use xlink:href="#ArialMT-30"/>
       <use x="55.615234375" xlink:href="#ArialMT-2e"/>
       <use x="83.3984375" xlink:href="#ArialMT-34"/>
      </g>
     </g>
    </g>
    <g id="ytick_4">
     <g id="line2d_34">
      <path clip-path="url(#p9d4b7129ca)" d="M 72 162.36 
L 518.4 162.36 
" style="fill:none;stroke:#ffffff;stroke-linecap:round;"/>
     </g>
     <g id="line2d_35"/>
     <g id="line2d_36"/>
     <g id="text_13">
      <!-- 0.6 -->
      <defs>
       <path d="M 49.75 54.046875 
L 41.015625 53.375 
Q 39.84375 58.546875 37.703125 60.890625 
Q 34.125 64.65625 28.90625 64.65625 
Q 24.703125 64.65625 21.53125 62.3125 
Q 17.390625 59.28125 14.984375 53.46875 
Q 12.59375 47.65625 12.5 36.921875 
Q 15.671875 41.75 20.265625 44.09375 
Q 24.859375 46.4375 29.890625 46.4375 
Q 38.671875 46.4375 44.84375 39.96875 
Q 51.03125 33.5 51.03125 23.25 
Q 51.03125 16.5 48.125 10.71875 
Q 45.21875 4.9375 40.140625 1.859375 
Q 35.0625 -1.21875 28.609375 -1.21875 
Q 17.625 -1.21875 10.6875 6.859375 
Q 3.765625 14.9375 3.765625 33.5 
Q 3.765625 54.25 11.421875 63.671875 
Q 18.109375 71.875 29.4375 71.875 
Q 37.890625 71.875 43.28125 67.140625 
Q 48.6875 62.40625 49.75 54.046875 
M 13.875 23.1875 
Q 13.875 18.65625 15.796875 14.5 
Q 17.71875 10.359375 21.1875 8.171875 
Q 24.65625 6 28.46875 6 
Q 34.03125 6 38.03125 10.484375 
Q 42.046875 14.984375 42.046875 22.703125 
Q 42.046875 30.125 38.078125 34.390625 
Q 34.125 38.671875 28.125 38.671875 
Q 22.171875 38.671875 18.015625 34.390625 
Q 13.875 30.125 13.875 23.1875 
" id="ArialMT-36"/>
      </defs>
      <g style="fill:#262626;" transform="translate(51.1 164.94515625)scale(0.1 -0.1)">
       <use xlink:href="#ArialMT-30"/>
       <use x="55.615234375" xlink:href="#ArialMT-2e"/>
       <use x="83.3984375" xlink:href="#ArialMT-36"/>
      </g>
     </g>
    </g>
    <g id="ytick_5">
     <g id="line2d_37">
      <path clip-path="url(#p9d4b7129ca)" d="M 72 100.98 
L 518.4 100.98 
" style="fill:none;stroke:#ffffff;stroke-linecap:round;"/>
     </g>
     <g id="line2d_38"/>
     <g id="line2d_39"/>
     <g id="text_14">
      <!-- 0.8 -->
      <defs>
       <path d="M 17.671875 38.8125 
Q 12.203125 40.828125 9.5625 44.53125 
Q 6.9375 48.25 6.9375 53.421875 
Q 6.9375 61.234375 12.546875 66.546875 
Q 18.171875 71.875 27.484375 71.875 
Q 36.859375 71.875 42.578125 66.421875 
Q 48.296875 60.984375 48.296875 53.171875 
Q 48.296875 48.1875 45.671875 44.5 
Q 43.0625 40.828125 37.75 38.8125 
Q 44.34375 36.671875 47.78125 31.875 
Q 51.21875 27.09375 51.21875 20.453125 
Q 51.21875 11.28125 44.71875 5.03125 
Q 38.234375 -1.21875 27.640625 -1.21875 
Q 17.046875 -1.21875 10.546875 5.046875 
Q 4.046875 11.328125 4.046875 20.703125 
Q 4.046875 27.6875 7.59375 32.390625 
Q 11.140625 37.109375 17.671875 38.8125 
M 15.921875 53.71875 
Q 15.921875 48.640625 19.1875 45.40625 
Q 22.46875 42.1875 27.6875 42.1875 
Q 32.765625 42.1875 36.015625 45.375 
Q 39.265625 48.578125 39.265625 53.21875 
Q 39.265625 58.0625 35.90625 61.359375 
Q 32.5625 64.65625 27.59375 64.65625 
Q 22.5625 64.65625 19.234375 61.421875 
Q 15.921875 58.203125 15.921875 53.71875 
M 13.09375 20.65625 
Q 13.09375 16.890625 14.875 13.375 
Q 16.65625 9.859375 20.171875 7.921875 
Q 23.6875 6 27.734375 6 
Q 34.03125 6 38.125 10.046875 
Q 42.234375 14.109375 42.234375 20.359375 
Q 42.234375 26.703125 38.015625 30.859375 
Q 33.796875 35.015625 27.4375 35.015625 
Q 21.234375 35.015625 17.15625 30.90625 
Q 13.09375 26.8125 13.09375 20.65625 
" id="ArialMT-38"/>
      </defs>
      <g style="fill:#262626;" transform="translate(51.1 103.56515625)scale(0.1 -0.1)">
       <use xlink:href="#ArialMT-30"/>
       <use x="55.615234375" xlink:href="#ArialMT-2e"/>
       <use x="83.3984375" xlink:href="#ArialMT-38"/>
      </g>
     </g>
    </g>
    <g id="ytick_6">
     <g id="line2d_40">
      <path clip-path="url(#p9d4b7129ca)" d="M 72 39.6 
L 518.4 39.6 
" style="fill:none;stroke:#ffffff;stroke-linecap:round;"/>
     </g>
     <g id="line2d_41"/>
     <g id="line2d_42"/>
     <g id="text_15">
      <!-- 1.0 -->
      <g style="fill:#262626;" transform="translate(51.1 42.18515625)scale(0.1 -0.1)">
       <use xlink:href="#ArialMT-31"/>
       <use x="55.615234375" xlink:href="#ArialMT-2e"/>
       <use x="83.3984375" xlink:href="#ArialMT-30"/>
      </g>
     </g>
    </g>
    <g id="text_16">
     <!-- absorbance -->
     <defs>
      <path d="M 14.703125 0 
L 6.546875 0 
L 6.546875 71.578125 
L 15.328125 71.578125 
L 15.328125 46.046875 
Q 20.90625 53.03125 29.546875 53.03125 
Q 34.328125 53.03125 38.59375 51.09375 
Q 42.875 49.171875 45.625 45.671875 
Q 48.390625 42.1875 49.953125 37.25 
Q 51.515625 32.328125 51.515625 26.703125 
Q 51.515625 13.375 44.921875 6.09375 
Q 38.328125 -1.171875 29.109375 -1.171875 
Q 19.921875 -1.171875 14.703125 6.5 
z
M 14.59375 26.3125 
Q 14.59375 17 17.140625 12.84375 
Q 21.296875 6.0625 28.375 6.0625 
Q 34.125 6.0625 38.328125 11.0625 
Q 42.53125 16.0625 42.53125 25.984375 
Q 42.53125 36.140625 38.5 40.96875 
Q 34.46875 45.796875 28.765625 45.796875 
Q 23 45.796875 18.796875 40.796875 
Q 14.59375 35.796875 14.59375 26.3125 
" id="ArialMT-62"/>
      <path d="M 40.4375 6.390625 
Q 35.546875 2.25 31.03125 0.53125 
Q 26.515625 -1.171875 21.34375 -1.171875 
Q 12.796875 -1.171875 8.203125 3 
Q 3.609375 7.171875 3.609375 13.671875 
Q 3.609375 17.484375 5.34375 20.625 
Q 7.078125 23.78125 9.890625 25.6875 
Q 12.703125 27.59375 16.21875 28.5625 
Q 18.796875 29.25 24.03125 29.890625 
Q 34.671875 31.15625 39.703125 32.90625 
Q 39.75 34.71875 39.75 35.203125 
Q 39.75 40.578125 37.25 42.78125 
Q 33.890625 45.75 27.25 45.75 
Q 21.046875 45.75 18.09375 43.578125 
Q 15.140625 41.40625 13.71875 35.890625 
L 5.125 37.0625 
Q 6.296875 42.578125 8.984375 45.96875 
Q 11.671875 49.359375 16.75 51.1875 
Q 21.828125 53.03125 28.515625 53.03125 
Q 35.15625 53.03125 39.296875 51.46875 
Q 43.453125 49.90625 45.40625 47.53125 
Q 47.359375 45.171875 48.140625 41.546875 
Q 48.578125 39.3125 48.578125 33.453125 
L 48.578125 21.734375 
Q 48.578125 9.46875 49.140625 6.21875 
Q 49.703125 2.984375 51.375 0 
L 42.1875 0 
Q 40.828125 2.734375 40.4375 6.390625 
M 39.703125 26.03125 
Q 34.90625 24.078125 25.34375 22.703125 
Q 19.921875 21.921875 17.671875 20.9375 
Q 15.4375 19.96875 14.203125 18.09375 
Q 12.984375 16.21875 12.984375 13.921875 
Q 12.984375 10.40625 15.640625 8.0625 
Q 18.3125 5.71875 23.4375 5.71875 
Q 28.515625 5.71875 32.46875 7.9375 
Q 36.421875 10.15625 38.28125 14.015625 
Q 39.703125 17 39.703125 22.796875 
z
" id="ArialMT-61"/>
      <path d="M 42.09375 16.703125 
L 51.171875 15.578125 
Q 49.03125 7.625 43.21875 3.21875 
Q 37.40625 -1.171875 28.375 -1.171875 
Q 17 -1.171875 10.328125 5.828125 
Q 3.65625 12.84375 3.65625 25.484375 
Q 3.65625 38.578125 10.390625 45.796875 
Q 17.140625 53.03125 27.875 53.03125 
Q 38.28125 53.03125 44.875 45.953125 
Q 51.46875 38.875 51.46875 26.03125 
Q 51.46875 25.25 51.421875 23.6875 
L 12.75 23.6875 
Q 13.234375 15.140625 17.578125 10.59375 
Q 21.921875 6.0625 28.421875 6.0625 
Q 33.25 6.0625 36.671875 8.59375 
Q 40.09375 11.140625 42.09375 16.703125 
M 13.234375 30.90625 
L 42.1875 30.90625 
Q 41.609375 37.453125 38.875 40.71875 
Q 34.671875 45.796875 27.984375 45.796875 
Q 21.921875 45.796875 17.796875 41.75 
Q 13.671875 37.703125 13.234375 30.90625 
" id="ArialMT-65"/>
      <path d="M 6.5 0 
L 6.5 51.859375 
L 14.40625 51.859375 
L 14.40625 44 
Q 17.4375 49.515625 20 51.265625 
Q 22.5625 53.03125 25.640625 53.03125 
Q 30.078125 53.03125 34.671875 50.203125 
L 31.640625 42.046875 
Q 28.421875 43.953125 25.203125 43.953125 
Q 22.3125 43.953125 20.015625 42.21875 
Q 17.71875 40.484375 16.75 37.40625 
Q 15.28125 32.71875 15.28125 27.15625 
L 15.28125 0 
z
" id="ArialMT-72"/>
      <path d="M 3.078125 15.484375 
L 11.765625 16.84375 
Q 12.5 11.625 15.84375 8.84375 
Q 19.1875 6.0625 25.203125 6.0625 
Q 31.25 6.0625 34.171875 8.515625 
Q 37.109375 10.984375 37.109375 14.3125 
Q 37.109375 17.28125 34.515625 19 
Q 32.71875 20.171875 25.53125 21.96875 
Q 15.875 24.421875 12.140625 26.203125 
Q 8.40625 27.984375 6.46875 31.125 
Q 4.546875 34.28125 4.546875 38.09375 
Q 4.546875 41.546875 6.125 44.5 
Q 7.71875 47.46875 10.453125 49.421875 
Q 12.5 50.921875 16.03125 51.96875 
Q 19.578125 53.03125 23.640625 53.03125 
Q 29.734375 53.03125 34.34375 51.265625 
Q 38.96875 49.515625 41.15625 46.5 
Q 43.359375 43.5 44.1875 38.484375 
L 35.59375 37.3125 
Q 35.015625 41.3125 32.203125 43.546875 
Q 29.390625 45.796875 24.265625 45.796875 
Q 18.21875 45.796875 15.625 43.796875 
Q 13.03125 41.796875 13.03125 39.109375 
Q 13.03125 37.40625 14.109375 36.03125 
Q 15.1875 34.625 17.484375 33.6875 
Q 18.796875 33.203125 25.25 31.453125 
Q 34.578125 28.953125 38.25 27.359375 
Q 41.9375 25.78125 44.03125 22.75 
Q 46.140625 19.734375 46.140625 15.234375 
Q 46.140625 10.84375 43.578125 6.953125 
Q 41.015625 3.078125 36.171875 0.953125 
Q 31.34375 -1.171875 25.25 -1.171875 
Q 15.140625 -1.171875 9.84375 3.03125 
Q 4.546875 7.234375 3.078125 15.484375 
" id="ArialMT-73"/>
      <path d="M 3.328125 25.921875 
Q 3.328125 40.328125 11.328125 47.265625 
Q 18.015625 53.03125 27.640625 53.03125 
Q 38.328125 53.03125 45.109375 46.015625 
Q 51.90625 39.015625 51.90625 26.65625 
Q 51.90625 16.65625 48.90625 10.90625 
Q 45.90625 5.171875 40.15625 2 
Q 34.421875 -1.171875 27.640625 -1.171875 
Q 16.75 -1.171875 10.03125 5.8125 
Q 3.328125 12.796875 3.328125 25.921875 
M 12.359375 25.921875 
Q 12.359375 15.96875 16.703125 11.015625 
Q 21.046875 6.0625 27.640625 6.0625 
Q 34.1875 6.0625 38.53125 11.03125 
Q 42.875 16.015625 42.875 26.21875 
Q 42.875 35.84375 38.5 40.796875 
Q 34.125 45.75 27.640625 45.75 
Q 21.046875 45.75 16.703125 40.8125 
Q 12.359375 35.890625 12.359375 25.921875 
" id="ArialMT-6f"/>
      <path d="M 6.59375 0 
L 6.59375 51.859375 
L 14.5 51.859375 
L 14.5 44.484375 
Q 20.21875 53.03125 31 53.03125 
Q 35.6875 53.03125 39.625 51.34375 
Q 43.5625 49.65625 45.515625 46.921875 
Q 47.46875 44.1875 48.25 40.4375 
Q 48.734375 37.984375 48.734375 31.890625 
L 48.734375 0 
L 39.9375 0 
L 39.9375 31.546875 
Q 39.9375 36.921875 38.90625 39.578125 
Q 37.890625 42.234375 35.28125 43.8125 
Q 32.671875 45.40625 29.15625 45.40625 
Q 23.53125 45.40625 19.453125 41.84375 
Q 15.375 38.28125 15.375 28.328125 
L 15.375 0 
z
" id="ArialMT-6e"/>
     </defs>
     <g style="fill:#262626;" transform="translate(43.91375 221.7909375)rotate(-90.0)scale(0.11 -0.11)">
      <use xlink:href="#ArialMT-61"/>
      <use x="55.615234375" xlink:href="#ArialMT-62"/>
      <use x="111.23046875" xlink:href="#ArialMT-73"/>
      <use x="161.23046875" xlink:href="#ArialMT-6f"/>
      <use x="216.845703125" xlink:href="#ArialMT-72"/>
      <use x="250.146484375" xlink:href="#ArialMT-62"/>
      <use x="305.76171875" xlink:href="#ArialMT-61"/>
      <use x="361.376953125" xlink:href="#ArialMT-6e"/>
      <use x="416.9921875" xlink:href="#ArialMT-63"/>
      <use x="466.9921875" xlink:href="#ArialMT-65"/>
     </g>
    </g>
   </g>
   <g id="line2d_43">
    <path clip-path="url(#p9d4b7129ca)" d="M 505.666121 338.175064 
L 504.68149 342.473827 
L 503.698135 339.694593 
L 502.713504 326.503651 
L 501.730149 311.714379 
L 500.869234 302.424405 
L 499.147406 270.600771 
L 498.286491 258.762711 
L 497.425577 236.046423 
L 495.702473 215.726198 
L 494.841559 215.399428 
L 493.980645 222.538704 
L 493.11973 222.971675 
L 492.258816 213.90266 
L 491.397902 183.511883 
L 490.536987 139.891582 
L 489.676073 175.438597 
L 488.815159 260.192667 
L 487.954245 324.212116 
L 487.09333 341.182578 
L 486.108699 343.159415 
L 485.125344 343.710276 
L 484.140713 343.43446 
L 483.157358 342.030546 
L 482.172727 337.46479 
L 481.189371 336.448896 
L 480.204741 343.425739 
L 479.221385 344.356715 
L 478.114313 344.681548 
L 477.007241 341.630751 
L 476.02261 335.847134 
L 475.039255 327.325219 
L 474.054624 328.220814 
L 473.071269 334.394865 
L 472.086638 326.563707 
L 471.225723 308.470946 
L 470.364809 331.515939 
L 469.381454 345.421688 
L 468.150665 343.405176 
L 467.16731 339.995163 
L 466.182679 343.798849 
L 465.199323 339.981905 
L 464.214693 328.202865 
L 463.231337 321.828518 
L 462.246706 336.881182 
L 461.263351 339.527613 
L 460.27872 335.209839 
L 459.295365 327.7514 
L 458.310734 327.109466 
L 457.327378 331.02943 
L 456.342747 329.372063 
L 455.359392 324.11612 
L 454.374761 312.451093 
L 452.652933 264.219017 
L 451.792018 289.778862 
L 450.931104 300.133382 
L 450.07019 291.99951 
L 449.209275 290.356212 
L 448.348361 291.612107 
L 447.487447 286.727748 
L 446.626533 276.010777 
L 445.765618 260.475954 
L 444.04379 213.485568 
L 443.182875 200.231995 
L 442.321961 198.598345 
L 441.461047 212.468684 
L 440.598857 222.922052 
L 439.737943 222.487891 
L 438.877029 232.09157 
L 437.1552 266.326308 
L 436.294286 280.865235 
L 435.433371 291.654102 
L 434.572457 295.441679 
L 433.711543 287.282876 
L 432.850629 268.453797 
L 431.989714 260.362331 
L 431.1288 260.785816 
L 430.267886 240.490285 
L 429.406971 232.795456 
L 428.546057 243.346632 
L 427.685143 234.786021 
L 425.962039 186.021724 
L 425.101125 152.675715 
L 424.24021 128.811877 
L 423.379296 128.062037 
L 422.518382 133.618243 
L 421.657467 135.28514 
L 420.796553 143.27618 
L 419.935639 162.747194 
L 418.21381 227.29809 
L 417.352896 247.958159 
L 416.491982 262.45688 
L 415.631067 273.44252 
L 414.770153 281.908992 
L 413.909239 286.070216 
L 413.047049 279.423026 
L 412.186135 253.162916 
L 411.325221 247.679543 
L 410.464306 266.924403 
L 409.603392 269.565683 
L 408.742478 260.124649 
L 407.881563 248.86329 
L 407.020649 252.438221 
L 406.159735 259.521902 
L 405.298821 262.95437 
L 404.437906 261.638648 
L 403.576992 245.000273 
L 402.716078 221.295666 
L 401.855163 225.409726 
L 400.994249 254.762848 
L 400.133335 255.941581 
L 399.271145 245.107774 
L 398.410231 241.018736 
L 397.549317 234.521938 
L 396.688402 222.694884 
L 395.827488 215.913783 
L 394.966574 220.217317 
L 394.105659 231.203887 
L 393.244745 254.507447 
L 392.383831 249.555973 
L 391.522917 226.75184 
L 390.662002 193.650275 
L 389.801088 170.034922 
L 388.940174 141.422915 
L 388.079259 102.710061 
L 387.218345 83.467654 
L 386.357431 92.928111 
L 385.495241 132.739632 
L 382.912498 214.948934 
L 382.051584 233.795264 
L 381.19067 247.504987 
L 380.329755 255.67114 
L 379.468841 250.594147 
L 378.607927 231.997359 
L 377.747013 198.448922 
L 376.886098 155.097082 
L 376.025184 102.484846 
L 375.16427 62.619472 
L 374.425797 39.6 
L 373.687323 50.716942 
L 372.950126 83.496139 
L 371.228297 178.682156 
L 370.367383 208.518971 
L 369.506469 232.262909 
L 368.645554 249.626467 
L 367.783365 258.148744 
L 366.92245 264.446412 
L 366.061536 253.168252 
L 364.339707 197.489196 
L 363.478793 208.536631 
L 362.617879 239.792689 
L 361.756965 265.744042 
L 360.89605 297.541951 
L 360.035136 321.133403 
L 359.174222 336.767365 
L 358.189591 342.4789 
L 357.206235 343.874588 
L 356.221605 343.984452 
L 355.238249 344.650878 
L 354.131177 343.672405 
L 353.146546 343.599437 
L 351.17856 344.032145 
L 349.210574 342.491881 
L 348.227218 343.423918 
L 347.242587 342.901226 
L 346.259232 344.142458 
L 345.15216 343.728277 
L 344.168805 342.924395 
L 343.184174 343.661313 
L 342.200818 343.373184 
L 341.216187 342.858938 
L 340.232832 342.912388 
L 338.264846 341.732713 
L 337.280215 341.582182 
L 336.296859 341.625704 
L 335.312229 340.4559 
L 334.328873 339.855775 
L 333.344242 340.152617 
L 332.360887 339.796147 
L 331.376256 340.012464 
L 330.392901 338.169969 
L 329.40827 337.994305 
L 328.424914 338.160445 
L 327.440283 339.809112 
L 326.456928 339.573587 
L 324.488942 338.869882 
L 323.504311 338.68842 
L 322.520955 337.440691 
L 321.536325 336.770744 
L 320.552969 337.417861 
L 319.568338 337.476199 
L 318.584983 336.956986 
L 317.600352 336.764285 
L 316.616997 336.8676 
L 315.632366 337.592376 
L 314.64901 336.718726 
L 313.664379 336.861743 
L 312.681024 337.162333 
L 311.696393 338.411621 
L 310.713038 340.097381 
L 309.728407 339.076585 
L 308.745051 338.815658 
L 307.760421 340.186499 
L 306.777065 334.051545 
L 305.792434 335.557378 
L 304.809079 336.292619 
L 303.824448 335.47784 
L 302.841093 335.850012 
L 301.856462 335.598063 
L 300.873106 335.551145 
L 298.90512 336.062739 
L 297.920489 335.548556 
L 296.937134 335.347411 
L 295.952503 334.881504 
L 294.969147 334.064908 
L 293.984517 332.831515 
L 293.001161 332.189185 
L 292.01653 332.193399 
L 291.033175 330.693735 
L 290.048544 325.567504 
L 289.065189 318.826492 
L 288.202999 307.597226 
L 287.342085 294.648727 
L 286.48117 274.455768 
L 285.620256 258.342938 
L 284.759342 250.260495 
L 283.898427 245.530569 
L 283.037513 266.007955 
L 282.176599 232.971729 
L 281.315685 210.724402 
L 280.45477 242.970437 
L 279.593856 289.419815 
L 278.732942 322.082076 
L 277.872027 336.952825 
L 276.887397 338.266613 
L 275.904041 338.006096 
L 274.91941 337.879131 
L 272.951424 337.354977 
L 271.968069 337.251841 
L 270.000082 336.400718 
L 267.047465 336.177796 
L 266.06411 335.987375 
L 265.079479 335.588846 
L 264.096123 335.488354 
L 263.111493 335.192411 
L 262.128137 335.036207 
L 261.143506 334.674333 
L 260.160151 334.488605 
L 259.17552 334.103233 
L 258.192165 334.004037 
L 252.288206 332.537577 
L 250.320219 332.565252 
L 248.352233 332.515909 
L 246.384247 332.625357 
L 244.416261 332.606147 
L 242.448274 333.332968 
L 241.463643 333.296706 
L 239.495657 332.507524 
L 238.512302 332.299568 
L 236.544315 331.421553 
L 234.576329 330.022199 
L 232.608343 328.406191 
L 231.623712 328.057016 
L 228.67237 326.154327 
L 226.704384 324.345818 
L 224.736398 321.46525 
L 223.751767 319.722869 
L 221.907497 315.806157 
L 221.046583 313.093273 
L 220.185669 306.655751 
L 219.323479 292.917354 
L 218.462565 277.058241 
L 217.60165 272.384565 
L 216.740736 276.169268 
L 215.879822 280.818817 
L 215.018907 288.711916 
L 214.157993 292.555395 
L 213.297079 289.355318 
L 211.57525 271.591247 
L 210.714336 262.926431 
L 208.992507 241.231804 
L 208.131593 240.482909 
L 207.270679 252.399239 
L 205.547575 281.149153 
L 203.825746 297.430702 
L 202.964832 305.364548 
L 202.103918 311.149804 
L 201.243003 315.001767 
L 200.382089 316.9136 
L 199.521175 317.007613 
L 198.660261 316.827746 
L 197.799346 316.265529 
L 196.938432 315.031848 
L 196.077518 313.322119 
L 195.216603 311.031947 
L 194.355689 308.253874 
L 193.494775 304.291073 
L 192.633861 301.121723 
L 191.771671 299.43934 
L 190.910757 298.939658 
L 190.049842 298.879786 
L 189.188928 299.55054 
L 187.467099 301.945506 
L 185.745271 305.311319 
L 184.884357 306.452936 
L 184.023442 306.496882 
L 183.162528 306.023584 
L 182.301614 305.359993 
L 180.579785 302.777593 
L 178.857957 298.183905 
L 177.134853 292.173232 
L 175.413024 287.004077 
L 174.55211 284.669829 
L 173.691195 282.881658 
L 171.969367 278.492703 
L 170.247538 272.031934 
L 169.386624 267.236006 
L 168.52571 261.77177 
L 166.803881 248.276465 
L 165.082053 234.0006 
L 162.498034 208.692656 
L 161.63712 207.298936 
L 160.776206 216.100509 
L 159.054377 248.349594 
L 158.193463 260.927195 
L 157.332549 269.99937 
L 156.471634 276.9259 
L 155.61072 282.127841 
L 154.749806 286.116661 
L 153.027977 291.925126 
L 151.306149 295.311774 
L 150.443959 296.682756 
L 148.72213 298.847462 
L 147.861216 299.575173 
L 147.000302 299.998933 
L 146.139387 300.170337 
L 145.278473 301.391744 
L 143.556645 303.102585 
L 141.834816 305.723351 
L 140.973902 306.68244 
L 140.112987 308.025722 
L 138.391159 309.36743 
L 137.530245 310.774037 
L 136.668055 311.502623 
L 135.807141 312.014357 
L 134.946226 313.769811 
L 134.085312 315.200067 
L 133.224398 315.630127 
L 132.363483 317.125693 
L 131.502569 318.99686 
L 130.519214 319.772583 
L 129.534583 321.939456 
L 128.551227 323.234545 
L 127.566597 323.700797 
L 126.583241 327.006723 
L 125.59861 327.049644 
L 124.615255 326.649297 
L 123.630624 327.197655 
L 121.662638 330.690455 
L 119.694651 330.295159 
L 118.711296 334.997407 
L 117.726665 335.861207 
L 116.74331 337.700524 
L 115.758679 340.749617 
L 114.775323 339.981309 
L 113.790693 338.798135 
L 112.807337 340.711722 
L 111.822706 337.863615 
L 110.839351 338.443635 
L 109.85472 337.629303 
L 108.871365 339.90835 
L 107.886734 336.161283 
L 106.903378 334.011666 
L 105.918747 335.927979 
L 104.935392 338.983532 
L 103.950761 340.473024 
L 102.967406 342.549666 
L 101.982775 342.626106 
L 100.999419 343.826273 
L 100.014789 343.681365 
L 99.031433 343.934988 
L 98.046802 342.020694 
L 97.063447 343.044744 
L 96.078816 342.600733 
L 95.095461 341.492419 
L 94.11083 343.007471 
L 93.127474 341.14901 
L 92.142843 343.015313 
L 91.159488 341.654754 
L 90.174857 342.555399 
L 89.191502 341.836349 
L 88.206871 343.304204 
L 87.223515 342.791388 
L 86.238885 342.998052 
L 85.255529 342.022961 
L 84.270898 343.166499 
L 83.287543 343.629528 
L 81.319557 343.083439 
L 80.334926 343.911742 
L 79.35157 343.437201 
L 78.366939 343.835581 
L 77.383584 344.112722 
L 76.276512 343.977786 
L 75.16944 344.004209 
L 74.062368 344.21664 
L 72.955296 344.091534 
L 72.955296 344.091534 
" style="fill:none;stroke:#4c72b0;stroke-linecap:round;stroke-width:1.75;"/>
   </g>
   <g id="line2d_44">
    <path clip-path="url(#p9d4b7129ca)" d="M 505.666121 340.531645 
L 504.68149 344.987966 
L 503.574418 341.628274 
L 502.591063 331.307163 
L 501.606432 323.442694 
L 500.623077 313.251343 
L 498.901248 291.48887 
L 498.040334 282.194879 
L 497.179419 266.79809 
L 496.318505 262.136673 
L 495.457591 258.314331 
L 494.596677 262.448206 
L 492.873573 284.804144 
L 492.012658 291.942344 
L 491.151744 293.785973 
L 490.29083 293.062457 
L 489.429915 298.356155 
L 488.569001 314.759026 
L 487.708087 326.462318 
L 486.724731 330.351219 
L 484.756745 336.618061 
L 483.772114 339.258625 
L 482.788759 341.061986 
L 481.804128 341.937412 
L 480.820773 342.586288 
L 479.836142 344.629864 
L 478.72907 346.146609 
L 477.499557 346.237006 
L 476.268768 345.619662 
L 475.161696 345.555891 
L 472.948827 345.924484 
L 471.841755 345.224028 
L 470.734683 344.946131 
L 469.627611 345.251795 
L 468.520539 344.09714 
L 467.535909 339.684424 
L 466.552553 339.505475 
L 465.567922 338.65679 
L 464.584567 331.953169 
L 463.599936 322.261715 
L 462.616581 332.790572 
L 461.63195 341.708211 
L 460.648594 343.907922 
L 459.663963 344.468939 
L 458.556891 344.019661 
L 457.573536 342.467245 
L 455.60555 337.644822 
L 454.620919 333.91813 
L 453.637563 329.435384 
L 452.652933 327.759095 
L 451.669577 324.887142 
L 450.684946 319.811919 
L 449.701591 317.407597 
L 448.840677 317.19676 
L 447.979762 315.80146 
L 447.118848 313.558993 
L 446.257934 312.836221 
L 445.397019 312.699958 
L 442.813001 310.862639 
L 441.952087 310.439032 
L 441.091173 310.236033 
L 440.230258 309.331197 
L 439.369344 307.22289 
L 438.50843 304.617549 
L 437.647515 298.593163 
L 436.786601 295.574407 
L 435.925687 296.649924 
L 435.064773 300.10463 
L 434.203858 298.583211 
L 433.342944 289.895101 
L 432.48203 277.221279 
L 431.621115 274.817332 
L 430.758926 270.844471 
L 429.898011 256.789227 
L 428.176183 278.350443 
L 427.315269 276.67108 
L 426.454354 269.463766 
L 424.732526 260.042357 
L 423.871611 258.260905 
L 423.010697 257.057678 
L 422.149783 254.12741 
L 420.427954 241.028222 
L 419.56704 247.248025 
L 418.706126 264.881408 
L 417.845211 275.294301 
L 416.983022 278.563097 
L 416.122107 280.443604 
L 415.261193 283.797242 
L 414.400279 286.578309 
L 413.539365 286.998063 
L 412.67845 285.398556 
L 411.817536 281.999117 
L 410.956622 279.354517 
L 410.095707 274.676188 
L 409.234793 267.957449 
L 408.373879 259.418765 
L 407.512965 255.452034 
L 406.65205 261.62356 
L 404.930222 270.919421 
L 404.069307 273.166398 
L 403.207118 267.676917 
L 402.346203 248.257533 
L 401.485289 244.995828 
L 400.624375 257.493506 
L 398.902546 247.195082 
L 398.041632 245.80617 
L 397.180718 239.903516 
L 396.319803 228.793167 
L 395.458889 229.596047 
L 394.597975 235.652976 
L 393.737061 251.642107 
L 392.876146 259.756843 
L 392.015232 245.536357 
L 391.154318 222.517419 
L 389.431214 162.892052 
L 387.709385 91.927496 
L 386.848471 82.267258 
L 385.987557 105.146371 
L 385.126642 141.140417 
L 384.265728 167.33426 
L 383.404814 202.859692 
L 381.682985 244.980979 
L 380.822071 257.202222 
L 379.961157 257.632855 
L 379.100242 246.95555 
L 378.239328 223.227674 
L 377.378414 185.38298 
L 375.65531 84.098827 
L 374.794395 49.120251 
L 374.057198 39.6 
L 373.318725 72.059156 
L 372.45781 117.05071 
L 371.596896 169.721091 
L 370.735982 210.431092 
L 369.875067 244.045847 
L 369.014153 271.471554 
L 367.292325 306.263552 
L 365.570496 325.303834 
L 364.585865 330.957472 
L 363.60251 333.266139 
L 362.617879 336.463288 
L 361.634523 337.097744 
L 360.649893 338.929344 
L 359.666537 340.993838 
L 358.681906 344.048886 
L 357.698551 345.291703 
L 356.591479 345.419776 
L 355.484407 345.751304 
L 354.377335 345.444193 
L 353.270263 345.304606 
L 351.056119 345.444021 
L 349.949047 344.834122 
L 348.841975 345.019624 
L 347.734903 344.820823 
L 346.627831 345.031956 
L 345.520759 344.889191 
L 344.413687 344.44896 
L 343.306615 344.680419 
L 342.200818 344.446419 
L 341.093746 344.335289 
L 339.986674 344.42595 
L 338.879602 344.167502 
L 337.77253 344.084874 
L 336.665458 344.358167 
L 334.451314 343.749591 
L 333.466683 344.143984 
L 332.360887 343.949859 
L 331.253815 343.375633 
L 330.269184 341.594877 
L 329.285829 341.561711 
L 328.301198 341.941788 
L 327.317842 342.909056 
L 324.365225 342.12539 
L 322.397239 340.910545 
L 321.413883 340.290825 
L 320.429253 341.0815 
L 319.445897 341.02686 
L 318.461266 340.774528 
L 317.477911 340.720841 
L 316.49328 340.946546 
L 315.509925 341.343586 
L 314.525294 340.752878 
L 313.541938 340.694544 
L 312.557307 341.15278 
L 311.573952 342.240519 
L 310.589321 343.142732 
L 309.605966 342.498333 
L 308.621335 342.449342 
L 307.637979 343.023274 
L 306.653349 338.227267 
L 305.669993 339.767868 
L 304.685362 340.030364 
L 303.702007 339.371758 
L 302.717376 339.581113 
L 301.734021 339.933553 
L 300.74939 339.783842 
L 298.781403 339.9919 
L 297.798048 339.767603 
L 295.830062 339.634728 
L 292.877445 338.019302 
L 291.894089 338.004338 
L 290.909458 336.827914 
L 289.926103 334.243674 
L 288.941472 330.425889 
L 286.973486 315.744994 
L 286.112571 305.148751 
L 285.251657 299.898199 
L 284.390743 296.168269 
L 282.668914 302.51948 
L 281.808 280.969329 
L 280.947086 283.016563 
L 279.225257 326.284513 
L 278.240626 338.96842 
L 277.257271 341.248888 
L 276.27264 341.137076 
L 275.289285 340.792289 
L 271.353312 339.85544 
L 270.368681 339.53999 
L 269.385326 339.353568 
L 268.400695 339.392074 
L 263.481367 338.584276 
L 262.496736 338.344013 
L 260.52875 338.026238 
L 256.592777 337.078053 
L 250.688818 335.632348 
L 249.705463 335.510342 
L 248.720832 335.506463 
L 245.76949 335.244326 
L 244.784859 335.157651 
L 243.801504 335.219521 
L 242.816873 335.550404 
L 241.833518 335.553488 
L 237.897545 334.307872 
L 236.912914 333.983495 
L 234.944928 332.790134 
L 232.976942 331.389677 
L 231.008955 330.34801 
L 229.040969 329.20645 
L 227.072983 327.697728 
L 226.089627 326.585156 
L 224.121641 323.731859 
L 222.153655 319.660734 
L 221.169024 317.21054 
L 220.30811 311.753515 
L 219.447195 299.280238 
L 218.586281 283.697685 
L 217.725367 277.960625 
L 216.864453 281.254475 
L 216.003538 285.66218 
L 215.142624 292.804895 
L 214.28171 297.246199 
L 213.41952 294.956742 
L 212.558606 287.840873 
L 210.836777 269.473714 
L 209.975863 257.452639 
L 209.114949 247.435419 
L 208.254034 246.19682 
L 207.39312 257.408145 
L 205.671291 285.891384 
L 204.810377 295.720661 
L 203.088549 310.555881 
L 202.227634 315.609024 
L 201.36672 318.984289 
L 200.382089 320.713422 
L 199.398734 320.713593 
L 198.414103 320.200611 
L 197.430747 318.931425 
L 196.446117 317.199744 
L 195.585202 315.301524 
L 194.724288 313.012103 
L 193.002459 307.158271 
L 192.141545 304.820325 
L 191.280631 303.835444 
L 190.419717 303.278356 
L 189.558802 303.58411 
L 188.697888 304.339871 
L 187.835698 305.35214 
L 186.11387 308.606018 
L 185.252955 309.709736 
L 184.392041 310.07044 
L 183.531127 309.814454 
L 182.670213 309.190807 
L 181.809298 308.175212 
L 180.948384 306.745018 
L 180.08747 304.981093 
L 179.226555 302.621689 
L 175.782898 292.008079 
L 174.921984 289.681391 
L 172.337966 283.57404 
L 171.477051 280.926297 
L 170.616137 277.678141 
L 169.755223 273.509027 
L 168.033394 262.453561 
L 165.450651 241.958056 
L 162.867909 219.099157 
L 162.006994 215.662431 
L 161.14608 220.142733 
L 160.28389 232.720914 
L 159.422976 247.789055 
L 158.562062 260.736589 
L 157.701147 270.367337 
L 156.840233 277.79415 
L 155.979319 283.423782 
L 155.118405 287.840699 
L 154.25749 291.178414 
L 153.396576 294.006596 
L 152.535662 296.316367 
L 151.674747 298.122357 
L 150.813833 299.637761 
L 149.092005 301.989611 
L 143.925243 307.710893 
L 143.064329 308.518656 
L 142.203415 309.647933 
L 140.481586 311.287131 
L 139.620672 312.152407 
L 138.759758 312.815212 
L 137.037929 314.901488 
L 136.177015 315.752255 
L 135.316101 316.851253 
L 134.455186 318.451443 
L 133.470555 319.740997 
L 132.4872 321.240518 
L 131.502569 323.061506 
L 130.519214 324.263742 
L 129.534583 326.169767 
L 128.551227 327.630993 
L 127.566597 328.70641 
L 126.583241 330.717864 
L 125.59861 331.479605 
L 124.615255 331.945176 
L 123.630624 332.869751 
L 121.662638 335.815612 
L 119.694651 336.723705 
L 118.711296 339.447371 
L 116.74331 341.469028 
L 115.758679 342.937728 
L 114.775323 342.877817 
L 113.790693 342.701845 
L 112.807337 343.516297 
L 111.822706 342.493031 
L 110.839351 342.656353 
L 109.85472 342.322058 
L 108.871365 343.393903 
L 107.886734 341.701527 
L 106.903378 340.6823 
L 105.918747 341.814947 
L 104.935392 343.284252 
L 103.950761 343.796188 
L 102.967406 344.857985 
L 99.64619 345.402419 
L 98.539118 345.023393 
L 97.432046 344.786324 
L 96.324974 345.087644 
L 95.217902 344.460932 
L 94.11083 344.916436 
L 93.003758 344.292424 
L 91.896686 344.962586 
L 89.682542 344.643833 
L 88.57547 344.88672 
L 86.362601 345.002887 
L 85.255529 344.61391 
L 84.148457 345.275371 
L 83.041385 345.150636 
L 81.934313 345.149805 
L 79.720169 345.308489 
L 74.184809 345.567581 
L 73.077737 345.50144 
L 73.077737 345.50144 
" style="fill:none;stroke:#55a868;stroke-linecap:round;stroke-width:1.75;"/>
   </g>
   <g id="line2d_45">
    <path clip-path="url(#p9d4b7129ca)" d="M 505.666121 343.633086 
L 504.68149 345.314732 
L 503.451977 342.841561 
L 502.468622 329.784847 
L 501.483991 321.395772 
L 500.500635 310.789422 
L 499.638446 299.158238 
L 498.777531 290.247503 
L 497.916617 283.328871 
L 497.055703 268.41668 
L 496.194789 266.822627 
L 495.333874 264.194582 
L 494.47296 270.386364 
L 492.751131 294.767934 
L 491.890217 303.198433 
L 491.029303 306.967319 
L 490.168389 308.547275 
L 489.307474 313.115822 
L 488.44656 324.959873 
L 487.461929 331.207144 
L 486.478574 333.68155 
L 485.493943 337.128277 
L 484.510587 339.638685 
L 482.542601 342.302799 
L 481.55797 342.426105 
L 480.574615 342.999708 
L 479.589984 344.151413 
L 478.482912 345.860935 
L 477.37584 344.584287 
L 476.268768 344.135086 
L 475.161696 344.685135 
L 474.054624 344.911105 
L 472.948827 345.25144 
L 471.841755 344.689714 
L 470.734683 344.46678 
L 469.627611 344.518379 
L 468.520539 343.836051 
L 467.535909 340.952117 
L 466.552553 341.046838 
L 465.567922 339.909133 
L 464.584567 334.596533 
L 463.599936 326.754569 
L 462.616581 336.172098 
L 461.63195 343.239519 
L 460.648594 344.802865 
L 459.541522 344.5059 
L 458.43445 343.080778 
L 457.449819 340.893015 
L 456.466464 338.358013 
L 455.481833 335.475194 
L 453.513847 327.186387 
L 449.824032 307.526745 
L 448.963118 308.783568 
L 448.102203 309.68678 
L 446.380375 305.873908 
L 444.658546 304.819433 
L 443.797632 305.578832 
L 442.936718 306.604008 
L 442.075803 306.797264 
L 441.214889 306.255612 
L 440.353975 304.915763 
L 439.493061 302.872439 
L 438.630871 301.603113 
L 436.909042 293.404375 
L 436.048128 291.637472 
L 435.187214 291.433965 
L 434.326299 288.912006 
L 433.465385 281.620461 
L 432.604471 271.943798 
L 431.743557 269.17844 
L 430.882642 267.454425 
L 430.021728 255.362919 
L 429.160814 259.375779 
L 428.299899 267.960134 
L 427.438985 265.847908 
L 426.578071 258.53736 
L 425.717157 254.072911 
L 424.854967 250.198998 
L 423.994053 249.821377 
L 423.133138 251.647945 
L 422.272224 252.869092 
L 421.41131 250.502183 
L 420.550395 246.20706 
L 419.689481 249.074623 
L 418.828567 261.82979 
L 417.967653 270.44221 
L 417.106738 272.755581 
L 416.245824 273.474638 
L 414.523995 277.794453 
L 413.663081 279.214642 
L 412.802167 278.406553 
L 411.941253 275.505217 
L 411.079063 273.764472 
L 410.218149 270.589279 
L 409.357234 265.573334 
L 408.49632 258.125211 
L 407.635406 252.61939 
L 406.774491 254.611806 
L 405.913577 255.607588 
L 404.191749 259.091051 
L 403.330834 257.754757 
L 402.46992 246.195676 
L 401.609006 240.073432 
L 400.748091 251.181186 
L 399.887177 246.272049 
L 399.026263 237.91496 
L 398.165349 234.360648 
L 397.303159 229.694319 
L 396.442245 223.911422 
L 395.58133 224.833785 
L 394.720416 228.914748 
L 393.859502 241.802252 
L 392.998587 245.856406 
L 392.137673 227.727794 
L 390.415845 172.995895 
L 389.55493 143.765247 
L 387.833102 93.309774 
L 386.972187 83.815985 
L 386.111273 97.390905 
L 385.250359 131.789871 
L 384.389445 157.771745 
L 383.527255 190.587909 
L 382.666341 214.512098 
L 381.805426 232.928121 
L 380.944512 244.695982 
L 380.083598 244.585638 
L 379.222683 232.73415 
L 378.361769 209.077982 
L 377.500855 171.677752 
L 375.779026 77.561216 
L 374.918112 48.025266 
L 374.179639 39.6 
L 373.442441 63.393656 
L 372.581527 95.940988 
L 370.858423 180.54344 
L 369.997509 213.614208 
L 369.136594 242.381266 
L 367.414766 284.474738 
L 365.692937 316.807216 
L 364.832023 330.45514 
L 362.864037 339.71449 
L 361.879406 339.651562 
L 360.89605 340.429567 
L 359.911419 340.893042 
L 358.928064 343.286601 
L 357.943433 344.290997 
L 356.837637 343.660651 
L 355.853006 344.433548 
L 354.745934 344.435969 
L 353.762578 343.507221 
L 351.794592 344.14115 
L 350.68752 344.436012 
L 349.702889 343.001477 
L 348.719534 343.534458 
L 347.734903 343.058595 
L 345.766917 343.376928 
L 344.783561 342.571343 
L 343.79893 342.527409 
L 342.815575 342.675536 
L 340.847589 342.126458 
L 339.862958 342.347064 
L 338.879602 341.86744 
L 337.894971 341.518262 
L 335.926985 341.997446 
L 334.94363 341.144639 
L 332.975643 341.405769 
L 331.991013 340.713459 
L 331.007657 340.180101 
L 330.023026 338.249106 
L 329.039671 338.42856 
L 328.05504 338.859727 
L 327.071685 339.644884 
L 325.103698 338.996523 
L 324.119067 338.788274 
L 323.135712 337.684736 
L 322.151081 337.459146 
L 321.167726 336.473198 
L 320.183095 338.044308 
L 319.199739 337.835935 
L 318.215109 337.351355 
L 317.231753 337.351216 
L 315.263767 338.150009 
L 314.279136 337.471388 
L 313.295781 337.573073 
L 312.31115 338.305172 
L 311.327794 339.703933 
L 310.343163 339.943158 
L 309.359808 339.471183 
L 308.375177 339.60265 
L 307.391822 338.401404 
L 306.407191 334.844337 
L 305.423835 336.801786 
L 304.439205 337.02065 
L 303.455849 336.530348 
L 302.471218 336.728189 
L 301.487863 336.587676 
L 300.503232 336.810088 
L 299.519877 336.808769 
L 298.535246 337.27941 
L 296.567259 336.653398 
L 295.583904 336.421357 
L 294.599273 335.868379 
L 293.615918 334.972225 
L 292.631287 334.462673 
L 291.647931 334.267235 
L 290.663301 332.209198 
L 289.679945 327.74185 
L 288.695314 322.218129 
L 286.973486 302.861917 
L 286.112571 288.263585 
L 285.251657 280.40529 
L 284.390743 275.784825 
L 283.529829 279.506764 
L 282.668914 284.397352 
L 281.808 254.258985 
L 280.947086 256.977741 
L 279.225257 315.983448 
L 278.363067 334.367257 
L 277.379712 338.933466 
L 276.395081 338.769408 
L 275.411726 338.426433 
L 274.427095 338.308684 
L 273.443739 337.852826 
L 272.459109 337.82452 
L 270.491122 336.935721 
L 269.507767 336.741177 
L 268.523136 336.849827 
L 266.55515 336.550708 
L 265.571794 336.475097 
L 264.587163 336.038141 
L 263.603808 335.959468 
L 257.699849 334.745109 
L 256.715218 334.2849 
L 255.731863 334.228687 
L 253.763877 333.783467 
L 252.779246 333.355463 
L 250.811259 332.733474 
L 248.843273 332.621169 
L 247.859918 332.384641 
L 246.875287 332.368066 
L 245.891931 332.466971 
L 244.907301 332.338982 
L 243.923945 332.482011 
L 242.939314 332.840784 
L 241.955959 332.986209 
L 239.987973 332.221772 
L 237.035355 331.235129 
L 231.131397 327.210637 
L 228.180055 325.276812 
L 227.195424 324.4083 
L 226.212069 323.366471 
L 224.244082 320.911656 
L 221.415182 315.964492 
L 220.554267 312.987552 
L 219.693353 305.471127 
L 218.832439 293.812863 
L 217.971525 286.413577 
L 217.11061 286.772345 
L 216.249696 288.370042 
L 215.387506 292.499798 
L 214.526592 297.558436 
L 213.665678 297.634418 
L 212.804763 293.236402 
L 211.082935 280.05471 
L 209.361106 262.923216 
L 208.500192 258.460764 
L 207.639278 263.915561 
L 205.917449 284.362289 
L 205.056535 291.444245 
L 202.473792 307.978688 
L 201.611602 311.270849 
L 200.750688 313.598748 
L 199.889774 314.209811 
L 199.028859 313.620342 
L 198.167945 312.88206 
L 197.307031 311.179718 
L 194.724288 304.350808 
L 193.002459 298.427848 
L 192.141545 296.081438 
L 191.280631 295.346 
L 190.419717 295.043152 
L 189.558802 295.537801 
L 187.835698 297.131481 
L 186.11387 299.849845 
L 185.252955 300.50977 
L 184.392041 300.538565 
L 183.531127 299.847417 
L 182.670213 298.705595 
L 181.809298 297.317387 
L 180.948384 295.550633 
L 180.08747 293.313883 
L 179.226555 290.634784 
L 176.643813 281.160699 
L 174.921984 275.539611 
L 172.337966 268.665817 
L 170.616137 262.706677 
L 169.755223 258.965055 
L 168.033394 248.8216 
L 165.450651 230.944669 
L 162.867909 213.006991 
L 162.006994 210.164354 
L 161.14608 214.848184 
L 160.28389 226.399142 
L 159.422976 239.906005 
L 158.562062 251.097569 
L 157.701147 259.226508 
L 156.840233 265.658878 
L 155.979319 270.435591 
L 155.118405 274.29664 
L 153.396576 279.901618 
L 152.535662 282.290056 
L 151.674747 284.194135 
L 148.23109 289.708018 
L 147.370176 290.937231 
L 146.507986 291.912039 
L 144.786158 294.950253 
L 143.064329 296.867656 
L 142.203415 298.648372 
L 141.342501 299.340953 
L 140.481586 300.610859 
L 138.759758 302.405976 
L 137.037929 305.287118 
L 136.177015 306.117564 
L 135.316101 307.547859 
L 134.455186 309.473025 
L 133.594272 310.680441 
L 132.732082 311.548018 
L 131.871168 313.877127 
L 131.010254 315.616425 
L 130.149339 316.51513 
L 129.288425 319.223982 
L 128.30507 320.357429 
L 127.320439 321.983168 
L 126.337083 324.884071 
L 125.352453 325.016202 
L 124.369097 325.860784 
L 123.384466 327.337302 
L 122.401111 329.233069 
L 121.41648 330.754601 
L 120.433125 331.341565 
L 119.448494 332.626785 
L 118.465138 336.776489 
L 117.480507 336.372276 
L 116.497152 339.478725 
L 115.512521 341.638815 
L 114.529166 340.109482 
L 113.544535 340.30346 
L 112.561179 341.340324 
L 111.576549 339.845873 
L 110.593193 340.423706 
L 109.608562 339.567032 
L 108.625207 341.550637 
L 107.640576 337.798565 
L 106.657221 336.869832 
L 105.67259 339.035863 
L 104.689234 340.079785 
L 102.721248 343.439208 
L 101.736617 343.752707 
L 100.753262 344.305369 
L 99.64619 344.381084 
L 98.539118 343.762609 
L 97.554487 342.619078 
L 96.571131 344.049842 
L 95.586501 342.088222 
L 94.603145 342.967402 
L 92.635159 342.387149 
L 91.650528 342.917766 
L 90.667173 342.963674 
L 89.682542 342.632632 
L 88.699186 342.717032 
L 87.714555 343.322076 
L 86.7312 343.012475 
L 85.746569 343.529664 
L 84.763214 342.41652 
L 83.778583 344.423363 
L 82.671511 343.587553 
L 81.688155 343.467263 
L 80.703525 343.887861 
L 76.398953 344.373405 
L 75.291881 344.235378 
L 74.184809 344.536701 
L 73.077737 344.461832 
L 73.077737 344.461832 
" style="fill:none;stroke:#c44e52;stroke-linecap:round;stroke-width:1.75;"/>
   </g>
   <g id="line2d_46">
    <path clip-path="url(#p9d4b7129ca)" d="M 505.666121 339.247339 
L 504.68149 344.281246 
L 503.698135 342.335175 
L 501.730149 318.700134 
L 500.869234 310.793621 
L 499.147406 282.246051 
L 498.286491 271.298858 
L 497.425577 255.113307 
L 496.564663 245.270769 
L 495.702473 237.643852 
L 494.841559 237.090872 
L 493.980645 244.069031 
L 493.11973 248.340659 
L 492.258816 246.871854 
L 491.397902 230.043063 
L 490.536987 202.58533 
L 489.676073 225.957941 
L 488.815159 285.851278 
L 487.954245 331.517841 
L 486.969614 341.231102 
L 485.986258 342.167091 
L 484.018272 343.425938 
L 483.033641 343.067977 
L 482.050286 340.485775 
L 481.065655 341.328532 
L 480.082299 345.092735 
L 478.975227 346.165328 
L 477.745714 345.844374 
L 476.638642 342.720604 
L 474.670656 334.67141 
L 473.686025 339.31957 
L 472.70267 341.074478 
L 471.718039 328.963513 
L 470.734683 332.928168 
L 469.750053 344.641471 
L 468.766697 345.13524 
L 467.659625 341.103899 
L 466.674994 341.595134 
L 465.691639 342.509622 
L 464.707008 335.893687 
L 463.723653 324.106608 
L 462.739022 330.490282 
L 461.755666 338.833985 
L 460.771035 338.373124 
L 459.78768 334.44833 
L 458.803049 331.180161 
L 457.819694 333.3982 
L 456.835063 332.890649 
L 455.851707 329.046697 
L 454.867077 321.527481 
L 453.883721 306.050661 
L 453.022807 286.446193 
L 452.161893 293.646432 
L 451.300978 307.101196 
L 450.438789 299.456719 
L 449.577874 294.62222 
L 448.71696 295.872639 
L 447.856046 294.103782 
L 446.995131 287.011113 
L 446.134217 277.95465 
L 444.412389 250.340295 
L 443.551474 241.56113 
L 442.69056 237.924556 
L 441.829646 244.059187 
L 440.968731 254.09013 
L 440.107817 255.145789 
L 439.246903 258.290444 
L 438.385989 269.381173 
L 436.662885 286.582188 
L 435.80197 292.909477 
L 434.941056 297.415163 
L 434.080142 293.994577 
L 432.358313 268.219002 
L 431.497399 268.412286 
L 430.636485 261.818136 
L 429.77557 243.995834 
L 428.914656 247.446416 
L 428.053742 247.179234 
L 427.192827 234.61603 
L 424.610085 181.25145 
L 423.74917 179.282634 
L 422.886981 185.850405 
L 422.026066 189.721408 
L 421.165152 193.022916 
L 420.304238 200.687708 
L 419.443323 217.528327 
L 418.582409 240.177321 
L 417.721495 256.408238 
L 416.860581 267.299474 
L 415.138752 281.544292 
L 414.277838 286.446332 
L 413.416923 286.070082 
L 411.695095 259.106332 
L 410.834181 269.414314 
L 409.973266 274.48988 
L 409.111077 269.508084 
L 408.250162 259.422551 
L 407.389248 254.78883 
L 406.528334 259.980596 
L 405.667419 262.58425 
L 404.806505 264.698399 
L 403.945591 259.475261 
L 403.084677 242.06454 
L 402.223762 230.11348 
L 401.362848 246.175282 
L 400.501934 258.755486 
L 399.641019 250.782947 
L 398.780105 244.628105 
L 397.919191 241.349646 
L 396.197362 225.302656 
L 395.335173 228.073303 
L 394.474258 232.793308 
L 393.613344 254.413301 
L 392.75243 258.9588 
L 391.891515 242.862675 
L 390.169687 187.620509 
L 389.308773 165.091372 
L 387.586944 103.017851 
L 386.72603 92.917564 
L 385.865115 114.529389 
L 385.004201 143.860776 
L 384.143287 167.451973 
L 383.282373 202.343512 
L 382.421458 222.125794 
L 381.559269 238.254752 
L 380.698354 249.08777 
L 379.83744 248.215537 
L 378.976526 233.99016 
L 378.115611 205.681958 
L 377.254697 164.365111 
L 375.532869 67.548978 
L 374.671954 39.6 
L 373.933481 39.955133 
L 372.335369 113.296426 
L 371.474455 162.331865 
L 370.613541 196.406103 
L 369.751351 225.173271 
L 368.890437 248.846161 
L 367.168608 275.906151 
L 366.307694 278.338784 
L 365.446779 270.525985 
L 364.585865 253.964337 
L 363.724951 252.539076 
L 362.864037 273.053387 
L 362.003122 289.759983 
L 360.281294 327.813974 
L 359.296663 339.775297 
L 358.313307 344.365949 
L 357.328677 345.639253 
L 356.221605 345.721518 
L 355.114533 346.211291 
L 354.007461 345.592494 
L 350.68752 345.546572 
L 349.580448 344.670365 
L 348.473376 345.334488 
L 347.366304 344.897596 
L 346.259232 345.737603 
L 345.15216 345.202941 
L 344.045088 344.964979 
L 342.938016 345.184123 
L 341.830944 344.736351 
L 339.6168 344.337957 
L 338.509728 344.078345 
L 337.402656 343.620124 
L 336.419301 343.968835 
L 335.312229 342.959765 
L 334.328873 342.694625 
L 332.360887 343.203498 
L 331.376256 342.856597 
L 330.392901 341.272021 
L 329.40827 340.838272 
L 328.424914 340.914081 
L 327.440283 342.10668 
L 326.456928 342.441428 
L 325.472297 342.018084 
L 324.488942 342.155684 
L 323.504311 341.679048 
L 321.536325 339.788405 
L 320.552969 340.532473 
L 319.568338 340.621196 
L 318.584983 339.804893 
L 316.616997 339.637818 
L 315.632366 340.449092 
L 314.64901 339.587255 
L 313.664379 339.531511 
L 312.681024 339.823556 
L 311.696393 340.934756 
L 310.713038 342.240598 
L 308.745051 341.651986 
L 307.760421 342.518105 
L 306.777065 337.564749 
L 305.792434 338.78004 
L 304.809079 339.329175 
L 303.824448 338.441144 
L 301.856462 339.015143 
L 299.888475 338.757414 
L 298.90512 339.401034 
L 297.920489 338.792094 
L 296.937134 338.733296 
L 295.952503 338.400355 
L 294.969147 337.930431 
L 293.984517 337.106361 
L 293.001161 336.587052 
L 292.01653 336.410975 
L 291.033175 335.469759 
L 290.048544 332.545286 
L 289.065189 328.504226 
L 288.080558 321.36969 
L 287.219643 313.716414 
L 286.358729 301.238789 
L 285.497815 293.681509 
L 284.636901 289.563037 
L 283.775986 288.433738 
L 282.915072 299.052472 
L 282.054158 276.994911 
L 281.193243 269.418726 
L 280.331054 290.105821 
L 279.470139 315.828181 
L 278.609225 334.031144 
L 277.62587 340.312005 
L 276.641239 340.486003 
L 275.657883 340.127064 
L 274.673253 340.077461 
L 273.689897 339.64637 
L 272.705266 339.648308 
L 271.721911 339.476123 
L 270.73728 338.897025 
L 269.753925 338.646977 
L 268.769294 338.737581 
L 265.817952 338.280208 
L 261.881979 337.215044 
L 260.897349 337.248404 
L 254.010034 335.580835 
L 253.025403 335.10901 
L 251.057417 334.907966 
L 250.074062 334.761166 
L 248.106075 334.733546 
L 244.170103 334.72386 
L 243.185472 335.082789 
L 242.202117 335.281148 
L 238.266144 334.092283 
L 237.281513 333.671681 
L 235.313527 332.467938 
L 233.345541 330.852875 
L 232.362185 330.163575 
L 229.409568 328.443416 
L 228.426213 327.729753 
L 226.458226 325.812698 
L 224.49024 323.038498 
L 223.505609 321.220044 
L 221.537623 317.073766 
L 220.676709 313.639916 
L 219.815794 304.633504 
L 218.95488 289.005815 
L 218.093966 277.79007 
L 217.233051 278.320665 
L 216.372137 281.928099 
L 215.511223 287.507945 
L 214.650309 294.243608 
L 213.789394 294.975262 
L 212.92848 289.648606 
L 210.345737 262.867168 
L 209.483547 251.858709 
L 208.622633 245.536434 
L 207.761719 251.427805 
L 206.03989 277.947259 
L 205.178976 287.885539 
L 202.596233 308.683856 
L 201.735319 313.028402 
L 200.874405 316.010573 
L 200.01349 317.069935 
L 198.291662 316.824607 
L 197.430747 315.793241 
L 196.569833 314.312298 
L 195.707643 312.410715 
L 194.846729 309.901036 
L 192.263986 300.30464 
L 191.403072 299.299492 
L 190.542158 298.72805 
L 189.681243 299.144258 
L 187.959415 301.030866 
L 186.237586 304.39543 
L 185.376672 305.750521 
L 184.515758 306.208388 
L 183.654843 305.808884 
L 182.793929 305.22096 
L 181.931739 304.148477 
L 180.209911 300.953741 
L 179.348997 298.568235 
L 175.044425 284.335677 
L 172.461682 277.887589 
L 171.600768 275.354038 
L 170.739854 272.06691 
L 169.878939 268.192639 
L 168.155835 257.091868 
L 165.573093 236.066603 
L 163.851264 220.417084 
L 162.99035 212.236076 
L 162.129435 207.231912 
L 161.268521 210.614145 
L 160.407607 222.907986 
L 158.685778 253.265322 
L 157.824864 263.601687 
L 156.96395 271.376384 
L 156.103035 277.249935 
L 155.242121 281.844257 
L 154.379931 285.300878 
L 152.658103 290.711311 
L 150.936274 293.995255 
L 149.214446 296.764174 
L 148.353531 297.56563 
L 147.492617 298.546565 
L 146.631703 299.165063 
L 145.770789 300.102414 
L 144.909874 301.301228 
L 143.188046 303.110473 
L 142.327131 304.782423 
L 141.466217 305.57871 
L 140.604027 306.719644 
L 139.743113 307.670918 
L 138.882199 308.334065 
L 137.16037 310.669426 
L 136.299456 311.510347 
L 135.438542 312.764812 
L 134.577627 314.463951 
L 132.855799 316.379302 
L 131.994885 318.27335 
L 130.026898 321.508508 
L 129.042267 323.56515 
L 128.058912 324.298606 
L 127.074281 326.984368 
L 126.090926 328.618773 
L 125.106295 328.952719 
L 124.122939 329.69576 
L 121.170322 333.874838 
L 120.186967 333.776434 
L 119.202336 336.468719 
L 118.218981 338.822658 
L 117.23435 339.099904 
L 116.250994 341.51426 
L 115.266363 342.509524 
L 114.283008 341.854031 
L 113.298377 342.89059 
L 112.315022 342.546035 
L 111.330391 342.361117 
L 110.347035 342.384509 
L 109.362405 342.216319 
L 108.379049 342.8026 
L 107.394418 339.762465 
L 106.411063 340.121768 
L 105.426432 342.515059 
L 104.443077 342.945687 
L 103.458446 344.597514 
L 102.351374 344.901271 
L 101.245577 345.631865 
L 100.138505 345.522864 
L 99.031433 345.612766 
L 97.924361 344.424004 
L 96.817289 345.368262 
L 95.710217 344.317049 
L 94.603145 344.886249 
L 93.496073 344.22705 
L 92.511442 344.694856 
L 91.405646 344.205207 
L 90.421015 344.957952 
L 89.313943 344.415756 
L 88.206871 344.967638 
L 87.099799 344.699012 
L 85.992727 345.086546 
L 84.885655 344.483873 
L 83.778583 345.696806 
L 82.671511 345.078725 
L 81.565714 345.211248 
L 80.458642 345.506698 
L 79.35157 345.406979 
L 78.244498 345.62004 
L 77.137426 345.670156 
L 76.030354 345.519148 
L 74.923282 345.829327 
L 72.709138 345.740116 
L 72.709138 345.740116 
" style="fill:none;stroke:#8172b2;stroke-linecap:round;stroke-width:1.75;"/>
   </g>
   <g id="patch_3">
    <path d="M 72 39.6 
L 518.4 39.6 
" style="fill:none;"/>
   </g>
   <g id="patch_4">
    <path d="M 518.4 346.5 
L 518.4 39.6 
" style="fill:none;"/>
   </g>
   <g id="patch_5">
    <path d="M 72 346.5 
L 518.4 346.5 
" style="fill:none;"/>
   </g>
   <g id="patch_6">
    <path d="M 72 346.5 
L 72 39.6 
" style="fill:none;"/>
   </g>
   <g id="text_17">
    <!-- Regular Felt -->
    <defs>
     <path d="M 4.984375 -4.296875 
L 13.53125 -5.5625 
Q 14.0625 -9.515625 16.5 -11.328125 
Q 19.78125 -13.765625 25.4375 -13.765625 
Q 31.546875 -13.765625 34.859375 -11.328125 
Q 38.1875 -8.890625 39.359375 -4.5 
Q 40.046875 -1.8125 39.984375 6.78125 
Q 34.234375 0 25.640625 0 
Q 14.9375 0 9.078125 7.71875 
Q 3.21875 15.4375 3.21875 26.21875 
Q 3.21875 33.640625 5.90625 39.90625 
Q 8.59375 46.1875 13.6875 49.609375 
Q 18.796875 53.03125 25.6875 53.03125 
Q 34.859375 53.03125 40.828125 45.609375 
L 40.828125 51.859375 
L 48.921875 51.859375 
L 48.921875 7.03125 
Q 48.921875 -5.078125 46.453125 -10.125 
Q 44 -15.1875 38.640625 -18.109375 
Q 33.296875 -21.046875 25.484375 -21.046875 
Q 16.21875 -21.046875 10.5 -16.875 
Q 4.78125 -12.703125 4.984375 -4.296875 
M 12.25 26.859375 
Q 12.25 16.65625 16.296875 11.96875 
Q 20.359375 7.28125 26.46875 7.28125 
Q 32.515625 7.28125 36.609375 11.9375 
Q 40.71875 16.609375 40.71875 26.5625 
Q 40.71875 36.078125 36.5 40.90625 
Q 32.28125 45.75 26.3125 45.75 
Q 20.453125 45.75 16.34375 40.984375 
Q 12.25 36.234375 12.25 26.859375 
" id="ArialMT-67"/>
     <path d="M 7.859375 0 
L 7.859375 71.578125 
L 39.59375 71.578125 
Q 49.171875 71.578125 54.140625 69.640625 
Q 59.125 67.71875 62.109375 62.828125 
Q 65.09375 57.953125 65.09375 52.046875 
Q 65.09375 44.4375 60.15625 39.203125 
Q 55.21875 33.984375 44.921875 32.5625 
Q 48.6875 30.765625 50.640625 29 
Q 54.78125 25.203125 58.5 19.484375 
L 70.953125 0 
L 59.03125 0 
L 49.5625 14.890625 
Q 45.40625 21.34375 42.71875 24.75 
Q 40.046875 28.171875 37.921875 29.53125 
Q 35.796875 30.90625 33.59375 31.453125 
Q 31.984375 31.78125 28.328125 31.78125 
L 17.328125 31.78125 
L 17.328125 0 
z
M 17.328125 39.984375 
L 37.703125 39.984375 
Q 44.1875 39.984375 47.84375 41.328125 
Q 51.515625 42.671875 53.421875 45.625 
Q 55.328125 48.578125 55.328125 52.046875 
Q 55.328125 57.125 51.640625 60.390625 
Q 47.953125 63.671875 39.984375 63.671875 
L 17.328125 63.671875 
z
" id="ArialMT-52"/>
     <path d="M 40.578125 0 
L 40.578125 7.625 
Q 34.515625 -1.171875 24.125 -1.171875 
Q 19.53125 -1.171875 15.546875 0.578125 
Q 11.578125 2.34375 9.640625 5 
Q 7.71875 7.671875 6.9375 11.53125 
Q 6.390625 14.109375 6.390625 19.734375 
L 6.390625 51.859375 
L 15.1875 51.859375 
L 15.1875 23.09375 
Q 15.1875 16.21875 15.71875 13.8125 
Q 16.546875 10.359375 19.234375 8.375 
Q 21.921875 6.390625 25.875 6.390625 
Q 29.828125 6.390625 33.296875 8.421875 
Q 36.765625 10.453125 38.203125 13.9375 
Q 39.65625 17.4375 39.65625 24.078125 
L 39.65625 51.859375 
L 48.4375 51.859375 
L 48.4375 0 
z
" id="ArialMT-75"/>
     <path d="M 8.203125 0 
L 8.203125 71.578125 
L 56.5 71.578125 
L 56.5 63.140625 
L 17.671875 63.140625 
L 17.671875 40.96875 
L 51.265625 40.96875 
L 51.265625 32.515625 
L 17.671875 32.515625 
L 17.671875 0 
z
" id="ArialMT-46"/>
     <path d="M 6.390625 0 
L 6.390625 71.578125 
L 15.1875 71.578125 
L 15.1875 0 
z
" id="ArialMT-6c"/>
     <path d="M 25.78125 7.859375 
L 27.046875 0.09375 
Q 23.34375 -0.6875 20.40625 -0.6875 
Q 15.625 -0.6875 12.984375 0.828125 
Q 10.359375 2.34375 9.28125 4.8125 
Q 8.203125 7.28125 8.203125 15.1875 
L 8.203125 45.015625 
L 1.765625 45.015625 
L 1.765625 51.859375 
L 8.203125 51.859375 
L 8.203125 64.703125 
L 16.9375 69.96875 
L 16.9375 51.859375 
L 25.78125 51.859375 
L 25.78125 45.015625 
L 16.9375 45.015625 
L 16.9375 14.703125 
Q 16.9375 10.9375 17.40625 9.859375 
Q 17.875 8.796875 18.921875 8.15625 
Q 19.96875 7.515625 21.921875 7.515625 
Q 23.390625 7.515625 25.78125 7.859375 
" id="ArialMT-74"/>
     <path id="ArialMT-20"/>
    </defs>
    <g style="fill:#262626;" transform="translate(262.5215625 34.6)scale(0.12 -0.12)">
     <use xlink:href="#ArialMT-52"/>
     <use x="72.216796875" xlink:href="#ArialMT-65"/>
     <use x="127.83203125" xlink:href="#ArialMT-67"/>
     <use x="183.447265625" xlink:href="#ArialMT-75"/>
     <use x="239.0625" xlink:href="#ArialMT-6c"/>
     <use x="261.279296875" xlink:href="#ArialMT-61"/>
     <use x="316.89453125" xlink:href="#ArialMT-72"/>
     <use x="350.1953125" xlink:href="#ArialMT-20"/>
     <use x="377.978515625" xlink:href="#ArialMT-46"/>
     <use x="439.0625" xlink:href="#ArialMT-65"/>
     <use x="494.677734375" xlink:href="#ArialMT-6c"/>
     <use x="516.89453125" xlink:href="#ArialMT-74"/>
    </g>
   </g>
   <g id="legend_1">
    <g id="line2d_47">
     <path d="M 81 52.379687 
L 101 52.379687 
" style="fill:none;stroke:#4c72b0;stroke-linecap:round;stroke-width:1.75;"/>
    </g>
    <g id="line2d_48"/>
    <g id="text_18">
     <!-- Dunlop_AllSurface -->
     <defs>
      <path d="M 8.6875 0 
L 8.6875 45.015625 
L 0.921875 45.015625 
L 0.921875 51.859375 
L 8.6875 51.859375 
L 8.6875 57.375 
Q 8.6875 62.59375 9.625 65.140625 
Q 10.890625 68.5625 14.078125 70.671875 
Q 17.28125 72.796875 23.046875 72.796875 
Q 26.765625 72.796875 31.25 71.921875 
L 29.9375 64.265625 
Q 27.203125 64.75 24.75 64.75 
Q 20.75 64.75 19.09375 63.03125 
Q 17.4375 61.328125 17.4375 56.640625 
L 17.4375 51.859375 
L 27.546875 51.859375 
L 27.546875 45.015625 
L 17.4375 45.015625 
L 17.4375 0 
z
" id="ArialMT-66"/>
      <path d="M -0.140625 0 
L 27.34375 71.578125 
L 37.546875 71.578125 
L 66.84375 0 
L 56.0625 0 
L 47.703125 21.6875 
L 17.78125 21.6875 
L 9.90625 0 
z
M 20.515625 29.390625 
L 44.78125 29.390625 
L 37.3125 49.21875 
Q 33.890625 58.25 32.234375 64.0625 
Q 30.859375 57.171875 28.375 50.390625 
z
" id="ArialMT-41"/>
      <path d="M 4.5 23 
L 13.421875 23.78125 
Q 14.0625 18.40625 16.375 14.96875 
Q 18.703125 11.53125 23.578125 9.40625 
Q 28.46875 7.28125 34.578125 7.28125 
Q 39.984375 7.28125 44.140625 8.890625 
Q 48.296875 10.5 50.3125 13.296875 
Q 52.34375 16.109375 52.34375 19.4375 
Q 52.34375 22.796875 50.390625 25.3125 
Q 48.4375 27.828125 43.953125 29.546875 
Q 41.0625 30.671875 31.203125 33.03125 
Q 21.34375 35.40625 17.390625 37.5 
Q 12.25 40.1875 9.734375 44.15625 
Q 7.234375 48.140625 7.234375 53.078125 
Q 7.234375 58.5 10.296875 63.203125 
Q 13.375 67.921875 19.28125 70.359375 
Q 25.203125 72.796875 32.421875 72.796875 
Q 40.375 72.796875 46.453125 70.234375 
Q 52.546875 67.671875 55.8125 62.6875 
Q 59.078125 57.71875 59.328125 51.421875 
L 50.25 50.734375 
Q 49.515625 57.515625 45.28125 60.984375 
Q 41.0625 64.453125 32.8125 64.453125 
Q 24.21875 64.453125 20.28125 61.296875 
Q 16.359375 58.15625 16.359375 53.71875 
Q 16.359375 49.859375 19.140625 47.359375 
Q 21.875 44.875 33.421875 42.265625 
Q 44.96875 39.65625 49.265625 37.703125 
Q 55.515625 34.8125 58.484375 30.390625 
Q 61.46875 25.984375 61.46875 20.21875 
Q 61.46875 14.5 58.203125 9.4375 
Q 54.9375 4.390625 48.796875 1.578125 
Q 42.671875 -1.21875 35.015625 -1.21875 
Q 25.296875 -1.21875 18.71875 1.609375 
Q 12.15625 4.4375 8.421875 10.125 
Q 4.6875 15.828125 4.5 23 
" id="ArialMT-53"/>
      <path d="M 6.59375 -19.875 
L 6.59375 51.859375 
L 14.59375 51.859375 
L 14.59375 45.125 
Q 17.4375 49.078125 21 51.046875 
Q 24.5625 53.03125 29.640625 53.03125 
Q 36.28125 53.03125 41.359375 49.609375 
Q 46.4375 46.1875 49.015625 39.953125 
Q 51.609375 33.734375 51.609375 26.3125 
Q 51.609375 18.359375 48.75 11.984375 
Q 45.90625 5.609375 40.453125 2.21875 
Q 35.015625 -1.171875 29 -1.171875 
Q 24.609375 -1.171875 21.109375 0.6875 
Q 17.625 2.546875 15.375 5.375 
L 15.375 -19.875 
z
M 14.546875 25.640625 
Q 14.546875 15.625 18.59375 10.84375 
Q 22.65625 6.0625 28.421875 6.0625 
Q 34.28125 6.0625 38.453125 11.015625 
Q 42.625 15.96875 42.625 26.375 
Q 42.625 36.28125 38.546875 41.203125 
Q 34.46875 46.140625 28.8125 46.140625 
Q 23.1875 46.140625 18.859375 40.890625 
Q 14.546875 35.640625 14.546875 25.640625 
" id="ArialMT-70"/>
      <path d="M 7.71875 0 
L 7.71875 71.578125 
L 32.375 71.578125 
Q 40.71875 71.578125 45.125 70.5625 
Q 51.265625 69.140625 55.609375 65.4375 
Q 61.28125 60.640625 64.078125 53.1875 
Q 66.890625 45.75 66.890625 36.1875 
Q 66.890625 28.03125 64.984375 21.734375 
Q 63.09375 15.4375 60.109375 11.296875 
Q 57.125 7.171875 53.578125 4.796875 
Q 50.046875 2.4375 45.046875 1.21875 
Q 40.046875 0 33.546875 0 
z
M 17.1875 8.453125 
L 32.46875 8.453125 
Q 39.546875 8.453125 43.578125 9.765625 
Q 47.609375 11.078125 50 13.484375 
Q 53.375 16.84375 55.25 22.53125 
Q 57.125 28.21875 57.125 36.328125 
Q 57.125 47.5625 53.4375 53.59375 
Q 49.75 59.625 44.484375 61.671875 
Q 40.671875 63.140625 32.234375 63.140625 
L 17.1875 63.140625 
z
" id="ArialMT-44"/>
      <path d="M -1.515625 -19.875 
L -1.515625 -13.53125 
L 56.734375 -13.53125 
L 56.734375 -19.875 
z
" id="ArialMT-5f"/>
     </defs>
     <g style="fill:#262626;" transform="translate(109.0 55.8796875)scale(0.1 -0.1)">
      <use xlink:href="#ArialMT-44"/>
      <use x="72.216796875" xlink:href="#ArialMT-75"/>
      <use x="127.83203125" xlink:href="#ArialMT-6e"/>
      <use x="183.447265625" xlink:href="#ArialMT-6c"/>
      <use x="205.6640625" xlink:href="#ArialMT-6f"/>
      <use x="261.279296875" xlink:href="#ArialMT-70"/>
      <use x="316.89453125" xlink:href="#ArialMT-5f"/>
      <use x="372.509765625" xlink:href="#ArialMT-41"/>
      <use x="439.208984375" xlink:href="#ArialMT-6c"/>
      <use x="461.42578125" xlink:href="#ArialMT-6c"/>
      <use x="483.642578125" xlink:href="#ArialMT-53"/>
      <use x="550.341796875" xlink:href="#ArialMT-75"/>
      <use x="605.95703125" xlink:href="#ArialMT-72"/>
      <use x="639.2578125" xlink:href="#ArialMT-66"/>
      <use x="667.041015625" xlink:href="#ArialMT-61"/>
      <use x="722.65625" xlink:href="#ArialMT-63"/>
      <use x="772.65625" xlink:href="#ArialMT-65"/>
     </g>
    </g>
    <g id="line2d_49">
     <path d="M 81 66.525 
L 101 66.525 
" style="fill:none;stroke:#55a868;stroke-linecap:round;stroke-width:1.75;"/>
    </g>
    <g id="line2d_50"/>
    <g id="text_19">
     <!-- Penn_ATP -->
     <defs>
      <path d="M 7.71875 0 
L 7.71875 71.578125 
L 34.71875 71.578125 
Q 41.84375 71.578125 45.609375 70.90625 
Q 50.875 70.015625 54.4375 67.546875 
Q 58.015625 65.09375 60.1875 60.640625 
Q 62.359375 56.203125 62.359375 50.875 
Q 62.359375 41.75 56.546875 35.421875 
Q 50.734375 29.109375 35.546875 29.109375 
L 17.1875 29.109375 
L 17.1875 0 
z
M 17.1875 37.546875 
L 35.6875 37.546875 
Q 44.875 37.546875 48.734375 40.96875 
Q 52.59375 44.390625 52.59375 50.59375 
Q 52.59375 55.078125 50.3125 58.265625 
Q 48.046875 61.46875 44.34375 62.5 
Q 41.9375 63.140625 35.5 63.140625 
L 17.1875 63.140625 
z
" id="ArialMT-50"/>
      <path d="M 25.921875 0 
L 25.921875 63.140625 
L 2.34375 63.140625 
L 2.34375 71.578125 
L 59.078125 71.578125 
L 59.078125 63.140625 
L 35.40625 63.140625 
L 35.40625 0 
z
" id="ArialMT-54"/>
     </defs>
     <g style="fill:#262626;" transform="translate(109.0 70.025)scale(0.1 -0.1)">
      <use xlink:href="#ArialMT-50"/>
      <use x="66.69921875" xlink:href="#ArialMT-65"/>
      <use x="122.314453125" xlink:href="#ArialMT-6e"/>
      <use x="177.9296875" xlink:href="#ArialMT-6e"/>
      <use x="233.544921875" xlink:href="#ArialMT-5f"/>
      <use x="289.16015625" xlink:href="#ArialMT-41"/>
      <use x="355.75" xlink:href="#ArialMT-54"/>
      <use x="416.833984375" xlink:href="#ArialMT-50"/>
     </g>
    </g>
    <g id="line2d_51">
     <path d="M 81 80.670312 
L 101 80.670312 
" style="fill:none;stroke:#c44e52;stroke-linecap:round;stroke-width:1.75;"/>
    </g>
    <g id="line2d_52"/>
    <g id="text_20">
     <!-- Penn_RegularDuty -->
     <defs>
      <path d="M 6.203125 -19.96875 
L 5.21875 -11.71875 
Q 8.109375 -12.5 10.25 -12.5 
Q 13.1875 -12.5 14.9375 -11.515625 
Q 16.703125 -10.546875 17.828125 -8.796875 
Q 18.65625 -7.46875 20.515625 -2.25 
Q 20.75 -1.515625 21.296875 -0.09375 
L 1.609375 51.859375 
L 11.078125 51.859375 
L 21.875 21.828125 
Q 23.96875 16.109375 25.640625 9.8125 
Q 27.15625 15.875 29.25 21.625 
L 40.328125 51.859375 
L 49.125 51.859375 
L 29.390625 -0.875 
Q 26.21875 -9.421875 24.46875 -12.640625 
Q 22.125 -17 19.09375 -19.015625 
Q 16.0625 -21.046875 11.859375 -21.046875 
Q 9.328125 -21.046875 6.203125 -19.96875 
" id="ArialMT-79"/>
     </defs>
     <g style="fill:#262626;" transform="translate(109.0 84.1703125)scale(0.1 -0.1)">
      <use xlink:href="#ArialMT-50"/>
      <use x="66.69921875" xlink:href="#ArialMT-65"/>
      <use x="122.314453125" xlink:href="#ArialMT-6e"/>
      <use x="177.9296875" xlink:href="#ArialMT-6e"/>
      <use x="233.544921875" xlink:href="#ArialMT-5f"/>
      <use x="289.16015625" xlink:href="#ArialMT-52"/>
      <use x="361.376953125" xlink:href="#ArialMT-65"/>
      <use x="416.9921875" xlink:href="#ArialMT-67"/>
      <use x="472.607421875" xlink:href="#ArialMT-75"/>
      <use x="528.22265625" xlink:href="#ArialMT-6c"/>
      <use x="550.439453125" xlink:href="#ArialMT-61"/>
      <use x="606.0546875" xlink:href="#ArialMT-72"/>
      <use x="639.35546875" xlink:href="#ArialMT-44"/>
      <use x="711.572265625" xlink:href="#ArialMT-75"/>
      <use x="767.1875" xlink:href="#ArialMT-74"/>
      <use x="794.970703125" xlink:href="#ArialMT-79"/>
     </g>
    </g>
    <g id="line2d_53">
     <path d="M 81 94.932812 
L 101 94.932812 
" style="fill:none;stroke:#8172b2;stroke-linecap:round;stroke-width:1.75;"/>
    </g>
    <g id="line2d_54"/>
    <g id="text_21">
     <!-- Wilson_RegularDuty -->
     <defs>
      <path d="M 6.640625 61.46875 
L 6.640625 71.578125 
L 15.4375 71.578125 
L 15.4375 61.46875 
z
M 6.640625 0 
L 6.640625 51.859375 
L 15.4375 51.859375 
L 15.4375 0 
z
" id="ArialMT-69"/>
      <path d="M 20.21875 0 
L 1.21875 71.578125 
L 10.9375 71.578125 
L 21.828125 24.65625 
Q 23.578125 17.28125 24.859375 10.015625 
Q 27.59375 21.484375 28.078125 23.25 
L 41.703125 71.578125 
L 53.125 71.578125 
L 63.375 35.359375 
Q 67.234375 21.875 68.953125 10.015625 
Q 70.3125 16.796875 72.515625 25.59375 
L 83.734375 71.578125 
L 93.265625 71.578125 
L 73.640625 0 
L 64.5 0 
L 49.421875 54.546875 
Q 47.515625 61.375 47.171875 62.9375 
Q 46.046875 58.015625 45.0625 54.546875 
L 29.890625 0 
z
" id="ArialMT-57"/>
     </defs>
     <g style="fill:#262626;" transform="translate(109.0 98.4328125)scale(0.1 -0.1)">
      <use xlink:href="#ArialMT-57"/>
      <use x="94.384765625" xlink:href="#ArialMT-69"/>
      <use x="116.6015625" xlink:href="#ArialMT-6c"/>
      <use x="138.818359375" xlink:href="#ArialMT-73"/>
      <use x="188.818359375" xlink:href="#ArialMT-6f"/>
      <use x="244.43359375" xlink:href="#ArialMT-6e"/>
      <use x="300.048828125" xlink:href="#ArialMT-5f"/>
      <use x="355.6640625" xlink:href="#ArialMT-52"/>
      <use x="427.880859375" xlink:href="#ArialMT-65"/>
      <use x="483.49609375" xlink:href="#ArialMT-67"/>
      <use x="539.111328125" xlink:href="#ArialMT-75"/>
      <use x="594.7265625" xlink:href="#ArialMT-6c"/>
      <use x="616.943359375" xlink:href="#ArialMT-61"/>
      <use x="672.55859375" xlink:href="#ArialMT-72"/>
      <use x="705.859375" xlink:href="#ArialMT-44"/>
      <use x="778.076171875" xlink:href="#ArialMT-75"/>
      <use x="833.69140625" xlink:href="#ArialMT-74"/>
      <use x="861.474609375" xlink:href="#ArialMT-79"/>
     </g>
    </g>
   </g>
  </g>
 </g>
 <defs>
  <clipPath id="p9d4b7129ca">
   <rect height="306.9" width="446.4" x="72.0" y="39.6"/>
  </clipPath>
 </defs>
</svg>
