<?xml version="1.0" encoding="utf-8" standalone="no"?>
<!DOCTYPE svg PUBLIC "-//W3C//DTD SVG 1.1//EN"
  "http://www.w3.org/Graphics/SVG/1.1/DTD/svg11.dtd">
<!-- Created with matplotlib (http://matplotlib.org/) -->
<svg height="396pt" version="1.1" viewBox="0 0 576 396" width="576pt" xmlns="http://www.w3.org/2000/svg" xmlns:xlink="http://www.w3.org/1999/xlink">
 <defs>
  <style type="text/css">
*{stroke-linecap:butt;stroke-linejoin:round;stroke-miterlimit:100000;}
  </style>
 </defs>
 <g id="figure_1">
  <g id="patch_1">
   <path d="M 0 396 
L 576 396 
L 576 0 
L 0 0 
z
" style="fill:#ffffff;"/>
  </g>
  <g id="axes_1">
   <g id="patch_2">
    <path d="M 72 346.5 
L 518.4 346.5 
L 518.4 39.6 
L 72 39.6 
z
" style="fill:#eaeaf2;"/>
   </g>
   <g id="matplotlib.axis_1">
    <g id="xtick_1">
     <g id="line2d_1">
      <path clip-path="url(#p3e5ad06eeb)" d="M 518.4 346.5 
L 518.4 39.6 
" style="fill:none;stroke:#ffffff;stroke-linecap:round;"/>
     </g>
     <g id="line2d_2"/>
     <g id="line2d_3"/>
     <g id="text_1">
      <!-- 500 -->
      <defs>
       <path d="M 4.15625 35.296875 
Q 4.15625 48 6.765625 55.734375 
Q 9.375 63.484375 14.515625 67.671875 
Q 19.671875 71.875 27.484375 71.875 
Q 33.25 71.875 37.59375 69.546875 
Q 41.9375 67.234375 44.765625 62.859375 
Q 47.609375 58.5 49.21875 52.21875 
Q 50.828125 45.953125 50.828125 35.296875 
Q 50.828125 22.703125 48.234375 14.96875 
Q 45.65625 7.234375 40.5 3 
Q 35.359375 -1.21875 27.484375 -1.21875 
Q 17.140625 -1.21875 11.234375 6.203125 
Q 4.15625 15.140625 4.15625 35.296875 
M 13.1875 35.296875 
Q 13.1875 17.671875 17.3125 11.828125 
Q 21.4375 6 27.484375 6 
Q 33.546875 6 37.671875 11.859375 
Q 41.796875 17.71875 41.796875 35.296875 
Q 41.796875 52.984375 37.671875 58.78125 
Q 33.546875 64.59375 27.390625 64.59375 
Q 21.34375 64.59375 17.71875 59.46875 
Q 13.1875 52.9375 13.1875 35.296875 
" id="ArialMT-30"/>
       <path d="M 4.15625 18.75 
L 13.375 19.53125 
Q 14.40625 12.796875 18.140625 9.390625 
Q 21.875 6 27.15625 6 
Q 33.5 6 37.890625 10.78125 
Q 42.28125 15.578125 42.28125 23.484375 
Q 42.28125 31 38.0625 35.34375 
Q 33.84375 39.703125 27 39.703125 
Q 22.75 39.703125 19.328125 37.765625 
Q 15.921875 35.84375 13.96875 32.765625 
L 5.71875 33.84375 
L 12.640625 70.609375 
L 48.25 70.609375 
L 48.25 62.203125 
L 19.671875 62.203125 
L 15.828125 42.96875 
Q 22.265625 47.46875 29.34375 47.46875 
Q 38.71875 47.46875 45.15625 40.96875 
Q 51.609375 34.46875 51.609375 24.265625 
Q 51.609375 14.546875 45.953125 7.46875 
Q 39.0625 -1.21875 27.15625 -1.21875 
Q 17.390625 -1.21875 11.203125 4.25 
Q 5.03125 9.71875 4.15625 18.75 
" id="ArialMT-35"/>
      </defs>
      <g style="fill:#262626;" transform="translate(510.05859375 360.6578125)scale(0.1 -0.1)">
       <use xlink:href="#ArialMT-35"/>
       <use x="55.615234375" xlink:href="#ArialMT-30"/>
       <use x="111.23046875" xlink:href="#ArialMT-30"/>
      </g>
     </g>
    </g>
    <g id="xtick_2">
     <g id="line2d_4">
      <path clip-path="url(#p3e5ad06eeb)" d="M 454.628571 346.5 
L 454.628571 39.6 
" style="fill:none;stroke:#ffffff;stroke-linecap:round;"/>
     </g>
     <g id="line2d_5"/>
     <g id="line2d_6"/>
     <g id="text_2">
      <!-- 1000 -->
      <defs>
       <path d="M 37.25 0 
L 28.46875 0 
L 28.46875 56 
Q 25.296875 52.984375 20.140625 49.953125 
Q 14.984375 46.921875 10.890625 45.40625 
L 10.890625 53.90625 
Q 18.265625 57.375 23.78125 62.296875 
Q 29.296875 67.234375 31.59375 71.875 
L 37.25 71.875 
z
" id="ArialMT-31"/>
      </defs>
      <g style="fill:#262626;" transform="translate(443.506696429 360.6578125)scale(0.1 -0.1)">
       <use xlink:href="#ArialMT-31"/>
       <use x="55.615234375" xlink:href="#ArialMT-30"/>
       <use x="111.23046875" xlink:href="#ArialMT-30"/>
       <use x="166.845703125" xlink:href="#ArialMT-30"/>
      </g>
     </g>
    </g>
    <g id="xtick_3">
     <g id="line2d_7">
      <path clip-path="url(#p3e5ad06eeb)" d="M 390.857143 346.5 
L 390.857143 39.6 
" style="fill:none;stroke:#ffffff;stroke-linecap:round;"/>
     </g>
     <g id="line2d_8"/>
     <g id="line2d_9"/>
     <g id="text_3">
      <!-- 1500 -->
      <g style="fill:#262626;" transform="translate(379.735267857 360.6578125)scale(0.1 -0.1)">
       <use xlink:href="#ArialMT-31"/>
       <use x="55.615234375" xlink:href="#ArialMT-35"/>
       <use x="111.23046875" xlink:href="#ArialMT-30"/>
       <use x="166.845703125" xlink:href="#ArialMT-30"/>
      </g>
     </g>
    </g>
    <g id="xtick_4">
     <g id="line2d_10">
      <path clip-path="url(#p3e5ad06eeb)" d="M 327.085714 346.5 
L 327.085714 39.6 
" style="fill:none;stroke:#ffffff;stroke-linecap:round;"/>
     </g>
     <g id="line2d_11"/>
     <g id="line2d_12"/>
     <g id="text_4">
      <!-- 2000 -->
      <defs>
       <path d="M 50.34375 8.453125 
L 50.34375 0 
L 3.03125 0 
Q 2.9375 3.171875 4.046875 6.109375 
Q 5.859375 10.9375 9.828125 15.625 
Q 13.8125 20.3125 21.34375 26.46875 
Q 33.015625 36.03125 37.109375 41.625 
Q 41.21875 47.21875 41.21875 52.203125 
Q 41.21875 57.421875 37.46875 61 
Q 33.734375 64.59375 27.734375 64.59375 
Q 21.390625 64.59375 17.578125 60.78125 
Q 13.765625 56.984375 13.71875 50.25 
L 4.6875 51.171875 
Q 5.609375 61.28125 11.65625 66.578125 
Q 17.71875 71.875 27.9375 71.875 
Q 38.234375 71.875 44.234375 66.15625 
Q 50.25 60.453125 50.25 52 
Q 50.25 47.703125 48.484375 43.546875 
Q 46.734375 39.40625 42.65625 34.8125 
Q 38.578125 30.21875 29.109375 22.21875 
Q 21.1875 15.578125 18.9375 13.203125 
Q 16.703125 10.84375 15.234375 8.453125 
z
" id="ArialMT-32"/>
      </defs>
      <g style="fill:#262626;" transform="translate(315.963839286 360.6578125)scale(0.1 -0.1)">
       <use xlink:href="#ArialMT-32"/>
       <use x="55.615234375" xlink:href="#ArialMT-30"/>
       <use x="111.23046875" xlink:href="#ArialMT-30"/>
       <use x="166.845703125" xlink:href="#ArialMT-30"/>
      </g>
     </g>
    </g>
    <g id="xtick_5">
     <g id="line2d_13">
      <path clip-path="url(#p3e5ad06eeb)" d="M 263.314286 346.5 
L 263.314286 39.6 
" style="fill:none;stroke:#ffffff;stroke-linecap:round;"/>
     </g>
     <g id="line2d_14"/>
     <g id="line2d_15"/>
     <g id="text_5">
      <!-- 2500 -->
      <g style="fill:#262626;" transform="translate(252.192410714 360.6578125)scale(0.1 -0.1)">
       <use xlink:href="#ArialMT-32"/>
       <use x="55.615234375" xlink:href="#ArialMT-35"/>
       <use x="111.23046875" xlink:href="#ArialMT-30"/>
       <use x="166.845703125" xlink:href="#ArialMT-30"/>
      </g>
     </g>
    </g>
    <g id="xtick_6">
     <g id="line2d_16">
      <path clip-path="url(#p3e5ad06eeb)" d="M 199.542857 346.5 
L 199.542857 39.6 
" style="fill:none;stroke:#ffffff;stroke-linecap:round;"/>
     </g>
     <g id="line2d_17"/>
     <g id="line2d_18"/>
     <g id="text_6">
      <!-- 3000 -->
      <defs>
       <path d="M 4.203125 18.890625 
L 12.984375 20.0625 
Q 14.5 12.59375 18.140625 9.296875 
Q 21.78125 6 27 6 
Q 33.203125 6 37.46875 10.296875 
Q 41.75 14.59375 41.75 20.953125 
Q 41.75 27 37.796875 30.921875 
Q 33.84375 34.859375 27.734375 34.859375 
Q 25.25 34.859375 21.53125 33.890625 
L 22.515625 41.609375 
Q 23.390625 41.5 23.921875 41.5 
Q 29.546875 41.5 34.03125 44.421875 
Q 38.53125 47.359375 38.53125 53.46875 
Q 38.53125 58.296875 35.25 61.46875 
Q 31.984375 64.65625 26.8125 64.65625 
Q 21.6875 64.65625 18.265625 61.421875 
Q 14.84375 58.203125 13.875 51.765625 
L 5.078125 53.328125 
Q 6.6875 62.15625 12.390625 67.015625 
Q 18.109375 71.875 26.609375 71.875 
Q 32.46875 71.875 37.390625 69.359375 
Q 42.328125 66.84375 44.9375 62.5 
Q 47.5625 58.15625 47.5625 53.265625 
Q 47.5625 48.640625 45.0625 44.828125 
Q 42.578125 41.015625 37.703125 38.765625 
Q 44.046875 37.3125 47.5625 32.6875 
Q 51.078125 28.078125 51.078125 21.140625 
Q 51.078125 11.765625 44.234375 5.25 
Q 37.40625 -1.265625 26.953125 -1.265625 
Q 17.53125 -1.265625 11.296875 4.34375 
Q 5.078125 9.96875 4.203125 18.890625 
" id="ArialMT-33"/>
      </defs>
      <g style="fill:#262626;" transform="translate(188.420982143 360.6578125)scale(0.1 -0.1)">
       <use xlink:href="#ArialMT-33"/>
       <use x="55.615234375" xlink:href="#ArialMT-30"/>
       <use x="111.23046875" xlink:href="#ArialMT-30"/>
       <use x="166.845703125" xlink:href="#ArialMT-30"/>
      </g>
     </g>
    </g>
    <g id="xtick_7">
     <g id="line2d_19">
      <path clip-path="url(#p3e5ad06eeb)" d="M 135.771429 346.5 
L 135.771429 39.6 
" style="fill:none;stroke:#ffffff;stroke-linecap:round;"/>
     </g>
     <g id="line2d_20"/>
     <g id="line2d_21"/>
     <g id="text_7">
      <!-- 3500 -->
      <g style="fill:#262626;" transform="translate(124.649553571 360.6578125)scale(0.1 -0.1)">
       <use xlink:href="#ArialMT-33"/>
       <use x="55.615234375" xlink:href="#ArialMT-35"/>
       <use x="111.23046875" xlink:href="#ArialMT-30"/>
       <use x="166.845703125" xlink:href="#ArialMT-30"/>
      </g>
     </g>
    </g>
    <g id="xtick_8">
     <g id="line2d_22">
      <path clip-path="url(#p3e5ad06eeb)" d="M 72 346.5 
L 72 39.6 
" style="fill:none;stroke:#ffffff;stroke-linecap:round;"/>
     </g>
     <g id="line2d_23"/>
     <g id="line2d_24"/>
     <g id="text_8">
      <!-- 4000 -->
      <defs>
       <path d="M 32.328125 0 
L 32.328125 17.140625 
L 1.265625 17.140625 
L 1.265625 25.203125 
L 33.9375 71.578125 
L 41.109375 71.578125 
L 41.109375 25.203125 
L 50.78125 25.203125 
L 50.78125 17.140625 
L 41.109375 17.140625 
L 41.109375 0 
z
M 32.328125 25.203125 
L 32.328125 57.46875 
L 9.90625 25.203125 
z
" id="ArialMT-34"/>
      </defs>
      <g style="fill:#262626;" transform="translate(60.878125 360.6578125)scale(0.1 -0.1)">
       <use xlink:href="#ArialMT-34"/>
       <use x="55.615234375" xlink:href="#ArialMT-30"/>
       <use x="111.23046875" xlink:href="#ArialMT-30"/>
       <use x="166.845703125" xlink:href="#ArialMT-30"/>
      </g>
     </g>
    </g>
    <g id="text_9">
     <!-- cm^-1 -->
     <defs>
      <path d="M 40.4375 19 
L 49.078125 17.875 
Q 47.65625 8.9375 41.8125 3.875 
Q 35.984375 -1.171875 27.484375 -1.171875 
Q 16.84375 -1.171875 10.375 5.78125 
Q 3.90625 12.75 3.90625 25.734375 
Q 3.90625 34.125 6.6875 40.421875 
Q 9.46875 46.734375 15.15625 49.875 
Q 20.84375 53.03125 27.546875 53.03125 
Q 35.984375 53.03125 41.359375 48.75 
Q 46.734375 44.484375 48.25 36.625 
L 39.703125 35.296875 
Q 38.484375 40.53125 35.375 43.15625 
Q 32.28125 45.796875 27.875 45.796875 
Q 21.234375 45.796875 17.078125 41.03125 
Q 12.9375 36.28125 12.9375 25.984375 
Q 12.9375 15.53125 16.9375 10.796875 
Q 20.953125 6.0625 27.390625 6.0625 
Q 32.5625 6.0625 36.03125 9.234375 
Q 39.5 12.40625 40.4375 19 
" id="ArialMT-63"/>
      <path d="M 11.671875 33.6875 
L 2.640625 33.6875 
L 19.875 72.796875 
L 26.953125 72.796875 
L 44.28125 33.6875 
L 35.453125 33.6875 
L 23.390625 62.84375 
z
" id="ArialMT-5e"/>
      <path d="M 3.171875 21.484375 
L 3.171875 30.328125 
L 30.171875 30.328125 
L 30.171875 21.484375 
z
" id="ArialMT-2d"/>
      <path d="M 6.59375 0 
L 6.59375 51.859375 
L 14.453125 51.859375 
L 14.453125 44.578125 
Q 16.890625 48.390625 20.9375 50.703125 
Q 25 53.03125 30.171875 53.03125 
Q 35.9375 53.03125 39.625 50.640625 
Q 43.3125 48.25 44.828125 43.953125 
Q 50.984375 53.03125 60.84375 53.03125 
Q 68.5625 53.03125 72.703125 48.75 
Q 76.859375 44.484375 76.859375 35.59375 
L 76.859375 0 
L 68.109375 0 
L 68.109375 32.671875 
Q 68.109375 37.9375 67.25 40.25 
Q 66.40625 42.578125 64.15625 43.984375 
Q 61.921875 45.40625 58.890625 45.40625 
Q 53.421875 45.40625 49.796875 41.765625 
Q 46.1875 38.140625 46.1875 30.125 
L 46.1875 0 
L 37.40625 0 
L 37.40625 33.6875 
Q 37.40625 39.546875 35.25 42.46875 
Q 33.109375 45.40625 28.21875 45.40625 
Q 24.515625 45.40625 21.359375 43.453125 
Q 18.21875 41.5 16.796875 37.734375 
Q 15.375 33.984375 15.375 26.90625 
L 15.375 0 
z
" id="ArialMT-6d"/>
     </defs>
     <g style="fill:#262626;" transform="translate(280.398125 375.51890625)scale(0.11 -0.11)">
      <use xlink:href="#ArialMT-63"/>
      <use x="50.0" xlink:href="#ArialMT-6d"/>
      <use x="133.30078125" xlink:href="#ArialMT-5e"/>
      <use x="180.224609375" xlink:href="#ArialMT-2d"/>
      <use x="213.525390625" xlink:href="#ArialMT-31"/>
     </g>
    </g>
   </g>
   <g id="matplotlib.axis_2">
    <g id="ytick_1">
     <g id="line2d_25">
      <path clip-path="url(#p3e5ad06eeb)" d="M 72 346.5 
L 518.4 346.5 
" style="fill:none;stroke:#ffffff;stroke-linecap:round;"/>
     </g>
     <g id="line2d_26"/>
     <g id="line2d_27"/>
     <g id="text_10">
      <!-- 0.0 -->
      <defs>
       <path d="M 9.078125 0 
L 9.078125 10.015625 
L 19.09375 10.015625 
L 19.09375 0 
z
" id="ArialMT-2e"/>
      </defs>
      <g style="fill:#262626;" transform="translate(51.1 349.08515625)scale(0.1 -0.1)">
       <use xlink:href="#ArialMT-30"/>
       <use x="55.615234375" xlink:href="#ArialMT-2e"/>
       <use x="83.3984375" xlink:href="#ArialMT-30"/>
      </g>
     </g>
    </g>
    <g id="ytick_2">
     <g id="line2d_28">
      <path clip-path="url(#p3e5ad06eeb)" d="M 72 285.12 
L 518.4 285.12 
" style="fill:none;stroke:#ffffff;stroke-linecap:round;"/>
     </g>
     <g id="line2d_29"/>
     <g id="line2d_30"/>
     <g id="text_11">
      <!-- 0.2 -->
      <g style="fill:#262626;" transform="translate(51.1 287.70515625)scale(0.1 -0.1)">
       <use xlink:href="#ArialMT-30"/>
       <use x="55.615234375" xlink:href="#ArialMT-2e"/>
       <use x="83.3984375" xlink:href="#ArialMT-32"/>
      </g>
     </g>
    </g>
    <g id="ytick_3">
     <g id="line2d_31">
      <path clip-path="url(#p3e5ad06eeb)" d="M 72 223.74 
L 518.4 223.74 
" style="fill:none;stroke:#ffffff;stroke-linecap:round;"/>
     </g>
     <g id="line2d_32"/>
     <g id="line2d_33"/>
     <g id="text_12">
      <!-- 0.4 -->
      <g style="fill:#262626;" transform="translate(51.1 226.32515625)scale(0.1 -0.1)">
       <use xlink:href="#ArialMT-30"/>
       <use x="55.615234375" xlink:href="#ArialMT-2e"/>
       <use x="83.3984375" xlink:href="#ArialMT-34"/>
      </g>
     </g>
    </g>
    <g id="ytick_4">
     <g id="line2d_34">
      <path clip-path="url(#p3e5ad06eeb)" d="M 72 162.36 
L 518.4 162.36 
" style="fill:none;stroke:#ffffff;stroke-linecap:round;"/>
     </g>
     <g id="line2d_35"/>
     <g id="line2d_36"/>
     <g id="text_13">
      <!-- 0.6 -->
      <defs>
       <path d="M 49.75 54.046875 
L 41.015625 53.375 
Q 39.84375 58.546875 37.703125 60.890625 
Q 34.125 64.65625 28.90625 64.65625 
Q 24.703125 64.65625 21.53125 62.3125 
Q 17.390625 59.28125 14.984375 53.46875 
Q 12.59375 47.65625 12.5 36.921875 
Q 15.671875 41.75 20.265625 44.09375 
Q 24.859375 46.4375 29.890625 46.4375 
Q 38.671875 46.4375 44.84375 39.96875 
Q 51.03125 33.5 51.03125 23.25 
Q 51.03125 16.5 48.125 10.71875 
Q 45.21875 4.9375 40.140625 1.859375 
Q 35.0625 -1.21875 28.609375 -1.21875 
Q 17.625 -1.21875 10.6875 6.859375 
Q 3.765625 14.9375 3.765625 33.5 
Q 3.765625 54.25 11.421875 63.671875 
Q 18.109375 71.875 29.4375 71.875 
Q 37.890625 71.875 43.28125 67.140625 
Q 48.6875 62.40625 49.75 54.046875 
M 13.875 23.1875 
Q 13.875 18.65625 15.796875 14.5 
Q 17.71875 10.359375 21.1875 8.171875 
Q 24.65625 6 28.46875 6 
Q 34.03125 6 38.03125 10.484375 
Q 42.046875 14.984375 42.046875 22.703125 
Q 42.046875 30.125 38.078125 34.390625 
Q 34.125 38.671875 28.125 38.671875 
Q 22.171875 38.671875 18.015625 34.390625 
Q 13.875 30.125 13.875 23.1875 
" id="ArialMT-36"/>
      </defs>
      <g style="fill:#262626;" transform="translate(51.1 164.94515625)scale(0.1 -0.1)">
       <use xlink:href="#ArialMT-30"/>
       <use x="55.615234375" xlink:href="#ArialMT-2e"/>
       <use x="83.3984375" xlink:href="#ArialMT-36"/>
      </g>
     </g>
    </g>
    <g id="ytick_5">
     <g id="line2d_37">
      <path clip-path="url(#p3e5ad06eeb)" d="M 72 100.98 
L 518.4 100.98 
" style="fill:none;stroke:#ffffff;stroke-linecap:round;"/>
     </g>
     <g id="line2d_38"/>
     <g id="line2d_39"/>
     <g id="text_14">
      <!-- 0.8 -->
      <defs>
       <path d="M 17.671875 38.8125 
Q 12.203125 40.828125 9.5625 44.53125 
Q 6.9375 48.25 6.9375 53.421875 
Q 6.9375 61.234375 12.546875 66.546875 
Q 18.171875 71.875 27.484375 71.875 
Q 36.859375 71.875 42.578125 66.421875 
Q 48.296875 60.984375 48.296875 53.171875 
Q 48.296875 48.1875 45.671875 44.5 
Q 43.0625 40.828125 37.75 38.8125 
Q 44.34375 36.671875 47.78125 31.875 
Q 51.21875 27.09375 51.21875 20.453125 
Q 51.21875 11.28125 44.71875 5.03125 
Q 38.234375 -1.21875 27.640625 -1.21875 
Q 17.046875 -1.21875 10.546875 5.046875 
Q 4.046875 11.328125 4.046875 20.703125 
Q 4.046875 27.6875 7.59375 32.390625 
Q 11.140625 37.109375 17.671875 38.8125 
M 15.921875 53.71875 
Q 15.921875 48.640625 19.1875 45.40625 
Q 22.46875 42.1875 27.6875 42.1875 
Q 32.765625 42.1875 36.015625 45.375 
Q 39.265625 48.578125 39.265625 53.21875 
Q 39.265625 58.0625 35.90625 61.359375 
Q 32.5625 64.65625 27.59375 64.65625 
Q 22.5625 64.65625 19.234375 61.421875 
Q 15.921875 58.203125 15.921875 53.71875 
M 13.09375 20.65625 
Q 13.09375 16.890625 14.875 13.375 
Q 16.65625 9.859375 20.171875 7.921875 
Q 23.6875 6 27.734375 6 
Q 34.03125 6 38.125 10.046875 
Q 42.234375 14.109375 42.234375 20.359375 
Q 42.234375 26.703125 38.015625 30.859375 
Q 33.796875 35.015625 27.4375 35.015625 
Q 21.234375 35.015625 17.15625 30.90625 
Q 13.09375 26.8125 13.09375 20.65625 
" id="ArialMT-38"/>
      </defs>
      <g style="fill:#262626;" transform="translate(51.1 103.56515625)scale(0.1 -0.1)">
       <use xlink:href="#ArialMT-30"/>
       <use x="55.615234375" xlink:href="#ArialMT-2e"/>
       <use x="83.3984375" xlink:href="#ArialMT-38"/>
      </g>
     </g>
    </g>
    <g id="ytick_6">
     <g id="line2d_40">
      <path clip-path="url(#p3e5ad06eeb)" d="M 72 39.6 
L 518.4 39.6 
" style="fill:none;stroke:#ffffff;stroke-linecap:round;"/>
     </g>
     <g id="line2d_41"/>
     <g id="line2d_42"/>
     <g id="text_15">
      <!-- 1.0 -->
      <g style="fill:#262626;" transform="translate(51.1 42.18515625)scale(0.1 -0.1)">
       <use xlink:href="#ArialMT-31"/>
       <use x="55.615234375" xlink:href="#ArialMT-2e"/>
       <use x="83.3984375" xlink:href="#ArialMT-30"/>
      </g>
     </g>
    </g>
    <g id="text_16">
     <!-- absorbance -->
     <defs>
      <path d="M 14.703125 0 
L 6.546875 0 
L 6.546875 71.578125 
L 15.328125 71.578125 
L 15.328125 46.046875 
Q 20.90625 53.03125 29.546875 53.03125 
Q 34.328125 53.03125 38.59375 51.09375 
Q 42.875 49.171875 45.625 45.671875 
Q 48.390625 42.1875 49.953125 37.25 
Q 51.515625 32.328125 51.515625 26.703125 
Q 51.515625 13.375 44.921875 6.09375 
Q 38.328125 -1.171875 29.109375 -1.171875 
Q 19.921875 -1.171875 14.703125 6.5 
z
M 14.59375 26.3125 
Q 14.59375 17 17.140625 12.84375 
Q 21.296875 6.0625 28.375 6.0625 
Q 34.125 6.0625 38.328125 11.0625 
Q 42.53125 16.0625 42.53125 25.984375 
Q 42.53125 36.140625 38.5 40.96875 
Q 34.46875 45.796875 28.765625 45.796875 
Q 23 45.796875 18.796875 40.796875 
Q 14.59375 35.796875 14.59375 26.3125 
" id="ArialMT-62"/>
      <path d="M 40.4375 6.390625 
Q 35.546875 2.25 31.03125 0.53125 
Q 26.515625 -1.171875 21.34375 -1.171875 
Q 12.796875 -1.171875 8.203125 3 
Q 3.609375 7.171875 3.609375 13.671875 
Q 3.609375 17.484375 5.34375 20.625 
Q 7.078125 23.78125 9.890625 25.6875 
Q 12.703125 27.59375 16.21875 28.5625 
Q 18.796875 29.25 24.03125 29.890625 
Q 34.671875 31.15625 39.703125 32.90625 
Q 39.75 34.71875 39.75 35.203125 
Q 39.75 40.578125 37.25 42.78125 
Q 33.890625 45.75 27.25 45.75 
Q 21.046875 45.75 18.09375 43.578125 
Q 15.140625 41.40625 13.71875 35.890625 
L 5.125 37.0625 
Q 6.296875 42.578125 8.984375 45.96875 
Q 11.671875 49.359375 16.75 51.1875 
Q 21.828125 53.03125 28.515625 53.03125 
Q 35.15625 53.03125 39.296875 51.46875 
Q 43.453125 49.90625 45.40625 47.53125 
Q 47.359375 45.171875 48.140625 41.546875 
Q 48.578125 39.3125 48.578125 33.453125 
L 48.578125 21.734375 
Q 48.578125 9.46875 49.140625 6.21875 
Q 49.703125 2.984375 51.375 0 
L 42.1875 0 
Q 40.828125 2.734375 40.4375 6.390625 
M 39.703125 26.03125 
Q 34.90625 24.078125 25.34375 22.703125 
Q 19.921875 21.921875 17.671875 20.9375 
Q 15.4375 19.96875 14.203125 18.09375 
Q 12.984375 16.21875 12.984375 13.921875 
Q 12.984375 10.40625 15.640625 8.0625 
Q 18.3125 5.71875 23.4375 5.71875 
Q 28.515625 5.71875 32.46875 7.9375 
Q 36.421875 10.15625 38.28125 14.015625 
Q 39.703125 17 39.703125 22.796875 
z
" id="ArialMT-61"/>
      <path d="M 42.09375 16.703125 
L 51.171875 15.578125 
Q 49.03125 7.625 43.21875 3.21875 
Q 37.40625 -1.171875 28.375 -1.171875 
Q 17 -1.171875 10.328125 5.828125 
Q 3.65625 12.84375 3.65625 25.484375 
Q 3.65625 38.578125 10.390625 45.796875 
Q 17.140625 53.03125 27.875 53.03125 
Q 38.28125 53.03125 44.875 45.953125 
Q 51.46875 38.875 51.46875 26.03125 
Q 51.46875 25.25 51.421875 23.6875 
L 12.75 23.6875 
Q 13.234375 15.140625 17.578125 10.59375 
Q 21.921875 6.0625 28.421875 6.0625 
Q 33.25 6.0625 36.671875 8.59375 
Q 40.09375 11.140625 42.09375 16.703125 
M 13.234375 30.90625 
L 42.1875 30.90625 
Q 41.609375 37.453125 38.875 40.71875 
Q 34.671875 45.796875 27.984375 45.796875 
Q 21.921875 45.796875 17.796875 41.75 
Q 13.671875 37.703125 13.234375 30.90625 
" id="ArialMT-65"/>
      <path d="M 6.5 0 
L 6.5 51.859375 
L 14.40625 51.859375 
L 14.40625 44 
Q 17.4375 49.515625 20 51.265625 
Q 22.5625 53.03125 25.640625 53.03125 
Q 30.078125 53.03125 34.671875 50.203125 
L 31.640625 42.046875 
Q 28.421875 43.953125 25.203125 43.953125 
Q 22.3125 43.953125 20.015625 42.21875 
Q 17.71875 40.484375 16.75 37.40625 
Q 15.28125 32.71875 15.28125 27.15625 
L 15.28125 0 
z
" id="ArialMT-72"/>
      <path d="M 3.078125 15.484375 
L 11.765625 16.84375 
Q 12.5 11.625 15.84375 8.84375 
Q 19.1875 6.0625 25.203125 6.0625 
Q 31.25 6.0625 34.171875 8.515625 
Q 37.109375 10.984375 37.109375 14.3125 
Q 37.109375 17.28125 34.515625 19 
Q 32.71875 20.171875 25.53125 21.96875 
Q 15.875 24.421875 12.140625 26.203125 
Q 8.40625 27.984375 6.46875 31.125 
Q 4.546875 34.28125 4.546875 38.09375 
Q 4.546875 41.546875 6.125 44.5 
Q 7.71875 47.46875 10.453125 49.421875 
Q 12.5 50.921875 16.03125 51.96875 
Q 19.578125 53.03125 23.640625 53.03125 
Q 29.734375 53.03125 34.34375 51.265625 
Q 38.96875 49.515625 41.15625 46.5 
Q 43.359375 43.5 44.1875 38.484375 
L 35.59375 37.3125 
Q 35.015625 41.3125 32.203125 43.546875 
Q 29.390625 45.796875 24.265625 45.796875 
Q 18.21875 45.796875 15.625 43.796875 
Q 13.03125 41.796875 13.03125 39.109375 
Q 13.03125 37.40625 14.109375 36.03125 
Q 15.1875 34.625 17.484375 33.6875 
Q 18.796875 33.203125 25.25 31.453125 
Q 34.578125 28.953125 38.25 27.359375 
Q 41.9375 25.78125 44.03125 22.75 
Q 46.140625 19.734375 46.140625 15.234375 
Q 46.140625 10.84375 43.578125 6.953125 
Q 41.015625 3.078125 36.171875 0.953125 
Q 31.34375 -1.171875 25.25 -1.171875 
Q 15.140625 -1.171875 9.84375 3.03125 
Q 4.546875 7.234375 3.078125 15.484375 
" id="ArialMT-73"/>
      <path d="M 3.328125 25.921875 
Q 3.328125 40.328125 11.328125 47.265625 
Q 18.015625 53.03125 27.640625 53.03125 
Q 38.328125 53.03125 45.109375 46.015625 
Q 51.90625 39.015625 51.90625 26.65625 
Q 51.90625 16.65625 48.90625 10.90625 
Q 45.90625 5.171875 40.15625 2 
Q 34.421875 -1.171875 27.640625 -1.171875 
Q 16.75 -1.171875 10.03125 5.8125 
Q 3.328125 12.796875 3.328125 25.921875 
M 12.359375 25.921875 
Q 12.359375 15.96875 16.703125 11.015625 
Q 21.046875 6.0625 27.640625 6.0625 
Q 34.1875 6.0625 38.53125 11.03125 
Q 42.875 16.015625 42.875 26.21875 
Q 42.875 35.84375 38.5 40.796875 
Q 34.125 45.75 27.640625 45.75 
Q 21.046875 45.75 16.703125 40.8125 
Q 12.359375 35.890625 12.359375 25.921875 
" id="ArialMT-6f"/>
      <path d="M 6.59375 0 
L 6.59375 51.859375 
L 14.5 51.859375 
L 14.5 44.484375 
Q 20.21875 53.03125 31 53.03125 
Q 35.6875 53.03125 39.625 51.34375 
Q 43.5625 49.65625 45.515625 46.921875 
Q 47.46875 44.1875 48.25 40.4375 
Q 48.734375 37.984375 48.734375 31.890625 
L 48.734375 0 
L 39.9375 0 
L 39.9375 31.546875 
Q 39.9375 36.921875 38.90625 39.578125 
Q 37.890625 42.234375 35.28125 43.8125 
Q 32.671875 45.40625 29.15625 45.40625 
Q 23.53125 45.40625 19.453125 41.84375 
Q 15.375 38.28125 15.375 28.328125 
L 15.375 0 
z
" id="ArialMT-6e"/>
     </defs>
     <g style="fill:#262626;" transform="translate(43.91375 221.7909375)rotate(-90.0)scale(0.11 -0.11)">
      <use xlink:href="#ArialMT-61"/>
      <use x="55.615234375" xlink:href="#ArialMT-62"/>
      <use x="111.23046875" xlink:href="#ArialMT-73"/>
      <use x="161.23046875" xlink:href="#ArialMT-6f"/>
      <use x="216.845703125" xlink:href="#ArialMT-72"/>
      <use x="250.146484375" xlink:href="#ArialMT-62"/>
      <use x="305.76171875" xlink:href="#ArialMT-61"/>
      <use x="361.376953125" xlink:href="#ArialMT-6e"/>
      <use x="416.9921875" xlink:href="#ArialMT-63"/>
      <use x="466.9921875" xlink:href="#ArialMT-65"/>
     </g>
    </g>
   </g>
   <g id="line2d_43">
    <path clip-path="url(#p3e5ad06eeb)" d="M 505.666121 338.296799 
L 504.68149 342.532701 
L 503.698135 339.794108 
L 502.713504 326.796055 
L 501.730149 312.223046 
L 500.869234 303.068918 
L 499.147406 271.710638 
L 498.286491 260.045684 
L 497.425577 237.661575 
L 495.702473 217.63849 
L 494.841559 217.316499 
L 493.980645 224.351378 
L 493.11973 224.778017 
L 492.258816 215.841618 
L 491.397902 185.895242 
L 490.536987 142.912796 
L 489.676073 177.940011 
L 488.815159 261.454731 
L 487.954245 324.538029 
L 487.09333 341.260334 
L 486.108699 343.208264 
L 485.125344 343.75107 
L 484.140713 343.479287 
L 483.157358 342.095902 
L 482.172727 337.596911 
L 481.189371 336.595873 
L 480.204741 343.470693 
L 479.221385 344.388056 
L 478.114313 344.708139 
L 477.007241 341.701954 
L 476.02261 336.00291 
L 475.039255 327.60561 
L 474.054624 328.488109 
L 473.071269 334.571877 
L 472.086638 326.855233 
L 471.225723 309.027042 
L 470.364809 331.735049 
L 469.381454 345.437456 
L 468.150665 343.450431 
L 467.16731 340.090283 
L 466.182679 343.838348 
L 465.199323 340.077219 
L 464.214693 328.470422 
L 463.231337 322.189287 
L 462.246706 337.021837 
L 461.263351 339.629569 
L 460.27872 335.374934 
L 459.295365 328.025559 
L 458.310734 327.393012 
L 457.327378 331.255655 
L 456.342747 329.622523 
L 455.359392 324.443437 
L 454.374761 312.948987 
L 452.652933 265.422203 
L 451.792018 290.60829 
L 450.931104 300.811397 
L 450.07019 292.796466 
L 449.209275 291.177197 
L 448.348361 292.414727 
L 447.487447 287.601792 
L 446.626533 277.041534 
L 445.765618 261.733875 
L 444.04379 215.430624 
L 443.182875 202.370858 
L 442.321961 200.761097 
L 441.461047 214.428611 
L 440.598857 224.72912 
L 439.737943 224.301308 
L 438.877029 233.764553 
L 437.1552 267.49868 
L 436.294286 281.825006 
L 435.433371 292.456108 
L 434.572457 296.1883 
L 433.711543 288.148802 
L 432.850629 269.595059 
L 431.989714 261.621914 
L 431.1288 262.039206 
L 430.267886 242.040455 
L 429.406971 234.458146 
L 428.546057 244.855034 
L 427.685143 236.419603 
L 425.962039 188.368381 
L 425.101125 155.509988 
L 424.24021 131.995108 
L 423.379296 131.256234 
L 422.518382 136.731192 
L 421.657467 138.373714 
L 420.796553 146.247902 
L 419.935639 165.434193 
L 418.21381 229.041168 
L 417.352896 249.399127 
L 416.491982 263.685835 
L 415.631067 274.510833 
L 414.770153 282.8535 
L 413.909239 286.953875 
L 413.047049 280.403886 
L 412.186135 254.527775 
L 411.325221 249.124585 
L 410.464306 268.088029 
L 409.603392 270.690686 
L 408.742478 261.387707 
L 407.881563 250.291022 
L 407.020649 253.813677 
L 406.159735 260.793775 
L 405.298821 264.176049 
L 404.437906 262.879567 
L 403.576992 246.484493 
L 402.716078 223.126516 
L 401.855163 227.180417 
L 400.994249 256.104311 
L 400.133335 257.265808 
L 399.271145 246.590422 
L 398.410231 242.561178 
L 397.549317 236.159382 
L 396.688402 224.505274 
L 395.827488 217.823333 
L 394.966574 222.063936 
L 394.105659 232.88985 
L 393.244745 255.852645 
L 392.383831 250.973576 
L 391.522917 228.502906 
L 390.662002 195.885381 
L 389.801088 172.615353 
L 388.940174 144.421737 
L 388.079259 106.274977 
L 387.218345 87.313949 
L 386.357431 96.636067 
L 385.495241 135.865429 
L 382.912498 216.872592 
L 382.051584 235.443334 
L 381.19067 248.952582 
L 380.329755 256.999322 
L 379.468841 251.996569 
L 378.607927 233.67172 
L 377.747013 200.613858 
L 376.886098 157.895948 
L 376.025184 106.053056 
L 375.16427 66.770628 
L 374.425797 44.087768 
L 373.687323 55.042148 
L 372.950126 87.342018 
L 371.228297 181.13614 
L 370.367383 210.536654 
L 369.506469 233.933387 
L 368.645554 251.043039 
L 367.783365 259.440696 
L 366.92245 265.646274 
L 366.061536 254.533032 
L 364.339707 199.668166 
L 363.478793 210.554056 
L 362.617879 241.35306 
L 361.756965 266.924929 
L 360.89605 298.257859 
L 360.035136 321.504336 
L 359.174222 336.909684 
L 358.189591 342.5377 
L 357.206235 343.912979 
L 356.221605 344.021237 
L 355.238249 344.677918 
L 354.131177 343.713752 
L 353.146546 343.641851 
L 351.17856 344.068233 
L 349.210574 342.550491 
L 348.227218 343.4689 
L 347.242587 342.95385 
L 346.259232 344.176932 
L 345.15216 343.768808 
L 344.168805 342.97668 
L 343.184174 343.702823 
L 342.200818 343.418907 
L 341.216187 342.912181 
L 340.232832 342.964849 
L 338.264846 341.802425 
L 337.280215 341.654095 
L 336.296859 341.69698 
L 335.312229 340.544282 
L 334.328873 339.952932 
L 333.344242 340.245434 
L 332.360887 339.894176 
L 331.376256 340.107331 
L 330.392901 338.291778 
L 329.40827 338.118683 
L 328.424914 338.282394 
L 327.440283 339.906953 
L 326.456928 339.674871 
L 324.488942 338.981456 
L 323.504311 338.802648 
L 322.520955 337.573164 
L 321.536325 336.913014 
L 320.552969 337.550668 
L 319.568338 337.608153 
L 318.584983 337.096533 
L 317.600352 336.906649 
L 316.616997 337.008453 
L 315.632366 337.722631 
L 314.64901 336.861756 
L 313.664379 337.002682 
L 312.681024 337.298877 
L 311.696393 338.529897 
L 310.713038 340.191006 
L 309.728407 339.185137 
L 308.745051 338.928025 
L 307.760421 340.278821 
L 306.777065 334.233577 
L 305.792434 335.717391 
L 304.809079 336.441881 
L 303.824448 335.639016 
L 302.841093 336.005746 
L 301.856462 335.757481 
L 300.873106 335.711249 
L 298.90512 336.215362 
L 297.920489 335.708698 
L 296.937134 335.510494 
L 295.952503 335.0514 
L 294.969147 334.246745 
L 293.984517 333.031388 
L 293.001161 332.398451 
L 292.01653 332.402603 
L 291.033175 330.924868 
L 290.048544 325.873598 
L 289.065189 319.231159 
L 288.202999 308.166097 
L 287.342085 295.406943 
L 286.48117 275.509264 
L 285.620256 259.63205 
L 284.759342 251.667796 
L 283.898427 247.007035 
L 283.037513 267.184982 
L 282.176599 234.631841 
L 281.315685 212.709835 
L 280.45477 244.484339 
L 279.593856 290.254493 
L 278.732942 322.439136 
L 277.872027 337.092432 
L 276.887397 338.387009 
L 275.904041 338.130301 
L 274.91941 338.005193 
L 272.951424 337.488704 
L 271.968069 337.387075 
L 270.000082 336.548399 
L 267.047465 336.328736 
L 266.06411 336.1411 
L 265.079479 335.748399 
L 264.096123 335.649377 
L 263.111493 335.357761 
L 262.128137 335.203841 
L 261.143506 334.847259 
L 260.160151 334.664247 
L 259.17552 334.28451 
L 258.192165 334.186765 
L 252.288206 332.741748 
L 250.320219 332.769018 
L 248.352233 332.720397 
L 246.384247 332.828244 
L 244.416261 332.809315 
L 242.448274 333.525508 
L 241.463643 333.489776 
L 239.495657 332.712135 
L 238.512302 332.50722 
L 236.544315 331.642044 
L 234.576329 330.263152 
L 232.608343 328.670775 
L 231.623712 328.326706 
L 228.67237 326.45184 
L 226.704384 324.669776 
L 224.736398 321.83133 
L 223.751767 320.114428 
L 221.907497 316.25499 
L 221.046583 313.581777 
L 220.185669 307.238389 
L 219.323479 293.700888 
L 218.462565 278.073681 
L 217.60165 273.468347 
L 216.740736 277.197708 
L 215.879822 281.779267 
L 215.018907 289.556945 
L 214.157993 293.344222 
L 213.297079 290.190939 
L 211.57525 272.68663 
L 210.714336 264.148519 
L 208.992507 242.771131 
L 208.131593 242.033186 
L 207.270679 253.775265 
L 205.547575 282.104772 
L 203.825746 298.148237 
L 202.964832 305.966068 
L 202.103918 311.666727 
L 201.243003 315.462362 
L 200.382089 317.346239 
L 199.521175 317.438877 
L 198.660261 317.26164 
L 197.799346 316.707644 
L 196.938432 315.492004 
L 196.077518 313.807275 
L 195.216603 311.550593 
L 194.355689 308.813143 
L 193.494775 304.90829 
L 192.633861 301.785285 
L 191.771671 300.127504 
L 190.910757 299.635129 
L 190.049842 299.576131 
L 189.188928 300.237077 
L 187.467099 302.597022 
L 185.745271 305.913617 
L 184.884357 307.03854 
L 184.023442 307.081844 
L 183.162528 306.615466 
L 182.301614 305.961579 
L 180.579785 303.416941 
L 178.857957 298.890426 
L 177.134853 292.967647 
L 175.413024 287.87408 
L 174.55211 285.573965 
L 173.691195 283.811943 
L 171.969367 279.487167 
L 170.247538 273.120873 
L 169.386624 268.395076 
L 168.52571 263.010742 
L 166.803881 249.712778 
L 165.082053 235.645668 
L 162.498034 210.707799 
L 161.63712 209.334459 
L 160.776206 218.007328 
L 159.054377 249.784838 
L 158.193463 262.178518 
L 157.332549 271.118031 
L 156.471634 277.943276 
L 155.61072 283.069149 
L 154.749806 286.999641 
L 153.027977 292.723169 
L 151.306149 296.060294 
L 150.443959 297.411229 
L 148.72213 299.54428 
L 147.861216 300.261351 
L 147.000302 300.678913 
L 146.139387 300.847811 
L 145.278473 302.051358 
L 143.556645 303.737181 
L 141.834816 306.319624 
L 140.973902 307.264689 
L 140.112987 308.588327 
L 138.391159 309.910416 
L 137.530245 311.296454 
L 136.668055 312.014386 
L 135.807141 312.518637 
L 134.946226 314.248421 
L 134.085312 315.657763 
L 133.224398 316.081534 
L 132.363483 317.555231 
L 131.502569 319.399035 
L 130.519214 320.163415 
L 129.534583 322.298602 
L 128.551227 323.574754 
L 127.566597 324.034188 
L 126.583241 327.291772 
L 125.59861 327.334064 
L 124.615255 326.939572 
L 123.630624 327.479911 
L 121.662638 330.921636 
L 119.694651 330.532121 
L 118.711296 335.165608 
L 117.726665 336.016777 
L 116.74331 337.829198 
L 115.758679 340.833704 
L 114.775323 340.076632 
L 113.790693 338.910758 
L 112.807337 340.796363 
L 111.822706 337.989904 
L 110.839351 338.561442 
L 109.85472 337.759018 
L 108.871365 340.004739 
L 107.886734 336.312465 
L 106.903378 334.194282 
L 105.918747 336.082572 
L 104.935392 339.093445 
L 103.950761 340.561156 
L 102.967406 342.607431 
L 101.982775 342.682754 
L 100.999419 343.865371 
L 100.014789 343.722581 
L 99.031433 343.972496 
L 98.046802 342.086195 
L 97.063447 343.09527 
L 96.078816 342.657752 
L 95.095461 341.565645 
L 94.11083 343.058542 
L 93.127474 341.227257 
L 92.142843 343.066269 
L 91.159488 341.725605 
L 90.174857 342.613081 
L 89.191502 341.904545 
L 88.206871 343.350936 
L 87.223515 342.845619 
L 86.238885 343.04926 
L 85.255529 342.088428 
L 84.270898 343.215245 
L 83.287543 343.671503 
L 81.319557 343.133399 
L 80.334926 343.94959 
L 79.35157 343.481988 
L 77.383584 344.147631 
L 76.276512 344.014668 
L 75.16944 344.040705 
L 74.062368 344.250029 
L 72.955296 344.126753 
L 72.955296 344.126753 
" style="fill:none;stroke:#4c72b0;stroke-linecap:round;stroke-width:1.75;"/>
   </g>
   <g id="line2d_44">
    <path clip-path="url(#p3e5ad06eeb)" d="M 505.666121 340.611179 
L 504.68149 345.008115 
L 503.574418 341.693194 
L 502.591063 331.509622 
L 501.606432 323.749955 
L 500.623077 313.694413 
L 498.901248 292.221946 
L 498.040334 283.051806 
L 497.179419 267.860195 
L 496.318505 263.260896 
L 495.457591 259.48949 
L 494.596677 263.568277 
L 492.873573 285.626301 
L 492.012658 292.669377 
L 491.151744 294.488438 
L 490.29083 293.774564 
L 489.429915 298.997718 
L 488.569001 315.182005 
L 487.708087 326.72934 
L 486.724731 330.566417 
L 484.756745 336.749747 
L 483.772114 339.355124 
L 482.788759 341.134452 
L 481.804128 341.998213 
L 480.820773 342.638442 
L 479.836142 344.654785 
L 478.72907 346.151318 
L 477.499557 346.24051 
L 476.268768 345.631394 
L 475.161696 345.568472 
L 472.948827 345.932153 
L 471.841755 345.241032 
L 470.734683 344.966838 
L 469.627611 345.268428 
L 468.520539 344.129161 
L 467.535909 339.775248 
L 466.552553 339.598683 
L 465.567922 338.761308 
L 464.584567 332.14702 
L 463.599936 322.584714 
L 462.616581 332.973263 
L 461.63195 341.772067 
L 460.648594 343.942464 
L 459.663963 344.496004 
L 458.556891 344.052714 
L 457.573536 342.520986 
L 455.60555 337.762826 
L 454.620919 334.085796 
L 453.637563 329.662787 
L 452.652933 328.008836 
L 451.669577 325.175154 
L 450.684946 320.167564 
L 449.701591 317.795281 
L 448.840677 317.587254 
L 447.979762 316.210548 
L 447.118848 313.997964 
L 446.257934 313.284823 
L 445.397019 313.150376 
L 442.813001 311.337542 
L 441.952087 310.919579 
L 441.091173 310.719286 
L 440.230258 309.826507 
L 439.369344 307.746296 
L 438.50843 305.175673 
L 437.647515 299.231568 
L 436.786601 296.253039 
L 435.925687 297.314224 
L 435.064773 300.722893 
L 434.203858 299.221748 
L 433.342944 290.649416 
L 432.48203 278.144484 
L 431.621115 275.772572 
L 430.758926 271.852653 
L 429.898011 257.98471 
L 428.176183 279.258602 
L 427.315269 277.601618 
L 426.454354 270.490348 
L 424.732526 261.194488 
L 423.871611 259.436776 
L 423.010697 258.249583 
L 422.149783 255.358364 
L 420.427954 242.433735 
L 419.56704 248.570653 
L 418.706126 265.969054 
L 417.845211 276.243185 
L 416.983022 279.468421 
L 416.122107 281.323869 
L 415.261193 284.632817 
L 414.400279 287.376823 
L 413.539365 287.790984 
L 412.67845 286.212791 
L 411.817536 282.858653 
L 410.956622 280.249295 
L 410.095707 275.63331 
L 409.234793 269.004104 
L 408.373879 260.579207 
L 407.512965 256.665335 
L 406.65205 262.75462 
L 404.930222 271.926605 
L 404.069307 274.143639 
L 403.207118 268.727311 
L 402.346203 249.566708 
L 401.485289 246.348469 
L 400.624375 258.679604 
L 398.902546 248.518416 
L 398.041632 247.148013 
L 397.180718 241.324017 
L 396.319803 230.361724 
L 395.458889 231.153905 
L 394.597975 237.130119 
L 393.737061 252.906179 
L 392.876146 260.912779 
L 392.015232 246.881794 
L 391.154318 224.169606 
L 389.431214 165.338805 
L 387.709385 95.31992 
L 386.848471 85.788414 
L 385.987557 108.362641 
L 385.126642 143.877031 
L 384.265728 169.721816 
L 383.404814 204.773837 
L 381.682985 246.333818 
L 380.822071 258.392201 
L 379.961157 258.817095 
L 379.100242 248.282076 
L 378.239328 224.870397 
L 377.378414 187.530019 
L 375.65531 87.595576 
L 374.794395 53.083123 
L 374.057198 43.689738 
L 373.318725 75.716344 
L 372.45781 120.108343 
L 371.596896 172.07684 
L 370.735982 212.244341 
L 369.875067 245.411148 
L 369.014153 272.471381 
L 367.292325 306.799741 
L 365.570496 325.586293 
L 364.585865 331.164591 
L 363.60251 333.442493 
L 362.617879 336.597037 
L 361.634523 337.223038 
L 359.666537 341.067213 
L 358.681906 344.081549 
L 357.698551 345.307804 
L 356.591479 345.434171 
L 355.484407 345.761281 
L 354.377335 345.458263 
L 353.270263 345.320536 
L 351.056119 345.458093 
L 349.949047 344.856321 
L 348.841975 345.039351 
L 347.734903 344.8432 
L 346.627831 345.051519 
L 345.520759 344.910657 
L 344.413687 344.476292 
L 343.306615 344.704667 
L 342.200818 344.473785 
L 341.093746 344.364136 
L 339.986674 344.453589 
L 338.879602 344.198585 
L 337.77253 344.117058 
L 336.665458 344.386709 
L 334.451314 343.786242 
L 333.466683 344.17538 
L 332.360887 343.983842 
L 331.253815 343.417268 
L 330.269184 341.660242 
L 329.285829 341.627518 
L 328.301198 342.00253 
L 327.317842 342.956908 
L 324.365225 342.183686 
L 322.397239 340.985029 
L 321.413883 340.373569 
L 320.429253 341.153707 
L 319.445897 341.099795 
L 318.461266 340.850825 
L 317.477911 340.797854 
L 316.49328 341.020552 
L 315.509925 341.4123 
L 314.525294 340.829464 
L 313.541938 340.771907 
L 312.557307 341.224037 
L 311.573952 342.297281 
L 310.589321 343.187471 
L 309.605966 342.551659 
L 308.621335 342.503321 
L 307.637979 343.069605 
L 306.653349 338.337509 
L 305.669993 339.857581 
L 304.685362 340.116578 
L 303.702007 339.466749 
L 302.717376 339.673314 
L 301.734021 340.021057 
L 300.74939 339.873341 
L 298.781403 340.078627 
L 297.798048 339.857319 
L 295.830062 339.726215 
L 292.877445 338.132315 
L 291.894089 338.117551 
L 290.909458 336.956804 
L 289.926103 334.407001 
L 288.941472 330.640092 
L 286.973486 316.154834 
L 286.112571 305.699796 
L 285.251657 300.519212 
L 284.390743 296.838987 
L 282.668914 303.105563 
L 281.808 281.842589 
L 280.947086 283.862541 
L 279.225257 326.553904 
L 278.240626 339.068785 
L 277.257271 341.318864 
L 276.27264 341.208542 
L 275.289285 340.868349 
L 271.353312 339.943986 
L 270.368681 339.632739 
L 269.385326 339.448801 
L 268.400695 339.486794 
L 263.481367 338.689761 
L 262.496736 338.452699 
L 260.52875 338.139159 
L 256.592777 337.20361 
L 250.688818 335.77717 
L 249.705463 335.65679 
L 247.737477 335.538943 
L 243.801504 335.369844 
L 242.816873 335.696318 
L 241.833518 335.69936 
L 236.912914 334.15029 
L 234.944928 332.972831 
L 232.976942 331.591036 
L 231.008955 330.563251 
L 229.040969 329.436903 
L 227.072983 327.948286 
L 226.089627 326.850541 
L 224.121641 324.035267 
L 222.153655 320.018393 
L 221.169024 317.60085 
L 220.30811 312.216546 
L 219.447195 299.909487 
L 218.586281 284.534586 
L 217.725367 278.873978 
L 216.864453 282.123934 
L 216.003538 286.472902 
L 215.142624 293.520434 
L 214.28171 297.902553 
L 213.41952 295.643605 
L 212.558606 288.622563 
L 210.836777 270.500164 
L 209.975863 258.639281 
L 209.114949 248.75555 
L 208.254034 247.533456 
L 207.39312 258.59538 
L 205.671291 286.699052 
L 204.810377 296.397344 
L 203.088549 311.034871 
L 202.227634 316.020676 
L 201.36672 319.350962 
L 200.382089 321.057053 
L 199.398734 321.057222 
L 198.414103 320.551076 
L 197.430747 319.298803 
L 196.446117 317.590198 
L 195.585202 315.717274 
L 194.724288 313.458362 
L 193.002459 307.682537 
L 192.141545 305.375747 
L 191.280631 304.40399 
L 190.419717 303.854326 
L 189.558802 304.156005 
L 188.697888 304.901696 
L 187.835698 305.900475 
L 186.11387 309.110992 
L 185.252955 310.200002 
L 184.392041 310.555899 
L 183.531127 310.303324 
L 182.670213 309.687988 
L 181.809298 308.685927 
L 180.948384 307.274791 
L 180.08747 305.534372 
L 179.226555 303.20641 
L 175.782898 292.734237 
L 174.921984 290.438554 
L 172.337966 284.412589 
L 171.477051 281.800129 
L 170.616137 278.595258 
L 169.755223 274.481702 
L 168.033394 263.573561 
L 165.450651 243.351178 
L 162.867909 220.796896 
L 162.006994 217.405967 
L 161.14608 221.826565 
L 160.28389 234.23713 
L 159.422976 249.104474 
L 158.562062 261.879469 
L 157.701147 271.381878 
L 156.840233 278.709721 
L 155.979319 284.264333 
L 155.118405 288.62239 
L 154.25749 291.915627 
L 153.396576 294.706121 
L 152.535662 296.985112 
L 151.674747 298.767036 
L 150.813833 300.262246 
L 149.092005 302.582755 
L 143.925243 308.227795 
L 143.064329 309.024794 
L 142.203415 310.139022 
L 140.481586 311.756376 
L 139.620672 312.610122 
L 138.759758 313.264094 
L 137.037929 315.322568 
L 136.177015 316.161999 
L 135.316101 317.246351 
L 134.455186 318.825217 
L 133.470555 320.097586 
L 132.4872 321.577125 
L 131.502569 323.373847 
L 130.519214 324.560062 
L 129.534583 326.440687 
L 128.551227 327.882441 
L 127.566597 328.943527 
L 126.583241 330.928176 
L 125.59861 331.679766 
L 124.615255 332.139133 
L 123.630624 333.051387 
L 121.662638 335.957992 
L 119.694651 336.853984 
L 118.711296 339.541354 
L 116.74331 341.536071 
L 115.758679 342.985199 
L 114.775323 342.926086 
L 113.790693 342.752459 
L 112.807337 343.556058 
L 111.822706 342.546427 
L 110.839351 342.707574 
L 109.85472 342.377733 
L 108.871365 343.435295 
L 107.886734 341.765471 
L 106.903378 340.759827 
L 105.918747 341.87738 
L 104.935392 343.327105 
L 103.950761 343.832219 
L 102.967406 344.879867 
L 99.64619 345.417045 
L 98.539118 345.04307 
L 97.432046 344.809161 
L 96.324974 345.106465 
L 95.217902 344.488105 
L 94.11083 344.937538 
L 93.003758 344.321842 
L 91.896686 344.983073 
L 89.682542 344.668568 
L 88.57547 344.908218 
L 86.362601 345.022837 
L 85.255529 344.639044 
L 84.148457 345.291691 
L 83.041385 345.168617 
L 81.934313 345.167798 
L 79.720169 345.324367 
L 74.184809 345.580006 
L 73.077737 345.514746 
L 73.077737 345.514746 
" style="fill:none;stroke:#55a868;stroke-linecap:round;stroke-width:1.75;"/>
   </g>
   <g id="line2d_45">
    <path clip-path="url(#p3e5ad06eeb)" d="M 505.666121 343.647835 
L 504.68149 345.320829 
L 503.451977 342.860382 
L 502.468622 329.870839 
L 501.483991 321.524923 
L 500.500635 310.973137 
L 499.638446 299.401791 
L 498.777531 290.536898 
L 497.916617 283.653859 
L 497.055703 268.818386 
L 496.194789 267.232533 
L 495.333874 264.618008 
L 494.47296 270.777936 
L 492.751131 295.034073 
L 491.890217 303.421201 
L 491.029303 307.170698 
L 490.168389 308.742525 
L 489.307474 313.287569 
L 488.44656 325.070688 
L 487.461929 331.285819 
L 486.478574 333.747495 
L 485.493943 337.176491 
L 484.510587 339.673984 
L 482.542601 342.324392 
L 481.55797 342.447063 
L 480.574615 343.017715 
L 479.589984 344.163496 
L 478.482912 345.864223 
L 477.37584 344.594143 
L 476.268768 344.147253 
L 475.161696 344.694472 
L 474.054624 344.919279 
L 472.948827 345.257864 
L 471.841755 344.699027 
L 470.734683 344.47724 
L 469.627611 344.528573 
L 468.520539 343.849756 
L 467.535909 340.980659 
L 466.552553 341.074892 
L 465.567922 339.943041 
L 464.584567 334.657771 
L 463.599936 326.856151 
L 462.616581 336.22523 
L 461.63195 343.256293 
L 460.648594 344.811596 
L 459.541522 344.516159 
L 458.43445 343.098368 
L 457.449819 340.921861 
L 456.466464 338.3999 
L 455.481833 335.531912 
L 453.513847 327.285748 
L 449.824032 307.727245 
L 448.963118 308.977603 
L 448.102203 309.876168 
L 446.380375 306.082912 
L 444.658546 305.033862 
L 443.797632 305.789354 
L 442.936718 306.809255 
L 442.075803 307.001518 
L 441.214889 306.462652 
L 440.353975 305.129696 
L 439.493061 303.096884 
L 438.630871 301.834089 
L 436.909042 293.677529 
L 436.048128 291.919716 
L 435.187214 291.717256 
L 434.326299 289.208272 
L 433.465385 281.954239 
L 432.604471 272.327357 
L 431.743557 269.576227 
L 430.882642 267.86108 
L 430.021728 255.83178 
L 429.160814 259.823995 
L 428.299899 268.364188 
L 427.438985 266.262828 
L 426.578071 258.98989 
L 425.717157 254.548409 
L 424.854967 250.694425 
L 423.994053 250.318747 
L 423.133138 252.135918 
L 422.272224 253.350783 
L 421.41131 250.99605 
L 420.550395 246.723024 
L 419.689481 249.575835 
L 418.828567 262.265382 
L 417.967653 270.833495 
L 417.106738 273.134964 
L 416.245824 273.850322 
L 414.523995 278.147914 
L 413.663081 279.560796 
L 412.802167 278.756864 
L 411.941253 275.870455 
L 411.079063 274.138665 
L 410.218149 270.979807 
L 409.357234 265.989666 
L 408.49632 258.579862 
L 407.635406 253.102366 
L 406.774491 255.084532 
L 405.913577 256.07519 
L 404.191749 259.540732 
L 403.330834 258.211313 
L 402.46992 246.711699 
L 401.609006 240.62095 
L 400.748091 251.67156 
L 399.887177 246.787679 
L 399.026263 238.473584 
L 398.165349 234.937556 
L 397.303159 230.295234 
L 396.442245 224.542088 
L 395.58133 225.459705 
L 394.720416 229.519674 
L 393.859502 242.340877 
L 392.998587 246.374174 
L 392.137673 228.338826 
L 390.415845 173.888499 
L 389.55493 144.80823 
L 387.833102 94.612329 
L 386.972187 85.167381 
L 386.111273 98.672464 
L 385.250359 132.894462 
L 384.389445 158.742671 
L 383.527255 191.39001 
L 382.666341 215.191119 
L 381.805426 233.5124 
L 380.944512 245.21972 
L 380.083598 245.109943 
L 379.222683 233.319426 
L 378.361769 209.784959 
L 377.500855 172.577137 
L 375.779026 78.944791 
L 374.918112 49.560791 
L 374.179639 41.178869 
L 373.442441 64.850117 
L 372.581527 97.230006 
L 370.858423 181.397215 
L 369.997509 214.297849 
L 369.136594 242.916913 
L 367.414766 284.793831 
L 365.692937 316.959973 
L 364.832023 330.537684 
L 362.864037 339.749399 
L 361.879406 339.686795 
L 360.89605 340.460797 
L 359.911419 340.921887 
L 358.928064 343.303133 
L 357.943433 344.302362 
L 356.837637 343.675259 
L 355.853006 344.444179 
L 354.745934 344.446588 
L 353.762578 343.522618 
L 351.794592 344.153285 
L 350.68752 344.44663 
L 349.702889 343.019476 
L 348.719534 343.549715 
L 347.734903 343.076299 
L 345.766917 343.392995 
L 344.783561 342.591555 
L 343.79893 342.547846 
L 342.815575 342.695212 
L 340.847589 342.148958 
L 339.862958 342.368429 
L 338.879602 341.891272 
L 337.894971 341.543891 
L 335.926985 342.02061 
L 334.94363 341.17219 
L 332.975643 341.431977 
L 331.991013 340.743228 
L 331.007657 340.212614 
L 330.023026 338.291554 
L 329.039671 338.470084 
L 328.05504 338.899033 
L 327.071685 339.680151 
L 325.103698 339.035125 
L 324.119067 338.827947 
L 323.135712 337.730087 
L 322.151081 337.505658 
L 321.167726 336.524782 
L 320.183095 338.087809 
L 319.199739 337.880508 
L 318.215109 337.398421 
L 317.231753 337.398283 
L 315.263767 338.192966 
L 314.279136 337.517837 
L 313.295781 337.618998 
L 312.31115 338.347331 
L 311.327794 339.738896 
L 310.343163 339.976891 
L 309.359808 339.507343 
L 308.375177 339.638134 
L 307.391822 338.443068 
L 306.407191 334.9043 
L 305.423835 336.85168 
L 304.439205 337.069418 
L 303.455849 336.581637 
L 302.471218 336.778461 
L 301.487863 336.638671 
L 300.503232 336.859939 
L 299.519877 336.858626 
L 298.535246 337.326846 
L 296.567259 336.704055 
L 295.583904 336.473207 
L 294.599273 335.923074 
L 293.615918 335.031531 
L 292.631287 334.5246 
L 291.647931 334.330168 
L 290.663301 332.282718 
L 289.679945 327.838353 
L 288.695314 322.343049 
L 286.973486 303.086416 
L 286.112571 288.563187 
L 285.251657 280.745319 
L 284.390743 276.148625 
L 283.529829 279.851415 
L 282.668914 284.716843 
L 281.808 254.733525 
L 280.947086 257.438295 
L 279.225257 316.140442 
L 278.363067 334.429675 
L 277.379712 338.972393 
L 276.395081 338.809179 
L 275.411726 338.467968 
L 274.427095 338.350825 
L 273.443739 337.897312 
L 272.459109 337.869151 
L 270.491122 336.984926 
L 269.507767 336.791382 
L 268.523136 336.899473 
L 266.55515 336.601892 
L 265.571794 336.526671 
L 264.587163 336.091962 
L 263.603808 336.013694 
L 257.699849 334.805583 
L 256.715218 334.347741 
L 255.731863 334.291818 
L 253.763877 333.848888 
L 252.779246 333.423086 
L 250.811259 332.804297 
L 248.843273 332.69257 
L 247.859918 332.457259 
L 246.875287 332.440769 
L 245.891931 332.539165 
L 244.907301 332.411835 
L 243.923945 332.554128 
L 242.939314 332.911055 
L 241.955959 333.055732 
L 239.987973 332.295228 
L 237.035355 331.31366 
L 231.131397 327.309872 
L 228.180055 325.385996 
L 227.195424 324.521953 
L 226.212069 323.485483 
L 224.244082 321.043297 
L 221.415182 316.121584 
L 220.554267 313.159959 
L 219.693353 305.682203 
L 218.832439 294.083916 
L 217.971525 286.722696 
L 217.11061 287.079618 
L 216.249696 288.669096 
L 215.387506 292.777606 
L 214.526592 297.81022 
L 213.665678 297.885811 
L 212.804763 293.51042 
L 211.082935 280.396542 
L 209.361106 263.353182 
L 208.500192 258.913688 
L 207.639278 264.340422 
L 205.917449 284.681961 
L 205.056535 291.727483 
L 202.473792 308.176863 
L 201.611602 311.452088 
L 200.750688 313.768011 
L 199.889774 314.37593 
L 199.028859 313.789494 
L 198.167945 313.05501 
L 197.307031 311.361426 
L 194.724288 304.567647 
L 193.002459 298.675159 
L 192.141545 296.340819 
L 191.280631 295.609165 
L 190.419717 295.307875 
L 189.558802 295.79998 
L 187.835698 297.385461 
L 186.11387 300.08984 
L 185.252955 300.74637 
L 184.392041 300.775017 
L 183.531127 300.087425 
L 182.670213 298.951477 
L 181.809298 297.570411 
L 180.948384 295.812745 
L 180.08747 293.587503 
L 179.226555 290.922186 
L 176.643813 281.496842 
L 174.921984 275.904672 
L 172.337966 269.066241 
L 170.616137 263.137758 
L 169.755223 259.415384 
L 168.033394 249.324114 
L 165.450651 231.539151 
L 162.867909 213.693755 
L 162.006994 210.865742 
L 161.14608 215.525476 
L 160.28389 227.01701 
L 159.422976 240.454385 
L 158.562062 251.588373 
L 157.701147 259.675493 
L 156.840233 266.074771 
L 155.979319 270.826909 
L 155.118405 274.668095 
L 153.396576 280.244238 
L 152.535662 282.620388 
L 151.674747 284.514672 
L 148.23109 290.000189 
L 147.370176 291.223078 
L 146.507986 292.19287 
L 144.786158 295.215455 
L 143.064329 297.122993 
L 142.203415 298.894548 
L 141.342501 299.583566 
L 140.481586 300.846939 
L 138.759758 302.632821 
L 137.037929 305.499141 
L 136.177015 306.325314 
L 135.316101 307.748251 
L 134.455186 309.663513 
L 133.594272 310.864717 
L 132.732082 311.727831 
L 131.871168 314.044958 
L 131.010254 315.775308 
L 130.149339 316.669389 
L 129.288425 319.364305 
L 128.30507 320.491921 
L 127.320439 322.109297 
L 126.337083 324.995275 
L 125.352453 325.126727 
L 124.369097 325.966964 
L 123.384466 327.435886 
L 122.401111 329.3219 
L 121.41648 330.835604 
L 120.433125 331.419549 
L 119.448494 332.698156 
L 118.465138 336.826512 
L 117.480507 336.424379 
L 116.497152 339.514846 
L 115.512521 341.663824 
L 114.529166 340.142358 
L 113.544535 340.335338 
L 112.561179 341.366868 
L 111.576549 339.880106 
L 110.593193 340.454966 
L 109.608562 339.602699 
L 108.625207 341.576099 
L 107.640576 337.84333 
L 106.657221 336.919376 
L 105.67259 339.074263 
L 104.689234 340.112815 
L 102.721248 343.454954 
L 101.736617 343.76684 
L 100.753262 344.316659 
L 99.64619 344.391984 
L 98.539118 343.776692 
L 97.554487 342.639043 
L 96.571131 344.062447 
L 95.586501 342.110918 
L 94.603145 342.985576 
L 92.635159 342.408308 
L 91.650528 342.936195 
L 90.667173 342.981867 
L 89.682542 342.652528 
L 88.699186 342.736494 
L 87.714555 343.338425 
L 86.7312 343.030417 
L 85.746569 343.544945 
L 84.763214 342.437528 
L 83.778583 344.434047 
L 82.671511 343.602536 
L 81.688155 343.482866 
L 80.703525 343.901299 
L 76.398953 344.384345 
L 75.291881 344.247029 
L 74.184809 344.546801 
L 73.077737 344.472318 
L 73.077737 344.472318 
" style="fill:none;stroke:#c44e52;stroke-linecap:round;stroke-width:1.75;"/>
   </g>
   <g id="line2d_46">
    <path clip-path="url(#p3e5ad06eeb)" d="M 505.666121 339.423831 
L 504.68149 344.335239 
L 503.698135 342.436525 
L 501.730149 319.37664 
L 500.869234 311.662532 
L 499.147406 283.809664 
L 498.286491 273.128869 
L 497.425577 257.337191 
L 496.564663 247.73417 
L 495.702473 240.292853 
L 494.841559 239.753331 
L 493.980645 246.561677 
L 493.11973 250.729355 
L 492.258816 249.296293 
L 491.397902 232.877029 
L 490.536987 206.087477 
L 489.676073 228.891318 
L 488.815159 287.327157 
L 487.954245 331.88243 
L 486.969614 341.35932 
L 485.986258 342.272532 
L 484.018272 343.500745 
L 483.033641 343.151495 
L 482.050286 340.63213 
L 481.065655 341.454379 
L 480.082299 345.126981 
L 478.975227 346.173473 
L 477.745714 345.860328 
L 476.638642 342.812575 
L 474.670656 334.959258 
L 473.686025 339.494305 
L 472.70267 341.206508 
L 471.718039 329.390261 
L 470.734683 333.258437 
L 469.750053 344.686698 
L 468.766697 345.168451 
L 467.659625 341.235212 
L 466.674994 341.714493 
L 465.691639 342.606727 
L 464.707008 336.151791 
L 463.723653 324.651548 
L 462.739022 330.879876 
L 461.755666 339.020536 
L 460.771035 338.57089 
L 459.78768 334.741606 
L 458.803049 331.552967 
L 457.819694 333.717031 
L 456.835063 333.221831 
L 455.851707 329.471421 
L 454.867077 322.135184 
L 453.883721 307.034991 
L 453.022807 287.907595 
L 452.161893 294.932617 
L 451.300978 308.059962 
L 450.438789 300.601512 
L 449.577874 295.88466 
L 448.71696 297.10465 
L 447.856046 295.378837 
L 446.995131 288.458768 
L 446.134217 279.622693 
L 444.412389 252.68033 
L 443.551474 244.114805 
L 442.69056 240.566727 
L 441.829646 246.552072 
L 440.968731 256.338913 
L 440.107817 257.368883 
L 439.246903 260.437013 
L 438.385989 271.25785 
L 436.662885 288.04028 
L 435.80197 294.213596 
L 434.941056 298.609636 
L 434.080142 295.27229 
L 432.358313 270.123961 
L 431.497399 270.312542 
L 430.636485 263.878859 
L 429.77557 246.490261 
L 428.914656 249.856873 
L 428.053742 249.596193 
L 427.192827 237.338713 
L 424.610085 185.272754 
L 423.74917 183.351849 
L 422.886981 189.759794 
L 422.026066 193.536596 
L 421.165152 196.757762 
L 420.304238 204.236033 
L 419.443323 220.666837 
L 418.582409 242.764671 
L 417.721495 258.600611 
L 416.860581 269.22681 
L 415.138752 283.124982 
L 414.277838 287.90773 
L 413.416923 287.540637 
L 411.695095 261.233047 
L 410.834181 271.290185 
L 409.973266 276.242238 
L 409.111077 271.381673 
L 408.250162 261.541571 
L 407.389248 257.02061 
L 406.528334 262.086035 
L 405.667419 264.62633 
L 404.806505 266.689032 
L 403.945591 261.592998 
L 403.084677 244.605965 
L 402.223762 232.945732 
L 401.362848 248.616672 
L 400.501934 260.890739 
L 399.641019 253.11221 
L 398.780105 247.107146 
L 397.919191 243.908468 
L 396.197362 228.251979 
L 395.335173 230.955202 
L 394.474258 235.560347 
L 393.613344 256.65422 
L 392.75243 261.089104 
L 391.891515 245.384677 
L 390.169687 191.486822 
L 389.308773 169.505929 
L 387.586944 108.94296 
L 386.72603 99.088463 
L 385.865115 120.174367 
L 385.004201 148.791978 
L 384.143287 171.809085 
L 383.282373 205.851543 
L 382.421458 225.152425 
L 381.559269 240.888887 
L 380.698354 251.458285 
L 379.83744 250.607277 
L 378.976526 236.728074 
L 378.115611 209.108748 
L 377.254697 168.797342 
L 375.532869 74.337218 
L 374.671954 47.068375 
L 373.933481 47.414866 
L 372.335369 118.971407 
L 371.474455 166.813575 
L 370.613541 200.058621 
L 369.751351 228.125743 
L 368.890437 251.222555 
L 367.168608 277.624044 
L 366.307694 279.997479 
L 365.446779 272.374803 
L 364.585865 256.216181 
L 363.724951 254.825604 
L 362.864037 274.840702 
L 362.003122 291.140745 
L 360.281294 328.268697 
L 359.296663 339.938942 
L 358.313307 344.417881 
L 357.328677 345.660199 
L 356.221605 345.740462 
L 355.114533 346.218317 
L 354.007461 345.614578 
L 350.68752 345.569773 
L 349.580448 344.714889 
L 348.473376 345.362851 
L 347.366304 344.93659 
L 346.259232 345.756156 
L 345.15216 345.234505 
L 344.045088 345.002333 
L 342.938016 345.216145 
L 341.830944 344.77927 
L 339.6168 344.39057 
L 338.509728 344.137275 
L 337.402656 343.690205 
L 336.419301 344.030431 
L 335.312229 343.045916 
L 334.328873 342.787229 
L 332.360887 343.283718 
L 331.376256 342.945259 
L 330.392901 341.399244 
L 329.40827 340.976049 
L 328.424914 341.050014 
L 327.440283 342.213591 
L 326.456928 342.540193 
L 325.472297 342.127151 
L 324.488942 342.261403 
L 323.504311 341.796365 
L 321.536325 339.951731 
L 320.552969 340.677692 
L 319.568338 340.764256 
L 318.584983 339.967818 
L 316.616997 339.804809 
L 315.632366 340.59634 
L 314.64901 339.755476 
L 313.664379 339.701088 
L 312.681024 339.986027 
L 311.696393 341.070186 
L 310.713038 342.34425 
L 308.745051 341.769962 
L 307.760421 342.615004 
L 306.777065 337.782187 
L 305.792434 338.967904 
L 304.809079 339.503676 
L 303.824448 338.637256 
L 301.856462 339.197286 
L 299.888475 338.945829 
L 298.90512 339.573786 
L 297.920489 338.979665 
L 296.937134 338.922298 
L 295.952503 338.597459 
L 294.969147 338.138971 
L 293.984517 337.334954 
L 293.001161 336.828283 
L 292.01653 336.65649 
L 291.033175 335.738179 
L 290.048544 332.884872 
L 289.065189 328.942151 
L 288.080558 321.981233 
L 287.219643 314.514199 
L 286.358729 302.340215 
L 285.497815 294.966841 
L 284.636901 290.948591 
L 283.775986 289.846774 
L 282.915072 300.207102 
L 282.054158 278.686309 
L 281.193243 271.294489 
L 280.331054 291.478167 
L 279.470139 316.574576 
L 278.609225 334.334572 
L 277.62587 340.462589 
L 276.641239 340.632353 
L 275.657883 340.282148 
L 274.673253 340.233753 
L 273.689897 339.813152 
L 272.705266 339.815043 
L 271.721911 339.647048 
L 270.73728 339.082042 
L 269.753925 338.83808 
L 268.769294 338.926478 
L 265.817952 338.480236 
L 261.881979 337.440992 
L 260.897349 337.473541 
L 254.010034 335.846551 
L 253.025403 335.386208 
L 251.057417 335.190057 
L 250.074062 335.046829 
L 248.106075 335.019881 
L 244.170103 335.010431 
L 243.185472 335.360625 
L 242.202117 335.554157 
L 238.266144 334.394224 
L 237.281513 333.983857 
L 235.313527 332.809407 
L 233.345541 331.233646 
L 231.377554 330.020637 
L 229.409568 328.882821 
L 228.426213 328.186525 
L 226.458226 326.316121 
L 224.49024 323.609431 
L 223.505609 321.835229 
L 221.537623 317.78985 
L 220.676709 314.439562 
L 219.815794 305.65232 
L 218.95488 290.404929 
L 218.093966 279.462118 
L 217.233051 279.979801 
L 216.372137 283.499449 
L 215.511223 288.94351 
L 214.650309 295.515261 
L 213.789394 296.22911 
L 212.92848 291.032078 
L 210.345737 264.902363 
L 209.483547 254.161793 
L 208.622633 247.99337 
L 207.761719 253.741376 
L 206.03989 279.615482 
L 205.178976 289.311915 
L 202.596233 309.604107 
L 201.735319 313.84293 
L 200.874405 316.75253 
L 200.01349 317.786113 
L 198.291662 317.546754 
L 197.430747 316.540486 
L 196.569833 315.095582 
L 195.707643 313.240274 
L 194.846729 310.791667 
L 192.263986 301.428798 
L 191.403072 300.448111 
L 190.542158 299.890575 
L 189.681243 300.296655 
L 187.959415 302.137352 
L 186.237586 305.42004 
L 185.376672 306.742155 
L 184.515758 307.188879 
L 183.654843 306.799098 
L 182.793929 306.22548 
L 181.931739 305.179096 
L 180.209911 302.062104 
L 179.348997 299.734649 
L 175.044425 285.848439 
L 172.461682 279.557264 
L 171.600768 277.085367 
L 170.739854 273.87823 
L 169.878939 270.09824 
L 168.155835 259.267604 
L 165.573093 238.753987 
L 163.851264 223.485297 
L 162.99035 215.503373 
L 162.129435 210.620985 
L 161.268521 213.920911 
L 160.407607 225.915583 
L 158.685778 255.534177 
L 157.824864 265.619007 
L 156.96395 273.204508 
L 156.103035 278.935127 
L 155.242121 283.417647 
L 154.379931 286.790152 
L 152.658103 292.068922 
L 150.936274 295.272952 
L 149.214446 297.974489 
L 148.353531 298.756442 
L 147.492617 299.713506 
L 146.631703 300.316953 
L 145.770789 301.231494 
L 144.909874 302.401135 
L 143.188046 304.166352 
L 142.327131 305.797615 
L 141.466217 306.574525 
L 140.604027 307.687694 
L 139.743113 308.615819 
L 138.882199 309.262829 
L 137.16037 311.541359 
L 136.299456 312.361816 
L 135.438542 313.585754 
L 134.577627 315.243544 
L 132.855799 317.112285 
L 131.994885 318.960242 
L 130.026898 322.116673 
L 129.042267 324.123267 
L 128.058912 324.838874 
L 127.074281 327.459278 
L 126.090926 329.053911 
L 125.106295 329.37973 
L 124.122939 330.104689 
L 121.170322 334.182069 
L 120.186967 334.08606 
L 119.202336 336.712829 
L 118.218981 339.009485 
L 117.23435 339.279985 
L 116.250994 341.635587 
L 115.266363 342.606632 
L 114.283008 341.96709 
L 113.298377 342.978425 
L 112.315022 342.642254 
L 111.330391 342.461836 
L 110.347035 342.484659 
L 109.362405 342.320562 
L 108.379049 342.892576 
L 107.394418 339.926422 
L 106.411063 340.276981 
L 105.426432 342.612032 
L 104.443077 343.03218 
L 103.458446 344.643811 
L 102.351374 344.940176 
L 101.245577 345.652991 
L 100.138505 345.546642 
L 99.031433 345.634357 
L 97.924361 344.474523 
L 96.817289 345.395803 
L 95.710217 344.370171 
L 94.603145 344.92552 
L 93.496073 344.282362 
L 92.511442 344.738784 
L 91.405646 344.261051 
L 90.421015 344.995478 
L 89.313943 344.466476 
L 88.206871 345.004928 
L 87.099799 344.742839 
L 85.992727 345.120942 
L 84.885655 344.532936 
L 83.778583 345.716351 
L 82.671511 345.113311 
L 81.565714 345.242609 
L 80.458642 345.53087 
L 79.35157 345.433578 
L 78.244498 345.641454 
L 77.137426 345.69035 
L 76.030354 345.543016 
L 74.923282 345.845648 
L 72.709138 345.758608 
L 72.709138 345.758608 
" style="fill:none;stroke:#8172b2;stroke-linecap:round;stroke-width:1.75;"/>
   </g>
   <g id="patch_3">
    <path d="M 72 39.6 
L 518.4 39.6 
" style="fill:none;"/>
   </g>
   <g id="patch_4">
    <path d="M 518.4 346.5 
L 518.4 39.6 
" style="fill:none;"/>
   </g>
   <g id="patch_5">
    <path d="M 72 346.5 
L 518.4 346.5 
" style="fill:none;"/>
   </g>
   <g id="patch_6">
    <path d="M 72 346.5 
L 72 39.6 
" style="fill:none;"/>
   </g>
   <g id="text_17">
    <!-- Regular Felt -->
    <defs>
     <path d="M 4.984375 -4.296875 
L 13.53125 -5.5625 
Q 14.0625 -9.515625 16.5 -11.328125 
Q 19.78125 -13.765625 25.4375 -13.765625 
Q 31.546875 -13.765625 34.859375 -11.328125 
Q 38.1875 -8.890625 39.359375 -4.5 
Q 40.046875 -1.8125 39.984375 6.78125 
Q 34.234375 0 25.640625 0 
Q 14.9375 0 9.078125 7.71875 
Q 3.21875 15.4375 3.21875 26.21875 
Q 3.21875 33.640625 5.90625 39.90625 
Q 8.59375 46.1875 13.6875 49.609375 
Q 18.796875 53.03125 25.6875 53.03125 
Q 34.859375 53.03125 40.828125 45.609375 
L 40.828125 51.859375 
L 48.921875 51.859375 
L 48.921875 7.03125 
Q 48.921875 -5.078125 46.453125 -10.125 
Q 44 -15.1875 38.640625 -18.109375 
Q 33.296875 -21.046875 25.484375 -21.046875 
Q 16.21875 -21.046875 10.5 -16.875 
Q 4.78125 -12.703125 4.984375 -4.296875 
M 12.25 26.859375 
Q 12.25 16.65625 16.296875 11.96875 
Q 20.359375 7.28125 26.46875 7.28125 
Q 32.515625 7.28125 36.609375 11.9375 
Q 40.71875 16.609375 40.71875 26.5625 
Q 40.71875 36.078125 36.5 40.90625 
Q 32.28125 45.75 26.3125 45.75 
Q 20.453125 45.75 16.34375 40.984375 
Q 12.25 36.234375 12.25 26.859375 
" id="ArialMT-67"/>
     <path d="M 7.859375 0 
L 7.859375 71.578125 
L 39.59375 71.578125 
Q 49.171875 71.578125 54.140625 69.640625 
Q 59.125 67.71875 62.109375 62.828125 
Q 65.09375 57.953125 65.09375 52.046875 
Q 65.09375 44.4375 60.15625 39.203125 
Q 55.21875 33.984375 44.921875 32.5625 
Q 48.6875 30.765625 50.640625 29 
Q 54.78125 25.203125 58.5 19.484375 
L 70.953125 0 
L 59.03125 0 
L 49.5625 14.890625 
Q 45.40625 21.34375 42.71875 24.75 
Q 40.046875 28.171875 37.921875 29.53125 
Q 35.796875 30.90625 33.59375 31.453125 
Q 31.984375 31.78125 28.328125 31.78125 
L 17.328125 31.78125 
L 17.328125 0 
z
M 17.328125 39.984375 
L 37.703125 39.984375 
Q 44.1875 39.984375 47.84375 41.328125 
Q 51.515625 42.671875 53.421875 45.625 
Q 55.328125 48.578125 55.328125 52.046875 
Q 55.328125 57.125 51.640625 60.390625 
Q 47.953125 63.671875 39.984375 63.671875 
L 17.328125 63.671875 
z
" id="ArialMT-52"/>
     <path d="M 40.578125 0 
L 40.578125 7.625 
Q 34.515625 -1.171875 24.125 -1.171875 
Q 19.53125 -1.171875 15.546875 0.578125 
Q 11.578125 2.34375 9.640625 5 
Q 7.71875 7.671875 6.9375 11.53125 
Q 6.390625 14.109375 6.390625 19.734375 
L 6.390625 51.859375 
L 15.1875 51.859375 
L 15.1875 23.09375 
Q 15.1875 16.21875 15.71875 13.8125 
Q 16.546875 10.359375 19.234375 8.375 
Q 21.921875 6.390625 25.875 6.390625 
Q 29.828125 6.390625 33.296875 8.421875 
Q 36.765625 10.453125 38.203125 13.9375 
Q 39.65625 17.4375 39.65625 24.078125 
L 39.65625 51.859375 
L 48.4375 51.859375 
L 48.4375 0 
z
" id="ArialMT-75"/>
     <path d="M 8.203125 0 
L 8.203125 71.578125 
L 56.5 71.578125 
L 56.5 63.140625 
L 17.671875 63.140625 
L 17.671875 40.96875 
L 51.265625 40.96875 
L 51.265625 32.515625 
L 17.671875 32.515625 
L 17.671875 0 
z
" id="ArialMT-46"/>
     <path d="M 6.390625 0 
L 6.390625 71.578125 
L 15.1875 71.578125 
L 15.1875 0 
z
" id="ArialMT-6c"/>
     <path d="M 25.78125 7.859375 
L 27.046875 0.09375 
Q 23.34375 -0.6875 20.40625 -0.6875 
Q 15.625 -0.6875 12.984375 0.828125 
Q 10.359375 2.34375 9.28125 4.8125 
Q 8.203125 7.28125 8.203125 15.1875 
L 8.203125 45.015625 
L 1.765625 45.015625 
L 1.765625 51.859375 
L 8.203125 51.859375 
L 8.203125 64.703125 
L 16.9375 69.96875 
L 16.9375 51.859375 
L 25.78125 51.859375 
L 25.78125 45.015625 
L 16.9375 45.015625 
L 16.9375 14.703125 
Q 16.9375 10.9375 17.40625 9.859375 
Q 17.875 8.796875 18.921875 8.15625 
Q 19.96875 7.515625 21.921875 7.515625 
Q 23.390625 7.515625 25.78125 7.859375 
" id="ArialMT-74"/>
     <path id="ArialMT-20"/>
    </defs>
    <g style="fill:#262626;" transform="translate(262.5215625 34.6)scale(0.12 -0.12)">
     <use xlink:href="#ArialMT-52"/>
     <use x="72.216796875" xlink:href="#ArialMT-65"/>
     <use x="127.83203125" xlink:href="#ArialMT-67"/>
     <use x="183.447265625" xlink:href="#ArialMT-75"/>
     <use x="239.0625" xlink:href="#ArialMT-6c"/>
     <use x="261.279296875" xlink:href="#ArialMT-61"/>
     <use x="316.89453125" xlink:href="#ArialMT-72"/>
     <use x="350.1953125" xlink:href="#ArialMT-20"/>
     <use x="377.978515625" xlink:href="#ArialMT-46"/>
     <use x="439.0625" xlink:href="#ArialMT-65"/>
     <use x="494.677734375" xlink:href="#ArialMT-6c"/>
     <use x="516.89453125" xlink:href="#ArialMT-74"/>
    </g>
   </g>
   <g id="legend_1">
    <g id="line2d_47">
     <path d="M 81 52.379687 
L 101 52.379687 
" style="fill:none;stroke:#4c72b0;stroke-linecap:round;stroke-width:1.75;"/>
    </g>
    <g id="line2d_48"/>
    <g id="text_18">
     <!-- Dunlop_AllSurface -->
     <defs>
      <path d="M 8.6875 0 
L 8.6875 45.015625 
L 0.921875 45.015625 
L 0.921875 51.859375 
L 8.6875 51.859375 
L 8.6875 57.375 
Q 8.6875 62.59375 9.625 65.140625 
Q 10.890625 68.5625 14.078125 70.671875 
Q 17.28125 72.796875 23.046875 72.796875 
Q 26.765625 72.796875 31.25 71.921875 
L 29.9375 64.265625 
Q 27.203125 64.75 24.75 64.75 
Q 20.75 64.75 19.09375 63.03125 
Q 17.4375 61.328125 17.4375 56.640625 
L 17.4375 51.859375 
L 27.546875 51.859375 
L 27.546875 45.015625 
L 17.4375 45.015625 
L 17.4375 0 
z
" id="ArialMT-66"/>
      <path d="M -0.140625 0 
L 27.34375 71.578125 
L 37.546875 71.578125 
L 66.84375 0 
L 56.0625 0 
L 47.703125 21.6875 
L 17.78125 21.6875 
L 9.90625 0 
z
M 20.515625 29.390625 
L 44.78125 29.390625 
L 37.3125 49.21875 
Q 33.890625 58.25 32.234375 64.0625 
Q 30.859375 57.171875 28.375 50.390625 
z
" id="ArialMT-41"/>
      <path d="M 4.5 23 
L 13.421875 23.78125 
Q 14.0625 18.40625 16.375 14.96875 
Q 18.703125 11.53125 23.578125 9.40625 
Q 28.46875 7.28125 34.578125 7.28125 
Q 39.984375 7.28125 44.140625 8.890625 
Q 48.296875 10.5 50.3125 13.296875 
Q 52.34375 16.109375 52.34375 19.4375 
Q 52.34375 22.796875 50.390625 25.3125 
Q 48.4375 27.828125 43.953125 29.546875 
Q 41.0625 30.671875 31.203125 33.03125 
Q 21.34375 35.40625 17.390625 37.5 
Q 12.25 40.1875 9.734375 44.15625 
Q 7.234375 48.140625 7.234375 53.078125 
Q 7.234375 58.5 10.296875 63.203125 
Q 13.375 67.921875 19.28125 70.359375 
Q 25.203125 72.796875 32.421875 72.796875 
Q 40.375 72.796875 46.453125 70.234375 
Q 52.546875 67.671875 55.8125 62.6875 
Q 59.078125 57.71875 59.328125 51.421875 
L 50.25 50.734375 
Q 49.515625 57.515625 45.28125 60.984375 
Q 41.0625 64.453125 32.8125 64.453125 
Q 24.21875 64.453125 20.28125 61.296875 
Q 16.359375 58.15625 16.359375 53.71875 
Q 16.359375 49.859375 19.140625 47.359375 
Q 21.875 44.875 33.421875 42.265625 
Q 44.96875 39.65625 49.265625 37.703125 
Q 55.515625 34.8125 58.484375 30.390625 
Q 61.46875 25.984375 61.46875 20.21875 
Q 61.46875 14.5 58.203125 9.4375 
Q 54.9375 4.390625 48.796875 1.578125 
Q 42.671875 -1.21875 35.015625 -1.21875 
Q 25.296875 -1.21875 18.71875 1.609375 
Q 12.15625 4.4375 8.421875 10.125 
Q 4.6875 15.828125 4.5 23 
" id="ArialMT-53"/>
      <path d="M 6.59375 -19.875 
L 6.59375 51.859375 
L 14.59375 51.859375 
L 14.59375 45.125 
Q 17.4375 49.078125 21 51.046875 
Q 24.5625 53.03125 29.640625 53.03125 
Q 36.28125 53.03125 41.359375 49.609375 
Q 46.4375 46.1875 49.015625 39.953125 
Q 51.609375 33.734375 51.609375 26.3125 
Q 51.609375 18.359375 48.75 11.984375 
Q 45.90625 5.609375 40.453125 2.21875 
Q 35.015625 -1.171875 29 -1.171875 
Q 24.609375 -1.171875 21.109375 0.6875 
Q 17.625 2.546875 15.375 5.375 
L 15.375 -19.875 
z
M 14.546875 25.640625 
Q 14.546875 15.625 18.59375 10.84375 
Q 22.65625 6.0625 28.421875 6.0625 
Q 34.28125 6.0625 38.453125 11.015625 
Q 42.625 15.96875 42.625 26.375 
Q 42.625 36.28125 38.546875 41.203125 
Q 34.46875 46.140625 28.8125 46.140625 
Q 23.1875 46.140625 18.859375 40.890625 
Q 14.546875 35.640625 14.546875 25.640625 
" id="ArialMT-70"/>
      <path d="M 7.71875 0 
L 7.71875 71.578125 
L 32.375 71.578125 
Q 40.71875 71.578125 45.125 70.5625 
Q 51.265625 69.140625 55.609375 65.4375 
Q 61.28125 60.640625 64.078125 53.1875 
Q 66.890625 45.75 66.890625 36.1875 
Q 66.890625 28.03125 64.984375 21.734375 
Q 63.09375 15.4375 60.109375 11.296875 
Q 57.125 7.171875 53.578125 4.796875 
Q 50.046875 2.4375 45.046875 1.21875 
Q 40.046875 0 33.546875 0 
z
M 17.1875 8.453125 
L 32.46875 8.453125 
Q 39.546875 8.453125 43.578125 9.765625 
Q 47.609375 11.078125 50 13.484375 
Q 53.375 16.84375 55.25 22.53125 
Q 57.125 28.21875 57.125 36.328125 
Q 57.125 47.5625 53.4375 53.59375 
Q 49.75 59.625 44.484375 61.671875 
Q 40.671875 63.140625 32.234375 63.140625 
L 17.1875 63.140625 
z
" id="ArialMT-44"/>
      <path d="M -1.515625 -19.875 
L -1.515625 -13.53125 
L 56.734375 -13.53125 
L 56.734375 -19.875 
z
" id="ArialMT-5f"/>
     </defs>
     <g style="fill:#262626;" transform="translate(109.0 55.8796875)scale(0.1 -0.1)">
      <use xlink:href="#ArialMT-44"/>
      <use x="72.216796875" xlink:href="#ArialMT-75"/>
      <use x="127.83203125" xlink:href="#ArialMT-6e"/>
      <use x="183.447265625" xlink:href="#ArialMT-6c"/>
      <use x="205.6640625" xlink:href="#ArialMT-6f"/>
      <use x="261.279296875" xlink:href="#ArialMT-70"/>
      <use x="316.89453125" xlink:href="#ArialMT-5f"/>
      <use x="372.509765625" xlink:href="#ArialMT-41"/>
      <use x="439.208984375" xlink:href="#ArialMT-6c"/>
      <use x="461.42578125" xlink:href="#ArialMT-6c"/>
      <use x="483.642578125" xlink:href="#ArialMT-53"/>
      <use x="550.341796875" xlink:href="#ArialMT-75"/>
      <use x="605.95703125" xlink:href="#ArialMT-72"/>
      <use x="639.2578125" xlink:href="#ArialMT-66"/>
      <use x="667.041015625" xlink:href="#ArialMT-61"/>
      <use x="722.65625" xlink:href="#ArialMT-63"/>
      <use x="772.65625" xlink:href="#ArialMT-65"/>
     </g>
    </g>
    <g id="line2d_49">
     <path d="M 81 66.525 
L 101 66.525 
" style="fill:none;stroke:#55a868;stroke-linecap:round;stroke-width:1.75;"/>
    </g>
    <g id="line2d_50"/>
    <g id="text_19">
     <!-- Penn_ATP -->
     <defs>
      <path d="M 7.71875 0 
L 7.71875 71.578125 
L 34.71875 71.578125 
Q 41.84375 71.578125 45.609375 70.90625 
Q 50.875 70.015625 54.4375 67.546875 
Q 58.015625 65.09375 60.1875 60.640625 
Q 62.359375 56.203125 62.359375 50.875 
Q 62.359375 41.75 56.546875 35.421875 
Q 50.734375 29.109375 35.546875 29.109375 
L 17.1875 29.109375 
L 17.1875 0 
z
M 17.1875 37.546875 
L 35.6875 37.546875 
Q 44.875 37.546875 48.734375 40.96875 
Q 52.59375 44.390625 52.59375 50.59375 
Q 52.59375 55.078125 50.3125 58.265625 
Q 48.046875 61.46875 44.34375 62.5 
Q 41.9375 63.140625 35.5 63.140625 
L 17.1875 63.140625 
z
" id="ArialMT-50"/>
      <path d="M 25.921875 0 
L 25.921875 63.140625 
L 2.34375 63.140625 
L 2.34375 71.578125 
L 59.078125 71.578125 
L 59.078125 63.140625 
L 35.40625 63.140625 
L 35.40625 0 
z
" id="ArialMT-54"/>
     </defs>
     <g style="fill:#262626;" transform="translate(109.0 70.025)scale(0.1 -0.1)">
      <use xlink:href="#ArialMT-50"/>
      <use x="66.69921875" xlink:href="#ArialMT-65"/>
      <use x="122.314453125" xlink:href="#ArialMT-6e"/>
      <use x="177.9296875" xlink:href="#ArialMT-6e"/>
      <use x="233.544921875" xlink:href="#ArialMT-5f"/>
      <use x="289.16015625" xlink:href="#ArialMT-41"/>
      <use x="355.75" xlink:href="#ArialMT-54"/>
      <use x="416.833984375" xlink:href="#ArialMT-50"/>
     </g>
    </g>
    <g id="line2d_51">
     <path d="M 81 80.670312 
L 101 80.670312 
" style="fill:none;stroke:#c44e52;stroke-linecap:round;stroke-width:1.75;"/>
    </g>
    <g id="line2d_52"/>
    <g id="text_20">
     <!-- Penn_RegularDuty -->
     <defs>
      <path d="M 6.203125 -19.96875 
L 5.21875 -11.71875 
Q 8.109375 -12.5 10.25 -12.5 
Q 13.1875 -12.5 14.9375 -11.515625 
Q 16.703125 -10.546875 17.828125 -8.796875 
Q 18.65625 -7.46875 20.515625 -2.25 
Q 20.75 -1.515625 21.296875 -0.09375 
L 1.609375 51.859375 
L 11.078125 51.859375 
L 21.875 21.828125 
Q 23.96875 16.109375 25.640625 9.8125 
Q 27.15625 15.875 29.25 21.625 
L 40.328125 51.859375 
L 49.125 51.859375 
L 29.390625 -0.875 
Q 26.21875 -9.421875 24.46875 -12.640625 
Q 22.125 -17 19.09375 -19.015625 
Q 16.0625 -21.046875 11.859375 -21.046875 
Q 9.328125 -21.046875 6.203125 -19.96875 
" id="ArialMT-79"/>
     </defs>
     <g style="fill:#262626;" transform="translate(109.0 84.1703125)scale(0.1 -0.1)">
      <use xlink:href="#ArialMT-50"/>
      <use x="66.69921875" xlink:href="#ArialMT-65"/>
      <use x="122.314453125" xlink:href="#ArialMT-6e"/>
      <use x="177.9296875" xlink:href="#ArialMT-6e"/>
      <use x="233.544921875" xlink:href="#ArialMT-5f"/>
      <use x="289.16015625" xlink:href="#ArialMT-52"/>
      <use x="361.376953125" xlink:href="#ArialMT-65"/>
      <use x="416.9921875" xlink:href="#ArialMT-67"/>
      <use x="472.607421875" xlink:href="#ArialMT-75"/>
      <use x="528.22265625" xlink:href="#ArialMT-6c"/>
      <use x="550.439453125" xlink:href="#ArialMT-61"/>
      <use x="606.0546875" xlink:href="#ArialMT-72"/>
      <use x="639.35546875" xlink:href="#ArialMT-44"/>
      <use x="711.572265625" xlink:href="#ArialMT-75"/>
      <use x="767.1875" xlink:href="#ArialMT-74"/>
      <use x="794.970703125" xlink:href="#ArialMT-79"/>
     </g>
    </g>
    <g id="line2d_53">
     <path d="M 81 94.932812 
L 101 94.932812 
" style="fill:none;stroke:#8172b2;stroke-linecap:round;stroke-width:1.75;"/>
    </g>
    <g id="line2d_54"/>
    <g id="text_21">
     <!-- Wilson_RegularDuty -->
     <defs>
      <path d="M 6.640625 61.46875 
L 6.640625 71.578125 
L 15.4375 71.578125 
L 15.4375 61.46875 
z
M 6.640625 0 
L 6.640625 51.859375 
L 15.4375 51.859375 
L 15.4375 0 
z
" id="ArialMT-69"/>
      <path d="M 20.21875 0 
L 1.21875 71.578125 
L 10.9375 71.578125 
L 21.828125 24.65625 
Q 23.578125 17.28125 24.859375 10.015625 
Q 27.59375 21.484375 28.078125 23.25 
L 41.703125 71.578125 
L 53.125 71.578125 
L 63.375 35.359375 
Q 67.234375 21.875 68.953125 10.015625 
Q 70.3125 16.796875 72.515625 25.59375 
L 83.734375 71.578125 
L 93.265625 71.578125 
L 73.640625 0 
L 64.5 0 
L 49.421875 54.546875 
Q 47.515625 61.375 47.171875 62.9375 
Q 46.046875 58.015625 45.0625 54.546875 
L 29.890625 0 
z
" id="ArialMT-57"/>
     </defs>
     <g style="fill:#262626;" transform="translate(109.0 98.4328125)scale(0.1 -0.1)">
      <use xlink:href="#ArialMT-57"/>
      <use x="94.384765625" xlink:href="#ArialMT-69"/>
      <use x="116.6015625" xlink:href="#ArialMT-6c"/>
      <use x="138.818359375" xlink:href="#ArialMT-73"/>
      <use x="188.818359375" xlink:href="#ArialMT-6f"/>
      <use x="244.43359375" xlink:href="#ArialMT-6e"/>
      <use x="300.048828125" xlink:href="#ArialMT-5f"/>
      <use x="355.6640625" xlink:href="#ArialMT-52"/>
      <use x="427.880859375" xlink:href="#ArialMT-65"/>
      <use x="483.49609375" xlink:href="#ArialMT-67"/>
      <use x="539.111328125" xlink:href="#ArialMT-75"/>
      <use x="594.7265625" xlink:href="#ArialMT-6c"/>
      <use x="616.943359375" xlink:href="#ArialMT-61"/>
      <use x="672.55859375" xlink:href="#ArialMT-72"/>
      <use x="705.859375" xlink:href="#ArialMT-44"/>
      <use x="778.076171875" xlink:href="#ArialMT-75"/>
      <use x="833.69140625" xlink:href="#ArialMT-74"/>
      <use x="861.474609375" xlink:href="#ArialMT-79"/>
     </g>
    </g>
   </g>
  </g>
 </g>
 <defs>
  <clipPath id="p3e5ad06eeb">
   <rect height="306.9" width="446.4" x="72.0" y="39.6"/>
  </clipPath>
 </defs>
</svg>
