<?xml version="1.0" encoding="utf-8" standalone="no"?>
<!DOCTYPE svg PUBLIC "-//W3C//DTD SVG 1.1//EN"
  "http://www.w3.org/Graphics/SVG/1.1/DTD/svg11.dtd">
<!-- Created with matplotlib (http://matplotlib.org/) -->
<svg height="396pt" version="1.1" viewBox="0 0 576 396" width="576pt" xmlns="http://www.w3.org/2000/svg" xmlns:xlink="http://www.w3.org/1999/xlink">
 <defs>
  <style type="text/css">
*{stroke-linecap:butt;stroke-linejoin:round;stroke-miterlimit:100000;}
  </style>
 </defs>
 <g id="figure_1">
  <g id="patch_1">
   <path d="M 0 396 
L 576 396 
L 576 0 
L 0 0 
z
" style="fill:#ffffff;"/>
  </g>
  <g id="axes_1">
   <g id="patch_2">
    <path d="M 72 346.5 
L 518.4 346.5 
L 518.4 39.6 
L 72 39.6 
z
" style="fill:#eaeaf2;"/>
   </g>
   <g id="matplotlib.axis_1">
    <g id="xtick_1">
     <g id="line2d_1">
      <path clip-path="url(#p06623708d0)" d="M 518.4 346.5 
L 518.4 39.6 
" style="fill:none;stroke:#ffffff;stroke-linecap:round;"/>
     </g>
     <g id="line2d_2"/>
     <g id="line2d_3"/>
     <g id="text_1">
      <!-- 500 -->
      <defs>
       <path d="M 4.15625 35.296875 
Q 4.15625 48 6.765625 55.734375 
Q 9.375 63.484375 14.515625 67.671875 
Q 19.671875 71.875 27.484375 71.875 
Q 33.25 71.875 37.59375 69.546875 
Q 41.9375 67.234375 44.765625 62.859375 
Q 47.609375 58.5 49.21875 52.21875 
Q 50.828125 45.953125 50.828125 35.296875 
Q 50.828125 22.703125 48.234375 14.96875 
Q 45.65625 7.234375 40.5 3 
Q 35.359375 -1.21875 27.484375 -1.21875 
Q 17.140625 -1.21875 11.234375 6.203125 
Q 4.15625 15.140625 4.15625 35.296875 
M 13.1875 35.296875 
Q 13.1875 17.671875 17.3125 11.828125 
Q 21.4375 6 27.484375 6 
Q 33.546875 6 37.671875 11.859375 
Q 41.796875 17.71875 41.796875 35.296875 
Q 41.796875 52.984375 37.671875 58.78125 
Q 33.546875 64.59375 27.390625 64.59375 
Q 21.34375 64.59375 17.71875 59.46875 
Q 13.1875 52.9375 13.1875 35.296875 
" id="ArialMT-30"/>
       <path d="M 4.15625 18.75 
L 13.375 19.53125 
Q 14.40625 12.796875 18.140625 9.390625 
Q 21.875 6 27.15625 6 
Q 33.5 6 37.890625 10.78125 
Q 42.28125 15.578125 42.28125 23.484375 
Q 42.28125 31 38.0625 35.34375 
Q 33.84375 39.703125 27 39.703125 
Q 22.75 39.703125 19.328125 37.765625 
Q 15.921875 35.84375 13.96875 32.765625 
L 5.71875 33.84375 
L 12.640625 70.609375 
L 48.25 70.609375 
L 48.25 62.203125 
L 19.671875 62.203125 
L 15.828125 42.96875 
Q 22.265625 47.46875 29.34375 47.46875 
Q 38.71875 47.46875 45.15625 40.96875 
Q 51.609375 34.46875 51.609375 24.265625 
Q 51.609375 14.546875 45.953125 7.46875 
Q 39.0625 -1.21875 27.15625 -1.21875 
Q 17.390625 -1.21875 11.203125 4.25 
Q 5.03125 9.71875 4.15625 18.75 
" id="ArialMT-35"/>
      </defs>
      <g style="fill:#262626;" transform="translate(510.05859375 360.6578125)scale(0.1 -0.1)">
       <use xlink:href="#ArialMT-35"/>
       <use x="55.615234375" xlink:href="#ArialMT-30"/>
       <use x="111.23046875" xlink:href="#ArialMT-30"/>
      </g>
     </g>
    </g>
    <g id="xtick_2">
     <g id="line2d_4">
      <path clip-path="url(#p06623708d0)" d="M 454.628571 346.5 
L 454.628571 39.6 
" style="fill:none;stroke:#ffffff;stroke-linecap:round;"/>
     </g>
     <g id="line2d_5"/>
     <g id="line2d_6"/>
     <g id="text_2">
      <!-- 1000 -->
      <defs>
       <path d="M 37.25 0 
L 28.46875 0 
L 28.46875 56 
Q 25.296875 52.984375 20.140625 49.953125 
Q 14.984375 46.921875 10.890625 45.40625 
L 10.890625 53.90625 
Q 18.265625 57.375 23.78125 62.296875 
Q 29.296875 67.234375 31.59375 71.875 
L 37.25 71.875 
z
" id="ArialMT-31"/>
      </defs>
      <g style="fill:#262626;" transform="translate(443.506696429 360.6578125)scale(0.1 -0.1)">
       <use xlink:href="#ArialMT-31"/>
       <use x="55.615234375" xlink:href="#ArialMT-30"/>
       <use x="111.23046875" xlink:href="#ArialMT-30"/>
       <use x="166.845703125" xlink:href="#ArialMT-30"/>
      </g>
     </g>
    </g>
    <g id="xtick_3">
     <g id="line2d_7">
      <path clip-path="url(#p06623708d0)" d="M 390.857143 346.5 
L 390.857143 39.6 
" style="fill:none;stroke:#ffffff;stroke-linecap:round;"/>
     </g>
     <g id="line2d_8"/>
     <g id="line2d_9"/>
     <g id="text_3">
      <!-- 1500 -->
      <g style="fill:#262626;" transform="translate(379.735267857 360.6578125)scale(0.1 -0.1)">
       <use xlink:href="#ArialMT-31"/>
       <use x="55.615234375" xlink:href="#ArialMT-35"/>
       <use x="111.23046875" xlink:href="#ArialMT-30"/>
       <use x="166.845703125" xlink:href="#ArialMT-30"/>
      </g>
     </g>
    </g>
    <g id="xtick_4">
     <g id="line2d_10">
      <path clip-path="url(#p06623708d0)" d="M 327.085714 346.5 
L 327.085714 39.6 
" style="fill:none;stroke:#ffffff;stroke-linecap:round;"/>
     </g>
     <g id="line2d_11"/>
     <g id="line2d_12"/>
     <g id="text_4">
      <!-- 2000 -->
      <defs>
       <path d="M 50.34375 8.453125 
L 50.34375 0 
L 3.03125 0 
Q 2.9375 3.171875 4.046875 6.109375 
Q 5.859375 10.9375 9.828125 15.625 
Q 13.8125 20.3125 21.34375 26.46875 
Q 33.015625 36.03125 37.109375 41.625 
Q 41.21875 47.21875 41.21875 52.203125 
Q 41.21875 57.421875 37.46875 61 
Q 33.734375 64.59375 27.734375 64.59375 
Q 21.390625 64.59375 17.578125 60.78125 
Q 13.765625 56.984375 13.71875 50.25 
L 4.6875 51.171875 
Q 5.609375 61.28125 11.65625 66.578125 
Q 17.71875 71.875 27.9375 71.875 
Q 38.234375 71.875 44.234375 66.15625 
Q 50.25 60.453125 50.25 52 
Q 50.25 47.703125 48.484375 43.546875 
Q 46.734375 39.40625 42.65625 34.8125 
Q 38.578125 30.21875 29.109375 22.21875 
Q 21.1875 15.578125 18.9375 13.203125 
Q 16.703125 10.84375 15.234375 8.453125 
z
" id="ArialMT-32"/>
      </defs>
      <g style="fill:#262626;" transform="translate(315.963839286 360.6578125)scale(0.1 -0.1)">
       <use xlink:href="#ArialMT-32"/>
       <use x="55.615234375" xlink:href="#ArialMT-30"/>
       <use x="111.23046875" xlink:href="#ArialMT-30"/>
       <use x="166.845703125" xlink:href="#ArialMT-30"/>
      </g>
     </g>
    </g>
    <g id="xtick_5">
     <g id="line2d_13">
      <path clip-path="url(#p06623708d0)" d="M 263.314286 346.5 
L 263.314286 39.6 
" style="fill:none;stroke:#ffffff;stroke-linecap:round;"/>
     </g>
     <g id="line2d_14"/>
     <g id="line2d_15"/>
     <g id="text_5">
      <!-- 2500 -->
      <g style="fill:#262626;" transform="translate(252.192410714 360.6578125)scale(0.1 -0.1)">
       <use xlink:href="#ArialMT-32"/>
       <use x="55.615234375" xlink:href="#ArialMT-35"/>
       <use x="111.23046875" xlink:href="#ArialMT-30"/>
       <use x="166.845703125" xlink:href="#ArialMT-30"/>
      </g>
     </g>
    </g>
    <g id="xtick_6">
     <g id="line2d_16">
      <path clip-path="url(#p06623708d0)" d="M 199.542857 346.5 
L 199.542857 39.6 
" style="fill:none;stroke:#ffffff;stroke-linecap:round;"/>
     </g>
     <g id="line2d_17"/>
     <g id="line2d_18"/>
     <g id="text_6">
      <!-- 3000 -->
      <defs>
       <path d="M 4.203125 18.890625 
L 12.984375 20.0625 
Q 14.5 12.59375 18.140625 9.296875 
Q 21.78125 6 27 6 
Q 33.203125 6 37.46875 10.296875 
Q 41.75 14.59375 41.75 20.953125 
Q 41.75 27 37.796875 30.921875 
Q 33.84375 34.859375 27.734375 34.859375 
Q 25.25 34.859375 21.53125 33.890625 
L 22.515625 41.609375 
Q 23.390625 41.5 23.921875 41.5 
Q 29.546875 41.5 34.03125 44.421875 
Q 38.53125 47.359375 38.53125 53.46875 
Q 38.53125 58.296875 35.25 61.46875 
Q 31.984375 64.65625 26.8125 64.65625 
Q 21.6875 64.65625 18.265625 61.421875 
Q 14.84375 58.203125 13.875 51.765625 
L 5.078125 53.328125 
Q 6.6875 62.15625 12.390625 67.015625 
Q 18.109375 71.875 26.609375 71.875 
Q 32.46875 71.875 37.390625 69.359375 
Q 42.328125 66.84375 44.9375 62.5 
Q 47.5625 58.15625 47.5625 53.265625 
Q 47.5625 48.640625 45.0625 44.828125 
Q 42.578125 41.015625 37.703125 38.765625 
Q 44.046875 37.3125 47.5625 32.6875 
Q 51.078125 28.078125 51.078125 21.140625 
Q 51.078125 11.765625 44.234375 5.25 
Q 37.40625 -1.265625 26.953125 -1.265625 
Q 17.53125 -1.265625 11.296875 4.34375 
Q 5.078125 9.96875 4.203125 18.890625 
" id="ArialMT-33"/>
      </defs>
      <g style="fill:#262626;" transform="translate(188.420982143 360.6578125)scale(0.1 -0.1)">
       <use xlink:href="#ArialMT-33"/>
       <use x="55.615234375" xlink:href="#ArialMT-30"/>
       <use x="111.23046875" xlink:href="#ArialMT-30"/>
       <use x="166.845703125" xlink:href="#ArialMT-30"/>
      </g>
     </g>
    </g>
    <g id="xtick_7">
     <g id="line2d_19">
      <path clip-path="url(#p06623708d0)" d="M 135.771429 346.5 
L 135.771429 39.6 
" style="fill:none;stroke:#ffffff;stroke-linecap:round;"/>
     </g>
     <g id="line2d_20"/>
     <g id="line2d_21"/>
     <g id="text_7">
      <!-- 3500 -->
      <g style="fill:#262626;" transform="translate(124.649553571 360.6578125)scale(0.1 -0.1)">
       <use xlink:href="#ArialMT-33"/>
       <use x="55.615234375" xlink:href="#ArialMT-35"/>
       <use x="111.23046875" xlink:href="#ArialMT-30"/>
       <use x="166.845703125" xlink:href="#ArialMT-30"/>
      </g>
     </g>
    </g>
    <g id="xtick_8">
     <g id="line2d_22">
      <path clip-path="url(#p06623708d0)" d="M 72 346.5 
L 72 39.6 
" style="fill:none;stroke:#ffffff;stroke-linecap:round;"/>
     </g>
     <g id="line2d_23"/>
     <g id="line2d_24"/>
     <g id="text_8">
      <!-- 4000 -->
      <defs>
       <path d="M 32.328125 0 
L 32.328125 17.140625 
L 1.265625 17.140625 
L 1.265625 25.203125 
L 33.9375 71.578125 
L 41.109375 71.578125 
L 41.109375 25.203125 
L 50.78125 25.203125 
L 50.78125 17.140625 
L 41.109375 17.140625 
L 41.109375 0 
z
M 32.328125 25.203125 
L 32.328125 57.46875 
L 9.90625 25.203125 
z
" id="ArialMT-34"/>
      </defs>
      <g style="fill:#262626;" transform="translate(60.878125 360.6578125)scale(0.1 -0.1)">
       <use xlink:href="#ArialMT-34"/>
       <use x="55.615234375" xlink:href="#ArialMT-30"/>
       <use x="111.23046875" xlink:href="#ArialMT-30"/>
       <use x="166.845703125" xlink:href="#ArialMT-30"/>
      </g>
     </g>
    </g>
    <g id="text_9">
     <!-- cm^-1 -->
     <defs>
      <path d="M 40.4375 19 
L 49.078125 17.875 
Q 47.65625 8.9375 41.8125 3.875 
Q 35.984375 -1.171875 27.484375 -1.171875 
Q 16.84375 -1.171875 10.375 5.78125 
Q 3.90625 12.75 3.90625 25.734375 
Q 3.90625 34.125 6.6875 40.421875 
Q 9.46875 46.734375 15.15625 49.875 
Q 20.84375 53.03125 27.546875 53.03125 
Q 35.984375 53.03125 41.359375 48.75 
Q 46.734375 44.484375 48.25 36.625 
L 39.703125 35.296875 
Q 38.484375 40.53125 35.375 43.15625 
Q 32.28125 45.796875 27.875 45.796875 
Q 21.234375 45.796875 17.078125 41.03125 
Q 12.9375 36.28125 12.9375 25.984375 
Q 12.9375 15.53125 16.9375 10.796875 
Q 20.953125 6.0625 27.390625 6.0625 
Q 32.5625 6.0625 36.03125 9.234375 
Q 39.5 12.40625 40.4375 19 
" id="ArialMT-63"/>
      <path d="M 11.671875 33.6875 
L 2.640625 33.6875 
L 19.875 72.796875 
L 26.953125 72.796875 
L 44.28125 33.6875 
L 35.453125 33.6875 
L 23.390625 62.84375 
z
" id="ArialMT-5e"/>
      <path d="M 3.171875 21.484375 
L 3.171875 30.328125 
L 30.171875 30.328125 
L 30.171875 21.484375 
z
" id="ArialMT-2d"/>
      <path d="M 6.59375 0 
L 6.59375 51.859375 
L 14.453125 51.859375 
L 14.453125 44.578125 
Q 16.890625 48.390625 20.9375 50.703125 
Q 25 53.03125 30.171875 53.03125 
Q 35.9375 53.03125 39.625 50.640625 
Q 43.3125 48.25 44.828125 43.953125 
Q 50.984375 53.03125 60.84375 53.03125 
Q 68.5625 53.03125 72.703125 48.75 
Q 76.859375 44.484375 76.859375 35.59375 
L 76.859375 0 
L 68.109375 0 
L 68.109375 32.671875 
Q 68.109375 37.9375 67.25 40.25 
Q 66.40625 42.578125 64.15625 43.984375 
Q 61.921875 45.40625 58.890625 45.40625 
Q 53.421875 45.40625 49.796875 41.765625 
Q 46.1875 38.140625 46.1875 30.125 
L 46.1875 0 
L 37.40625 0 
L 37.40625 33.6875 
Q 37.40625 39.546875 35.25 42.46875 
Q 33.109375 45.40625 28.21875 45.40625 
Q 24.515625 45.40625 21.359375 43.453125 
Q 18.21875 41.5 16.796875 37.734375 
Q 15.375 33.984375 15.375 26.90625 
L 15.375 0 
z
" id="ArialMT-6d"/>
     </defs>
     <g style="fill:#262626;" transform="translate(280.398125 375.51890625)scale(0.11 -0.11)">
      <use xlink:href="#ArialMT-63"/>
      <use x="50.0" xlink:href="#ArialMT-6d"/>
      <use x="133.30078125" xlink:href="#ArialMT-5e"/>
      <use x="180.224609375" xlink:href="#ArialMT-2d"/>
      <use x="213.525390625" xlink:href="#ArialMT-31"/>
     </g>
    </g>
   </g>
   <g id="matplotlib.axis_2">
    <g id="ytick_1">
     <g id="line2d_25">
      <path clip-path="url(#p06623708d0)" d="M 72 346.5 
L 518.4 346.5 
" style="fill:none;stroke:#ffffff;stroke-linecap:round;"/>
     </g>
     <g id="line2d_26"/>
     <g id="line2d_27"/>
     <g id="text_10">
      <!-- 0.0 -->
      <defs>
       <path d="M 9.078125 0 
L 9.078125 10.015625 
L 19.09375 10.015625 
L 19.09375 0 
z
" id="ArialMT-2e"/>
      </defs>
      <g style="fill:#262626;" transform="translate(51.1 349.08515625)scale(0.1 -0.1)">
       <use xlink:href="#ArialMT-30"/>
       <use x="55.615234375" xlink:href="#ArialMT-2e"/>
       <use x="83.3984375" xlink:href="#ArialMT-30"/>
      </g>
     </g>
    </g>
    <g id="ytick_2">
     <g id="line2d_28">
      <path clip-path="url(#p06623708d0)" d="M 72 285.12 
L 518.4 285.12 
" style="fill:none;stroke:#ffffff;stroke-linecap:round;"/>
     </g>
     <g id="line2d_29"/>
     <g id="line2d_30"/>
     <g id="text_11">
      <!-- 0.2 -->
      <g style="fill:#262626;" transform="translate(51.1 287.70515625)scale(0.1 -0.1)">
       <use xlink:href="#ArialMT-30"/>
       <use x="55.615234375" xlink:href="#ArialMT-2e"/>
       <use x="83.3984375" xlink:href="#ArialMT-32"/>
      </g>
     </g>
    </g>
    <g id="ytick_3">
     <g id="line2d_31">
      <path clip-path="url(#p06623708d0)" d="M 72 223.74 
L 518.4 223.74 
" style="fill:none;stroke:#ffffff;stroke-linecap:round;"/>
     </g>
     <g id="line2d_32"/>
     <g id="line2d_33"/>
     <g id="text_12">
      <!-- 0.4 -->
      <g style="fill:#262626;" transform="translate(51.1 226.32515625)scale(0.1 -0.1)">
       <use xlink:href="#ArialMT-30"/>
       <use x="55.615234375" xlink:href="#ArialMT-2e"/>
       <use x="83.3984375" xlink:href="#ArialMT-34"/>
      </g>
     </g>
    </g>
    <g id="ytick_4">
     <g id="line2d_34">
      <path clip-path="url(#p06623708d0)" d="M 72 162.36 
L 518.4 162.36 
" style="fill:none;stroke:#ffffff;stroke-linecap:round;"/>
     </g>
     <g id="line2d_35"/>
     <g id="line2d_36"/>
     <g id="text_13">
      <!-- 0.6 -->
      <defs>
       <path d="M 49.75 54.046875 
L 41.015625 53.375 
Q 39.84375 58.546875 37.703125 60.890625 
Q 34.125 64.65625 28.90625 64.65625 
Q 24.703125 64.65625 21.53125 62.3125 
Q 17.390625 59.28125 14.984375 53.46875 
Q 12.59375 47.65625 12.5 36.921875 
Q 15.671875 41.75 20.265625 44.09375 
Q 24.859375 46.4375 29.890625 46.4375 
Q 38.671875 46.4375 44.84375 39.96875 
Q 51.03125 33.5 51.03125 23.25 
Q 51.03125 16.5 48.125 10.71875 
Q 45.21875 4.9375 40.140625 1.859375 
Q 35.0625 -1.21875 28.609375 -1.21875 
Q 17.625 -1.21875 10.6875 6.859375 
Q 3.765625 14.9375 3.765625 33.5 
Q 3.765625 54.25 11.421875 63.671875 
Q 18.109375 71.875 29.4375 71.875 
Q 37.890625 71.875 43.28125 67.140625 
Q 48.6875 62.40625 49.75 54.046875 
M 13.875 23.1875 
Q 13.875 18.65625 15.796875 14.5 
Q 17.71875 10.359375 21.1875 8.171875 
Q 24.65625 6 28.46875 6 
Q 34.03125 6 38.03125 10.484375 
Q 42.046875 14.984375 42.046875 22.703125 
Q 42.046875 30.125 38.078125 34.390625 
Q 34.125 38.671875 28.125 38.671875 
Q 22.171875 38.671875 18.015625 34.390625 
Q 13.875 30.125 13.875 23.1875 
" id="ArialMT-36"/>
      </defs>
      <g style="fill:#262626;" transform="translate(51.1 164.94515625)scale(0.1 -0.1)">
       <use xlink:href="#ArialMT-30"/>
       <use x="55.615234375" xlink:href="#ArialMT-2e"/>
       <use x="83.3984375" xlink:href="#ArialMT-36"/>
      </g>
     </g>
    </g>
    <g id="ytick_5">
     <g id="line2d_37">
      <path clip-path="url(#p06623708d0)" d="M 72 100.98 
L 518.4 100.98 
" style="fill:none;stroke:#ffffff;stroke-linecap:round;"/>
     </g>
     <g id="line2d_38"/>
     <g id="line2d_39"/>
     <g id="text_14">
      <!-- 0.8 -->
      <defs>
       <path d="M 17.671875 38.8125 
Q 12.203125 40.828125 9.5625 44.53125 
Q 6.9375 48.25 6.9375 53.421875 
Q 6.9375 61.234375 12.546875 66.546875 
Q 18.171875 71.875 27.484375 71.875 
Q 36.859375 71.875 42.578125 66.421875 
Q 48.296875 60.984375 48.296875 53.171875 
Q 48.296875 48.1875 45.671875 44.5 
Q 43.0625 40.828125 37.75 38.8125 
Q 44.34375 36.671875 47.78125 31.875 
Q 51.21875 27.09375 51.21875 20.453125 
Q 51.21875 11.28125 44.71875 5.03125 
Q 38.234375 -1.21875 27.640625 -1.21875 
Q 17.046875 -1.21875 10.546875 5.046875 
Q 4.046875 11.328125 4.046875 20.703125 
Q 4.046875 27.6875 7.59375 32.390625 
Q 11.140625 37.109375 17.671875 38.8125 
M 15.921875 53.71875 
Q 15.921875 48.640625 19.1875 45.40625 
Q 22.46875 42.1875 27.6875 42.1875 
Q 32.765625 42.1875 36.015625 45.375 
Q 39.265625 48.578125 39.265625 53.21875 
Q 39.265625 58.0625 35.90625 61.359375 
Q 32.5625 64.65625 27.59375 64.65625 
Q 22.5625 64.65625 19.234375 61.421875 
Q 15.921875 58.203125 15.921875 53.71875 
M 13.09375 20.65625 
Q 13.09375 16.890625 14.875 13.375 
Q 16.65625 9.859375 20.171875 7.921875 
Q 23.6875 6 27.734375 6 
Q 34.03125 6 38.125 10.046875 
Q 42.234375 14.109375 42.234375 20.359375 
Q 42.234375 26.703125 38.015625 30.859375 
Q 33.796875 35.015625 27.4375 35.015625 
Q 21.234375 35.015625 17.15625 30.90625 
Q 13.09375 26.8125 13.09375 20.65625 
" id="ArialMT-38"/>
      </defs>
      <g style="fill:#262626;" transform="translate(51.1 103.56515625)scale(0.1 -0.1)">
       <use xlink:href="#ArialMT-30"/>
       <use x="55.615234375" xlink:href="#ArialMT-2e"/>
       <use x="83.3984375" xlink:href="#ArialMT-38"/>
      </g>
     </g>
    </g>
    <g id="ytick_6">
     <g id="line2d_40">
      <path clip-path="url(#p06623708d0)" d="M 72 39.6 
L 518.4 39.6 
" style="fill:none;stroke:#ffffff;stroke-linecap:round;"/>
     </g>
     <g id="line2d_41"/>
     <g id="line2d_42"/>
     <g id="text_15">
      <!-- 1.0 -->
      <g style="fill:#262626;" transform="translate(51.1 42.18515625)scale(0.1 -0.1)">
       <use xlink:href="#ArialMT-31"/>
       <use x="55.615234375" xlink:href="#ArialMT-2e"/>
       <use x="83.3984375" xlink:href="#ArialMT-30"/>
      </g>
     </g>
    </g>
    <g id="text_16">
     <!-- absorbance -->
     <defs>
      <path d="M 14.703125 0 
L 6.546875 0 
L 6.546875 71.578125 
L 15.328125 71.578125 
L 15.328125 46.046875 
Q 20.90625 53.03125 29.546875 53.03125 
Q 34.328125 53.03125 38.59375 51.09375 
Q 42.875 49.171875 45.625 45.671875 
Q 48.390625 42.1875 49.953125 37.25 
Q 51.515625 32.328125 51.515625 26.703125 
Q 51.515625 13.375 44.921875 6.09375 
Q 38.328125 -1.171875 29.109375 -1.171875 
Q 19.921875 -1.171875 14.703125 6.5 
z
M 14.59375 26.3125 
Q 14.59375 17 17.140625 12.84375 
Q 21.296875 6.0625 28.375 6.0625 
Q 34.125 6.0625 38.328125 11.0625 
Q 42.53125 16.0625 42.53125 25.984375 
Q 42.53125 36.140625 38.5 40.96875 
Q 34.46875 45.796875 28.765625 45.796875 
Q 23 45.796875 18.796875 40.796875 
Q 14.59375 35.796875 14.59375 26.3125 
" id="ArialMT-62"/>
      <path d="M 40.4375 6.390625 
Q 35.546875 2.25 31.03125 0.53125 
Q 26.515625 -1.171875 21.34375 -1.171875 
Q 12.796875 -1.171875 8.203125 3 
Q 3.609375 7.171875 3.609375 13.671875 
Q 3.609375 17.484375 5.34375 20.625 
Q 7.078125 23.78125 9.890625 25.6875 
Q 12.703125 27.59375 16.21875 28.5625 
Q 18.796875 29.25 24.03125 29.890625 
Q 34.671875 31.15625 39.703125 32.90625 
Q 39.75 34.71875 39.75 35.203125 
Q 39.75 40.578125 37.25 42.78125 
Q 33.890625 45.75 27.25 45.75 
Q 21.046875 45.75 18.09375 43.578125 
Q 15.140625 41.40625 13.71875 35.890625 
L 5.125 37.0625 
Q 6.296875 42.578125 8.984375 45.96875 
Q 11.671875 49.359375 16.75 51.1875 
Q 21.828125 53.03125 28.515625 53.03125 
Q 35.15625 53.03125 39.296875 51.46875 
Q 43.453125 49.90625 45.40625 47.53125 
Q 47.359375 45.171875 48.140625 41.546875 
Q 48.578125 39.3125 48.578125 33.453125 
L 48.578125 21.734375 
Q 48.578125 9.46875 49.140625 6.21875 
Q 49.703125 2.984375 51.375 0 
L 42.1875 0 
Q 40.828125 2.734375 40.4375 6.390625 
M 39.703125 26.03125 
Q 34.90625 24.078125 25.34375 22.703125 
Q 19.921875 21.921875 17.671875 20.9375 
Q 15.4375 19.96875 14.203125 18.09375 
Q 12.984375 16.21875 12.984375 13.921875 
Q 12.984375 10.40625 15.640625 8.0625 
Q 18.3125 5.71875 23.4375 5.71875 
Q 28.515625 5.71875 32.46875 7.9375 
Q 36.421875 10.15625 38.28125 14.015625 
Q 39.703125 17 39.703125 22.796875 
z
" id="ArialMT-61"/>
      <path d="M 42.09375 16.703125 
L 51.171875 15.578125 
Q 49.03125 7.625 43.21875 3.21875 
Q 37.40625 -1.171875 28.375 -1.171875 
Q 17 -1.171875 10.328125 5.828125 
Q 3.65625 12.84375 3.65625 25.484375 
Q 3.65625 38.578125 10.390625 45.796875 
Q 17.140625 53.03125 27.875 53.03125 
Q 38.28125 53.03125 44.875 45.953125 
Q 51.46875 38.875 51.46875 26.03125 
Q 51.46875 25.25 51.421875 23.6875 
L 12.75 23.6875 
Q 13.234375 15.140625 17.578125 10.59375 
Q 21.921875 6.0625 28.421875 6.0625 
Q 33.25 6.0625 36.671875 8.59375 
Q 40.09375 11.140625 42.09375 16.703125 
M 13.234375 30.90625 
L 42.1875 30.90625 
Q 41.609375 37.453125 38.875 40.71875 
Q 34.671875 45.796875 27.984375 45.796875 
Q 21.921875 45.796875 17.796875 41.75 
Q 13.671875 37.703125 13.234375 30.90625 
" id="ArialMT-65"/>
      <path d="M 6.5 0 
L 6.5 51.859375 
L 14.40625 51.859375 
L 14.40625 44 
Q 17.4375 49.515625 20 51.265625 
Q 22.5625 53.03125 25.640625 53.03125 
Q 30.078125 53.03125 34.671875 50.203125 
L 31.640625 42.046875 
Q 28.421875 43.953125 25.203125 43.953125 
Q 22.3125 43.953125 20.015625 42.21875 
Q 17.71875 40.484375 16.75 37.40625 
Q 15.28125 32.71875 15.28125 27.15625 
L 15.28125 0 
z
" id="ArialMT-72"/>
      <path d="M 3.078125 15.484375 
L 11.765625 16.84375 
Q 12.5 11.625 15.84375 8.84375 
Q 19.1875 6.0625 25.203125 6.0625 
Q 31.25 6.0625 34.171875 8.515625 
Q 37.109375 10.984375 37.109375 14.3125 
Q 37.109375 17.28125 34.515625 19 
Q 32.71875 20.171875 25.53125 21.96875 
Q 15.875 24.421875 12.140625 26.203125 
Q 8.40625 27.984375 6.46875 31.125 
Q 4.546875 34.28125 4.546875 38.09375 
Q 4.546875 41.546875 6.125 44.5 
Q 7.71875 47.46875 10.453125 49.421875 
Q 12.5 50.921875 16.03125 51.96875 
Q 19.578125 53.03125 23.640625 53.03125 
Q 29.734375 53.03125 34.34375 51.265625 
Q 38.96875 49.515625 41.15625 46.5 
Q 43.359375 43.5 44.1875 38.484375 
L 35.59375 37.3125 
Q 35.015625 41.3125 32.203125 43.546875 
Q 29.390625 45.796875 24.265625 45.796875 
Q 18.21875 45.796875 15.625 43.796875 
Q 13.03125 41.796875 13.03125 39.109375 
Q 13.03125 37.40625 14.109375 36.03125 
Q 15.1875 34.625 17.484375 33.6875 
Q 18.796875 33.203125 25.25 31.453125 
Q 34.578125 28.953125 38.25 27.359375 
Q 41.9375 25.78125 44.03125 22.75 
Q 46.140625 19.734375 46.140625 15.234375 
Q 46.140625 10.84375 43.578125 6.953125 
Q 41.015625 3.078125 36.171875 0.953125 
Q 31.34375 -1.171875 25.25 -1.171875 
Q 15.140625 -1.171875 9.84375 3.03125 
Q 4.546875 7.234375 3.078125 15.484375 
" id="ArialMT-73"/>
      <path d="M 3.328125 25.921875 
Q 3.328125 40.328125 11.328125 47.265625 
Q 18.015625 53.03125 27.640625 53.03125 
Q 38.328125 53.03125 45.109375 46.015625 
Q 51.90625 39.015625 51.90625 26.65625 
Q 51.90625 16.65625 48.90625 10.90625 
Q 45.90625 5.171875 40.15625 2 
Q 34.421875 -1.171875 27.640625 -1.171875 
Q 16.75 -1.171875 10.03125 5.8125 
Q 3.328125 12.796875 3.328125 25.921875 
M 12.359375 25.921875 
Q 12.359375 15.96875 16.703125 11.015625 
Q 21.046875 6.0625 27.640625 6.0625 
Q 34.1875 6.0625 38.53125 11.03125 
Q 42.875 16.015625 42.875 26.21875 
Q 42.875 35.84375 38.5 40.796875 
Q 34.125 45.75 27.640625 45.75 
Q 21.046875 45.75 16.703125 40.8125 
Q 12.359375 35.890625 12.359375 25.921875 
" id="ArialMT-6f"/>
      <path d="M 6.59375 0 
L 6.59375 51.859375 
L 14.5 51.859375 
L 14.5 44.484375 
Q 20.21875 53.03125 31 53.03125 
Q 35.6875 53.03125 39.625 51.34375 
Q 43.5625 49.65625 45.515625 46.921875 
Q 47.46875 44.1875 48.25 40.4375 
Q 48.734375 37.984375 48.734375 31.890625 
L 48.734375 0 
L 39.9375 0 
L 39.9375 31.546875 
Q 39.9375 36.921875 38.90625 39.578125 
Q 37.890625 42.234375 35.28125 43.8125 
Q 32.671875 45.40625 29.15625 45.40625 
Q 23.53125 45.40625 19.453125 41.84375 
Q 15.375 38.28125 15.375 28.328125 
L 15.375 0 
z
" id="ArialMT-6e"/>
     </defs>
     <g style="fill:#262626;" transform="translate(43.91375 221.7909375)rotate(-90.0)scale(0.11 -0.11)">
      <use xlink:href="#ArialMT-61"/>
      <use x="55.615234375" xlink:href="#ArialMT-62"/>
      <use x="111.23046875" xlink:href="#ArialMT-73"/>
      <use x="161.23046875" xlink:href="#ArialMT-6f"/>
      <use x="216.845703125" xlink:href="#ArialMT-72"/>
      <use x="250.146484375" xlink:href="#ArialMT-62"/>
      <use x="305.76171875" xlink:href="#ArialMT-61"/>
      <use x="361.376953125" xlink:href="#ArialMT-6e"/>
      <use x="416.9921875" xlink:href="#ArialMT-63"/>
      <use x="466.9921875" xlink:href="#ArialMT-65"/>
     </g>
    </g>
   </g>
   <g id="line2d_43">
    <path clip-path="url(#p06623708d0)" d="M 505.666121 230.56996 
L 504.805207 241.273182 
L 503.944293 250.084316 
L 503.083378 252.128436 
L 502.222464 245.562543 
L 499.638446 221.030879 
L 498.777531 211.484937 
L 497.916617 203.617203 
L 497.055703 190.630356 
L 496.194789 185.204234 
L 495.333874 186.64788 
L 494.47296 192.085181 
L 493.612046 207.803784 
L 492.751131 231.318202 
L 491.890217 250.274832 
L 491.029303 259.928622 
L 490.168389 260.280066 
L 489.307474 254.728231 
L 487.585646 231.978076 
L 486.724731 229.461807 
L 485.001627 249.356118 
L 484.140713 252.655505 
L 483.279799 247.294713 
L 482.418885 235.696073 
L 481.55797 228.495716 
L 480.697056 231.676196 
L 479.836142 243.767407 
L 478.975227 251.737773 
L 478.114313 251.339003 
L 476.392485 239.111186 
L 475.53157 237.621737 
L 474.670656 245.259256 
L 473.809742 254.639231 
L 472.948827 259.070047 
L 472.086638 244.280918 
L 471.225723 239.491128 
L 470.364809 240.904366 
L 469.503895 232.108182 
L 468.642981 236.04839 
L 467.782066 232.608767 
L 466.921152 198.065934 
L 466.060238 174.948852 
L 464.338409 216.321163 
L 463.477495 221.042756 
L 462.616581 227.147109 
L 461.755666 243.242823 
L 460.894752 251.516125 
L 460.033838 250.752271 
L 459.172923 246.342822 
L 458.310734 239.675486 
L 457.449819 224.766485 
L 456.588905 196.575124 
L 455.727991 145.083233 
L 454.867077 76.395859 
L 454.006162 50.623513 
L 453.268965 97.027167 
L 452.406775 117.818207 
L 451.545861 64.359817 
L 450.808663 39.6 
L 449.209275 148.897617 
L 448.348361 184.861115 
L 447.487447 197.234303 
L 446.626533 192.489965 
L 445.765618 179.769182 
L 444.904704 171.46136 
L 444.04379 173.707464 
L 443.182875 184.15919 
L 441.461047 223.218958 
L 440.598857 227.303597 
L 439.737943 245.641161 
L 438.877029 267.882183 
L 438.016114 279.288681 
L 437.1552 284.051834 
L 436.294286 284.125151 
L 435.433371 282.6609 
L 434.572457 285.073844 
L 432.850629 292.186393 
L 431.1288 298.288123 
L 430.267886 301.152244 
L 429.406971 303.44937 
L 428.546057 305.130037 
L 427.685143 306.35518 
L 426.822953 306.716776 
L 425.962039 306.697544 
L 424.24021 306.374441 
L 423.379296 306.72555 
L 422.518382 307.442353 
L 421.657467 308.376345 
L 420.796553 309.054933 
L 419.935639 308.840677 
L 418.21381 307.084403 
L 417.352896 306.461976 
L 416.491982 303.807802 
L 415.631067 301.930158 
L 414.770153 302.075623 
L 413.909239 302.670894 
L 413.047049 302.743813 
L 412.186135 302.610266 
L 411.325221 301.431235 
L 410.464306 297.916291 
L 409.603392 291.901799 
L 408.742478 286.925345 
L 407.881563 276.128354 
L 407.020649 261.429689 
L 406.159735 280.196217 
L 405.298821 281.851507 
L 404.437906 274.169629 
L 403.576992 262.777355 
L 402.716078 245.277459 
L 401.855163 218.358417 
L 400.994249 200.219439 
L 400.133335 205.668232 
L 399.271145 201.877277 
L 398.410231 193.012469 
L 396.688402 223.839538 
L 395.827488 230.939517 
L 394.966574 233.744026 
L 394.105659 223.981572 
L 393.244745 224.05347 
L 392.383831 238.884289 
L 391.522917 246.462065 
L 390.662002 245.31239 
L 389.801088 253.348301 
L 388.940174 262.742515 
L 388.079259 268.477718 
L 387.218345 269.786079 
L 386.357431 270.476964 
L 385.495241 276.448413 
L 383.773413 295.303271 
L 382.912498 301.597993 
L 382.051584 305.178085 
L 381.19067 307.463636 
L 380.329755 309.000553 
L 379.468841 310.062867 
L 377.747013 311.48994 
L 376.886098 311.521359 
L 376.025184 311.090099 
L 374.303355 310.865728 
L 373.442441 310.986905 
L 372.581527 310.869008 
L 371.719337 310.42399 
L 370.858423 309.523581 
L 369.997509 310.477665 
L 369.136594 314.116628 
L 368.27568 316.224927 
L 367.414766 317.829612 
L 365.570496 320.347509 
L 364.585865 320.81094 
L 362.617879 321.220772 
L 360.649893 320.82975 
L 359.666537 321.560867 
L 358.681906 322.476727 
L 357.698551 322.97277 
L 355.730565 323.276426 
L 354.745934 323.255115 
L 353.762578 323.118216 
L 351.794592 323.204156 
L 350.809961 323.07934 
L 349.826606 322.808724 
L 346.873989 323.183425 
L 344.906002 323.184432 
L 343.922647 323.365555 
L 335.066071 323.584174 
L 334.082715 323.860478 
L 333.098085 324.366215 
L 331.130098 324.976563 
L 330.146743 324.829216 
L 329.162112 324.498602 
L 328.178757 324.630917 
L 327.194126 324.995482 
L 326.21077 325.042524 
L 325.226139 325.250311 
L 323.258153 324.994744 
L 321.290167 324.124641 
L 320.306811 324.109538 
L 319.322181 323.891907 
L 317.354194 323.701503 
L 315.386208 323.870915 
L 314.402853 323.720222 
L 312.434866 323.796203 
L 309.482249 324.550419 
L 308.498894 324.912252 
L 307.514263 325.400356 
L 306.530907 324.421019 
L 305.546277 324.534754 
L 304.562921 324.484299 
L 302.594935 324.137754 
L 290.787017 323.012147 
L 288.819031 322.450822 
L 287.8344 321.747777 
L 285.866414 319.782048 
L 284.883058 319.408273 
L 283.898427 319.304092 
L 282.915072 320.094128 
L 281.930441 318.038625 
L 280.947086 318.160951 
L 279.962455 320.692313 
L 278.979099 322.733914 
L 277.994469 323.600114 
L 277.011113 323.629935 
L 273.075141 323.388071 
L 265.203195 323.049672 
L 261.267223 322.530393 
L 259.299237 322.207948 
L 256.346619 322.152457 
L 248.474674 321.907891 
L 246.506688 321.832103 
L 242.570715 321.839697 
L 237.651387 321.260379 
L 236.666757 320.930809 
L 235.683401 319.816863 
L 234.69877 319.116261 
L 233.715415 320.103873 
L 232.730784 320.24602 
L 231.747429 320.062448 
L 228.794811 319.0204 
L 226.826825 317.727017 
L 225.965911 316.831088 
L 224.244082 314.487747 
L 223.383168 312.856111 
L 222.522254 310.353952 
L 221.661339 305.763429 
L 220.800425 298.039586 
L 219.078597 277.871908 
L 218.217682 279.233483 
L 217.355493 287.198767 
L 216.494578 291.27431 
L 215.633664 291.705758 
L 214.77275 290.445777 
L 213.911835 287.705852 
L 213.050921 283.567391 
L 212.190007 277.405501 
L 211.329093 270.347043 
L 210.468178 266.747097 
L 209.607264 266.305676 
L 208.74635 270.114489 
L 207.885435 277.138159 
L 207.024521 281.320374 
L 206.163607 278.986617 
L 205.302693 272.643728 
L 204.441778 277.131792 
L 203.579589 293.802166 
L 202.718674 304.916501 
L 201.85776 309.925056 
L 200.996846 313.803665 
L 200.135931 316.824815 
L 199.275017 318.515207 
L 198.291662 319.349566 
L 197.307031 319.068483 
L 196.323675 318.143976 
L 195.339045 317.710767 
L 194.355689 318.683737 
L 193.371058 320.03196 
L 192.387703 320.680197 
L 191.403072 320.952199 
L 189.435086 321.088445 
L 187.467099 320.954452 
L 182.547771 320.890619 
L 172.70784 320.336511 
L 167.787237 320.10942 
L 164.835895 319.914786 
L 154.995963 319.553341 
L 153.027977 319.338358 
L 150.07536 318.840343 
L 148.107374 318.334443 
L 146.139387 317.629837 
L 143.434203 316.46187 
L 142.572014 316.626737 
L 141.711099 317.029091 
L 139.989271 318.322553 
L 138.021285 319.030808 
L 137.037929 319.055377 
L 135.069943 318.177753 
L 134.085312 318.348863 
L 132.117326 320.526817 
L 131.13397 321.026435 
L 130.149339 321.32227 
L 129.165984 321.479526 
L 127.197998 321.443399 
L 126.213367 321.074966 
L 125.230011 320.385101 
L 124.245381 319.318779 
L 123.262025 317.979028 
L 122.401111 315.828959 
L 120.679282 301.757466 
L 119.818368 308.751356 
L 118.957454 310.469244 
L 117.23435 301.272 
L 116.373435 304.407249 
L 115.512521 308.707619 
L 114.651607 309.718297 
L 113.790693 309.74913 
L 112.929778 302.769822 
L 112.068864 287.108705 
L 111.20795 284.002237 
L 110.347035 305.006965 
L 109.486121 318.799367 
L 108.625207 325.521879 
L 107.640576 327.644242 
L 106.657221 328.487921 
L 105.67259 329.123227 
L 104.689234 329.460785 
L 103.704603 329.667108 
L 100.753262 329.761316 
L 96.817289 329.822761 
L 95.832658 329.680362 
L 93.864672 329.764136 
L 91.896686 329.732972 
L 90.91333 329.899547 
L 89.928699 329.702943 
L 84.024741 329.796659 
L 83.041385 329.711586 
L 78.120782 329.816679 
L 75.16944 329.827776 
L 72.216823 329.884407 
L 72.216823 329.884407 
" style="fill:none;stroke:#4c72b0;stroke-linecap:round;stroke-width:1.75;"/>
   </g>
   <g id="line2d_44">
    <path clip-path="url(#p06623708d0)" d="M 505.666121 137.49889 
L 504.805207 148.066447 
L 503.944293 152.010029 
L 503.083378 140.527113 
L 502.222464 123.473371 
L 501.36155 112.947872 
L 499.638446 89.1255 
L 497.055703 60.6871 
L 495.457591 48.743653 
L 493.980645 39.6 
L 493.243447 45.545978 
L 492.504974 68.779323 
L 491.644059 76.575914 
L 490.783145 76.576057 
L 489.922231 71.557502 
L 489.061317 68.510691 
L 488.200402 66.293517 
L 487.339488 71.637174 
L 486.478574 81.008622 
L 485.617659 94.596829 
L 484.756745 101.283281 
L 483.894555 100.390672 
L 483.033641 95.331203 
L 482.172727 88.992317 
L 481.311813 84.040404 
L 480.450898 84.84747 
L 479.589984 91.3965 
L 478.72907 94.550613 
L 477.868155 91.947314 
L 477.007241 88.208372 
L 476.146327 89.186534 
L 475.285413 97.066191 
L 474.424498 106.104151 
L 473.563584 111.357758 
L 472.70267 112.659513 
L 471.841755 105.381262 
L 470.980841 92.280205 
L 470.118651 98.821975 
L 469.257737 107.39917 
L 468.396823 110.041247 
L 467.535909 101.322576 
L 466.674994 89.856159 
L 465.81408 93.052174 
L 464.953166 102.617355 
L 464.092251 106.629838 
L 463.231337 106.397038 
L 462.370423 110.106192 
L 461.509509 112.204564 
L 460.648594 106.497653 
L 459.78768 98.10502 
L 458.926766 96.05494 
L 458.065851 95.504211 
L 457.204937 87.770435 
L 454.620919 54.409452 
L 453.883721 54.869263 
L 453.145248 71.497989 
L 452.284334 73.097323 
L 451.423419 59.884666 
L 450.684946 69.051345 
L 449.824032 92.336772 
L 448.963118 107.261234 
L 448.102203 115.941796 
L 447.241289 118.081743 
L 446.380375 115.374702 
L 445.519461 112.212097 
L 444.658546 110.020304 
L 443.797632 109.193335 
L 442.936718 111.239162 
L 442.075803 120.189706 
L 441.214889 132.652085 
L 440.353975 141.408106 
L 439.493061 152.884748 
L 438.630871 158.947902 
L 437.769957 162.245442 
L 436.909042 163.07593 
L 436.048128 162.600856 
L 435.187214 161.842644 
L 433.465385 161.340954 
L 432.604471 161.536005 
L 431.743557 161.334549 
L 430.882642 160.764049 
L 428.299899 157.948518 
L 427.438985 157.342333 
L 426.578071 156.535067 
L 425.717157 155.361545 
L 424.854967 153.909841 
L 423.994053 155.466449 
L 423.133138 157.371915 
L 422.272224 157.839928 
L 421.41131 158.706237 
L 420.550395 159.319828 
L 419.689481 159.234418 
L 418.828567 158.623587 
L 417.967653 158.294515 
L 417.106738 156.480982 
L 416.245824 152.801025 
L 415.38491 152.916188 
L 414.523995 155.685479 
L 413.663081 157.45094 
L 412.802167 157.730256 
L 411.941253 157.118355 
L 411.079063 154.962401 
L 408.49632 142.023117 
L 407.635406 128.58205 
L 406.774491 133.161023 
L 405.913577 146.712949 
L 405.052663 141.639137 
L 403.330834 122.071398 
L 402.46992 106.212902 
L 401.609006 85.857661 
L 400.748091 86.407627 
L 399.887177 97.258562 
L 399.026263 103.850878 
L 398.165349 107.031679 
L 397.303159 116.387766 
L 396.442245 135.487725 
L 395.58133 147.171887 
L 394.720416 148.276005 
L 393.859502 139.438059 
L 392.998587 143.875683 
L 392.137673 153.620488 
L 390.415845 164.997662 
L 389.55493 173.62172 
L 387.833102 185.471189 
L 386.972187 188.939111 
L 386.111273 190.689353 
L 385.250359 192.175385 
L 384.389445 192.014481 
L 383.527255 193.378956 
L 382.666341 193.447867 
L 381.805426 193.665627 
L 380.944512 194.041854 
L 379.222683 194.077252 
L 378.361769 193.839015 
L 377.500855 194.21557 
L 376.639941 193.7095 
L 375.779026 192.916551 
L 374.918112 192.467354 
L 374.057198 191.771904 
L 373.196283 191.648773 
L 372.335369 190.846687 
L 371.474455 191.324476 
L 370.613541 192.678431 
L 368.890437 199.968784 
L 368.029522 201.054807 
L 367.168608 202.890268 
L 366.307694 202.921031 
L 365.446779 204.101396 
L 364.585865 203.988551 
L 363.724951 203.433678 
L 362.864037 203.845604 
L 362.003122 203.180259 
L 361.142208 202.827056 
L 360.281294 202.696825 
L 358.559465 205.61894 
L 357.698551 206.146244 
L 356.837637 205.877651 
L 355.975447 206.093513 
L 355.114533 205.813794 
L 354.253618 205.258279 
L 353.392704 205.312294 
L 352.53179 205.610435 
L 350.809961 205.518827 
L 349.949047 205.220587 
L 349.088133 205.575523 
L 347.366304 205.595016 
L 346.50539 205.829499 
L 345.644475 205.790468 
L 344.783561 205.542753 
L 343.922647 206.148739 
L 342.200818 206.302181 
L 340.477714 206.931043 
L 339.6168 207.090743 
L 337.894971 207.965397 
L 335.312229 210.240628 
L 333.5904 213.382732 
L 331.007657 220.597111 
L 330.146743 220.55122 
L 329.285829 217.961904 
L 328.424914 217.325938 
L 327.562725 217.813335 
L 326.70181 219.987425 
L 324.979982 221.617814 
L 324.119067 221.964939 
L 323.258153 221.461822 
L 320.67541 214.365996 
L 319.814496 213.211616 
L 318.953582 212.626574 
L 317.231753 211.213418 
L 316.370839 210.788508 
L 314.64901 211.028848 
L 313.786821 210.798999 
L 312.925906 210.684499 
L 312.064992 211.091641 
L 311.204078 211.933164 
L 310.343163 213.941043 
L 308.621335 218.665068 
L 307.760421 222.508491 
L 306.899506 224.542998 
L 306.038592 221.172579 
L 305.177678 219.967209 
L 304.316763 219.41173 
L 302.594935 217.106406 
L 300.873106 215.697994 
L 300.010917 215.279131 
L 299.150002 214.577408 
L 296.567259 212.980205 
L 294.845431 212.296083 
L 293.123602 211.434259 
L 290.540859 210.509569 
L 289.679945 210.364541 
L 288.819031 210.347197 
L 287.958117 210.127679 
L 284.513184 210.205555 
L 283.65227 210.624736 
L 282.791355 210.578694 
L 281.930441 209.652083 
L 281.069527 210.20634 
L 279.347698 211.896329 
L 278.486784 212.135491 
L 276.764955 212.135042 
L 275.043127 212.225037 
L 274.182213 212.357648 
L 271.598194 212.428144 
L 264.71088 212.844273 
L 261.267223 212.951289 
L 256.100462 213.256547 
L 255.239547 213.421123 
L 253.517719 213.539221 
L 247.491319 214.201045 
L 245.76949 214.588456 
L 244.046386 215.056713 
L 243.185472 215.191052 
L 240.602729 215.146224 
L 237.159072 214.639957 
L 236.298158 214.204579 
L 235.437243 213.27831 
L 234.576329 213.186985 
L 233.715415 213.92409 
L 232.854501 213.926155 
L 231.993586 213.668227 
L 229.409568 212.405685 
L 228.548654 211.856987 
L 226.826825 210.197224 
L 225.965911 209.008203 
L 225.104997 207.539341 
L 224.244082 205.792136 
L 223.383168 203.27313 
L 222.522254 199.352544 
L 221.661339 193.091725 
L 219.939511 176.150762 
L 219.078597 170.671032 
L 218.217682 175.520776 
L 217.355493 184.278589 
L 216.494578 188.182174 
L 215.633664 187.760673 
L 214.77275 185.217359 
L 213.911835 181.522876 
L 213.050921 177.203586 
L 211.329093 166.754383 
L 210.468178 165.799714 
L 209.607264 168.005473 
L 208.74635 174.065375 
L 207.885435 181.604361 
L 207.024521 186.418829 
L 206.163607 187.057901 
L 205.302693 186.229205 
L 204.441778 194.719186 
L 203.579589 209.631691 
L 202.718674 217.859052 
L 201.85776 221.118889 
L 200.996846 222.251068 
L 200.135931 220.304846 
L 199.275017 218.840171 
L 197.553189 226.752005 
L 196.692274 227.678345 
L 195.83136 227.834502 
L 194.970446 228.361466 
L 194.109531 229.187227 
L 193.248617 229.536736 
L 192.387703 229.319524 
L 191.526789 229.364958 
L 189.803685 229.237313 
L 188.94277 229.289072 
L 185.499113 228.754521 
L 184.638199 228.68462 
L 182.055456 228.229445 
L 181.194542 228.061619 
L 180.333627 228.022388 
L 179.472713 227.731396 
L 175.166866 227.125325 
L 165.696809 226.541816 
L 163.114066 226.634662 
L 162.251877 226.886158 
L 155.364562 227.739678 
L 153.642734 227.832032 
L 152.781819 228.018662 
L 151.059991 228.005928 
L 148.475973 228.28781 
L 145.89323 228.371641 
L 143.310487 228.561581 
L 141.588658 229.568976 
L 139.86683 230.817802 
L 137.284087 231.813052 
L 134.700069 232.057646 
L 133.839154 232.615828 
L 132.117326 234.30995 
L 131.256411 234.773496 
L 128.673669 235.423484 
L 127.812754 235.499188 
L 126.95184 235.974381 
L 125.230011 235.76554 
L 124.369097 235.916764 
L 123.508183 235.896712 
L 122.647269 235.503871 
L 121.786354 234.695119 
L 120.92544 233.105963 
L 119.202336 236.489221 
L 118.341422 235.643034 
L 117.480507 233.493238 
L 116.619593 234.98138 
L 115.758679 235.981993 
L 114.897765 235.248224 
L 114.03685 235.298469 
L 113.175936 234.540984 
L 112.315022 231.144232 
L 111.454107 230.11946 
L 109.732279 239.574789 
L 108.871365 241.793123 
L 108.01045 241.670925 
L 107.149536 241.929663 
L 106.287346 241.668546 
L 105.426432 242.024816 
L 104.565518 241.948785 
L 103.704603 242.731835 
L 101.982775 242.542873 
L 99.400032 242.909147 
L 98.539118 242.500615 
L 97.678203 242.729543 
L 96.817289 243.162413 
L 95.956375 242.630272 
L 95.095461 243.231818 
L 94.234546 243.157 
L 93.373632 242.863898 
L 92.511442 243.681611 
L 91.650528 242.89623 
L 90.789614 243.782975 
L 89.928699 243.328133 
L 88.206871 243.888214 
L 85.624128 243.773562 
L 83.902299 244.390158 
L 83.041385 244.169998 
L 82.180471 244.327524 
L 80.458642 244.475332 
L 72.709138 245.204151 
L 72.709138 245.204151 
" style="fill:none;stroke:#55a868;stroke-linecap:round;stroke-width:1.75;"/>
   </g>
   <g id="line2d_45">
    <path clip-path="url(#p06623708d0)" d="M 505.666121 254.145043 
L 504.805207 267.774865 
L 503.944293 275.976789 
L 503.083378 277.268412 
L 502.222464 275.558262 
L 501.36155 273.369294 
L 500.500635 269.161872 
L 497.916617 252.407921 
L 497.055703 250.720841 
L 496.194789 254.136526 
L 495.333874 256.650708 
L 494.47296 256.470642 
L 493.612046 255.19815 
L 492.751131 250.322944 
L 491.890217 232.682444 
L 491.029303 244.842507 
L 490.168389 251.089809 
L 488.44656 247.825337 
L 487.585646 250.342793 
L 485.862542 264.885196 
L 485.001627 266.185702 
L 484.140713 260.316279 
L 483.279799 248.149045 
L 481.55797 217.65935 
L 480.697056 216.473563 
L 479.836142 231.227597 
L 478.975227 248.399633 
L 478.114313 257.668561 
L 477.253399 259.616108 
L 476.392485 259.038771 
L 475.53157 259.295886 
L 474.670656 263.493119 
L 472.948827 275.606254 
L 472.086638 261.799809 
L 471.225723 208.171161 
L 470.364809 227.002398 
L 468.642981 302.947831 
L 467.782066 306.432134 
L 466.921152 305.033815 
L 465.199323 299.117545 
L 464.338409 295.472972 
L 463.477495 291.341709 
L 462.616581 286.486007 
L 461.755666 279.84451 
L 460.033838 264.752728 
L 459.172923 261.887532 
L 458.310734 264.118325 
L 457.449819 262.996446 
L 456.588905 258.848385 
L 455.727991 256.048827 
L 454.867077 255.279956 
L 454.006162 251.980446 
L 453.145248 246.406643 
L 451.423419 239.010131 
L 449.701591 228.055814 
L 447.979762 222.479608 
L 447.118848 216.969684 
L 444.53483 191.611079 
L 443.673915 186.945546 
L 442.813001 185.799007 
L 441.952087 188.395234 
L 441.091173 194.893966 
L 440.230258 205.586683 
L 437.647515 242.711984 
L 436.786601 249.958983 
L 435.925687 254.994689 
L 434.203858 262.69377 
L 432.48203 270.029899 
L 431.621115 273.282802 
L 430.758926 275.841208 
L 429.898011 277.993478 
L 429.037097 279.782144 
L 428.176183 281.848674 
L 424.732526 292.588109 
L 423.010697 303.600914 
L 422.149783 307.652422 
L 421.288869 310.287736 
L 420.427954 311.271623 
L 419.56704 311.121159 
L 417.845211 308.532848 
L 416.983022 305.236986 
L 416.122107 299.517371 
L 415.261193 296.628037 
L 414.400279 296.297563 
L 413.539365 295.431692 
L 412.67845 293.138742 
L 411.817536 289.674549 
L 410.956622 283.939303 
L 410.095707 274.804632 
L 408.373879 250.726505 
L 407.512965 225.643425 
L 406.65205 217.316448 
L 405.791136 215.818634 
L 404.930222 192.147519 
L 403.207118 127.062786 
L 402.346203 78.975803 
L 401.485289 39.6 
L 400.748091 57.291207 
L 400.009618 100.938929 
L 399.148704 130.084195 
L 396.565961 167.872369 
L 395.705047 175.105484 
L 394.844133 168.783458 
L 393.983218 143.723097 
L 393.122304 147.274818 
L 392.26139 182.336958 
L 391.3992 203.460034 
L 390.538286 219.480939 
L 389.677371 240.628959 
L 387.094629 284.536967 
L 385.3728 303.707514 
L 383.650971 312.947106 
L 382.790057 315.897944 
L 381.929143 318.042057 
L 381.068229 319.815061 
L 380.083598 321.183865 
L 379.100242 322.353494 
L 378.115611 323.22737 
L 377.132256 323.537625 
L 376.147625 323.230795 
L 374.179639 322.30006 
L 373.196283 321.896001 
L 372.211653 321.124837 
L 371.228297 320.850644 
L 370.243666 322.606976 
L 369.260311 326.651861 
L 368.27568 329.551335 
L 367.292325 331.972672 
L 365.324338 335.391085 
L 364.339707 336.126539 
L 362.371721 337.207281 
L 360.403735 336.966965 
L 359.420379 337.910754 
L 358.435749 339.262072 
L 357.452393 340.066174 
L 356.467762 340.382688 
L 355.484407 340.436826 
L 354.499776 339.606822 
L 353.516421 338.25825 
L 352.53179 339.768966 
L 351.548434 340.929175 
L 350.563803 341.143188 
L 349.580448 341.058801 
L 345.644475 341.344721 
L 344.659845 341.33141 
L 343.676489 341.568669 
L 338.755886 342.124172 
L 334.819913 342.154902 
L 331.868571 342.28106 
L 330.883941 342.112223 
L 329.900585 341.805968 
L 327.932599 342.006445 
L 326.947968 342.332123 
L 323.996626 342.128586 
L 323.011995 341.771534 
L 322.02864 341.803333 
L 321.044009 341.661354 
L 320.060654 342.048143 
L 319.076023 341.932864 
L 317.108037 341.997483 
L 316.124681 342.190488 
L 314.156695 342.132455 
L 313.172064 342.112555 
L 312.188709 342.325074 
L 311.204078 342.688442 
L 308.252736 342.751645 
L 307.268105 342.306375 
L 306.28475 341.70092 
L 305.300119 342.203362 
L 304.316763 341.98213 
L 300.380791 341.863003 
L 299.39616 341.946015 
L 297.428174 341.710359 
L 296.444818 341.773579 
L 290.540859 341.365674 
L 289.556229 341.398282 
L 288.572873 341.312325 
L 287.588242 341.087853 
L 286.604887 340.624516 
L 282.668914 340.89508 
L 281.684283 340.508866 
L 280.700928 340.603985 
L 279.716297 341.355678 
L 278.732942 341.733511 
L 277.748311 341.868086 
L 266.925024 340.889231 
L 265.940393 340.690223 
L 264.957038 340.367136 
L 262.004421 338.829909 
L 260.036434 338.974571 
L 258.068448 339.328334 
L 254.132475 339.153834 
L 252.164489 339.0692 
L 239.373216 337.890557 
L 237.40523 337.510965 
L 236.420599 337.056258 
L 235.437243 335.914293 
L 234.452613 335.634704 
L 233.469257 336.185113 
L 232.484626 336.079354 
L 230.51664 335.376629 
L 228.548654 334.471263 
L 226.580667 332.942905 
L 225.597312 331.745716 
L 224.612681 330.287904 
L 223.629326 328.291689 
L 222.644695 324.78311 
L 221.661339 318.656914 
L 220.800425 310.028903 
L 219.939511 299.940418 
L 219.078597 291.23564 
L 218.217682 291.933609 
L 217.355493 299.12028 
L 216.494578 303.15164 
L 215.633664 303.084383 
L 214.77275 300.773181 
L 213.911835 297.030852 
L 213.050921 292.360796 
L 211.329093 280.340443 
L 210.468178 277.155911 
L 209.607264 276.045283 
L 208.74635 278.125272 
L 207.885435 283.474488 
L 207.024521 287.803541 
L 206.163607 287.946345 
L 205.302693 284.446745 
L 204.441778 288.390678 
L 203.579589 302.19607 
L 202.718674 311.928848 
L 201.85776 316.579779 
L 200.996846 319.423702 
L 200.01349 318.27368 
L 199.152576 316.303252 
L 198.291662 320.13415 
L 197.307031 325.267364 
L 196.323675 326.98455 
L 195.339045 327.439308 
L 193.371058 329.693632 
L 192.387703 330.186869 
L 190.419717 330.56726 
L 189.435086 330.758241 
L 183.531127 330.636558 
L 180.579785 330.42771 
L 178.611799 330.182366 
L 176.643813 329.893182 
L 165.81925 328.618928 
L 163.851264 328.374008 
L 157.947305 327.829489 
L 155.979319 327.522092 
L 153.027977 326.771652 
L 150.07536 325.677679 
L 148.107374 324.653519 
L 146.139387 323.38374 
L 144.171401 321.835525 
L 143.188046 321.677199 
L 142.203415 322.501772 
L 141.220059 324.068843 
L 140.235429 325.980341 
L 139.252073 327.424927 
L 138.267442 328.380811 
L 137.284087 328.726169 
L 136.299456 328.142061 
L 135.316101 327.009387 
L 134.33147 326.885692 
L 133.348114 328.759656 
L 132.363483 331.34255 
L 131.380128 332.912675 
L 130.395497 333.753549 
L 129.412142 334.411296 
L 128.427511 334.75223 
L 127.444155 335.244044 
L 124.491538 337.243748 
L 122.523552 338.900311 
L 120.555566 339.971675 
L 119.57221 340.288057 
L 118.587579 340.373929 
L 117.604224 338.032892 
L 116.619593 340.248531 
L 115.636238 341.855045 
L 114.651607 341.997377 
L 113.668251 342.021432 
L 112.683621 342.613706 
L 111.700265 342.676787 
L 110.715634 343.076135 
L 109.732279 343.751133 
L 108.625207 344.124532 
L 106.411063 344.086702 
L 103.089847 344.407047 
L 86.485042 344.412918 
L 85.37797 344.369194 
L 84.270898 344.471456 
L 79.84261 344.433231 
L 76.52267 344.495987 
L 74.308526 344.497305 
L 73.201454 344.523924 
L 73.201454 344.523924 
" style="fill:none;stroke:#c44e52;stroke-linecap:round;stroke-width:1.75;"/>
   </g>
   <g id="patch_3">
    <path d="M 72 39.6 
L 518.4 39.6 
" style="fill:none;"/>
   </g>
   <g id="patch_4">
    <path d="M 518.4 346.5 
L 518.4 39.6 
" style="fill:none;"/>
   </g>
   <g id="patch_5">
    <path d="M 72 346.5 
L 518.4 346.5 
" style="fill:none;"/>
   </g>
   <g id="patch_6">
    <path d="M 72 346.5 
L 72 39.6 
" style="fill:none;"/>
   </g>
   <g id="text_17">
    <!-- Extra Duty Rubber -->
    <defs>
     <path d="M 0.734375 0 
L 19.671875 26.953125 
L 2.15625 51.859375 
L 13.140625 51.859375 
L 21.09375 39.703125 
Q 23.34375 36.234375 24.703125 33.890625 
Q 26.859375 37.109375 28.65625 39.59375 
L 37.40625 51.859375 
L 47.90625 51.859375 
L 29.984375 27.4375 
L 49.265625 0 
L 38.484375 0 
L 27.828125 16.109375 
L 25 20.453125 
L 11.375 0 
z
" id="ArialMT-78"/>
     <path d="M 6.203125 -19.96875 
L 5.21875 -11.71875 
Q 8.109375 -12.5 10.25 -12.5 
Q 13.1875 -12.5 14.9375 -11.515625 
Q 16.703125 -10.546875 17.828125 -8.796875 
Q 18.65625 -7.46875 20.515625 -2.25 
Q 20.75 -1.515625 21.296875 -0.09375 
L 1.609375 51.859375 
L 11.078125 51.859375 
L 21.875 21.828125 
Q 23.96875 16.109375 25.640625 9.8125 
Q 27.15625 15.875 29.25 21.625 
L 40.328125 51.859375 
L 49.125 51.859375 
L 29.390625 -0.875 
Q 26.21875 -9.421875 24.46875 -12.640625 
Q 22.125 -17 19.09375 -19.015625 
Q 16.0625 -21.046875 11.859375 -21.046875 
Q 9.328125 -21.046875 6.203125 -19.96875 
" id="ArialMT-79"/>
     <path d="M 25.78125 7.859375 
L 27.046875 0.09375 
Q 23.34375 -0.6875 20.40625 -0.6875 
Q 15.625 -0.6875 12.984375 0.828125 
Q 10.359375 2.34375 9.28125 4.8125 
Q 8.203125 7.28125 8.203125 15.1875 
L 8.203125 45.015625 
L 1.765625 45.015625 
L 1.765625 51.859375 
L 8.203125 51.859375 
L 8.203125 64.703125 
L 16.9375 69.96875 
L 16.9375 51.859375 
L 25.78125 51.859375 
L 25.78125 45.015625 
L 16.9375 45.015625 
L 16.9375 14.703125 
Q 16.9375 10.9375 17.40625 9.859375 
Q 17.875 8.796875 18.921875 8.15625 
Q 19.96875 7.515625 21.921875 7.515625 
Q 23.390625 7.515625 25.78125 7.859375 
" id="ArialMT-74"/>
     <path d="M 40.578125 0 
L 40.578125 7.625 
Q 34.515625 -1.171875 24.125 -1.171875 
Q 19.53125 -1.171875 15.546875 0.578125 
Q 11.578125 2.34375 9.640625 5 
Q 7.71875 7.671875 6.9375 11.53125 
Q 6.390625 14.109375 6.390625 19.734375 
L 6.390625 51.859375 
L 15.1875 51.859375 
L 15.1875 23.09375 
Q 15.1875 16.21875 15.71875 13.8125 
Q 16.546875 10.359375 19.234375 8.375 
Q 21.921875 6.390625 25.875 6.390625 
Q 29.828125 6.390625 33.296875 8.421875 
Q 36.765625 10.453125 38.203125 13.9375 
Q 39.65625 17.4375 39.65625 24.078125 
L 39.65625 51.859375 
L 48.4375 51.859375 
L 48.4375 0 
z
" id="ArialMT-75"/>
     <path d="M 7.90625 0 
L 7.90625 71.578125 
L 59.671875 71.578125 
L 59.671875 63.140625 
L 17.390625 63.140625 
L 17.390625 41.21875 
L 56.984375 41.21875 
L 56.984375 32.8125 
L 17.390625 32.8125 
L 17.390625 8.453125 
L 61.328125 8.453125 
L 61.328125 0 
z
" id="ArialMT-45"/>
     <path d="M 7.71875 0 
L 7.71875 71.578125 
L 32.375 71.578125 
Q 40.71875 71.578125 45.125 70.5625 
Q 51.265625 69.140625 55.609375 65.4375 
Q 61.28125 60.640625 64.078125 53.1875 
Q 66.890625 45.75 66.890625 36.1875 
Q 66.890625 28.03125 64.984375 21.734375 
Q 63.09375 15.4375 60.109375 11.296875 
Q 57.125 7.171875 53.578125 4.796875 
Q 50.046875 2.4375 45.046875 1.21875 
Q 40.046875 0 33.546875 0 
z
M 17.1875 8.453125 
L 32.46875 8.453125 
Q 39.546875 8.453125 43.578125 9.765625 
Q 47.609375 11.078125 50 13.484375 
Q 53.375 16.84375 55.25 22.53125 
Q 57.125 28.21875 57.125 36.328125 
Q 57.125 47.5625 53.4375 53.59375 
Q 49.75 59.625 44.484375 61.671875 
Q 40.671875 63.140625 32.234375 63.140625 
L 17.1875 63.140625 
z
" id="ArialMT-44"/>
     <path d="M 7.859375 0 
L 7.859375 71.578125 
L 39.59375 71.578125 
Q 49.171875 71.578125 54.140625 69.640625 
Q 59.125 67.71875 62.109375 62.828125 
Q 65.09375 57.953125 65.09375 52.046875 
Q 65.09375 44.4375 60.15625 39.203125 
Q 55.21875 33.984375 44.921875 32.5625 
Q 48.6875 30.765625 50.640625 29 
Q 54.78125 25.203125 58.5 19.484375 
L 70.953125 0 
L 59.03125 0 
L 49.5625 14.890625 
Q 45.40625 21.34375 42.71875 24.75 
Q 40.046875 28.171875 37.921875 29.53125 
Q 35.796875 30.90625 33.59375 31.453125 
Q 31.984375 31.78125 28.328125 31.78125 
L 17.328125 31.78125 
L 17.328125 0 
z
M 17.328125 39.984375 
L 37.703125 39.984375 
Q 44.1875 39.984375 47.84375 41.328125 
Q 51.515625 42.671875 53.421875 45.625 
Q 55.328125 48.578125 55.328125 52.046875 
Q 55.328125 57.125 51.640625 60.390625 
Q 47.953125 63.671875 39.984375 63.671875 
L 17.328125 63.671875 
z
" id="ArialMT-52"/>
     <path id="ArialMT-20"/>
    </defs>
    <g style="fill:#262626;" transform="translate(245.8490625 34.6)scale(0.12 -0.12)">
     <use xlink:href="#ArialMT-45"/>
     <use x="66.69921875" xlink:href="#ArialMT-78"/>
     <use x="116.69921875" xlink:href="#ArialMT-74"/>
     <use x="144.482421875" xlink:href="#ArialMT-72"/>
     <use x="177.783203125" xlink:href="#ArialMT-61"/>
     <use x="233.3984375" xlink:href="#ArialMT-20"/>
     <use x="261.181640625" xlink:href="#ArialMT-44"/>
     <use x="333.3984375" xlink:href="#ArialMT-75"/>
     <use x="389.013671875" xlink:href="#ArialMT-74"/>
     <use x="416.796875" xlink:href="#ArialMT-79"/>
     <use x="466.796875" xlink:href="#ArialMT-20"/>
     <use x="494.580078125" xlink:href="#ArialMT-52"/>
     <use x="566.796875" xlink:href="#ArialMT-75"/>
     <use x="622.412109375" xlink:href="#ArialMT-62"/>
     <use x="678.02734375" xlink:href="#ArialMT-62"/>
     <use x="733.642578125" xlink:href="#ArialMT-65"/>
     <use x="789.2578125" xlink:href="#ArialMT-72"/>
    </g>
   </g>
   <g id="legend_1">
    <g id="line2d_46">
     <path d="M 81 52.379687 
L 101 52.379687 
" style="fill:none;stroke:#4c72b0;stroke-linecap:round;stroke-width:1.75;"/>
    </g>
    <g id="line2d_47"/>
    <g id="text_18">
     <!-- Dunlop_HardCourt -->
     <defs>
      <path d="M 8.015625 0 
L 8.015625 71.578125 
L 17.484375 71.578125 
L 17.484375 42.1875 
L 54.6875 42.1875 
L 54.6875 71.578125 
L 64.15625 71.578125 
L 64.15625 0 
L 54.6875 0 
L 54.6875 33.734375 
L 17.484375 33.734375 
L 17.484375 0 
z
" id="ArialMT-48"/>
      <path d="M 40.234375 0 
L 40.234375 6.546875 
Q 35.296875 -1.171875 25.734375 -1.171875 
Q 19.53125 -1.171875 14.328125 2.25 
Q 9.125 5.671875 6.265625 11.796875 
Q 3.421875 17.921875 3.421875 25.875 
Q 3.421875 33.640625 6 39.96875 
Q 8.59375 46.296875 13.765625 49.65625 
Q 18.953125 53.03125 25.34375 53.03125 
Q 30.03125 53.03125 33.6875 51.046875 
Q 37.359375 49.078125 39.65625 45.90625 
L 39.65625 71.578125 
L 48.390625 71.578125 
L 48.390625 0 
z
M 12.453125 25.875 
Q 12.453125 15.921875 16.640625 10.984375 
Q 20.84375 6.0625 26.5625 6.0625 
Q 32.328125 6.0625 36.34375 10.765625 
Q 40.375 15.484375 40.375 25.140625 
Q 40.375 35.796875 36.265625 40.765625 
Q 32.171875 45.75 26.171875 45.75 
Q 20.3125 45.75 16.375 40.96875 
Q 12.453125 36.1875 12.453125 25.875 
" id="ArialMT-64"/>
      <path d="M 58.796875 25.09375 
L 68.265625 22.703125 
Q 65.28125 11.03125 57.546875 4.90625 
Q 49.8125 -1.21875 38.625 -1.21875 
Q 27.046875 -1.21875 19.796875 3.484375 
Q 12.546875 8.203125 8.765625 17.140625 
Q 4.984375 26.078125 4.984375 36.328125 
Q 4.984375 47.515625 9.25 55.828125 
Q 13.53125 64.15625 21.40625 68.46875 
Q 29.296875 72.796875 38.765625 72.796875 
Q 49.515625 72.796875 56.828125 67.328125 
Q 64.15625 61.859375 67.046875 51.953125 
L 57.71875 49.75 
Q 55.21875 57.5625 50.484375 61.125 
Q 45.75 64.703125 38.578125 64.703125 
Q 30.328125 64.703125 24.78125 60.734375 
Q 19.234375 56.78125 16.984375 50.109375 
Q 14.75 43.453125 14.75 36.375 
Q 14.75 27.25 17.40625 20.4375 
Q 20.0625 13.625 25.671875 10.25 
Q 31.296875 6.890625 37.84375 6.890625 
Q 45.796875 6.890625 51.3125 11.46875 
Q 56.84375 16.0625 58.796875 25.09375 
" id="ArialMT-43"/>
      <path d="M 6.59375 -19.875 
L 6.59375 51.859375 
L 14.59375 51.859375 
L 14.59375 45.125 
Q 17.4375 49.078125 21 51.046875 
Q 24.5625 53.03125 29.640625 53.03125 
Q 36.28125 53.03125 41.359375 49.609375 
Q 46.4375 46.1875 49.015625 39.953125 
Q 51.609375 33.734375 51.609375 26.3125 
Q 51.609375 18.359375 48.75 11.984375 
Q 45.90625 5.609375 40.453125 2.21875 
Q 35.015625 -1.171875 29 -1.171875 
Q 24.609375 -1.171875 21.109375 0.6875 
Q 17.625 2.546875 15.375 5.375 
L 15.375 -19.875 
z
M 14.546875 25.640625 
Q 14.546875 15.625 18.59375 10.84375 
Q 22.65625 6.0625 28.421875 6.0625 
Q 34.28125 6.0625 38.453125 11.015625 
Q 42.625 15.96875 42.625 26.375 
Q 42.625 36.28125 38.546875 41.203125 
Q 34.46875 46.140625 28.8125 46.140625 
Q 23.1875 46.140625 18.859375 40.890625 
Q 14.546875 35.640625 14.546875 25.640625 
" id="ArialMT-70"/>
      <path d="M 6.390625 0 
L 6.390625 71.578125 
L 15.1875 71.578125 
L 15.1875 0 
z
" id="ArialMT-6c"/>
      <path d="M -1.515625 -19.875 
L -1.515625 -13.53125 
L 56.734375 -13.53125 
L 56.734375 -19.875 
z
" id="ArialMT-5f"/>
     </defs>
     <g style="fill:#262626;" transform="translate(109.0 55.8796875)scale(0.1 -0.1)">
      <use xlink:href="#ArialMT-44"/>
      <use x="72.216796875" xlink:href="#ArialMT-75"/>
      <use x="127.83203125" xlink:href="#ArialMT-6e"/>
      <use x="183.447265625" xlink:href="#ArialMT-6c"/>
      <use x="205.6640625" xlink:href="#ArialMT-6f"/>
      <use x="261.279296875" xlink:href="#ArialMT-70"/>
      <use x="316.89453125" xlink:href="#ArialMT-5f"/>
      <use x="372.509765625" xlink:href="#ArialMT-48"/>
      <use x="444.7265625" xlink:href="#ArialMT-61"/>
      <use x="500.341796875" xlink:href="#ArialMT-72"/>
      <use x="533.642578125" xlink:href="#ArialMT-64"/>
      <use x="589.2578125" xlink:href="#ArialMT-43"/>
      <use x="661.474609375" xlink:href="#ArialMT-6f"/>
      <use x="717.08984375" xlink:href="#ArialMT-75"/>
      <use x="772.705078125" xlink:href="#ArialMT-72"/>
      <use x="806.005859375" xlink:href="#ArialMT-74"/>
     </g>
    </g>
    <g id="line2d_48">
     <path d="M 81 66.525 
L 101 66.525 
" style="fill:none;stroke:#55a868;stroke-linecap:round;stroke-width:1.75;"/>
    </g>
    <g id="line2d_49"/>
    <g id="text_19">
     <!-- Penn_ExtraDuty -->
     <defs>
      <path d="M 7.71875 0 
L 7.71875 71.578125 
L 34.71875 71.578125 
Q 41.84375 71.578125 45.609375 70.90625 
Q 50.875 70.015625 54.4375 67.546875 
Q 58.015625 65.09375 60.1875 60.640625 
Q 62.359375 56.203125 62.359375 50.875 
Q 62.359375 41.75 56.546875 35.421875 
Q 50.734375 29.109375 35.546875 29.109375 
L 17.1875 29.109375 
L 17.1875 0 
z
M 17.1875 37.546875 
L 35.6875 37.546875 
Q 44.875 37.546875 48.734375 40.96875 
Q 52.59375 44.390625 52.59375 50.59375 
Q 52.59375 55.078125 50.3125 58.265625 
Q 48.046875 61.46875 44.34375 62.5 
Q 41.9375 63.140625 35.5 63.140625 
L 17.1875 63.140625 
z
" id="ArialMT-50"/>
     </defs>
     <g style="fill:#262626;" transform="translate(109.0 70.025)scale(0.1 -0.1)">
      <use xlink:href="#ArialMT-50"/>
      <use x="66.69921875" xlink:href="#ArialMT-65"/>
      <use x="122.314453125" xlink:href="#ArialMT-6e"/>
      <use x="177.9296875" xlink:href="#ArialMT-6e"/>
      <use x="233.544921875" xlink:href="#ArialMT-5f"/>
      <use x="289.16015625" xlink:href="#ArialMT-45"/>
      <use x="355.859375" xlink:href="#ArialMT-78"/>
      <use x="405.859375" xlink:href="#ArialMT-74"/>
      <use x="433.642578125" xlink:href="#ArialMT-72"/>
      <use x="466.943359375" xlink:href="#ArialMT-61"/>
      <use x="522.55859375" xlink:href="#ArialMT-44"/>
      <use x="594.775390625" xlink:href="#ArialMT-75"/>
      <use x="650.390625" xlink:href="#ArialMT-74"/>
      <use x="678.173828125" xlink:href="#ArialMT-79"/>
     </g>
    </g>
    <g id="line2d_50">
     <path d="M 81 80.7875 
L 101 80.7875 
" style="fill:none;stroke:#c44e52;stroke-linecap:round;stroke-width:1.75;"/>
    </g>
    <g id="line2d_51"/>
    <g id="text_20">
     <!-- Wilson_ExtraDuty -->
     <defs>
      <path d="M 6.640625 61.46875 
L 6.640625 71.578125 
L 15.4375 71.578125 
L 15.4375 61.46875 
z
M 6.640625 0 
L 6.640625 51.859375 
L 15.4375 51.859375 
L 15.4375 0 
z
" id="ArialMT-69"/>
      <path d="M 20.21875 0 
L 1.21875 71.578125 
L 10.9375 71.578125 
L 21.828125 24.65625 
Q 23.578125 17.28125 24.859375 10.015625 
Q 27.59375 21.484375 28.078125 23.25 
L 41.703125 71.578125 
L 53.125 71.578125 
L 63.375 35.359375 
Q 67.234375 21.875 68.953125 10.015625 
Q 70.3125 16.796875 72.515625 25.59375 
L 83.734375 71.578125 
L 93.265625 71.578125 
L 73.640625 0 
L 64.5 0 
L 49.421875 54.546875 
Q 47.515625 61.375 47.171875 62.9375 
Q 46.046875 58.015625 45.0625 54.546875 
L 29.890625 0 
z
" id="ArialMT-57"/>
     </defs>
     <g style="fill:#262626;" transform="translate(109.0 84.2875)scale(0.1 -0.1)">
      <use xlink:href="#ArialMT-57"/>
      <use x="94.384765625" xlink:href="#ArialMT-69"/>
      <use x="116.6015625" xlink:href="#ArialMT-6c"/>
      <use x="138.818359375" xlink:href="#ArialMT-73"/>
      <use x="188.818359375" xlink:href="#ArialMT-6f"/>
      <use x="244.43359375" xlink:href="#ArialMT-6e"/>
      <use x="300.048828125" xlink:href="#ArialMT-5f"/>
      <use x="355.6640625" xlink:href="#ArialMT-45"/>
      <use x="422.36328125" xlink:href="#ArialMT-78"/>
      <use x="472.36328125" xlink:href="#ArialMT-74"/>
      <use x="500.146484375" xlink:href="#ArialMT-72"/>
      <use x="533.447265625" xlink:href="#ArialMT-61"/>
      <use x="589.0625" xlink:href="#ArialMT-44"/>
      <use x="661.279296875" xlink:href="#ArialMT-75"/>
      <use x="716.89453125" xlink:href="#ArialMT-74"/>
      <use x="744.677734375" xlink:href="#ArialMT-79"/>
     </g>
    </g>
   </g>
  </g>
 </g>
 <defs>
  <clipPath id="p06623708d0">
   <rect height="306.9" width="446.4" x="72.0" y="39.6"/>
  </clipPath>
 </defs>
</svg>
