<?xml version="1.0" encoding="utf-8" standalone="no"?>
<!DOCTYPE svg PUBLIC "-//W3C//DTD SVG 1.1//EN"
  "http://www.w3.org/Graphics/SVG/1.1/DTD/svg11.dtd">
<!-- Created with matplotlib (http://matplotlib.org/) -->
<svg height="396pt" version="1.1" viewBox="0 0 576 396" width="576pt" xmlns="http://www.w3.org/2000/svg" xmlns:xlink="http://www.w3.org/1999/xlink">
 <defs>
  <style type="text/css">
*{stroke-linecap:butt;stroke-linejoin:round;stroke-miterlimit:100000;}
  </style>
 </defs>
 <g id="figure_1">
  <g id="patch_1">
   <path d="M 0 396 
L 576 396 
L 576 0 
L 0 0 
z
" style="fill:#ffffff;"/>
  </g>
  <g id="axes_1">
   <g id="patch_2">
    <path d="M 72 346.5 
L 518.4 346.5 
L 518.4 39.6 
L 72 39.6 
z
" style="fill:#eaeaf2;"/>
   </g>
   <g id="matplotlib.axis_1">
    <g id="xtick_1">
     <g id="line2d_1">
      <path clip-path="url(#pd1d5ac2470)" d="M 518.4 346.5 
L 518.4 39.6 
" style="fill:none;stroke:#ffffff;stroke-linecap:round;"/>
     </g>
     <g id="line2d_2"/>
     <g id="line2d_3"/>
     <g id="text_1">
      <!-- 500 -->
      <defs>
       <path d="M 4.15625 35.296875 
Q 4.15625 48 6.765625 55.734375 
Q 9.375 63.484375 14.515625 67.671875 
Q 19.671875 71.875 27.484375 71.875 
Q 33.25 71.875 37.59375 69.546875 
Q 41.9375 67.234375 44.765625 62.859375 
Q 47.609375 58.5 49.21875 52.21875 
Q 50.828125 45.953125 50.828125 35.296875 
Q 50.828125 22.703125 48.234375 14.96875 
Q 45.65625 7.234375 40.5 3 
Q 35.359375 -1.21875 27.484375 -1.21875 
Q 17.140625 -1.21875 11.234375 6.203125 
Q 4.15625 15.140625 4.15625 35.296875 
M 13.1875 35.296875 
Q 13.1875 17.671875 17.3125 11.828125 
Q 21.4375 6 27.484375 6 
Q 33.546875 6 37.671875 11.859375 
Q 41.796875 17.71875 41.796875 35.296875 
Q 41.796875 52.984375 37.671875 58.78125 
Q 33.546875 64.59375 27.390625 64.59375 
Q 21.34375 64.59375 17.71875 59.46875 
Q 13.1875 52.9375 13.1875 35.296875 
" id="ArialMT-30"/>
       <path d="M 4.15625 18.75 
L 13.375 19.53125 
Q 14.40625 12.796875 18.140625 9.390625 
Q 21.875 6 27.15625 6 
Q 33.5 6 37.890625 10.78125 
Q 42.28125 15.578125 42.28125 23.484375 
Q 42.28125 31 38.0625 35.34375 
Q 33.84375 39.703125 27 39.703125 
Q 22.75 39.703125 19.328125 37.765625 
Q 15.921875 35.84375 13.96875 32.765625 
L 5.71875 33.84375 
L 12.640625 70.609375 
L 48.25 70.609375 
L 48.25 62.203125 
L 19.671875 62.203125 
L 15.828125 42.96875 
Q 22.265625 47.46875 29.34375 47.46875 
Q 38.71875 47.46875 45.15625 40.96875 
Q 51.609375 34.46875 51.609375 24.265625 
Q 51.609375 14.546875 45.953125 7.46875 
Q 39.0625 -1.21875 27.15625 -1.21875 
Q 17.390625 -1.21875 11.203125 4.25 
Q 5.03125 9.71875 4.15625 18.75 
" id="ArialMT-35"/>
      </defs>
      <g style="fill:#262626;" transform="translate(510.05859375 360.6578125)scale(0.1 -0.1)">
       <use xlink:href="#ArialMT-35"/>
       <use x="55.615234375" xlink:href="#ArialMT-30"/>
       <use x="111.23046875" xlink:href="#ArialMT-30"/>
      </g>
     </g>
    </g>
    <g id="xtick_2">
     <g id="line2d_4">
      <path clip-path="url(#pd1d5ac2470)" d="M 454.628571 346.5 
L 454.628571 39.6 
" style="fill:none;stroke:#ffffff;stroke-linecap:round;"/>
     </g>
     <g id="line2d_5"/>
     <g id="line2d_6"/>
     <g id="text_2">
      <!-- 1000 -->
      <defs>
       <path d="M 37.25 0 
L 28.46875 0 
L 28.46875 56 
Q 25.296875 52.984375 20.140625 49.953125 
Q 14.984375 46.921875 10.890625 45.40625 
L 10.890625 53.90625 
Q 18.265625 57.375 23.78125 62.296875 
Q 29.296875 67.234375 31.59375 71.875 
L 37.25 71.875 
z
" id="ArialMT-31"/>
      </defs>
      <g style="fill:#262626;" transform="translate(443.506696429 360.6578125)scale(0.1 -0.1)">
       <use xlink:href="#ArialMT-31"/>
       <use x="55.615234375" xlink:href="#ArialMT-30"/>
       <use x="111.23046875" xlink:href="#ArialMT-30"/>
       <use x="166.845703125" xlink:href="#ArialMT-30"/>
      </g>
     </g>
    </g>
    <g id="xtick_3">
     <g id="line2d_7">
      <path clip-path="url(#pd1d5ac2470)" d="M 390.857143 346.5 
L 390.857143 39.6 
" style="fill:none;stroke:#ffffff;stroke-linecap:round;"/>
     </g>
     <g id="line2d_8"/>
     <g id="line2d_9"/>
     <g id="text_3">
      <!-- 1500 -->
      <g style="fill:#262626;" transform="translate(379.735267857 360.6578125)scale(0.1 -0.1)">
       <use xlink:href="#ArialMT-31"/>
       <use x="55.615234375" xlink:href="#ArialMT-35"/>
       <use x="111.23046875" xlink:href="#ArialMT-30"/>
       <use x="166.845703125" xlink:href="#ArialMT-30"/>
      </g>
     </g>
    </g>
    <g id="xtick_4">
     <g id="line2d_10">
      <path clip-path="url(#pd1d5ac2470)" d="M 327.085714 346.5 
L 327.085714 39.6 
" style="fill:none;stroke:#ffffff;stroke-linecap:round;"/>
     </g>
     <g id="line2d_11"/>
     <g id="line2d_12"/>
     <g id="text_4">
      <!-- 2000 -->
      <defs>
       <path d="M 50.34375 8.453125 
L 50.34375 0 
L 3.03125 0 
Q 2.9375 3.171875 4.046875 6.109375 
Q 5.859375 10.9375 9.828125 15.625 
Q 13.8125 20.3125 21.34375 26.46875 
Q 33.015625 36.03125 37.109375 41.625 
Q 41.21875 47.21875 41.21875 52.203125 
Q 41.21875 57.421875 37.46875 61 
Q 33.734375 64.59375 27.734375 64.59375 
Q 21.390625 64.59375 17.578125 60.78125 
Q 13.765625 56.984375 13.71875 50.25 
L 4.6875 51.171875 
Q 5.609375 61.28125 11.65625 66.578125 
Q 17.71875 71.875 27.9375 71.875 
Q 38.234375 71.875 44.234375 66.15625 
Q 50.25 60.453125 50.25 52 
Q 50.25 47.703125 48.484375 43.546875 
Q 46.734375 39.40625 42.65625 34.8125 
Q 38.578125 30.21875 29.109375 22.21875 
Q 21.1875 15.578125 18.9375 13.203125 
Q 16.703125 10.84375 15.234375 8.453125 
z
" id="ArialMT-32"/>
      </defs>
      <g style="fill:#262626;" transform="translate(315.963839286 360.6578125)scale(0.1 -0.1)">
       <use xlink:href="#ArialMT-32"/>
       <use x="55.615234375" xlink:href="#ArialMT-30"/>
       <use x="111.23046875" xlink:href="#ArialMT-30"/>
       <use x="166.845703125" xlink:href="#ArialMT-30"/>
      </g>
     </g>
    </g>
    <g id="xtick_5">
     <g id="line2d_13">
      <path clip-path="url(#pd1d5ac2470)" d="M 263.314286 346.5 
L 263.314286 39.6 
" style="fill:none;stroke:#ffffff;stroke-linecap:round;"/>
     </g>
     <g id="line2d_14"/>
     <g id="line2d_15"/>
     <g id="text_5">
      <!-- 2500 -->
      <g style="fill:#262626;" transform="translate(252.192410714 360.6578125)scale(0.1 -0.1)">
       <use xlink:href="#ArialMT-32"/>
       <use x="55.615234375" xlink:href="#ArialMT-35"/>
       <use x="111.23046875" xlink:href="#ArialMT-30"/>
       <use x="166.845703125" xlink:href="#ArialMT-30"/>
      </g>
     </g>
    </g>
    <g id="xtick_6">
     <g id="line2d_16">
      <path clip-path="url(#pd1d5ac2470)" d="M 199.542857 346.5 
L 199.542857 39.6 
" style="fill:none;stroke:#ffffff;stroke-linecap:round;"/>
     </g>
     <g id="line2d_17"/>
     <g id="line2d_18"/>
     <g id="text_6">
      <!-- 3000 -->
      <defs>
       <path d="M 4.203125 18.890625 
L 12.984375 20.0625 
Q 14.5 12.59375 18.140625 9.296875 
Q 21.78125 6 27 6 
Q 33.203125 6 37.46875 10.296875 
Q 41.75 14.59375 41.75 20.953125 
Q 41.75 27 37.796875 30.921875 
Q 33.84375 34.859375 27.734375 34.859375 
Q 25.25 34.859375 21.53125 33.890625 
L 22.515625 41.609375 
Q 23.390625 41.5 23.921875 41.5 
Q 29.546875 41.5 34.03125 44.421875 
Q 38.53125 47.359375 38.53125 53.46875 
Q 38.53125 58.296875 35.25 61.46875 
Q 31.984375 64.65625 26.8125 64.65625 
Q 21.6875 64.65625 18.265625 61.421875 
Q 14.84375 58.203125 13.875 51.765625 
L 5.078125 53.328125 
Q 6.6875 62.15625 12.390625 67.015625 
Q 18.109375 71.875 26.609375 71.875 
Q 32.46875 71.875 37.390625 69.359375 
Q 42.328125 66.84375 44.9375 62.5 
Q 47.5625 58.15625 47.5625 53.265625 
Q 47.5625 48.640625 45.0625 44.828125 
Q 42.578125 41.015625 37.703125 38.765625 
Q 44.046875 37.3125 47.5625 32.6875 
Q 51.078125 28.078125 51.078125 21.140625 
Q 51.078125 11.765625 44.234375 5.25 
Q 37.40625 -1.265625 26.953125 -1.265625 
Q 17.53125 -1.265625 11.296875 4.34375 
Q 5.078125 9.96875 4.203125 18.890625 
" id="ArialMT-33"/>
      </defs>
      <g style="fill:#262626;" transform="translate(188.420982143 360.6578125)scale(0.1 -0.1)">
       <use xlink:href="#ArialMT-33"/>
       <use x="55.615234375" xlink:href="#ArialMT-30"/>
       <use x="111.23046875" xlink:href="#ArialMT-30"/>
       <use x="166.845703125" xlink:href="#ArialMT-30"/>
      </g>
     </g>
    </g>
    <g id="xtick_7">
     <g id="line2d_19">
      <path clip-path="url(#pd1d5ac2470)" d="M 135.771429 346.5 
L 135.771429 39.6 
" style="fill:none;stroke:#ffffff;stroke-linecap:round;"/>
     </g>
     <g id="line2d_20"/>
     <g id="line2d_21"/>
     <g id="text_7">
      <!-- 3500 -->
      <g style="fill:#262626;" transform="translate(124.649553571 360.6578125)scale(0.1 -0.1)">
       <use xlink:href="#ArialMT-33"/>
       <use x="55.615234375" xlink:href="#ArialMT-35"/>
       <use x="111.23046875" xlink:href="#ArialMT-30"/>
       <use x="166.845703125" xlink:href="#ArialMT-30"/>
      </g>
     </g>
    </g>
    <g id="xtick_8">
     <g id="line2d_22">
      <path clip-path="url(#pd1d5ac2470)" d="M 72 346.5 
L 72 39.6 
" style="fill:none;stroke:#ffffff;stroke-linecap:round;"/>
     </g>
     <g id="line2d_23"/>
     <g id="line2d_24"/>
     <g id="text_8">
      <!-- 4000 -->
      <defs>
       <path d="M 32.328125 0 
L 32.328125 17.140625 
L 1.265625 17.140625 
L 1.265625 25.203125 
L 33.9375 71.578125 
L 41.109375 71.578125 
L 41.109375 25.203125 
L 50.78125 25.203125 
L 50.78125 17.140625 
L 41.109375 17.140625 
L 41.109375 0 
z
M 32.328125 25.203125 
L 32.328125 57.46875 
L 9.90625 25.203125 
z
" id="ArialMT-34"/>
      </defs>
      <g style="fill:#262626;" transform="translate(60.878125 360.6578125)scale(0.1 -0.1)">
       <use xlink:href="#ArialMT-34"/>
       <use x="55.615234375" xlink:href="#ArialMT-30"/>
       <use x="111.23046875" xlink:href="#ArialMT-30"/>
       <use x="166.845703125" xlink:href="#ArialMT-30"/>
      </g>
     </g>
    </g>
    <g id="text_9">
     <!-- cm^-1 -->
     <defs>
      <path d="M 40.4375 19 
L 49.078125 17.875 
Q 47.65625 8.9375 41.8125 3.875 
Q 35.984375 -1.171875 27.484375 -1.171875 
Q 16.84375 -1.171875 10.375 5.78125 
Q 3.90625 12.75 3.90625 25.734375 
Q 3.90625 34.125 6.6875 40.421875 
Q 9.46875 46.734375 15.15625 49.875 
Q 20.84375 53.03125 27.546875 53.03125 
Q 35.984375 53.03125 41.359375 48.75 
Q 46.734375 44.484375 48.25 36.625 
L 39.703125 35.296875 
Q 38.484375 40.53125 35.375 43.15625 
Q 32.28125 45.796875 27.875 45.796875 
Q 21.234375 45.796875 17.078125 41.03125 
Q 12.9375 36.28125 12.9375 25.984375 
Q 12.9375 15.53125 16.9375 10.796875 
Q 20.953125 6.0625 27.390625 6.0625 
Q 32.5625 6.0625 36.03125 9.234375 
Q 39.5 12.40625 40.4375 19 
" id="ArialMT-63"/>
      <path d="M 11.671875 33.6875 
L 2.640625 33.6875 
L 19.875 72.796875 
L 26.953125 72.796875 
L 44.28125 33.6875 
L 35.453125 33.6875 
L 23.390625 62.84375 
z
" id="ArialMT-5e"/>
      <path d="M 3.171875 21.484375 
L 3.171875 30.328125 
L 30.171875 30.328125 
L 30.171875 21.484375 
z
" id="ArialMT-2d"/>
      <path d="M 6.59375 0 
L 6.59375 51.859375 
L 14.453125 51.859375 
L 14.453125 44.578125 
Q 16.890625 48.390625 20.9375 50.703125 
Q 25 53.03125 30.171875 53.03125 
Q 35.9375 53.03125 39.625 50.640625 
Q 43.3125 48.25 44.828125 43.953125 
Q 50.984375 53.03125 60.84375 53.03125 
Q 68.5625 53.03125 72.703125 48.75 
Q 76.859375 44.484375 76.859375 35.59375 
L 76.859375 0 
L 68.109375 0 
L 68.109375 32.671875 
Q 68.109375 37.9375 67.25 40.25 
Q 66.40625 42.578125 64.15625 43.984375 
Q 61.921875 45.40625 58.890625 45.40625 
Q 53.421875 45.40625 49.796875 41.765625 
Q 46.1875 38.140625 46.1875 30.125 
L 46.1875 0 
L 37.40625 0 
L 37.40625 33.6875 
Q 37.40625 39.546875 35.25 42.46875 
Q 33.109375 45.40625 28.21875 45.40625 
Q 24.515625 45.40625 21.359375 43.453125 
Q 18.21875 41.5 16.796875 37.734375 
Q 15.375 33.984375 15.375 26.90625 
L 15.375 0 
z
" id="ArialMT-6d"/>
     </defs>
     <g style="fill:#262626;" transform="translate(280.398125 375.51890625)scale(0.11 -0.11)">
      <use xlink:href="#ArialMT-63"/>
      <use x="50.0" xlink:href="#ArialMT-6d"/>
      <use x="133.30078125" xlink:href="#ArialMT-5e"/>
      <use x="180.224609375" xlink:href="#ArialMT-2d"/>
      <use x="213.525390625" xlink:href="#ArialMT-31"/>
     </g>
    </g>
   </g>
   <g id="matplotlib.axis_2">
    <g id="ytick_1">
     <g id="line2d_25">
      <path clip-path="url(#pd1d5ac2470)" d="M 72 346.5 
L 518.4 346.5 
" style="fill:none;stroke:#ffffff;stroke-linecap:round;"/>
     </g>
     <g id="line2d_26"/>
     <g id="line2d_27"/>
     <g id="text_10">
      <!-- −0.2 -->
      <defs>
       <path d="M 52.828125 31.203125 
L 5.5625 31.203125 
L 5.5625 39.40625 
L 52.828125 39.40625 
z
" id="ArialMT-2212"/>
       <path d="M 9.078125 0 
L 9.078125 10.015625 
L 19.09375 10.015625 
L 19.09375 0 
z
" id="ArialMT-2e"/>
      </defs>
      <g style="fill:#262626;" transform="translate(45.259375 349.08515625)scale(0.1 -0.1)">
       <use xlink:href="#ArialMT-2212"/>
       <use x="58.3984375" xlink:href="#ArialMT-30"/>
       <use x="114.013671875" xlink:href="#ArialMT-2e"/>
       <use x="141.796875" xlink:href="#ArialMT-32"/>
      </g>
     </g>
    </g>
    <g id="ytick_2">
     <g id="line2d_28">
      <path clip-path="url(#pd1d5ac2470)" d="M 72 295.35 
L 518.4 295.35 
" style="fill:none;stroke:#ffffff;stroke-linecap:round;"/>
     </g>
     <g id="line2d_29"/>
     <g id="line2d_30"/>
     <g id="text_11">
      <!-- 0.0 -->
      <g style="fill:#262626;" transform="translate(51.1 297.93515625)scale(0.1 -0.1)">
       <use xlink:href="#ArialMT-30"/>
       <use x="55.615234375" xlink:href="#ArialMT-2e"/>
       <use x="83.3984375" xlink:href="#ArialMT-30"/>
      </g>
     </g>
    </g>
    <g id="ytick_3">
     <g id="line2d_31">
      <path clip-path="url(#pd1d5ac2470)" d="M 72 244.2 
L 518.4 244.2 
" style="fill:none;stroke:#ffffff;stroke-linecap:round;"/>
     </g>
     <g id="line2d_32"/>
     <g id="line2d_33"/>
     <g id="text_12">
      <!-- 0.2 -->
      <g style="fill:#262626;" transform="translate(51.1 246.78515625)scale(0.1 -0.1)">
       <use xlink:href="#ArialMT-30"/>
       <use x="55.615234375" xlink:href="#ArialMT-2e"/>
       <use x="83.3984375" xlink:href="#ArialMT-32"/>
      </g>
     </g>
    </g>
    <g id="ytick_4">
     <g id="line2d_34">
      <path clip-path="url(#pd1d5ac2470)" d="M 72 193.05 
L 518.4 193.05 
" style="fill:none;stroke:#ffffff;stroke-linecap:round;"/>
     </g>
     <g id="line2d_35"/>
     <g id="line2d_36"/>
     <g id="text_13">
      <!-- 0.4 -->
      <g style="fill:#262626;" transform="translate(51.1 195.63515625)scale(0.1 -0.1)">
       <use xlink:href="#ArialMT-30"/>
       <use x="55.615234375" xlink:href="#ArialMT-2e"/>
       <use x="83.3984375" xlink:href="#ArialMT-34"/>
      </g>
     </g>
    </g>
    <g id="ytick_5">
     <g id="line2d_37">
      <path clip-path="url(#pd1d5ac2470)" d="M 72 141.9 
L 518.4 141.9 
" style="fill:none;stroke:#ffffff;stroke-linecap:round;"/>
     </g>
     <g id="line2d_38"/>
     <g id="line2d_39"/>
     <g id="text_14">
      <!-- 0.6 -->
      <defs>
       <path d="M 49.75 54.046875 
L 41.015625 53.375 
Q 39.84375 58.546875 37.703125 60.890625 
Q 34.125 64.65625 28.90625 64.65625 
Q 24.703125 64.65625 21.53125 62.3125 
Q 17.390625 59.28125 14.984375 53.46875 
Q 12.59375 47.65625 12.5 36.921875 
Q 15.671875 41.75 20.265625 44.09375 
Q 24.859375 46.4375 29.890625 46.4375 
Q 38.671875 46.4375 44.84375 39.96875 
Q 51.03125 33.5 51.03125 23.25 
Q 51.03125 16.5 48.125 10.71875 
Q 45.21875 4.9375 40.140625 1.859375 
Q 35.0625 -1.21875 28.609375 -1.21875 
Q 17.625 -1.21875 10.6875 6.859375 
Q 3.765625 14.9375 3.765625 33.5 
Q 3.765625 54.25 11.421875 63.671875 
Q 18.109375 71.875 29.4375 71.875 
Q 37.890625 71.875 43.28125 67.140625 
Q 48.6875 62.40625 49.75 54.046875 
M 13.875 23.1875 
Q 13.875 18.65625 15.796875 14.5 
Q 17.71875 10.359375 21.1875 8.171875 
Q 24.65625 6 28.46875 6 
Q 34.03125 6 38.03125 10.484375 
Q 42.046875 14.984375 42.046875 22.703125 
Q 42.046875 30.125 38.078125 34.390625 
Q 34.125 38.671875 28.125 38.671875 
Q 22.171875 38.671875 18.015625 34.390625 
Q 13.875 30.125 13.875 23.1875 
" id="ArialMT-36"/>
      </defs>
      <g style="fill:#262626;" transform="translate(51.1 144.48515625)scale(0.1 -0.1)">
       <use xlink:href="#ArialMT-30"/>
       <use x="55.615234375" xlink:href="#ArialMT-2e"/>
       <use x="83.3984375" xlink:href="#ArialMT-36"/>
      </g>
     </g>
    </g>
    <g id="ytick_6">
     <g id="line2d_40">
      <path clip-path="url(#pd1d5ac2470)" d="M 72 90.75 
L 518.4 90.75 
" style="fill:none;stroke:#ffffff;stroke-linecap:round;"/>
     </g>
     <g id="line2d_41"/>
     <g id="line2d_42"/>
     <g id="text_15">
      <!-- 0.8 -->
      <defs>
       <path d="M 17.671875 38.8125 
Q 12.203125 40.828125 9.5625 44.53125 
Q 6.9375 48.25 6.9375 53.421875 
Q 6.9375 61.234375 12.546875 66.546875 
Q 18.171875 71.875 27.484375 71.875 
Q 36.859375 71.875 42.578125 66.421875 
Q 48.296875 60.984375 48.296875 53.171875 
Q 48.296875 48.1875 45.671875 44.5 
Q 43.0625 40.828125 37.75 38.8125 
Q 44.34375 36.671875 47.78125 31.875 
Q 51.21875 27.09375 51.21875 20.453125 
Q 51.21875 11.28125 44.71875 5.03125 
Q 38.234375 -1.21875 27.640625 -1.21875 
Q 17.046875 -1.21875 10.546875 5.046875 
Q 4.046875 11.328125 4.046875 20.703125 
Q 4.046875 27.6875 7.59375 32.390625 
Q 11.140625 37.109375 17.671875 38.8125 
M 15.921875 53.71875 
Q 15.921875 48.640625 19.1875 45.40625 
Q 22.46875 42.1875 27.6875 42.1875 
Q 32.765625 42.1875 36.015625 45.375 
Q 39.265625 48.578125 39.265625 53.21875 
Q 39.265625 58.0625 35.90625 61.359375 
Q 32.5625 64.65625 27.59375 64.65625 
Q 22.5625 64.65625 19.234375 61.421875 
Q 15.921875 58.203125 15.921875 53.71875 
M 13.09375 20.65625 
Q 13.09375 16.890625 14.875 13.375 
Q 16.65625 9.859375 20.171875 7.921875 
Q 23.6875 6 27.734375 6 
Q 34.03125 6 38.125 10.046875 
Q 42.234375 14.109375 42.234375 20.359375 
Q 42.234375 26.703125 38.015625 30.859375 
Q 33.796875 35.015625 27.4375 35.015625 
Q 21.234375 35.015625 17.15625 30.90625 
Q 13.09375 26.8125 13.09375 20.65625 
" id="ArialMT-38"/>
      </defs>
      <g style="fill:#262626;" transform="translate(51.1 93.33515625)scale(0.1 -0.1)">
       <use xlink:href="#ArialMT-30"/>
       <use x="55.615234375" xlink:href="#ArialMT-2e"/>
       <use x="83.3984375" xlink:href="#ArialMT-38"/>
      </g>
     </g>
    </g>
    <g id="ytick_7">
     <g id="line2d_43">
      <path clip-path="url(#pd1d5ac2470)" d="M 72 39.6 
L 518.4 39.6 
" style="fill:none;stroke:#ffffff;stroke-linecap:round;"/>
     </g>
     <g id="line2d_44"/>
     <g id="line2d_45"/>
     <g id="text_16">
      <!-- 1.0 -->
      <g style="fill:#262626;" transform="translate(51.1 42.18515625)scale(0.1 -0.1)">
       <use xlink:href="#ArialMT-31"/>
       <use x="55.615234375" xlink:href="#ArialMT-2e"/>
       <use x="83.3984375" xlink:href="#ArialMT-30"/>
      </g>
     </g>
    </g>
    <g id="text_17">
     <!-- absorbance -->
     <defs>
      <path d="M 14.703125 0 
L 6.546875 0 
L 6.546875 71.578125 
L 15.328125 71.578125 
L 15.328125 46.046875 
Q 20.90625 53.03125 29.546875 53.03125 
Q 34.328125 53.03125 38.59375 51.09375 
Q 42.875 49.171875 45.625 45.671875 
Q 48.390625 42.1875 49.953125 37.25 
Q 51.515625 32.328125 51.515625 26.703125 
Q 51.515625 13.375 44.921875 6.09375 
Q 38.328125 -1.171875 29.109375 -1.171875 
Q 19.921875 -1.171875 14.703125 6.5 
z
M 14.59375 26.3125 
Q 14.59375 17 17.140625 12.84375 
Q 21.296875 6.0625 28.375 6.0625 
Q 34.125 6.0625 38.328125 11.0625 
Q 42.53125 16.0625 42.53125 25.984375 
Q 42.53125 36.140625 38.5 40.96875 
Q 34.46875 45.796875 28.765625 45.796875 
Q 23 45.796875 18.796875 40.796875 
Q 14.59375 35.796875 14.59375 26.3125 
" id="ArialMT-62"/>
      <path d="M 40.4375 6.390625 
Q 35.546875 2.25 31.03125 0.53125 
Q 26.515625 -1.171875 21.34375 -1.171875 
Q 12.796875 -1.171875 8.203125 3 
Q 3.609375 7.171875 3.609375 13.671875 
Q 3.609375 17.484375 5.34375 20.625 
Q 7.078125 23.78125 9.890625 25.6875 
Q 12.703125 27.59375 16.21875 28.5625 
Q 18.796875 29.25 24.03125 29.890625 
Q 34.671875 31.15625 39.703125 32.90625 
Q 39.75 34.71875 39.75 35.203125 
Q 39.75 40.578125 37.25 42.78125 
Q 33.890625 45.75 27.25 45.75 
Q 21.046875 45.75 18.09375 43.578125 
Q 15.140625 41.40625 13.71875 35.890625 
L 5.125 37.0625 
Q 6.296875 42.578125 8.984375 45.96875 
Q 11.671875 49.359375 16.75 51.1875 
Q 21.828125 53.03125 28.515625 53.03125 
Q 35.15625 53.03125 39.296875 51.46875 
Q 43.453125 49.90625 45.40625 47.53125 
Q 47.359375 45.171875 48.140625 41.546875 
Q 48.578125 39.3125 48.578125 33.453125 
L 48.578125 21.734375 
Q 48.578125 9.46875 49.140625 6.21875 
Q 49.703125 2.984375 51.375 0 
L 42.1875 0 
Q 40.828125 2.734375 40.4375 6.390625 
M 39.703125 26.03125 
Q 34.90625 24.078125 25.34375 22.703125 
Q 19.921875 21.921875 17.671875 20.9375 
Q 15.4375 19.96875 14.203125 18.09375 
Q 12.984375 16.21875 12.984375 13.921875 
Q 12.984375 10.40625 15.640625 8.0625 
Q 18.3125 5.71875 23.4375 5.71875 
Q 28.515625 5.71875 32.46875 7.9375 
Q 36.421875 10.15625 38.28125 14.015625 
Q 39.703125 17 39.703125 22.796875 
z
" id="ArialMT-61"/>
      <path d="M 42.09375 16.703125 
L 51.171875 15.578125 
Q 49.03125 7.625 43.21875 3.21875 
Q 37.40625 -1.171875 28.375 -1.171875 
Q 17 -1.171875 10.328125 5.828125 
Q 3.65625 12.84375 3.65625 25.484375 
Q 3.65625 38.578125 10.390625 45.796875 
Q 17.140625 53.03125 27.875 53.03125 
Q 38.28125 53.03125 44.875 45.953125 
Q 51.46875 38.875 51.46875 26.03125 
Q 51.46875 25.25 51.421875 23.6875 
L 12.75 23.6875 
Q 13.234375 15.140625 17.578125 10.59375 
Q 21.921875 6.0625 28.421875 6.0625 
Q 33.25 6.0625 36.671875 8.59375 
Q 40.09375 11.140625 42.09375 16.703125 
M 13.234375 30.90625 
L 42.1875 30.90625 
Q 41.609375 37.453125 38.875 40.71875 
Q 34.671875 45.796875 27.984375 45.796875 
Q 21.921875 45.796875 17.796875 41.75 
Q 13.671875 37.703125 13.234375 30.90625 
" id="ArialMT-65"/>
      <path d="M 6.5 0 
L 6.5 51.859375 
L 14.40625 51.859375 
L 14.40625 44 
Q 17.4375 49.515625 20 51.265625 
Q 22.5625 53.03125 25.640625 53.03125 
Q 30.078125 53.03125 34.671875 50.203125 
L 31.640625 42.046875 
Q 28.421875 43.953125 25.203125 43.953125 
Q 22.3125 43.953125 20.015625 42.21875 
Q 17.71875 40.484375 16.75 37.40625 
Q 15.28125 32.71875 15.28125 27.15625 
L 15.28125 0 
z
" id="ArialMT-72"/>
      <path d="M 3.078125 15.484375 
L 11.765625 16.84375 
Q 12.5 11.625 15.84375 8.84375 
Q 19.1875 6.0625 25.203125 6.0625 
Q 31.25 6.0625 34.171875 8.515625 
Q 37.109375 10.984375 37.109375 14.3125 
Q 37.109375 17.28125 34.515625 19 
Q 32.71875 20.171875 25.53125 21.96875 
Q 15.875 24.421875 12.140625 26.203125 
Q 8.40625 27.984375 6.46875 31.125 
Q 4.546875 34.28125 4.546875 38.09375 
Q 4.546875 41.546875 6.125 44.5 
Q 7.71875 47.46875 10.453125 49.421875 
Q 12.5 50.921875 16.03125 51.96875 
Q 19.578125 53.03125 23.640625 53.03125 
Q 29.734375 53.03125 34.34375 51.265625 
Q 38.96875 49.515625 41.15625 46.5 
Q 43.359375 43.5 44.1875 38.484375 
L 35.59375 37.3125 
Q 35.015625 41.3125 32.203125 43.546875 
Q 29.390625 45.796875 24.265625 45.796875 
Q 18.21875 45.796875 15.625 43.796875 
Q 13.03125 41.796875 13.03125 39.109375 
Q 13.03125 37.40625 14.109375 36.03125 
Q 15.1875 34.625 17.484375 33.6875 
Q 18.796875 33.203125 25.25 31.453125 
Q 34.578125 28.953125 38.25 27.359375 
Q 41.9375 25.78125 44.03125 22.75 
Q 46.140625 19.734375 46.140625 15.234375 
Q 46.140625 10.84375 43.578125 6.953125 
Q 41.015625 3.078125 36.171875 0.953125 
Q 31.34375 -1.171875 25.25 -1.171875 
Q 15.140625 -1.171875 9.84375 3.03125 
Q 4.546875 7.234375 3.078125 15.484375 
" id="ArialMT-73"/>
      <path d="M 3.328125 25.921875 
Q 3.328125 40.328125 11.328125 47.265625 
Q 18.015625 53.03125 27.640625 53.03125 
Q 38.328125 53.03125 45.109375 46.015625 
Q 51.90625 39.015625 51.90625 26.65625 
Q 51.90625 16.65625 48.90625 10.90625 
Q 45.90625 5.171875 40.15625 2 
Q 34.421875 -1.171875 27.640625 -1.171875 
Q 16.75 -1.171875 10.03125 5.8125 
Q 3.328125 12.796875 3.328125 25.921875 
M 12.359375 25.921875 
Q 12.359375 15.96875 16.703125 11.015625 
Q 21.046875 6.0625 27.640625 6.0625 
Q 34.1875 6.0625 38.53125 11.03125 
Q 42.875 16.015625 42.875 26.21875 
Q 42.875 35.84375 38.5 40.796875 
Q 34.125 45.75 27.640625 45.75 
Q 21.046875 45.75 16.703125 40.8125 
Q 12.359375 35.890625 12.359375 25.921875 
" id="ArialMT-6f"/>
      <path d="M 6.59375 0 
L 6.59375 51.859375 
L 14.5 51.859375 
L 14.5 44.484375 
Q 20.21875 53.03125 31 53.03125 
Q 35.6875 53.03125 39.625 51.34375 
Q 43.5625 49.65625 45.515625 46.921875 
Q 47.46875 44.1875 48.25 40.4375 
Q 48.734375 37.984375 48.734375 31.890625 
L 48.734375 0 
L 39.9375 0 
L 39.9375 31.546875 
Q 39.9375 36.921875 38.90625 39.578125 
Q 37.890625 42.234375 35.28125 43.8125 
Q 32.671875 45.40625 29.15625 45.40625 
Q 23.53125 45.40625 19.453125 41.84375 
Q 15.375 38.28125 15.375 28.328125 
L 15.375 0 
z
" id="ArialMT-6e"/>
     </defs>
     <g style="fill:#262626;" transform="translate(38.073125 221.7909375)rotate(-90.0)scale(0.11 -0.11)">
      <use xlink:href="#ArialMT-61"/>
      <use x="55.615234375" xlink:href="#ArialMT-62"/>
      <use x="111.23046875" xlink:href="#ArialMT-73"/>
      <use x="161.23046875" xlink:href="#ArialMT-6f"/>
      <use x="216.845703125" xlink:href="#ArialMT-72"/>
      <use x="250.146484375" xlink:href="#ArialMT-62"/>
      <use x="305.76171875" xlink:href="#ArialMT-61"/>
      <use x="361.376953125" xlink:href="#ArialMT-6e"/>
      <use x="416.9921875" xlink:href="#ArialMT-63"/>
      <use x="466.9921875" xlink:href="#ArialMT-65"/>
     </g>
    </g>
   </g>
   <g id="line2d_46">
    <path clip-path="url(#pd1d5ac2470)" d="M 505.666121 277.21216 
L 504.68149 287.500525 
L 503.698135 294.524482 
L 502.468622 289.188824 
L 501.483991 281.76697 
L 500.500635 276.297228 
L 499.516005 271.567209 
L 498.65509 265.706994 
L 497.794176 258.18151 
L 496.072347 236.914246 
L 494.350519 214.984531 
L 493.489605 211.469857 
L 492.62869 236.794079 
L 491.766501 253.739029 
L 490.905586 279.382121 
L 489.922231 278.828761 
L 488.9376 271.896165 
L 488.076686 260.606983 
L 487.215771 251.700961 
L 486.354857 249.443311 
L 485.493943 263.574109 
L 484.633029 275.687124 
L 483.649673 275.504981 
L 481.804128 259.252398 
L 480.943214 254.964893 
L 480.082299 260.222294 
L 479.221385 268.457563 
L 478.360471 269.539599 
L 477.499557 264.321624 
L 476.638642 257.574024 
L 475.777728 255.66236 
L 474.916814 262.239477 
L 474.054624 272.668193 
L 473.19371 275.113282 
L 472.210354 261.467645 
L 471.34944 226.207358 
L 470.488526 228.175759 
L 469.627611 254.040499 
L 468.766697 264.953414 
L 467.905783 251.382467 
L 467.044869 217.908569 
L 466.182679 191.331845 
L 464.46085 226.089884 
L 463.599936 229.638167 
L 462.739022 230.019969 
L 461.878107 244.991338 
L 461.017193 250.124972 
L 460.156279 234.50963 
L 459.295365 216.062166 
L 458.43445 219.290881 
L 457.573536 215.255861 
L 456.712622 192.039831 
L 455.851707 154.79891 
L 454.990793 101.092855 
L 454.129879 57.40332 
L 453.268965 91.321249 
L 452.406775 102.780083 
L 451.545861 52.27956 
L 450.808663 39.6 
L 450.07019 85.135932 
L 449.209275 116.851295 
L 448.348361 127.441563 
L 447.487447 124.765508 
L 446.626533 112.093099 
L 445.765618 96.426917 
L 444.904704 82.947411 
L 444.04379 74.34804 
L 443.182875 73.245493 
L 442.321961 85.232148 
L 440.598857 131.060255 
L 439.737943 166.011094 
L 438.877029 193.060915 
L 438.016114 209.468694 
L 437.1552 220.548674 
L 436.294286 227.929727 
L 435.433371 232.934056 
L 430.267886 254.810199 
L 426.822953 265.875868 
L 425.101125 272.445262 
L 424.117769 277.892869 
L 423.133138 285.020606 
L 422.149783 290.313978 
L 421.165152 294.15687 
L 420.05808 295.212269 
L 417.721495 292.746838 
L 416.738139 288.922164 
L 415.753509 284.130731 
L 414.770153 283.931757 
L 413.785522 284.540754 
L 412.802167 283.860466 
L 411.817536 282.036183 
L 410.834181 277.592824 
L 408.988635 262.973662 
L 408.127721 253.956174 
L 407.266807 230.097989 
L 406.405893 240.815876 
L 405.544978 247.340496 
L 404.684064 238.23916 
L 403.82315 225.363148 
L 402.962235 209.086281 
L 401.239131 163.406229 
L 400.378217 162.370851 
L 399.517303 168.987568 
L 398.656389 172.779909 
L 397.795474 177.113929 
L 396.93456 191.389279 
L 396.073646 212.749171 
L 395.212731 226.700777 
L 394.351817 230.452696 
L 393.490903 226.881408 
L 390.047246 258.169463 
L 387.463227 278.467973 
L 386.479872 283.084776 
L 385.495241 287.05361 
L 384.511886 288.822641 
L 383.527255 290.217527 
L 382.543899 290.903631 
L 381.559269 291.35975 
L 379.591282 291.871884 
L 378.607927 291.795001 
L 377.623296 291.866166 
L 376.639941 291.537693 
L 374.671954 289.800983 
L 373.687323 288.516015 
L 372.703968 287.924073 
L 371.719337 286.577205 
L 370.735982 285.588334 
L 369.751351 287.784121 
L 368.767995 291.720543 
L 367.783365 293.27697 
L 366.800009 294.334294 
L 365.692937 295.097027 
L 364.463424 295.15135 
L 363.356352 294.880386 
L 362.24928 294.750488 
L 361.142208 293.965818 
L 360.035136 294.149664 
L 358.928064 294.918297 
L 357.820992 295.162571 
L 356.591479 295.235047 
L 355.36069 295.185012 
L 354.253618 293.920951 
L 353.146546 293.415639 
L 352.039474 294.81811 
L 350.933678 295.093277 
L 349.826606 294.905657 
L 348.719534 295.084848 
L 346.50539 295.063829 
L 344.291246 294.697079 
L 342.077102 294.744066 
L 340.97003 294.621482 
L 339.862958 294.636507 
L 338.755886 294.466359 
L 336.541742 294.340804 
L 335.43467 294.075836 
L 334.328873 294.081653 
L 333.221801 294.262444 
L 331.007657 294.391349 
L 329.900585 293.777581 
L 327.686441 294.169765 
L 326.579369 294.142822 
L 323.258153 293.389472 
L 321.044009 292.864024 
L 318.953582 292.962576 
L 316.000965 292.742065 
L 314.032978 292.446228 
L 313.049623 292.338313 
L 311.081637 292.696505 
L 310.097006 292.409895 
L 309.11365 292.25468 
L 308.129019 292.288241 
L 307.145664 291.296038 
L 306.161033 291.082436 
L 305.177678 291.297575 
L 304.193047 290.870548 
L 303.209691 290.881117 
L 300.257074 290.510364 
L 295.337746 290.14976 
L 294.353115 289.98233 
L 293.36976 289.958328 
L 292.385129 289.666492 
L 291.401774 289.539543 
L 290.417143 289.69064 
L 287.465801 291.063838 
L 286.48117 291.938363 
L 285.497815 293.210327 
L 284.513184 293.648303 
L 283.406112 293.116597 
L 282.422757 293.563102 
L 281.438126 295.105273 
L 280.331054 293.2155 
L 279.347698 290.732273 
L 278.363067 289.18826 
L 277.379712 288.77757 
L 271.475753 288.414634 
L 268.523136 288.264567 
L 266.55515 288.199704 
L 264.587163 287.772711 
L 262.619177 286.906919 
L 261.635822 286.861772 
L 260.651191 286.995414 
L 258.683205 287.523585 
L 257.699849 287.642583 
L 255.731863 287.557597 
L 253.763877 287.60255 
L 251.79589 287.534864 
L 249.827904 287.423406 
L 246.875287 287.346559 
L 243.923945 287.311067 
L 242.939314 287.363847 
L 237.035355 286.774654 
L 236.052 286.039502 
L 235.067369 284.378352 
L 233.099383 285.821856 
L 232.116027 285.78603 
L 230.148041 285.239712 
L 229.16341 284.880739 
L 228.180055 284.368157 
L 227.195424 283.64157 
L 226.212069 282.54212 
L 225.227438 281.070588 
L 224.244082 279.328598 
L 223.259451 276.567759 
L 222.276096 271.569943 
L 221.415182 262.555181 
L 219.693353 235.05178 
L 218.832439 226.177826 
L 217.971525 231.410773 
L 217.11061 240.661224 
L 216.249696 244.311348 
L 215.387506 243.473078 
L 214.526592 240.233174 
L 213.665678 234.966523 
L 212.804763 227.626894 
L 211.082935 208.806277 
L 210.222021 205.831077 
L 209.361106 206.700331 
L 208.500192 213.182673 
L 207.639278 221.789911 
L 206.778363 225.954976 
L 205.917449 222.661136 
L 205.056535 217.21945 
L 204.195621 227.92193 
L 203.334706 247.107881 
L 202.473792 258.302433 
L 201.611602 264.069285 
L 200.750688 268.529801 
L 199.889774 269.812405 
L 199.028859 270.54303 
L 198.167945 274.349532 
L 197.18459 277.364177 
L 196.199959 277.973471 
L 195.216603 279.145908 
L 194.231973 281.274478 
L 193.248617 283.030213 
L 192.263986 283.6182 
L 191.280631 284.051467 
L 189.312645 284.708142 
L 188.328014 285.070267 
L 185.376672 285.233639 
L 180.456069 285.286562 
L 179.472713 285.1393 
L 177.504727 285.064696 
L 171.600768 284.633689 
L 161.760837 284.290487 
L 155.856878 284.470771 
L 149.952919 284.42347 
L 147.000302 284.388257 
L 146.016946 284.281289 
L 144.04896 283.938305 
L 143.064329 283.923669 
L 141.096343 284.66361 
L 140.112987 285.15663 
L 138.145001 285.731183 
L 137.16037 285.872409 
L 135.192384 285.547954 
L 134.209029 285.675694 
L 131.256411 287.401764 
L 130.273056 287.740621 
L 128.30507 287.998239 
L 125.352453 287.820912 
L 124.369097 287.624552 
L 123.384466 287.197618 
L 122.401111 285.945941 
L 121.41648 279.095459 
L 120.433125 279.486419 
L 119.448494 284.659981 
L 118.465138 283.379863 
L 117.480507 278.491093 
L 116.497152 276.915071 
L 115.512521 279.20788 
L 114.529166 277.999323 
L 113.544535 276.034252 
L 112.561179 267.311491 
L 111.700265 255.021342 
L 110.839351 262.465558 
L 109.978437 280.990607 
L 108.993806 288.98066 
L 108.01045 291.828037 
L 107.025819 293.064626 
L 106.042464 293.40906 
L 103.82832 293.86851 
L 102.721248 294.246323 
L 99.400032 294.534544 
L 98.29296 294.41548 
L 97.185888 294.564351 
L 85.009371 294.758214 
L 83.902299 295.002322 
L 81.688155 294.930875 
L 77.259867 295.153171 
L 73.570053 295.315796 
L 73.570053 295.315796 
" style="fill:none;stroke:#4c72b0;stroke-linecap:round;stroke-width:1.75;"/>
   </g>
   <g id="line2d_47">
    <path clip-path="url(#pd1d5ac2470)" d="M 505.666121 280.474677 
L 504.68149 274.320724 
L 503.820576 241.454015 
L 502.959662 246.172277 
L 502.098747 283.21944 
L 501.115392 291.076401 
L 500.00832 279.41682 
L 499.023689 271.044105 
L 498.162775 279.508214 
L 497.179419 262.508629 
L 496.318505 278.531967 
L 495.333874 282.674045 
L 494.350519 295.649697 
L 493.365888 295.270818 
L 492.136375 296.842205 
L 491.151744 295.682226 
L 490.044672 298.772105 
L 489.061317 296.486481 
L 488.076686 295.25297 
L 486.969614 291.544888 
L 485.986258 292.892957 
L 485.001627 291.53518 
L 484.018272 292.898557 
L 483.033641 290.140581 
L 482.050286 290.875328 
L 481.065655 290.196786 
L 479.958583 280.150827 
L 478.975227 280.703727 
L 477.990597 280.332049 
L 477.007241 282.324353 
L 476.02261 287.520725 
L 475.039255 284.045513 
L 474.054624 284.91338 
L 473.071269 279.929008 
L 472.086638 279.212118 
L 471.103282 284.306835 
L 470.118651 282.82438 
L 469.135296 290.050212 
L 468.150665 286.681927 
L 467.16731 287.555161 
L 466.182679 287.53816 
L 465.199323 287.890302 
L 464.214693 287.244118 
L 463.231337 289.916977 
L 462.246706 289.988794 
L 461.263351 288.843268 
L 460.27872 289.727059 
L 459.295365 288.63755 
L 458.310734 287.080751 
L 457.327378 286.775749 
L 456.342747 289.07238 
L 455.359392 288.215477 
L 454.374761 289.41256 
L 453.391406 289.281673 
L 452.406775 288.207422 
L 451.423419 291.064039 
L 450.438789 292.109655 
L 449.455433 289.987335 
L 448.470802 289.637736 
L 447.487447 290.70817 
L 446.502816 290.786299 
L 445.519461 289.266259 
L 444.53483 288.933784 
L 443.551474 289.568787 
L 442.566843 288.983753 
L 441.583488 290.088599 
L 440.598857 285.369131 
L 439.615502 288.373707 
L 438.630871 290.184565 
L 437.647515 288.143995 
L 436.662885 289.005684 
L 435.679529 291.47444 
L 434.694898 290.423144 
L 433.711543 288.49998 
L 432.726912 290.423094 
L 431.743557 290.23635 
L 430.758926 291.769656 
L 429.77557 291.684192 
L 428.790939 290.443401 
L 427.807584 291.802072 
L 426.822953 292.313966 
L 425.839598 291.532408 
L 423.871611 294.22787 
L 422.764539 292.106563 
L 421.781184 292.271389 
L 420.796553 292.645072 
L 419.813198 292.644217 
L 418.828567 291.943271 
L 417.845211 293.600195 
L 416.860581 292.604783 
L 414.892594 291.439473 
L 413.909239 291.724347 
L 412.924608 292.328795 
L 411.941253 290.282214 
L 410.956622 292.71863 
L 409.973266 293.184675 
L 408.988635 292.074881 
L 406.037294 291.80945 
L 405.052663 290.253363 
L 404.069307 289.609321 
L 403.084677 292.697913 
L 402.101321 290.908947 
L 401.11669 288.657885 
L 400.133335 289.661978 
L 399.148704 288.81984 
L 398.165349 290.871442 
L 397.180718 285.809955 
L 396.197362 286.719939 
L 395.212731 289.712421 
L 394.229376 287.239049 
L 393.244745 288.85839 
L 392.26139 284.720777 
L 391.276759 284.540774 
L 390.293403 278.502811 
L 389.308773 280.767796 
L 388.325417 274.015719 
L 387.463227 284.016575 
L 386.479872 280.881081 
L 385.495241 282.024531 
L 384.511886 285.174888 
L 383.527255 280.973903 
L 382.543899 285.912309 
L 381.559269 285.708226 
L 380.575913 292.447864 
L 379.591282 291.796798 
L 378.607927 291.855066 
L 377.623296 290.323054 
L 376.639941 287.519877 
L 375.65531 287.267361 
L 374.671954 287.764439 
L 373.687323 285.453687 
L 372.703968 286.486574 
L 371.719337 281.07469 
L 370.735982 287.670871 
L 369.751351 284.556739 
L 368.767995 282.972147 
L 367.783365 278.862753 
L 366.800009 284.18253 
L 365.815378 272.978746 
L 364.954464 282.728923 
L 363.971109 281.9677 
L 362.986478 287.334144 
L 362.003122 286.174291 
L 361.018491 282.492661 
L 360.035136 284.737413 
L 359.050505 284.944287 
L 358.06715 289.035489 
L 357.082519 285.780147 
L 356.099163 286.161076 
L 355.114533 287.642985 
L 354.131177 286.840367 
L 353.146546 288.562907 
L 352.163191 288.326615 
L 351.17856 289.564286 
L 350.195205 287.258569 
L 349.210574 286.425207 
L 348.227218 288.272886 
L 347.242587 284.365301 
L 346.259232 288.199988 
L 345.274601 287.921836 
L 344.291246 284.536654 
L 343.306615 287.386102 
L 342.323259 288.514332 
L 341.338629 284.709727 
L 340.355273 284.674682 
L 339.370642 280.816203 
L 338.387287 276.044019 
L 337.402656 280.020511 
L 336.419301 279.005659 
L 335.43467 277.180139 
L 334.451314 277.5602 
L 333.466683 276.387678 
L 332.483328 273.542897 
L 331.498697 278.160085 
L 330.515342 281.135087 
L 329.654427 271.772706 
L 328.793513 279.441145 
L 327.808882 282.298309 
L 326.825527 280.827086 
L 325.964613 268.311702 
L 325.103698 267.862232 
L 324.242784 265.593122 
L 323.38187 267.184039 
L 322.520955 269.875639 
L 321.658766 274.115312 
L 320.797851 277.782971 
L 319.814496 278.563755 
L 318.829865 281.31276 
L 317.84651 283.217297 
L 316.861879 280.55403 
L 315.878523 275.750125 
L 314.893893 279.489244 
L 313.910537 278.424631 
L 312.925906 278.369504 
L 311.942551 282.334178 
L 310.95792 275.114804 
L 309.974565 272.786739 
L 308.989934 272.304521 
L 308.006578 267.253018 
L 307.145664 259.704223 
L 305.423835 281.963261 
L 304.439205 272.702209 
L 303.57829 277.647488 
L 302.594935 271.93572 
L 301.610304 274.915452 
L 300.626949 282.291548 
L 299.642318 278.708146 
L 298.658962 276.727211 
L 297.674331 282.195436 
L 296.690976 282.001798 
L 295.706345 288.540213 
L 294.72299 278.381376 
L 293.738359 280.909615 
L 292.755003 275.904755 
L 291.770373 278.683166 
L 290.787017 275.309076 
L 289.926103 265.960606 
L 289.065189 252.635354 
L 287.342085 208.111765 
L 285.620256 133.083983 
L 284.759342 114.153048 
L 283.898427 109.300104 
L 283.037513 152.899623 
L 282.176599 77.488439 
L 281.315685 39.6 
L 280.577211 93.904615 
L 279.716297 181.015775 
L 278.855383 250.012747 
L 277.994469 281.865039 
L 277.011113 285.67983 
L 276.026482 286.67635 
L 275.043127 286.111424 
L 274.058496 287.564765 
L 273.075141 285.323145 
L 272.09051 285.853335 
L 270.122523 287.80666 
L 269.139168 288.114695 
L 268.154537 288.051424 
L 267.171182 288.520943 
L 266.186551 287.052227 
L 265.203195 286.384459 
L 264.218565 286.611031 
L 263.235209 285.297747 
L 262.250578 284.524622 
L 261.267223 287.28854 
L 260.282592 284.91551 
L 259.299237 285.647034 
L 258.314606 282.191765 
L 256.346619 286.774727 
L 255.363264 286.952582 
L 254.378633 286.896041 
L 253.395278 286.466814 
L 252.410647 284.162404 
L 251.427291 287.276747 
L 250.442661 288.436034 
L 249.459305 288.04673 
L 248.474674 289.739635 
L 247.491319 288.603948 
L 246.506688 289.227557 
L 245.523333 287.512724 
L 244.538702 290.152414 
L 243.555346 290.847478 
L 242.570715 291.058288 
L 241.58736 290.374811 
L 240.602729 290.770577 
L 239.619374 289.972606 
L 238.634743 290.167744 
L 237.651387 290.652035 
L 236.666757 291.446325 
L 235.683401 289.860665 
L 234.69877 290.167164 
L 233.715415 291.324202 
L 232.730784 289.525516 
L 231.747429 290.132064 
L 230.762798 291.482249 
L 229.779442 290.5213 
L 228.794811 291.386792 
L 227.811456 291.796098 
L 226.826825 289.767602 
L 225.84347 289.504466 
L 223.875483 291.039664 
L 222.890853 290.155732 
L 221.907497 290.808531 
L 220.922866 289.605886 
L 219.939511 289.054638 
L 218.95488 290.391448 
L 217.971525 292.509383 
L 216.986894 291.89866 
L 216.003538 292.988256 
L 215.018907 294.684254 
L 213.789394 292.589316 
L 212.804763 292.600024 
L 210.836777 293.338731 
L 209.853422 294.677902 
L 208.74635 294.091884 
L 207.639278 291.709923 
L 206.654647 291.977512 
L 205.671291 291.640131 
L 204.686661 292.603074 
L 203.703305 294.51206 
L 201.489161 293.176564 
L 200.505806 292.750554 
L 199.521175 292.890173 
L 198.537819 290.10074 
L 197.553189 289.432685 
L 196.569833 288.582922 
L 195.585202 288.306411 
L 194.601847 290.213262 
L 193.617216 288.449934 
L 192.633861 288.632468 
L 191.64923 290.85337 
L 190.665874 291.529042 
L 189.681243 293.413819 
L 188.697888 293.890671 
L 187.467099 288.993972 
L 186.483744 291.433463 
L 185.499113 290.054898 
L 184.515758 290.566902 
L 183.531127 288.867766 
L 182.547771 288.988504 
L 181.563141 288.647189 
L 180.579785 290.348435 
L 179.595154 287.059663 
L 178.611799 290.029536 
L 177.627168 290.272059 
L 176.643813 289.828224 
L 175.659182 289.884599 
L 174.675826 287.568662 
L 173.691195 286.037814 
L 172.70784 286.241419 
L 171.723209 287.683766 
L 169.755223 288.78574 
L 168.771867 288.678034 
L 166.803881 287.160377 
L 165.81925 288.583838 
L 164.835895 287.142788 
L 163.851264 289.519148 
L 162.867909 289.87245 
L 161.883278 286.891065 
L 160.899922 287.547203 
L 159.915291 286.010053 
L 158.931936 285.488467 
L 157.947305 287.93597 
L 156.96395 288.675519 
L 155.979319 287.632789 
L 154.995963 288.165724 
L 154.011333 286.750578 
L 151.059991 288.819872 
L 150.07536 285.966301 
L 149.092005 289.845346 
L 148.107374 286.348065 
L 147.124018 288.64694 
L 146.139387 289.232242 
L 145.156032 286.314314 
L 144.171401 284.524547 
L 143.188046 285.078011 
L 142.203415 287.173706 
L 141.220059 285.5496 
L 140.235429 285.997202 
L 139.252073 284.33806 
L 138.267442 284.866121 
L 137.284087 289.043763 
L 136.299456 284.872191 
L 135.316101 285.223625 
L 134.33147 286.804058 
L 133.348114 286.221684 
L 132.363483 284.069825 
L 131.380128 288.721401 
L 130.395497 285.160912 
L 129.412142 283.194387 
L 128.427511 283.299451 
L 127.444155 279.200624 
L 126.459525 283.543786 
L 125.476169 278.590629 
L 124.615255 275.02773 
L 123.754341 278.284501 
L 122.76971 279.12599 
L 121.786354 276.540802 
L 120.801723 272.819896 
L 119.818368 273.592695 
L 118.833737 278.451099 
L 117.850382 282.118487 
L 116.865751 269.253176 
L 116.004837 283.076955 
L 115.021481 285.340672 
L 114.03685 269.909734 
L 112.315022 276.539759 
L 111.454107 273.627342 
L 110.593193 275.518476 
L 109.608562 272.817455 
L 108.747648 277.256637 
L 107.886734 274.079711 
L 106.903378 267.943913 
L 106.042464 261.648738 
L 105.18155 272.872636 
L 104.31936 266.808599 
L 103.458446 279.632086 
L 102.47509 288.703563 
L 101.490459 287.520237 
L 100.507104 287.459005 
L 99.522473 287.773046 
L 98.539118 285.103809 
L 97.554487 276.213118 
L 96.571131 285.673097 
L 95.586501 280.446164 
L 94.603145 285.703785 
L 93.618514 284.749907 
L 92.635159 279.400226 
L 91.650528 282.241714 
L 90.667173 280.166938 
L 89.682542 280.748428 
L 88.699186 283.12743 
L 87.714555 287.278591 
L 86.7312 284.780659 
L 85.746569 285.07105 
L 84.763214 286.091638 
L 83.778583 292.373183 
L 82.795227 288.018873 
L 81.810597 286.993971 
L 80.827241 288.913161 
L 79.84261 293.451375 
L 78.735538 289.025484 
L 77.752183 291.369311 
L 75.784197 292.607645 
L 74.799566 290.64777 
L 73.81621 291.535084 
L 72.831579 294.864739 
L 72.831579 294.864739 
" style="fill:none;stroke:#55a868;stroke-linecap:round;stroke-width:1.75;"/>
   </g>
   <g id="line2d_48">
    <path clip-path="url(#pd1d5ac2470)" d="M 505.666121 218.387536 
L 504.805207 229.745721 
L 503.944293 236.580657 
L 503.083378 237.65701 
L 502.222464 236.231885 
L 501.36155 234.407745 
L 500.500635 230.90156 
L 497.916617 216.939934 
L 497.055703 215.534034 
L 496.194789 218.380439 
L 495.333874 220.47559 
L 494.47296 220.325535 
L 493.612046 219.265125 
L 492.751131 215.202453 
L 491.890217 200.502037 
L 491.029303 210.635423 
L 490.168389 215.841508 
L 488.44656 213.121114 
L 487.585646 215.218994 
L 485.862542 227.337663 
L 485.001627 228.421418 
L 484.140713 223.530233 
L 483.279799 213.390871 
L 481.55797 187.982792 
L 480.697056 186.994636 
L 479.836142 199.289664 
L 478.975227 213.599694 
L 478.114313 221.323801 
L 477.253399 222.946757 
L 476.392485 222.465643 
L 475.53157 222.679905 
L 474.670656 226.177599 
L 472.948827 236.271879 
L 472.086638 224.766507 
L 471.225723 180.075968 
L 470.364809 195.768665 
L 468.642981 259.056526 
L 467.782066 261.960111 
L 466.921152 260.794846 
L 465.199323 255.864621 
L 463.477495 249.384758 
L 462.616581 245.338339 
L 461.755666 239.803759 
L 460.033838 227.227273 
L 459.172923 224.83961 
L 458.310734 226.698604 
L 457.449819 225.763705 
L 456.588905 222.306987 
L 455.727991 219.974022 
L 454.867077 219.333297 
L 454.006162 216.583705 
L 453.145248 211.938869 
L 451.423419 205.775109 
L 449.701591 196.646512 
L 447.979762 191.999673 
L 447.118848 187.40807 
L 444.53483 166.275899 
L 443.673915 162.387955 
L 442.813001 161.432506 
L 441.952087 163.596028 
L 441.091173 169.011639 
L 440.230258 177.922236 
L 437.647515 208.859987 
L 436.786601 214.899152 
L 435.925687 219.095574 
L 433.342944 228.614343 
L 431.621115 234.335668 
L 430.758926 236.467673 
L 429.898011 238.261231 
L 429.037097 239.751786 
L 428.176183 241.473895 
L 424.732526 250.423424 
L 423.010697 259.600761 
L 422.149783 262.977018 
L 421.288869 265.173113 
L 420.427954 265.993019 
L 419.56704 265.867632 
L 417.845211 263.710707 
L 416.983022 260.964155 
L 416.122107 256.197809 
L 415.261193 253.790031 
L 414.400279 253.514636 
L 413.539365 252.793077 
L 412.67845 250.882285 
L 411.817536 247.995458 
L 410.956622 243.216086 
L 410.095707 235.60386 
L 408.373879 215.538754 
L 407.512965 194.636187 
L 406.65205 187.69704 
L 405.791136 186.448861 
L 404.930222 166.722932 
L 403.207118 112.485655 
L 402.346203 72.413169 
L 401.485289 39.6 
L 400.748091 54.342673 
L 400.009618 90.715774 
L 399.148704 115.003496 
L 396.565961 146.493641 
L 395.705047 152.521237 
L 394.844133 147.252881 
L 393.983218 126.369248 
L 393.122304 129.329015 
L 392.26139 158.547465 
L 391.3992 176.150028 
L 390.538286 189.500782 
L 389.677371 207.124133 
L 387.094629 243.714139 
L 385.3728 259.689595 
L 383.650971 267.389255 
L 382.790057 269.848287 
L 381.929143 271.635047 
L 381.068229 273.112551 
L 379.100242 275.227911 
L 378.115611 275.956142 
L 377.132256 276.214688 
L 376.147625 275.958996 
L 371.228297 273.975537 
L 370.243666 275.439147 
L 369.260311 278.809885 
L 368.27568 281.226113 
L 367.292325 283.243894 
L 365.324338 286.092571 
L 364.339707 286.705449 
L 362.371721 287.606068 
L 360.403735 287.405804 
L 359.420379 288.192295 
L 358.435749 289.318393 
L 357.452393 289.988478 
L 356.467762 290.25224 
L 355.484407 290.297355 
L 354.499776 289.605685 
L 353.516421 288.481875 
L 352.53179 289.740805 
L 351.548434 290.707646 
L 350.563803 290.88599 
L 349.580448 290.815667 
L 345.644475 291.053934 
L 344.659845 291.042842 
L 342.691858 291.34242 
L 339.740517 291.651849 
L 336.787899 291.776255 
L 334.819913 291.729085 
L 331.868571 291.834217 
L 330.883941 291.693519 
L 329.900585 291.438307 
L 327.932599 291.605371 
L 326.947968 291.876769 
L 323.996626 291.707155 
L 323.011995 291.409612 
L 322.02864 291.436111 
L 321.044009 291.317795 
L 320.060654 291.640119 
L 319.076023 291.544053 
L 312.188709 291.870895 
L 311.204078 292.173702 
L 308.252736 292.226371 
L 307.268105 291.855313 
L 306.28475 291.350767 
L 305.300119 291.769468 
L 304.316763 291.585108 
L 300.380791 291.485835 
L 299.39616 291.555013 
L 297.428174 291.358632 
L 296.444818 291.411316 
L 287.588242 290.839877 
L 286.604887 290.453763 
L 282.668914 290.679234 
L 281.684283 290.357388 
L 280.700928 290.436654 
L 279.716297 291.063065 
L 278.732942 291.377926 
L 277.748311 291.490072 
L 266.925024 290.674359 
L 264.957038 290.23928 
L 262.004421 288.958258 
L 260.036434 289.078809 
L 258.068448 289.373612 
L 253.14912 289.212702 
L 248.228517 288.82685 
L 243.309189 288.587443 
L 241.341202 288.422338 
L 237.40523 287.859138 
L 236.420599 287.480215 
L 235.437243 286.528577 
L 234.452613 286.295586 
L 233.469257 286.754261 
L 232.484626 286.666129 
L 230.51664 286.080524 
L 228.548654 285.326053 
L 226.580667 284.052421 
L 225.597312 283.054763 
L 224.612681 281.83992 
L 223.629326 280.176408 
L 222.644695 277.252592 
L 221.661339 272.147428 
L 220.800425 264.95742 
L 219.939511 256.550348 
L 219.078597 249.296367 
L 218.217682 249.878007 
L 217.355493 255.8669 
L 216.494578 259.226367 
L 215.633664 259.170319 
L 214.77275 257.244318 
L 213.911835 254.12571 
L 213.050921 250.233997 
L 211.329093 240.217036 
L 210.468178 237.563259 
L 209.607264 236.637735 
L 208.74635 238.37106 
L 207.885435 242.82874 
L 207.024521 246.436284 
L 206.163607 246.555288 
L 205.302693 243.638954 
L 204.441778 246.925565 
L 203.579589 258.430058 
L 202.718674 266.540707 
L 201.85776 270.416483 
L 200.996846 272.786418 
L 200.01349 271.828067 
L 199.152576 270.186043 
L 198.291662 273.378458 
L 197.307031 277.656137 
L 196.323675 279.087125 
L 195.339045 279.46609 
L 193.371058 281.344693 
L 192.387703 281.755724 
L 189.435086 282.231868 
L 182.547771 282.093556 
L 169.755223 280.941694 
L 163.851264 280.245006 
L 157.947305 279.791241 
L 154.995963 279.347466 
L 152.043346 278.636615 
L 149.092005 277.606555 
L 147.124018 276.66487 
L 145.156032 275.433608 
L 144.171401 274.796271 
L 143.188046 274.664332 
L 142.203415 275.351477 
L 141.220059 276.65737 
L 140.235429 278.250284 
L 139.252073 279.454106 
L 138.267442 280.250676 
L 137.284087 280.538474 
L 136.299456 280.051718 
L 135.316101 279.107823 
L 134.33147 279.004743 
L 133.348114 280.56638 
L 132.363483 282.718792 
L 131.380128 284.027229 
L 130.395497 284.727957 
L 129.412142 285.27608 
L 128.427511 285.560192 
L 126.459525 286.500536 
L 125.476169 286.935653 
L 122.523552 289.016926 
L 120.555566 289.90973 
L 119.57221 290.17338 
L 118.587579 290.24494 
L 117.604224 288.294076 
L 116.619593 290.140442 
L 115.636238 291.479204 
L 113.668251 291.61786 
L 112.683621 292.111422 
L 111.700265 292.163989 
L 110.715634 292.496779 
L 109.732279 293.059277 
L 108.625207 293.370443 
L 106.411063 293.338918 
L 103.089847 293.605872 
L 86.485042 293.610765 
L 85.37797 293.574328 
L 84.270898 293.659547 
L 79.84261 293.627692 
L 73.201454 293.70327 
L 73.201454 293.70327 
" style="fill:none;stroke:#c44e52;stroke-linecap:round;stroke-width:1.75;"/>
   </g>
   <g id="patch_3">
    <path d="M 72 39.6 
L 518.4 39.6 
" style="fill:none;"/>
   </g>
   <g id="patch_4">
    <path d="M 518.4 346.5 
L 518.4 39.6 
" style="fill:none;"/>
   </g>
   <g id="patch_5">
    <path d="M 72 346.5 
L 518.4 346.5 
" style="fill:none;"/>
   </g>
   <g id="patch_6">
    <path d="M 72 346.5 
L 72 39.6 
" style="fill:none;"/>
   </g>
   <g id="text_18">
    <!-- Extra Duty Rubber -->
    <defs>
     <path d="M 0.734375 0 
L 19.671875 26.953125 
L 2.15625 51.859375 
L 13.140625 51.859375 
L 21.09375 39.703125 
Q 23.34375 36.234375 24.703125 33.890625 
Q 26.859375 37.109375 28.65625 39.59375 
L 37.40625 51.859375 
L 47.90625 51.859375 
L 29.984375 27.4375 
L 49.265625 0 
L 38.484375 0 
L 27.828125 16.109375 
L 25 20.453125 
L 11.375 0 
z
" id="ArialMT-78"/>
     <path d="M 6.203125 -19.96875 
L 5.21875 -11.71875 
Q 8.109375 -12.5 10.25 -12.5 
Q 13.1875 -12.5 14.9375 -11.515625 
Q 16.703125 -10.546875 17.828125 -8.796875 
Q 18.65625 -7.46875 20.515625 -2.25 
Q 20.75 -1.515625 21.296875 -0.09375 
L 1.609375 51.859375 
L 11.078125 51.859375 
L 21.875 21.828125 
Q 23.96875 16.109375 25.640625 9.8125 
Q 27.15625 15.875 29.25 21.625 
L 40.328125 51.859375 
L 49.125 51.859375 
L 29.390625 -0.875 
Q 26.21875 -9.421875 24.46875 -12.640625 
Q 22.125 -17 19.09375 -19.015625 
Q 16.0625 -21.046875 11.859375 -21.046875 
Q 9.328125 -21.046875 6.203125 -19.96875 
" id="ArialMT-79"/>
     <path d="M 25.78125 7.859375 
L 27.046875 0.09375 
Q 23.34375 -0.6875 20.40625 -0.6875 
Q 15.625 -0.6875 12.984375 0.828125 
Q 10.359375 2.34375 9.28125 4.8125 
Q 8.203125 7.28125 8.203125 15.1875 
L 8.203125 45.015625 
L 1.765625 45.015625 
L 1.765625 51.859375 
L 8.203125 51.859375 
L 8.203125 64.703125 
L 16.9375 69.96875 
L 16.9375 51.859375 
L 25.78125 51.859375 
L 25.78125 45.015625 
L 16.9375 45.015625 
L 16.9375 14.703125 
Q 16.9375 10.9375 17.40625 9.859375 
Q 17.875 8.796875 18.921875 8.15625 
Q 19.96875 7.515625 21.921875 7.515625 
Q 23.390625 7.515625 25.78125 7.859375 
" id="ArialMT-74"/>
     <path d="M 40.578125 0 
L 40.578125 7.625 
Q 34.515625 -1.171875 24.125 -1.171875 
Q 19.53125 -1.171875 15.546875 0.578125 
Q 11.578125 2.34375 9.640625 5 
Q 7.71875 7.671875 6.9375 11.53125 
Q 6.390625 14.109375 6.390625 19.734375 
L 6.390625 51.859375 
L 15.1875 51.859375 
L 15.1875 23.09375 
Q 15.1875 16.21875 15.71875 13.8125 
Q 16.546875 10.359375 19.234375 8.375 
Q 21.921875 6.390625 25.875 6.390625 
Q 29.828125 6.390625 33.296875 8.421875 
Q 36.765625 10.453125 38.203125 13.9375 
Q 39.65625 17.4375 39.65625 24.078125 
L 39.65625 51.859375 
L 48.4375 51.859375 
L 48.4375 0 
z
" id="ArialMT-75"/>
     <path d="M 7.90625 0 
L 7.90625 71.578125 
L 59.671875 71.578125 
L 59.671875 63.140625 
L 17.390625 63.140625 
L 17.390625 41.21875 
L 56.984375 41.21875 
L 56.984375 32.8125 
L 17.390625 32.8125 
L 17.390625 8.453125 
L 61.328125 8.453125 
L 61.328125 0 
z
" id="ArialMT-45"/>
     <path d="M 7.71875 0 
L 7.71875 71.578125 
L 32.375 71.578125 
Q 40.71875 71.578125 45.125 70.5625 
Q 51.265625 69.140625 55.609375 65.4375 
Q 61.28125 60.640625 64.078125 53.1875 
Q 66.890625 45.75 66.890625 36.1875 
Q 66.890625 28.03125 64.984375 21.734375 
Q 63.09375 15.4375 60.109375 11.296875 
Q 57.125 7.171875 53.578125 4.796875 
Q 50.046875 2.4375 45.046875 1.21875 
Q 40.046875 0 33.546875 0 
z
M 17.1875 8.453125 
L 32.46875 8.453125 
Q 39.546875 8.453125 43.578125 9.765625 
Q 47.609375 11.078125 50 13.484375 
Q 53.375 16.84375 55.25 22.53125 
Q 57.125 28.21875 57.125 36.328125 
Q 57.125 47.5625 53.4375 53.59375 
Q 49.75 59.625 44.484375 61.671875 
Q 40.671875 63.140625 32.234375 63.140625 
L 17.1875 63.140625 
z
" id="ArialMT-44"/>
     <path d="M 7.859375 0 
L 7.859375 71.578125 
L 39.59375 71.578125 
Q 49.171875 71.578125 54.140625 69.640625 
Q 59.125 67.71875 62.109375 62.828125 
Q 65.09375 57.953125 65.09375 52.046875 
Q 65.09375 44.4375 60.15625 39.203125 
Q 55.21875 33.984375 44.921875 32.5625 
Q 48.6875 30.765625 50.640625 29 
Q 54.78125 25.203125 58.5 19.484375 
L 70.953125 0 
L 59.03125 0 
L 49.5625 14.890625 
Q 45.40625 21.34375 42.71875 24.75 
Q 40.046875 28.171875 37.921875 29.53125 
Q 35.796875 30.90625 33.59375 31.453125 
Q 31.984375 31.78125 28.328125 31.78125 
L 17.328125 31.78125 
L 17.328125 0 
z
M 17.328125 39.984375 
L 37.703125 39.984375 
Q 44.1875 39.984375 47.84375 41.328125 
Q 51.515625 42.671875 53.421875 45.625 
Q 55.328125 48.578125 55.328125 52.046875 
Q 55.328125 57.125 51.640625 60.390625 
Q 47.953125 63.671875 39.984375 63.671875 
L 17.328125 63.671875 
z
" id="ArialMT-52"/>
     <path id="ArialMT-20"/>
    </defs>
    <g style="fill:#262626;" transform="translate(245.8490625 34.6)scale(0.12 -0.12)">
     <use xlink:href="#ArialMT-45"/>
     <use x="66.69921875" xlink:href="#ArialMT-78"/>
     <use x="116.69921875" xlink:href="#ArialMT-74"/>
     <use x="144.482421875" xlink:href="#ArialMT-72"/>
     <use x="177.783203125" xlink:href="#ArialMT-61"/>
     <use x="233.3984375" xlink:href="#ArialMT-20"/>
     <use x="261.181640625" xlink:href="#ArialMT-44"/>
     <use x="333.3984375" xlink:href="#ArialMT-75"/>
     <use x="389.013671875" xlink:href="#ArialMT-74"/>
     <use x="416.796875" xlink:href="#ArialMT-79"/>
     <use x="466.796875" xlink:href="#ArialMT-20"/>
     <use x="494.580078125" xlink:href="#ArialMT-52"/>
     <use x="566.796875" xlink:href="#ArialMT-75"/>
     <use x="622.412109375" xlink:href="#ArialMT-62"/>
     <use x="678.02734375" xlink:href="#ArialMT-62"/>
     <use x="733.642578125" xlink:href="#ArialMT-65"/>
     <use x="789.2578125" xlink:href="#ArialMT-72"/>
    </g>
   </g>
   <g id="legend_1">
    <g id="line2d_49">
     <path d="M 81 52.379687 
L 101 52.379687 
" style="fill:none;stroke:#4c72b0;stroke-linecap:round;stroke-width:1.75;"/>
    </g>
    <g id="line2d_50"/>
    <g id="text_19">
     <!-- Dunlop_HardCourt -->
     <defs>
      <path d="M 8.015625 0 
L 8.015625 71.578125 
L 17.484375 71.578125 
L 17.484375 42.1875 
L 54.6875 42.1875 
L 54.6875 71.578125 
L 64.15625 71.578125 
L 64.15625 0 
L 54.6875 0 
L 54.6875 33.734375 
L 17.484375 33.734375 
L 17.484375 0 
z
" id="ArialMT-48"/>
      <path d="M 40.234375 0 
L 40.234375 6.546875 
Q 35.296875 -1.171875 25.734375 -1.171875 
Q 19.53125 -1.171875 14.328125 2.25 
Q 9.125 5.671875 6.265625 11.796875 
Q 3.421875 17.921875 3.421875 25.875 
Q 3.421875 33.640625 6 39.96875 
Q 8.59375 46.296875 13.765625 49.65625 
Q 18.953125 53.03125 25.34375 53.03125 
Q 30.03125 53.03125 33.6875 51.046875 
Q 37.359375 49.078125 39.65625 45.90625 
L 39.65625 71.578125 
L 48.390625 71.578125 
L 48.390625 0 
z
M 12.453125 25.875 
Q 12.453125 15.921875 16.640625 10.984375 
Q 20.84375 6.0625 26.5625 6.0625 
Q 32.328125 6.0625 36.34375 10.765625 
Q 40.375 15.484375 40.375 25.140625 
Q 40.375 35.796875 36.265625 40.765625 
Q 32.171875 45.75 26.171875 45.75 
Q 20.3125 45.75 16.375 40.96875 
Q 12.453125 36.1875 12.453125 25.875 
" id="ArialMT-64"/>
      <path d="M 58.796875 25.09375 
L 68.265625 22.703125 
Q 65.28125 11.03125 57.546875 4.90625 
Q 49.8125 -1.21875 38.625 -1.21875 
Q 27.046875 -1.21875 19.796875 3.484375 
Q 12.546875 8.203125 8.765625 17.140625 
Q 4.984375 26.078125 4.984375 36.328125 
Q 4.984375 47.515625 9.25 55.828125 
Q 13.53125 64.15625 21.40625 68.46875 
Q 29.296875 72.796875 38.765625 72.796875 
Q 49.515625 72.796875 56.828125 67.328125 
Q 64.15625 61.859375 67.046875 51.953125 
L 57.71875 49.75 
Q 55.21875 57.5625 50.484375 61.125 
Q 45.75 64.703125 38.578125 64.703125 
Q 30.328125 64.703125 24.78125 60.734375 
Q 19.234375 56.78125 16.984375 50.109375 
Q 14.75 43.453125 14.75 36.375 
Q 14.75 27.25 17.40625 20.4375 
Q 20.0625 13.625 25.671875 10.25 
Q 31.296875 6.890625 37.84375 6.890625 
Q 45.796875 6.890625 51.3125 11.46875 
Q 56.84375 16.0625 58.796875 25.09375 
" id="ArialMT-43"/>
      <path d="M 6.59375 -19.875 
L 6.59375 51.859375 
L 14.59375 51.859375 
L 14.59375 45.125 
Q 17.4375 49.078125 21 51.046875 
Q 24.5625 53.03125 29.640625 53.03125 
Q 36.28125 53.03125 41.359375 49.609375 
Q 46.4375 46.1875 49.015625 39.953125 
Q 51.609375 33.734375 51.609375 26.3125 
Q 51.609375 18.359375 48.75 11.984375 
Q 45.90625 5.609375 40.453125 2.21875 
Q 35.015625 -1.171875 29 -1.171875 
Q 24.609375 -1.171875 21.109375 0.6875 
Q 17.625 2.546875 15.375 5.375 
L 15.375 -19.875 
z
M 14.546875 25.640625 
Q 14.546875 15.625 18.59375 10.84375 
Q 22.65625 6.0625 28.421875 6.0625 
Q 34.28125 6.0625 38.453125 11.015625 
Q 42.625 15.96875 42.625 26.375 
Q 42.625 36.28125 38.546875 41.203125 
Q 34.46875 46.140625 28.8125 46.140625 
Q 23.1875 46.140625 18.859375 40.890625 
Q 14.546875 35.640625 14.546875 25.640625 
" id="ArialMT-70"/>
      <path d="M 6.390625 0 
L 6.390625 71.578125 
L 15.1875 71.578125 
L 15.1875 0 
z
" id="ArialMT-6c"/>
      <path d="M -1.515625 -19.875 
L -1.515625 -13.53125 
L 56.734375 -13.53125 
L 56.734375 -19.875 
z
" id="ArialMT-5f"/>
     </defs>
     <g style="fill:#262626;" transform="translate(109.0 55.8796875)scale(0.1 -0.1)">
      <use xlink:href="#ArialMT-44"/>
      <use x="72.216796875" xlink:href="#ArialMT-75"/>
      <use x="127.83203125" xlink:href="#ArialMT-6e"/>
      <use x="183.447265625" xlink:href="#ArialMT-6c"/>
      <use x="205.6640625" xlink:href="#ArialMT-6f"/>
      <use x="261.279296875" xlink:href="#ArialMT-70"/>
      <use x="316.89453125" xlink:href="#ArialMT-5f"/>
      <use x="372.509765625" xlink:href="#ArialMT-48"/>
      <use x="444.7265625" xlink:href="#ArialMT-61"/>
      <use x="500.341796875" xlink:href="#ArialMT-72"/>
      <use x="533.642578125" xlink:href="#ArialMT-64"/>
      <use x="589.2578125" xlink:href="#ArialMT-43"/>
      <use x="661.474609375" xlink:href="#ArialMT-6f"/>
      <use x="717.08984375" xlink:href="#ArialMT-75"/>
      <use x="772.705078125" xlink:href="#ArialMT-72"/>
      <use x="806.005859375" xlink:href="#ArialMT-74"/>
     </g>
    </g>
    <g id="line2d_51">
     <path d="M 81 66.525 
L 101 66.525 
" style="fill:none;stroke:#55a868;stroke-linecap:round;stroke-width:1.75;"/>
    </g>
    <g id="line2d_52"/>
    <g id="text_20">
     <!-- Penn_ExtraDuty -->
     <defs>
      <path d="M 7.71875 0 
L 7.71875 71.578125 
L 34.71875 71.578125 
Q 41.84375 71.578125 45.609375 70.90625 
Q 50.875 70.015625 54.4375 67.546875 
Q 58.015625 65.09375 60.1875 60.640625 
Q 62.359375 56.203125 62.359375 50.875 
Q 62.359375 41.75 56.546875 35.421875 
Q 50.734375 29.109375 35.546875 29.109375 
L 17.1875 29.109375 
L 17.1875 0 
z
M 17.1875 37.546875 
L 35.6875 37.546875 
Q 44.875 37.546875 48.734375 40.96875 
Q 52.59375 44.390625 52.59375 50.59375 
Q 52.59375 55.078125 50.3125 58.265625 
Q 48.046875 61.46875 44.34375 62.5 
Q 41.9375 63.140625 35.5 63.140625 
L 17.1875 63.140625 
z
" id="ArialMT-50"/>
     </defs>
     <g style="fill:#262626;" transform="translate(109.0 70.025)scale(0.1 -0.1)">
      <use xlink:href="#ArialMT-50"/>
      <use x="66.69921875" xlink:href="#ArialMT-65"/>
      <use x="122.314453125" xlink:href="#ArialMT-6e"/>
      <use x="177.9296875" xlink:href="#ArialMT-6e"/>
      <use x="233.544921875" xlink:href="#ArialMT-5f"/>
      <use x="289.16015625" xlink:href="#ArialMT-45"/>
      <use x="355.859375" xlink:href="#ArialMT-78"/>
      <use x="405.859375" xlink:href="#ArialMT-74"/>
      <use x="433.642578125" xlink:href="#ArialMT-72"/>
      <use x="466.943359375" xlink:href="#ArialMT-61"/>
      <use x="522.55859375" xlink:href="#ArialMT-44"/>
      <use x="594.775390625" xlink:href="#ArialMT-75"/>
      <use x="650.390625" xlink:href="#ArialMT-74"/>
      <use x="678.173828125" xlink:href="#ArialMT-79"/>
     </g>
    </g>
    <g id="line2d_53">
     <path d="M 81 80.7875 
L 101 80.7875 
" style="fill:none;stroke:#c44e52;stroke-linecap:round;stroke-width:1.75;"/>
    </g>
    <g id="line2d_54"/>
    <g id="text_21">
     <!-- Wilson_ExtraDuty -->
     <defs>
      <path d="M 6.640625 61.46875 
L 6.640625 71.578125 
L 15.4375 71.578125 
L 15.4375 61.46875 
z
M 6.640625 0 
L 6.640625 51.859375 
L 15.4375 51.859375 
L 15.4375 0 
z
" id="ArialMT-69"/>
      <path d="M 20.21875 0 
L 1.21875 71.578125 
L 10.9375 71.578125 
L 21.828125 24.65625 
Q 23.578125 17.28125 24.859375 10.015625 
Q 27.59375 21.484375 28.078125 23.25 
L 41.703125 71.578125 
L 53.125 71.578125 
L 63.375 35.359375 
Q 67.234375 21.875 68.953125 10.015625 
Q 70.3125 16.796875 72.515625 25.59375 
L 83.734375 71.578125 
L 93.265625 71.578125 
L 73.640625 0 
L 64.5 0 
L 49.421875 54.546875 
Q 47.515625 61.375 47.171875 62.9375 
Q 46.046875 58.015625 45.0625 54.546875 
L 29.890625 0 
z
" id="ArialMT-57"/>
     </defs>
     <g style="fill:#262626;" transform="translate(109.0 84.2875)scale(0.1 -0.1)">
      <use xlink:href="#ArialMT-57"/>
      <use x="94.384765625" xlink:href="#ArialMT-69"/>
      <use x="116.6015625" xlink:href="#ArialMT-6c"/>
      <use x="138.818359375" xlink:href="#ArialMT-73"/>
      <use x="188.818359375" xlink:href="#ArialMT-6f"/>
      <use x="244.43359375" xlink:href="#ArialMT-6e"/>
      <use x="300.048828125" xlink:href="#ArialMT-5f"/>
      <use x="355.6640625" xlink:href="#ArialMT-45"/>
      <use x="422.36328125" xlink:href="#ArialMT-78"/>
      <use x="472.36328125" xlink:href="#ArialMT-74"/>
      <use x="500.146484375" xlink:href="#ArialMT-72"/>
      <use x="533.447265625" xlink:href="#ArialMT-61"/>
      <use x="589.0625" xlink:href="#ArialMT-44"/>
      <use x="661.279296875" xlink:href="#ArialMT-75"/>
      <use x="716.89453125" xlink:href="#ArialMT-74"/>
      <use x="744.677734375" xlink:href="#ArialMT-79"/>
     </g>
    </g>
   </g>
  </g>
 </g>
 <defs>
  <clipPath id="pd1d5ac2470">
   <rect height="306.9" width="446.4" x="72.0" y="39.6"/>
  </clipPath>
 </defs>
</svg>
