<?xml version="1.0" encoding="utf-8" standalone="no"?>
<!DOCTYPE svg PUBLIC "-//W3C//DTD SVG 1.1//EN"
  "http://www.w3.org/Graphics/SVG/1.1/DTD/svg11.dtd">
<!-- Created with matplotlib (http://matplotlib.org/) -->
<svg height="396pt" version="1.1" viewBox="0 0 576 396" width="576pt" xmlns="http://www.w3.org/2000/svg" xmlns:xlink="http://www.w3.org/1999/xlink">
 <defs>
  <style type="text/css">
*{stroke-linecap:butt;stroke-linejoin:round;stroke-miterlimit:100000;}
  </style>
 </defs>
 <g id="figure_1">
  <g id="patch_1">
   <path d="M 0 396 
L 576 396 
L 576 0 
L 0 0 
z
" style="fill:#ffffff;"/>
  </g>
  <g id="axes_1">
   <g id="patch_2">
    <path d="M 72 346.5 
L 518.4 346.5 
L 518.4 39.6 
L 72 39.6 
z
" style="fill:#eaeaf2;"/>
   </g>
   <g id="matplotlib.axis_1">
    <g id="xtick_1">
     <g id="line2d_1">
      <path clip-path="url(#p59f0235f1e)" d="M 518.4 346.5 
L 518.4 39.6 
" style="fill:none;stroke:#ffffff;stroke-linecap:round;"/>
     </g>
     <g id="line2d_2"/>
     <g id="line2d_3"/>
     <g id="text_1">
      <!-- 500 -->
      <defs>
       <path d="M 4.15625 35.296875 
Q 4.15625 48 6.765625 55.734375 
Q 9.375 63.484375 14.515625 67.671875 
Q 19.671875 71.875 27.484375 71.875 
Q 33.25 71.875 37.59375 69.546875 
Q 41.9375 67.234375 44.765625 62.859375 
Q 47.609375 58.5 49.21875 52.21875 
Q 50.828125 45.953125 50.828125 35.296875 
Q 50.828125 22.703125 48.234375 14.96875 
Q 45.65625 7.234375 40.5 3 
Q 35.359375 -1.21875 27.484375 -1.21875 
Q 17.140625 -1.21875 11.234375 6.203125 
Q 4.15625 15.140625 4.15625 35.296875 
M 13.1875 35.296875 
Q 13.1875 17.671875 17.3125 11.828125 
Q 21.4375 6 27.484375 6 
Q 33.546875 6 37.671875 11.859375 
Q 41.796875 17.71875 41.796875 35.296875 
Q 41.796875 52.984375 37.671875 58.78125 
Q 33.546875 64.59375 27.390625 64.59375 
Q 21.34375 64.59375 17.71875 59.46875 
Q 13.1875 52.9375 13.1875 35.296875 
" id="ArialMT-30"/>
       <path d="M 4.15625 18.75 
L 13.375 19.53125 
Q 14.40625 12.796875 18.140625 9.390625 
Q 21.875 6 27.15625 6 
Q 33.5 6 37.890625 10.78125 
Q 42.28125 15.578125 42.28125 23.484375 
Q 42.28125 31 38.0625 35.34375 
Q 33.84375 39.703125 27 39.703125 
Q 22.75 39.703125 19.328125 37.765625 
Q 15.921875 35.84375 13.96875 32.765625 
L 5.71875 33.84375 
L 12.640625 70.609375 
L 48.25 70.609375 
L 48.25 62.203125 
L 19.671875 62.203125 
L 15.828125 42.96875 
Q 22.265625 47.46875 29.34375 47.46875 
Q 38.71875 47.46875 45.15625 40.96875 
Q 51.609375 34.46875 51.609375 24.265625 
Q 51.609375 14.546875 45.953125 7.46875 
Q 39.0625 -1.21875 27.15625 -1.21875 
Q 17.390625 -1.21875 11.203125 4.25 
Q 5.03125 9.71875 4.15625 18.75 
" id="ArialMT-35"/>
      </defs>
      <g style="fill:#262626;" transform="translate(510.05859375 360.6578125)scale(0.1 -0.1)">
       <use xlink:href="#ArialMT-35"/>
       <use x="55.615234375" xlink:href="#ArialMT-30"/>
       <use x="111.23046875" xlink:href="#ArialMT-30"/>
      </g>
     </g>
    </g>
    <g id="xtick_2">
     <g id="line2d_4">
      <path clip-path="url(#p59f0235f1e)" d="M 454.628571 346.5 
L 454.628571 39.6 
" style="fill:none;stroke:#ffffff;stroke-linecap:round;"/>
     </g>
     <g id="line2d_5"/>
     <g id="line2d_6"/>
     <g id="text_2">
      <!-- 1000 -->
      <defs>
       <path d="M 37.25 0 
L 28.46875 0 
L 28.46875 56 
Q 25.296875 52.984375 20.140625 49.953125 
Q 14.984375 46.921875 10.890625 45.40625 
L 10.890625 53.90625 
Q 18.265625 57.375 23.78125 62.296875 
Q 29.296875 67.234375 31.59375 71.875 
L 37.25 71.875 
z
" id="ArialMT-31"/>
      </defs>
      <g style="fill:#262626;" transform="translate(443.506696429 360.6578125)scale(0.1 -0.1)">
       <use xlink:href="#ArialMT-31"/>
       <use x="55.615234375" xlink:href="#ArialMT-30"/>
       <use x="111.23046875" xlink:href="#ArialMT-30"/>
       <use x="166.845703125" xlink:href="#ArialMT-30"/>
      </g>
     </g>
    </g>
    <g id="xtick_3">
     <g id="line2d_7">
      <path clip-path="url(#p59f0235f1e)" d="M 390.857143 346.5 
L 390.857143 39.6 
" style="fill:none;stroke:#ffffff;stroke-linecap:round;"/>
     </g>
     <g id="line2d_8"/>
     <g id="line2d_9"/>
     <g id="text_3">
      <!-- 1500 -->
      <g style="fill:#262626;" transform="translate(379.735267857 360.6578125)scale(0.1 -0.1)">
       <use xlink:href="#ArialMT-31"/>
       <use x="55.615234375" xlink:href="#ArialMT-35"/>
       <use x="111.23046875" xlink:href="#ArialMT-30"/>
       <use x="166.845703125" xlink:href="#ArialMT-30"/>
      </g>
     </g>
    </g>
    <g id="xtick_4">
     <g id="line2d_10">
      <path clip-path="url(#p59f0235f1e)" d="M 327.085714 346.5 
L 327.085714 39.6 
" style="fill:none;stroke:#ffffff;stroke-linecap:round;"/>
     </g>
     <g id="line2d_11"/>
     <g id="line2d_12"/>
     <g id="text_4">
      <!-- 2000 -->
      <defs>
       <path d="M 50.34375 8.453125 
L 50.34375 0 
L 3.03125 0 
Q 2.9375 3.171875 4.046875 6.109375 
Q 5.859375 10.9375 9.828125 15.625 
Q 13.8125 20.3125 21.34375 26.46875 
Q 33.015625 36.03125 37.109375 41.625 
Q 41.21875 47.21875 41.21875 52.203125 
Q 41.21875 57.421875 37.46875 61 
Q 33.734375 64.59375 27.734375 64.59375 
Q 21.390625 64.59375 17.578125 60.78125 
Q 13.765625 56.984375 13.71875 50.25 
L 4.6875 51.171875 
Q 5.609375 61.28125 11.65625 66.578125 
Q 17.71875 71.875 27.9375 71.875 
Q 38.234375 71.875 44.234375 66.15625 
Q 50.25 60.453125 50.25 52 
Q 50.25 47.703125 48.484375 43.546875 
Q 46.734375 39.40625 42.65625 34.8125 
Q 38.578125 30.21875 29.109375 22.21875 
Q 21.1875 15.578125 18.9375 13.203125 
Q 16.703125 10.84375 15.234375 8.453125 
z
" id="ArialMT-32"/>
      </defs>
      <g style="fill:#262626;" transform="translate(315.963839286 360.6578125)scale(0.1 -0.1)">
       <use xlink:href="#ArialMT-32"/>
       <use x="55.615234375" xlink:href="#ArialMT-30"/>
       <use x="111.23046875" xlink:href="#ArialMT-30"/>
       <use x="166.845703125" xlink:href="#ArialMT-30"/>
      </g>
     </g>
    </g>
    <g id="xtick_5">
     <g id="line2d_13">
      <path clip-path="url(#p59f0235f1e)" d="M 263.314286 346.5 
L 263.314286 39.6 
" style="fill:none;stroke:#ffffff;stroke-linecap:round;"/>
     </g>
     <g id="line2d_14"/>
     <g id="line2d_15"/>
     <g id="text_5">
      <!-- 2500 -->
      <g style="fill:#262626;" transform="translate(252.192410714 360.6578125)scale(0.1 -0.1)">
       <use xlink:href="#ArialMT-32"/>
       <use x="55.615234375" xlink:href="#ArialMT-35"/>
       <use x="111.23046875" xlink:href="#ArialMT-30"/>
       <use x="166.845703125" xlink:href="#ArialMT-30"/>
      </g>
     </g>
    </g>
    <g id="xtick_6">
     <g id="line2d_16">
      <path clip-path="url(#p59f0235f1e)" d="M 199.542857 346.5 
L 199.542857 39.6 
" style="fill:none;stroke:#ffffff;stroke-linecap:round;"/>
     </g>
     <g id="line2d_17"/>
     <g id="line2d_18"/>
     <g id="text_6">
      <!-- 3000 -->
      <defs>
       <path d="M 4.203125 18.890625 
L 12.984375 20.0625 
Q 14.5 12.59375 18.140625 9.296875 
Q 21.78125 6 27 6 
Q 33.203125 6 37.46875 10.296875 
Q 41.75 14.59375 41.75 20.953125 
Q 41.75 27 37.796875 30.921875 
Q 33.84375 34.859375 27.734375 34.859375 
Q 25.25 34.859375 21.53125 33.890625 
L 22.515625 41.609375 
Q 23.390625 41.5 23.921875 41.5 
Q 29.546875 41.5 34.03125 44.421875 
Q 38.53125 47.359375 38.53125 53.46875 
Q 38.53125 58.296875 35.25 61.46875 
Q 31.984375 64.65625 26.8125 64.65625 
Q 21.6875 64.65625 18.265625 61.421875 
Q 14.84375 58.203125 13.875 51.765625 
L 5.078125 53.328125 
Q 6.6875 62.15625 12.390625 67.015625 
Q 18.109375 71.875 26.609375 71.875 
Q 32.46875 71.875 37.390625 69.359375 
Q 42.328125 66.84375 44.9375 62.5 
Q 47.5625 58.15625 47.5625 53.265625 
Q 47.5625 48.640625 45.0625 44.828125 
Q 42.578125 41.015625 37.703125 38.765625 
Q 44.046875 37.3125 47.5625 32.6875 
Q 51.078125 28.078125 51.078125 21.140625 
Q 51.078125 11.765625 44.234375 5.25 
Q 37.40625 -1.265625 26.953125 -1.265625 
Q 17.53125 -1.265625 11.296875 4.34375 
Q 5.078125 9.96875 4.203125 18.890625 
" id="ArialMT-33"/>
      </defs>
      <g style="fill:#262626;" transform="translate(188.420982143 360.6578125)scale(0.1 -0.1)">
       <use xlink:href="#ArialMT-33"/>
       <use x="55.615234375" xlink:href="#ArialMT-30"/>
       <use x="111.23046875" xlink:href="#ArialMT-30"/>
       <use x="166.845703125" xlink:href="#ArialMT-30"/>
      </g>
     </g>
    </g>
    <g id="xtick_7">
     <g id="line2d_19">
      <path clip-path="url(#p59f0235f1e)" d="M 135.771429 346.5 
L 135.771429 39.6 
" style="fill:none;stroke:#ffffff;stroke-linecap:round;"/>
     </g>
     <g id="line2d_20"/>
     <g id="line2d_21"/>
     <g id="text_7">
      <!-- 3500 -->
      <g style="fill:#262626;" transform="translate(124.649553571 360.6578125)scale(0.1 -0.1)">
       <use xlink:href="#ArialMT-33"/>
       <use x="55.615234375" xlink:href="#ArialMT-35"/>
       <use x="111.23046875" xlink:href="#ArialMT-30"/>
       <use x="166.845703125" xlink:href="#ArialMT-30"/>
      </g>
     </g>
    </g>
    <g id="xtick_8">
     <g id="line2d_22">
      <path clip-path="url(#p59f0235f1e)" d="M 72 346.5 
L 72 39.6 
" style="fill:none;stroke:#ffffff;stroke-linecap:round;"/>
     </g>
     <g id="line2d_23"/>
     <g id="line2d_24"/>
     <g id="text_8">
      <!-- 4000 -->
      <defs>
       <path d="M 32.328125 0 
L 32.328125 17.140625 
L 1.265625 17.140625 
L 1.265625 25.203125 
L 33.9375 71.578125 
L 41.109375 71.578125 
L 41.109375 25.203125 
L 50.78125 25.203125 
L 50.78125 17.140625 
L 41.109375 17.140625 
L 41.109375 0 
z
M 32.328125 25.203125 
L 32.328125 57.46875 
L 9.90625 25.203125 
z
" id="ArialMT-34"/>
      </defs>
      <g style="fill:#262626;" transform="translate(60.878125 360.6578125)scale(0.1 -0.1)">
       <use xlink:href="#ArialMT-34"/>
       <use x="55.615234375" xlink:href="#ArialMT-30"/>
       <use x="111.23046875" xlink:href="#ArialMT-30"/>
       <use x="166.845703125" xlink:href="#ArialMT-30"/>
      </g>
     </g>
    </g>
    <g id="text_9">
     <!-- cm^-1 -->
     <defs>
      <path d="M 40.4375 19 
L 49.078125 17.875 
Q 47.65625 8.9375 41.8125 3.875 
Q 35.984375 -1.171875 27.484375 -1.171875 
Q 16.84375 -1.171875 10.375 5.78125 
Q 3.90625 12.75 3.90625 25.734375 
Q 3.90625 34.125 6.6875 40.421875 
Q 9.46875 46.734375 15.15625 49.875 
Q 20.84375 53.03125 27.546875 53.03125 
Q 35.984375 53.03125 41.359375 48.75 
Q 46.734375 44.484375 48.25 36.625 
L 39.703125 35.296875 
Q 38.484375 40.53125 35.375 43.15625 
Q 32.28125 45.796875 27.875 45.796875 
Q 21.234375 45.796875 17.078125 41.03125 
Q 12.9375 36.28125 12.9375 25.984375 
Q 12.9375 15.53125 16.9375 10.796875 
Q 20.953125 6.0625 27.390625 6.0625 
Q 32.5625 6.0625 36.03125 9.234375 
Q 39.5 12.40625 40.4375 19 
" id="ArialMT-63"/>
      <path d="M 11.671875 33.6875 
L 2.640625 33.6875 
L 19.875 72.796875 
L 26.953125 72.796875 
L 44.28125 33.6875 
L 35.453125 33.6875 
L 23.390625 62.84375 
z
" id="ArialMT-5e"/>
      <path d="M 3.171875 21.484375 
L 3.171875 30.328125 
L 30.171875 30.328125 
L 30.171875 21.484375 
z
" id="ArialMT-2d"/>
      <path d="M 6.59375 0 
L 6.59375 51.859375 
L 14.453125 51.859375 
L 14.453125 44.578125 
Q 16.890625 48.390625 20.9375 50.703125 
Q 25 53.03125 30.171875 53.03125 
Q 35.9375 53.03125 39.625 50.640625 
Q 43.3125 48.25 44.828125 43.953125 
Q 50.984375 53.03125 60.84375 53.03125 
Q 68.5625 53.03125 72.703125 48.75 
Q 76.859375 44.484375 76.859375 35.59375 
L 76.859375 0 
L 68.109375 0 
L 68.109375 32.671875 
Q 68.109375 37.9375 67.25 40.25 
Q 66.40625 42.578125 64.15625 43.984375 
Q 61.921875 45.40625 58.890625 45.40625 
Q 53.421875 45.40625 49.796875 41.765625 
Q 46.1875 38.140625 46.1875 30.125 
L 46.1875 0 
L 37.40625 0 
L 37.40625 33.6875 
Q 37.40625 39.546875 35.25 42.46875 
Q 33.109375 45.40625 28.21875 45.40625 
Q 24.515625 45.40625 21.359375 43.453125 
Q 18.21875 41.5 16.796875 37.734375 
Q 15.375 33.984375 15.375 26.90625 
L 15.375 0 
z
" id="ArialMT-6d"/>
     </defs>
     <g style="fill:#262626;" transform="translate(280.398125 375.51890625)scale(0.11 -0.11)">
      <use xlink:href="#ArialMT-63"/>
      <use x="50.0" xlink:href="#ArialMT-6d"/>
      <use x="133.30078125" xlink:href="#ArialMT-5e"/>
      <use x="180.224609375" xlink:href="#ArialMT-2d"/>
      <use x="213.525390625" xlink:href="#ArialMT-31"/>
     </g>
    </g>
   </g>
   <g id="matplotlib.axis_2">
    <g id="ytick_1">
     <g id="line2d_25">
      <path clip-path="url(#p59f0235f1e)" d="M 72 346.5 
L 518.4 346.5 
" style="fill:none;stroke:#ffffff;stroke-linecap:round;"/>
     </g>
     <g id="line2d_26"/>
     <g id="line2d_27"/>
     <g id="text_10">
      <!-- 0.0 -->
      <defs>
       <path d="M 9.078125 0 
L 9.078125 10.015625 
L 19.09375 10.015625 
L 19.09375 0 
z
" id="ArialMT-2e"/>
      </defs>
      <g style="fill:#262626;" transform="translate(51.1 349.08515625)scale(0.1 -0.1)">
       <use xlink:href="#ArialMT-30"/>
       <use x="55.615234375" xlink:href="#ArialMT-2e"/>
       <use x="83.3984375" xlink:href="#ArialMT-30"/>
      </g>
     </g>
    </g>
    <g id="ytick_2">
     <g id="line2d_28">
      <path clip-path="url(#p59f0235f1e)" d="M 72 285.12 
L 518.4 285.12 
" style="fill:none;stroke:#ffffff;stroke-linecap:round;"/>
     </g>
     <g id="line2d_29"/>
     <g id="line2d_30"/>
     <g id="text_11">
      <!-- 0.2 -->
      <g style="fill:#262626;" transform="translate(51.1 287.70515625)scale(0.1 -0.1)">
       <use xlink:href="#ArialMT-30"/>
       <use x="55.615234375" xlink:href="#ArialMT-2e"/>
       <use x="83.3984375" xlink:href="#ArialMT-32"/>
      </g>
     </g>
    </g>
    <g id="ytick_3">
     <g id="line2d_31">
      <path clip-path="url(#p59f0235f1e)" d="M 72 223.74 
L 518.4 223.74 
" style="fill:none;stroke:#ffffff;stroke-linecap:round;"/>
     </g>
     <g id="line2d_32"/>
     <g id="line2d_33"/>
     <g id="text_12">
      <!-- 0.4 -->
      <g style="fill:#262626;" transform="translate(51.1 226.32515625)scale(0.1 -0.1)">
       <use xlink:href="#ArialMT-30"/>
       <use x="55.615234375" xlink:href="#ArialMT-2e"/>
       <use x="83.3984375" xlink:href="#ArialMT-34"/>
      </g>
     </g>
    </g>
    <g id="ytick_4">
     <g id="line2d_34">
      <path clip-path="url(#p59f0235f1e)" d="M 72 162.36 
L 518.4 162.36 
" style="fill:none;stroke:#ffffff;stroke-linecap:round;"/>
     </g>
     <g id="line2d_35"/>
     <g id="line2d_36"/>
     <g id="text_13">
      <!-- 0.6 -->
      <defs>
       <path d="M 49.75 54.046875 
L 41.015625 53.375 
Q 39.84375 58.546875 37.703125 60.890625 
Q 34.125 64.65625 28.90625 64.65625 
Q 24.703125 64.65625 21.53125 62.3125 
Q 17.390625 59.28125 14.984375 53.46875 
Q 12.59375 47.65625 12.5 36.921875 
Q 15.671875 41.75 20.265625 44.09375 
Q 24.859375 46.4375 29.890625 46.4375 
Q 38.671875 46.4375 44.84375 39.96875 
Q 51.03125 33.5 51.03125 23.25 
Q 51.03125 16.5 48.125 10.71875 
Q 45.21875 4.9375 40.140625 1.859375 
Q 35.0625 -1.21875 28.609375 -1.21875 
Q 17.625 -1.21875 10.6875 6.859375 
Q 3.765625 14.9375 3.765625 33.5 
Q 3.765625 54.25 11.421875 63.671875 
Q 18.109375 71.875 29.4375 71.875 
Q 37.890625 71.875 43.28125 67.140625 
Q 48.6875 62.40625 49.75 54.046875 
M 13.875 23.1875 
Q 13.875 18.65625 15.796875 14.5 
Q 17.71875 10.359375 21.1875 8.171875 
Q 24.65625 6 28.46875 6 
Q 34.03125 6 38.03125 10.484375 
Q 42.046875 14.984375 42.046875 22.703125 
Q 42.046875 30.125 38.078125 34.390625 
Q 34.125 38.671875 28.125 38.671875 
Q 22.171875 38.671875 18.015625 34.390625 
Q 13.875 30.125 13.875 23.1875 
" id="ArialMT-36"/>
      </defs>
      <g style="fill:#262626;" transform="translate(51.1 164.94515625)scale(0.1 -0.1)">
       <use xlink:href="#ArialMT-30"/>
       <use x="55.615234375" xlink:href="#ArialMT-2e"/>
       <use x="83.3984375" xlink:href="#ArialMT-36"/>
      </g>
     </g>
    </g>
    <g id="ytick_5">
     <g id="line2d_37">
      <path clip-path="url(#p59f0235f1e)" d="M 72 100.98 
L 518.4 100.98 
" style="fill:none;stroke:#ffffff;stroke-linecap:round;"/>
     </g>
     <g id="line2d_38"/>
     <g id="line2d_39"/>
     <g id="text_14">
      <!-- 0.8 -->
      <defs>
       <path d="M 17.671875 38.8125 
Q 12.203125 40.828125 9.5625 44.53125 
Q 6.9375 48.25 6.9375 53.421875 
Q 6.9375 61.234375 12.546875 66.546875 
Q 18.171875 71.875 27.484375 71.875 
Q 36.859375 71.875 42.578125 66.421875 
Q 48.296875 60.984375 48.296875 53.171875 
Q 48.296875 48.1875 45.671875 44.5 
Q 43.0625 40.828125 37.75 38.8125 
Q 44.34375 36.671875 47.78125 31.875 
Q 51.21875 27.09375 51.21875 20.453125 
Q 51.21875 11.28125 44.71875 5.03125 
Q 38.234375 -1.21875 27.640625 -1.21875 
Q 17.046875 -1.21875 10.546875 5.046875 
Q 4.046875 11.328125 4.046875 20.703125 
Q 4.046875 27.6875 7.59375 32.390625 
Q 11.140625 37.109375 17.671875 38.8125 
M 15.921875 53.71875 
Q 15.921875 48.640625 19.1875 45.40625 
Q 22.46875 42.1875 27.6875 42.1875 
Q 32.765625 42.1875 36.015625 45.375 
Q 39.265625 48.578125 39.265625 53.21875 
Q 39.265625 58.0625 35.90625 61.359375 
Q 32.5625 64.65625 27.59375 64.65625 
Q 22.5625 64.65625 19.234375 61.421875 
Q 15.921875 58.203125 15.921875 53.71875 
M 13.09375 20.65625 
Q 13.09375 16.890625 14.875 13.375 
Q 16.65625 9.859375 20.171875 7.921875 
Q 23.6875 6 27.734375 6 
Q 34.03125 6 38.125 10.046875 
Q 42.234375 14.109375 42.234375 20.359375 
Q 42.234375 26.703125 38.015625 30.859375 
Q 33.796875 35.015625 27.4375 35.015625 
Q 21.234375 35.015625 17.15625 30.90625 
Q 13.09375 26.8125 13.09375 20.65625 
" id="ArialMT-38"/>
      </defs>
      <g style="fill:#262626;" transform="translate(51.1 103.56515625)scale(0.1 -0.1)">
       <use xlink:href="#ArialMT-30"/>
       <use x="55.615234375" xlink:href="#ArialMT-2e"/>
       <use x="83.3984375" xlink:href="#ArialMT-38"/>
      </g>
     </g>
    </g>
    <g id="ytick_6">
     <g id="line2d_40">
      <path clip-path="url(#p59f0235f1e)" d="M 72 39.6 
L 518.4 39.6 
" style="fill:none;stroke:#ffffff;stroke-linecap:round;"/>
     </g>
     <g id="line2d_41"/>
     <g id="line2d_42"/>
     <g id="text_15">
      <!-- 1.0 -->
      <g style="fill:#262626;" transform="translate(51.1 42.18515625)scale(0.1 -0.1)">
       <use xlink:href="#ArialMT-31"/>
       <use x="55.615234375" xlink:href="#ArialMT-2e"/>
       <use x="83.3984375" xlink:href="#ArialMT-30"/>
      </g>
     </g>
    </g>
    <g id="text_16">
     <!-- absorbance -->
     <defs>
      <path d="M 14.703125 0 
L 6.546875 0 
L 6.546875 71.578125 
L 15.328125 71.578125 
L 15.328125 46.046875 
Q 20.90625 53.03125 29.546875 53.03125 
Q 34.328125 53.03125 38.59375 51.09375 
Q 42.875 49.171875 45.625 45.671875 
Q 48.390625 42.1875 49.953125 37.25 
Q 51.515625 32.328125 51.515625 26.703125 
Q 51.515625 13.375 44.921875 6.09375 
Q 38.328125 -1.171875 29.109375 -1.171875 
Q 19.921875 -1.171875 14.703125 6.5 
z
M 14.59375 26.3125 
Q 14.59375 17 17.140625 12.84375 
Q 21.296875 6.0625 28.375 6.0625 
Q 34.125 6.0625 38.328125 11.0625 
Q 42.53125 16.0625 42.53125 25.984375 
Q 42.53125 36.140625 38.5 40.96875 
Q 34.46875 45.796875 28.765625 45.796875 
Q 23 45.796875 18.796875 40.796875 
Q 14.59375 35.796875 14.59375 26.3125 
" id="ArialMT-62"/>
      <path d="M 40.4375 6.390625 
Q 35.546875 2.25 31.03125 0.53125 
Q 26.515625 -1.171875 21.34375 -1.171875 
Q 12.796875 -1.171875 8.203125 3 
Q 3.609375 7.171875 3.609375 13.671875 
Q 3.609375 17.484375 5.34375 20.625 
Q 7.078125 23.78125 9.890625 25.6875 
Q 12.703125 27.59375 16.21875 28.5625 
Q 18.796875 29.25 24.03125 29.890625 
Q 34.671875 31.15625 39.703125 32.90625 
Q 39.75 34.71875 39.75 35.203125 
Q 39.75 40.578125 37.25 42.78125 
Q 33.890625 45.75 27.25 45.75 
Q 21.046875 45.75 18.09375 43.578125 
Q 15.140625 41.40625 13.71875 35.890625 
L 5.125 37.0625 
Q 6.296875 42.578125 8.984375 45.96875 
Q 11.671875 49.359375 16.75 51.1875 
Q 21.828125 53.03125 28.515625 53.03125 
Q 35.15625 53.03125 39.296875 51.46875 
Q 43.453125 49.90625 45.40625 47.53125 
Q 47.359375 45.171875 48.140625 41.546875 
Q 48.578125 39.3125 48.578125 33.453125 
L 48.578125 21.734375 
Q 48.578125 9.46875 49.140625 6.21875 
Q 49.703125 2.984375 51.375 0 
L 42.1875 0 
Q 40.828125 2.734375 40.4375 6.390625 
M 39.703125 26.03125 
Q 34.90625 24.078125 25.34375 22.703125 
Q 19.921875 21.921875 17.671875 20.9375 
Q 15.4375 19.96875 14.203125 18.09375 
Q 12.984375 16.21875 12.984375 13.921875 
Q 12.984375 10.40625 15.640625 8.0625 
Q 18.3125 5.71875 23.4375 5.71875 
Q 28.515625 5.71875 32.46875 7.9375 
Q 36.421875 10.15625 38.28125 14.015625 
Q 39.703125 17 39.703125 22.796875 
z
" id="ArialMT-61"/>
      <path d="M 42.09375 16.703125 
L 51.171875 15.578125 
Q 49.03125 7.625 43.21875 3.21875 
Q 37.40625 -1.171875 28.375 -1.171875 
Q 17 -1.171875 10.328125 5.828125 
Q 3.65625 12.84375 3.65625 25.484375 
Q 3.65625 38.578125 10.390625 45.796875 
Q 17.140625 53.03125 27.875 53.03125 
Q 38.28125 53.03125 44.875 45.953125 
Q 51.46875 38.875 51.46875 26.03125 
Q 51.46875 25.25 51.421875 23.6875 
L 12.75 23.6875 
Q 13.234375 15.140625 17.578125 10.59375 
Q 21.921875 6.0625 28.421875 6.0625 
Q 33.25 6.0625 36.671875 8.59375 
Q 40.09375 11.140625 42.09375 16.703125 
M 13.234375 30.90625 
L 42.1875 30.90625 
Q 41.609375 37.453125 38.875 40.71875 
Q 34.671875 45.796875 27.984375 45.796875 
Q 21.921875 45.796875 17.796875 41.75 
Q 13.671875 37.703125 13.234375 30.90625 
" id="ArialMT-65"/>
      <path d="M 6.5 0 
L 6.5 51.859375 
L 14.40625 51.859375 
L 14.40625 44 
Q 17.4375 49.515625 20 51.265625 
Q 22.5625 53.03125 25.640625 53.03125 
Q 30.078125 53.03125 34.671875 50.203125 
L 31.640625 42.046875 
Q 28.421875 43.953125 25.203125 43.953125 
Q 22.3125 43.953125 20.015625 42.21875 
Q 17.71875 40.484375 16.75 37.40625 
Q 15.28125 32.71875 15.28125 27.15625 
L 15.28125 0 
z
" id="ArialMT-72"/>
      <path d="M 3.078125 15.484375 
L 11.765625 16.84375 
Q 12.5 11.625 15.84375 8.84375 
Q 19.1875 6.0625 25.203125 6.0625 
Q 31.25 6.0625 34.171875 8.515625 
Q 37.109375 10.984375 37.109375 14.3125 
Q 37.109375 17.28125 34.515625 19 
Q 32.71875 20.171875 25.53125 21.96875 
Q 15.875 24.421875 12.140625 26.203125 
Q 8.40625 27.984375 6.46875 31.125 
Q 4.546875 34.28125 4.546875 38.09375 
Q 4.546875 41.546875 6.125 44.5 
Q 7.71875 47.46875 10.453125 49.421875 
Q 12.5 50.921875 16.03125 51.96875 
Q 19.578125 53.03125 23.640625 53.03125 
Q 29.734375 53.03125 34.34375 51.265625 
Q 38.96875 49.515625 41.15625 46.5 
Q 43.359375 43.5 44.1875 38.484375 
L 35.59375 37.3125 
Q 35.015625 41.3125 32.203125 43.546875 
Q 29.390625 45.796875 24.265625 45.796875 
Q 18.21875 45.796875 15.625 43.796875 
Q 13.03125 41.796875 13.03125 39.109375 
Q 13.03125 37.40625 14.109375 36.03125 
Q 15.1875 34.625 17.484375 33.6875 
Q 18.796875 33.203125 25.25 31.453125 
Q 34.578125 28.953125 38.25 27.359375 
Q 41.9375 25.78125 44.03125 22.75 
Q 46.140625 19.734375 46.140625 15.234375 
Q 46.140625 10.84375 43.578125 6.953125 
Q 41.015625 3.078125 36.171875 0.953125 
Q 31.34375 -1.171875 25.25 -1.171875 
Q 15.140625 -1.171875 9.84375 3.03125 
Q 4.546875 7.234375 3.078125 15.484375 
" id="ArialMT-73"/>
      <path d="M 3.328125 25.921875 
Q 3.328125 40.328125 11.328125 47.265625 
Q 18.015625 53.03125 27.640625 53.03125 
Q 38.328125 53.03125 45.109375 46.015625 
Q 51.90625 39.015625 51.90625 26.65625 
Q 51.90625 16.65625 48.90625 10.90625 
Q 45.90625 5.171875 40.15625 2 
Q 34.421875 -1.171875 27.640625 -1.171875 
Q 16.75 -1.171875 10.03125 5.8125 
Q 3.328125 12.796875 3.328125 25.921875 
M 12.359375 25.921875 
Q 12.359375 15.96875 16.703125 11.015625 
Q 21.046875 6.0625 27.640625 6.0625 
Q 34.1875 6.0625 38.53125 11.03125 
Q 42.875 16.015625 42.875 26.21875 
Q 42.875 35.84375 38.5 40.796875 
Q 34.125 45.75 27.640625 45.75 
Q 21.046875 45.75 16.703125 40.8125 
Q 12.359375 35.890625 12.359375 25.921875 
" id="ArialMT-6f"/>
      <path d="M 6.59375 0 
L 6.59375 51.859375 
L 14.5 51.859375 
L 14.5 44.484375 
Q 20.21875 53.03125 31 53.03125 
Q 35.6875 53.03125 39.625 51.34375 
Q 43.5625 49.65625 45.515625 46.921875 
Q 47.46875 44.1875 48.25 40.4375 
Q 48.734375 37.984375 48.734375 31.890625 
L 48.734375 0 
L 39.9375 0 
L 39.9375 31.546875 
Q 39.9375 36.921875 38.90625 39.578125 
Q 37.890625 42.234375 35.28125 43.8125 
Q 32.671875 45.40625 29.15625 45.40625 
Q 23.53125 45.40625 19.453125 41.84375 
Q 15.375 38.28125 15.375 28.328125 
L 15.375 0 
z
" id="ArialMT-6e"/>
     </defs>
     <g style="fill:#262626;" transform="translate(43.91375 221.7909375)rotate(-90.0)scale(0.11 -0.11)">
      <use xlink:href="#ArialMT-61"/>
      <use x="55.615234375" xlink:href="#ArialMT-62"/>
      <use x="111.23046875" xlink:href="#ArialMT-73"/>
      <use x="161.23046875" xlink:href="#ArialMT-6f"/>
      <use x="216.845703125" xlink:href="#ArialMT-72"/>
      <use x="250.146484375" xlink:href="#ArialMT-62"/>
      <use x="305.76171875" xlink:href="#ArialMT-61"/>
      <use x="361.376953125" xlink:href="#ArialMT-6e"/>
      <use x="416.9921875" xlink:href="#ArialMT-63"/>
      <use x="466.9921875" xlink:href="#ArialMT-65"/>
     </g>
    </g>
   </g>
   <g id="line2d_43">
    <path clip-path="url(#p59f0235f1e)" d="M 505.666121 324.724897 
L 504.68149 337.075938 
L 503.698135 345.508806 
L 502.468622 339.106037 
L 501.483991 330.198942 
L 500.500635 323.635028 
L 499.516005 317.958928 
L 498.65509 310.926119 
L 497.794176 301.894434 
L 496.072347 276.369449 
L 494.350519 250.0493 
L 493.489605 245.831918 
L 492.62869 276.230776 
L 491.766501 296.571729 
L 490.905586 327.353437 
L 489.922231 326.690812 
L 488.9376 318.370889 
L 488.076686 304.821519 
L 487.215771 294.13273 
L 486.354857 291.424195 
L 485.493943 308.38723 
L 484.633029 322.928358 
L 483.649673 322.711317 
L 481.804128 303.205711 
L 480.943214 298.060675 
L 480.082299 304.372692 
L 479.221385 314.259138 
L 478.360471 315.559333 
L 477.499557 309.297425 
L 476.638642 301.199459 
L 475.777728 298.90622 
L 474.916814 306.802334 
L 474.054624 319.321644 
L 473.19371 322.258054 
L 472.210354 305.880256 
L 471.34944 263.557608 
L 470.488526 265.921735 
L 469.627611 296.969393 
L 468.766697 310.069904 
L 467.905783 293.781658 
L 467.044869 253.60327 
L 466.182679 221.703779 
L 464.46085 263.427739 
L 463.599936 267.688247 
L 462.739022 268.147929 
L 461.878107 286.119929 
L 461.017193 292.283384 
L 460.156279 273.541187 
L 459.295365 251.399504 
L 458.43445 255.276424 
L 457.573536 250.434455 
L 456.712622 222.568911 
L 455.851707 177.868846 
L 454.990793 113.405156 
L 454.129879 60.96462 
L 453.268965 101.678779 
L 452.406775 115.434568 
L 451.545861 54.818487 
L 450.808663 39.6 
L 450.07019 94.259518 
L 449.209275 132.329861 
L 448.348361 145.043089 
L 447.487447 141.832326 
L 446.626533 126.622626 
L 445.765618 107.819404 
L 444.904704 91.640917 
L 444.04379 81.320211 
L 443.182875 79.998182 
L 442.321961 94.387535 
L 440.598857 149.39925 
L 439.737943 191.353239 
L 438.877029 223.82339 
L 438.016114 243.519557 
L 437.1552 256.820601 
L 436.294286 265.681706 
L 435.433371 271.689953 
L 430.267886 297.956932 
L 426.822953 311.244975 
L 425.101125 319.13331 
L 424.117769 325.673837 
L 423.133138 334.231076 
L 422.149783 340.586469 
L 421.165152 345.200906 
L 420.05808 346.469624 
L 417.721495 343.513869 
L 416.738139 338.924582 
L 415.753509 333.174864 
L 414.770153 332.937621 
L 413.785522 333.670211 
L 412.802167 332.855231 
L 411.817536 330.667077 
L 410.834181 325.335163 
L 408.988635 307.790204 
L 408.127721 296.96762 
L 407.266807 268.331277 
L 406.405893 281.197689 
L 405.544978 289.030789 
L 404.684064 278.107559 
L 403.82315 262.653467 
L 402.962235 243.11722 
L 401.239131 188.288793 
L 400.378217 187.047383 
L 399.517303 194.991034 
L 398.656389 199.544493 
L 397.795474 204.748146 
L 396.93456 221.884694 
L 396.073646 247.52504 
L 395.212731 264.272987 
L 394.351817 268.777927 
L 393.490903 264.492589 
L 390.047246 302.054201 
L 387.463227 326.423422 
L 386.479872 331.966708 
L 385.495241 336.732216 
L 384.511886 338.857231 
L 383.527255 340.533148 
L 382.543899 341.358291 
L 381.559269 341.907376 
L 379.591282 342.525289 
L 378.607927 342.434595 
L 377.623296 342.521609 
L 376.639941 342.128923 
L 374.671954 340.047478 
L 373.687323 338.50668 
L 372.703968 337.797744 
L 371.719337 336.182648 
L 370.735982 334.997265 
L 369.751351 337.634529 
L 368.767995 342.361132 
L 367.783365 344.230952 
L 366.800009 345.501782 
L 365.692937 346.385366 
L 364.585865 346.508735 
L 363.356352 346.15877 
L 362.24928 346.002019 
L 361.142208 345.059326 
L 360.035136 345.279174 
L 358.928064 346.20096 
L 357.820992 346.498214 
L 356.345321 346.605317 
L 355.114533 346.292764 
L 353.885019 344.339994 
L 352.777947 345.024817 
L 351.670875 346.338105 
L 350.317646 346.228742 
L 346.751547 346.368054 
L 345.520759 346.214434 
L 344.413687 345.919758 
L 342.200818 346.000587 
L 341.093746 345.83028 
L 339.986674 345.863629 
L 338.879602 345.657455 
L 336.665458 345.514867 
L 335.558386 345.22141 
L 334.451314 345.145047 
L 333.344242 345.371124 
L 331.130098 345.575187 
L 330.023026 344.858428 
L 328.915954 344.981528 
L 327.808882 345.273098 
L 326.70181 345.265641 
L 323.38187 344.371717 
L 321.167726 343.702309 
L 320.183095 343.836418 
L 317.968951 343.72932 
L 312.803465 343.091276 
L 311.818834 343.37075 
L 310.835479 343.500993 
L 309.850848 343.004111 
L 307.882862 342.945872 
L 306.899506 341.45643 
L 305.914875 341.714666 
L 304.93152 341.686793 
L 303.946889 341.285686 
L 302.963534 341.280273 
L 300.010917 340.836522 
L 293.123602 340.123534 
L 292.138971 339.795483 
L 291.155616 339.683547 
L 290.170985 340.000414 
L 288.202999 341.002698 
L 287.219643 341.727391 
L 285.251657 344.334578 
L 284.144585 344.692292 
L 283.037513 343.500388 
L 282.054158 345.798486 
L 280.823369 345.429337 
L 279.716297 342.116082 
L 278.732942 339.788641 
L 277.748311 338.854561 
L 274.796969 338.505737 
L 272.828983 338.50167 
L 270.860997 338.258883 
L 266.925024 338.127378 
L 264.957038 337.696782 
L 262.989051 336.662742 
L 262.004421 336.416064 
L 260.036434 336.79831 
L 259.053079 337.177063 
L 258.068448 337.3686 
L 255.117106 337.314576 
L 253.14912 337.289178 
L 245.277175 336.969772 
L 242.324558 337.006028 
L 239.373216 336.638665 
L 237.40523 336.41993 
L 236.420599 335.960706 
L 235.437243 334.09451 
L 234.452613 333.705864 
L 233.469257 335.057201 
L 232.484626 335.190196 
L 230.51664 334.647112 
L 228.548654 333.715833 
L 227.565298 332.918368 
L 226.580667 331.810361 
L 225.597312 330.180147 
L 224.612681 328.234567 
L 223.629326 325.548259 
L 222.644695 320.532736 
L 221.661339 310.968681 
L 220.800425 296.183284 
L 219.939511 278.992831 
L 219.078597 265.059794 
L 218.217682 266.728401 
L 217.355493 278.284042 
L 216.494578 284.818006 
L 215.633664 284.988489 
L 214.77275 281.815546 
L 213.911835 276.155604 
L 213.050921 268.163082 
L 211.329093 245.134908 
L 210.468178 239.620262 
L 209.607264 239.326581 
L 208.74635 245.107773 
L 207.885435 255.629778 
L 207.024521 262.744429 
L 206.163607 261.330361 
L 205.302693 253.700436 
L 204.441778 259.594476 
L 203.579589 282.804894 
L 202.718674 299.285835 
L 201.85776 307.316198 
L 200.996846 313.140086 
L 200.135931 315.877441 
L 199.275017 316.244253 
L 197.430747 324.496315 
L 195.462761 326.66988 
L 193.494775 331.409689 
L 192.510144 332.403414 
L 190.542158 333.299416 
L 187.590816 334.336172 
L 184.638199 334.455924 
L 180.702226 334.51756 
L 178.73424 334.296846 
L 176.766254 334.15317 
L 174.798267 334.018716 
L 171.846926 333.727128 
L 162.006994 333.270751 
L 160.039008 333.325021 
L 159.054377 333.296667 
L 156.103035 333.518855 
L 154.135049 333.483142 
L 152.167063 333.499408 
L 150.199077 333.457841 
L 147.246459 333.414453 
L 146.263104 333.322606 
L 144.295118 332.878645 
L 143.310487 332.820306 
L 142.327131 333.13163 
L 141.342501 333.594051 
L 140.359145 334.182203 
L 139.374514 334.621944 
L 137.406528 335.171161 
L 136.423173 335.073666 
L 135.438542 334.845351 
L 134.455186 334.830139 
L 133.470555 335.461731 
L 132.4872 336.31789 
L 131.502569 336.893861 
L 130.519214 337.336335 
L 128.551227 337.722578 
L 127.566597 337.674997 
L 126.583241 337.75085 
L 124.615255 337.336627 
L 123.630624 336.92729 
L 122.647269 335.884932 
L 121.662638 330.06823 
L 120.679282 325.091824 
L 119.694651 333.110892 
L 118.711296 332.96695 
L 116.74331 323.69825 
L 115.758679 327.060854 
L 113.790693 324.66484 
L 112.807337 316.492126 
L 111.946423 301.437871 
L 111.085509 301.584242 
L 110.223319 323.56183 
L 109.362405 336.226738 
L 108.379049 341.391096 
L 107.394418 343.453416 
L 106.411063 344.001003 
L 105.303991 344.429346 
L 104.196919 344.575004 
L 103.089847 345.108394 
L 98.661559 345.489481 
L 97.554487 345.448012 
L 96.447415 345.68042 
L 95.341618 345.583368 
L 94.234546 345.794153 
L 93.127474 345.529329 
L 92.020402 345.768414 
L 90.91333 345.642352 
L 88.699186 345.762375 
L 86.485042 345.900926 
L 85.37797 345.805255 
L 84.270898 346.035917 
L 80.949682 346.040959 
L 79.84261 346.188188 
L 78.735538 346.152522 
L 75.16944 346.368216 
L 72.709138 346.495206 
L 72.709138 346.495206 
" style="fill:none;stroke:#4c72b0;stroke-linecap:round;stroke-width:1.75;"/>
   </g>
   <g id="line2d_44">
    <path clip-path="url(#p59f0235f1e)" d="M 505.666121 137.49889 
L 504.805207 148.066447 
L 503.944293 152.010029 
L 503.083378 140.527113 
L 502.222464 123.473371 
L 501.36155 112.947872 
L 499.638446 89.1255 
L 497.055703 60.6871 
L 495.457591 48.743653 
L 493.980645 39.6 
L 493.243447 45.545978 
L 492.504974 68.779323 
L 491.644059 76.575914 
L 490.783145 76.576057 
L 489.922231 71.557502 
L 489.061317 68.510691 
L 488.200402 66.293517 
L 487.339488 71.637174 
L 486.478574 81.008622 
L 485.617659 94.596829 
L 484.756745 101.283281 
L 483.894555 100.390672 
L 483.033641 95.331203 
L 482.172727 88.992317 
L 481.311813 84.040404 
L 480.450898 84.84747 
L 479.589984 91.3965 
L 478.72907 94.550613 
L 477.868155 91.947314 
L 477.007241 88.208372 
L 476.146327 89.186534 
L 475.285413 97.066191 
L 474.424498 106.104151 
L 473.563584 111.357758 
L 472.70267 112.659513 
L 471.841755 105.381262 
L 470.980841 92.280205 
L 470.118651 98.821975 
L 469.257737 107.39917 
L 468.396823 110.041247 
L 467.535909 101.322576 
L 466.674994 89.856159 
L 465.81408 93.052174 
L 464.953166 102.617355 
L 464.092251 106.629838 
L 463.231337 106.397038 
L 462.370423 110.106192 
L 461.509509 112.204564 
L 460.648594 106.497653 
L 459.78768 98.10502 
L 458.926766 96.05494 
L 458.065851 95.504211 
L 457.204937 87.770435 
L 454.620919 54.409452 
L 453.883721 54.869263 
L 453.145248 71.497989 
L 452.284334 73.097323 
L 451.423419 59.884666 
L 450.684946 69.051345 
L 449.824032 92.336772 
L 448.963118 107.261234 
L 448.102203 115.941796 
L 447.241289 118.081743 
L 446.380375 115.374702 
L 445.519461 112.212097 
L 444.658546 110.020304 
L 443.797632 109.193335 
L 442.936718 111.239162 
L 442.075803 120.189706 
L 441.214889 132.652085 
L 440.353975 141.408106 
L 439.493061 152.884748 
L 438.630871 158.947902 
L 437.769957 162.245442 
L 436.909042 163.07593 
L 436.048128 162.600856 
L 435.187214 161.842644 
L 433.465385 161.340954 
L 432.604471 161.536005 
L 431.743557 161.334549 
L 430.882642 160.764049 
L 428.299899 157.948518 
L 427.438985 157.342333 
L 426.578071 156.535067 
L 425.717157 155.361545 
L 424.854967 153.909841 
L 423.994053 155.466449 
L 423.133138 157.371915 
L 422.272224 157.839928 
L 421.41131 158.706237 
L 420.550395 159.319828 
L 419.689481 159.234418 
L 418.828567 158.623587 
L 417.967653 158.294515 
L 417.106738 156.480982 
L 416.245824 152.801025 
L 415.38491 152.916188 
L 414.523995 155.685479 
L 413.663081 157.45094 
L 412.802167 157.730256 
L 411.941253 157.118355 
L 411.079063 154.962401 
L 408.49632 142.023117 
L 407.635406 128.58205 
L 406.774491 133.161023 
L 405.913577 146.712949 
L 405.052663 141.639137 
L 403.330834 122.071398 
L 402.46992 106.212902 
L 401.609006 85.857661 
L 400.748091 86.407627 
L 399.887177 97.258562 
L 399.026263 103.850878 
L 398.165349 107.031679 
L 397.303159 116.387766 
L 396.442245 135.487725 
L 395.58133 147.171887 
L 394.720416 148.276005 
L 393.859502 139.438059 
L 392.998587 143.875683 
L 392.137673 153.620488 
L 390.415845 164.997662 
L 389.55493 173.62172 
L 387.833102 185.471189 
L 386.972187 188.939111 
L 386.111273 190.689353 
L 385.250359 192.175385 
L 384.389445 192.014481 
L 383.527255 193.378956 
L 382.666341 193.447867 
L 381.805426 193.665627 
L 380.944512 194.041854 
L 379.222683 194.077252 
L 378.361769 193.839015 
L 377.500855 194.21557 
L 376.639941 193.7095 
L 375.779026 192.916551 
L 374.918112 192.467354 
L 374.057198 191.771904 
L 373.196283 191.648773 
L 372.335369 190.846687 
L 371.474455 191.324476 
L 370.613541 192.678431 
L 368.890437 199.968784 
L 368.029522 201.054807 
L 367.168608 202.890268 
L 366.307694 202.921031 
L 365.446779 204.101396 
L 364.585865 203.988551 
L 363.724951 203.433678 
L 362.864037 203.845604 
L 362.003122 203.180259 
L 361.142208 202.827056 
L 360.281294 202.696825 
L 358.559465 205.61894 
L 357.698551 206.146244 
L 356.837637 205.877651 
L 355.975447 206.093513 
L 355.114533 205.813794 
L 354.253618 205.258279 
L 353.392704 205.312294 
L 352.53179 205.610435 
L 350.809961 205.518827 
L 349.949047 205.220587 
L 349.088133 205.575523 
L 347.366304 205.595016 
L 346.50539 205.829499 
L 345.644475 205.790468 
L 344.783561 205.542753 
L 343.922647 206.148739 
L 342.200818 206.302181 
L 340.477714 206.931043 
L 339.6168 207.090743 
L 337.894971 207.965397 
L 335.312229 210.240628 
L 333.5904 213.382732 
L 331.007657 220.597111 
L 330.146743 220.55122 
L 329.285829 217.961904 
L 328.424914 217.325938 
L 327.562725 217.813335 
L 326.70181 219.987425 
L 324.979982 221.617814 
L 324.119067 221.964939 
L 323.258153 221.461822 
L 320.67541 214.365996 
L 319.814496 213.211616 
L 318.953582 212.626574 
L 317.231753 211.213418 
L 316.370839 210.788508 
L 314.64901 211.028848 
L 313.786821 210.798999 
L 312.925906 210.684499 
L 312.064992 211.091641 
L 311.204078 211.933164 
L 310.343163 213.941043 
L 308.621335 218.665068 
L 307.760421 222.508491 
L 306.899506 224.542998 
L 306.038592 221.172579 
L 305.177678 219.967209 
L 304.316763 219.41173 
L 302.594935 217.106406 
L 300.873106 215.697994 
L 300.010917 215.279131 
L 299.150002 214.577408 
L 296.567259 212.980205 
L 294.845431 212.296083 
L 293.123602 211.434259 
L 290.540859 210.509569 
L 289.679945 210.364541 
L 288.819031 210.347197 
L 287.958117 210.127679 
L 284.513184 210.205555 
L 283.65227 210.624736 
L 282.791355 210.578694 
L 281.930441 209.652083 
L 281.069527 210.20634 
L 279.347698 211.896329 
L 278.486784 212.135491 
L 276.764955 212.135042 
L 275.043127 212.225037 
L 274.182213 212.357648 
L 271.598194 212.428144 
L 264.71088 212.844273 
L 261.267223 212.951289 
L 256.100462 213.256547 
L 255.239547 213.421123 
L 253.517719 213.539221 
L 247.491319 214.201045 
L 245.76949 214.588456 
L 244.046386 215.056713 
L 243.185472 215.191052 
L 240.602729 215.146224 
L 237.159072 214.639957 
L 236.298158 214.204579 
L 235.437243 213.27831 
L 234.576329 213.186985 
L 233.715415 213.92409 
L 232.854501 213.926155 
L 231.993586 213.668227 
L 229.409568 212.405685 
L 228.548654 211.856987 
L 226.826825 210.197224 
L 225.965911 209.008203 
L 225.104997 207.539341 
L 224.244082 205.792136 
L 223.383168 203.27313 
L 222.522254 199.352544 
L 221.661339 193.091725 
L 219.939511 176.150762 
L 219.078597 170.671032 
L 218.217682 175.520776 
L 217.355493 184.278589 
L 216.494578 188.182174 
L 215.633664 187.760673 
L 214.77275 185.217359 
L 213.911835 181.522876 
L 213.050921 177.203586 
L 211.329093 166.754383 
L 210.468178 165.799714 
L 209.607264 168.005473 
L 208.74635 174.065375 
L 207.885435 181.604361 
L 207.024521 186.418829 
L 206.163607 187.057901 
L 205.302693 186.229205 
L 204.441778 194.719186 
L 203.579589 209.631691 
L 202.718674 217.859052 
L 201.85776 221.118889 
L 200.996846 222.251068 
L 200.135931 220.304846 
L 199.275017 218.840171 
L 197.553189 226.752005 
L 196.692274 227.678345 
L 195.83136 227.834502 
L 194.970446 228.361466 
L 194.109531 229.187227 
L 193.248617 229.536736 
L 192.387703 229.319524 
L 191.526789 229.364958 
L 189.803685 229.237313 
L 188.94277 229.289072 
L 185.499113 228.754521 
L 184.638199 228.68462 
L 182.055456 228.229445 
L 181.194542 228.061619 
L 180.333627 228.022388 
L 179.472713 227.731396 
L 175.166866 227.125325 
L 165.696809 226.541816 
L 163.114066 226.634662 
L 162.251877 226.886158 
L 155.364562 227.739678 
L 153.642734 227.832032 
L 152.781819 228.018662 
L 151.059991 228.005928 
L 148.475973 228.28781 
L 145.89323 228.371641 
L 143.310487 228.561581 
L 141.588658 229.568976 
L 139.86683 230.817802 
L 137.284087 231.813052 
L 134.700069 232.057646 
L 133.839154 232.615828 
L 132.117326 234.30995 
L 131.256411 234.773496 
L 128.673669 235.423484 
L 127.812754 235.499188 
L 126.95184 235.974381 
L 125.230011 235.76554 
L 124.369097 235.916764 
L 123.508183 235.896712 
L 122.647269 235.503871 
L 121.786354 234.695119 
L 120.92544 233.105963 
L 119.202336 236.489221 
L 118.341422 235.643034 
L 117.480507 233.493238 
L 116.619593 234.98138 
L 115.758679 235.981993 
L 114.897765 235.248224 
L 114.03685 235.298469 
L 113.175936 234.540984 
L 112.315022 231.144232 
L 111.454107 230.11946 
L 109.732279 239.574789 
L 108.871365 241.793123 
L 108.01045 241.670925 
L 107.149536 241.929663 
L 106.287346 241.668546 
L 105.426432 242.024816 
L 104.565518 241.948785 
L 103.704603 242.731835 
L 101.982775 242.542873 
L 99.400032 242.909147 
L 98.539118 242.500615 
L 97.678203 242.729543 
L 96.817289 243.162413 
L 95.956375 242.630272 
L 95.095461 243.231818 
L 94.234546 243.157 
L 93.373632 242.863898 
L 92.511442 243.681611 
L 91.650528 242.89623 
L 90.789614 243.782975 
L 89.928699 243.328133 
L 88.206871 243.888214 
L 85.624128 243.773562 
L 83.902299 244.390158 
L 83.041385 244.169998 
L 82.180471 244.327524 
L 80.458642 244.475332 
L 72.709138 245.204151 
L 72.709138 245.204151 
" style="fill:none;stroke:#55a868;stroke-linecap:round;stroke-width:1.75;"/>
   </g>
   <g id="line2d_45">
    <path clip-path="url(#p59f0235f1e)" d="M 505.666121 322.255332 
L 504.68149 335.672687 
L 503.698135 345.34682 
L 502.468622 339.562124 
L 501.483991 330.403701 
L 500.500635 323.278339 
L 499.516005 317.255067 
L 498.65509 311.062253 
L 497.794176 302.926789 
L 494.350519 253.734078 
L 493.489605 250.450561 
L 492.62869 281.525038 
L 490.905586 326.856469 
L 489.922231 328.282775 
L 488.9376 322.382099 
L 487.09333 299.991178 
L 486.232416 296.969838 
L 485.371502 311.83679 
L 484.510587 322.791565 
L 483.525957 320.674803 
L 481.681687 299.341553 
L 480.820773 295.139995 
L 479.097669 310.311636 
L 478.236754 309.57669 
L 477.37584 302.34506 
L 476.514926 296.15728 
L 475.654011 297.920208 
L 473.932183 321.671133 
L 472.948827 325.332578 
L 471.964197 309.270784 
L 471.103282 264.333358 
L 470.242368 276.546368 
L 469.381454 302.19518 
L 468.520539 303.827349 
L 467.659625 279.940674 
L 466.798711 231.339394 
L 465.937797 213.46497 
L 465.076882 241.994135 
L 464.214693 262.440261 
L 463.353778 263.259248 
L 462.492864 268.443761 
L 461.63195 284.34769 
L 460.771035 279.507471 
L 459.910121 250.161 
L 459.049207 239.00944 
L 458.188293 254.459123 
L 457.327378 247.957841 
L 456.466464 218.836821 
L 455.60555 170.442673 
L 454.744635 96.355051 
L 453.883721 55.834053 
L 453.022807 104.926473 
L 452.161893 102.261103 
L 451.300978 39.6 
L 450.562505 50.680567 
L 449.824032 110.210683 
L 448.963118 147.237645 
L 448.102203 160.021049 
L 447.241289 154.697682 
L 446.380375 138.228729 
L 444.658546 101.756043 
L 443.797632 89.795475 
L 442.936718 88.476636 
L 442.075803 106.344086 
L 440.353975 163.348239 
L 439.493061 204.362522 
L 438.630871 231.789937 
L 437.769957 249.718738 
L 436.909042 261.703989 
L 436.048128 269.922082 
L 435.187214 275.738401 
L 433.465385 284.17829 
L 430.882642 295.969614 
L 426.578071 314.027656 
L 424.854967 322.524837 
L 422.886981 337.20838 
L 421.903625 342.865488 
L 420.918994 346.232326 
L 419.813198 346.3405 
L 418.582409 344.99273 
L 417.475337 343.987339 
L 416.491982 339.770161 
L 415.507351 336.39461 
L 413.539365 337.433408 
L 412.556009 336.815461 
L 411.571378 334.490573 
L 410.588023 328.476171 
L 408.742478 312.579775 
L 407.881563 297.422731 
L 407.020649 274.556011 
L 406.159735 294.929761 
L 405.298821 293.259281 
L 404.437906 279.052685 
L 403.576992 261.955386 
L 402.716078 238.464292 
L 401.855163 206.811584 
L 400.994249 184.178009 
L 400.133335 185.894757 
L 399.271145 192.401951 
L 398.410231 196.359607 
L 397.549317 205.287329 
L 395.827488 248.024439 
L 394.966574 262.007963 
L 394.105659 264.357829 
L 393.244745 264.364058 
L 392.383831 276.373424 
L 391.522917 286.073229 
L 390.662002 293.839358 
L 389.801088 304.846735 
L 387.218345 325.95239 
L 386.233714 330.635622 
L 385.250359 333.89316 
L 384.265728 335.333559 
L 383.282373 337.097026 
L 381.314386 338.653715 
L 379.3464 339.523387 
L 378.361769 339.413779 
L 377.378414 339.476162 
L 376.393783 338.913769 
L 375.410427 337.950158 
L 373.442441 335.23652 
L 372.45781 335.487459 
L 371.474455 334.65322 
L 370.489824 333.98897 
L 368.521838 342.199509 
L 367.538482 344.302109 
L 365.446779 346.536382 
L 362.864037 346.159451 
L 360.649893 344.964986 
L 359.542821 345.605207 
L 358.435749 346.386225 
L 355.853006 346.721662 
L 354.745934 346.028933 
L 353.638862 344.763514 
L 352.53179 345.716295 
L 351.424718 346.260656 
L 350.195205 346.125492 
L 347.981061 346.168219 
L 345.766917 346.074779 
L 344.659845 345.959911 
L 341.338629 345.972909 
L 338.018688 345.709733 
L 336.911616 345.732975 
L 334.697472 345.529074 
L 333.5904 345.654328 
L 332.483328 346.209422 
L 331.376256 346.419347 
L 328.915954 346.036367 
L 325.594738 346.345693 
L 324.365225 346.147133 
L 323.258153 346.192105 
L 319.936937 345.456721 
L 316.616997 345.393871 
L 314.402853 345.154214 
L 313.295781 345.130146 
L 308.867493 345.677806 
L 307.760421 346.145944 
L 306.653349 345.746785 
L 305.546277 345.712 
L 304.439205 345.425851 
L 303.332133 345.338939 
L 302.225061 345.062089 
L 301.117989 345.162175 
L 300.010917 344.91241 
L 298.90512 344.966884 
L 296.690976 344.559311 
L 295.583904 344.641998 
L 293.36976 344.027239 
L 291.155616 343.983604 
L 290.048544 343.17186 
L 289.065189 342.256135 
L 288.080558 340.688939 
L 287.097202 338.666848 
L 286.112571 336.058648 
L 285.129216 334.311767 
L 284.144585 333.674333 
L 283.16123 335.757082 
L 282.176599 331.617172 
L 281.193243 329.69971 
L 279.225257 340.776366 
L 278.240626 343.704282 
L 277.257271 344.15343 
L 270.614839 343.735474 
L 265.325637 343.257432 
L 262.374295 342.186547 
L 261.389664 342.09701 
L 258.438322 342.596733 
L 245.645774 341.95566 
L 242.694432 341.695036 
L 237.773829 341.01339 
L 236.790473 340.731447 
L 234.822487 338.146844 
L 233.837856 339.336611 
L 232.854501 339.766362 
L 231.86987 339.558861 
L 229.901883 338.700827 
L 228.918528 338.244447 
L 227.933897 337.584726 
L 226.950542 336.68122 
L 225.965911 335.329942 
L 224.982555 333.572799 
L 223.997925 331.417978 
L 223.014569 328.057607 
L 222.029938 321.598449 
L 221.169024 310.645376 
L 219.447195 283.733972 
L 218.586281 279.877985 
L 216.864453 297.000833 
L 216.003538 298.883943 
L 215.142624 297.217993 
L 214.28171 293.470295 
L 213.41952 287.443593 
L 212.558606 279.129807 
L 211.697691 268.330944 
L 210.836777 260.993349 
L 209.975863 259.656214 
L 209.114949 262.722175 
L 207.39312 280.675622 
L 206.532206 283.194904 
L 205.671291 277.910582 
L 204.810377 275.858492 
L 203.088549 310.234024 
L 202.227634 318.837144 
L 201.36672 324.496841 
L 200.382089 328.920902 
L 198.414103 332.54909 
L 197.430747 333.69528 
L 196.446117 333.125699 
L 195.462761 333.459311 
L 194.47813 335.268979 
L 193.494775 337.337377 
L 192.510144 338.05796 
L 191.526789 338.271318 
L 190.542158 338.224245 
L 189.558802 338.4199 
L 188.574171 338.815811 
L 186.606185 338.851953 
L 184.638199 338.759548 
L 183.654843 338.601145 
L 182.670213 338.613115 
L 175.782898 337.499925 
L 174.798267 337.276455 
L 169.878939 336.793875 
L 168.894309 336.544454 
L 166.926322 336.34607 
L 164.958336 335.981909 
L 162.99035 335.929395 
L 162.006994 335.753162 
L 159.054377 335.729063 
L 153.150418 335.495265 
L 146.263104 335.023133 
L 145.278473 334.697022 
L 143.310487 334.637226 
L 142.327131 334.856118 
L 141.342501 335.260618 
L 139.374514 336.362884 
L 137.406528 336.911798 
L 136.423173 336.966091 
L 135.438542 336.728483 
L 134.455186 336.695594 
L 133.470555 337.253918 
L 132.4872 338.123617 
L 131.502569 338.677523 
L 129.534583 339.166299 
L 128.551227 339.27315 
L 127.566597 339.648531 
L 125.59861 339.120134 
L 124.615255 338.676816 
L 123.630624 338.104627 
L 122.647269 337.254073 
L 120.679282 325.868159 
L 119.694651 334.360644 
L 118.711296 335.33131 
L 116.74331 328.496327 
L 115.758679 331.18471 
L 114.775323 330.329982 
L 113.790693 329.846457 
L 112.807337 322.324025 
L 111.946423 306.656304 
L 111.085509 304.181676 
L 110.223319 324.816568 
L 109.362405 337.565826 
L 108.379049 342.60638 
L 106.411063 344.58031 
L 105.303991 345.521471 
L 103.089847 346.162655 
L 101.982775 346.299895 
L 94.603145 346.352879 
L 93.249915 346.189777 
L 92.142843 346.274254 
L 91.035771 346.214875 
L 88.699186 346.314865 
L 87.469673 346.199018 
L 84.024741 346.346372 
L 81.565714 346.298576 
L 72.831579 346.500861 
L 72.831579 346.500861 
" style="fill:none;stroke:#c44e52;stroke-linecap:round;stroke-width:1.75;"/>
   </g>
   <g id="patch_3">
    <path d="M 72 39.6 
L 518.4 39.6 
" style="fill:none;"/>
   </g>
   <g id="patch_4">
    <path d="M 518.4 346.5 
L 518.4 39.6 
" style="fill:none;"/>
   </g>
   <g id="patch_5">
    <path d="M 72 346.5 
L 518.4 346.5 
" style="fill:none;"/>
   </g>
   <g id="patch_6">
    <path d="M 72 346.5 
L 72 39.6 
" style="fill:none;"/>
   </g>
   <g id="text_17">
    <!-- Penn Rubber -->
    <defs>
     <path d="M 7.859375 0 
L 7.859375 71.578125 
L 39.59375 71.578125 
Q 49.171875 71.578125 54.140625 69.640625 
Q 59.125 67.71875 62.109375 62.828125 
Q 65.09375 57.953125 65.09375 52.046875 
Q 65.09375 44.4375 60.15625 39.203125 
Q 55.21875 33.984375 44.921875 32.5625 
Q 48.6875 30.765625 50.640625 29 
Q 54.78125 25.203125 58.5 19.484375 
L 70.953125 0 
L 59.03125 0 
L 49.5625 14.890625 
Q 45.40625 21.34375 42.71875 24.75 
Q 40.046875 28.171875 37.921875 29.53125 
Q 35.796875 30.90625 33.59375 31.453125 
Q 31.984375 31.78125 28.328125 31.78125 
L 17.328125 31.78125 
L 17.328125 0 
z
M 17.328125 39.984375 
L 37.703125 39.984375 
Q 44.1875 39.984375 47.84375 41.328125 
Q 51.515625 42.671875 53.421875 45.625 
Q 55.328125 48.578125 55.328125 52.046875 
Q 55.328125 57.125 51.640625 60.390625 
Q 47.953125 63.671875 39.984375 63.671875 
L 17.328125 63.671875 
z
" id="ArialMT-52"/>
     <path d="M 40.578125 0 
L 40.578125 7.625 
Q 34.515625 -1.171875 24.125 -1.171875 
Q 19.53125 -1.171875 15.546875 0.578125 
Q 11.578125 2.34375 9.640625 5 
Q 7.71875 7.671875 6.9375 11.53125 
Q 6.390625 14.109375 6.390625 19.734375 
L 6.390625 51.859375 
L 15.1875 51.859375 
L 15.1875 23.09375 
Q 15.1875 16.21875 15.71875 13.8125 
Q 16.546875 10.359375 19.234375 8.375 
Q 21.921875 6.390625 25.875 6.390625 
Q 29.828125 6.390625 33.296875 8.421875 
Q 36.765625 10.453125 38.203125 13.9375 
Q 39.65625 17.4375 39.65625 24.078125 
L 39.65625 51.859375 
L 48.4375 51.859375 
L 48.4375 0 
z
" id="ArialMT-75"/>
     <path d="M 7.71875 0 
L 7.71875 71.578125 
L 34.71875 71.578125 
Q 41.84375 71.578125 45.609375 70.90625 
Q 50.875 70.015625 54.4375 67.546875 
Q 58.015625 65.09375 60.1875 60.640625 
Q 62.359375 56.203125 62.359375 50.875 
Q 62.359375 41.75 56.546875 35.421875 
Q 50.734375 29.109375 35.546875 29.109375 
L 17.1875 29.109375 
L 17.1875 0 
z
M 17.1875 37.546875 
L 35.6875 37.546875 
Q 44.875 37.546875 48.734375 40.96875 
Q 52.59375 44.390625 52.59375 50.59375 
Q 52.59375 55.078125 50.3125 58.265625 
Q 48.046875 61.46875 44.34375 62.5 
Q 41.9375 63.140625 35.5 63.140625 
L 17.1875 63.140625 
z
" id="ArialMT-50"/>
     <path id="ArialMT-20"/>
    </defs>
    <g style="fill:#262626;" transform="translate(259.8440625 34.6)scale(0.12 -0.12)">
     <use xlink:href="#ArialMT-50"/>
     <use x="66.69921875" xlink:href="#ArialMT-65"/>
     <use x="122.314453125" xlink:href="#ArialMT-6e"/>
     <use x="177.9296875" xlink:href="#ArialMT-6e"/>
     <use x="233.544921875" xlink:href="#ArialMT-20"/>
     <use x="261.328125" xlink:href="#ArialMT-52"/>
     <use x="333.544921875" xlink:href="#ArialMT-75"/>
     <use x="389.16015625" xlink:href="#ArialMT-62"/>
     <use x="444.775390625" xlink:href="#ArialMT-62"/>
     <use x="500.390625" xlink:href="#ArialMT-65"/>
     <use x="556.005859375" xlink:href="#ArialMT-72"/>
    </g>
   </g>
   <g id="legend_1">
    <g id="line2d_46">
     <path d="M 81 52.257812 
L 101 52.257812 
" style="fill:none;stroke:#4c72b0;stroke-linecap:round;stroke-width:1.75;"/>
    </g>
    <g id="line2d_47"/>
    <g id="text_18">
     <!-- Penn_ATP -->
     <defs>
      <path d="M -0.140625 0 
L 27.34375 71.578125 
L 37.546875 71.578125 
L 66.84375 0 
L 56.0625 0 
L 47.703125 21.6875 
L 17.78125 21.6875 
L 9.90625 0 
z
M 20.515625 29.390625 
L 44.78125 29.390625 
L 37.3125 49.21875 
Q 33.890625 58.25 32.234375 64.0625 
Q 30.859375 57.171875 28.375 50.390625 
z
" id="ArialMT-41"/>
      <path d="M -1.515625 -19.875 
L -1.515625 -13.53125 
L 56.734375 -13.53125 
L 56.734375 -19.875 
z
" id="ArialMT-5f"/>
      <path d="M 25.921875 0 
L 25.921875 63.140625 
L 2.34375 63.140625 
L 2.34375 71.578125 
L 59.078125 71.578125 
L 59.078125 63.140625 
L 35.40625 63.140625 
L 35.40625 0 
z
" id="ArialMT-54"/>
     </defs>
     <g style="fill:#262626;" transform="translate(109.0 55.7578125)scale(0.1 -0.1)">
      <use xlink:href="#ArialMT-50"/>
      <use x="66.69921875" xlink:href="#ArialMT-65"/>
      <use x="122.314453125" xlink:href="#ArialMT-6e"/>
      <use x="177.9296875" xlink:href="#ArialMT-6e"/>
      <use x="233.544921875" xlink:href="#ArialMT-5f"/>
      <use x="289.16015625" xlink:href="#ArialMT-41"/>
      <use x="355.75" xlink:href="#ArialMT-54"/>
      <use x="416.833984375" xlink:href="#ArialMT-50"/>
     </g>
    </g>
    <g id="line2d_48">
     <path d="M 81 66.403125 
L 101 66.403125 
" style="fill:none;stroke:#55a868;stroke-linecap:round;stroke-width:1.75;"/>
    </g>
    <g id="line2d_49"/>
    <g id="text_19">
     <!-- Penn_ExtraDuty -->
     <defs>
      <path d="M 25.78125 7.859375 
L 27.046875 0.09375 
Q 23.34375 -0.6875 20.40625 -0.6875 
Q 15.625 -0.6875 12.984375 0.828125 
Q 10.359375 2.34375 9.28125 4.8125 
Q 8.203125 7.28125 8.203125 15.1875 
L 8.203125 45.015625 
L 1.765625 45.015625 
L 1.765625 51.859375 
L 8.203125 51.859375 
L 8.203125 64.703125 
L 16.9375 69.96875 
L 16.9375 51.859375 
L 25.78125 51.859375 
L 25.78125 45.015625 
L 16.9375 45.015625 
L 16.9375 14.703125 
Q 16.9375 10.9375 17.40625 9.859375 
Q 17.875 8.796875 18.921875 8.15625 
Q 19.96875 7.515625 21.921875 7.515625 
Q 23.390625 7.515625 25.78125 7.859375 
" id="ArialMT-74"/>
      <path d="M 0.734375 0 
L 19.671875 26.953125 
L 2.15625 51.859375 
L 13.140625 51.859375 
L 21.09375 39.703125 
Q 23.34375 36.234375 24.703125 33.890625 
Q 26.859375 37.109375 28.65625 39.59375 
L 37.40625 51.859375 
L 47.90625 51.859375 
L 29.984375 27.4375 
L 49.265625 0 
L 38.484375 0 
L 27.828125 16.109375 
L 25 20.453125 
L 11.375 0 
z
" id="ArialMT-78"/>
      <path d="M 7.90625 0 
L 7.90625 71.578125 
L 59.671875 71.578125 
L 59.671875 63.140625 
L 17.390625 63.140625 
L 17.390625 41.21875 
L 56.984375 41.21875 
L 56.984375 32.8125 
L 17.390625 32.8125 
L 17.390625 8.453125 
L 61.328125 8.453125 
L 61.328125 0 
z
" id="ArialMT-45"/>
      <path d="M 7.71875 0 
L 7.71875 71.578125 
L 32.375 71.578125 
Q 40.71875 71.578125 45.125 70.5625 
Q 51.265625 69.140625 55.609375 65.4375 
Q 61.28125 60.640625 64.078125 53.1875 
Q 66.890625 45.75 66.890625 36.1875 
Q 66.890625 28.03125 64.984375 21.734375 
Q 63.09375 15.4375 60.109375 11.296875 
Q 57.125 7.171875 53.578125 4.796875 
Q 50.046875 2.4375 45.046875 1.21875 
Q 40.046875 0 33.546875 0 
z
M 17.1875 8.453125 
L 32.46875 8.453125 
Q 39.546875 8.453125 43.578125 9.765625 
Q 47.609375 11.078125 50 13.484375 
Q 53.375 16.84375 55.25 22.53125 
Q 57.125 28.21875 57.125 36.328125 
Q 57.125 47.5625 53.4375 53.59375 
Q 49.75 59.625 44.484375 61.671875 
Q 40.671875 63.140625 32.234375 63.140625 
L 17.1875 63.140625 
z
" id="ArialMT-44"/>
      <path d="M 6.203125 -19.96875 
L 5.21875 -11.71875 
Q 8.109375 -12.5 10.25 -12.5 
Q 13.1875 -12.5 14.9375 -11.515625 
Q 16.703125 -10.546875 17.828125 -8.796875 
Q 18.65625 -7.46875 20.515625 -2.25 
Q 20.75 -1.515625 21.296875 -0.09375 
L 1.609375 51.859375 
L 11.078125 51.859375 
L 21.875 21.828125 
Q 23.96875 16.109375 25.640625 9.8125 
Q 27.15625 15.875 29.25 21.625 
L 40.328125 51.859375 
L 49.125 51.859375 
L 29.390625 -0.875 
Q 26.21875 -9.421875 24.46875 -12.640625 
Q 22.125 -17 19.09375 -19.015625 
Q 16.0625 -21.046875 11.859375 -21.046875 
Q 9.328125 -21.046875 6.203125 -19.96875 
" id="ArialMT-79"/>
     </defs>
     <g style="fill:#262626;" transform="translate(109.0 69.903125)scale(0.1 -0.1)">
      <use xlink:href="#ArialMT-50"/>
      <use x="66.69921875" xlink:href="#ArialMT-65"/>
      <use x="122.314453125" xlink:href="#ArialMT-6e"/>
      <use x="177.9296875" xlink:href="#ArialMT-6e"/>
      <use x="233.544921875" xlink:href="#ArialMT-5f"/>
      <use x="289.16015625" xlink:href="#ArialMT-45"/>
      <use x="355.859375" xlink:href="#ArialMT-78"/>
      <use x="405.859375" xlink:href="#ArialMT-74"/>
      <use x="433.642578125" xlink:href="#ArialMT-72"/>
      <use x="466.943359375" xlink:href="#ArialMT-61"/>
      <use x="522.55859375" xlink:href="#ArialMT-44"/>
      <use x="594.775390625" xlink:href="#ArialMT-75"/>
      <use x="650.390625" xlink:href="#ArialMT-74"/>
      <use x="678.173828125" xlink:href="#ArialMT-79"/>
     </g>
    </g>
    <g id="line2d_50">
     <path d="M 81 80.665625 
L 101 80.665625 
" style="fill:none;stroke:#c44e52;stroke-linecap:round;stroke-width:1.75;"/>
    </g>
    <g id="line2d_51"/>
    <g id="text_20">
     <!-- Penn_RegularDuty -->
     <defs>
      <path d="M 6.390625 0 
L 6.390625 71.578125 
L 15.1875 71.578125 
L 15.1875 0 
z
" id="ArialMT-6c"/>
      <path d="M 4.984375 -4.296875 
L 13.53125 -5.5625 
Q 14.0625 -9.515625 16.5 -11.328125 
Q 19.78125 -13.765625 25.4375 -13.765625 
Q 31.546875 -13.765625 34.859375 -11.328125 
Q 38.1875 -8.890625 39.359375 -4.5 
Q 40.046875 -1.8125 39.984375 6.78125 
Q 34.234375 0 25.640625 0 
Q 14.9375 0 9.078125 7.71875 
Q 3.21875 15.4375 3.21875 26.21875 
Q 3.21875 33.640625 5.90625 39.90625 
Q 8.59375 46.1875 13.6875 49.609375 
Q 18.796875 53.03125 25.6875 53.03125 
Q 34.859375 53.03125 40.828125 45.609375 
L 40.828125 51.859375 
L 48.921875 51.859375 
L 48.921875 7.03125 
Q 48.921875 -5.078125 46.453125 -10.125 
Q 44 -15.1875 38.640625 -18.109375 
Q 33.296875 -21.046875 25.484375 -21.046875 
Q 16.21875 -21.046875 10.5 -16.875 
Q 4.78125 -12.703125 4.984375 -4.296875 
M 12.25 26.859375 
Q 12.25 16.65625 16.296875 11.96875 
Q 20.359375 7.28125 26.46875 7.28125 
Q 32.515625 7.28125 36.609375 11.9375 
Q 40.71875 16.609375 40.71875 26.5625 
Q 40.71875 36.078125 36.5 40.90625 
Q 32.28125 45.75 26.3125 45.75 
Q 20.453125 45.75 16.34375 40.984375 
Q 12.25 36.234375 12.25 26.859375 
" id="ArialMT-67"/>
     </defs>
     <g style="fill:#262626;" transform="translate(109.0 84.165625)scale(0.1 -0.1)">
      <use xlink:href="#ArialMT-50"/>
      <use x="66.69921875" xlink:href="#ArialMT-65"/>
      <use x="122.314453125" xlink:href="#ArialMT-6e"/>
      <use x="177.9296875" xlink:href="#ArialMT-6e"/>
      <use x="233.544921875" xlink:href="#ArialMT-5f"/>
      <use x="289.16015625" xlink:href="#ArialMT-52"/>
      <use x="361.376953125" xlink:href="#ArialMT-65"/>
      <use x="416.9921875" xlink:href="#ArialMT-67"/>
      <use x="472.607421875" xlink:href="#ArialMT-75"/>
      <use x="528.22265625" xlink:href="#ArialMT-6c"/>
      <use x="550.439453125" xlink:href="#ArialMT-61"/>
      <use x="606.0546875" xlink:href="#ArialMT-72"/>
      <use x="639.35546875" xlink:href="#ArialMT-44"/>
      <use x="711.572265625" xlink:href="#ArialMT-75"/>
      <use x="767.1875" xlink:href="#ArialMT-74"/>
      <use x="794.970703125" xlink:href="#ArialMT-79"/>
     </g>
    </g>
   </g>
  </g>
 </g>
 <defs>
  <clipPath id="p59f0235f1e">
   <rect height="306.9" width="446.4" x="72.0" y="39.6"/>
  </clipPath>
 </defs>
</svg>
