<?xml version="1.0" encoding="utf-8" standalone="no"?>
<!DOCTYPE svg PUBLIC "-//W3C//DTD SVG 1.1//EN"
  "http://www.w3.org/Graphics/SVG/1.1/DTD/svg11.dtd">
<!-- Created with matplotlib (http://matplotlib.org/) -->
<svg height="396pt" version="1.1" viewBox="0 0 576 396" width="576pt" xmlns="http://www.w3.org/2000/svg" xmlns:xlink="http://www.w3.org/1999/xlink">
 <defs>
  <style type="text/css">
*{stroke-linecap:butt;stroke-linejoin:round;stroke-miterlimit:100000;}
  </style>
 </defs>
 <g id="figure_1">
  <g id="patch_1">
   <path d="M 0 396 
L 576 396 
L 576 0 
L 0 0 
z
" style="fill:#ffffff;"/>
  </g>
  <g id="axes_1">
   <g id="patch_2">
    <path d="M 72 346.5 
L 518.4 346.5 
L 518.4 39.6 
L 72 39.6 
z
" style="fill:#eaeaf2;"/>
   </g>
   <g id="matplotlib.axis_1">
    <g id="xtick_1">
     <g id="line2d_1">
      <path clip-path="url(#pe5aed611a9)" d="M 518.4 346.5 
L 518.4 39.6 
" style="fill:none;stroke:#ffffff;stroke-linecap:round;"/>
     </g>
     <g id="line2d_2"/>
     <g id="line2d_3"/>
     <g id="text_1">
      <!-- 500 -->
      <defs>
       <path d="M 4.15625 35.296875 
Q 4.15625 48 6.765625 55.734375 
Q 9.375 63.484375 14.515625 67.671875 
Q 19.671875 71.875 27.484375 71.875 
Q 33.25 71.875 37.59375 69.546875 
Q 41.9375 67.234375 44.765625 62.859375 
Q 47.609375 58.5 49.21875 52.21875 
Q 50.828125 45.953125 50.828125 35.296875 
Q 50.828125 22.703125 48.234375 14.96875 
Q 45.65625 7.234375 40.5 3 
Q 35.359375 -1.21875 27.484375 -1.21875 
Q 17.140625 -1.21875 11.234375 6.203125 
Q 4.15625 15.140625 4.15625 35.296875 
M 13.1875 35.296875 
Q 13.1875 17.671875 17.3125 11.828125 
Q 21.4375 6 27.484375 6 
Q 33.546875 6 37.671875 11.859375 
Q 41.796875 17.71875 41.796875 35.296875 
Q 41.796875 52.984375 37.671875 58.78125 
Q 33.546875 64.59375 27.390625 64.59375 
Q 21.34375 64.59375 17.71875 59.46875 
Q 13.1875 52.9375 13.1875 35.296875 
" id="ArialMT-30"/>
       <path d="M 4.15625 18.75 
L 13.375 19.53125 
Q 14.40625 12.796875 18.140625 9.390625 
Q 21.875 6 27.15625 6 
Q 33.5 6 37.890625 10.78125 
Q 42.28125 15.578125 42.28125 23.484375 
Q 42.28125 31 38.0625 35.34375 
Q 33.84375 39.703125 27 39.703125 
Q 22.75 39.703125 19.328125 37.765625 
Q 15.921875 35.84375 13.96875 32.765625 
L 5.71875 33.84375 
L 12.640625 70.609375 
L 48.25 70.609375 
L 48.25 62.203125 
L 19.671875 62.203125 
L 15.828125 42.96875 
Q 22.265625 47.46875 29.34375 47.46875 
Q 38.71875 47.46875 45.15625 40.96875 
Q 51.609375 34.46875 51.609375 24.265625 
Q 51.609375 14.546875 45.953125 7.46875 
Q 39.0625 -1.21875 27.15625 -1.21875 
Q 17.390625 -1.21875 11.203125 4.25 
Q 5.03125 9.71875 4.15625 18.75 
" id="ArialMT-35"/>
      </defs>
      <g style="fill:#262626;" transform="translate(510.05859375 360.6578125)scale(0.1 -0.1)">
       <use xlink:href="#ArialMT-35"/>
       <use x="55.615234375" xlink:href="#ArialMT-30"/>
       <use x="111.23046875" xlink:href="#ArialMT-30"/>
      </g>
     </g>
    </g>
    <g id="xtick_2">
     <g id="line2d_4">
      <path clip-path="url(#pe5aed611a9)" d="M 454.628571 346.5 
L 454.628571 39.6 
" style="fill:none;stroke:#ffffff;stroke-linecap:round;"/>
     </g>
     <g id="line2d_5"/>
     <g id="line2d_6"/>
     <g id="text_2">
      <!-- 1000 -->
      <defs>
       <path d="M 37.25 0 
L 28.46875 0 
L 28.46875 56 
Q 25.296875 52.984375 20.140625 49.953125 
Q 14.984375 46.921875 10.890625 45.40625 
L 10.890625 53.90625 
Q 18.265625 57.375 23.78125 62.296875 
Q 29.296875 67.234375 31.59375 71.875 
L 37.25 71.875 
z
" id="ArialMT-31"/>
      </defs>
      <g style="fill:#262626;" transform="translate(443.506696429 360.6578125)scale(0.1 -0.1)">
       <use xlink:href="#ArialMT-31"/>
       <use x="55.615234375" xlink:href="#ArialMT-30"/>
       <use x="111.23046875" xlink:href="#ArialMT-30"/>
       <use x="166.845703125" xlink:href="#ArialMT-30"/>
      </g>
     </g>
    </g>
    <g id="xtick_3">
     <g id="line2d_7">
      <path clip-path="url(#pe5aed611a9)" d="M 390.857143 346.5 
L 390.857143 39.6 
" style="fill:none;stroke:#ffffff;stroke-linecap:round;"/>
     </g>
     <g id="line2d_8"/>
     <g id="line2d_9"/>
     <g id="text_3">
      <!-- 1500 -->
      <g style="fill:#262626;" transform="translate(379.735267857 360.6578125)scale(0.1 -0.1)">
       <use xlink:href="#ArialMT-31"/>
       <use x="55.615234375" xlink:href="#ArialMT-35"/>
       <use x="111.23046875" xlink:href="#ArialMT-30"/>
       <use x="166.845703125" xlink:href="#ArialMT-30"/>
      </g>
     </g>
    </g>
    <g id="xtick_4">
     <g id="line2d_10">
      <path clip-path="url(#pe5aed611a9)" d="M 327.085714 346.5 
L 327.085714 39.6 
" style="fill:none;stroke:#ffffff;stroke-linecap:round;"/>
     </g>
     <g id="line2d_11"/>
     <g id="line2d_12"/>
     <g id="text_4">
      <!-- 2000 -->
      <defs>
       <path d="M 50.34375 8.453125 
L 50.34375 0 
L 3.03125 0 
Q 2.9375 3.171875 4.046875 6.109375 
Q 5.859375 10.9375 9.828125 15.625 
Q 13.8125 20.3125 21.34375 26.46875 
Q 33.015625 36.03125 37.109375 41.625 
Q 41.21875 47.21875 41.21875 52.203125 
Q 41.21875 57.421875 37.46875 61 
Q 33.734375 64.59375 27.734375 64.59375 
Q 21.390625 64.59375 17.578125 60.78125 
Q 13.765625 56.984375 13.71875 50.25 
L 4.6875 51.171875 
Q 5.609375 61.28125 11.65625 66.578125 
Q 17.71875 71.875 27.9375 71.875 
Q 38.234375 71.875 44.234375 66.15625 
Q 50.25 60.453125 50.25 52 
Q 50.25 47.703125 48.484375 43.546875 
Q 46.734375 39.40625 42.65625 34.8125 
Q 38.578125 30.21875 29.109375 22.21875 
Q 21.1875 15.578125 18.9375 13.203125 
Q 16.703125 10.84375 15.234375 8.453125 
z
" id="ArialMT-32"/>
      </defs>
      <g style="fill:#262626;" transform="translate(315.963839286 360.6578125)scale(0.1 -0.1)">
       <use xlink:href="#ArialMT-32"/>
       <use x="55.615234375" xlink:href="#ArialMT-30"/>
       <use x="111.23046875" xlink:href="#ArialMT-30"/>
       <use x="166.845703125" xlink:href="#ArialMT-30"/>
      </g>
     </g>
    </g>
    <g id="xtick_5">
     <g id="line2d_13">
      <path clip-path="url(#pe5aed611a9)" d="M 263.314286 346.5 
L 263.314286 39.6 
" style="fill:none;stroke:#ffffff;stroke-linecap:round;"/>
     </g>
     <g id="line2d_14"/>
     <g id="line2d_15"/>
     <g id="text_5">
      <!-- 2500 -->
      <g style="fill:#262626;" transform="translate(252.192410714 360.6578125)scale(0.1 -0.1)">
       <use xlink:href="#ArialMT-32"/>
       <use x="55.615234375" xlink:href="#ArialMT-35"/>
       <use x="111.23046875" xlink:href="#ArialMT-30"/>
       <use x="166.845703125" xlink:href="#ArialMT-30"/>
      </g>
     </g>
    </g>
    <g id="xtick_6">
     <g id="line2d_16">
      <path clip-path="url(#pe5aed611a9)" d="M 199.542857 346.5 
L 199.542857 39.6 
" style="fill:none;stroke:#ffffff;stroke-linecap:round;"/>
     </g>
     <g id="line2d_17"/>
     <g id="line2d_18"/>
     <g id="text_6">
      <!-- 3000 -->
      <defs>
       <path d="M 4.203125 18.890625 
L 12.984375 20.0625 
Q 14.5 12.59375 18.140625 9.296875 
Q 21.78125 6 27 6 
Q 33.203125 6 37.46875 10.296875 
Q 41.75 14.59375 41.75 20.953125 
Q 41.75 27 37.796875 30.921875 
Q 33.84375 34.859375 27.734375 34.859375 
Q 25.25 34.859375 21.53125 33.890625 
L 22.515625 41.609375 
Q 23.390625 41.5 23.921875 41.5 
Q 29.546875 41.5 34.03125 44.421875 
Q 38.53125 47.359375 38.53125 53.46875 
Q 38.53125 58.296875 35.25 61.46875 
Q 31.984375 64.65625 26.8125 64.65625 
Q 21.6875 64.65625 18.265625 61.421875 
Q 14.84375 58.203125 13.875 51.765625 
L 5.078125 53.328125 
Q 6.6875 62.15625 12.390625 67.015625 
Q 18.109375 71.875 26.609375 71.875 
Q 32.46875 71.875 37.390625 69.359375 
Q 42.328125 66.84375 44.9375 62.5 
Q 47.5625 58.15625 47.5625 53.265625 
Q 47.5625 48.640625 45.0625 44.828125 
Q 42.578125 41.015625 37.703125 38.765625 
Q 44.046875 37.3125 47.5625 32.6875 
Q 51.078125 28.078125 51.078125 21.140625 
Q 51.078125 11.765625 44.234375 5.25 
Q 37.40625 -1.265625 26.953125 -1.265625 
Q 17.53125 -1.265625 11.296875 4.34375 
Q 5.078125 9.96875 4.203125 18.890625 
" id="ArialMT-33"/>
      </defs>
      <g style="fill:#262626;" transform="translate(188.420982143 360.6578125)scale(0.1 -0.1)">
       <use xlink:href="#ArialMT-33"/>
       <use x="55.615234375" xlink:href="#ArialMT-30"/>
       <use x="111.23046875" xlink:href="#ArialMT-30"/>
       <use x="166.845703125" xlink:href="#ArialMT-30"/>
      </g>
     </g>
    </g>
    <g id="xtick_7">
     <g id="line2d_19">
      <path clip-path="url(#pe5aed611a9)" d="M 135.771429 346.5 
L 135.771429 39.6 
" style="fill:none;stroke:#ffffff;stroke-linecap:round;"/>
     </g>
     <g id="line2d_20"/>
     <g id="line2d_21"/>
     <g id="text_7">
      <!-- 3500 -->
      <g style="fill:#262626;" transform="translate(124.649553571 360.6578125)scale(0.1 -0.1)">
       <use xlink:href="#ArialMT-33"/>
       <use x="55.615234375" xlink:href="#ArialMT-35"/>
       <use x="111.23046875" xlink:href="#ArialMT-30"/>
       <use x="166.845703125" xlink:href="#ArialMT-30"/>
      </g>
     </g>
    </g>
    <g id="xtick_8">
     <g id="line2d_22">
      <path clip-path="url(#pe5aed611a9)" d="M 72 346.5 
L 72 39.6 
" style="fill:none;stroke:#ffffff;stroke-linecap:round;"/>
     </g>
     <g id="line2d_23"/>
     <g id="line2d_24"/>
     <g id="text_8">
      <!-- 4000 -->
      <defs>
       <path d="M 32.328125 0 
L 32.328125 17.140625 
L 1.265625 17.140625 
L 1.265625 25.203125 
L 33.9375 71.578125 
L 41.109375 71.578125 
L 41.109375 25.203125 
L 50.78125 25.203125 
L 50.78125 17.140625 
L 41.109375 17.140625 
L 41.109375 0 
z
M 32.328125 25.203125 
L 32.328125 57.46875 
L 9.90625 25.203125 
z
" id="ArialMT-34"/>
      </defs>
      <g style="fill:#262626;" transform="translate(60.878125 360.6578125)scale(0.1 -0.1)">
       <use xlink:href="#ArialMT-34"/>
       <use x="55.615234375" xlink:href="#ArialMT-30"/>
       <use x="111.23046875" xlink:href="#ArialMT-30"/>
       <use x="166.845703125" xlink:href="#ArialMT-30"/>
      </g>
     </g>
    </g>
    <g id="text_9">
     <!-- cm^-1 -->
     <defs>
      <path d="M 40.4375 19 
L 49.078125 17.875 
Q 47.65625 8.9375 41.8125 3.875 
Q 35.984375 -1.171875 27.484375 -1.171875 
Q 16.84375 -1.171875 10.375 5.78125 
Q 3.90625 12.75 3.90625 25.734375 
Q 3.90625 34.125 6.6875 40.421875 
Q 9.46875 46.734375 15.15625 49.875 
Q 20.84375 53.03125 27.546875 53.03125 
Q 35.984375 53.03125 41.359375 48.75 
Q 46.734375 44.484375 48.25 36.625 
L 39.703125 35.296875 
Q 38.484375 40.53125 35.375 43.15625 
Q 32.28125 45.796875 27.875 45.796875 
Q 21.234375 45.796875 17.078125 41.03125 
Q 12.9375 36.28125 12.9375 25.984375 
Q 12.9375 15.53125 16.9375 10.796875 
Q 20.953125 6.0625 27.390625 6.0625 
Q 32.5625 6.0625 36.03125 9.234375 
Q 39.5 12.40625 40.4375 19 
" id="ArialMT-63"/>
      <path d="M 11.671875 33.6875 
L 2.640625 33.6875 
L 19.875 72.796875 
L 26.953125 72.796875 
L 44.28125 33.6875 
L 35.453125 33.6875 
L 23.390625 62.84375 
z
" id="ArialMT-5e"/>
      <path d="M 3.171875 21.484375 
L 3.171875 30.328125 
L 30.171875 30.328125 
L 30.171875 21.484375 
z
" id="ArialMT-2d"/>
      <path d="M 6.59375 0 
L 6.59375 51.859375 
L 14.453125 51.859375 
L 14.453125 44.578125 
Q 16.890625 48.390625 20.9375 50.703125 
Q 25 53.03125 30.171875 53.03125 
Q 35.9375 53.03125 39.625 50.640625 
Q 43.3125 48.25 44.828125 43.953125 
Q 50.984375 53.03125 60.84375 53.03125 
Q 68.5625 53.03125 72.703125 48.75 
Q 76.859375 44.484375 76.859375 35.59375 
L 76.859375 0 
L 68.109375 0 
L 68.109375 32.671875 
Q 68.109375 37.9375 67.25 40.25 
Q 66.40625 42.578125 64.15625 43.984375 
Q 61.921875 45.40625 58.890625 45.40625 
Q 53.421875 45.40625 49.796875 41.765625 
Q 46.1875 38.140625 46.1875 30.125 
L 46.1875 0 
L 37.40625 0 
L 37.40625 33.6875 
Q 37.40625 39.546875 35.25 42.46875 
Q 33.109375 45.40625 28.21875 45.40625 
Q 24.515625 45.40625 21.359375 43.453125 
Q 18.21875 41.5 16.796875 37.734375 
Q 15.375 33.984375 15.375 26.90625 
L 15.375 0 
z
" id="ArialMT-6d"/>
     </defs>
     <g style="fill:#262626;" transform="translate(280.398125 375.51890625)scale(0.11 -0.11)">
      <use xlink:href="#ArialMT-63"/>
      <use x="50.0" xlink:href="#ArialMT-6d"/>
      <use x="133.30078125" xlink:href="#ArialMT-5e"/>
      <use x="180.224609375" xlink:href="#ArialMT-2d"/>
      <use x="213.525390625" xlink:href="#ArialMT-31"/>
     </g>
    </g>
   </g>
   <g id="matplotlib.axis_2">
    <g id="ytick_1">
     <g id="line2d_25">
      <path clip-path="url(#pe5aed611a9)" d="M 72 346.5 
L 518.4 346.5 
" style="fill:none;stroke:#ffffff;stroke-linecap:round;"/>
     </g>
     <g id="line2d_26"/>
     <g id="line2d_27"/>
     <g id="text_10">
      <!-- 0.0 -->
      <defs>
       <path d="M 9.078125 0 
L 9.078125 10.015625 
L 19.09375 10.015625 
L 19.09375 0 
z
" id="ArialMT-2e"/>
      </defs>
      <g style="fill:#262626;" transform="translate(51.1 349.08515625)scale(0.1 -0.1)">
       <use xlink:href="#ArialMT-30"/>
       <use x="55.615234375" xlink:href="#ArialMT-2e"/>
       <use x="83.3984375" xlink:href="#ArialMT-30"/>
      </g>
     </g>
    </g>
    <g id="ytick_2">
     <g id="line2d_28">
      <path clip-path="url(#pe5aed611a9)" d="M 72 285.12 
L 518.4 285.12 
" style="fill:none;stroke:#ffffff;stroke-linecap:round;"/>
     </g>
     <g id="line2d_29"/>
     <g id="line2d_30"/>
     <g id="text_11">
      <!-- 0.2 -->
      <g style="fill:#262626;" transform="translate(51.1 287.70515625)scale(0.1 -0.1)">
       <use xlink:href="#ArialMT-30"/>
       <use x="55.615234375" xlink:href="#ArialMT-2e"/>
       <use x="83.3984375" xlink:href="#ArialMT-32"/>
      </g>
     </g>
    </g>
    <g id="ytick_3">
     <g id="line2d_31">
      <path clip-path="url(#pe5aed611a9)" d="M 72 223.74 
L 518.4 223.74 
" style="fill:none;stroke:#ffffff;stroke-linecap:round;"/>
     </g>
     <g id="line2d_32"/>
     <g id="line2d_33"/>
     <g id="text_12">
      <!-- 0.4 -->
      <g style="fill:#262626;" transform="translate(51.1 226.32515625)scale(0.1 -0.1)">
       <use xlink:href="#ArialMT-30"/>
       <use x="55.615234375" xlink:href="#ArialMT-2e"/>
       <use x="83.3984375" xlink:href="#ArialMT-34"/>
      </g>
     </g>
    </g>
    <g id="ytick_4">
     <g id="line2d_34">
      <path clip-path="url(#pe5aed611a9)" d="M 72 162.36 
L 518.4 162.36 
" style="fill:none;stroke:#ffffff;stroke-linecap:round;"/>
     </g>
     <g id="line2d_35"/>
     <g id="line2d_36"/>
     <g id="text_13">
      <!-- 0.6 -->
      <defs>
       <path d="M 49.75 54.046875 
L 41.015625 53.375 
Q 39.84375 58.546875 37.703125 60.890625 
Q 34.125 64.65625 28.90625 64.65625 
Q 24.703125 64.65625 21.53125 62.3125 
Q 17.390625 59.28125 14.984375 53.46875 
Q 12.59375 47.65625 12.5 36.921875 
Q 15.671875 41.75 20.265625 44.09375 
Q 24.859375 46.4375 29.890625 46.4375 
Q 38.671875 46.4375 44.84375 39.96875 
Q 51.03125 33.5 51.03125 23.25 
Q 51.03125 16.5 48.125 10.71875 
Q 45.21875 4.9375 40.140625 1.859375 
Q 35.0625 -1.21875 28.609375 -1.21875 
Q 17.625 -1.21875 10.6875 6.859375 
Q 3.765625 14.9375 3.765625 33.5 
Q 3.765625 54.25 11.421875 63.671875 
Q 18.109375 71.875 29.4375 71.875 
Q 37.890625 71.875 43.28125 67.140625 
Q 48.6875 62.40625 49.75 54.046875 
M 13.875 23.1875 
Q 13.875 18.65625 15.796875 14.5 
Q 17.71875 10.359375 21.1875 8.171875 
Q 24.65625 6 28.46875 6 
Q 34.03125 6 38.03125 10.484375 
Q 42.046875 14.984375 42.046875 22.703125 
Q 42.046875 30.125 38.078125 34.390625 
Q 34.125 38.671875 28.125 38.671875 
Q 22.171875 38.671875 18.015625 34.390625 
Q 13.875 30.125 13.875 23.1875 
" id="ArialMT-36"/>
      </defs>
      <g style="fill:#262626;" transform="translate(51.1 164.94515625)scale(0.1 -0.1)">
       <use xlink:href="#ArialMT-30"/>
       <use x="55.615234375" xlink:href="#ArialMT-2e"/>
       <use x="83.3984375" xlink:href="#ArialMT-36"/>
      </g>
     </g>
    </g>
    <g id="ytick_5">
     <g id="line2d_37">
      <path clip-path="url(#pe5aed611a9)" d="M 72 100.98 
L 518.4 100.98 
" style="fill:none;stroke:#ffffff;stroke-linecap:round;"/>
     </g>
     <g id="line2d_38"/>
     <g id="line2d_39"/>
     <g id="text_14">
      <!-- 0.8 -->
      <defs>
       <path d="M 17.671875 38.8125 
Q 12.203125 40.828125 9.5625 44.53125 
Q 6.9375 48.25 6.9375 53.421875 
Q 6.9375 61.234375 12.546875 66.546875 
Q 18.171875 71.875 27.484375 71.875 
Q 36.859375 71.875 42.578125 66.421875 
Q 48.296875 60.984375 48.296875 53.171875 
Q 48.296875 48.1875 45.671875 44.5 
Q 43.0625 40.828125 37.75 38.8125 
Q 44.34375 36.671875 47.78125 31.875 
Q 51.21875 27.09375 51.21875 20.453125 
Q 51.21875 11.28125 44.71875 5.03125 
Q 38.234375 -1.21875 27.640625 -1.21875 
Q 17.046875 -1.21875 10.546875 5.046875 
Q 4.046875 11.328125 4.046875 20.703125 
Q 4.046875 27.6875 7.59375 32.390625 
Q 11.140625 37.109375 17.671875 38.8125 
M 15.921875 53.71875 
Q 15.921875 48.640625 19.1875 45.40625 
Q 22.46875 42.1875 27.6875 42.1875 
Q 32.765625 42.1875 36.015625 45.375 
Q 39.265625 48.578125 39.265625 53.21875 
Q 39.265625 58.0625 35.90625 61.359375 
Q 32.5625 64.65625 27.59375 64.65625 
Q 22.5625 64.65625 19.234375 61.421875 
Q 15.921875 58.203125 15.921875 53.71875 
M 13.09375 20.65625 
Q 13.09375 16.890625 14.875 13.375 
Q 16.65625 9.859375 20.171875 7.921875 
Q 23.6875 6 27.734375 6 
Q 34.03125 6 38.125 10.046875 
Q 42.234375 14.109375 42.234375 20.359375 
Q 42.234375 26.703125 38.015625 30.859375 
Q 33.796875 35.015625 27.4375 35.015625 
Q 21.234375 35.015625 17.15625 30.90625 
Q 13.09375 26.8125 13.09375 20.65625 
" id="ArialMT-38"/>
      </defs>
      <g style="fill:#262626;" transform="translate(51.1 103.56515625)scale(0.1 -0.1)">
       <use xlink:href="#ArialMT-30"/>
       <use x="55.615234375" xlink:href="#ArialMT-2e"/>
       <use x="83.3984375" xlink:href="#ArialMT-38"/>
      </g>
     </g>
    </g>
    <g id="ytick_6">
     <g id="line2d_40">
      <path clip-path="url(#pe5aed611a9)" d="M 72 39.6 
L 518.4 39.6 
" style="fill:none;stroke:#ffffff;stroke-linecap:round;"/>
     </g>
     <g id="line2d_41"/>
     <g id="line2d_42"/>
     <g id="text_15">
      <!-- 1.0 -->
      <g style="fill:#262626;" transform="translate(51.1 42.18515625)scale(0.1 -0.1)">
       <use xlink:href="#ArialMT-31"/>
       <use x="55.615234375" xlink:href="#ArialMT-2e"/>
       <use x="83.3984375" xlink:href="#ArialMT-30"/>
      </g>
     </g>
    </g>
    <g id="text_16">
     <!-- absorbance -->
     <defs>
      <path d="M 14.703125 0 
L 6.546875 0 
L 6.546875 71.578125 
L 15.328125 71.578125 
L 15.328125 46.046875 
Q 20.90625 53.03125 29.546875 53.03125 
Q 34.328125 53.03125 38.59375 51.09375 
Q 42.875 49.171875 45.625 45.671875 
Q 48.390625 42.1875 49.953125 37.25 
Q 51.515625 32.328125 51.515625 26.703125 
Q 51.515625 13.375 44.921875 6.09375 
Q 38.328125 -1.171875 29.109375 -1.171875 
Q 19.921875 -1.171875 14.703125 6.5 
z
M 14.59375 26.3125 
Q 14.59375 17 17.140625 12.84375 
Q 21.296875 6.0625 28.375 6.0625 
Q 34.125 6.0625 38.328125 11.0625 
Q 42.53125 16.0625 42.53125 25.984375 
Q 42.53125 36.140625 38.5 40.96875 
Q 34.46875 45.796875 28.765625 45.796875 
Q 23 45.796875 18.796875 40.796875 
Q 14.59375 35.796875 14.59375 26.3125 
" id="ArialMT-62"/>
      <path d="M 40.4375 6.390625 
Q 35.546875 2.25 31.03125 0.53125 
Q 26.515625 -1.171875 21.34375 -1.171875 
Q 12.796875 -1.171875 8.203125 3 
Q 3.609375 7.171875 3.609375 13.671875 
Q 3.609375 17.484375 5.34375 20.625 
Q 7.078125 23.78125 9.890625 25.6875 
Q 12.703125 27.59375 16.21875 28.5625 
Q 18.796875 29.25 24.03125 29.890625 
Q 34.671875 31.15625 39.703125 32.90625 
Q 39.75 34.71875 39.75 35.203125 
Q 39.75 40.578125 37.25 42.78125 
Q 33.890625 45.75 27.25 45.75 
Q 21.046875 45.75 18.09375 43.578125 
Q 15.140625 41.40625 13.71875 35.890625 
L 5.125 37.0625 
Q 6.296875 42.578125 8.984375 45.96875 
Q 11.671875 49.359375 16.75 51.1875 
Q 21.828125 53.03125 28.515625 53.03125 
Q 35.15625 53.03125 39.296875 51.46875 
Q 43.453125 49.90625 45.40625 47.53125 
Q 47.359375 45.171875 48.140625 41.546875 
Q 48.578125 39.3125 48.578125 33.453125 
L 48.578125 21.734375 
Q 48.578125 9.46875 49.140625 6.21875 
Q 49.703125 2.984375 51.375 0 
L 42.1875 0 
Q 40.828125 2.734375 40.4375 6.390625 
M 39.703125 26.03125 
Q 34.90625 24.078125 25.34375 22.703125 
Q 19.921875 21.921875 17.671875 20.9375 
Q 15.4375 19.96875 14.203125 18.09375 
Q 12.984375 16.21875 12.984375 13.921875 
Q 12.984375 10.40625 15.640625 8.0625 
Q 18.3125 5.71875 23.4375 5.71875 
Q 28.515625 5.71875 32.46875 7.9375 
Q 36.421875 10.15625 38.28125 14.015625 
Q 39.703125 17 39.703125 22.796875 
z
" id="ArialMT-61"/>
      <path d="M 42.09375 16.703125 
L 51.171875 15.578125 
Q 49.03125 7.625 43.21875 3.21875 
Q 37.40625 -1.171875 28.375 -1.171875 
Q 17 -1.171875 10.328125 5.828125 
Q 3.65625 12.84375 3.65625 25.484375 
Q 3.65625 38.578125 10.390625 45.796875 
Q 17.140625 53.03125 27.875 53.03125 
Q 38.28125 53.03125 44.875 45.953125 
Q 51.46875 38.875 51.46875 26.03125 
Q 51.46875 25.25 51.421875 23.6875 
L 12.75 23.6875 
Q 13.234375 15.140625 17.578125 10.59375 
Q 21.921875 6.0625 28.421875 6.0625 
Q 33.25 6.0625 36.671875 8.59375 
Q 40.09375 11.140625 42.09375 16.703125 
M 13.234375 30.90625 
L 42.1875 30.90625 
Q 41.609375 37.453125 38.875 40.71875 
Q 34.671875 45.796875 27.984375 45.796875 
Q 21.921875 45.796875 17.796875 41.75 
Q 13.671875 37.703125 13.234375 30.90625 
" id="ArialMT-65"/>
      <path d="M 6.5 0 
L 6.5 51.859375 
L 14.40625 51.859375 
L 14.40625 44 
Q 17.4375 49.515625 20 51.265625 
Q 22.5625 53.03125 25.640625 53.03125 
Q 30.078125 53.03125 34.671875 50.203125 
L 31.640625 42.046875 
Q 28.421875 43.953125 25.203125 43.953125 
Q 22.3125 43.953125 20.015625 42.21875 
Q 17.71875 40.484375 16.75 37.40625 
Q 15.28125 32.71875 15.28125 27.15625 
L 15.28125 0 
z
" id="ArialMT-72"/>
      <path d="M 3.078125 15.484375 
L 11.765625 16.84375 
Q 12.5 11.625 15.84375 8.84375 
Q 19.1875 6.0625 25.203125 6.0625 
Q 31.25 6.0625 34.171875 8.515625 
Q 37.109375 10.984375 37.109375 14.3125 
Q 37.109375 17.28125 34.515625 19 
Q 32.71875 20.171875 25.53125 21.96875 
Q 15.875 24.421875 12.140625 26.203125 
Q 8.40625 27.984375 6.46875 31.125 
Q 4.546875 34.28125 4.546875 38.09375 
Q 4.546875 41.546875 6.125 44.5 
Q 7.71875 47.46875 10.453125 49.421875 
Q 12.5 50.921875 16.03125 51.96875 
Q 19.578125 53.03125 23.640625 53.03125 
Q 29.734375 53.03125 34.34375 51.265625 
Q 38.96875 49.515625 41.15625 46.5 
Q 43.359375 43.5 44.1875 38.484375 
L 35.59375 37.3125 
Q 35.015625 41.3125 32.203125 43.546875 
Q 29.390625 45.796875 24.265625 45.796875 
Q 18.21875 45.796875 15.625 43.796875 
Q 13.03125 41.796875 13.03125 39.109375 
Q 13.03125 37.40625 14.109375 36.03125 
Q 15.1875 34.625 17.484375 33.6875 
Q 18.796875 33.203125 25.25 31.453125 
Q 34.578125 28.953125 38.25 27.359375 
Q 41.9375 25.78125 44.03125 22.75 
Q 46.140625 19.734375 46.140625 15.234375 
Q 46.140625 10.84375 43.578125 6.953125 
Q 41.015625 3.078125 36.171875 0.953125 
Q 31.34375 -1.171875 25.25 -1.171875 
Q 15.140625 -1.171875 9.84375 3.03125 
Q 4.546875 7.234375 3.078125 15.484375 
" id="ArialMT-73"/>
      <path d="M 3.328125 25.921875 
Q 3.328125 40.328125 11.328125 47.265625 
Q 18.015625 53.03125 27.640625 53.03125 
Q 38.328125 53.03125 45.109375 46.015625 
Q 51.90625 39.015625 51.90625 26.65625 
Q 51.90625 16.65625 48.90625 10.90625 
Q 45.90625 5.171875 40.15625 2 
Q 34.421875 -1.171875 27.640625 -1.171875 
Q 16.75 -1.171875 10.03125 5.8125 
Q 3.328125 12.796875 3.328125 25.921875 
M 12.359375 25.921875 
Q 12.359375 15.96875 16.703125 11.015625 
Q 21.046875 6.0625 27.640625 6.0625 
Q 34.1875 6.0625 38.53125 11.03125 
Q 42.875 16.015625 42.875 26.21875 
Q 42.875 35.84375 38.5 40.796875 
Q 34.125 45.75 27.640625 45.75 
Q 21.046875 45.75 16.703125 40.8125 
Q 12.359375 35.890625 12.359375 25.921875 
" id="ArialMT-6f"/>
      <path d="M 6.59375 0 
L 6.59375 51.859375 
L 14.5 51.859375 
L 14.5 44.484375 
Q 20.21875 53.03125 31 53.03125 
Q 35.6875 53.03125 39.625 51.34375 
Q 43.5625 49.65625 45.515625 46.921875 
Q 47.46875 44.1875 48.25 40.4375 
Q 48.734375 37.984375 48.734375 31.890625 
L 48.734375 0 
L 39.9375 0 
L 39.9375 31.546875 
Q 39.9375 36.921875 38.90625 39.578125 
Q 37.890625 42.234375 35.28125 43.8125 
Q 32.671875 45.40625 29.15625 45.40625 
Q 23.53125 45.40625 19.453125 41.84375 
Q 15.375 38.28125 15.375 28.328125 
L 15.375 0 
z
" id="ArialMT-6e"/>
     </defs>
     <g style="fill:#262626;" transform="translate(43.91375 221.7909375)rotate(-90.0)scale(0.11 -0.11)">
      <use xlink:href="#ArialMT-61"/>
      <use x="55.615234375" xlink:href="#ArialMT-62"/>
      <use x="111.23046875" xlink:href="#ArialMT-73"/>
      <use x="161.23046875" xlink:href="#ArialMT-6f"/>
      <use x="216.845703125" xlink:href="#ArialMT-72"/>
      <use x="250.146484375" xlink:href="#ArialMT-62"/>
      <use x="305.76171875" xlink:href="#ArialMT-61"/>
      <use x="361.376953125" xlink:href="#ArialMT-6e"/>
      <use x="416.9921875" xlink:href="#ArialMT-63"/>
      <use x="466.9921875" xlink:href="#ArialMT-65"/>
     </g>
    </g>
   </g>
   <g id="line2d_43">
    <path clip-path="url(#pe5aed611a9)" d="M 505.666121 324.724897 
L 504.68149 337.075938 
L 503.698135 345.508806 
L 502.468622 339.106037 
L 501.483991 330.198942 
L 500.500635 323.635028 
L 499.516005 317.958928 
L 498.65509 310.926119 
L 497.794176 301.894434 
L 496.072347 276.369449 
L 494.350519 250.0493 
L 493.489605 245.831918 
L 492.62869 276.230776 
L 491.766501 296.571729 
L 490.905586 327.353437 
L 489.922231 326.690812 
L 488.9376 318.370889 
L 488.076686 304.821519 
L 487.215771 294.13273 
L 486.354857 291.424195 
L 485.493943 308.38723 
L 484.633029 322.928358 
L 483.649673 322.711317 
L 481.804128 303.205711 
L 480.943214 298.060675 
L 480.082299 304.372692 
L 479.221385 314.259138 
L 478.360471 315.559333 
L 477.499557 309.297425 
L 476.638642 301.199459 
L 475.777728 298.90622 
L 474.916814 306.802334 
L 474.054624 319.321644 
L 473.19371 322.258054 
L 472.210354 305.880256 
L 471.34944 263.557608 
L 470.488526 265.921735 
L 469.627611 296.969393 
L 468.766697 310.069904 
L 467.905783 293.781658 
L 467.044869 253.60327 
L 466.182679 221.703779 
L 464.46085 263.427739 
L 463.599936 267.688247 
L 462.739022 268.147929 
L 461.878107 286.119929 
L 461.017193 292.283384 
L 460.156279 273.541187 
L 459.295365 251.399504 
L 458.43445 255.276424 
L 457.573536 250.434455 
L 456.712622 222.568911 
L 455.851707 177.868846 
L 454.990793 113.405156 
L 454.129879 60.96462 
L 453.268965 101.678779 
L 452.406775 115.434568 
L 451.545861 54.818487 
L 450.808663 39.6 
L 450.07019 94.259518 
L 449.209275 132.329861 
L 448.348361 145.043089 
L 447.487447 141.832326 
L 446.626533 126.622626 
L 445.765618 107.819404 
L 444.904704 91.640917 
L 444.04379 81.320211 
L 443.182875 79.998182 
L 442.321961 94.387535 
L 440.598857 149.39925 
L 439.737943 191.353239 
L 438.877029 223.82339 
L 438.016114 243.519557 
L 437.1552 256.820601 
L 436.294286 265.681706 
L 435.433371 271.689953 
L 430.267886 297.956932 
L 426.822953 311.244975 
L 425.101125 319.13331 
L 424.117769 325.673837 
L 423.133138 334.231076 
L 422.149783 340.586469 
L 421.165152 345.200906 
L 420.05808 346.469624 
L 417.721495 343.513869 
L 416.738139 338.924582 
L 415.753509 333.174864 
L 414.770153 332.937621 
L 413.785522 333.670211 
L 412.802167 332.855231 
L 411.817536 330.667077 
L 410.834181 325.335163 
L 408.988635 307.790204 
L 408.127721 296.96762 
L 407.266807 268.331277 
L 406.405893 281.197689 
L 405.544978 289.030789 
L 404.684064 278.107559 
L 403.82315 262.653467 
L 402.962235 243.11722 
L 401.239131 188.288793 
L 400.378217 187.047383 
L 399.517303 194.991034 
L 398.656389 199.544493 
L 397.795474 204.748146 
L 396.93456 221.884694 
L 396.073646 247.52504 
L 395.212731 264.272987 
L 394.351817 268.777927 
L 393.490903 264.492589 
L 390.047246 302.054201 
L 387.463227 326.423422 
L 386.479872 331.966708 
L 385.495241 336.732216 
L 384.511886 338.857231 
L 383.527255 340.533148 
L 382.543899 341.358291 
L 381.559269 341.907376 
L 379.591282 342.525289 
L 378.607927 342.434595 
L 377.623296 342.521609 
L 376.639941 342.128923 
L 374.671954 340.047478 
L 373.687323 338.50668 
L 372.703968 337.797744 
L 371.719337 336.182648 
L 370.735982 334.997265 
L 369.751351 337.634529 
L 368.767995 342.361132 
L 367.783365 344.230952 
L 366.800009 345.501782 
L 365.692937 346.385366 
L 364.585865 346.508735 
L 363.356352 346.15877 
L 362.24928 346.002019 
L 361.142208 345.059326 
L 360.035136 345.279174 
L 358.928064 346.20096 
L 357.820992 346.498214 
L 356.345321 346.605317 
L 355.114533 346.292764 
L 353.885019 344.339994 
L 352.777947 345.024817 
L 351.670875 346.338105 
L 350.317646 346.228742 
L 346.751547 346.368054 
L 345.520759 346.214434 
L 344.413687 345.919758 
L 342.200818 346.000587 
L 341.093746 345.83028 
L 339.986674 345.863629 
L 338.879602 345.657455 
L 336.665458 345.514867 
L 335.558386 345.22141 
L 334.451314 345.145047 
L 333.344242 345.371124 
L 331.130098 345.575187 
L 330.023026 344.858428 
L 328.915954 344.981528 
L 327.808882 345.273098 
L 326.70181 345.265641 
L 323.38187 344.371717 
L 321.167726 343.702309 
L 320.183095 343.836418 
L 317.968951 343.72932 
L 312.803465 343.091276 
L 311.818834 343.37075 
L 310.835479 343.500993 
L 309.850848 343.004111 
L 307.882862 342.945872 
L 306.899506 341.45643 
L 305.914875 341.714666 
L 304.93152 341.686793 
L 303.946889 341.285686 
L 302.963534 341.280273 
L 300.010917 340.836522 
L 293.123602 340.123534 
L 292.138971 339.795483 
L 291.155616 339.683547 
L 290.170985 340.000414 
L 288.202999 341.002698 
L 287.219643 341.727391 
L 285.251657 344.334578 
L 284.144585 344.692292 
L 283.037513 343.500388 
L 282.054158 345.798486 
L 280.823369 345.429337 
L 279.716297 342.116082 
L 278.732942 339.788641 
L 277.748311 338.854561 
L 274.796969 338.505737 
L 272.828983 338.50167 
L 270.860997 338.258883 
L 266.925024 338.127378 
L 264.957038 337.696782 
L 262.989051 336.662742 
L 262.004421 336.416064 
L 260.036434 336.79831 
L 259.053079 337.177063 
L 258.068448 337.3686 
L 255.117106 337.314576 
L 253.14912 337.289178 
L 245.277175 336.969772 
L 242.324558 337.006028 
L 239.373216 336.638665 
L 237.40523 336.41993 
L 236.420599 335.960706 
L 235.437243 334.09451 
L 234.452613 333.705864 
L 233.469257 335.057201 
L 232.484626 335.190196 
L 230.51664 334.647112 
L 228.548654 333.715833 
L 227.565298 332.918368 
L 226.580667 331.810361 
L 225.597312 330.180147 
L 224.612681 328.234567 
L 223.629326 325.548259 
L 222.644695 320.532736 
L 221.661339 310.968681 
L 220.800425 296.183284 
L 219.939511 278.992831 
L 219.078597 265.059794 
L 218.217682 266.728401 
L 217.355493 278.284042 
L 216.494578 284.818006 
L 215.633664 284.988489 
L 214.77275 281.815546 
L 213.911835 276.155604 
L 213.050921 268.163082 
L 211.329093 245.134908 
L 210.468178 239.620262 
L 209.607264 239.326581 
L 208.74635 245.107773 
L 207.885435 255.629778 
L 207.024521 262.744429 
L 206.163607 261.330361 
L 205.302693 253.700436 
L 204.441778 259.594476 
L 203.579589 282.804894 
L 202.718674 299.285835 
L 201.85776 307.316198 
L 200.996846 313.140086 
L 200.135931 315.877441 
L 199.275017 316.244253 
L 197.430747 324.496315 
L 195.462761 326.66988 
L 193.494775 331.409689 
L 192.510144 332.403414 
L 190.542158 333.299416 
L 187.590816 334.336172 
L 184.638199 334.455924 
L 180.702226 334.51756 
L 178.73424 334.296846 
L 176.766254 334.15317 
L 174.798267 334.018716 
L 171.846926 333.727128 
L 162.006994 333.270751 
L 160.039008 333.325021 
L 159.054377 333.296667 
L 156.103035 333.518855 
L 154.135049 333.483142 
L 152.167063 333.499408 
L 150.199077 333.457841 
L 147.246459 333.414453 
L 146.263104 333.322606 
L 144.295118 332.878645 
L 143.310487 332.820306 
L 142.327131 333.13163 
L 141.342501 333.594051 
L 140.359145 334.182203 
L 139.374514 334.621944 
L 137.406528 335.171161 
L 136.423173 335.073666 
L 135.438542 334.845351 
L 134.455186 334.830139 
L 133.470555 335.461731 
L 132.4872 336.31789 
L 131.502569 336.893861 
L 130.519214 337.336335 
L 128.551227 337.722578 
L 127.566597 337.674997 
L 126.583241 337.75085 
L 124.615255 337.336627 
L 123.630624 336.92729 
L 122.647269 335.884932 
L 121.662638 330.06823 
L 120.679282 325.091824 
L 119.694651 333.110892 
L 118.711296 332.96695 
L 116.74331 323.69825 
L 115.758679 327.060854 
L 113.790693 324.66484 
L 112.807337 316.492126 
L 111.946423 301.437871 
L 111.085509 301.584242 
L 110.223319 323.56183 
L 109.362405 336.226738 
L 108.379049 341.391096 
L 107.394418 343.453416 
L 106.411063 344.001003 
L 105.303991 344.429346 
L 104.196919 344.575004 
L 103.089847 345.108394 
L 98.661559 345.489481 
L 97.554487 345.448012 
L 96.447415 345.68042 
L 95.341618 345.583368 
L 94.234546 345.794153 
L 93.127474 345.529329 
L 92.020402 345.768414 
L 90.91333 345.642352 
L 88.699186 345.762375 
L 86.485042 345.900926 
L 85.37797 345.805255 
L 84.270898 346.035917 
L 80.949682 346.040959 
L 79.84261 346.188188 
L 78.735538 346.152522 
L 75.16944 346.368216 
L 72.709138 346.495206 
L 72.709138 346.495206 
" style="fill:none;stroke:#4c72b0;stroke-linecap:round;stroke-width:1.75;"/>
   </g>
   <g id="patch_3">
    <path d="M 72 39.6 
L 518.4 39.6 
" style="fill:none;"/>
   </g>
   <g id="patch_4">
    <path d="M 518.4 346.5 
L 518.4 39.6 
" style="fill:none;"/>
   </g>
   <g id="patch_5">
    <path d="M 72 346.5 
L 518.4 346.5 
" style="fill:none;"/>
   </g>
   <g id="patch_6">
    <path d="M 72 346.5 
L 72 39.6 
" style="fill:none;"/>
   </g>
   <g id="text_17">
    <!-- Penn_ATP Rubber -->
    <defs>
     <path d="M -0.140625 0 
L 27.34375 71.578125 
L 37.546875 71.578125 
L 66.84375 0 
L 56.0625 0 
L 47.703125 21.6875 
L 17.78125 21.6875 
L 9.90625 0 
z
M 20.515625 29.390625 
L 44.78125 29.390625 
L 37.3125 49.21875 
Q 33.890625 58.25 32.234375 64.0625 
Q 30.859375 57.171875 28.375 50.390625 
z
" id="ArialMT-41"/>
     <path d="M 40.578125 0 
L 40.578125 7.625 
Q 34.515625 -1.171875 24.125 -1.171875 
Q 19.53125 -1.171875 15.546875 0.578125 
Q 11.578125 2.34375 9.640625 5 
Q 7.71875 7.671875 6.9375 11.53125 
Q 6.390625 14.109375 6.390625 19.734375 
L 6.390625 51.859375 
L 15.1875 51.859375 
L 15.1875 23.09375 
Q 15.1875 16.21875 15.71875 13.8125 
Q 16.546875 10.359375 19.234375 8.375 
Q 21.921875 6.390625 25.875 6.390625 
Q 29.828125 6.390625 33.296875 8.421875 
Q 36.765625 10.453125 38.203125 13.9375 
Q 39.65625 17.4375 39.65625 24.078125 
L 39.65625 51.859375 
L 48.4375 51.859375 
L 48.4375 0 
z
" id="ArialMT-75"/>
     <path d="M 7.71875 0 
L 7.71875 71.578125 
L 34.71875 71.578125 
Q 41.84375 71.578125 45.609375 70.90625 
Q 50.875 70.015625 54.4375 67.546875 
Q 58.015625 65.09375 60.1875 60.640625 
Q 62.359375 56.203125 62.359375 50.875 
Q 62.359375 41.75 56.546875 35.421875 
Q 50.734375 29.109375 35.546875 29.109375 
L 17.1875 29.109375 
L 17.1875 0 
z
M 17.1875 37.546875 
L 35.6875 37.546875 
Q 44.875 37.546875 48.734375 40.96875 
Q 52.59375 44.390625 52.59375 50.59375 
Q 52.59375 55.078125 50.3125 58.265625 
Q 48.046875 61.46875 44.34375 62.5 
Q 41.9375 63.140625 35.5 63.140625 
L 17.1875 63.140625 
z
" id="ArialMT-50"/>
     <path d="M 25.921875 0 
L 25.921875 63.140625 
L 2.34375 63.140625 
L 2.34375 71.578125 
L 59.078125 71.578125 
L 59.078125 63.140625 
L 35.40625 63.140625 
L 35.40625 0 
z
" id="ArialMT-54"/>
     <path d="M 7.859375 0 
L 7.859375 71.578125 
L 39.59375 71.578125 
Q 49.171875 71.578125 54.140625 69.640625 
Q 59.125 67.71875 62.109375 62.828125 
Q 65.09375 57.953125 65.09375 52.046875 
Q 65.09375 44.4375 60.15625 39.203125 
Q 55.21875 33.984375 44.921875 32.5625 
Q 48.6875 30.765625 50.640625 29 
Q 54.78125 25.203125 58.5 19.484375 
L 70.953125 0 
L 59.03125 0 
L 49.5625 14.890625 
Q 45.40625 21.34375 42.71875 24.75 
Q 40.046875 28.171875 37.921875 29.53125 
Q 35.796875 30.90625 33.59375 31.453125 
Q 31.984375 31.78125 28.328125 31.78125 
L 17.328125 31.78125 
L 17.328125 0 
z
M 17.328125 39.984375 
L 37.703125 39.984375 
Q 44.1875 39.984375 47.84375 41.328125 
Q 51.515625 42.671875 53.421875 45.625 
Q 55.328125 48.578125 55.328125 52.046875 
Q 55.328125 57.125 51.640625 60.390625 
Q 47.953125 63.671875 39.984375 63.671875 
L 17.328125 63.671875 
z
" id="ArialMT-52"/>
     <path d="M -1.515625 -19.875 
L -1.515625 -13.53125 
L 56.734375 -13.53125 
L 56.734375 -19.875 
z
" id="ArialMT-5f"/>
     <path id="ArialMT-20"/>
    </defs>
    <g style="fill:#262626;" transform="translate(244.8459375 34.6)scale(0.12 -0.12)">
     <use xlink:href="#ArialMT-50"/>
     <use x="66.69921875" xlink:href="#ArialMT-65"/>
     <use x="122.314453125" xlink:href="#ArialMT-6e"/>
     <use x="177.9296875" xlink:href="#ArialMT-6e"/>
     <use x="233.544921875" xlink:href="#ArialMT-5f"/>
     <use x="289.16015625" xlink:href="#ArialMT-41"/>
     <use x="355.75" xlink:href="#ArialMT-54"/>
     <use x="416.833984375" xlink:href="#ArialMT-50"/>
     <use x="483.517578125" xlink:href="#ArialMT-20"/>
     <use x="511.30078125" xlink:href="#ArialMT-52"/>
     <use x="583.517578125" xlink:href="#ArialMT-75"/>
     <use x="639.1328125" xlink:href="#ArialMT-62"/>
     <use x="694.748046875" xlink:href="#ArialMT-62"/>
     <use x="750.36328125" xlink:href="#ArialMT-65"/>
     <use x="805.978515625" xlink:href="#ArialMT-72"/>
    </g>
   </g>
   <g id="legend_1">
    <g id="line2d_44">
     <path d="M 81 52.257812 
L 101 52.257812 
" style="fill:none;stroke:#4c72b0;stroke-linecap:round;stroke-width:1.75;"/>
    </g>
    <g id="line2d_45"/>
    <g id="text_18">
     <!-- Penn_ATP -->
     <g style="fill:#262626;" transform="translate(109.0 55.7578125)scale(0.1 -0.1)">
      <use xlink:href="#ArialMT-50"/>
      <use x="66.69921875" xlink:href="#ArialMT-65"/>
      <use x="122.314453125" xlink:href="#ArialMT-6e"/>
      <use x="177.9296875" xlink:href="#ArialMT-6e"/>
      <use x="233.544921875" xlink:href="#ArialMT-5f"/>
      <use x="289.16015625" xlink:href="#ArialMT-41"/>
      <use x="355.75" xlink:href="#ArialMT-54"/>
      <use x="416.833984375" xlink:href="#ArialMT-50"/>
     </g>
    </g>
   </g>
  </g>
 </g>
 <defs>
  <clipPath id="pe5aed611a9">
   <rect height="306.9" width="446.4" x="72.0" y="39.6"/>
  </clipPath>
 </defs>
</svg>
