<?xml version="1.0" encoding="utf-8" standalone="no"?>
<!DOCTYPE svg PUBLIC "-//W3C//DTD SVG 1.1//EN"
  "http://www.w3.org/Graphics/SVG/1.1/DTD/svg11.dtd">
<!-- Created with matplotlib (http://matplotlib.org/) -->
<svg height="288pt" version="1.1" viewBox="0 0 432 288" width="432pt" xmlns="http://www.w3.org/2000/svg" xmlns:xlink="http://www.w3.org/1999/xlink">
 <defs>
  <style type="text/css">
*{stroke-linecap:butt;stroke-linejoin:round;stroke-miterlimit:100000;}
  </style>
 </defs>
 <g id="figure_1">
  <g id="patch_1">
   <path d="M 0 288 
L 432 288 
L 432 0 
L 0 0 
z
" style="fill:#ffffff;"/>
  </g>
  <g id="axes_1">
   <g id="patch_2">
    <path d="M 54 252 
L 388.8 252 
L 388.8 28.8 
L 54 28.8 
z
" style="fill:#eaeaf2;"/>
   </g>
   <g id="matplotlib.axis_1">
    <g id="xtick_1">
     <g id="line2d_1">
      <path clip-path="url(#p0e7b89a710)" d="M 54 252 
L 54 28.8 
" style="fill:none;stroke:#ffffff;stroke-linecap:round;"/>
     </g>
     <g id="line2d_2"/>
     <g id="line2d_3"/>
     <g id="text_1">
      <!-- 0 -->
      <defs>
       <path d="M 4.15625 35.296875 
Q 4.15625 48 6.765625 55.734375 
Q 9.375 63.484375 14.515625 67.671875 
Q 19.671875 71.875 27.484375 71.875 
Q 33.25 71.875 37.59375 69.546875 
Q 41.9375 67.234375 44.765625 62.859375 
Q 47.609375 58.5 49.21875 52.21875 
Q 50.828125 45.953125 50.828125 35.296875 
Q 50.828125 22.703125 48.234375 14.96875 
Q 45.65625 7.234375 40.5 3 
Q 35.359375 -1.21875 27.484375 -1.21875 
Q 17.140625 -1.21875 11.234375 6.203125 
Q 4.15625 15.140625 4.15625 35.296875 
M 13.1875 35.296875 
Q 13.1875 17.671875 17.3125 11.828125 
Q 21.4375 6 27.484375 6 
Q 33.546875 6 37.671875 11.859375 
Q 41.796875 17.71875 41.796875 35.296875 
Q 41.796875 52.984375 37.671875 58.78125 
Q 33.546875 64.59375 27.390625 64.59375 
Q 21.34375 64.59375 17.71875 59.46875 
Q 13.1875 52.9375 13.1875 35.296875 
" id="ArialMT-30"/>
      </defs>
      <g style="fill:#262626;" transform="translate(51.21953125 266.1578125)scale(0.1 -0.1)">
       <use xlink:href="#ArialMT-30"/>
      </g>
     </g>
    </g>
    <g id="xtick_2">
     <g id="line2d_4">
      <path clip-path="url(#p0e7b89a710)" d="M 137.7 252 
L 137.7 28.8 
" style="fill:none;stroke:#ffffff;stroke-linecap:round;"/>
     </g>
     <g id="line2d_5"/>
     <g id="line2d_6"/>
     <g id="text_2">
      <!-- 50 -->
      <defs>
       <path d="M 4.15625 18.75 
L 13.375 19.53125 
Q 14.40625 12.796875 18.140625 9.390625 
Q 21.875 6 27.15625 6 
Q 33.5 6 37.890625 10.78125 
Q 42.28125 15.578125 42.28125 23.484375 
Q 42.28125 31 38.0625 35.34375 
Q 33.84375 39.703125 27 39.703125 
Q 22.75 39.703125 19.328125 37.765625 
Q 15.921875 35.84375 13.96875 32.765625 
L 5.71875 33.84375 
L 12.640625 70.609375 
L 48.25 70.609375 
L 48.25 62.203125 
L 19.671875 62.203125 
L 15.828125 42.96875 
Q 22.265625 47.46875 29.34375 47.46875 
Q 38.71875 47.46875 45.15625 40.96875 
Q 51.609375 34.46875 51.609375 24.265625 
Q 51.609375 14.546875 45.953125 7.46875 
Q 39.0625 -1.21875 27.15625 -1.21875 
Q 17.390625 -1.21875 11.203125 4.25 
Q 5.03125 9.71875 4.15625 18.75 
" id="ArialMT-35"/>
      </defs>
      <g style="fill:#262626;" transform="translate(132.1390625 266.1578125)scale(0.1 -0.1)">
       <use xlink:href="#ArialMT-35"/>
       <use x="55.615234375" xlink:href="#ArialMT-30"/>
      </g>
     </g>
    </g>
    <g id="xtick_3">
     <g id="line2d_7">
      <path clip-path="url(#p0e7b89a710)" d="M 221.4 252 
L 221.4 28.8 
" style="fill:none;stroke:#ffffff;stroke-linecap:round;"/>
     </g>
     <g id="line2d_8"/>
     <g id="line2d_9"/>
     <g id="text_3">
      <!-- 100 -->
      <defs>
       <path d="M 37.25 0 
L 28.46875 0 
L 28.46875 56 
Q 25.296875 52.984375 20.140625 49.953125 
Q 14.984375 46.921875 10.890625 45.40625 
L 10.890625 53.90625 
Q 18.265625 57.375 23.78125 62.296875 
Q 29.296875 67.234375 31.59375 71.875 
L 37.25 71.875 
z
" id="ArialMT-31"/>
      </defs>
      <g style="fill:#262626;" transform="translate(213.05859375 266.1578125)scale(0.1 -0.1)">
       <use xlink:href="#ArialMT-31"/>
       <use x="55.615234375" xlink:href="#ArialMT-30"/>
       <use x="111.23046875" xlink:href="#ArialMT-30"/>
      </g>
     </g>
    </g>
    <g id="xtick_4">
     <g id="line2d_10">
      <path clip-path="url(#p0e7b89a710)" d="M 305.1 252 
L 305.1 28.8 
" style="fill:none;stroke:#ffffff;stroke-linecap:round;"/>
     </g>
     <g id="line2d_11"/>
     <g id="line2d_12"/>
     <g id="text_4">
      <!-- 150 -->
      <g style="fill:#262626;" transform="translate(296.75859375 266.1578125)scale(0.1 -0.1)">
       <use xlink:href="#ArialMT-31"/>
       <use x="55.615234375" xlink:href="#ArialMT-35"/>
       <use x="111.23046875" xlink:href="#ArialMT-30"/>
      </g>
     </g>
    </g>
    <g id="xtick_5">
     <g id="line2d_13">
      <path clip-path="url(#p0e7b89a710)" d="M 388.8 252 
L 388.8 28.8 
" style="fill:none;stroke:#ffffff;stroke-linecap:round;"/>
     </g>
     <g id="line2d_14"/>
     <g id="line2d_15"/>
     <g id="text_5">
      <!-- 200 -->
      <defs>
       <path d="M 50.34375 8.453125 
L 50.34375 0 
L 3.03125 0 
Q 2.9375 3.171875 4.046875 6.109375 
Q 5.859375 10.9375 9.828125 15.625 
Q 13.8125 20.3125 21.34375 26.46875 
Q 33.015625 36.03125 37.109375 41.625 
Q 41.21875 47.21875 41.21875 52.203125 
Q 41.21875 57.421875 37.46875 61 
Q 33.734375 64.59375 27.734375 64.59375 
Q 21.390625 64.59375 17.578125 60.78125 
Q 13.765625 56.984375 13.71875 50.25 
L 4.6875 51.171875 
Q 5.609375 61.28125 11.65625 66.578125 
Q 17.71875 71.875 27.9375 71.875 
Q 38.234375 71.875 44.234375 66.15625 
Q 50.25 60.453125 50.25 52 
Q 50.25 47.703125 48.484375 43.546875 
Q 46.734375 39.40625 42.65625 34.8125 
Q 38.578125 30.21875 29.109375 22.21875 
Q 21.1875 15.578125 18.9375 13.203125 
Q 16.703125 10.84375 15.234375 8.453125 
z
" id="ArialMT-32"/>
      </defs>
      <g style="fill:#262626;" transform="translate(380.45859375 266.1578125)scale(0.1 -0.1)">
       <use xlink:href="#ArialMT-32"/>
       <use x="55.615234375" xlink:href="#ArialMT-30"/>
       <use x="111.23046875" xlink:href="#ArialMT-30"/>
      </g>
     </g>
    </g>
    <g id="text_6">
     <!-- Iteration # -->
     <defs>
      <path d="M 9.328125 0 
L 9.328125 71.578125 
L 18.796875 71.578125 
L 18.796875 0 
z
" id="ArialMT-49"/>
      <path d="M 40.4375 6.390625 
Q 35.546875 2.25 31.03125 0.53125 
Q 26.515625 -1.171875 21.34375 -1.171875 
Q 12.796875 -1.171875 8.203125 3 
Q 3.609375 7.171875 3.609375 13.671875 
Q 3.609375 17.484375 5.34375 20.625 
Q 7.078125 23.78125 9.890625 25.6875 
Q 12.703125 27.59375 16.21875 28.5625 
Q 18.796875 29.25 24.03125 29.890625 
Q 34.671875 31.15625 39.703125 32.90625 
Q 39.75 34.71875 39.75 35.203125 
Q 39.75 40.578125 37.25 42.78125 
Q 33.890625 45.75 27.25 45.75 
Q 21.046875 45.75 18.09375 43.578125 
Q 15.140625 41.40625 13.71875 35.890625 
L 5.125 37.0625 
Q 6.296875 42.578125 8.984375 45.96875 
Q 11.671875 49.359375 16.75 51.1875 
Q 21.828125 53.03125 28.515625 53.03125 
Q 35.15625 53.03125 39.296875 51.46875 
Q 43.453125 49.90625 45.40625 47.53125 
Q 47.359375 45.171875 48.140625 41.546875 
Q 48.578125 39.3125 48.578125 33.453125 
L 48.578125 21.734375 
Q 48.578125 9.46875 49.140625 6.21875 
Q 49.703125 2.984375 51.375 0 
L 42.1875 0 
Q 40.828125 2.734375 40.4375 6.390625 
M 39.703125 26.03125 
Q 34.90625 24.078125 25.34375 22.703125 
Q 19.921875 21.921875 17.671875 20.9375 
Q 15.4375 19.96875 14.203125 18.09375 
Q 12.984375 16.21875 12.984375 13.921875 
Q 12.984375 10.40625 15.640625 8.0625 
Q 18.3125 5.71875 23.4375 5.71875 
Q 28.515625 5.71875 32.46875 7.9375 
Q 36.421875 10.15625 38.28125 14.015625 
Q 39.703125 17 39.703125 22.796875 
z
" id="ArialMT-61"/>
      <path d="M 42.09375 16.703125 
L 51.171875 15.578125 
Q 49.03125 7.625 43.21875 3.21875 
Q 37.40625 -1.171875 28.375 -1.171875 
Q 17 -1.171875 10.328125 5.828125 
Q 3.65625 12.84375 3.65625 25.484375 
Q 3.65625 38.578125 10.390625 45.796875 
Q 17.140625 53.03125 27.875 53.03125 
Q 38.28125 53.03125 44.875 45.953125 
Q 51.46875 38.875 51.46875 26.03125 
Q 51.46875 25.25 51.421875 23.6875 
L 12.75 23.6875 
Q 13.234375 15.140625 17.578125 10.59375 
Q 21.921875 6.0625 28.421875 6.0625 
Q 33.25 6.0625 36.671875 8.59375 
Q 40.09375 11.140625 42.09375 16.703125 
M 13.234375 30.90625 
L 42.1875 30.90625 
Q 41.609375 37.453125 38.875 40.71875 
Q 34.671875 45.796875 27.984375 45.796875 
Q 21.921875 45.796875 17.796875 41.75 
Q 13.671875 37.703125 13.234375 30.90625 
" id="ArialMT-65"/>
      <path d="M 25.78125 7.859375 
L 27.046875 0.09375 
Q 23.34375 -0.6875 20.40625 -0.6875 
Q 15.625 -0.6875 12.984375 0.828125 
Q 10.359375 2.34375 9.28125 4.8125 
Q 8.203125 7.28125 8.203125 15.1875 
L 8.203125 45.015625 
L 1.765625 45.015625 
L 1.765625 51.859375 
L 8.203125 51.859375 
L 8.203125 64.703125 
L 16.9375 69.96875 
L 16.9375 51.859375 
L 25.78125 51.859375 
L 25.78125 45.015625 
L 16.9375 45.015625 
L 16.9375 14.703125 
Q 16.9375 10.9375 17.40625 9.859375 
Q 17.875 8.796875 18.921875 8.15625 
Q 19.96875 7.515625 21.921875 7.515625 
Q 23.390625 7.515625 25.78125 7.859375 
" id="ArialMT-74"/>
      <path d="M 6.640625 61.46875 
L 6.640625 71.578125 
L 15.4375 71.578125 
L 15.4375 61.46875 
z
M 6.640625 0 
L 6.640625 51.859375 
L 15.4375 51.859375 
L 15.4375 0 
z
" id="ArialMT-69"/>
      <path d="M 6.5 0 
L 6.5 51.859375 
L 14.40625 51.859375 
L 14.40625 44 
Q 17.4375 49.515625 20 51.265625 
Q 22.5625 53.03125 25.640625 53.03125 
Q 30.078125 53.03125 34.671875 50.203125 
L 31.640625 42.046875 
Q 28.421875 43.953125 25.203125 43.953125 
Q 22.3125 43.953125 20.015625 42.21875 
Q 17.71875 40.484375 16.75 37.40625 
Q 15.28125 32.71875 15.28125 27.15625 
L 15.28125 0 
z
" id="ArialMT-72"/>
      <path d="M 3.328125 25.921875 
Q 3.328125 40.328125 11.328125 47.265625 
Q 18.015625 53.03125 27.640625 53.03125 
Q 38.328125 53.03125 45.109375 46.015625 
Q 51.90625 39.015625 51.90625 26.65625 
Q 51.90625 16.65625 48.90625 10.90625 
Q 45.90625 5.171875 40.15625 2 
Q 34.421875 -1.171875 27.640625 -1.171875 
Q 16.75 -1.171875 10.03125 5.8125 
Q 3.328125 12.796875 3.328125 25.921875 
M 12.359375 25.921875 
Q 12.359375 15.96875 16.703125 11.015625 
Q 21.046875 6.0625 27.640625 6.0625 
Q 34.1875 6.0625 38.53125 11.03125 
Q 42.875 16.015625 42.875 26.21875 
Q 42.875 35.84375 38.5 40.796875 
Q 34.125 45.75 27.640625 45.75 
Q 21.046875 45.75 16.703125 40.8125 
Q 12.359375 35.890625 12.359375 25.921875 
" id="ArialMT-6f"/>
      <path d="M 6.59375 0 
L 6.59375 51.859375 
L 14.5 51.859375 
L 14.5 44.484375 
Q 20.21875 53.03125 31 53.03125 
Q 35.6875 53.03125 39.625 51.34375 
Q 43.5625 49.65625 45.515625 46.921875 
Q 47.46875 44.1875 48.25 40.4375 
Q 48.734375 37.984375 48.734375 31.890625 
L 48.734375 0 
L 39.9375 0 
L 39.9375 31.546875 
Q 39.9375 36.921875 38.90625 39.578125 
Q 37.890625 42.234375 35.28125 43.8125 
Q 32.671875 45.40625 29.15625 45.40625 
Q 23.53125 45.40625 19.453125 41.84375 
Q 15.375 38.28125 15.375 28.328125 
L 15.375 0 
z
" id="ArialMT-6e"/>
      <path d="M 5.03125 -1.21875 
L 9.28125 19.578125 
L 1.03125 19.578125 
L 1.03125 26.859375 
L 10.75 26.859375 
L 14.359375 44.578125 
L 1.03125 44.578125 
L 1.03125 51.859375 
L 15.828125 51.859375 
L 20.0625 72.796875 
L 27.390625 72.796875 
L 23.140625 51.859375 
L 38.53125 51.859375 
L 42.78125 72.796875 
L 50.140625 72.796875 
L 45.90625 51.859375 
L 54.34375 51.859375 
L 54.34375 44.578125 
L 44.4375 44.578125 
L 40.765625 26.859375 
L 54.34375 26.859375 
L 54.34375 19.578125 
L 39.3125 19.578125 
L 35.0625 -1.21875 
L 27.734375 -1.21875 
L 31.9375 19.578125 
L 16.609375 19.578125 
L 12.359375 -1.21875 
z
M 18.0625 26.859375 
L 33.40625 26.859375 
L 37.0625 44.578125 
L 21.6875 44.578125 
z
" id="ArialMT-23"/>
      <path id="ArialMT-20"/>
     </defs>
     <g style="fill:#262626;" transform="translate(196.9421875 281.01890625)scale(0.11 -0.11)">
      <use xlink:href="#ArialMT-49"/>
      <use x="27.783203125" xlink:href="#ArialMT-74"/>
      <use x="55.56640625" xlink:href="#ArialMT-65"/>
      <use x="111.181640625" xlink:href="#ArialMT-72"/>
      <use x="144.482421875" xlink:href="#ArialMT-61"/>
      <use x="200.09765625" xlink:href="#ArialMT-74"/>
      <use x="227.880859375" xlink:href="#ArialMT-69"/>
      <use x="250.09765625" xlink:href="#ArialMT-6f"/>
      <use x="305.712890625" xlink:href="#ArialMT-6e"/>
      <use x="361.328125" xlink:href="#ArialMT-20"/>
      <use x="389.111328125" xlink:href="#ArialMT-23"/>
     </g>
    </g>
   </g>
   <g id="matplotlib.axis_2">
    <g id="ytick_1">
     <g id="line2d_16">
      <path clip-path="url(#p0e7b89a710)" d="M 54 252 
L 388.8 252 
" style="fill:none;stroke:#ffffff;stroke-linecap:round;"/>
     </g>
     <g id="line2d_17"/>
     <g id="line2d_18"/>
     <g id="text_7">
      <!-- 380 -->
      <defs>
       <path d="M 17.671875 38.8125 
Q 12.203125 40.828125 9.5625 44.53125 
Q 6.9375 48.25 6.9375 53.421875 
Q 6.9375 61.234375 12.546875 66.546875 
Q 18.171875 71.875 27.484375 71.875 
Q 36.859375 71.875 42.578125 66.421875 
Q 48.296875 60.984375 48.296875 53.171875 
Q 48.296875 48.1875 45.671875 44.5 
Q 43.0625 40.828125 37.75 38.8125 
Q 44.34375 36.671875 47.78125 31.875 
Q 51.21875 27.09375 51.21875 20.453125 
Q 51.21875 11.28125 44.71875 5.03125 
Q 38.234375 -1.21875 27.640625 -1.21875 
Q 17.046875 -1.21875 10.546875 5.046875 
Q 4.046875 11.328125 4.046875 20.703125 
Q 4.046875 27.6875 7.59375 32.390625 
Q 11.140625 37.109375 17.671875 38.8125 
M 15.921875 53.71875 
Q 15.921875 48.640625 19.1875 45.40625 
Q 22.46875 42.1875 27.6875 42.1875 
Q 32.765625 42.1875 36.015625 45.375 
Q 39.265625 48.578125 39.265625 53.21875 
Q 39.265625 58.0625 35.90625 61.359375 
Q 32.5625 64.65625 27.59375 64.65625 
Q 22.5625 64.65625 19.234375 61.421875 
Q 15.921875 58.203125 15.921875 53.71875 
M 13.09375 20.65625 
Q 13.09375 16.890625 14.875 13.375 
Q 16.65625 9.859375 20.171875 7.921875 
Q 23.6875 6 27.734375 6 
Q 34.03125 6 38.125 10.046875 
Q 42.234375 14.109375 42.234375 20.359375 
Q 42.234375 26.703125 38.015625 30.859375 
Q 33.796875 35.015625 27.4375 35.015625 
Q 21.234375 35.015625 17.15625 30.90625 
Q 13.09375 26.8125 13.09375 20.65625 
" id="ArialMT-38"/>
       <path d="M 4.203125 18.890625 
L 12.984375 20.0625 
Q 14.5 12.59375 18.140625 9.296875 
Q 21.78125 6 27 6 
Q 33.203125 6 37.46875 10.296875 
Q 41.75 14.59375 41.75 20.953125 
Q 41.75 27 37.796875 30.921875 
Q 33.84375 34.859375 27.734375 34.859375 
Q 25.25 34.859375 21.53125 33.890625 
L 22.515625 41.609375 
Q 23.390625 41.5 23.921875 41.5 
Q 29.546875 41.5 34.03125 44.421875 
Q 38.53125 47.359375 38.53125 53.46875 
Q 38.53125 58.296875 35.25 61.46875 
Q 31.984375 64.65625 26.8125 64.65625 
Q 21.6875 64.65625 18.265625 61.421875 
Q 14.84375 58.203125 13.875 51.765625 
L 5.078125 53.328125 
Q 6.6875 62.15625 12.390625 67.015625 
Q 18.109375 71.875 26.609375 71.875 
Q 32.46875 71.875 37.390625 69.359375 
Q 42.328125 66.84375 44.9375 62.5 
Q 47.5625 58.15625 47.5625 53.265625 
Q 47.5625 48.640625 45.0625 44.828125 
Q 42.578125 41.015625 37.703125 38.765625 
Q 44.046875 37.3125 47.5625 32.6875 
Q 51.078125 28.078125 51.078125 21.140625 
Q 51.078125 11.765625 44.234375 5.25 
Q 37.40625 -1.265625 26.953125 -1.265625 
Q 17.53125 -1.265625 11.296875 4.34375 
Q 5.078125 9.96875 4.203125 18.890625 
" id="ArialMT-33"/>
      </defs>
      <g style="fill:#262626;" transform="translate(30.3171875 254.58515625)scale(0.1 -0.1)">
       <use xlink:href="#ArialMT-33"/>
       <use x="55.615234375" xlink:href="#ArialMT-38"/>
       <use x="111.23046875" xlink:href="#ArialMT-30"/>
      </g>
     </g>
    </g>
    <g id="ytick_2">
     <g id="line2d_19">
      <path clip-path="url(#p0e7b89a710)" d="M 54 227.2 
L 388.8 227.2 
" style="fill:none;stroke:#ffffff;stroke-linecap:round;"/>
     </g>
     <g id="line2d_20"/>
     <g id="line2d_21"/>
     <g id="text_8">
      <!-- 400 -->
      <defs>
       <path d="M 32.328125 0 
L 32.328125 17.140625 
L 1.265625 17.140625 
L 1.265625 25.203125 
L 33.9375 71.578125 
L 41.109375 71.578125 
L 41.109375 25.203125 
L 50.78125 25.203125 
L 50.78125 17.140625 
L 41.109375 17.140625 
L 41.109375 0 
z
M 32.328125 25.203125 
L 32.328125 57.46875 
L 9.90625 25.203125 
z
" id="ArialMT-34"/>
      </defs>
      <g style="fill:#262626;" transform="translate(30.3171875 229.78515625)scale(0.1 -0.1)">
       <use xlink:href="#ArialMT-34"/>
       <use x="55.615234375" xlink:href="#ArialMT-30"/>
       <use x="111.23046875" xlink:href="#ArialMT-30"/>
      </g>
     </g>
    </g>
    <g id="ytick_3">
     <g id="line2d_22">
      <path clip-path="url(#p0e7b89a710)" d="M 54 202.4 
L 388.8 202.4 
" style="fill:none;stroke:#ffffff;stroke-linecap:round;"/>
     </g>
     <g id="line2d_23"/>
     <g id="line2d_24"/>
     <g id="text_9">
      <!-- 420 -->
      <g style="fill:#262626;" transform="translate(30.3171875 204.98515625)scale(0.1 -0.1)">
       <use xlink:href="#ArialMT-34"/>
       <use x="55.615234375" xlink:href="#ArialMT-32"/>
       <use x="111.23046875" xlink:href="#ArialMT-30"/>
      </g>
     </g>
    </g>
    <g id="ytick_4">
     <g id="line2d_25">
      <path clip-path="url(#p0e7b89a710)" d="M 54 177.6 
L 388.8 177.6 
" style="fill:none;stroke:#ffffff;stroke-linecap:round;"/>
     </g>
     <g id="line2d_26"/>
     <g id="line2d_27"/>
     <g id="text_10">
      <!-- 440 -->
      <g style="fill:#262626;" transform="translate(30.3171875 180.18515625)scale(0.1 -0.1)">
       <use xlink:href="#ArialMT-34"/>
       <use x="55.615234375" xlink:href="#ArialMT-34"/>
       <use x="111.23046875" xlink:href="#ArialMT-30"/>
      </g>
     </g>
    </g>
    <g id="ytick_5">
     <g id="line2d_28">
      <path clip-path="url(#p0e7b89a710)" d="M 54 152.8 
L 388.8 152.8 
" style="fill:none;stroke:#ffffff;stroke-linecap:round;"/>
     </g>
     <g id="line2d_29"/>
     <g id="line2d_30"/>
     <g id="text_11">
      <!-- 460 -->
      <defs>
       <path d="M 49.75 54.046875 
L 41.015625 53.375 
Q 39.84375 58.546875 37.703125 60.890625 
Q 34.125 64.65625 28.90625 64.65625 
Q 24.703125 64.65625 21.53125 62.3125 
Q 17.390625 59.28125 14.984375 53.46875 
Q 12.59375 47.65625 12.5 36.921875 
Q 15.671875 41.75 20.265625 44.09375 
Q 24.859375 46.4375 29.890625 46.4375 
Q 38.671875 46.4375 44.84375 39.96875 
Q 51.03125 33.5 51.03125 23.25 
Q 51.03125 16.5 48.125 10.71875 
Q 45.21875 4.9375 40.140625 1.859375 
Q 35.0625 -1.21875 28.609375 -1.21875 
Q 17.625 -1.21875 10.6875 6.859375 
Q 3.765625 14.9375 3.765625 33.5 
Q 3.765625 54.25 11.421875 63.671875 
Q 18.109375 71.875 29.4375 71.875 
Q 37.890625 71.875 43.28125 67.140625 
Q 48.6875 62.40625 49.75 54.046875 
M 13.875 23.1875 
Q 13.875 18.65625 15.796875 14.5 
Q 17.71875 10.359375 21.1875 8.171875 
Q 24.65625 6 28.46875 6 
Q 34.03125 6 38.03125 10.484375 
Q 42.046875 14.984375 42.046875 22.703125 
Q 42.046875 30.125 38.078125 34.390625 
Q 34.125 38.671875 28.125 38.671875 
Q 22.171875 38.671875 18.015625 34.390625 
Q 13.875 30.125 13.875 23.1875 
" id="ArialMT-36"/>
      </defs>
      <g style="fill:#262626;" transform="translate(30.3171875 155.38515625)scale(0.1 -0.1)">
       <use xlink:href="#ArialMT-34"/>
       <use x="55.615234375" xlink:href="#ArialMT-36"/>
       <use x="111.23046875" xlink:href="#ArialMT-30"/>
      </g>
     </g>
    </g>
    <g id="ytick_6">
     <g id="line2d_31">
      <path clip-path="url(#p0e7b89a710)" d="M 54 128 
L 388.8 128 
" style="fill:none;stroke:#ffffff;stroke-linecap:round;"/>
     </g>
     <g id="line2d_32"/>
     <g id="line2d_33"/>
     <g id="text_12">
      <!-- 480 -->
      <g style="fill:#262626;" transform="translate(30.3171875 130.58515625)scale(0.1 -0.1)">
       <use xlink:href="#ArialMT-34"/>
       <use x="55.615234375" xlink:href="#ArialMT-38"/>
       <use x="111.23046875" xlink:href="#ArialMT-30"/>
      </g>
     </g>
    </g>
    <g id="ytick_7">
     <g id="line2d_34">
      <path clip-path="url(#p0e7b89a710)" d="M 54 103.2 
L 388.8 103.2 
" style="fill:none;stroke:#ffffff;stroke-linecap:round;"/>
     </g>
     <g id="line2d_35"/>
     <g id="line2d_36"/>
     <g id="text_13">
      <!-- 500 -->
      <g style="fill:#262626;" transform="translate(30.3171875 105.78515625)scale(0.1 -0.1)">
       <use xlink:href="#ArialMT-35"/>
       <use x="55.615234375" xlink:href="#ArialMT-30"/>
       <use x="111.23046875" xlink:href="#ArialMT-30"/>
      </g>
     </g>
    </g>
    <g id="ytick_8">
     <g id="line2d_37">
      <path clip-path="url(#p0e7b89a710)" d="M 54 78.4 
L 388.8 78.4 
" style="fill:none;stroke:#ffffff;stroke-linecap:round;"/>
     </g>
     <g id="line2d_38"/>
     <g id="line2d_39"/>
     <g id="text_14">
      <!-- 520 -->
      <g style="fill:#262626;" transform="translate(30.3171875 80.98515625)scale(0.1 -0.1)">
       <use xlink:href="#ArialMT-35"/>
       <use x="55.615234375" xlink:href="#ArialMT-32"/>
       <use x="111.23046875" xlink:href="#ArialMT-30"/>
      </g>
     </g>
    </g>
    <g id="ytick_9">
     <g id="line2d_40">
      <path clip-path="url(#p0e7b89a710)" d="M 54 53.6 
L 388.8 53.6 
" style="fill:none;stroke:#ffffff;stroke-linecap:round;"/>
     </g>
     <g id="line2d_41"/>
     <g id="line2d_42"/>
     <g id="text_15">
      <!-- 540 -->
      <g style="fill:#262626;" transform="translate(30.3171875 56.18515625)scale(0.1 -0.1)">
       <use xlink:href="#ArialMT-35"/>
       <use x="55.615234375" xlink:href="#ArialMT-34"/>
       <use x="111.23046875" xlink:href="#ArialMT-30"/>
      </g>
     </g>
    </g>
    <g id="ytick_10">
     <g id="line2d_43">
      <path clip-path="url(#p0e7b89a710)" d="M 54 28.8 
L 388.8 28.8 
" style="fill:none;stroke:#ffffff;stroke-linecap:round;"/>
     </g>
     <g id="line2d_44"/>
     <g id="line2d_45"/>
     <g id="text_16">
      <!-- 560 -->
      <g style="fill:#262626;" transform="translate(30.3171875 31.38515625)scale(0.1 -0.1)">
       <use xlink:href="#ArialMT-35"/>
       <use x="55.615234375" xlink:href="#ArialMT-36"/>
       <use x="111.23046875" xlink:href="#ArialMT-30"/>
      </g>
     </g>
    </g>
    <g id="text_17">
     <!-- Load At Bottom (N) -->
     <defs>
      <path d="M 40.234375 0 
L 40.234375 6.546875 
Q 35.296875 -1.171875 25.734375 -1.171875 
Q 19.53125 -1.171875 14.328125 2.25 
Q 9.125 5.671875 6.265625 11.796875 
Q 3.421875 17.921875 3.421875 25.875 
Q 3.421875 33.640625 6 39.96875 
Q 8.59375 46.296875 13.765625 49.65625 
Q 18.953125 53.03125 25.34375 53.03125 
Q 30.03125 53.03125 33.6875 51.046875 
Q 37.359375 49.078125 39.65625 45.90625 
L 39.65625 71.578125 
L 48.390625 71.578125 
L 48.390625 0 
z
M 12.453125 25.875 
Q 12.453125 15.921875 16.640625 10.984375 
Q 20.84375 6.0625 26.5625 6.0625 
Q 32.328125 6.0625 36.34375 10.765625 
Q 40.375 15.484375 40.375 25.140625 
Q 40.375 35.796875 36.265625 40.765625 
Q 32.171875 45.75 26.171875 45.75 
Q 20.3125 45.75 16.375 40.96875 
Q 12.453125 36.1875 12.453125 25.875 
" id="ArialMT-64"/>
      <path d="M -0.140625 0 
L 27.34375 71.578125 
L 37.546875 71.578125 
L 66.84375 0 
L 56.0625 0 
L 47.703125 21.6875 
L 17.78125 21.6875 
L 9.90625 0 
z
M 20.515625 29.390625 
L 44.78125 29.390625 
L 37.3125 49.21875 
Q 33.890625 58.25 32.234375 64.0625 
Q 30.859375 57.171875 28.375 50.390625 
z
" id="ArialMT-41"/>
      <path d="M 7.328125 0 
L 7.328125 71.578125 
L 34.1875 71.578125 
Q 42.390625 71.578125 47.34375 69.40625 
Q 52.296875 67.234375 55.09375 62.71875 
Q 57.90625 58.203125 57.90625 53.265625 
Q 57.90625 48.6875 55.421875 44.625 
Q 52.9375 40.578125 47.90625 38.09375 
Q 54.390625 36.1875 57.875 31.59375 
Q 61.375 27 61.375 20.75 
Q 61.375 15.71875 59.25 11.390625 
Q 57.125 7.078125 54 4.734375 
Q 50.875 2.390625 46.15625 1.1875 
Q 41.453125 0 34.625 0 
z
M 16.796875 41.5 
L 32.28125 41.5 
Q 38.578125 41.5 41.3125 42.328125 
Q 44.921875 43.40625 46.75 45.890625 
Q 48.578125 48.390625 48.578125 52.15625 
Q 48.578125 55.71875 46.875 58.421875 
Q 45.171875 61.140625 41.984375 62.140625 
Q 38.8125 63.140625 31.109375 63.140625 
L 16.796875 63.140625 
z
M 16.796875 8.453125 
L 34.625 8.453125 
Q 39.203125 8.453125 41.0625 8.796875 
Q 44.34375 9.375 46.53125 10.734375 
Q 48.734375 12.109375 50.140625 14.71875 
Q 51.5625 17.328125 51.5625 20.75 
Q 51.5625 24.75 49.515625 27.703125 
Q 47.46875 30.671875 43.828125 31.859375 
Q 40.1875 33.0625 33.34375 33.0625 
L 16.796875 33.0625 
z
" id="ArialMT-42"/>
      <path d="M 12.359375 -21.046875 
L 6.0625 -21.046875 
Q 20.65625 2.390625 20.65625 25.875 
Q 20.65625 35.0625 18.5625 44.09375 
Q 16.890625 51.421875 13.921875 58.15625 
Q 12.015625 62.546875 6.0625 72.796875 
L 12.359375 72.796875 
Q 21.53125 60.546875 25.921875 48.1875 
Q 29.6875 37.546875 29.6875 25.921875 
Q 29.6875 12.75 24.625 0.4375 
Q 19.578125 -11.859375 12.359375 -21.046875 
" id="ArialMT-29"/>
      <path d="M 23.390625 -21.046875 
Q 16.109375 -11.859375 11.078125 0.4375 
Q 6.0625 12.75 6.0625 25.921875 
Q 6.0625 37.546875 9.8125 48.1875 
Q 14.203125 60.546875 23.390625 72.796875 
L 29.6875 72.796875 
Q 23.78125 62.640625 21.875 58.296875 
Q 18.890625 51.5625 17.1875 44.234375 
Q 15.09375 35.109375 15.09375 25.875 
Q 15.09375 2.390625 29.6875 -21.046875 
z
" id="ArialMT-28"/>
      <path d="M 7.328125 0 
L 7.328125 71.578125 
L 16.796875 71.578125 
L 16.796875 8.453125 
L 52.046875 8.453125 
L 52.046875 0 
z
" id="ArialMT-4c"/>
      <path d="M 7.625 0 
L 7.625 71.578125 
L 17.328125 71.578125 
L 54.9375 15.375 
L 54.9375 71.578125 
L 64.015625 71.578125 
L 64.015625 0 
L 54.296875 0 
L 16.703125 56.25 
L 16.703125 0 
z
" id="ArialMT-4e"/>
      <path d="M 6.59375 0 
L 6.59375 51.859375 
L 14.453125 51.859375 
L 14.453125 44.578125 
Q 16.890625 48.390625 20.9375 50.703125 
Q 25 53.03125 30.171875 53.03125 
Q 35.9375 53.03125 39.625 50.640625 
Q 43.3125 48.25 44.828125 43.953125 
Q 50.984375 53.03125 60.84375 53.03125 
Q 68.5625 53.03125 72.703125 48.75 
Q 76.859375 44.484375 76.859375 35.59375 
L 76.859375 0 
L 68.109375 0 
L 68.109375 32.671875 
Q 68.109375 37.9375 67.25 40.25 
Q 66.40625 42.578125 64.15625 43.984375 
Q 61.921875 45.40625 58.890625 45.40625 
Q 53.421875 45.40625 49.796875 41.765625 
Q 46.1875 38.140625 46.1875 30.125 
L 46.1875 0 
L 37.40625 0 
L 37.40625 33.6875 
Q 37.40625 39.546875 35.25 42.46875 
Q 33.109375 45.40625 28.21875 45.40625 
Q 24.515625 45.40625 21.359375 43.453125 
Q 18.21875 41.5 16.796875 37.734375 
Q 15.375 33.984375 15.375 26.90625 
L 15.375 0 
z
" id="ArialMT-6d"/>
     </defs>
     <g style="fill:#262626;" transform="translate(23.00203125 187.46796875)rotate(-90.0)scale(0.11 -0.11)">
      <use xlink:href="#ArialMT-4c"/>
      <use x="55.615234375" xlink:href="#ArialMT-6f"/>
      <use x="111.23046875" xlink:href="#ArialMT-61"/>
      <use x="166.845703125" xlink:href="#ArialMT-64"/>
      <use x="222.4609375" xlink:href="#ArialMT-20"/>
      <use x="250.166015625" xlink:href="#ArialMT-41"/>
      <use x="316.865234375" xlink:href="#ArialMT-74"/>
      <use x="344.6484375" xlink:href="#ArialMT-20"/>
      <use x="372.431640625" xlink:href="#ArialMT-42"/>
      <use x="439.130859375" xlink:href="#ArialMT-6f"/>
      <use x="494.74609375" xlink:href="#ArialMT-74"/>
      <use x="522.529296875" xlink:href="#ArialMT-74"/>
      <use x="550.3125" xlink:href="#ArialMT-6f"/>
      <use x="605.927734375" xlink:href="#ArialMT-6d"/>
      <use x="689.228515625" xlink:href="#ArialMT-20"/>
      <use x="717.01171875" xlink:href="#ArialMT-28"/>
      <use x="750.3125" xlink:href="#ArialMT-4e"/>
      <use x="822.529296875" xlink:href="#ArialMT-29"/>
     </g>
    </g>
   </g>
   <g id="line2d_46">
    <path clip-path="url(#p0e7b89a710)" d="M 54 79.274622 
L 55.674 89.975549 
L 57.348 95.597448 
L 59.022 99.09901 
L 60.696 101.459325 
L 62.37 103.522474 
L 64.044 105.103115 
L 65.718 106.367208 
L 69.066 108.465511 
L 70.74 109.348032 
L 72.414 110.538952 
L 75.762 111.94102 
L 80.784 113.58381 
L 87.48 115.421564 
L 89.154 115.837683 
L 90.828 116.128835 
L 94.176 116.907716 
L 97.524 117.480968 
L 100.872 118.10542 
L 107.568 119.098114 
L 109.242 119.826912 
L 110.916 119.609763 
L 119.286 120.70141 
L 120.96 121.350426 
L 122.634 121.070446 
L 124.308 121.253148 
L 125.982 121.947982 
L 127.656 122.106057 
L 129.33 121.808568 
L 131.004 122.466512 
L 132.678 122.134651 
L 136.026 122.475837 
L 137.7 123.105137 
L 142.722 123.49353 
L 144.396 123.250416 
L 146.07 123.835683 
L 149.418 124.112526 
L 151.092 124.33957 
L 157.788 124.760388 
L 159.462 124.943735 
L 161.136 124.96138 
L 166.158 125.404283 
L 196.29 127.192574 
L 199.638 127.3506 
L 201.312 127.481246 
L 202.986 127.484892 
L 208.008 127.837622 
L 211.356 127.978238 
L 213.03 128.103094 
L 214.704 128.085771 
L 216.378 128.24805 
L 218.052 128.252489 
L 219.726 128.414718 
L 224.748 128.546927 
L 228.096 128.750919 
L 231.444 128.878602 
L 234.792 129.037458 
L 238.14 129.131463 
L 241.488 129.345846 
L 246.51 129.431716 
L 249.858 129.603841 
L 254.88 129.737017 
L 258.228 129.895228 
L 266.598 130.217517 
L 269.946 130.26574 
L 331.884 131.696638 
L 333.558 131.618481 
L 340.254 131.874256 
L 345.276 131.98789 
L 346.95 131.894666 
L 348.624 132.101201 
L 372.06 132.278856 
L 373.734 132.470981 
L 378.756 132.481794 
L 383.778 132.531679 
L 385.452 132.628362 
L 385.452 132.628362 
" style="fill:none;stroke:#4c72b0;stroke-linecap:round;stroke-width:1.75;"/>
   </g>
   <g id="line2d_47">
    <path clip-path="url(#p0e7b89a710)" d="M 54 79.274622 
L 55.674 89.975549 
L 57.348 95.597448 
L 59.022 99.09901 
L 60.696 101.459325 
L 62.37 103.522474 
L 64.044 105.103115 
L 65.718 106.367208 
L 69.066 108.465511 
L 70.74 109.348032 
L 72.414 110.538952 
L 75.762 111.94102 
L 80.784 113.58381 
L 87.48 115.421564 
L 89.154 115.837683 
L 90.828 116.128835 
L 94.176 116.907716 
L 97.524 117.480968 
L 100.872 118.10542 
L 107.568 119.098114 
L 109.242 119.826912 
L 110.916 119.609763 
L 119.286 120.70141 
L 120.96 121.350426 
L 122.634 121.070446 
L 124.308 121.253148 
L 125.982 121.947982 
L 127.656 122.106057 
L 129.33 121.808568 
L 131.004 122.466512 
L 132.678 122.134651 
L 136.026 122.475837 
L 137.7 123.105137 
L 142.722 123.49353 
L 144.396 123.250416 
L 146.07 123.835683 
L 149.418 124.112526 
L 151.092 124.33957 
L 157.788 124.760388 
L 159.462 124.943735 
L 161.136 124.96138 
L 166.158 125.404283 
L 196.29 127.192574 
L 199.638 127.3506 
L 201.312 127.481246 
L 202.986 127.484892 
L 208.008 127.837622 
L 211.356 127.978238 
L 213.03 128.103094 
L 214.704 128.085771 
L 216.378 128.24805 
L 218.052 128.252489 
L 219.726 128.414718 
L 224.748 128.546927 
L 228.096 128.750919 
L 231.444 128.878602 
L 234.792 129.037458 
L 238.14 129.131463 
L 241.488 129.345846 
L 246.51 129.431716 
L 249.858 129.603841 
L 254.88 129.737017 
L 258.228 129.895228 
L 266.598 130.217517 
L 269.946 130.26574 
L 331.884 131.696638 
L 333.558 131.618481 
L 340.254 131.874256 
L 345.276 131.98789 
L 346.95 131.894666 
L 348.624 132.101201 
L 372.06 132.278856 
L 373.734 132.470981 
L 378.756 132.481794 
L 383.778 132.531679 
L 385.452 132.628362 
L 385.452 132.628362 
" style="fill:none;stroke:#55a868;stroke-linecap:round;stroke-width:1.75;"/>
   </g>
   <g id="line2d_48">
    <path clip-path="url(#p0e7b89a710)" d="M 54 86.10536 
L 55.674 98.083314 
L 57.348 103.620348 
L 59.022 107.189774 
L 60.696 109.889887 
L 62.37 111.874544 
L 65.718 114.828819 
L 67.392 116.36627 
L 70.74 118.141814 
L 72.414 119.013125 
L 74.088 119.73633 
L 75.762 120.301324 
L 77.436 121.022594 
L 85.806 123.545684 
L 97.524 126.352598 
L 100.872 126.916252 
L 107.568 127.985951 
L 112.59 128.808244 
L 117.612 129.605874 
L 120.96 129.917772 
L 122.634 130.204584 
L 125.982 130.615197 
L 127.656 130.89638 
L 156.114 133.62273 
L 159.462 133.95412 
L 161.136 134.137789 
L 164.484 134.313361 
L 166.158 134.465348 
L 167.832 134.4883 
L 169.506 134.744534 
L 171.18 134.60388 
L 172.854 134.924458 
L 182.898 135.627947 
L 187.92 135.859368 
L 196.29 136.458003 
L 199.638 136.648082 
L 211.356 137.343338 
L 213.03 137.370457 
L 216.378 137.623466 
L 226.422 138.0331 
L 231.444 138.364218 
L 269.946 139.934851 
L 274.968 140.074636 
L 323.514 141.805875 
L 325.188 141.769989 
L 328.536 142.006817 
L 330.21 141.943205 
L 336.906 142.304032 
L 338.58 142.237457 
L 341.928 142.401447 
L 345.276 142.538504 
L 353.646 142.687614 
L 356.994 142.812718 
L 360.342 142.85091 
L 362.016 142.985152 
L 367.038 143.072646 
L 372.06 143.261573 
L 373.734 143.214093 
L 380.43 143.388053 
L 385.452 143.45753 
L 385.452 143.45753 
" style="fill:none;stroke:#c44e52;stroke-linecap:round;stroke-width:1.75;"/>
   </g>
   <g id="line2d_49">
    <path clip-path="url(#p0e7b89a710)" d="M 54 111.977241 
L 55.674 123.477323 
L 57.348 129.362748 
L 59.022 133.190355 
L 60.696 136.174688 
L 62.37 138.234464 
L 64.044 139.858356 
L 65.718 141.705311 
L 67.392 142.906164 
L 72.414 145.798625 
L 74.088 146.530783 
L 75.762 147.528797 
L 77.436 147.783282 
L 79.11 148.705681 
L 80.784 149.346848 
L 87.48 151.285724 
L 94.176 152.777184 
L 95.85 153.010502 
L 97.524 153.403334 
L 109.242 155.241052 
L 114.264 155.83206 
L 115.938 156.123126 
L 119.286 156.432803 
L 125.982 157.137532 
L 131.004 157.590132 
L 136.026 158.053136 
L 137.7 157.657068 
L 139.374 158.278878 
L 141.048 157.881669 
L 144.396 158.156614 
L 146.07 158.834733 
L 147.744 158.366695 
L 149.418 158.3722 
L 151.092 158.614335 
L 162.81 159.17582 
L 166.158 159.446152 
L 171.18 159.596601 
L 177.876 159.934464 
L 181.224 160.066202 
L 184.572 160.250193 
L 187.92 160.253801 
L 189.594 160.484218 
L 191.268 160.589023 
L 194.616 160.576734 
L 204.66 161.011788 
L 206.334 161.029347 
L 208.008 161.556086 
L 209.682 161.155492 
L 211.356 161.233376 
L 213.03 161.117709 
L 216.378 161.440097 
L 224.748 161.563204 
L 231.444 161.861238 
L 234.792 161.880322 
L 241.488 162.22405 
L 243.162 162.120894 
L 251.532 162.42028 
L 254.88 162.434552 
L 256.554 162.614104 
L 258.228 162.467214 
L 264.924 162.748805 
L 274.968 162.971918 
L 278.316 163.091107 
L 281.664 163.214066 
L 286.686 163.206588 
L 288.36 163.34429 
L 290.034 163.318424 
L 291.708 163.423415 
L 293.382 163.39575 
L 296.73 163.497418 
L 301.752 163.603438 
L 303.426 163.501113 
L 306.774 163.682376 
L 310.122 163.638679 
L 311.796 163.80221 
L 320.166 163.889878 
L 333.558 164.177298 
L 336.906 164.113921 
L 338.58 164.288389 
L 341.928 164.276064 
L 343.602 164.984166 
L 345.276 164.287695 
L 351.972 164.37819 
L 353.646 164.343358 
L 355.32 164.467024 
L 358.668 164.380273 
L 362.016 164.472938 
L 373.734 164.750698 
L 378.756 164.774209 
L 387.126 164.92901 
L 387.126 164.92901 
" style="fill:none;stroke:#8172b2;stroke-linecap:round;stroke-width:1.75;"/>
   </g>
   <g id="line2d_50">
    <path clip-path="url(#p0e7b89a710)" d="M 54 120.66602 
L 55.674 131.483408 
L 57.348 136.916418 
L 59.022 140.512914 
L 62.37 144.971979 
L 64.044 146.469862 
L 69.066 150.02617 
L 75.762 152.80739 
L 82.458 154.857048 
L 84.132 155.282356 
L 85.806 156.124502 
L 87.48 156.51406 
L 89.154 156.400563 
L 90.828 156.77787 
L 92.502 157.504262 
L 95.85 158.140072 
L 104.22 159.492615 
L 105.894 159.695913 
L 107.568 160.012572 
L 110.916 160.359672 
L 115.938 161.003567 
L 122.634 161.761877 
L 127.656 162.07711 
L 129.33 162.316938 
L 156.114 164.245064 
L 159.462 164.352931 
L 162.81 164.591334 
L 164.484 164.624318 
L 166.158 164.853482 
L 167.832 164.849365 
L 171.18 165.136041 
L 174.528 165.28179 
L 182.898 165.64459 
L 228.096 167.490677 
L 231.444 167.574699 
L 234.792 167.69328 
L 243.162 167.905072 
L 249.858 168.066843 
L 253.206 168.109065 
L 256.554 168.176508 
L 258.228 168.100149 
L 263.25 168.373991 
L 268.272 168.360363 
L 273.294 168.538018 
L 285.012 168.784828 
L 303.426 169.078484 
L 305.1 169.197983 
L 306.774 169.121401 
L 313.47 169.253796 
L 315.144 169.244 
L 316.818 169.348482 
L 321.84 169.25144 
L 323.514 169.439672 
L 328.536 169.515436 
L 331.884 169.528592 
L 341.928 169.65909 
L 355.32 169.909557 
L 358.668 169.901696 
L 372.06 170.115943 
L 373.734 170.008174 
L 377.082 170.135671 
L 382.104 170.144674 
L 385.452 170.242014 
L 385.452 170.242014 
" style="fill:none;stroke:#ccb974;stroke-linecap:round;stroke-width:1.75;"/>
   </g>
   <g id="line2d_51">
    <path clip-path="url(#p0e7b89a710)" d="M 54 153.496967 
L 55.674 159.734353 
L 57.348 163.802718 
L 59.022 166.430712 
L 60.696 168.39486 
L 64.044 171.277252 
L 69.066 174.294433 
L 72.414 175.599868 
L 77.436 177.086194 
L 82.458 178.303712 
L 85.806 178.920811 
L 87.48 179.575518 
L 95.85 180.941874 
L 99.198 181.316788 
L 104.22 181.974906 
L 107.568 182.226056 
L 109.242 182.500269 
L 115.938 183.046551 
L 127.656 184.071448 
L 129.33 184.125959 
L 131.004 184.314563 
L 137.7 184.723651 
L 139.374 184.818586 
L 141.048 185.242777 
L 142.722 185.058563 
L 144.396 185.109886 
L 146.07 185.56581 
L 152.766 185.969082 
L 156.114 186.1188 
L 157.788 185.8755 
L 159.462 186.263843 
L 161.136 186.02461 
L 164.484 186.602995 
L 208.008 188.282414 
L 209.682 188.232194 
L 213.03 188.428846 
L 219.726 188.550514 
L 223.074 188.687671 
L 233.118 188.931752 
L 254.88 189.490186 
L 308.448 190.66314 
L 310.122 191.067194 
L 311.796 190.690395 
L 316.818 190.867777 
L 318.492 191.207996 
L 320.166 190.922238 
L 325.188 190.950224 
L 330.21 191.098702 
L 331.884 191.027836 
L 336.906 191.21215 
L 338.58 191.639392 
L 340.254 191.264341 
L 341.928 191.24088 
L 343.602 191.725634 
L 345.276 191.367546 
L 348.624 191.389718 
L 350.298 191.827636 
L 351.972 191.433738 
L 353.646 191.894794 
L 355.32 191.871334 
L 356.994 191.526676 
L 358.668 191.910046 
L 360.342 192.004596 
L 362.016 191.611033 
L 368.712 191.713122 
L 370.386 192.179536 
L 372.06 192.138008 
L 373.734 191.759176 
L 375.408 192.213722 
L 380.43 192.326017 
L 382.104 191.936285 
L 383.778 192.303201 
L 385.452 192.34985 
L 385.452 192.34985 
" style="fill:none;stroke:#64b5cd;stroke-linecap:round;stroke-width:1.75;"/>
   </g>
   <g id="line2d_52">
    <path clip-path="url(#p0e7b89a710)" d="M 54 160.874086 
L 55.674 173.071731 
L 57.348 177.802418 
L 59.022 180.837293 
L 60.696 182.958362 
L 65.718 187.775762 
L 67.392 188.954482 
L 69.066 189.828558 
L 70.74 190.854286 
L 75.762 193.235061 
L 82.458 195.700044 
L 85.806 196.733113 
L 90.828 197.89105 
L 94.176 198.781519 
L 95.85 199.020665 
L 99.198 199.826058 
L 105.894 201.176021 
L 107.568 201.282351 
L 112.59 202.175039 
L 117.612 202.915108 
L 131.004 204.65809 
L 132.678 205.001904 
L 136.026 205.285864 
L 142.722 206.115871 
L 149.418 206.565706 
L 152.766 206.984354 
L 157.788 207.435156 
L 161.136 207.77509 
L 162.81 207.825856 
L 167.832 208.339811 
L 172.854 208.697166 
L 191.268 210.192123 
L 194.616 210.343874 
L 196.29 210.39986 
L 197.964 210.672871 
L 199.638 210.629347 
L 201.312 210.729824 
L 202.986 210.6754 
L 206.334 210.947295 
L 208.008 210.946564 
L 209.682 211.240072 
L 213.03 211.345124 
L 214.704 211.223542 
L 216.378 211.272969 
L 218.052 211.441807 
L 219.726 211.826505 
L 223.074 211.869558 
L 224.748 212.099317 
L 226.422 211.928681 
L 229.77 212.259934 
L 254.88 213.366039 
L 259.902 213.513636 
L 261.576 213.681322 
L 269.946 213.890299 
L 273.294 214.126345 
L 276.642 214.237028 
L 298.404 215.04056 
L 301.752 215.117192 
L 303.426 215.221364 
L 305.1 215.205654 
L 308.448 215.361336 
L 385.452 217.477185 
L 385.452 217.477185 
" style="fill:none;stroke:#4c72b0;stroke-linecap:round;stroke-width:1.75;"/>
   </g>
   <g id="line2d_53">
    <path clip-path="url(#p0e7b89a710)" d="M 54 175.622088 
L 55.674 187.6363 
L 57.348 193.138787 
L 59.022 196.559699 
L 60.696 198.75316 
L 62.37 200.737036 
L 65.718 203.639244 
L 69.066 205.818792 
L 72.414 207.571098 
L 80.784 211.125285 
L 82.458 211.375058 
L 84.132 212.137063 
L 87.48 213.113042 
L 90.828 213.941759 
L 92.502 214.220164 
L 95.85 215.055204 
L 99.198 215.67859 
L 105.894 216.900275 
L 107.568 217.13151 
L 109.242 217.488729 
L 110.916 217.664177 
L 115.938 218.499676 
L 120.96 219.135945 
L 139.374 221.341645 
L 166.158 223.716456 
L 171.18 224.066148 
L 182.898 224.928667 
L 184.572 224.943411 
L 189.594 225.416297 
L 191.268 225.369363 
L 194.616 225.582271 
L 196.29 226.034772 
L 197.964 225.787181 
L 216.378 226.860575 
L 226.422 227.374852 
L 228.096 227.395412 
L 231.444 227.696595 
L 241.488 228.149146 
L 243.162 228.508671 
L 244.836 228.240385 
L 251.532 228.533298 
L 261.576 228.894249 
L 263.25 229.302792 
L 264.924 229.413102 
L 266.598 229.143973 
L 268.272 229.150768 
L 269.946 229.584483 
L 271.62 229.304131 
L 273.294 229.404745 
L 274.968 229.721069 
L 276.642 229.795258 
L 278.316 229.524616 
L 279.99 229.960724 
L 281.664 229.618521 
L 286.686 229.870923 
L 290.034 229.968399 
L 295.056 230.025166 
L 296.73 230.408798 
L 298.404 230.504104 
L 300.078 230.27711 
L 301.752 230.212394 
L 303.426 230.662043 
L 305.1 230.741762 
L 306.774 230.419474 
L 308.448 230.45283 
L 310.122 230.890736 
L 316.818 231.149425 
L 318.492 230.84963 
L 321.84 230.933057 
L 323.514 231.285738 
L 325.188 231.092236 
L 326.862 231.369624 
L 330.21 231.483307 
L 331.884 231.208374 
L 335.232 231.375353 
L 336.906 231.688416 
L 343.602 231.949547 
L 348.624 232.022397 
L 350.298 231.720147 
L 351.972 232.099215 
L 360.342 232.329992 
L 362.016 232.050483 
L 365.364 232.100046 
L 367.038 232.532781 
L 368.712 232.250594 
L 370.386 232.629241 
L 375.408 232.766013 
L 377.082 232.499574 
L 378.756 232.483032 
L 380.43 232.878084 
L 382.104 232.875728 
L 383.778 232.559342 
L 385.452 232.933971 
L 385.452 232.933971 
" style="fill:none;stroke:#55a868;stroke-linecap:round;stroke-width:1.75;"/>
   </g>
   <g id="patch_3">
    <path d="M 54 28.8 
L 388.8 28.8 
" style="fill:none;"/>
   </g>
   <g id="patch_4">
    <path d="M 388.8 252 
L 388.8 28.8 
" style="fill:none;"/>
   </g>
   <g id="patch_5">
    <path d="M 54 252 
L 388.8 252 
" style="fill:none;"/>
   </g>
   <g id="patch_6">
    <path d="M 54 252 
L 54 28.8 
" style="fill:none;"/>
   </g>
   <g id="text_18">
    <!-- Load vs Iteration -->
    <defs>
     <path d="M 21 0 
L 1.265625 51.859375 
L 10.546875 51.859375 
L 21.6875 20.796875 
Q 23.484375 15.765625 25 10.359375 
Q 26.171875 14.453125 28.265625 20.21875 
L 39.796875 51.859375 
L 48.828125 51.859375 
L 29.203125 0 
z
" id="ArialMT-76"/>
     <path d="M 3.078125 15.484375 
L 11.765625 16.84375 
Q 12.5 11.625 15.84375 8.84375 
Q 19.1875 6.0625 25.203125 6.0625 
Q 31.25 6.0625 34.171875 8.515625 
Q 37.109375 10.984375 37.109375 14.3125 
Q 37.109375 17.28125 34.515625 19 
Q 32.71875 20.171875 25.53125 21.96875 
Q 15.875 24.421875 12.140625 26.203125 
Q 8.40625 27.984375 6.46875 31.125 
Q 4.546875 34.28125 4.546875 38.09375 
Q 4.546875 41.546875 6.125 44.5 
Q 7.71875 47.46875 10.453125 49.421875 
Q 12.5 50.921875 16.03125 51.96875 
Q 19.578125 53.03125 23.640625 53.03125 
Q 29.734375 53.03125 34.34375 51.265625 
Q 38.96875 49.515625 41.15625 46.5 
Q 43.359375 43.5 44.1875 38.484375 
L 35.59375 37.3125 
Q 35.015625 41.3125 32.203125 43.546875 
Q 29.390625 45.796875 24.265625 45.796875 
Q 18.21875 45.796875 15.625 43.796875 
Q 13.03125 41.796875 13.03125 39.109375 
Q 13.03125 37.40625 14.109375 36.03125 
Q 15.1875 34.625 17.484375 33.6875 
Q 18.796875 33.203125 25.25 31.453125 
Q 34.578125 28.953125 38.25 27.359375 
Q 41.9375 25.78125 44.03125 22.75 
Q 46.140625 19.734375 46.140625 15.234375 
Q 46.140625 10.84375 43.578125 6.953125 
Q 41.015625 3.078125 36.171875 0.953125 
Q 31.34375 -1.171875 25.25 -1.171875 
Q 15.140625 -1.171875 9.84375 3.03125 
Q 4.546875 7.234375 3.078125 15.484375 
" id="ArialMT-73"/>
    </defs>
    <g style="fill:#262626;" transform="translate(177.0421875 23.8)scale(0.12 -0.12)">
     <use xlink:href="#ArialMT-4c"/>
     <use x="55.615234375" xlink:href="#ArialMT-6f"/>
     <use x="111.23046875" xlink:href="#ArialMT-61"/>
     <use x="166.845703125" xlink:href="#ArialMT-64"/>
     <use x="222.4609375" xlink:href="#ArialMT-20"/>
     <use x="250.244140625" xlink:href="#ArialMT-76"/>
     <use x="300.244140625" xlink:href="#ArialMT-73"/>
     <use x="350.244140625" xlink:href="#ArialMT-20"/>
     <use x="378.02734375" xlink:href="#ArialMT-49"/>
     <use x="405.810546875" xlink:href="#ArialMT-74"/>
     <use x="433.59375" xlink:href="#ArialMT-65"/>
     <use x="489.208984375" xlink:href="#ArialMT-72"/>
     <use x="522.509765625" xlink:href="#ArialMT-61"/>
     <use x="578.125" xlink:href="#ArialMT-74"/>
     <use x="605.908203125" xlink:href="#ArialMT-69"/>
     <use x="628.125" xlink:href="#ArialMT-6f"/>
     <use x="683.740234375" xlink:href="#ArialMT-6e"/>
    </g>
   </g>
   <g id="legend_1">
    <g id="line2d_54">
     <path d="M 260.660937 41.457813 
L 280.660937 41.457813 
" style="fill:none;stroke:#55a868;stroke-linecap:round;stroke-width:1.75;"/>
    </g>
    <g id="line2d_55"/>
    <g id="text_19">
     <!-- Wilson Extra Duty -->
     <defs>
      <path d="M 0.734375 0 
L 19.671875 26.953125 
L 2.15625 51.859375 
L 13.140625 51.859375 
L 21.09375 39.703125 
Q 23.34375 36.234375 24.703125 33.890625 
Q 26.859375 37.109375 28.65625 39.59375 
L 37.40625 51.859375 
L 47.90625 51.859375 
L 29.984375 27.4375 
L 49.265625 0 
L 38.484375 0 
L 27.828125 16.109375 
L 25 20.453125 
L 11.375 0 
z
" id="ArialMT-78"/>
      <path d="M 6.203125 -19.96875 
L 5.21875 -11.71875 
Q 8.109375 -12.5 10.25 -12.5 
Q 13.1875 -12.5 14.9375 -11.515625 
Q 16.703125 -10.546875 17.828125 -8.796875 
Q 18.65625 -7.46875 20.515625 -2.25 
Q 20.75 -1.515625 21.296875 -0.09375 
L 1.609375 51.859375 
L 11.078125 51.859375 
L 21.875 21.828125 
Q 23.96875 16.109375 25.640625 9.8125 
Q 27.15625 15.875 29.25 21.625 
L 40.328125 51.859375 
L 49.125 51.859375 
L 29.390625 -0.875 
Q 26.21875 -9.421875 24.46875 -12.640625 
Q 22.125 -17 19.09375 -19.015625 
Q 16.0625 -21.046875 11.859375 -21.046875 
Q 9.328125 -21.046875 6.203125 -19.96875 
" id="ArialMT-79"/>
      <path d="M 40.578125 0 
L 40.578125 7.625 
Q 34.515625 -1.171875 24.125 -1.171875 
Q 19.53125 -1.171875 15.546875 0.578125 
Q 11.578125 2.34375 9.640625 5 
Q 7.71875 7.671875 6.9375 11.53125 
Q 6.390625 14.109375 6.390625 19.734375 
L 6.390625 51.859375 
L 15.1875 51.859375 
L 15.1875 23.09375 
Q 15.1875 16.21875 15.71875 13.8125 
Q 16.546875 10.359375 19.234375 8.375 
Q 21.921875 6.390625 25.875 6.390625 
Q 29.828125 6.390625 33.296875 8.421875 
Q 36.765625 10.453125 38.203125 13.9375 
Q 39.65625 17.4375 39.65625 24.078125 
L 39.65625 51.859375 
L 48.4375 51.859375 
L 48.4375 0 
z
" id="ArialMT-75"/>
      <path d="M 7.90625 0 
L 7.90625 71.578125 
L 59.671875 71.578125 
L 59.671875 63.140625 
L 17.390625 63.140625 
L 17.390625 41.21875 
L 56.984375 41.21875 
L 56.984375 32.8125 
L 17.390625 32.8125 
L 17.390625 8.453125 
L 61.328125 8.453125 
L 61.328125 0 
z
" id="ArialMT-45"/>
      <path d="M 20.21875 0 
L 1.21875 71.578125 
L 10.9375 71.578125 
L 21.828125 24.65625 
Q 23.578125 17.28125 24.859375 10.015625 
Q 27.59375 21.484375 28.078125 23.25 
L 41.703125 71.578125 
L 53.125 71.578125 
L 63.375 35.359375 
Q 67.234375 21.875 68.953125 10.015625 
Q 70.3125 16.796875 72.515625 25.59375 
L 83.734375 71.578125 
L 93.265625 71.578125 
L 73.640625 0 
L 64.5 0 
L 49.421875 54.546875 
Q 47.515625 61.375 47.171875 62.9375 
Q 46.046875 58.015625 45.0625 54.546875 
L 29.890625 0 
z
" id="ArialMT-57"/>
      <path d="M 7.71875 0 
L 7.71875 71.578125 
L 32.375 71.578125 
Q 40.71875 71.578125 45.125 70.5625 
Q 51.265625 69.140625 55.609375 65.4375 
Q 61.28125 60.640625 64.078125 53.1875 
Q 66.890625 45.75 66.890625 36.1875 
Q 66.890625 28.03125 64.984375 21.734375 
Q 63.09375 15.4375 60.109375 11.296875 
Q 57.125 7.171875 53.578125 4.796875 
Q 50.046875 2.4375 45.046875 1.21875 
Q 40.046875 0 33.546875 0 
z
M 17.1875 8.453125 
L 32.46875 8.453125 
Q 39.546875 8.453125 43.578125 9.765625 
Q 47.609375 11.078125 50 13.484375 
Q 53.375 16.84375 55.25 22.53125 
Q 57.125 28.21875 57.125 36.328125 
Q 57.125 47.5625 53.4375 53.59375 
Q 49.75 59.625 44.484375 61.671875 
Q 40.671875 63.140625 32.234375 63.140625 
L 17.1875 63.140625 
z
" id="ArialMT-44"/>
      <path d="M 6.390625 0 
L 6.390625 71.578125 
L 15.1875 71.578125 
L 15.1875 0 
z
" id="ArialMT-6c"/>
     </defs>
     <g style="fill:#262626;" transform="translate(288.6609375 44.9578125)scale(0.1 -0.1)">
      <use xlink:href="#ArialMT-57"/>
      <use x="94.384765625" xlink:href="#ArialMT-69"/>
      <use x="116.6015625" xlink:href="#ArialMT-6c"/>
      <use x="138.818359375" xlink:href="#ArialMT-73"/>
      <use x="188.818359375" xlink:href="#ArialMT-6f"/>
      <use x="244.43359375" xlink:href="#ArialMT-6e"/>
      <use x="300.048828125" xlink:href="#ArialMT-20"/>
      <use x="327.83203125" xlink:href="#ArialMT-45"/>
      <use x="394.53125" xlink:href="#ArialMT-78"/>
      <use x="444.53125" xlink:href="#ArialMT-74"/>
      <use x="472.314453125" xlink:href="#ArialMT-72"/>
      <use x="505.615234375" xlink:href="#ArialMT-61"/>
      <use x="561.23046875" xlink:href="#ArialMT-20"/>
      <use x="589.013671875" xlink:href="#ArialMT-44"/>
      <use x="661.23046875" xlink:href="#ArialMT-75"/>
      <use x="716.845703125" xlink:href="#ArialMT-74"/>
      <use x="744.62890625" xlink:href="#ArialMT-79"/>
     </g>
    </g>
    <g id="line2d_56">
     <path d="M 260.660937 55.720313 
L 280.660937 55.720313 
" style="fill:none;stroke:#c44e52;stroke-linecap:round;stroke-width:1.75;"/>
    </g>
    <g id="line2d_57"/>
    <g id="text_20">
     <!-- Wilson Regular Duty -->
     <defs>
      <path d="M 7.859375 0 
L 7.859375 71.578125 
L 39.59375 71.578125 
Q 49.171875 71.578125 54.140625 69.640625 
Q 59.125 67.71875 62.109375 62.828125 
Q 65.09375 57.953125 65.09375 52.046875 
Q 65.09375 44.4375 60.15625 39.203125 
Q 55.21875 33.984375 44.921875 32.5625 
Q 48.6875 30.765625 50.640625 29 
Q 54.78125 25.203125 58.5 19.484375 
L 70.953125 0 
L 59.03125 0 
L 49.5625 14.890625 
Q 45.40625 21.34375 42.71875 24.75 
Q 40.046875 28.171875 37.921875 29.53125 
Q 35.796875 30.90625 33.59375 31.453125 
Q 31.984375 31.78125 28.328125 31.78125 
L 17.328125 31.78125 
L 17.328125 0 
z
M 17.328125 39.984375 
L 37.703125 39.984375 
Q 44.1875 39.984375 47.84375 41.328125 
Q 51.515625 42.671875 53.421875 45.625 
Q 55.328125 48.578125 55.328125 52.046875 
Q 55.328125 57.125 51.640625 60.390625 
Q 47.953125 63.671875 39.984375 63.671875 
L 17.328125 63.671875 
z
" id="ArialMT-52"/>
      <path d="M 4.984375 -4.296875 
L 13.53125 -5.5625 
Q 14.0625 -9.515625 16.5 -11.328125 
Q 19.78125 -13.765625 25.4375 -13.765625 
Q 31.546875 -13.765625 34.859375 -11.328125 
Q 38.1875 -8.890625 39.359375 -4.5 
Q 40.046875 -1.8125 39.984375 6.78125 
Q 34.234375 0 25.640625 0 
Q 14.9375 0 9.078125 7.71875 
Q 3.21875 15.4375 3.21875 26.21875 
Q 3.21875 33.640625 5.90625 39.90625 
Q 8.59375 46.1875 13.6875 49.609375 
Q 18.796875 53.03125 25.6875 53.03125 
Q 34.859375 53.03125 40.828125 45.609375 
L 40.828125 51.859375 
L 48.921875 51.859375 
L 48.921875 7.03125 
Q 48.921875 -5.078125 46.453125 -10.125 
Q 44 -15.1875 38.640625 -18.109375 
Q 33.296875 -21.046875 25.484375 -21.046875 
Q 16.21875 -21.046875 10.5 -16.875 
Q 4.78125 -12.703125 4.984375 -4.296875 
M 12.25 26.859375 
Q 12.25 16.65625 16.296875 11.96875 
Q 20.359375 7.28125 26.46875 7.28125 
Q 32.515625 7.28125 36.609375 11.9375 
Q 40.71875 16.609375 40.71875 26.5625 
Q 40.71875 36.078125 36.5 40.90625 
Q 32.28125 45.75 26.3125 45.75 
Q 20.453125 45.75 16.34375 40.984375 
Q 12.25 36.234375 12.25 26.859375 
" id="ArialMT-67"/>
     </defs>
     <g style="fill:#262626;" transform="translate(288.6609375 59.2203125)scale(0.1 -0.1)">
      <use xlink:href="#ArialMT-57"/>
      <use x="94.384765625" xlink:href="#ArialMT-69"/>
      <use x="116.6015625" xlink:href="#ArialMT-6c"/>
      <use x="138.818359375" xlink:href="#ArialMT-73"/>
      <use x="188.818359375" xlink:href="#ArialMT-6f"/>
      <use x="244.43359375" xlink:href="#ArialMT-6e"/>
      <use x="300.048828125" xlink:href="#ArialMT-20"/>
      <use x="327.83203125" xlink:href="#ArialMT-52"/>
      <use x="400.048828125" xlink:href="#ArialMT-65"/>
      <use x="455.6640625" xlink:href="#ArialMT-67"/>
      <use x="511.279296875" xlink:href="#ArialMT-75"/>
      <use x="566.89453125" xlink:href="#ArialMT-6c"/>
      <use x="589.111328125" xlink:href="#ArialMT-61"/>
      <use x="644.7265625" xlink:href="#ArialMT-72"/>
      <use x="678.02734375" xlink:href="#ArialMT-20"/>
      <use x="705.810546875" xlink:href="#ArialMT-44"/>
      <use x="778.02734375" xlink:href="#ArialMT-75"/>
      <use x="833.642578125" xlink:href="#ArialMT-74"/>
      <use x="861.42578125" xlink:href="#ArialMT-79"/>
     </g>
    </g>
    <g id="line2d_58">
     <path d="M 260.660937 69.982813 
L 280.660937 69.982813 
" style="fill:none;stroke:#8172b2;stroke-linecap:round;stroke-width:1.75;"/>
    </g>
    <g id="line2d_59"/>
    <g id="text_21">
     <!-- Penn World Tour -->
     <defs>
      <path d="M 7.71875 0 
L 7.71875 71.578125 
L 34.71875 71.578125 
Q 41.84375 71.578125 45.609375 70.90625 
Q 50.875 70.015625 54.4375 67.546875 
Q 58.015625 65.09375 60.1875 60.640625 
Q 62.359375 56.203125 62.359375 50.875 
Q 62.359375 41.75 56.546875 35.421875 
Q 50.734375 29.109375 35.546875 29.109375 
L 17.1875 29.109375 
L 17.1875 0 
z
M 17.1875 37.546875 
L 35.6875 37.546875 
Q 44.875 37.546875 48.734375 40.96875 
Q 52.59375 44.390625 52.59375 50.59375 
Q 52.59375 55.078125 50.3125 58.265625 
Q 48.046875 61.46875 44.34375 62.5 
Q 41.9375 63.140625 35.5 63.140625 
L 17.1875 63.140625 
z
" id="ArialMT-50"/>
      <path d="M 25.921875 0 
L 25.921875 63.140625 
L 2.34375 63.140625 
L 2.34375 71.578125 
L 59.078125 71.578125 
L 59.078125 63.140625 
L 35.40625 63.140625 
L 35.40625 0 
z
" id="ArialMT-54"/>
     </defs>
     <g style="fill:#262626;" transform="translate(288.6609375 73.4828125)scale(0.1 -0.1)">
      <use xlink:href="#ArialMT-50"/>
      <use x="66.69921875" xlink:href="#ArialMT-65"/>
      <use x="122.314453125" xlink:href="#ArialMT-6e"/>
      <use x="177.9296875" xlink:href="#ArialMT-6e"/>
      <use x="233.544921875" xlink:href="#ArialMT-20"/>
      <use x="261.328125" xlink:href="#ArialMT-57"/>
      <use x="355.697265625" xlink:href="#ArialMT-6f"/>
      <use x="411.3125" xlink:href="#ArialMT-72"/>
      <use x="444.61328125" xlink:href="#ArialMT-6c"/>
      <use x="466.830078125" xlink:href="#ArialMT-64"/>
      <use x="522.4453125" xlink:href="#ArialMT-20"/>
      <use x="550.212890625" xlink:href="#ArialMT-54"/>
      <use x="611.125" xlink:href="#ArialMT-6f"/>
      <use x="666.740234375" xlink:href="#ArialMT-75"/>
      <use x="722.35546875" xlink:href="#ArialMT-72"/>
     </g>
    </g>
    <g id="line2d_60">
     <path d="M 260.660937 84.128125 
L 280.660937 84.128125 
" style="fill:none;stroke:#ccb974;stroke-linecap:round;stroke-width:1.75;"/>
    </g>
    <g id="line2d_61"/>
    <g id="text_22">
     <!-- Penn Regular Duty -->
     <g style="fill:#262626;" transform="translate(288.6609375 87.628125)scale(0.1 -0.1)">
      <use xlink:href="#ArialMT-50"/>
      <use x="66.69921875" xlink:href="#ArialMT-65"/>
      <use x="122.314453125" xlink:href="#ArialMT-6e"/>
      <use x="177.9296875" xlink:href="#ArialMT-6e"/>
      <use x="233.544921875" xlink:href="#ArialMT-20"/>
      <use x="261.328125" xlink:href="#ArialMT-52"/>
      <use x="333.544921875" xlink:href="#ArialMT-65"/>
      <use x="389.16015625" xlink:href="#ArialMT-67"/>
      <use x="444.775390625" xlink:href="#ArialMT-75"/>
      <use x="500.390625" xlink:href="#ArialMT-6c"/>
      <use x="522.607421875" xlink:href="#ArialMT-61"/>
      <use x="578.22265625" xlink:href="#ArialMT-72"/>
      <use x="611.5234375" xlink:href="#ArialMT-20"/>
      <use x="639.306640625" xlink:href="#ArialMT-44"/>
      <use x="711.5234375" xlink:href="#ArialMT-75"/>
      <use x="767.138671875" xlink:href="#ArialMT-74"/>
      <use x="794.921875" xlink:href="#ArialMT-79"/>
     </g>
    </g>
    <g id="line2d_62">
     <path d="M 260.660937 98.390625 
L 280.660937 98.390625 
" style="fill:none;stroke:#64b5cd;stroke-linecap:round;stroke-width:1.75;"/>
    </g>
    <g id="line2d_63"/>
    <g id="text_23">
     <!-- Penn Extra Duty -->
     <g style="fill:#262626;" transform="translate(288.6609375 101.890625)scale(0.1 -0.1)">
      <use xlink:href="#ArialMT-50"/>
      <use x="66.69921875" xlink:href="#ArialMT-65"/>
      <use x="122.314453125" xlink:href="#ArialMT-6e"/>
      <use x="177.9296875" xlink:href="#ArialMT-6e"/>
      <use x="233.544921875" xlink:href="#ArialMT-20"/>
      <use x="261.328125" xlink:href="#ArialMT-45"/>
      <use x="328.02734375" xlink:href="#ArialMT-78"/>
      <use x="378.02734375" xlink:href="#ArialMT-74"/>
      <use x="405.810546875" xlink:href="#ArialMT-72"/>
      <use x="439.111328125" xlink:href="#ArialMT-61"/>
      <use x="494.7265625" xlink:href="#ArialMT-20"/>
      <use x="522.509765625" xlink:href="#ArialMT-44"/>
      <use x="594.7265625" xlink:href="#ArialMT-75"/>
      <use x="650.341796875" xlink:href="#ArialMT-74"/>
      <use x="678.125" xlink:href="#ArialMT-79"/>
     </g>
    </g>
    <g id="line2d_64">
     <path d="M 260.660937 112.775 
L 280.660937 112.775 
" style="fill:none;stroke:#4c72b0;stroke-linecap:round;stroke-width:1.75;"/>
    </g>
    <g id="line2d_65"/>
    <g id="text_24">
     <!-- Dunlop Hard Court -->
     <defs>
      <path d="M 8.015625 0 
L 8.015625 71.578125 
L 17.484375 71.578125 
L 17.484375 42.1875 
L 54.6875 42.1875 
L 54.6875 71.578125 
L 64.15625 71.578125 
L 64.15625 0 
L 54.6875 0 
L 54.6875 33.734375 
L 17.484375 33.734375 
L 17.484375 0 
z
" id="ArialMT-48"/>
      <path d="M 58.796875 25.09375 
L 68.265625 22.703125 
Q 65.28125 11.03125 57.546875 4.90625 
Q 49.8125 -1.21875 38.625 -1.21875 
Q 27.046875 -1.21875 19.796875 3.484375 
Q 12.546875 8.203125 8.765625 17.140625 
Q 4.984375 26.078125 4.984375 36.328125 
Q 4.984375 47.515625 9.25 55.828125 
Q 13.53125 64.15625 21.40625 68.46875 
Q 29.296875 72.796875 38.765625 72.796875 
Q 49.515625 72.796875 56.828125 67.328125 
Q 64.15625 61.859375 67.046875 51.953125 
L 57.71875 49.75 
Q 55.21875 57.5625 50.484375 61.125 
Q 45.75 64.703125 38.578125 64.703125 
Q 30.328125 64.703125 24.78125 60.734375 
Q 19.234375 56.78125 16.984375 50.109375 
Q 14.75 43.453125 14.75 36.375 
Q 14.75 27.25 17.40625 20.4375 
Q 20.0625 13.625 25.671875 10.25 
Q 31.296875 6.890625 37.84375 6.890625 
Q 45.796875 6.890625 51.3125 11.46875 
Q 56.84375 16.0625 58.796875 25.09375 
" id="ArialMT-43"/>
      <path d="M 6.59375 -19.875 
L 6.59375 51.859375 
L 14.59375 51.859375 
L 14.59375 45.125 
Q 17.4375 49.078125 21 51.046875 
Q 24.5625 53.03125 29.640625 53.03125 
Q 36.28125 53.03125 41.359375 49.609375 
Q 46.4375 46.1875 49.015625 39.953125 
Q 51.609375 33.734375 51.609375 26.3125 
Q 51.609375 18.359375 48.75 11.984375 
Q 45.90625 5.609375 40.453125 2.21875 
Q 35.015625 -1.171875 29 -1.171875 
Q 24.609375 -1.171875 21.109375 0.6875 
Q 17.625 2.546875 15.375 5.375 
L 15.375 -19.875 
z
M 14.546875 25.640625 
Q 14.546875 15.625 18.59375 10.84375 
Q 22.65625 6.0625 28.421875 6.0625 
Q 34.28125 6.0625 38.453125 11.015625 
Q 42.625 15.96875 42.625 26.375 
Q 42.625 36.28125 38.546875 41.203125 
Q 34.46875 46.140625 28.8125 46.140625 
Q 23.1875 46.140625 18.859375 40.890625 
Q 14.546875 35.640625 14.546875 25.640625 
" id="ArialMT-70"/>
     </defs>
     <g style="fill:#262626;" transform="translate(288.6609375 116.275)scale(0.1 -0.1)">
      <use xlink:href="#ArialMT-44"/>
      <use x="72.216796875" xlink:href="#ArialMT-75"/>
      <use x="127.83203125" xlink:href="#ArialMT-6e"/>
      <use x="183.447265625" xlink:href="#ArialMT-6c"/>
      <use x="205.6640625" xlink:href="#ArialMT-6f"/>
      <use x="261.279296875" xlink:href="#ArialMT-70"/>
      <use x="316.89453125" xlink:href="#ArialMT-20"/>
      <use x="344.677734375" xlink:href="#ArialMT-48"/>
      <use x="416.89453125" xlink:href="#ArialMT-61"/>
      <use x="472.509765625" xlink:href="#ArialMT-72"/>
      <use x="505.810546875" xlink:href="#ArialMT-64"/>
      <use x="561.42578125" xlink:href="#ArialMT-20"/>
      <use x="589.208984375" xlink:href="#ArialMT-43"/>
      <use x="661.42578125" xlink:href="#ArialMT-6f"/>
      <use x="717.041015625" xlink:href="#ArialMT-75"/>
      <use x="772.65625" xlink:href="#ArialMT-72"/>
      <use x="805.95703125" xlink:href="#ArialMT-74"/>
     </g>
    </g>
    <g id="line2d_66">
     <path d="M 260.660937 127.042188 
L 280.660937 127.042188 
" style="fill:none;stroke:#55a868;stroke-linecap:round;stroke-width:1.75;"/>
    </g>
    <g id="line2d_67"/>
    <g id="text_25">
     <!-- Dunlop All Surface -->
     <defs>
      <path d="M 40.4375 19 
L 49.078125 17.875 
Q 47.65625 8.9375 41.8125 3.875 
Q 35.984375 -1.171875 27.484375 -1.171875 
Q 16.84375 -1.171875 10.375 5.78125 
Q 3.90625 12.75 3.90625 25.734375 
Q 3.90625 34.125 6.6875 40.421875 
Q 9.46875 46.734375 15.15625 49.875 
Q 20.84375 53.03125 27.546875 53.03125 
Q 35.984375 53.03125 41.359375 48.75 
Q 46.734375 44.484375 48.25 36.625 
L 39.703125 35.296875 
Q 38.484375 40.53125 35.375 43.15625 
Q 32.28125 45.796875 27.875 45.796875 
Q 21.234375 45.796875 17.078125 41.03125 
Q 12.9375 36.28125 12.9375 25.984375 
Q 12.9375 15.53125 16.9375 10.796875 
Q 20.953125 6.0625 27.390625 6.0625 
Q 32.5625 6.0625 36.03125 9.234375 
Q 39.5 12.40625 40.4375 19 
" id="ArialMT-63"/>
      <path d="M 4.5 23 
L 13.421875 23.78125 
Q 14.0625 18.40625 16.375 14.96875 
Q 18.703125 11.53125 23.578125 9.40625 
Q 28.46875 7.28125 34.578125 7.28125 
Q 39.984375 7.28125 44.140625 8.890625 
Q 48.296875 10.5 50.3125 13.296875 
Q 52.34375 16.109375 52.34375 19.4375 
Q 52.34375 22.796875 50.390625 25.3125 
Q 48.4375 27.828125 43.953125 29.546875 
Q 41.0625 30.671875 31.203125 33.03125 
Q 21.34375 35.40625 17.390625 37.5 
Q 12.25 40.1875 9.734375 44.15625 
Q 7.234375 48.140625 7.234375 53.078125 
Q 7.234375 58.5 10.296875 63.203125 
Q 13.375 67.921875 19.28125 70.359375 
Q 25.203125 72.796875 32.421875 72.796875 
Q 40.375 72.796875 46.453125 70.234375 
Q 52.546875 67.671875 55.8125 62.6875 
Q 59.078125 57.71875 59.328125 51.421875 
L 50.25 50.734375 
Q 49.515625 57.515625 45.28125 60.984375 
Q 41.0625 64.453125 32.8125 64.453125 
Q 24.21875 64.453125 20.28125 61.296875 
Q 16.359375 58.15625 16.359375 53.71875 
Q 16.359375 49.859375 19.140625 47.359375 
Q 21.875 44.875 33.421875 42.265625 
Q 44.96875 39.65625 49.265625 37.703125 
Q 55.515625 34.8125 58.484375 30.390625 
Q 61.46875 25.984375 61.46875 20.21875 
Q 61.46875 14.5 58.203125 9.4375 
Q 54.9375 4.390625 48.796875 1.578125 
Q 42.671875 -1.21875 35.015625 -1.21875 
Q 25.296875 -1.21875 18.71875 1.609375 
Q 12.15625 4.4375 8.421875 10.125 
Q 4.6875 15.828125 4.5 23 
" id="ArialMT-53"/>
      <path d="M 8.6875 0 
L 8.6875 45.015625 
L 0.921875 45.015625 
L 0.921875 51.859375 
L 8.6875 51.859375 
L 8.6875 57.375 
Q 8.6875 62.59375 9.625 65.140625 
Q 10.890625 68.5625 14.078125 70.671875 
Q 17.28125 72.796875 23.046875 72.796875 
Q 26.765625 72.796875 31.25 71.921875 
L 29.9375 64.265625 
Q 27.203125 64.75 24.75 64.75 
Q 20.75 64.75 19.09375 63.03125 
Q 17.4375 61.328125 17.4375 56.640625 
L 17.4375 51.859375 
L 27.546875 51.859375 
L 27.546875 45.015625 
L 17.4375 45.015625 
L 17.4375 0 
z
" id="ArialMT-66"/>
     </defs>
     <g style="fill:#262626;" transform="translate(288.6609375 130.5421875)scale(0.1 -0.1)">
      <use xlink:href="#ArialMT-44"/>
      <use x="72.216796875" xlink:href="#ArialMT-75"/>
      <use x="127.83203125" xlink:href="#ArialMT-6e"/>
      <use x="183.447265625" xlink:href="#ArialMT-6c"/>
      <use x="205.6640625" xlink:href="#ArialMT-6f"/>
      <use x="261.279296875" xlink:href="#ArialMT-70"/>
      <use x="316.89453125" xlink:href="#ArialMT-20"/>
      <use x="344.599609375" xlink:href="#ArialMT-41"/>
      <use x="411.298828125" xlink:href="#ArialMT-6c"/>
      <use x="433.515625" xlink:href="#ArialMT-6c"/>
      <use x="455.732421875" xlink:href="#ArialMT-20"/>
      <use x="483.515625" xlink:href="#ArialMT-53"/>
      <use x="550.21484375" xlink:href="#ArialMT-75"/>
      <use x="605.830078125" xlink:href="#ArialMT-72"/>
      <use x="639.130859375" xlink:href="#ArialMT-66"/>
      <use x="666.9140625" xlink:href="#ArialMT-61"/>
      <use x="722.529296875" xlink:href="#ArialMT-63"/>
      <use x="772.529296875" xlink:href="#ArialMT-65"/>
     </g>
    </g>
   </g>
  </g>
 </g>
 <defs>
  <clipPath id="p0e7b89a710">
   <rect height="223.2" width="334.8" x="54.0" y="28.8"/>
  </clipPath>
 </defs>
</svg>
